<?xml version="1.0" encoding="utf-8" standalone="no"?>
<!DOCTYPE svg PUBLIC "-//W3C//DTD SVG 1.1//EN"
  "http://www.w3.org/Graphics/SVG/1.1/DTD/svg11.dtd">
<svg xmlns:xlink="http://www.w3.org/1999/xlink" width="61.2pt" height="28.8pt" viewBox="0 0 61.2 28.8" xmlns="http://www.w3.org/2000/svg" version="1.1">
 <metadata>
  <rdf:RDF xmlns:dc="http://purl.org/dc/elements/1.1/" xmlns:cc="http://creativecommons.org/ns#" xmlns:rdf="http://www.w3.org/1999/02/22-rdf-syntax-ns#">
   <cc:Work>
    <dc:type rdf:resource="http://purl.org/dc/dcmitype/StillImage"/>
    <dc:date>2026-02-16T18:34:13.718801</dc:date>
    <dc:format>image/svg+xml</dc:format>
    <dc:creator>
     <cc:Agent>
      <dc:title>Matplotlib v3.10.8, https://matplotlib.org/</dc:title>
     </cc:Agent>
    </dc:creator>
   </cc:Work>
  </rdf:RDF>
 </metadata>
 <defs>
  <style type="text/css">*{stroke-linejoin: round; stroke-linecap: butt}</style>
 </defs>
 <g id="figure_1">
  <g id="patch_1">
   <path d="M 0 28.8 
L 61.2 28.8 
L 61.2 0 
L 0 0 
L 0 28.8 
z
" style="fill: none"/>
  </g>
  <g id="axes_1">
   <g id="patch_2">
    <path d="M 7.65 25.632 
L 55.08 25.632 
L 55.08 3.456 
L 7.65 3.456 
L 7.65 25.632 
z
" style="fill: none"/>
   </g>
   <g id="matplotlib.axis_1">
    <g id="xtick_1">
     <g id="line2d_1">
      <defs>
       <path id="mb8ec00baa3" d="M 0 0 
L 0 3.5 
" style="stroke: #000000; stroke-width: 0.8"/>
      </defs>
      <g>
       <use xlink:href="#mb8ec00baa3" x="9.805909" y="25.632" style="stroke: #000000; stroke-width: 0.8"/>
      </g>
     </g>
     <g id="text_1">
      <!-- $\mathdefault{10^{0}}$ -->
      <g transform="translate(4.525909 37.191063)">
       <text>
        <tspan x="0" y="-0.585938" style="font-size: 6px; font-family: 'DejaVu Sans'">1</tspan>
        <tspan x="3.817383" y="-0.585938" style="font-size: 6px; font-family: 'DejaVu Sans'">0</tspan>
        <tspan x="7.692188" y="-2.882812" style="font-size: 4.2px; font-family: 'DejaVu Sans'">0</tspan>
       </text>
      </g>
     </g>
    </g>
    <g id="xtick_2">
     <g id="line2d_2">
      <g>
       <use xlink:href="#mb8ec00baa3" x="24.178636" y="25.632" style="stroke: #000000; stroke-width: 0.8"/>
      </g>
     </g>
     <g id="text_2">
      <!-- $\mathdefault{10^{1}}$ -->
      <g transform="translate(18.898636 37.191063)">
       <text>
        <tspan x="0" y="-0.640625" style="font-size: 6px; font-family: 'DejaVu Sans'">1</tspan>
        <tspan x="3.817383" y="-0.640625" style="font-size: 6px; font-family: 'DejaVu Sans'">0</tspan>
        <tspan x="7.692188" y="-2.9375" style="font-size: 4.2px; font-family: 'DejaVu Sans'">1</tspan>
       </text>
      </g>
     </g>
    </g>
    <g id="xtick_3">
     <g id="line2d_3">
      <g>
       <use xlink:href="#mb8ec00baa3" x="38.551364" y="25.632" style="stroke: #000000; stroke-width: 0.8"/>
      </g>
     </g>
     <g id="text_3">
      <!-- $\mathdefault{10^{2}}$ -->
      <g transform="translate(33.271364 37.191063)">
       <text>
        <tspan x="0" y="-0.585938" style="font-size: 6px; font-family: 'DejaVu Sans'">1</tspan>
        <tspan x="3.817383" y="-0.585938" style="font-size: 6px; font-family: 'DejaVu Sans'">0</tspan>
        <tspan x="7.692188" y="-2.882812" style="font-size: 4.2px; font-family: 'DejaVu Sans'">2</tspan>
       </text>
      </g>
     </g>
    </g>
    <g id="xtick_4">
     <g id="line2d_4">
      <g>
       <use xlink:href="#mb8ec00baa3" x="52.924091" y="25.632" style="stroke: #000000; stroke-width: 0.8"/>
      </g>
     </g>
     <g id="text_4">
      <!-- $\mathdefault{10^{3}}$ -->
      <g transform="translate(47.644091 37.191063)">
       <text>
        <tspan x="0" y="-0.585938" style="font-size: 6px; font-family: 'DejaVu Sans'">1</tspan>
        <tspan x="3.817383" y="-0.585938" style="font-size: 6px; font-family: 'DejaVu Sans'">0</tspan>
        <tspan x="7.692188" y="-2.882812" style="font-size: 4.2px; font-family: 'DejaVu Sans'">3</tspan>
       </text>
      </g>
     </g>
    </g>
    <g id="text_5">
     <text style="font-size: 6px; font-family: 'DejaVu Sans', 'Arial', 'Helvetica', 'Lucida Grande', 'Verdana', 'Geneva', 'Lucid', 'Avant Garde', sans-serif; text-anchor: middle" x="31.365" y="46.997938" transform="rotate(-0 31.365 46.997938)">C (µg/mL)</text>
    </g>
   </g>
   <g id="matplotlib.axis_2">
    <g id="ytick_1">
     <g id="line2d_5">
      <defs>
       <path id="mffefbde645" d="M 0 0 
L -3.5 0 
" style="stroke: #000000; stroke-width: 0.8"/>
      </defs>
      <g>
       <use xlink:href="#mffefbde645" x="7.65" y="24.624001" style="stroke: #000000; stroke-width: 0.8"/>
      </g>
     </g>
     <g id="text_6">
      <text style="font-size: 6px; font-family: 'DejaVu Sans', 'Arial', 'Helvetica', 'Lucida Grande', 'Verdana', 'Geneva', 'Lucid', 'Avant Garde', sans-serif; text-anchor: end" x="0.65" y="26.903532" transform="rotate(-0 0.65 26.903532)">0.0</text>
     </g>
    </g>
    <g id="ytick_2">
     <g id="line2d_6">
      <g>
       <use xlink:href="#mffefbde645" x="7.65" y="14.540522" style="stroke: #000000; stroke-width: 0.8"/>
      </g>
     </g>
     <g id="text_7">
      <text style="font-size: 6px; font-family: 'DejaVu Sans', 'Arial', 'Helvetica', 'Lucida Grande', 'Verdana', 'Geneva', 'Lucid', 'Avant Garde', sans-serif; text-anchor: end" x="0.65" y="16.820053" transform="rotate(-0 0.65 16.820053)">0.5</text>
     </g>
    </g>
    <g id="ytick_3">
     <g id="line2d_7">
      <g>
       <use xlink:href="#mffefbde645" x="7.65" y="4.457044" style="stroke: #000000; stroke-width: 0.8"/>
      </g>
     </g>
     <g id="text_8">
      <text style="font-size: 6px; font-family: 'DejaVu Sans', 'Arial', 'Helvetica', 'Lucida Grande', 'Verdana', 'Geneva', 'Lucid', 'Avant Garde', sans-serif; text-anchor: end" x="0.65" y="6.736575" transform="rotate(-0 0.65 6.736575)">1.0</text>
     </g>
    </g>
    <g id="text_9">
     <text style="font-size: 6px; font-family: 'DejaVu Sans', 'Arial', 'Helvetica', 'Lucida Grande', 'Verdana', 'Geneva', 'Lucid', 'Avant Garde', sans-serif; text-anchor: middle" x="-14.139687" y="14.544" transform="rotate(-90 -14.139687 14.544)">Survivor fraction</text>
    </g>
   </g>
   <g id="line2d_8">
    <path d="M 9.805909 7.656175 
L 11.292743 7.976666 
L 12.779577 8.393058 
L 14.266411 8.935863 
L 15.753245 9.645072 
L 17.240078 10.571332 
L 18.726912 11.773891 
L 20.213746 13.309792 
L 21.70058 15.204818 
L 23.187414 17.398923 
L 24.674248 19.686225 
L 26.161082 21.728032 
L 27.647915 23.214505 
L 29.134749 24.066488 
L 30.621583 24.444602 
L 32.108417 24.574638 
L 33.595251 24.610009 
L 35.082085 24.617569 
L 36.568918 24.616789 
L 38.055752 24.606685 
L 39.542586 24.554337 
L 41.02942 24.250489 
L 42.516254 23.045289 
L 44.003088 21.760323 
L 45.489922 21.632595 
L 46.976755 21.989903 
L 48.463589 22.42992 
L 49.950423 22.838395 
L 51.437257 23.187708 
L 52.924091 23.476337 
" clip-path="url(#p061ce42987)" style="fill: none; stroke: #c900c9; stroke-linecap: square"/>
   </g>
   <g id="line2d_9">
    <path d="M 9.805909 21.42487 
L 11.292743 21.104379 
L 12.779577 20.687987 
L 14.266411 20.145183 
L 15.753245 19.435973 
L 17.240078 18.509714 
L 18.726912 17.307155 
L 20.213746 15.771254 
L 21.70058 13.87623 
L 23.187414 11.682125 
L 24.674248 9.394825 
L 26.161082 7.35302 
L 27.647915 5.866552 
L 29.134749 5.014577 
L 30.621583 4.636479 
L 32.108417 4.50648 
L 33.595251 4.471213 
L 35.082085 4.464 
L 36.568918 4.466257 
L 38.055752 4.484561 
L 39.542586 4.596523 
L 41.02942 5.402681 
L 42.516254 9.51835 
L 44.003088 16.091234 
L 45.489922 19.864139 
L 46.976755 21.66091 
L 48.463589 22.631999 
L 49.950423 23.219415 
L 51.437257 23.602535 
L 52.924091 23.865399 
" clip-path="url(#p061ce42987)" style="fill: none; stroke: #f7bb25; stroke-linecap: square"/>
   </g>
   <g id="line2d_10">
    <path d="M 9.805909 24.624 
L 11.292743 24.624 
L 12.779577 24.624 
L 14.266411 24.624 
L 15.753245 24.624 
L 17.240078 24.623999 
L 18.726912 24.623999 
L 20.213746 24.623999 
L 21.70058 24.623998 
L 23.187414 24.623997 
L 24.674248 24.623995 
L 26.161082 24.623993 
L 27.647915 24.623988 
L 29.134749 24.62398 
L 30.621583 24.623964 
L 32.108417 24.623927 
L 33.595251 24.623823 
L 35.082085 24.623476 
L 36.568918 24.621998 
L 38.055752 24.613799 
L 39.542586 24.554184 
L 41.02942 24.051875 
L 42.516254 21.141406 
L 44.003088 15.853489 
L 45.489922 12.208311 
L 46.976755 10.054233 
L 48.463589 8.643127 
L 49.950423 7.647235 
L 51.437257 6.914802 
L 52.924091 6.363308 
" clip-path="url(#p061ce42987)" style="fill: none; stroke: #00cbcb; stroke-linecap: square"/>
   </g>
   <g id="patch_3">
    <path d="M 7.65 25.632 
L 7.65 3.456 
" style="fill: none; stroke: #000000; stroke-width: 0.5; stroke-linejoin: miter; stroke-linecap: square"/>
   </g>
   <g id="patch_4">
    <path d="M 7.65 25.632 
L 55.08 25.632 
" style="fill: none; stroke: #000000; stroke-width: 0.5; stroke-linejoin: miter; stroke-linecap: square"/>
   </g>
  </g>
 </g>
 <defs>
  <clipPath id="p061ce42987">
   <rect x="7.65" y="3.456" width="47.43" height="22.176"/>
  </clipPath>
 </defs>
</svg>
