<?xml version="1.0" encoding="utf-8" standalone="no"?>
<!DOCTYPE svg PUBLIC "-//W3C//DTD SVG 1.1//EN"
  "http://www.w3.org/Graphics/SVG/1.1/DTD/svg11.dtd">
<svg xmlns:xlink="http://www.w3.org/1999/xlink" width="93.6pt" height="108pt" viewBox="0 0 93.6 108" xmlns="http://www.w3.org/2000/svg" version="1.1">
 <metadata>
  <rdf:RDF xmlns:dc="http://purl.org/dc/elements/1.1/" xmlns:cc="http://creativecommons.org/ns#" xmlns:rdf="http://www.w3.org/1999/02/22-rdf-syntax-ns#">
   <cc:Work>
    <dc:type rdf:resource="http://purl.org/dc/dcmitype/StillImage"/>
    <dc:date>2026-02-16T19:46:10.177081</dc:date>
    <dc:format>image/svg+xml</dc:format>
    <dc:creator>
     <cc:Agent>
      <dc:title>Matplotlib v3.10.8, https://matplotlib.org/</dc:title>
     </cc:Agent>
    </dc:creator>
   </cc:Work>
  </rdf:RDF>
 </metadata>
 <defs>
  <style type="text/css">*{stroke-linejoin: round; stroke-linecap: butt}</style>
 </defs>
 <g id="figure_1">
  <g id="patch_1">
   <path d="M 0 108 
L 93.6 108 
L 93.6 0 
L 0 0 
L 0 108 
z
" style="fill: none"/>
  </g>
  <g id="axes_1">
   <g id="patch_2">
    <path d="M 11.7 96.12 
L 84.24 96.12 
L 84.24 12.96 
L 11.7 12.96 
L 11.7 96.12 
z
" style="fill: none"/>
   </g>
   <g id="FillBetweenPolyCollection_1">
    <path d="M 11.7 16644.96 
L 11.7 16644.96 
L 12.0627 16644.96 
L 12.4254 16644.96 
L 12.7881 16644.96 
L 13.1508 16644.96 
L 13.5135 16644.96 
L 13.8762 16644.96 
L 14.2389 16644.96 
L 14.6016 16644.96 
L 14.9643 16644.96 
L 15.327 16644.96 
L 15.6897 16644.96 
L 16.0524 16644.96 
L 16.4151 16644.96 
L 16.7778 16644.96 
L 17.1405 16644.96 
L 17.5032 16644.96 
L 17.8659 16644.96 
L 18.2286 16644.96 
L 18.5913 16644.96 
L 18.954 16644.96 
L 19.3167 16644.96 
L 19.6794 16644.96 
L 20.0421 16644.96 
L 20.4048 16644.96 
L 20.7675 16644.96 
L 21.1302 16644.96 
L 21.4929 16644.96 
L 21.8556 16644.96 
L 22.2183 16644.96 
L 22.581 16644.96 
L 22.9437 16644.96 
L 23.3064 16644.96 
L 23.6691 16644.96 
L 24.0318 16644.96 
L 24.3945 16644.96 
L 24.7572 16644.96 
L 25.1199 16644.96 
L 25.4826 16644.96 
L 25.8453 16644.96 
L 26.208 16644.96 
L 26.5707 16644.96 
L 26.9334 16644.96 
L 27.2961 16644.96 
L 27.6588 16644.96 
L 28.0215 16644.96 
L 28.3842 16644.96 
L 28.7469 16644.96 
L 29.1096 16644.96 
L 29.4723 16644.96 
L 29.835 16644.96 
L 30.1977 16644.96 
L 30.5604 16644.96 
L 30.9231 16644.96 
L 31.2858 16644.96 
L 31.6485 16644.96 
L 32.0112 16644.96 
L 32.3739 16644.96 
L 32.7366 16644.96 
L 33.0993 16644.96 
L 33.462 16644.96 
L 33.8247 16644.96 
L 34.1874 16644.96 
L 34.5501 16644.96 
L 34.9128 16644.96 
L 35.2755 16644.96 
L 35.6382 16644.96 
L 36.0009 16644.96 
L 36.3636 16644.96 
L 36.7263 16644.96 
L 37.089 16644.96 
L 37.4517 16644.96 
L 37.8144 16644.96 
L 38.1771 16644.96 
L 38.5398 16644.96 
L 38.9025 16644.96 
L 39.2652 16644.96 
L 39.6279 16644.96 
L 39.9906 16644.96 
L 40.3533 16644.96 
L 40.716 16644.96 
L 41.0787 16644.96 
L 41.4414 16644.96 
L 41.8041 16644.96 
L 42.1668 16644.96 
L 42.5295 16644.96 
L 42.8922 16644.96 
L 43.2549 16644.96 
L 43.6176 16644.96 
L 43.9803 16644.96 
L 44.343 16644.96 
L 44.7057 16644.96 
L 45.0684 16644.96 
L 45.4311 16644.96 
L 45.7938 16644.96 
L 46.1565 16644.96 
L 46.5192 16644.96 
L 46.8819 16644.96 
L 47.2446 16644.96 
L 47.6073 16644.96 
L 47.97 16644.96 
L 48.3327 16644.96 
L 48.6954 16644.96 
L 49.0581 16644.96 
L 49.4208 16644.96 
L 49.7835 16644.96 
L 50.1462 16644.96 
L 50.5089 16644.96 
L 50.8716 16644.96 
L 51.2343 16644.96 
L 51.597 16644.96 
L 51.9597 16644.96 
L 52.3224 16644.96 
L 52.6851 16644.96 
L 53.0478 16644.96 
L 53.4105 16644.96 
L 53.7732 16644.96 
L 54.1359 16644.96 
L 54.4986 16644.96 
L 54.8613 16644.96 
L 55.224 16644.96 
L 55.5867 16644.96 
L 55.9494 16644.96 
L 56.3121 16644.96 
L 56.6748 16644.96 
L 57.0375 16644.96 
L 57.4002 16644.96 
L 57.7629 16644.96 
L 58.1256 16644.96 
L 58.4883 16644.96 
L 58.851 16644.96 
L 59.2137 16644.96 
L 59.5764 16644.96 
L 59.9391 16644.96 
L 60.3018 16644.96 
L 60.6645 16644.96 
L 61.0272 16644.96 
L 61.3899 16644.96 
L 61.7526 16644.96 
L 62.1153 16644.96 
L 62.478 16644.96 
L 62.8407 16644.96 
L 63.2034 16644.96 
L 63.5661 16644.96 
L 63.9288 16644.96 
L 64.2915 16644.96 
L 64.6542 16644.96 
L 65.0169 16644.96 
L 65.3796 16644.96 
L 65.7423 16644.96 
L 66.105 16644.96 
L 66.4677 16644.96 
L 66.8304 16644.96 
L 67.1931 16644.96 
L 67.5558 16644.96 
L 67.9185 16644.96 
L 68.2812 16644.96 
L 68.6439 16644.96 
L 69.0066 16644.96 
L 69.3693 16644.96 
L 69.732 16644.96 
L 70.0947 16644.96 
L 70.4574 16644.96 
L 70.8201 16644.96 
L 71.1828 16644.96 
L 71.5455 16644.96 
L 71.9082 16644.96 
L 72.2709 16644.96 
L 72.6336 16644.96 
L 72.9963 16644.96 
L 73.359 16644.96 
L 73.7217 16644.96 
L 74.0844 16644.96 
L 74.4471 16644.96 
L 74.8098 16644.96 
L 75.1725 16644.96 
L 75.5352 16644.96 
L 75.8979 16644.96 
L 76.2606 16644.96 
L 76.6233 16644.96 
L 76.986 16644.96 
L 77.3487 16644.96 
L 77.7114 16644.96 
L 78.0741 16644.96 
L 78.4368 16644.96 
L 78.7995 16644.96 
L 79.1622 16644.96 
L 79.5249 16644.96 
L 79.8876 16644.96 
L 80.2503 16644.96 
L 80.613 16644.96 
L 80.9757 16644.96 
L 81.3384 16644.96 
L 81.7011 16644.96 
L 82.0638 16644.96 
L 82.4265 16644.96 
L 82.7892 16644.96 
L 83.1519 16644.96 
L 83.5146 16644.96 
L 83.8773 16644.96 
L 84.24 16644.96 
L 84.24 232.87352 
L 84.24 232.87352 
L 83.8773 231.428801 
L 83.5146 229.98506 
L 83.1519 228.542308 
L 82.7892 227.100554 
L 82.4265 225.65981 
L 82.0638 224.220085 
L 81.7011 222.781391 
L 81.3384 221.343739 
L 80.9757 219.90714 
L 80.613 218.471605 
L 80.2503 217.037146 
L 79.8876 215.603774 
L 79.5249 214.171502 
L 79.1622 212.740341 
L 78.7995 211.310304 
L 78.4368 209.881404 
L 78.0741 208.453652 
L 77.7114 207.027063 
L 77.3487 205.601648 
L 76.986 204.177423 
L 76.6233 202.754399 
L 76.2606 201.332591 
L 75.8979 199.912014 
L 75.5352 198.492681 
L 75.1725 197.074607 
L 74.8098 195.657806 
L 74.4471 194.242295 
L 74.0844 192.828088 
L 73.7217 191.4152 
L 73.359 190.003649 
L 72.9963 188.59345 
L 72.6336 187.184619 
L 72.2709 185.777174 
L 71.9082 184.371131 
L 71.5455 182.966507 
L 71.1828 181.563322 
L 70.8201 180.161592 
L 70.4574 178.761337 
L 70.0947 177.362574 
L 69.732 175.965324 
L 69.3693 174.569605 
L 69.0066 173.175437 
L 68.6439 171.782841 
L 68.2812 170.391838 
L 67.9185 169.002448 
L 67.5558 167.614693 
L 67.1931 166.228595 
L 66.8304 164.844177 
L 66.4677 163.46146 
L 66.105 162.080469 
L 65.7423 160.701226 
L 65.3796 159.323758 
L 65.0169 157.948087 
L 64.6542 156.57424 
L 64.2915 155.202241 
L 63.9288 153.832119 
L 63.5661 152.463899 
L 63.2034 151.097609 
L 62.8407 149.733276 
L 62.478 148.370931 
L 62.1153 147.010602 
L 61.7526 145.652318 
L 61.3899 144.296112 
L 61.0272 142.942013 
L 60.6645 141.590055 
L 60.3018 140.240269 
L 59.9391 138.89269 
L 59.5764 137.547351 
L 59.2137 136.204289 
L 58.851 134.863538 
L 58.4883 133.525135 
L 58.1256 132.189119 
L 57.7629 130.855527 
L 57.4002 129.5244 
L 57.0375 128.195777 
L 56.6748 126.869701 
L 56.3121 125.546213 
L 55.9494 124.225357 
L 55.5867 122.907178 
L 55.224 121.591722 
L 54.8613 120.279035 
L 54.4986 118.969166 
L 54.1359 117.662164 
L 53.7732 116.35808 
L 53.4105 115.056966 
L 53.0478 113.758875 
L 52.6851 112.463862 
L 52.3224 111.171985 
L 51.9597 109.883299 
L 51.597 108.597866 
L 51.2343 107.315747 
L 50.8716 106.037004 
L 50.5089 104.761702 
L 50.1462 103.489907 
L 49.7835 102.221689 
L 49.4208 100.957117 
L 49.0581 99.696265 
L 48.6954 98.439207 
L 48.3327 97.18602 
L 47.97 95.936784 
L 47.6073 94.69158 
L 47.2446 93.450492 
L 46.8819 92.213609 
L 46.5192 90.981019 
L 46.1565 89.752815 
L 45.7938 88.529093 
L 45.4311 87.309952 
L 45.0684 86.095493 
L 44.7057 84.885822 
L 44.343 83.681048 
L 43.9803 82.481284 
L 43.6176 81.286646 
L 43.2549 80.097255 
L 42.8922 78.913236 
L 42.5295 77.734719 
L 42.1668 76.561836 
L 41.8041 75.394728 
L 41.4414 74.233539 
L 41.0787 73.078417 
L 40.716 71.929519 
L 40.3533 70.787005 
L 39.9906 69.651042 
L 39.6279 68.521805 
L 39.2652 67.399475 
L 38.9025 66.284239 
L 38.5398 65.176293 
L 38.1771 64.075842 
L 37.8144 62.983098 
L 37.4517 61.898283 
L 37.089 60.821628 
L 36.7263 59.753374 
L 36.3636 58.693773 
L 36.0009 57.643089 
L 35.6382 56.601598 
L 35.2755 55.569586 
L 34.9128 54.547357 
L 34.5501 53.535227 
L 34.1874 52.533526 
L 33.8247 51.542604 
L 33.462 50.562826 
L 33.0993 49.594576 
L 32.7366 48.638257 
L 32.3739 47.694296 
L 32.0112 46.763141 
L 31.6485 45.845265 
L 31.2858 44.941166 
L 30.9231 44.051372 
L 30.5604 43.176441 
L 30.1977 42.316964 
L 29.835 41.473566 
L 29.4723 40.646913 
L 29.1096 39.837709 
L 28.7469 39.046706 
L 28.3842 38.274704 
L 28.0215 37.522556 
L 27.6588 36.791171 
L 27.2961 36.081526 
L 26.9334 35.394662 
L 26.5707 34.7317 
L 26.208 34.093842 
L 25.8453 33.482384 
L 25.4826 32.898722 
L 25.1199 32.344364 
L 24.7572 31.820946 
L 24.3945 31.330238 
L 24.0318 30.874169 
L 23.6691 30.45484 
L 23.3064 30.074547 
L 22.9437 29.735805 
L 22.581 29.441378 
L 22.2183 29.194313 
L 21.8556 28.997978 
L 21.4929 28.856111 
L 21.1302 28.772872 
L 20.7675 28.752916 
L 20.4048 28.801466 
L 20.0421 28.924416 
L 19.6794 29.128449 
L 19.3167 29.421179 
L 18.954 29.811341 
L 18.5913 30.309015 
L 18.2286 30.925921 
L 17.8659 31.675791 
L 17.5032 32.574861 
L 17.1405 33.642515 
L 16.7778 34.902157 
L 16.4151 36.382406 
L 16.0524 38.118765 
L 15.6897 40.156023 
L 15.327 42.551809 
L 14.9643 45.382011 
L 14.6016 48.749417 
L 14.2389 52.798146 
L 13.8762 57.739277 
L 13.5135 63.900069 
L 13.1508 71.828787 
L 12.7881 82.553263 
L 12.4254 98.381042 
L 12.0627 126.675376 
L 11.7 16644.96 
z
" clip-path="url(#p6ae4b628a0)" style="fill: #ff8ef4; fill-opacity: 0.85"/>
   </g>
   <g id="FillBetweenPolyCollection_2">
    <path d="M 11.7 16644.96 
L 11.7 16644.96 
L 12.0627 126.675376 
L 12.4254 98.381042 
L 12.7881 82.553263 
L 13.1508 71.828787 
L 13.5135 63.900069 
L 13.8762 57.739277 
L 14.2389 52.798146 
L 14.6016 48.749417 
L 14.9643 45.382011 
L 15.327 42.551809 
L 15.6897 40.156023 
L 16.0524 38.118765 
L 16.4151 36.382406 
L 16.7778 34.902157 
L 17.1405 33.642515 
L 17.5032 32.574861 
L 17.8659 31.675791 
L 18.2286 30.925921 
L 18.5913 30.309015 
L 18.954 29.811341 
L 19.3167 29.421179 
L 19.6794 29.128449 
L 20.0421 28.924416 
L 20.4048 28.801466 
L 20.7675 28.752916 
L 21.1302 28.772872 
L 21.4929 28.856111 
L 21.8556 28.997978 
L 22.2183 29.194313 
L 22.581 29.441378 
L 22.9437 29.735805 
L 23.3064 30.074547 
L 23.6691 30.45484 
L 24.0318 30.874169 
L 24.3945 31.330238 
L 24.7572 31.820946 
L 25.1199 32.344364 
L 25.4826 32.898722 
L 25.8453 33.482384 
L 26.208 34.093842 
L 26.5707 34.7317 
L 26.9334 35.394662 
L 27.2961 36.081526 
L 27.6588 36.791171 
L 28.0215 37.522556 
L 28.3842 38.274704 
L 28.7469 39.046706 
L 29.1096 39.837709 
L 29.4723 40.646913 
L 29.835 41.473566 
L 30.1977 42.316964 
L 30.5604 43.176441 
L 30.9231 44.051372 
L 31.2858 44.941166 
L 31.6485 45.845265 
L 32.0112 46.763141 
L 32.3739 47.694296 
L 32.7366 48.638257 
L 33.0993 49.594576 
L 33.462 50.562826 
L 33.8247 51.542604 
L 34.1874 52.533526 
L 34.5501 53.535227 
L 34.9128 54.547357 
L 35.2755 55.569586 
L 35.6382 56.601598 
L 36.0009 57.643089 
L 36.3636 58.693773 
L 36.7263 59.753374 
L 37.089 60.821628 
L 37.4517 61.898283 
L 37.8144 62.983098 
L 38.1771 64.075842 
L 38.5398 65.176293 
L 38.9025 66.284239 
L 39.2652 67.399475 
L 39.6279 68.521805 
L 39.9906 69.651042 
L 40.3533 70.787005 
L 40.716 71.929519 
L 41.0787 73.078417 
L 41.4414 74.233539 
L 41.8041 75.394728 
L 42.1668 76.561836 
L 42.5295 77.734719 
L 42.8922 78.913236 
L 43.2549 80.097255 
L 43.6176 81.286646 
L 43.9803 82.481284 
L 44.343 83.681048 
L 44.7057 84.885822 
L 45.0684 86.095493 
L 45.4311 87.309952 
L 45.7938 88.529093 
L 46.1565 89.752815 
L 46.5192 90.981019 
L 46.8819 92.213609 
L 47.2446 93.450492 
L 47.6073 94.69158 
L 47.97 95.936784 
L 48.3327 97.18602 
L 48.6954 98.439207 
L 49.0581 99.696265 
L 49.4208 100.957117 
L 49.7835 102.221689 
L 50.1462 103.489907 
L 50.5089 104.761702 
L 50.8716 106.037004 
L 51.2343 107.315747 
L 51.597 108.597866 
L 51.9597 109.883299 
L 52.3224 111.171985 
L 52.6851 112.463862 
L 53.0478 113.758875 
L 53.4105 115.056966 
L 53.7732 116.35808 
L 54.1359 117.662164 
L 54.4986 118.969166 
L 54.8613 120.279035 
L 55.224 121.591722 
L 55.5867 122.907178 
L 55.9494 124.225357 
L 56.3121 125.546213 
L 56.6748 126.869701 
L 57.0375 128.195777 
L 57.4002 129.5244 
L 57.7629 130.855527 
L 58.1256 132.189119 
L 58.4883 133.525135 
L 58.851 134.863538 
L 59.2137 136.204289 
L 59.5764 137.547351 
L 59.9391 138.89269 
L 60.3018 140.240269 
L 60.6645 141.590055 
L 61.0272 142.942013 
L 61.3899 144.296112 
L 61.7526 145.652318 
L 62.1153 147.010602 
L 62.478 148.370931 
L 62.8407 149.733276 
L 63.2034 151.097609 
L 63.5661 152.463899 
L 63.9288 153.832119 
L 64.2915 155.202241 
L 64.6542 156.57424 
L 65.0169 157.948087 
L 65.3796 159.323758 
L 65.7423 160.701226 
L 66.105 162.080469 
L 66.4677 163.46146 
L 66.8304 164.844177 
L 67.1931 166.228595 
L 67.5558 167.614693 
L 67.9185 169.002448 
L 68.2812 170.391838 
L 68.6439 171.782841 
L 69.0066 173.175437 
L 69.3693 174.569605 
L 69.732 175.965324 
L 70.0947 177.362574 
L 70.4574 178.761337 
L 70.8201 180.161592 
L 71.1828 181.563322 
L 71.5455 182.966507 
L 71.9082 184.371131 
L 72.2709 185.777174 
L 72.6336 187.184619 
L 72.9963 188.59345 
L 73.359 190.003649 
L 73.7217 191.4152 
L 74.0844 192.828088 
L 74.4471 194.242295 
L 74.8098 195.657806 
L 75.1725 197.074607 
L 75.5352 198.492681 
L 75.8979 199.912014 
L 76.2606 201.332591 
L 76.6233 202.754399 
L 76.986 204.177423 
L 77.3487 205.601648 
L 77.7114 207.027063 
L 78.0741 208.453652 
L 78.4368 209.881404 
L 78.7995 211.310304 
L 79.1622 212.740341 
L 79.5249 214.171502 
L 79.8876 215.603774 
L 80.2503 217.037146 
L 80.613 218.471605 
L 80.9757 219.90714 
L 81.3384 221.343739 
L 81.7011 222.781391 
L 82.0638 224.220085 
L 82.4265 225.65981 
L 82.7892 227.100554 
L 83.1519 228.542308 
L 83.5146 229.98506 
L 83.8773 231.428801 
L 84.24 232.87352 
L 84.24 87.544969 
L 84.24 87.544969 
L 83.8773 87.153284 
L 83.5146 86.761599 
L 83.1519 86.369913 
L 82.7892 85.978228 
L 82.4265 85.586542 
L 82.0638 85.194857 
L 81.7011 84.803171 
L 81.3384 84.411486 
L 80.9757 84.019801 
L 80.613 83.628115 
L 80.2503 83.23643 
L 79.8876 82.844744 
L 79.5249 82.453059 
L 79.1622 82.061374 
L 78.7995 81.669688 
L 78.4368 81.278003 
L 78.0741 80.886317 
L 77.7114 80.494632 
L 77.3487 80.102947 
L 76.986 79.711261 
L 76.6233 79.319576 
L 76.2606 78.92789 
L 75.8979 78.536205 
L 75.5352 78.144519 
L 75.1725 77.752834 
L 74.8098 77.361149 
L 74.4471 76.969463 
L 74.0844 76.577778 
L 73.7217 76.186092 
L 73.359 75.794407 
L 72.9963 75.402721 
L 72.6336 75.011036 
L 72.2709 74.61935 
L 71.9082 74.227665 
L 71.5455 73.83598 
L 71.1828 73.444294 
L 70.8201 73.052608 
L 70.4574 72.660923 
L 70.0947 72.269237 
L 69.732 71.877552 
L 69.3693 71.485866 
L 69.0066 71.094181 
L 68.6439 70.702495 
L 68.2812 70.310809 
L 67.9185 69.919123 
L 67.5558 69.527438 
L 67.1931 69.135752 
L 66.8304 68.744066 
L 66.4677 68.35238 
L 66.105 67.960694 
L 65.7423 67.569008 
L 65.3796 67.177321 
L 65.0169 66.785635 
L 64.6542 66.393948 
L 64.2915 66.002262 
L 63.9288 65.610575 
L 63.5661 65.218888 
L 63.2034 64.827201 
L 62.8407 64.435513 
L 62.478 64.043825 
L 62.1153 63.652137 
L 61.7526 63.260448 
L 61.3899 62.868759 
L 61.0272 62.47707 
L 60.6645 62.08538 
L 60.3018 61.693689 
L 59.9391 61.301998 
L 59.5764 60.910306 
L 59.2137 60.518613 
L 58.851 60.126919 
L 58.4883 59.735224 
L 58.1256 59.343528 
L 57.7629 58.95183 
L 57.4002 58.56013 
L 57.0375 58.168429 
L 56.6748 57.776726 
L 56.3121 57.385021 
L 55.9494 56.993313 
L 55.5867 56.601602 
L 55.224 56.209888 
L 54.8613 55.81817 
L 54.4986 55.426449 
L 54.1359 55.034723 
L 53.7732 54.642992 
L 53.4105 54.251256 
L 53.0478 53.859513 
L 52.6851 53.467764 
L 52.3224 53.076008 
L 51.9597 52.684242 
L 51.597 52.292468 
L 51.2343 51.900684 
L 50.8716 51.508888 
L 50.5089 51.117079 
L 50.1462 50.725257 
L 49.7835 50.33342 
L 49.4208 49.941566 
L 49.0581 49.549694 
L 48.6954 49.157802 
L 48.3327 48.765889 
L 47.97 48.373951 
L 47.6073 47.981988 
L 47.2446 47.589997 
L 46.8819 47.197976 
L 46.5192 46.805922 
L 46.1565 46.413833 
L 45.7938 46.021706 
L 45.4311 45.62954 
L 45.0684 45.23733 
L 44.7057 44.845075 
L 44.343 44.452773 
L 43.9803 44.060421 
L 43.6176 43.668016 
L 43.2549 43.275558 
L 42.8922 42.883044 
L 42.5295 42.490475 
L 42.1668 42.09785 
L 41.8041 41.70517 
L 41.4414 41.312436 
L 41.0787 40.919652 
L 40.716 40.526823 
L 40.3533 40.133956 
L 39.9906 39.741059 
L 39.6279 39.348144 
L 39.2652 38.955225 
L 38.9025 38.562322 
L 38.5398 38.169457 
L 38.1771 37.776656 
L 37.8144 37.383954 
L 37.4517 36.99139 
L 37.089 36.599009 
L 36.7263 36.206869 
L 36.3636 35.815032 
L 36.0009 35.423574 
L 35.6382 35.032581 
L 35.2755 34.642153 
L 34.9128 34.252406 
L 34.5501 33.86347 
L 34.1874 33.475495 
L 33.8247 33.08865 
L 33.462 32.703126 
L 33.0993 32.319139 
L 32.7366 31.936931 
L 32.3739 31.556773 
L 32.0112 31.178967 
L 31.6485 30.803849 
L 31.2858 30.431794 
L 30.9231 30.063214 
L 30.5604 29.698564 
L 30.1977 29.338348 
L 29.835 28.983118 
L 29.4723 28.633477 
L 29.1096 28.290089 
L 28.7469 27.953677 
L 28.3842 27.625028 
L 28.0215 27.305002 
L 27.6588 26.994531 
L 27.2961 26.69463 
L 26.9334 26.406398 
L 26.5707 26.131028 
L 26.208 25.869812 
L 25.8453 25.62415 
L 25.4826 25.395559 
L 25.1199 25.185684 
L 24.7572 24.996306 
L 24.3945 24.82936 
L 24.0318 24.686947 
L 23.6691 24.571352 
L 23.3064 24.485065 
L 22.9437 24.430806 
L 22.581 24.411549 
L 22.2183 24.430558 
L 21.8556 24.491424 
L 21.4929 24.598111 
L 21.1302 24.755013 
L 20.7675 24.967016 
L 20.4048 25.239577 
L 20.0421 25.578827 
L 19.6794 25.991681 
L 19.3167 26.48599 
L 18.954 27.070719 
L 18.5913 27.756178 
L 18.2286 28.554313 
L 17.8659 29.479081 
L 17.5032 30.546934 
L 17.1405 31.777472 
L 16.7778 33.194309 
L 16.4151 34.826268 
L 16.0524 36.709051 
L 15.6897 38.887642 
L 15.327 41.419858 
L 14.9643 44.381769 
L 14.6016 47.876341 
L 14.2389 52.047863 
L 13.8762 57.107581 
L 13.5135 63.382911 
L 13.1508 71.422273 
L 12.7881 82.253646 
L 12.4254 98.18472 
L 12.0627 126.578883 
L 11.7 16644.96 
z
" clip-path="url(#p6ae4b628a0)" style="fill: #ffff7c; fill-opacity: 0.85"/>
   </g>
   <g id="FillBetweenPolyCollection_3">
    <path d="M 11.7 12.96 
L 11.7 16644.96 
L 12.0627 126.578883 
L 12.4254 98.18472 
L 12.7881 82.253646 
L 13.1508 71.422273 
L 13.5135 63.382911 
L 13.8762 57.107581 
L 14.2389 52.047863 
L 14.6016 47.876341 
L 14.9643 44.381769 
L 15.327 41.419858 
L 15.6897 38.887642 
L 16.0524 36.709051 
L 16.4151 34.826268 
L 16.7778 33.194309 
L 17.1405 31.777472 
L 17.5032 30.546934 
L 17.8659 29.479081 
L 18.2286 28.554313 
L 18.5913 27.756178 
L 18.954 27.070719 
L 19.3167 26.48599 
L 19.6794 25.991681 
L 20.0421 25.578827 
L 20.4048 25.239577 
L 20.7675 24.967016 
L 21.1302 24.755013 
L 21.4929 24.598111 
L 21.8556 24.491424 
L 22.2183 24.430558 
L 22.581 24.411549 
L 22.9437 24.430806 
L 23.3064 24.485065 
L 23.6691 24.571352 
L 24.0318 24.686947 
L 24.3945 24.82936 
L 24.7572 24.996306 
L 25.1199 25.185684 
L 25.4826 25.395559 
L 25.8453 25.62415 
L 26.208 25.869812 
L 26.5707 26.131028 
L 26.9334 26.406398 
L 27.2961 26.69463 
L 27.6588 26.994531 
L 28.0215 27.305002 
L 28.3842 27.625028 
L 28.7469 27.953677 
L 29.1096 28.290089 
L 29.4723 28.633477 
L 29.835 28.983118 
L 30.1977 29.338348 
L 30.5604 29.698564 
L 30.9231 30.063214 
L 31.2858 30.431794 
L 31.6485 30.803849 
L 32.0112 31.178967 
L 32.3739 31.556773 
L 32.7366 31.936931 
L 33.0993 32.319139 
L 33.462 32.703126 
L 33.8247 33.08865 
L 34.1874 33.475495 
L 34.5501 33.86347 
L 34.9128 34.252406 
L 35.2755 34.642153 
L 35.6382 35.032581 
L 36.0009 35.423574 
L 36.3636 35.815032 
L 36.7263 36.206869 
L 37.089 36.599009 
L 37.4517 36.99139 
L 37.8144 37.383954 
L 38.1771 37.776656 
L 38.5398 38.169457 
L 38.9025 38.562322 
L 39.2652 38.955225 
L 39.6279 39.348144 
L 39.9906 39.741059 
L 40.3533 40.133956 
L 40.716 40.526823 
L 41.0787 40.919652 
L 41.4414 41.312436 
L 41.8041 41.70517 
L 42.1668 42.09785 
L 42.5295 42.490475 
L 42.8922 42.883044 
L 43.2549 43.275558 
L 43.6176 43.668016 
L 43.9803 44.060421 
L 44.343 44.452773 
L 44.7057 44.845075 
L 45.0684 45.23733 
L 45.4311 45.62954 
L 45.7938 46.021706 
L 46.1565 46.413833 
L 46.5192 46.805922 
L 46.8819 47.197976 
L 47.2446 47.589997 
L 47.6073 47.981988 
L 47.97 48.373951 
L 48.3327 48.765889 
L 48.6954 49.157802 
L 49.0581 49.549694 
L 49.4208 49.941566 
L 49.7835 50.33342 
L 50.1462 50.725257 
L 50.5089 51.117079 
L 50.8716 51.508888 
L 51.2343 51.900684 
L 51.597 52.292468 
L 51.9597 52.684242 
L 52.3224 53.076008 
L 52.6851 53.467764 
L 53.0478 53.859513 
L 53.4105 54.251256 
L 53.7732 54.642992 
L 54.1359 55.034723 
L 54.4986 55.426449 
L 54.8613 55.81817 
L 55.224 56.209888 
L 55.5867 56.601602 
L 55.9494 56.993313 
L 56.3121 57.385021 
L 56.6748 57.776726 
L 57.0375 58.168429 
L 57.4002 58.56013 
L 57.7629 58.95183 
L 58.1256 59.343528 
L 58.4883 59.735224 
L 58.851 60.126919 
L 59.2137 60.518613 
L 59.5764 60.910306 
L 59.9391 61.301998 
L 60.3018 61.693689 
L 60.6645 62.08538 
L 61.0272 62.47707 
L 61.3899 62.868759 
L 61.7526 63.260448 
L 62.1153 63.652137 
L 62.478 64.043825 
L 62.8407 64.435513 
L 63.2034 64.827201 
L 63.5661 65.218888 
L 63.9288 65.610575 
L 64.2915 66.002262 
L 64.6542 66.393948 
L 65.0169 66.785635 
L 65.3796 67.177321 
L 65.7423 67.569008 
L 66.105 67.960694 
L 66.4677 68.35238 
L 66.8304 68.744066 
L 67.1931 69.135752 
L 67.5558 69.527438 
L 67.9185 69.919123 
L 68.2812 70.310809 
L 68.6439 70.702495 
L 69.0066 71.094181 
L 69.3693 71.485866 
L 69.732 71.877552 
L 70.0947 72.269237 
L 70.4574 72.660923 
L 70.8201 73.052608 
L 71.1828 73.444294 
L 71.5455 73.83598 
L 71.9082 74.227665 
L 72.2709 74.61935 
L 72.6336 75.011036 
L 72.9963 75.402721 
L 73.359 75.794407 
L 73.7217 76.186092 
L 74.0844 76.577778 
L 74.4471 76.969463 
L 74.8098 77.361149 
L 75.1725 77.752834 
L 75.5352 78.144519 
L 75.8979 78.536205 
L 76.2606 78.92789 
L 76.6233 79.319576 
L 76.986 79.711261 
L 77.3487 80.102947 
L 77.7114 80.494632 
L 78.0741 80.886317 
L 78.4368 81.278003 
L 78.7995 81.669688 
L 79.1622 82.061374 
L 79.5249 82.453059 
L 79.8876 82.844744 
L 80.2503 83.23643 
L 80.613 83.628115 
L 80.9757 84.019801 
L 81.3384 84.411486 
L 81.7011 84.803171 
L 82.0638 85.194857 
L 82.4265 85.586542 
L 82.7892 85.978228 
L 83.1519 86.369913 
L 83.5146 86.761599 
L 83.8773 87.153284 
L 84.24 87.544969 
L 84.24 87.544969 
L 84.24 87.544969 
L 83.8773 87.153284 
L 83.5146 86.761599 
L 83.1519 86.369913 
L 82.7892 85.978228 
L 82.4265 85.586542 
L 82.0638 85.194857 
L 81.7011 84.803171 
L 81.3384 84.411486 
L 80.9757 84.019801 
L 80.613 83.628115 
L 80.2503 83.23643 
L 79.8876 82.844744 
L 79.5249 82.453059 
L 79.1622 82.061374 
L 78.7995 81.669688 
L 78.4368 81.278003 
L 78.0741 80.886317 
L 77.7114 80.494632 
L 77.3487 80.102946 
L 76.986 79.711261 
L 76.6233 79.319576 
L 76.2606 78.92789 
L 75.8979 78.536205 
L 75.5352 78.144519 
L 75.1725 77.752834 
L 74.8098 77.361148 
L 74.4471 76.969463 
L 74.0844 76.577777 
L 73.7217 76.186092 
L 73.359 75.794406 
L 72.9963 75.402721 
L 72.6336 75.011035 
L 72.2709 74.619349 
L 71.9082 74.227664 
L 71.5455 73.835978 
L 71.1828 73.444292 
L 70.8201 73.052607 
L 70.4574 72.660921 
L 70.0947 72.269235 
L 69.732 71.877549 
L 69.3693 71.485863 
L 69.0066 71.094177 
L 68.6439 70.70249 
L 68.2812 70.310804 
L 67.9185 69.919118 
L 67.5558 69.527431 
L 67.1931 69.135744 
L 66.8304 68.744057 
L 66.4677 68.352369 
L 66.105 67.960682 
L 65.7423 67.568994 
L 65.3796 67.177306 
L 65.0169 66.785617 
L 64.6542 66.393928 
L 64.2915 66.002238 
L 63.9288 65.610547 
L 63.5661 65.218856 
L 63.2034 64.827164 
L 62.8407 64.435471 
L 62.478 64.043777 
L 62.1153 63.652082 
L 61.7526 63.260385 
L 61.3899 62.868687 
L 61.0272 62.476987 
L 60.6645 62.085285 
L 60.3018 61.693581 
L 59.9391 61.301874 
L 59.5764 60.910163 
L 59.2137 60.51845 
L 58.851 60.126732 
L 58.4883 59.73501 
L 58.1256 59.343283 
L 57.7629 58.95155 
L 57.4002 58.559811 
L 57.0375 58.168064 
L 56.6748 57.776309 
L 56.3121 57.384544 
L 55.9494 56.992768 
L 55.5867 56.600981 
L 55.224 56.209179 
L 54.8613 55.817362 
L 54.4986 55.425527 
L 54.1359 55.033672 
L 53.7732 54.641794 
L 53.4105 54.249891 
L 53.0478 53.857959 
L 52.6851 53.465995 
L 52.3224 53.073994 
L 51.9597 52.681951 
L 51.597 52.289863 
L 51.2343 51.897722 
L 50.8716 51.505522 
L 50.5089 51.113256 
L 50.1462 50.720916 
L 49.7835 50.328493 
L 49.4208 49.935977 
L 49.0581 49.543356 
L 48.6954 49.150617 
L 48.3327 48.757748 
L 47.97 48.364732 
L 47.6073 47.971552 
L 47.2446 47.578189 
L 46.8819 47.184622 
L 46.5192 46.790827 
L 46.1565 46.396779 
L 45.7938 46.002449 
L 45.4311 45.607805 
L 45.0684 45.212813 
L 44.7057 44.817435 
L 44.343 44.421629 
L 43.9803 44.025349 
L 43.6176 43.628546 
L 43.2549 43.231163 
L 42.8922 42.833143 
L 42.5295 42.43442 
L 42.1668 42.034924 
L 41.8041 41.634578 
L 41.4414 41.233301 
L 41.0787 40.831003 
L 40.716 40.42759 
L 40.3533 40.022959 
L 39.9906 39.617001 
L 39.6279 39.2096 
L 39.2652 38.800633 
L 38.9025 38.38997 
L 38.5398 37.977474 
L 38.1771 37.563001 
L 37.8144 37.146403 
L 37.4517 36.727524 
L 37.089 36.306206 
L 36.7263 35.882286 
L 36.3636 35.455599 
L 36.0009 35.025979 
L 35.6382 34.593262 
L 35.2755 34.157286 
L 34.9128 33.717894 
L 34.5501 33.274937 
L 34.1874 32.828277 
L 33.8247 32.37779 
L 33.462 31.923368 
L 33.0993 31.464922 
L 32.7366 31.002389 
L 32.3739 30.535733 
L 32.0112 30.064949 
L 31.6485 29.590069 
L 31.2858 29.111161 
L 30.9231 28.628338 
L 30.5604 28.141757 
L 30.1977 27.651626 
L 29.835 27.158204 
L 29.4723 26.661803 
L 29.1096 26.162792 
L 28.7469 25.661597 
L 28.3842 25.158703 
L 28.0215 24.654653 
L 27.6588 24.150046 
L 27.2961 23.645542 
L 26.9334 23.141856 
L 26.5707 22.639755 
L 26.208 22.140061 
L 25.8453 21.643644 
L 25.4826 21.151421 
L 25.1199 20.664352 
L 24.7572 20.183436 
L 24.3945 19.709706 
L 24.0318 19.244229 
L 23.6691 18.788096 
L 23.3064 18.342418 
L 22.9437 17.908322 
L 22.581 17.486944 
L 22.2183 17.07942 
L 21.8556 16.686881 
L 21.4929 16.310438 
L 21.1302 15.951178 
L 20.7675 15.610143 
L 20.4048 15.288322 
L 20.0421 14.986629 
L 19.6794 14.705884 
L 19.3167 14.446788 
L 18.954 14.209898 
L 18.5913 13.995598 
L 18.2286 13.804065 
L 17.8659 13.635237 
L 17.5032 13.48878 
L 17.1405 13.364058 
L 16.7778 13.260111 
L 16.4151 13.175641 
L 16.0524 13.109019 
L 15.6897 13.05831 
L 15.327 13.02133 
L 14.9643 12.995733 
L 14.6016 12.97912 
L 14.2389 12.969178 
L 13.8762 12.963819 
L 13.5135 12.961306 
L 13.1508 12.960336 
L 12.7881 12.960055 
L 12.4254 12.960004 
L 12.0627 12.96 
L 11.7 12.96 
z
" clip-path="url(#p6ae4b628a0)" style="fill: #7cffff; fill-opacity: 0.85"/>
   </g>
   <g id="FillBetweenPolyCollection_4">
    <path d="M 11.7 12.96 
L 11.7 12.96 
L 12.0627 12.96 
L 12.4254 12.960004 
L 12.7881 12.960055 
L 13.1508 12.960336 
L 13.5135 12.961306 
L 13.8762 12.963819 
L 14.2389 12.969178 
L 14.6016 12.97912 
L 14.9643 12.995733 
L 15.327 13.02133 
L 15.6897 13.05831 
L 16.0524 13.109019 
L 16.4151 13.175641 
L 16.7778 13.260111 
L 17.1405 13.364058 
L 17.5032 13.48878 
L 17.8659 13.635237 
L 18.2286 13.804065 
L 18.5913 13.995598 
L 18.954 14.209898 
L 19.3167 14.446788 
L 19.6794 14.705884 
L 20.0421 14.986629 
L 20.4048 15.288322 
L 20.7675 15.610143 
L 21.1302 15.951178 
L 21.4929 16.310438 
L 21.8556 16.686881 
L 22.2183 17.07942 
L 22.581 17.486944 
L 22.9437 17.908322 
L 23.3064 18.342418 
L 23.6691 18.788096 
L 24.0318 19.244229 
L 24.3945 19.709706 
L 24.7572 20.183436 
L 25.1199 20.664352 
L 25.4826 21.151421 
L 25.8453 21.643644 
L 26.208 22.140061 
L 26.5707 22.639755 
L 26.9334 23.141856 
L 27.2961 23.645542 
L 27.6588 24.150046 
L 28.0215 24.654653 
L 28.3842 25.158703 
L 28.7469 25.661597 
L 29.1096 26.162792 
L 29.4723 26.661803 
L 29.835 27.158204 
L 30.1977 27.651626 
L 30.5604 28.141757 
L 30.9231 28.628338 
L 31.2858 29.111161 
L 31.6485 29.590069 
L 32.0112 30.064949 
L 32.3739 30.535733 
L 32.7366 31.002389 
L 33.0993 31.464922 
L 33.462 31.923368 
L 33.8247 32.37779 
L 34.1874 32.828277 
L 34.5501 33.274937 
L 34.9128 33.717894 
L 35.2755 34.157286 
L 35.6382 34.593262 
L 36.0009 35.025979 
L 36.3636 35.455599 
L 36.7263 35.882286 
L 37.089 36.306206 
L 37.4517 36.727524 
L 37.8144 37.146403 
L 38.1771 37.563001 
L 38.5398 37.977474 
L 38.9025 38.38997 
L 39.2652 38.800633 
L 39.6279 39.2096 
L 39.9906 39.617001 
L 40.3533 40.022959 
L 40.716 40.42759 
L 41.0787 40.831003 
L 41.4414 41.233301 
L 41.8041 41.634578 
L 42.1668 42.034924 
L 42.5295 42.43442 
L 42.8922 42.833143 
L 43.2549 43.231163 
L 43.6176 43.628546 
L 43.9803 44.025349 
L 44.343 44.421629 
L 44.7057 44.817435 
L 45.0684 45.212813 
L 45.4311 45.607805 
L 45.7938 46.002449 
L 46.1565 46.396779 
L 46.5192 46.790827 
L 46.8819 47.184622 
L 47.2446 47.578189 
L 47.6073 47.971552 
L 47.97 48.364732 
L 48.3327 48.757748 
L 48.6954 49.150617 
L 49.0581 49.543356 
L 49.4208 49.935977 
L 49.7835 50.328493 
L 50.1462 50.720916 
L 50.5089 51.113256 
L 50.8716 51.505522 
L 51.2343 51.897722 
L 51.597 52.289863 
L 51.9597 52.681951 
L 52.3224 53.073994 
L 52.6851 53.465995 
L 53.0478 53.857959 
L 53.4105 54.249891 
L 53.7732 54.641794 
L 54.1359 55.033672 
L 54.4986 55.425527 
L 54.8613 55.817362 
L 55.224 56.209179 
L 55.5867 56.600981 
L 55.9494 56.992768 
L 56.3121 57.384544 
L 56.6748 57.776309 
L 57.0375 58.168064 
L 57.4002 58.559811 
L 57.7629 58.95155 
L 58.1256 59.343283 
L 58.4883 59.73501 
L 58.851 60.126732 
L 59.2137 60.51845 
L 59.5764 60.910163 
L 59.9391 61.301874 
L 60.3018 61.693581 
L 60.6645 62.085285 
L 61.0272 62.476987 
L 61.3899 62.868687 
L 61.7526 63.260385 
L 62.1153 63.652082 
L 62.478 64.043777 
L 62.8407 64.435471 
L 63.2034 64.827164 
L 63.5661 65.218856 
L 63.9288 65.610547 
L 64.2915 66.002238 
L 64.6542 66.393928 
L 65.0169 66.785617 
L 65.3796 67.177306 
L 65.7423 67.568994 
L 66.105 67.960682 
L 66.4677 68.352369 
L 66.8304 68.744057 
L 67.1931 69.135744 
L 67.5558 69.527431 
L 67.9185 69.919118 
L 68.2812 70.310804 
L 68.6439 70.70249 
L 69.0066 71.094177 
L 69.3693 71.485863 
L 69.732 71.877549 
L 70.0947 72.269235 
L 70.4574 72.660921 
L 70.8201 73.052607 
L 71.1828 73.444292 
L 71.5455 73.835978 
L 71.9082 74.227664 
L 72.2709 74.619349 
L 72.6336 75.011035 
L 72.9963 75.402721 
L 73.359 75.794406 
L 73.7217 76.186092 
L 74.0844 76.577777 
L 74.4471 76.969463 
L 74.8098 77.361148 
L 75.1725 77.752834 
L 75.5352 78.144519 
L 75.8979 78.536205 
L 76.2606 78.92789 
L 76.6233 79.319576 
L 76.986 79.711261 
L 77.3487 80.102946 
L 77.7114 80.494632 
L 78.0741 80.886317 
L 78.4368 81.278003 
L 78.7995 81.669688 
L 79.1622 82.061374 
L 79.5249 82.453059 
L 79.8876 82.844744 
L 80.2503 83.23643 
L 80.613 83.628115 
L 80.9757 84.019801 
L 81.3384 84.411486 
L 81.7011 84.803171 
L 82.0638 85.194857 
L 82.4265 85.586542 
L 82.7892 85.978228 
L 83.1519 86.369913 
L 83.5146 86.761599 
L 83.8773 87.153284 
L 84.24 87.544969 
L 84.24 12.96 
L 84.24 12.96 
L 83.8773 12.96 
L 83.5146 12.96 
L 83.1519 12.96 
L 82.7892 12.96 
L 82.4265 12.96 
L 82.0638 12.96 
L 81.7011 12.96 
L 81.3384 12.96 
L 80.9757 12.96 
L 80.613 12.96 
L 80.2503 12.96 
L 79.8876 12.96 
L 79.5249 12.96 
L 79.1622 12.96 
L 78.7995 12.96 
L 78.4368 12.96 
L 78.0741 12.96 
L 77.7114 12.96 
L 77.3487 12.96 
L 76.986 12.96 
L 76.6233 12.96 
L 76.2606 12.96 
L 75.8979 12.96 
L 75.5352 12.96 
L 75.1725 12.96 
L 74.8098 12.96 
L 74.4471 12.96 
L 74.0844 12.96 
L 73.7217 12.96 
L 73.359 12.96 
L 72.9963 12.96 
L 72.6336 12.96 
L 72.2709 12.96 
L 71.9082 12.96 
L 71.5455 12.96 
L 71.1828 12.96 
L 70.8201 12.96 
L 70.4574 12.96 
L 70.0947 12.96 
L 69.732 12.96 
L 69.3693 12.96 
L 69.0066 12.96 
L 68.6439 12.96 
L 68.2812 12.96 
L 67.9185 12.96 
L 67.5558 12.96 
L 67.1931 12.96 
L 66.8304 12.96 
L 66.4677 12.96 
L 66.105 12.96 
L 65.7423 12.96 
L 65.3796 12.96 
L 65.0169 12.96 
L 64.6542 12.96 
L 64.2915 12.96 
L 63.9288 12.96 
L 63.5661 12.96 
L 63.2034 12.96 
L 62.8407 12.96 
L 62.478 12.96 
L 62.1153 12.96 
L 61.7526 12.96 
L 61.3899 12.96 
L 61.0272 12.96 
L 60.6645 12.96 
L 60.3018 12.96 
L 59.9391 12.96 
L 59.5764 12.96 
L 59.2137 12.96 
L 58.851 12.96 
L 58.4883 12.96 
L 58.1256 12.96 
L 57.7629 12.96 
L 57.4002 12.96 
L 57.0375 12.96 
L 56.6748 12.96 
L 56.3121 12.96 
L 55.9494 12.96 
L 55.5867 12.96 
L 55.224 12.96 
L 54.8613 12.96 
L 54.4986 12.96 
L 54.1359 12.96 
L 53.7732 12.96 
L 53.4105 12.96 
L 53.0478 12.96 
L 52.6851 12.96 
L 52.3224 12.96 
L 51.9597 12.96 
L 51.597 12.96 
L 51.2343 12.96 
L 50.8716 12.96 
L 50.5089 12.96 
L 50.1462 12.96 
L 49.7835 12.96 
L 49.4208 12.96 
L 49.0581 12.96 
L 48.6954 12.96 
L 48.3327 12.96 
L 47.97 12.96 
L 47.6073 12.96 
L 47.2446 12.96 
L 46.8819 12.96 
L 46.5192 12.96 
L 46.1565 12.96 
L 45.7938 12.96 
L 45.4311 12.96 
L 45.0684 12.96 
L 44.7057 12.96 
L 44.343 12.96 
L 43.9803 12.96 
L 43.6176 12.96 
L 43.2549 12.96 
L 42.8922 12.96 
L 42.5295 12.96 
L 42.1668 12.96 
L 41.8041 12.96 
L 41.4414 12.96 
L 41.0787 12.96 
L 40.716 12.96 
L 40.3533 12.96 
L 39.9906 12.96 
L 39.6279 12.96 
L 39.2652 12.96 
L 38.9025 12.96 
L 38.5398 12.96 
L 38.1771 12.96 
L 37.8144 12.96 
L 37.4517 12.96 
L 37.089 12.96 
L 36.7263 12.96 
L 36.3636 12.96 
L 36.0009 12.96 
L 35.6382 12.96 
L 35.2755 12.96 
L 34.9128 12.96 
L 34.5501 12.96 
L 34.1874 12.96 
L 33.8247 12.96 
L 33.462 12.96 
L 33.0993 12.96 
L 32.7366 12.96 
L 32.3739 12.96 
L 32.0112 12.96 
L 31.6485 12.96 
L 31.2858 12.96 
L 30.9231 12.96 
L 30.5604 12.96 
L 30.1977 12.96 
L 29.835 12.96 
L 29.4723 12.96 
L 29.1096 12.96 
L 28.7469 12.96 
L 28.3842 12.96 
L 28.0215 12.96 
L 27.6588 12.96 
L 27.2961 12.96 
L 26.9334 12.96 
L 26.5707 12.96 
L 26.208 12.96 
L 25.8453 12.96 
L 25.4826 12.96 
L 25.1199 12.96 
L 24.7572 12.96 
L 24.3945 12.96 
L 24.0318 12.96 
L 23.6691 12.96 
L 23.3064 12.96 
L 22.9437 12.96 
L 22.581 12.96 
L 22.2183 12.96 
L 21.8556 12.96 
L 21.4929 12.96 
L 21.1302 12.96 
L 20.7675 12.96 
L 20.4048 12.96 
L 20.0421 12.96 
L 19.6794 12.96 
L 19.3167 12.96 
L 18.954 12.96 
L 18.5913 12.96 
L 18.2286 12.96 
L 17.8659 12.96 
L 17.5032 12.96 
L 17.1405 12.96 
L 16.7778 12.96 
L 16.4151 12.96 
L 16.0524 12.96 
L 15.6897 12.96 
L 15.327 12.96 
L 14.9643 12.96 
L 14.6016 12.96 
L 14.2389 12.96 
L 13.8762 12.96 
L 13.5135 12.96 
L 13.1508 12.96 
L 12.7881 12.96 
L 12.4254 12.96 
L 12.0627 12.96 
L 11.7 12.96 
z
" clip-path="url(#p6ae4b628a0)" style="fill: #ffa09f; fill-opacity: 0.85"/>
   </g>
   <g id="matplotlib.axis_1">
    <g id="xtick_1">
     <g id="line2d_1">
      <defs>
       <path id="m3cc5e9090c" d="M 0 0 
L 0 3.5 
" style="stroke: #000000; stroke-width: 0.8"/>
      </defs>
      <g>
       <use xlink:href="#m3cc5e9090c" x="11.7" y="96.12" style="stroke: #000000; stroke-width: 0.8"/>
      </g>
     </g>
     <g id="text_1">
      <text style="font-size: 6px; font-family: 'DejaVu Sans', 'Arial', 'Helvetica', 'Lucida Grande', 'Verdana', 'Geneva', 'Lucid', 'Avant Garde', sans-serif; text-anchor: middle" x="11.7" y="107.679063" transform="rotate(-0 11.7 107.679063)">0</text>
     </g>
    </g>
    <g id="xtick_2">
     <g id="line2d_2">
      <g>
       <use xlink:href="#m3cc5e9090c" x="29.835" y="96.12" style="stroke: #000000; stroke-width: 0.8"/>
      </g>
     </g>
     <g id="text_2">
      <text style="font-size: 6px; font-family: 'DejaVu Sans', 'Arial', 'Helvetica', 'Lucida Grande', 'Verdana', 'Geneva', 'Lucid', 'Avant Garde', sans-serif; text-anchor: middle" x="29.835" y="107.679063" transform="rotate(-0 29.835 107.679063)">2</text>
     </g>
    </g>
    <g id="xtick_3">
     <g id="line2d_3">
      <g>
       <use xlink:href="#m3cc5e9090c" x="47.97" y="96.12" style="stroke: #000000; stroke-width: 0.8"/>
      </g>
     </g>
     <g id="text_3">
      <text style="font-size: 6px; font-family: 'DejaVu Sans', 'Arial', 'Helvetica', 'Lucida Grande', 'Verdana', 'Geneva', 'Lucid', 'Avant Garde', sans-serif; text-anchor: middle" x="47.97" y="107.679063" transform="rotate(-0 47.97 107.679063)">4</text>
     </g>
    </g>
    <g id="xtick_4">
     <g id="line2d_4">
      <g>
       <use xlink:href="#m3cc5e9090c" x="66.105" y="96.12" style="stroke: #000000; stroke-width: 0.8"/>
      </g>
     </g>
     <g id="text_4">
      <text style="font-size: 6px; font-family: 'DejaVu Sans', 'Arial', 'Helvetica', 'Lucida Grande', 'Verdana', 'Geneva', 'Lucid', 'Avant Garde', sans-serif; text-anchor: middle" x="66.105" y="107.679063" transform="rotate(-0 66.105 107.679063)">6</text>
     </g>
    </g>
    <g id="xtick_5">
     <g id="line2d_5">
      <g>
       <use xlink:href="#m3cc5e9090c" x="84.24" y="96.12" style="stroke: #000000; stroke-width: 0.8"/>
      </g>
     </g>
     <g id="text_5">
      <text style="font-size: 6px; font-family: 'DejaVu Sans', 'Arial', 'Helvetica', 'Lucida Grande', 'Verdana', 'Geneva', 'Lucid', 'Avant Garde', sans-serif; text-anchor: middle" x="84.24" y="107.679063" transform="rotate(-0 84.24 107.679063)">8</text>
     </g>
    </g>
    <g id="text_6">
     <text style="font-size: 6px; font-family: 'DejaVu Sans', 'Arial', 'Helvetica', 'Lucida Grande', 'Verdana', 'Geneva', 'Lucid', 'Avant Garde', sans-serif; text-anchor: middle" x="47.97" y="117.485938" transform="rotate(-0 47.97 117.485938)">Exposure duration τ (h)</text>
    </g>
   </g>
   <g id="matplotlib.axis_2">
    <g id="ytick_1">
     <g id="line2d_6">
      <defs>
       <path id="m06d58e8179" d="M 0 0 
L -3.5 0 
" style="stroke: #000000; stroke-width: 0.8"/>
      </defs>
      <g>
       <use xlink:href="#m06d58e8179" x="11.7" y="96.12" style="stroke: #000000; stroke-width: 0.8"/>
      </g>
     </g>
     <g id="text_7">
      <!-- $\mathdefault{10^{-5}}$ -->
      <g transform="translate(-9.4 98.399531)">
       <text>
        <tspan x="0" y="-0.640625" style="font-size: 6px; font-family: 'DejaVu Sans'">1</tspan>
        <tspan x="3.817383" y="-0.640625" style="font-size: 6px; font-family: 'DejaVu Sans'">0</tspan>
        <tspan x="7.692188" y="-2.9375" style="font-size: 4.2px; font-family: 'DejaVu Sans'">−</tspan>
        <tspan x="11.211328" y="-2.9375" style="font-size: 4.2px; font-family: 'DejaVu Sans'">5</tspan>
       </text>
      </g>
     </g>
    </g>
    <g id="ytick_2">
     <g id="line2d_7">
      <g>
       <use xlink:href="#m06d58e8179" x="11.7" y="79.488" style="stroke: #000000; stroke-width: 0.8"/>
      </g>
     </g>
     <g id="text_8">
      <!-- $\mathdefault{10^{-4}}$ -->
      <g transform="translate(-9.4 81.767531)">
       <text>
        <tspan x="0" y="-0.640625" style="font-size: 6px; font-family: 'DejaVu Sans'">1</tspan>
        <tspan x="3.817383" y="-0.640625" style="font-size: 6px; font-family: 'DejaVu Sans'">0</tspan>
        <tspan x="7.692188" y="-2.9375" style="font-size: 4.2px; font-family: 'DejaVu Sans'">−</tspan>
        <tspan x="11.211328" y="-2.9375" style="font-size: 4.2px; font-family: 'DejaVu Sans'">4</tspan>
       </text>
      </g>
     </g>
    </g>
    <g id="ytick_3">
     <g id="line2d_8">
      <g>
       <use xlink:href="#m06d58e8179" x="11.7" y="62.856" style="stroke: #000000; stroke-width: 0.8"/>
      </g>
     </g>
     <g id="text_9">
      <!-- $\mathdefault{10^{-3}}$ -->
      <g transform="translate(-9.4 65.135531)">
       <text>
        <tspan x="0" y="-0.585938" style="font-size: 6px; font-family: 'DejaVu Sans'">1</tspan>
        <tspan x="3.817383" y="-0.585938" style="font-size: 6px; font-family: 'DejaVu Sans'">0</tspan>
        <tspan x="7.692188" y="-2.882812" style="font-size: 4.2px; font-family: 'DejaVu Sans'">−</tspan>
        <tspan x="11.211328" y="-2.882812" style="font-size: 4.2px; font-family: 'DejaVu Sans'">3</tspan>
       </text>
      </g>
     </g>
    </g>
    <g id="ytick_4">
     <g id="line2d_9">
      <g>
       <use xlink:href="#m06d58e8179" x="11.7" y="46.224" style="stroke: #000000; stroke-width: 0.8"/>
      </g>
     </g>
     <g id="text_10">
      <!-- $\mathdefault{10^{-2}}$ -->
      <g transform="translate(-9.4 48.503531)">
       <text>
        <tspan x="0" y="-0.585938" style="font-size: 6px; font-family: 'DejaVu Sans'">1</tspan>
        <tspan x="3.817383" y="-0.585938" style="font-size: 6px; font-family: 'DejaVu Sans'">0</tspan>
        <tspan x="7.692188" y="-2.882812" style="font-size: 4.2px; font-family: 'DejaVu Sans'">−</tspan>
        <tspan x="11.211328" y="-2.882812" style="font-size: 4.2px; font-family: 'DejaVu Sans'">2</tspan>
       </text>
      </g>
     </g>
    </g>
    <g id="ytick_5">
     <g id="line2d_10">
      <g>
       <use xlink:href="#m06d58e8179" x="11.7" y="29.592" style="stroke: #000000; stroke-width: 0.8"/>
      </g>
     </g>
     <g id="text_11">
      <!-- $\mathdefault{10^{-1}}$ -->
      <g transform="translate(-9.4 31.871531)">
       <text>
        <tspan x="0" y="-0.640625" style="font-size: 6px; font-family: 'DejaVu Sans'">1</tspan>
        <tspan x="3.817383" y="-0.640625" style="font-size: 6px; font-family: 'DejaVu Sans'">0</tspan>
        <tspan x="7.692188" y="-2.9375" style="font-size: 4.2px; font-family: 'DejaVu Sans'">−</tspan>
        <tspan x="11.211328" y="-2.9375" style="font-size: 4.2px; font-family: 'DejaVu Sans'">1</tspan>
       </text>
      </g>
     </g>
    </g>
    <g id="ytick_6">
     <g id="line2d_11">
      <g>
       <use xlink:href="#m06d58e8179" x="11.7" y="12.96" style="stroke: #000000; stroke-width: 0.8"/>
      </g>
     </g>
     <g id="text_12">
      <!-- $\mathdefault{10^{0}}$ -->
      <g transform="translate(-5.86 15.239531)">
       <text>
        <tspan x="0" y="-0.585938" style="font-size: 6px; font-family: 'DejaVu Sans'">1</tspan>
        <tspan x="3.817383" y="-0.585938" style="font-size: 6px; font-family: 'DejaVu Sans'">0</tspan>
        <tspan x="7.692188" y="-2.882812" style="font-size: 4.2px; font-family: 'DejaVu Sans'">0</tspan>
       </text>
      </g>
     </g>
    </g>
    <g id="ytick_7"/>
    <g id="ytick_8"/>
    <g id="ytick_9"/>
    <g id="ytick_10"/>
    <g id="ytick_11"/>
    <g id="ytick_12"/>
    <g id="ytick_13"/>
    <g id="ytick_14"/>
    <g id="ytick_15"/>
    <g id="ytick_16"/>
    <g id="ytick_17"/>
    <g id="ytick_18"/>
    <g id="ytick_19"/>
    <g id="ytick_20"/>
    <g id="ytick_21"/>
    <g id="ytick_22"/>
    <g id="ytick_23"/>
    <g id="ytick_24"/>
    <g id="ytick_25"/>
    <g id="ytick_26"/>
    <g id="ytick_27"/>
    <g id="ytick_28"/>
    <g id="ytick_29"/>
    <g id="ytick_30"/>
    <g id="ytick_31"/>
    <g id="ytick_32"/>
    <g id="ytick_33"/>
    <g id="ytick_34"/>
    <g id="ytick_35"/>
    <g id="ytick_36"/>
    <g id="ytick_37"/>
    <g id="ytick_38"/>
    <g id="ytick_39"/>
    <g id="ytick_40"/>
    <g id="ytick_41"/>
    <g id="ytick_42"/>
    <g id="ytick_43"/>
    <g id="ytick_44"/>
    <g id="ytick_45"/>
    <g id="ytick_46"/>
    <g id="text_13">
     <text style="font-size: 6px; font-family: 'DejaVu Sans', 'Arial', 'Helvetica', 'Lucida Grande', 'Verdana', 'Geneva', 'Lucid', 'Avant Garde', sans-serif; text-anchor: middle" x="-14.647812" y="54.54" transform="rotate(-90 -14.647812 54.54)">Frac of population at Ab removal</text>
    </g>
   </g>
   <g id="patch_3">
    <path d="M 11.7 96.12 
L 11.7 12.96 
" style="fill: none; stroke: #000000; stroke-width: 0.5; stroke-linejoin: miter; stroke-linecap: square"/>
   </g>
   <g id="patch_4">
    <path d="M 11.7 96.12 
L 84.24 96.12 
" style="fill: none; stroke: #000000; stroke-width: 0.5; stroke-linejoin: miter; stroke-linecap: square"/>
   </g>
  </g>
 </g>
 <defs>
  <clipPath id="p6ae4b628a0">
   <rect x="11.7" y="12.96" width="72.54" height="83.16"/>
  </clipPath>
 </defs>
</svg>
