<?xml version="1.0" encoding="utf-8" standalone="no"?>
<!DOCTYPE svg PUBLIC "-//W3C//DTD SVG 1.1//EN"
  "http://www.w3.org/Graphics/SVG/1.1/DTD/svg11.dtd">
<svg xmlns:xlink="http://www.w3.org/1999/xlink" width="93.6pt" height="108pt" viewBox="0 0 93.6 108" xmlns="http://www.w3.org/2000/svg" version="1.1">
 <metadata>
  <rdf:RDF xmlns:dc="http://purl.org/dc/elements/1.1/" xmlns:cc="http://creativecommons.org/ns#" xmlns:rdf="http://www.w3.org/1999/02/22-rdf-syntax-ns#">
   <cc:Work>
    <dc:type rdf:resource="http://purl.org/dc/dcmitype/StillImage"/>
    <dc:date>2026-02-16T18:34:10.389683</dc:date>
    <dc:format>image/svg+xml</dc:format>
    <dc:creator>
     <cc:Agent>
      <dc:title>Matplotlib v3.10.8, https://matplotlib.org/</dc:title>
     </cc:Agent>
    </dc:creator>
   </cc:Work>
  </rdf:RDF>
 </metadata>
 <defs>
  <style type="text/css">*{stroke-linejoin: round; stroke-linecap: butt}</style>
 </defs>
 <g id="figure_1">
  <g id="patch_1">
   <path d="M 0 108 
L 93.6 108 
L 93.6 0 
L 0 0 
L 0 108 
z
" style="fill: none"/>
  </g>
  <g id="axes_1">
   <g id="patch_2">
    <path d="M 11.7 96.12 
L 84.24 96.12 
L 84.24 12.96 
L 11.7 12.96 
L 11.7 96.12 
z
" style="fill: none"/>
   </g>
   <g id="FillBetweenPolyCollection_1">
    <path d="M 11.7 87.410926 
L 11.7 16644.96 
L 12.00225 16644.96 
L 12.3045 16644.96 
L 12.60675 16644.96 
L 12.909 16644.96 
L 13.21125 16644.96 
L 13.5135 16644.96 
L 13.81575 16644.96 
L 14.118 16644.96 
L 14.42025 16644.96 
L 14.7225 16644.96 
L 15.02475 16644.96 
L 15.327 16644.96 
L 15.62925 16644.96 
L 15.9315 16644.96 
L 16.23375 16644.96 
L 16.536 16644.96 
L 16.83825 16644.96 
L 17.1405 16644.96 
L 17.44275 16644.96 
L 17.745 16644.96 
L 18.04725 16644.96 
L 18.3495 16644.96 
L 18.65175 16644.96 
L 18.954 16644.96 
L 19.25625 16644.96 
L 19.5585 16644.96 
L 19.86075 16644.96 
L 20.163 16644.96 
L 20.46525 16644.96 
L 20.7675 16644.96 
L 21.06975 16644.96 
L 21.372 16644.96 
L 21.67425 16644.96 
L 21.9765 16644.96 
L 22.27875 16644.96 
L 22.581 16644.96 
L 22.88325 16644.96 
L 23.1855 16644.96 
L 23.48775 16644.96 
L 23.79 16644.96 
L 24.09225 16644.96 
L 24.3945 16644.96 
L 24.69675 16644.96 
L 24.999 16644.96 
L 25.30125 16644.96 
L 25.6035 16644.96 
L 25.90575 16644.96 
L 26.208 16644.96 
L 26.51025 16644.96 
L 26.8125 16644.96 
L 27.11475 16644.96 
L 27.417 16644.96 
L 27.71925 16644.96 
L 28.0215 16644.96 
L 28.32375 16644.96 
L 28.626 16644.96 
L 28.92825 16644.96 
L 29.2305 16644.96 
L 29.53275 16644.96 
L 29.835 16644.96 
L 30.13725 16644.96 
L 30.4395 16644.96 
L 30.74175 16644.96 
L 31.044 16644.96 
L 31.34625 16644.96 
L 31.6485 16644.96 
L 31.95075 16644.96 
L 32.253 16644.96 
L 32.55525 16644.96 
L 32.8575 16644.96 
L 33.15975 16644.96 
L 33.462 16644.96 
L 33.76425 16644.96 
L 34.0665 16644.96 
L 34.36875 16644.96 
L 34.671 16644.96 
L 34.97325 16644.96 
L 35.2755 16644.96 
L 35.57775 16644.96 
L 35.88 16644.96 
L 36.18225 16644.96 
L 36.4845 16644.96 
L 36.78675 16644.96 
L 37.089 16644.96 
L 37.39125 16644.96 
L 37.6935 16644.96 
L 37.99575 16644.96 
L 38.298 16644.96 
L 38.60025 16644.96 
L 38.9025 16644.96 
L 39.20475 16644.96 
L 39.507 16644.96 
L 39.80925 16644.96 
L 40.1115 16644.96 
L 40.41375 16644.96 
L 40.716 16644.96 
L 41.01825 16644.96 
L 41.3205 16644.96 
L 41.62275 16644.96 
L 41.925 16644.96 
L 42.22725 16644.96 
L 42.5295 16644.96 
L 42.83175 16644.96 
L 43.134 16644.96 
L 43.43625 16644.96 
L 43.7385 16644.96 
L 44.04075 16644.96 
L 44.343 16644.96 
L 44.64525 16644.96 
L 44.9475 16644.96 
L 45.24975 16644.96 
L 45.552 16644.96 
L 45.85425 16644.96 
L 46.1565 16644.96 
L 46.45875 16644.96 
L 46.761 16644.96 
L 47.06325 16644.96 
L 47.3655 16644.96 
L 47.66775 16644.96 
L 47.97 16644.96 
L 48.27225 16644.96 
L 48.5745 16644.96 
L 48.87675 16644.96 
L 49.179 16644.96 
L 49.48125 16644.96 
L 49.7835 16644.96 
L 50.08575 16644.96 
L 50.388 16644.96 
L 50.69025 16644.96 
L 50.9925 16644.96 
L 51.29475 16644.96 
L 51.597 16644.96 
L 51.89925 16644.96 
L 52.2015 16644.96 
L 52.50375 16644.96 
L 52.806 16644.96 
L 53.10825 16644.96 
L 53.4105 16644.96 
L 53.71275 16644.96 
L 54.015 16644.96 
L 54.31725 16644.96 
L 54.6195 16644.96 
L 54.92175 16644.96 
L 55.224 16644.96 
L 55.52625 16644.96 
L 55.8285 16644.96 
L 56.13075 16644.96 
L 56.433 16644.96 
L 56.73525 16644.96 
L 57.0375 16644.96 
L 57.33975 16644.96 
L 57.642 16644.96 
L 57.94425 16644.96 
L 58.2465 16644.96 
L 58.54875 16644.96 
L 58.851 16644.96 
L 59.15325 16644.96 
L 59.4555 16644.96 
L 59.75775 16644.96 
L 60.06 16644.96 
L 60.36225 16644.96 
L 60.6645 16644.96 
L 60.96675 16644.96 
L 61.269 16644.96 
L 61.57125 16644.96 
L 61.8735 16644.96 
L 62.17575 16644.96 
L 62.478 16644.96 
L 62.78025 16644.96 
L 63.0825 16644.96 
L 63.38475 16644.96 
L 63.687 16644.96 
L 63.98925 16644.96 
L 64.2915 16644.96 
L 64.59375 16644.96 
L 64.896 16644.96 
L 65.19825 16644.96 
L 65.5005 16644.96 
L 65.80275 16644.96 
L 66.105 16644.96 
L 66.40725 16644.96 
L 66.7095 16644.96 
L 67.01175 16644.96 
L 67.314 16644.96 
L 67.61625 16644.96 
L 67.9185 16644.96 
L 68.22075 16644.96 
L 68.523 16644.96 
L 68.82525 16644.96 
L 69.1275 16644.96 
L 69.42975 16644.96 
L 69.732 16644.96 
L 70.03425 16644.96 
L 70.3365 16644.96 
L 70.63875 16644.96 
L 70.941 16644.96 
L 71.24325 16644.96 
L 71.5455 16644.96 
L 71.84775 16644.96 
L 72.15 16644.96 
L 72.45225 16644.96 
L 72.7545 16644.96 
L 73.05675 16644.96 
L 73.359 16644.96 
L 73.66125 16644.96 
L 73.9635 16644.96 
L 74.26575 16644.96 
L 74.568 16644.96 
L 74.87025 16644.96 
L 75.1725 16644.96 
L 75.47475 16644.96 
L 75.777 16644.96 
L 76.07925 16644.96 
L 76.3815 16644.96 
L 76.68375 16644.96 
L 76.986 16644.96 
L 77.28825 16644.96 
L 77.5905 16644.96 
L 77.89275 16644.96 
L 78.195 16644.96 
L 78.49725 16644.96 
L 78.7995 16644.96 
L 79.10175 16644.96 
L 79.404 16644.96 
L 79.70625 16644.96 
L 80.0085 16644.96 
L 80.31075 16644.96 
L 80.613 16644.96 
L 80.91525 16644.96 
L 81.2175 16644.96 
L 81.51975 16644.96 
L 81.822 16644.96 
L 82.12425 16644.96 
L 82.4265 16644.96 
L 82.72875 16644.96 
L 83.031 16644.96 
L 83.33325 16644.96 
L 83.6355 16644.96 
L 83.93775 16644.96 
L 84.24 16644.96 
L 84.24 68.081654 
L 84.24 68.081654 
L 83.93775 68.181194 
L 83.6355 68.281005 
L 83.33325 68.381089 
L 83.031 68.481444 
L 82.72875 68.582071 
L 82.4265 68.68297 
L 82.12425 68.78414 
L 81.822 68.885583 
L 81.51975 68.987297 
L 81.2175 69.089283 
L 80.91525 69.191541 
L 80.613 69.294071 
L 80.31075 69.396872 
L 80.0085 69.499944 
L 79.70625 69.603288 
L 79.404 69.706903 
L 79.10175 69.810788 
L 78.7995 69.914944 
L 78.49725 70.019371 
L 78.195 70.124068 
L 77.89275 70.229035 
L 77.5905 70.334271 
L 77.28825 70.439776 
L 76.986 70.54555 
L 76.68375 70.651593 
L 76.3815 70.757903 
L 76.07925 70.864481 
L 75.777 70.971326 
L 75.47475 71.078437 
L 75.1725 71.185814 
L 74.87025 71.293456 
L 74.568 71.401363 
L 74.26575 71.509534 
L 73.9635 71.617968 
L 73.66125 71.726664 
L 73.359 71.835622 
L 73.05675 71.944841 
L 72.7545 72.05432 
L 72.45225 72.164058 
L 72.15 72.274054 
L 71.84775 72.384308 
L 71.5455 72.494817 
L 71.24325 72.605582 
L 70.941 72.7166 
L 70.63875 72.827872 
L 70.3365 72.939394 
L 70.03425 73.051167 
L 69.732 73.163189 
L 69.42975 73.275459 
L 69.1275 73.387974 
L 68.82525 73.500735 
L 68.523 73.613738 
L 68.22075 73.726983 
L 67.9185 73.840468 
L 67.61625 73.95419 
L 67.314 74.06815 
L 67.01175 74.182345 
L 66.7095 74.296814 
L 66.40725 74.455465 
L 66.105 74.526326 
L 65.80275 74.641425 
L 65.5005 74.756761 
L 65.19825 74.872319 
L 64.896 74.988097 
L 64.59375 75.104093 
L 64.2915 75.220303 
L 63.98925 75.336726 
L 63.687 75.453358 
L 63.38475 75.570197 
L 63.0825 75.68724 
L 62.78025 75.804484 
L 62.478 75.921926 
L 62.17575 76.039563 
L 61.8735 76.157392 
L 61.57125 76.27541 
L 61.269 76.393613 
L 60.96675 76.511997 
L 60.6645 76.63056 
L 60.36225 76.749296 
L 60.06 76.868204 
L 59.75775 76.987277 
L 59.4555 77.106514 
L 59.15325 77.225908 
L 58.851 77.345457 
L 58.54875 77.465156 
L 58.2465 77.584999 
L 57.94425 77.704983 
L 57.642 77.825103 
L 57.33975 77.945353 
L 57.0375 78.065729 
L 56.73525 78.186225 
L 56.433 78.306836 
L 56.13075 78.427557 
L 55.8285 78.548381 
L 55.52625 78.669304 
L 55.224 78.790318 
L 54.92175 78.911418 
L 54.6195 79.032597 
L 54.31725 79.153849 
L 54.015 79.275167 
L 53.71275 79.396545 
L 53.4105 79.517975 
L 53.10825 79.639449 
L 52.806 79.760962 
L 52.50375 79.882504 
L 52.2015 80.004068 
L 51.89925 80.125646 
L 51.597 80.247229 
L 51.29475 80.368809 
L 50.9925 80.490378 
L 50.69025 80.611926 
L 50.388 80.733445 
L 50.08575 80.854923 
L 49.7835 80.976353 
L 49.48125 81.097724 
L 49.179 81.219026 
L 48.87675 81.340248 
L 48.5745 81.461379 
L 48.27225 81.582409 
L 47.97 81.703326 
L 47.66775 81.824118 
L 47.3655 81.944775 
L 47.06325 82.065282 
L 46.761 82.185628 
L 46.45875 82.305801 
L 46.1565 82.425786 
L 45.85425 82.54557 
L 45.552 82.665139 
L 45.24975 82.78448 
L 44.9475 82.903578 
L 44.64525 83.022416 
L 44.343 83.140982 
L 44.04075 83.259257 
L 43.7385 83.377228 
L 43.43625 83.494876 
L 43.134 83.612185 
L 42.83175 83.729139 
L 42.5295 83.845718 
L 42.22725 83.961905 
L 41.925 84.077681 
L 41.62275 84.193027 
L 41.3205 84.307924 
L 41.01825 84.422351 
L 40.716 84.536288 
L 40.41375 84.649715 
L 40.1115 84.762608 
L 39.80925 84.874947 
L 39.507 84.98671 
L 39.20475 85.097871 
L 38.9025 85.20841 
L 38.60025 85.3183 
L 38.298 85.427517 
L 37.99575 85.536036 
L 37.6935 85.643832 
L 37.39125 85.750876 
L 37.089 85.857143 
L 36.78675 85.962605 
L 36.4845 86.067233 
L 36.18225 86.170998 
L 35.88 86.273871 
L 35.57775 86.37582 
L 35.2755 86.476816 
L 34.97325 86.576826 
L 34.671 86.675818 
L 34.36875 86.773759 
L 34.0665 86.870614 
L 33.76425 86.96635 
L 33.462 87.060931 
L 33.15975 87.15432 
L 32.8575 87.246482 
L 32.55525 87.337377 
L 32.253 87.426969 
L 31.95075 87.515216 
L 31.6485 87.60208 
L 31.34625 87.68752 
L 31.044 87.771493 
L 30.74175 87.853957 
L 30.4395 87.934868 
L 30.13725 88.014183 
L 29.835 88.091855 
L 29.53275 88.167839 
L 29.2305 88.242088 
L 28.92825 88.314553 
L 28.626 88.385185 
L 28.32375 88.453936 
L 28.0215 88.520753 
L 27.71925 88.585585 
L 27.417 88.64838 
L 27.11475 88.709083 
L 26.8125 88.76764 
L 26.51025 88.823995 
L 26.208 88.878091 
L 25.90575 88.92987 
L 25.6035 88.979274 
L 25.30125 89.026242 
L 24.999 89.070714 
L 24.69675 89.112627 
L 24.3945 89.151919 
L 24.09225 89.188524 
L 23.79 89.222379 
L 23.48775 89.253415 
L 23.1855 89.281565 
L 22.88325 89.306761 
L 22.581 89.328933 
L 22.27875 89.348009 
L 21.9765 89.363917 
L 21.67425 89.376584 
L 21.372 89.385934 
L 21.06975 89.391891 
L 20.7675 89.394379 
L 20.46525 89.393318 
L 20.163 89.388628 
L 19.86075 89.380228 
L 19.5585 89.368036 
L 19.25625 89.351967 
L 18.954 89.331936 
L 18.65175 89.307855 
L 18.3495 89.279636 
L 18.04725 89.24719 
L 17.745 89.210424 
L 17.44275 89.169246 
L 17.1405 89.12356 
L 16.83825 89.07327 
L 16.536 89.018278 
L 16.23375 88.958483 
L 15.9315 88.893784 
L 15.62925 88.824077 
L 15.327 88.749255 
L 15.02475 88.669212 
L 14.7225 88.583836 
L 14.42025 88.493017 
L 14.118 88.396638 
L 13.81575 88.294584 
L 13.5135 88.186735 
L 13.21125 88.072969 
L 12.909 87.953162 
L 12.60675 87.827186 
L 12.3045 87.69491 
L 12.00225 87.556203 
L 11.7 87.410926 
z
" clip-path="url(#p464ef60c61)" style="fill: #ff8ef4; fill-opacity: 0.85"/>
   </g>
   <g id="FillBetweenPolyCollection_2">
    <path d="M 11.7 87.410926 
L 11.7 87.410926 
L 12.00225 87.556203 
L 12.3045 87.69491 
L 12.60675 87.827186 
L 12.909 87.953162 
L 13.21125 88.072969 
L 13.5135 88.186735 
L 13.81575 88.294584 
L 14.118 88.396638 
L 14.42025 88.493017 
L 14.7225 88.583836 
L 15.02475 88.669212 
L 15.327 88.749255 
L 15.62925 88.824077 
L 15.9315 88.893784 
L 16.23375 88.958483 
L 16.536 89.018278 
L 16.83825 89.07327 
L 17.1405 89.12356 
L 17.44275 89.169246 
L 17.745 89.210424 
L 18.04725 89.24719 
L 18.3495 89.279636 
L 18.65175 89.307855 
L 18.954 89.331936 
L 19.25625 89.351967 
L 19.5585 89.368036 
L 19.86075 89.380228 
L 20.163 89.388628 
L 20.46525 89.393318 
L 20.7675 89.394379 
L 21.06975 89.391891 
L 21.372 89.385934 
L 21.67425 89.376584 
L 21.9765 89.363917 
L 22.27875 89.348009 
L 22.581 89.328933 
L 22.88325 89.306761 
L 23.1855 89.281565 
L 23.48775 89.253415 
L 23.79 89.222379 
L 24.09225 89.188524 
L 24.3945 89.151919 
L 24.69675 89.112627 
L 24.999 89.070714 
L 25.30125 89.026242 
L 25.6035 88.979274 
L 25.90575 88.92987 
L 26.208 88.878091 
L 26.51025 88.823995 
L 26.8125 88.76764 
L 27.11475 88.709083 
L 27.417 88.64838 
L 27.71925 88.585585 
L 28.0215 88.520753 
L 28.32375 88.453936 
L 28.626 88.385185 
L 28.92825 88.314553 
L 29.2305 88.242088 
L 29.53275 88.167839 
L 29.835 88.091855 
L 30.13725 88.014183 
L 30.4395 87.934868 
L 30.74175 87.853957 
L 31.044 87.771493 
L 31.34625 87.68752 
L 31.6485 87.60208 
L 31.95075 87.515216 
L 32.253 87.426969 
L 32.55525 87.337377 
L 32.8575 87.246482 
L 33.15975 87.15432 
L 33.462 87.060931 
L 33.76425 86.96635 
L 34.0665 86.870614 
L 34.36875 86.773759 
L 34.671 86.675818 
L 34.97325 86.576826 
L 35.2755 86.476816 
L 35.57775 86.37582 
L 35.88 86.273871 
L 36.18225 86.170998 
L 36.4845 86.067233 
L 36.78675 85.962605 
L 37.089 85.857143 
L 37.39125 85.750876 
L 37.6935 85.643832 
L 37.99575 85.536036 
L 38.298 85.427517 
L 38.60025 85.3183 
L 38.9025 85.20841 
L 39.20475 85.097871 
L 39.507 84.98671 
L 39.80925 84.874947 
L 40.1115 84.762608 
L 40.41375 84.649715 
L 40.716 84.536288 
L 41.01825 84.422351 
L 41.3205 84.307924 
L 41.62275 84.193027 
L 41.925 84.077681 
L 42.22725 83.961905 
L 42.5295 83.845718 
L 42.83175 83.729139 
L 43.134 83.612185 
L 43.43625 83.494876 
L 43.7385 83.377228 
L 44.04075 83.259257 
L 44.343 83.140982 
L 44.64525 83.022416 
L 44.9475 82.903578 
L 45.24975 82.78448 
L 45.552 82.665139 
L 45.85425 82.54557 
L 46.1565 82.425786 
L 46.45875 82.305801 
L 46.761 82.185628 
L 47.06325 82.065282 
L 47.3655 81.944775 
L 47.66775 81.824118 
L 47.97 81.703326 
L 48.27225 81.582409 
L 48.5745 81.461379 
L 48.87675 81.340248 
L 49.179 81.219026 
L 49.48125 81.097724 
L 49.7835 80.976353 
L 50.08575 80.854923 
L 50.388 80.733445 
L 50.69025 80.611926 
L 50.9925 80.490378 
L 51.29475 80.368809 
L 51.597 80.247229 
L 51.89925 80.125646 
L 52.2015 80.004068 
L 52.50375 79.882504 
L 52.806 79.760962 
L 53.10825 79.639449 
L 53.4105 79.517975 
L 53.71275 79.396545 
L 54.015 79.275167 
L 54.31725 79.153849 
L 54.6195 79.032597 
L 54.92175 78.911418 
L 55.224 78.790318 
L 55.52625 78.669304 
L 55.8285 78.548381 
L 56.13075 78.427557 
L 56.433 78.306836 
L 56.73525 78.186225 
L 57.0375 78.065729 
L 57.33975 77.945353 
L 57.642 77.825103 
L 57.94425 77.704983 
L 58.2465 77.584999 
L 58.54875 77.465156 
L 58.851 77.345457 
L 59.15325 77.225908 
L 59.4555 77.106514 
L 59.75775 76.987277 
L 60.06 76.868204 
L 60.36225 76.749296 
L 60.6645 76.63056 
L 60.96675 76.511997 
L 61.269 76.393613 
L 61.57125 76.27541 
L 61.8735 76.157392 
L 62.17575 76.039563 
L 62.478 75.921926 
L 62.78025 75.804484 
L 63.0825 75.68724 
L 63.38475 75.570197 
L 63.687 75.453358 
L 63.98925 75.336726 
L 64.2915 75.220303 
L 64.59375 75.104093 
L 64.896 74.988097 
L 65.19825 74.872319 
L 65.5005 74.756761 
L 65.80275 74.641425 
L 66.105 74.526326 
L 66.40725 74.455465 
L 66.7095 74.296814 
L 67.01175 74.182345 
L 67.314 74.06815 
L 67.61625 73.95419 
L 67.9185 73.840468 
L 68.22075 73.726983 
L 68.523 73.613738 
L 68.82525 73.500735 
L 69.1275 73.387974 
L 69.42975 73.275459 
L 69.732 73.163189 
L 70.03425 73.051167 
L 70.3365 72.939394 
L 70.63875 72.827872 
L 70.941 72.7166 
L 71.24325 72.605582 
L 71.5455 72.494817 
L 71.84775 72.384308 
L 72.15 72.274054 
L 72.45225 72.164058 
L 72.7545 72.05432 
L 73.05675 71.944841 
L 73.359 71.835622 
L 73.66125 71.726664 
L 73.9635 71.617968 
L 74.26575 71.509534 
L 74.568 71.401363 
L 74.87025 71.293456 
L 75.1725 71.185814 
L 75.47475 71.078437 
L 75.777 70.971326 
L 76.07925 70.864481 
L 76.3815 70.757903 
L 76.68375 70.651593 
L 76.986 70.54555 
L 77.28825 70.439776 
L 77.5905 70.334271 
L 77.89275 70.229035 
L 78.195 70.124068 
L 78.49725 70.019371 
L 78.7995 69.914944 
L 79.10175 69.810788 
L 79.404 69.706903 
L 79.70625 69.603288 
L 80.0085 69.499944 
L 80.31075 69.396872 
L 80.613 69.294071 
L 80.91525 69.191541 
L 81.2175 69.089283 
L 81.51975 68.987297 
L 81.822 68.885583 
L 82.12425 68.78414 
L 82.4265 68.68297 
L 82.72875 68.582071 
L 83.031 68.481444 
L 83.33325 68.381089 
L 83.6355 68.281005 
L 83.93775 68.181194 
L 84.24 68.081654 
L 84.24 42.127271 
L 84.24 42.127271 
L 83.93775 42.157728 
L 83.6355 42.188233 
L 83.33325 42.218785 
L 83.031 42.249387 
L 82.72875 42.280038 
L 82.4265 42.310738 
L 82.12425 42.341488 
L 81.822 42.372289 
L 81.51975 42.40314 
L 81.2175 42.434044 
L 80.91525 42.464999 
L 80.613 42.496007 
L 80.31075 42.527068 
L 80.0085 42.558183 
L 79.70625 42.589352 
L 79.404 42.620576 
L 79.10175 42.651855 
L 78.7995 42.68319 
L 78.49725 42.714582 
L 78.195 42.746032 
L 77.89275 42.777539 
L 77.5905 42.809105 
L 77.28825 42.84073 
L 76.986 42.872415 
L 76.68375 42.904161 
L 76.3815 42.935968 
L 76.07925 42.967837 
L 75.777 42.999769 
L 75.47475 43.031764 
L 75.1725 43.063824 
L 74.87025 43.09595 
L 74.568 43.128141 
L 74.26575 43.160399 
L 73.9635 43.192724 
L 73.66125 43.225118 
L 73.359 43.257581 
L 73.05675 43.290115 
L 72.7545 43.32272 
L 72.45225 43.355397 
L 72.15 43.388147 
L 71.84775 43.420971 
L 71.5455 43.45387 
L 71.24325 43.486845 
L 70.941 43.519898 
L 70.63875 43.553028 
L 70.3365 43.586238 
L 70.03425 43.619528 
L 69.732 43.652899 
L 69.42975 43.686353 
L 69.1275 43.719891 
L 68.82525 43.753513 
L 68.523 43.787222 
L 68.22075 43.821019 
L 67.9185 43.854904 
L 67.61625 43.888879 
L 67.314 43.922945 
L 67.01175 43.957104 
L 66.7095 43.991357 
L 66.40725 44.02614 
L 66.105 44.060151 
L 65.80275 44.094695 
L 65.5005 44.129338 
L 65.19825 44.164083 
L 64.896 44.198931 
L 64.59375 44.233884 
L 64.2915 44.268943 
L 63.98925 44.30411 
L 63.687 44.339387 
L 63.38475 44.374775 
L 63.0825 44.410276 
L 62.78025 44.445892 
L 62.478 44.481625 
L 62.17575 44.517476 
L 61.8735 44.553449 
L 61.57125 44.589544 
L 61.269 44.625764 
L 60.96675 44.662111 
L 60.6645 44.698586 
L 60.36225 44.735193 
L 60.06 44.771934 
L 59.75775 44.808809 
L 59.4555 44.845823 
L 59.15325 44.882978 
L 58.851 44.920275 
L 58.54875 44.957717 
L 58.2465 44.995307 
L 57.94425 45.033048 
L 57.642 45.070942 
L 57.33975 45.108991 
L 57.0375 45.1472 
L 56.73525 45.18557 
L 56.433 45.224104 
L 56.13075 45.262806 
L 55.8285 45.301678 
L 55.52625 45.340725 
L 55.224 45.379948 
L 54.92175 45.419351 
L 54.6195 45.458938 
L 54.31725 45.498712 
L 54.015 45.538677 
L 53.71275 45.578836 
L 53.4105 45.619194 
L 53.10825 45.659753 
L 52.806 45.700518 
L 52.50375 45.741493 
L 52.2015 45.782682 
L 51.89925 45.824089 
L 51.597 45.865719 
L 51.29475 45.907576 
L 50.9925 45.949665 
L 50.69025 45.99199 
L 50.388 46.034557 
L 50.08575 46.077369 
L 49.7835 46.120433 
L 49.48125 46.163754 
L 49.179 46.207336 
L 48.87675 46.251186 
L 48.5745 46.295309 
L 48.27225 46.339711 
L 47.97 46.384398 
L 47.66775 46.429376 
L 47.3655 46.474652 
L 47.06325 46.520232 
L 46.761 46.566123 
L 46.45875 46.612331 
L 46.1565 46.658865 
L 45.85425 46.70573 
L 45.552 46.752936 
L 45.24975 46.800489 
L 44.9475 46.848397 
L 44.64525 46.89667 
L 44.343 46.945315 
L 44.04075 46.994341 
L 43.7385 47.043757 
L 43.43625 47.093573 
L 43.134 47.143798 
L 42.83175 47.194443 
L 42.5295 47.245517 
L 42.22725 47.297031 
L 41.925 47.348996 
L 41.62275 47.401424 
L 41.3205 47.454326 
L 41.01825 47.507714 
L 40.716 47.561601 
L 40.41375 47.616 
L 40.1115 47.670925 
L 39.80925 47.726388 
L 39.507 47.782405 
L 39.20475 47.83899 
L 38.9025 47.89616 
L 38.60025 47.953929 
L 38.298 48.012314 
L 37.99575 48.071334 
L 37.6935 48.131005 
L 37.39125 48.191346 
L 37.089 48.252376 
L 36.78675 48.314116 
L 36.4845 48.376587 
L 36.18225 48.439809 
L 35.88 48.503805 
L 35.57775 48.5686 
L 35.2755 48.634217 
L 34.97325 48.700682 
L 34.671 48.76802 
L 34.36875 48.836261 
L 34.0665 48.905433 
L 33.76425 48.975565 
L 33.462 49.046689 
L 33.15975 49.118839 
L 32.8575 49.192047 
L 32.55525 49.266351 
L 32.253 49.341789 
L 31.95075 49.418398 
L 31.6485 49.496221 
L 31.34625 49.575301 
L 31.044 49.655683 
L 30.74175 49.737414 
L 30.4395 49.820547 
L 30.13725 49.905131 
L 29.835 49.991224 
L 29.53275 50.078884 
L 29.2305 50.168172 
L 28.92825 50.259154 
L 28.626 50.351897 
L 28.32375 50.446474 
L 28.0215 50.542963 
L 27.71925 50.641443 
L 27.417 50.742002 
L 27.11475 50.84473 
L 26.8125 50.949725 
L 26.51025 51.057089 
L 26.208 51.166932 
L 25.90575 51.279371 
L 25.6035 51.39453 
L 25.30125 51.512543 
L 24.999 51.633553 
L 24.69675 51.757712 
L 24.3945 51.885183 
L 24.09225 52.016143 
L 23.79 52.150781 
L 23.48775 52.289302 
L 23.1855 52.431925 
L 22.88325 52.578889 
L 22.581 52.730454 
L 22.27875 52.886899 
L 21.9765 53.048532 
L 21.67425 53.215685 
L 21.372 53.388724 
L 21.06975 53.568049 
L 20.7675 53.754102 
L 20.46525 53.947367 
L 20.163 54.148383 
L 19.86075 54.357746 
L 19.5585 54.576122 
L 19.25625 54.804255 
L 18.954 55.042981 
L 18.65175 55.293241 
L 18.3495 55.556107 
L 18.04725 55.832795 
L 17.745 56.124703 
L 17.44275 56.433442 
L 17.1405 56.760886 
L 16.83825 57.109227 
L 16.536 57.481053 
L 16.23375 57.879452 
L 15.9315 58.308142 
L 15.62925 58.771664 
L 15.327 59.275631 
L 15.02475 59.827106 
L 14.7225 60.435134 
L 14.42025 61.11157 
L 14.118 61.872371 
L 13.81575 62.73973 
L 13.5135 63.745821 
L 13.21125 64.939842 
L 12.909 66.402648 
L 12.60675 68.281496 
L 12.3045 70.891284 
L 12.00225 75.136585 
L 11.7 87.410926 
z
" clip-path="url(#p464ef60c61)" style="fill: #ffff7c; fill-opacity: 0.85"/>
   </g>
   <g id="FillBetweenPolyCollection_3">
    <path d="M 11.7 87.383389 
L 11.7 87.410926 
L 12.00225 75.136585 
L 12.3045 70.891284 
L 12.60675 68.281496 
L 12.909 66.402648 
L 13.21125 64.939842 
L 13.5135 63.745821 
L 13.81575 62.73973 
L 14.118 61.872371 
L 14.42025 61.11157 
L 14.7225 60.435134 
L 15.02475 59.827106 
L 15.327 59.275631 
L 15.62925 58.771664 
L 15.9315 58.308142 
L 16.23375 57.879452 
L 16.536 57.481053 
L 16.83825 57.109227 
L 17.1405 56.760886 
L 17.44275 56.433442 
L 17.745 56.124703 
L 18.04725 55.832795 
L 18.3495 55.556107 
L 18.65175 55.293241 
L 18.954 55.042981 
L 19.25625 54.804255 
L 19.5585 54.576122 
L 19.86075 54.357746 
L 20.163 54.148383 
L 20.46525 53.947367 
L 20.7675 53.754102 
L 21.06975 53.568049 
L 21.372 53.388724 
L 21.67425 53.215685 
L 21.9765 53.048532 
L 22.27875 52.886899 
L 22.581 52.730454 
L 22.88325 52.578889 
L 23.1855 52.431925 
L 23.48775 52.289302 
L 23.79 52.150781 
L 24.09225 52.016143 
L 24.3945 51.885183 
L 24.69675 51.757712 
L 24.999 51.633553 
L 25.30125 51.512543 
L 25.6035 51.39453 
L 25.90575 51.279371 
L 26.208 51.166932 
L 26.51025 51.057089 
L 26.8125 50.949725 
L 27.11475 50.84473 
L 27.417 50.742002 
L 27.71925 50.641443 
L 28.0215 50.542963 
L 28.32375 50.446474 
L 28.626 50.351897 
L 28.92825 50.259154 
L 29.2305 50.168172 
L 29.53275 50.078884 
L 29.835 49.991224 
L 30.13725 49.905131 
L 30.4395 49.820547 
L 30.74175 49.737414 
L 31.044 49.655683 
L 31.34625 49.575301 
L 31.6485 49.496221 
L 31.95075 49.418398 
L 32.253 49.341789 
L 32.55525 49.266351 
L 32.8575 49.192047 
L 33.15975 49.118839 
L 33.462 49.046689 
L 33.76425 48.975565 
L 34.0665 48.905433 
L 34.36875 48.836261 
L 34.671 48.76802 
L 34.97325 48.700682 
L 35.2755 48.634217 
L 35.57775 48.5686 
L 35.88 48.503805 
L 36.18225 48.439809 
L 36.4845 48.376587 
L 36.78675 48.314116 
L 37.089 48.252376 
L 37.39125 48.191346 
L 37.6935 48.131005 
L 37.99575 48.071334 
L 38.298 48.012314 
L 38.60025 47.953929 
L 38.9025 47.89616 
L 39.20475 47.83899 
L 39.507 47.782405 
L 39.80925 47.726388 
L 40.1115 47.670925 
L 40.41375 47.616 
L 40.716 47.561601 
L 41.01825 47.507714 
L 41.3205 47.454326 
L 41.62275 47.401424 
L 41.925 47.348996 
L 42.22725 47.297031 
L 42.5295 47.245517 
L 42.83175 47.194443 
L 43.134 47.143798 
L 43.43625 47.093573 
L 43.7385 47.043757 
L 44.04075 46.994341 
L 44.343 46.945315 
L 44.64525 46.89667 
L 44.9475 46.848397 
L 45.24975 46.800489 
L 45.552 46.752936 
L 45.85425 46.70573 
L 46.1565 46.658865 
L 46.45875 46.612331 
L 46.761 46.566123 
L 47.06325 46.520232 
L 47.3655 46.474652 
L 47.66775 46.429376 
L 47.97 46.384398 
L 48.27225 46.339711 
L 48.5745 46.295309 
L 48.87675 46.251186 
L 49.179 46.207336 
L 49.48125 46.163754 
L 49.7835 46.120433 
L 50.08575 46.077369 
L 50.388 46.034557 
L 50.69025 45.99199 
L 50.9925 45.949665 
L 51.29475 45.907576 
L 51.597 45.865719 
L 51.89925 45.824089 
L 52.2015 45.782682 
L 52.50375 45.741493 
L 52.806 45.700518 
L 53.10825 45.659753 
L 53.4105 45.619194 
L 53.71275 45.578836 
L 54.015 45.538677 
L 54.31725 45.498712 
L 54.6195 45.458938 
L 54.92175 45.419351 
L 55.224 45.379948 
L 55.52625 45.340725 
L 55.8285 45.301678 
L 56.13075 45.262806 
L 56.433 45.224104 
L 56.73525 45.18557 
L 57.0375 45.1472 
L 57.33975 45.108991 
L 57.642 45.070942 
L 57.94425 45.033048 
L 58.2465 44.995307 
L 58.54875 44.957717 
L 58.851 44.920275 
L 59.15325 44.882978 
L 59.4555 44.845823 
L 59.75775 44.808809 
L 60.06 44.771934 
L 60.36225 44.735193 
L 60.6645 44.698586 
L 60.96675 44.662111 
L 61.269 44.625764 
L 61.57125 44.589544 
L 61.8735 44.553449 
L 62.17575 44.517476 
L 62.478 44.481625 
L 62.78025 44.445892 
L 63.0825 44.410276 
L 63.38475 44.374775 
L 63.687 44.339387 
L 63.98925 44.30411 
L 64.2915 44.268943 
L 64.59375 44.233884 
L 64.896 44.198931 
L 65.19825 44.164083 
L 65.5005 44.129338 
L 65.80275 44.094695 
L 66.105 44.060151 
L 66.40725 44.02614 
L 66.7095 43.991357 
L 67.01175 43.957104 
L 67.314 43.922945 
L 67.61625 43.888879 
L 67.9185 43.854904 
L 68.22075 43.821019 
L 68.523 43.787222 
L 68.82525 43.753513 
L 69.1275 43.719891 
L 69.42975 43.686353 
L 69.732 43.652899 
L 70.03425 43.619528 
L 70.3365 43.586238 
L 70.63875 43.553028 
L 70.941 43.519898 
L 71.24325 43.486845 
L 71.5455 43.45387 
L 71.84775 43.420971 
L 72.15 43.388147 
L 72.45225 43.355397 
L 72.7545 43.32272 
L 73.05675 43.290115 
L 73.359 43.257581 
L 73.66125 43.225118 
L 73.9635 43.192724 
L 74.26575 43.160399 
L 74.568 43.128141 
L 74.87025 43.09595 
L 75.1725 43.063824 
L 75.47475 43.031764 
L 75.777 42.999769 
L 76.07925 42.967837 
L 76.3815 42.935968 
L 76.68375 42.904161 
L 76.986 42.872415 
L 77.28825 42.84073 
L 77.5905 42.809105 
L 77.89275 42.777539 
L 78.195 42.746032 
L 78.49725 42.714582 
L 78.7995 42.68319 
L 79.10175 42.651855 
L 79.404 42.620576 
L 79.70625 42.589352 
L 80.0085 42.558183 
L 80.31075 42.527068 
L 80.613 42.496007 
L 80.91525 42.464999 
L 81.2175 42.434044 
L 81.51975 42.40314 
L 81.822 42.372289 
L 82.12425 42.341488 
L 82.4265 42.310738 
L 82.72875 42.280038 
L 83.031 42.249387 
L 83.33325 42.218785 
L 83.6355 42.188233 
L 83.93775 42.157728 
L 84.24 42.127271 
L 84.24 42.009906 
L 84.24 42.009906 
L 83.93775 42.042149 
L 83.6355 42.07442 
L 83.33325 42.106718 
L 83.031 42.139046 
L 82.72875 42.171402 
L 82.4265 42.203789 
L 82.12425 42.236206 
L 81.822 42.268654 
L 81.51975 42.301133 
L 81.2175 42.333646 
L 80.91525 42.366191 
L 80.613 42.398769 
L 80.31075 42.431382 
L 80.0085 42.46403 
L 79.70625 42.496714 
L 79.404 42.529434 
L 79.10175 42.562191 
L 78.7995 42.594986 
L 78.49725 42.62782 
L 78.195 42.660693 
L 77.89275 42.693606 
L 77.5905 42.72656 
L 77.28825 42.759556 
L 76.986 42.792594 
L 76.68375 42.825676 
L 76.3815 42.858802 
L 76.07925 42.891973 
L 75.777 42.925189 
L 75.47475 42.958453 
L 75.1725 42.991765 
L 74.87025 43.025125 
L 74.568 43.058534 
L 74.26575 43.091995 
L 73.9635 43.125506 
L 73.66125 43.159071 
L 73.359 43.192688 
L 73.05675 43.226361 
L 72.7545 43.260089 
L 72.45225 43.293874 
L 72.15 43.327716 
L 71.84775 43.361617 
L 71.5455 43.395579 
L 71.24325 43.429601 
L 70.941 43.463686 
L 70.63875 43.497834 
L 70.3365 43.532047 
L 70.03425 43.566326 
L 69.732 43.600672 
L 69.42975 43.635087 
L 69.1275 43.669571 
L 68.82525 43.704127 
L 68.523 43.738754 
L 68.22075 43.773456 
L 67.9185 43.808233 
L 67.61625 43.843087 
L 67.314 43.878019 
L 67.01175 43.91303 
L 66.7095 43.948123 
L 66.40725 43.98373 
L 66.105 44.018558 
L 65.80275 44.053903 
L 65.5005 44.089336 
L 65.19825 44.124858 
L 64.896 44.160471 
L 64.59375 44.196176 
L 64.2915 44.231976 
L 63.98925 44.267872 
L 63.687 44.303866 
L 63.38475 44.33996 
L 63.0825 44.376156 
L 62.78025 44.412455 
L 62.478 44.44886 
L 62.17575 44.485373 
L 61.8735 44.521996 
L 61.57125 44.558731 
L 61.269 44.59558 
L 60.96675 44.632545 
L 60.6645 44.669629 
L 60.36225 44.706834 
L 60.06 44.744162 
L 59.75775 44.781615 
L 59.4555 44.819197 
L 59.15325 44.85691 
L 58.851 44.894755 
L 58.54875 44.932736 
L 58.2465 44.970856 
L 57.94425 45.009117 
L 57.642 45.047522 
L 57.33975 45.086074 
L 57.0375 45.124775 
L 56.73525 45.16363 
L 56.433 45.20264 
L 56.13075 45.241808 
L 55.8285 45.281139 
L 55.52625 45.320636 
L 55.224 45.360301 
L 54.92175 45.400138 
L 54.6195 45.440151 
L 54.31725 45.480343 
L 54.015 45.520718 
L 53.71275 45.561279 
L 53.4105 45.602031 
L 53.10825 45.642978 
L 52.806 45.684123 
L 52.50375 45.72547 
L 52.2015 45.767025 
L 51.89925 45.808791 
L 51.597 45.850772 
L 51.29475 45.892974 
L 50.9925 45.9354 
L 50.69025 45.978056 
L 50.388 46.020947 
L 50.08575 46.064078 
L 49.7835 46.107454 
L 49.48125 46.15108 
L 49.179 46.194961 
L 48.87675 46.239105 
L 48.5745 46.283515 
L 48.27225 46.328198 
L 47.97 46.373161 
L 47.66775 46.418409 
L 47.3655 46.463949 
L 47.06325 46.509788 
L 46.761 46.555932 
L 46.45875 46.602388 
L 46.1565 46.649165 
L 45.85425 46.696268 
L 45.552 46.743706 
L 45.24975 46.791486 
L 44.9475 46.839617 
L 44.64525 46.888107 
L 44.343 46.936965 
L 44.04075 46.9862 
L 43.7385 47.03582 
L 43.43625 47.085835 
L 43.134 47.136255 
L 42.83175 47.18709 
L 42.5295 47.23835 
L 42.22725 47.290046 
L 41.925 47.342189 
L 41.62275 47.394791 
L 41.3205 47.447863 
L 41.01825 47.501417 
L 40.716 47.555466 
L 40.41375 47.610024 
L 40.1115 47.665103 
L 39.80925 47.720717 
L 39.507 47.776881 
L 39.20475 47.833611 
L 38.9025 47.89092 
L 38.60025 47.948827 
L 38.298 48.007346 
L 37.99575 48.066496 
L 37.6935 48.126295 
L 37.39125 48.18676 
L 37.089 48.247912 
L 36.78675 48.309771 
L 36.4845 48.372356 
L 36.18225 48.435691 
L 35.88 48.499798 
L 35.57775 48.564699 
L 35.2755 48.63042 
L 34.97325 48.696986 
L 34.671 48.764424 
L 34.36875 48.832762 
L 34.0665 48.902027 
L 33.76425 48.972251 
L 33.462 49.043464 
L 33.15975 49.115701 
L 32.8575 49.188994 
L 32.55525 49.26338 
L 32.253 49.338897 
L 31.95075 49.415585 
L 31.6485 49.493483 
L 31.34625 49.572637 
L 31.044 49.653091 
L 30.74175 49.734893 
L 30.4395 49.818092 
L 30.13725 49.902743 
L 29.835 49.9889 
L 29.53275 50.076622 
L 29.2305 50.165971 
L 28.92825 50.257011 
L 28.626 50.349811 
L 28.32375 50.444444 
L 28.0215 50.540986 
L 27.71925 50.639519 
L 27.417 50.740128 
L 27.11475 50.842905 
L 26.8125 50.947947 
L 26.51025 51.055357 
L 26.208 51.165245 
L 25.90575 51.277727 
L 25.6035 51.392928 
L 25.30125 51.510982 
L 24.999 51.63203 
L 24.69675 51.756226 
L 24.3945 51.883734 
L 24.09225 52.014729 
L 23.79 52.149401 
L 23.48775 52.287954 
L 23.1855 52.430608 
L 22.88325 52.577603 
L 22.581 52.729196 
L 22.27875 52.885669 
L 21.9765 53.047328 
L 21.67425 53.214506 
L 21.372 53.387569 
L 21.06975 53.566917 
L 20.7675 53.75299 
L 20.46525 53.946276 
L 20.163 54.147311 
L 19.86075 54.356691 
L 19.5585 54.575084 
L 19.25625 54.803231 
L 18.954 55.04197 
L 18.65175 55.292242 
L 18.3495 55.555118 
L 18.04725 55.831814 
L 17.745 56.123728 
L 17.44275 56.432472 
L 17.1405 56.759919 
L 16.83825 57.108259 
L 16.536 57.480081 
L 16.23375 57.878473 
L 15.9315 58.307152 
L 15.62925 58.770658 
L 15.327 59.274605 
L 15.02475 59.82605 
L 14.7225 60.434041 
L 14.42025 61.110428 
L 14.118 61.871164 
L 13.81575 62.738435 
L 13.5135 63.744405 
L 13.21125 64.938254 
L 12.909 66.4008 
L 12.60675 68.279218 
L 12.3045 70.888178 
L 12.00225 75.131276 
L 11.7 87.383389 
z
" clip-path="url(#p464ef60c61)" style="fill: #7cffff; fill-opacity: 0.85"/>
   </g>
   <g id="FillBetweenPolyCollection_4">
    <path d="M 11.7 12.96 
L 11.7 87.383389 
L 12.00225 75.131276 
L 12.3045 70.888178 
L 12.60675 68.279218 
L 12.909 66.4008 
L 13.21125 64.938254 
L 13.5135 63.744405 
L 13.81575 62.738435 
L 14.118 61.871164 
L 14.42025 61.110428 
L 14.7225 60.434041 
L 15.02475 59.82605 
L 15.327 59.274605 
L 15.62925 58.770658 
L 15.9315 58.307152 
L 16.23375 57.878473 
L 16.536 57.480081 
L 16.83825 57.108259 
L 17.1405 56.759919 
L 17.44275 56.432472 
L 17.745 56.123728 
L 18.04725 55.831814 
L 18.3495 55.555118 
L 18.65175 55.292242 
L 18.954 55.04197 
L 19.25625 54.803231 
L 19.5585 54.575084 
L 19.86075 54.356691 
L 20.163 54.147311 
L 20.46525 53.946276 
L 20.7675 53.75299 
L 21.06975 53.566917 
L 21.372 53.387569 
L 21.67425 53.214506 
L 21.9765 53.047328 
L 22.27875 52.885669 
L 22.581 52.729196 
L 22.88325 52.577603 
L 23.1855 52.430608 
L 23.48775 52.287954 
L 23.79 52.149401 
L 24.09225 52.014729 
L 24.3945 51.883734 
L 24.69675 51.756226 
L 24.999 51.63203 
L 25.30125 51.510982 
L 25.6035 51.392928 
L 25.90575 51.277727 
L 26.208 51.165245 
L 26.51025 51.055357 
L 26.8125 50.947947 
L 27.11475 50.842905 
L 27.417 50.740128 
L 27.71925 50.639519 
L 28.0215 50.540986 
L 28.32375 50.444444 
L 28.626 50.349811 
L 28.92825 50.257011 
L 29.2305 50.165971 
L 29.53275 50.076622 
L 29.835 49.9889 
L 30.13725 49.902743 
L 30.4395 49.818092 
L 30.74175 49.734893 
L 31.044 49.653091 
L 31.34625 49.572637 
L 31.6485 49.493483 
L 31.95075 49.415585 
L 32.253 49.338897 
L 32.55525 49.26338 
L 32.8575 49.188994 
L 33.15975 49.115701 
L 33.462 49.043464 
L 33.76425 48.972251 
L 34.0665 48.902027 
L 34.36875 48.832762 
L 34.671 48.764424 
L 34.97325 48.696986 
L 35.2755 48.63042 
L 35.57775 48.564699 
L 35.88 48.499798 
L 36.18225 48.435691 
L 36.4845 48.372356 
L 36.78675 48.309771 
L 37.089 48.247912 
L 37.39125 48.18676 
L 37.6935 48.126295 
L 37.99575 48.066496 
L 38.298 48.007346 
L 38.60025 47.948827 
L 38.9025 47.89092 
L 39.20475 47.833611 
L 39.507 47.776881 
L 39.80925 47.720717 
L 40.1115 47.665103 
L 40.41375 47.610024 
L 40.716 47.555466 
L 41.01825 47.501417 
L 41.3205 47.447863 
L 41.62275 47.394791 
L 41.925 47.342189 
L 42.22725 47.290046 
L 42.5295 47.23835 
L 42.83175 47.18709 
L 43.134 47.136255 
L 43.43625 47.085835 
L 43.7385 47.03582 
L 44.04075 46.9862 
L 44.343 46.936965 
L 44.64525 46.888107 
L 44.9475 46.839617 
L 45.24975 46.791486 
L 45.552 46.743706 
L 45.85425 46.696268 
L 46.1565 46.649165 
L 46.45875 46.602388 
L 46.761 46.555932 
L 47.06325 46.509788 
L 47.3655 46.463949 
L 47.66775 46.418409 
L 47.97 46.373161 
L 48.27225 46.328198 
L 48.5745 46.283515 
L 48.87675 46.239105 
L 49.179 46.194961 
L 49.48125 46.15108 
L 49.7835 46.107454 
L 50.08575 46.064078 
L 50.388 46.020947 
L 50.69025 45.978056 
L 50.9925 45.9354 
L 51.29475 45.892974 
L 51.597 45.850772 
L 51.89925 45.808791 
L 52.2015 45.767025 
L 52.50375 45.72547 
L 52.806 45.684123 
L 53.10825 45.642978 
L 53.4105 45.602031 
L 53.71275 45.561279 
L 54.015 45.520718 
L 54.31725 45.480343 
L 54.6195 45.440151 
L 54.92175 45.400138 
L 55.224 45.360301 
L 55.52625 45.320636 
L 55.8285 45.281139 
L 56.13075 45.241808 
L 56.433 45.20264 
L 56.73525 45.16363 
L 57.0375 45.124775 
L 57.33975 45.086074 
L 57.642 45.047522 
L 57.94425 45.009117 
L 58.2465 44.970856 
L 58.54875 44.932736 
L 58.851 44.894755 
L 59.15325 44.85691 
L 59.4555 44.819197 
L 59.75775 44.781615 
L 60.06 44.744162 
L 60.36225 44.706834 
L 60.6645 44.669629 
L 60.96675 44.632545 
L 61.269 44.59558 
L 61.57125 44.558731 
L 61.8735 44.521996 
L 62.17575 44.485373 
L 62.478 44.44886 
L 62.78025 44.412455 
L 63.0825 44.376156 
L 63.38475 44.33996 
L 63.687 44.303866 
L 63.98925 44.267872 
L 64.2915 44.231976 
L 64.59375 44.196176 
L 64.896 44.160471 
L 65.19825 44.124858 
L 65.5005 44.089336 
L 65.80275 44.053903 
L 66.105 44.018558 
L 66.40725 43.98373 
L 66.7095 43.948123 
L 67.01175 43.91303 
L 67.314 43.878019 
L 67.61625 43.843087 
L 67.9185 43.808233 
L 68.22075 43.773456 
L 68.523 43.738754 
L 68.82525 43.704127 
L 69.1275 43.669571 
L 69.42975 43.635087 
L 69.732 43.600672 
L 70.03425 43.566326 
L 70.3365 43.532047 
L 70.63875 43.497834 
L 70.941 43.463686 
L 71.24325 43.429601 
L 71.5455 43.395579 
L 71.84775 43.361617 
L 72.15 43.327716 
L 72.45225 43.293874 
L 72.7545 43.260089 
L 73.05675 43.226361 
L 73.359 43.192688 
L 73.66125 43.159071 
L 73.9635 43.125506 
L 74.26575 43.091995 
L 74.568 43.058534 
L 74.87025 43.025125 
L 75.1725 42.991765 
L 75.47475 42.958453 
L 75.777 42.925189 
L 76.07925 42.891973 
L 76.3815 42.858802 
L 76.68375 42.825676 
L 76.986 42.792594 
L 77.28825 42.759556 
L 77.5905 42.72656 
L 77.89275 42.693606 
L 78.195 42.660693 
L 78.49725 42.62782 
L 78.7995 42.594986 
L 79.10175 42.562191 
L 79.404 42.529434 
L 79.70625 42.496714 
L 80.0085 42.46403 
L 80.31075 42.431382 
L 80.613 42.398769 
L 80.91525 42.366191 
L 81.2175 42.333646 
L 81.51975 42.301133 
L 81.822 42.268654 
L 82.12425 42.236206 
L 82.4265 42.203789 
L 82.72875 42.171402 
L 83.031 42.139046 
L 83.33325 42.106718 
L 83.6355 42.07442 
L 83.93775 42.042149 
L 84.24 42.009906 
L 84.24 12.96 
L 84.24 12.96 
L 83.93775 12.96 
L 83.6355 12.96 
L 83.33325 12.96 
L 83.031 12.96 
L 82.72875 12.96 
L 82.4265 12.96 
L 82.12425 12.96 
L 81.822 12.96 
L 81.51975 12.96 
L 81.2175 12.96 
L 80.91525 12.96 
L 80.613 12.96 
L 80.31075 12.96 
L 80.0085 12.96 
L 79.70625 12.96 
L 79.404 12.96 
L 79.10175 12.96 
L 78.7995 12.96 
L 78.49725 12.96 
L 78.195 12.96 
L 77.89275 12.96 
L 77.5905 12.96 
L 77.28825 12.96 
L 76.986 12.96 
L 76.68375 12.96 
L 76.3815 12.96 
L 76.07925 12.96 
L 75.777 12.96 
L 75.47475 12.96 
L 75.1725 12.96 
L 74.87025 12.96 
L 74.568 12.96 
L 74.26575 12.96 
L 73.9635 12.96 
L 73.66125 12.96 
L 73.359 12.96 
L 73.05675 12.96 
L 72.7545 12.96 
L 72.45225 12.96 
L 72.15 12.96 
L 71.84775 12.96 
L 71.5455 12.96 
L 71.24325 12.96 
L 70.941 12.96 
L 70.63875 12.96 
L 70.3365 12.96 
L 70.03425 12.96 
L 69.732 12.96 
L 69.42975 12.96 
L 69.1275 12.96 
L 68.82525 12.96 
L 68.523 12.96 
L 68.22075 12.96 
L 67.9185 12.96 
L 67.61625 12.96 
L 67.314 12.96 
L 67.01175 12.96 
L 66.7095 12.96 
L 66.40725 12.96 
L 66.105 12.96 
L 65.80275 12.96 
L 65.5005 12.96 
L 65.19825 12.96 
L 64.896 12.96 
L 64.59375 12.96 
L 64.2915 12.96 
L 63.98925 12.96 
L 63.687 12.96 
L 63.38475 12.96 
L 63.0825 12.96 
L 62.78025 12.96 
L 62.478 12.96 
L 62.17575 12.96 
L 61.8735 12.96 
L 61.57125 12.96 
L 61.269 12.96 
L 60.96675 12.96 
L 60.6645 12.96 
L 60.36225 12.96 
L 60.06 12.96 
L 59.75775 12.96 
L 59.4555 12.96 
L 59.15325 12.96 
L 58.851 12.96 
L 58.54875 12.96 
L 58.2465 12.96 
L 57.94425 12.96 
L 57.642 12.96 
L 57.33975 12.96 
L 57.0375 12.96 
L 56.73525 12.96 
L 56.433 12.96 
L 56.13075 12.96 
L 55.8285 12.96 
L 55.52625 12.96 
L 55.224 12.96 
L 54.92175 12.96 
L 54.6195 12.96 
L 54.31725 12.96 
L 54.015 12.96 
L 53.71275 12.96 
L 53.4105 12.96 
L 53.10825 12.96 
L 52.806 12.96 
L 52.50375 12.96 
L 52.2015 12.96 
L 51.89925 12.96 
L 51.597 12.96 
L 51.29475 12.96 
L 50.9925 12.96 
L 50.69025 12.96 
L 50.388 12.96 
L 50.08575 12.96 
L 49.7835 12.96 
L 49.48125 12.96 
L 49.179 12.96 
L 48.87675 12.96 
L 48.5745 12.96 
L 48.27225 12.96 
L 47.97 12.96 
L 47.66775 12.96 
L 47.3655 12.96 
L 47.06325 12.96 
L 46.761 12.96 
L 46.45875 12.96 
L 46.1565 12.96 
L 45.85425 12.96 
L 45.552 12.96 
L 45.24975 12.96 
L 44.9475 12.96 
L 44.64525 12.96 
L 44.343 12.96 
L 44.04075 12.96 
L 43.7385 12.96 
L 43.43625 12.96 
L 43.134 12.96 
L 42.83175 12.96 
L 42.5295 12.96 
L 42.22725 12.96 
L 41.925 12.96 
L 41.62275 12.96 
L 41.3205 12.96 
L 41.01825 12.96 
L 40.716 12.96 
L 40.41375 12.96 
L 40.1115 12.96 
L 39.80925 12.96 
L 39.507 12.96 
L 39.20475 12.96 
L 38.9025 12.96 
L 38.60025 12.96 
L 38.298 12.96 
L 37.99575 12.96 
L 37.6935 12.96 
L 37.39125 12.96 
L 37.089 12.96 
L 36.78675 12.96 
L 36.4845 12.96 
L 36.18225 12.96 
L 35.88 12.96 
L 35.57775 12.96 
L 35.2755 12.96 
L 34.97325 12.96 
L 34.671 12.96 
L 34.36875 12.96 
L 34.0665 12.96 
L 33.76425 12.96 
L 33.462 12.96 
L 33.15975 12.96 
L 32.8575 12.96 
L 32.55525 12.96 
L 32.253 12.96 
L 31.95075 12.96 
L 31.6485 12.96 
L 31.34625 12.96 
L 31.044 12.96 
L 30.74175 12.96 
L 30.4395 12.96 
L 30.13725 12.96 
L 29.835 12.96 
L 29.53275 12.96 
L 29.2305 12.96 
L 28.92825 12.96 
L 28.626 12.96 
L 28.32375 12.96 
L 28.0215 12.96 
L 27.71925 12.96 
L 27.417 12.96 
L 27.11475 12.96 
L 26.8125 12.96 
L 26.51025 12.96 
L 26.208 12.96 
L 25.90575 12.96 
L 25.6035 12.96 
L 25.30125 12.96 
L 24.999 12.96 
L 24.69675 12.96 
L 24.3945 12.96 
L 24.09225 12.96 
L 23.79 12.96 
L 23.48775 12.96 
L 23.1855 12.96 
L 22.88325 12.96 
L 22.581 12.96 
L 22.27875 12.96 
L 21.9765 12.96 
L 21.67425 12.96 
L 21.372 12.96 
L 21.06975 12.96 
L 20.7675 12.96 
L 20.46525 12.96 
L 20.163 12.96 
L 19.86075 12.96 
L 19.5585 12.96 
L 19.25625 12.96 
L 18.954 12.96 
L 18.65175 12.96 
L 18.3495 12.96 
L 18.04725 12.96 
L 17.745 12.96 
L 17.44275 12.96 
L 17.1405 12.96 
L 16.83825 12.96 
L 16.536 12.96 
L 16.23375 12.96 
L 15.9315 12.96 
L 15.62925 12.96 
L 15.327 12.96 
L 15.02475 12.96 
L 14.7225 12.96 
L 14.42025 12.96 
L 14.118 12.96 
L 13.81575 12.96 
L 13.5135 12.96 
L 13.21125 12.96 
L 12.909 12.96 
L 12.60675 12.96 
L 12.3045 12.96 
L 12.00225 12.96 
L 11.7 12.96 
z
" clip-path="url(#p464ef60c61)" style="fill: #ffa09f; fill-opacity: 0.85"/>
   </g>
   <g id="matplotlib.axis_1">
    <g id="xtick_1">
     <g id="line2d_1">
      <defs>
       <path id="mf8268b152c" d="M 0 0 
L 0 3.5 
" style="stroke: #000000; stroke-width: 0.8"/>
      </defs>
      <g>
       <use xlink:href="#mf8268b152c" x="11.7" y="96.12" style="stroke: #000000; stroke-width: 0.8"/>
      </g>
     </g>
     <g id="text_1">
      <text style="font-size: 6px; font-family: 'DejaVu Sans', 'Arial', 'Helvetica', 'Lucida Grande', 'Verdana', 'Geneva', 'Lucid', 'Avant Garde', sans-serif; text-anchor: middle" x="11.7" y="107.679063" transform="rotate(-0 11.7 107.679063)">0</text>
     </g>
    </g>
    <g id="xtick_2">
     <g id="line2d_2">
      <g>
       <use xlink:href="#mf8268b152c" x="30.590625" y="96.12" style="stroke: #000000; stroke-width: 0.8"/>
      </g>
     </g>
     <g id="text_2">
      <text style="font-size: 6px; font-family: 'DejaVu Sans', 'Arial', 'Helvetica', 'Lucida Grande', 'Verdana', 'Geneva', 'Lucid', 'Avant Garde', sans-serif; text-anchor: middle" x="30.590625" y="107.679063" transform="rotate(-0 30.590625 107.679063)">25</text>
     </g>
    </g>
    <g id="xtick_3">
     <g id="line2d_3">
      <g>
       <use xlink:href="#mf8268b152c" x="49.48125" y="96.12" style="stroke: #000000; stroke-width: 0.8"/>
      </g>
     </g>
     <g id="text_3">
      <text style="font-size: 6px; font-family: 'DejaVu Sans', 'Arial', 'Helvetica', 'Lucida Grande', 'Verdana', 'Geneva', 'Lucid', 'Avant Garde', sans-serif; text-anchor: middle" x="49.48125" y="107.679063" transform="rotate(-0 49.48125 107.679063)">50</text>
     </g>
    </g>
    <g id="xtick_4">
     <g id="line2d_4">
      <g>
       <use xlink:href="#mf8268b152c" x="68.371875" y="96.12" style="stroke: #000000; stroke-width: 0.8"/>
      </g>
     </g>
     <g id="text_4">
      <text style="font-size: 6px; font-family: 'DejaVu Sans', 'Arial', 'Helvetica', 'Lucida Grande', 'Verdana', 'Geneva', 'Lucid', 'Avant Garde', sans-serif; text-anchor: middle" x="68.371875" y="107.679063" transform="rotate(-0 68.371875 107.679063)">75</text>
     </g>
    </g>
    <g id="text_5">
     <text style="font-size: 6px; font-family: 'DejaVu Sans', 'Arial', 'Helvetica', 'Lucida Grande', 'Verdana', 'Geneva', 'Lucid', 'Avant Garde', sans-serif; text-anchor: middle" x="47.97" y="117.485938" transform="rotate(-0 47.97 117.485938)">Dormancy depth a (h)</text>
    </g>
   </g>
   <g id="matplotlib.axis_2">
    <g id="ytick_1">
     <g id="line2d_5">
      <defs>
       <path id="m57623edd03" d="M 0 0 
L -3.5 0 
" style="stroke: #000000; stroke-width: 0.8"/>
      </defs>
      <g>
       <use xlink:href="#m57623edd03" x="11.7" y="96.12" style="stroke: #000000; stroke-width: 0.8"/>
      </g>
     </g>
     <g id="text_6">
      <!-- $\mathdefault{10^{-5}}$ -->
      <g transform="translate(-9.4 98.399531)">
       <text>
        <tspan x="0" y="-0.640625" style="font-size: 6px; font-family: 'DejaVu Sans'">1</tspan>
        <tspan x="3.817383" y="-0.640625" style="font-size: 6px; font-family: 'DejaVu Sans'">0</tspan>
        <tspan x="7.692188" y="-2.9375" style="font-size: 4.2px; font-family: 'DejaVu Sans'">−</tspan>
        <tspan x="11.211328" y="-2.9375" style="font-size: 4.2px; font-family: 'DejaVu Sans'">5</tspan>
       </text>
      </g>
     </g>
    </g>
    <g id="ytick_2">
     <g id="line2d_6">
      <g>
       <use xlink:href="#m57623edd03" x="11.7" y="79.488" style="stroke: #000000; stroke-width: 0.8"/>
      </g>
     </g>
     <g id="text_7">
      <!-- $\mathdefault{10^{-4}}$ -->
      <g transform="translate(-9.4 81.767531)">
       <text>
        <tspan x="0" y="-0.640625" style="font-size: 6px; font-family: 'DejaVu Sans'">1</tspan>
        <tspan x="3.817383" y="-0.640625" style="font-size: 6px; font-family: 'DejaVu Sans'">0</tspan>
        <tspan x="7.692188" y="-2.9375" style="font-size: 4.2px; font-family: 'DejaVu Sans'">−</tspan>
        <tspan x="11.211328" y="-2.9375" style="font-size: 4.2px; font-family: 'DejaVu Sans'">4</tspan>
       </text>
      </g>
     </g>
    </g>
    <g id="ytick_3">
     <g id="line2d_7">
      <g>
       <use xlink:href="#m57623edd03" x="11.7" y="62.856" style="stroke: #000000; stroke-width: 0.8"/>
      </g>
     </g>
     <g id="text_8">
      <!-- $\mathdefault{10^{-3}}$ -->
      <g transform="translate(-9.4 65.135531)">
       <text>
        <tspan x="0" y="-0.585938" style="font-size: 6px; font-family: 'DejaVu Sans'">1</tspan>
        <tspan x="3.817383" y="-0.585938" style="font-size: 6px; font-family: 'DejaVu Sans'">0</tspan>
        <tspan x="7.692188" y="-2.882812" style="font-size: 4.2px; font-family: 'DejaVu Sans'">−</tspan>
        <tspan x="11.211328" y="-2.882812" style="font-size: 4.2px; font-family: 'DejaVu Sans'">3</tspan>
       </text>
      </g>
     </g>
    </g>
    <g id="ytick_4">
     <g id="line2d_8">
      <g>
       <use xlink:href="#m57623edd03" x="11.7" y="46.224" style="stroke: #000000; stroke-width: 0.8"/>
      </g>
     </g>
     <g id="text_9">
      <!-- $\mathdefault{10^{-2}}$ -->
      <g transform="translate(-9.4 48.503531)">
       <text>
        <tspan x="0" y="-0.585938" style="font-size: 6px; font-family: 'DejaVu Sans'">1</tspan>
        <tspan x="3.817383" y="-0.585938" style="font-size: 6px; font-family: 'DejaVu Sans'">0</tspan>
        <tspan x="7.692188" y="-2.882812" style="font-size: 4.2px; font-family: 'DejaVu Sans'">−</tspan>
        <tspan x="11.211328" y="-2.882812" style="font-size: 4.2px; font-family: 'DejaVu Sans'">2</tspan>
       </text>
      </g>
     </g>
    </g>
    <g id="ytick_5">
     <g id="line2d_9">
      <g>
       <use xlink:href="#m57623edd03" x="11.7" y="29.592" style="stroke: #000000; stroke-width: 0.8"/>
      </g>
     </g>
     <g id="text_10">
      <!-- $\mathdefault{10^{-1}}$ -->
      <g transform="translate(-9.4 31.871531)">
       <text>
        <tspan x="0" y="-0.640625" style="font-size: 6px; font-family: 'DejaVu Sans'">1</tspan>
        <tspan x="3.817383" y="-0.640625" style="font-size: 6px; font-family: 'DejaVu Sans'">0</tspan>
        <tspan x="7.692188" y="-2.9375" style="font-size: 4.2px; font-family: 'DejaVu Sans'">−</tspan>
        <tspan x="11.211328" y="-2.9375" style="font-size: 4.2px; font-family: 'DejaVu Sans'">1</tspan>
       </text>
      </g>
     </g>
    </g>
    <g id="ytick_6">
     <g id="line2d_10">
      <g>
       <use xlink:href="#m57623edd03" x="11.7" y="12.96" style="stroke: #000000; stroke-width: 0.8"/>
      </g>
     </g>
     <g id="text_11">
      <!-- $\mathdefault{10^{0}}$ -->
      <g transform="translate(-5.86 15.239531)">
       <text>
        <tspan x="0" y="-0.585938" style="font-size: 6px; font-family: 'DejaVu Sans'">1</tspan>
        <tspan x="3.817383" y="-0.585938" style="font-size: 6px; font-family: 'DejaVu Sans'">0</tspan>
        <tspan x="7.692188" y="-2.882812" style="font-size: 4.2px; font-family: 'DejaVu Sans'">0</tspan>
       </text>
      </g>
     </g>
    </g>
    <g id="ytick_7"/>
    <g id="ytick_8"/>
    <g id="ytick_9"/>
    <g id="ytick_10"/>
    <g id="ytick_11"/>
    <g id="ytick_12"/>
    <g id="ytick_13"/>
    <g id="ytick_14"/>
    <g id="ytick_15"/>
    <g id="ytick_16"/>
    <g id="ytick_17"/>
    <g id="ytick_18"/>
    <g id="ytick_19"/>
    <g id="ytick_20"/>
    <g id="ytick_21"/>
    <g id="ytick_22"/>
    <g id="ytick_23"/>
    <g id="ytick_24"/>
    <g id="ytick_25"/>
    <g id="ytick_26"/>
    <g id="ytick_27"/>
    <g id="ytick_28"/>
    <g id="ytick_29"/>
    <g id="ytick_30"/>
    <g id="ytick_31"/>
    <g id="ytick_32"/>
    <g id="ytick_33"/>
    <g id="ytick_34"/>
    <g id="ytick_35"/>
    <g id="ytick_36"/>
    <g id="ytick_37"/>
    <g id="ytick_38"/>
    <g id="ytick_39"/>
    <g id="ytick_40"/>
    <g id="ytick_41"/>
    <g id="ytick_42"/>
    <g id="ytick_43"/>
    <g id="ytick_44"/>
    <g id="ytick_45"/>
    <g id="ytick_46"/>
    <g id="text_12">
     <text style="font-size: 6px; font-family: 'DejaVu Sans', 'Arial', 'Helvetica', 'Lucida Grande', 'Verdana', 'Geneva', 'Lucid', 'Avant Garde', sans-serif; text-anchor: middle" x="-14.647812" y="54.54" transform="rotate(-90 -14.647812 54.54)">Frac of population at Ab removal</text>
    </g>
   </g>
   <g id="patch_3">
    <path d="M 11.7 96.12 
L 11.7 12.96 
" style="fill: none; stroke: #000000; stroke-width: 0.5; stroke-linejoin: miter; stroke-linecap: square"/>
   </g>
   <g id="patch_4">
    <path d="M 11.7 96.12 
L 84.24 96.12 
" style="fill: none; stroke: #000000; stroke-width: 0.5; stroke-linejoin: miter; stroke-linecap: square"/>
   </g>
  </g>
 </g>
 <defs>
  <clipPath id="p464ef60c61">
   <rect x="11.7" y="12.96" width="72.54" height="83.16"/>
  </clipPath>
 </defs>
</svg>
