<?xml version="1.0" encoding="utf-8" standalone="no"?>
<!DOCTYPE svg PUBLIC "-//W3C//DTD SVG 1.1//EN"
  "http://www.w3.org/Graphics/SVG/1.1/DTD/svg11.dtd">
<svg xmlns:xlink="http://www.w3.org/1999/xlink" width="93.6pt" height="108pt" viewBox="0 0 93.6 108" xmlns="http://www.w3.org/2000/svg" version="1.1">
 <metadata>
  <rdf:RDF xmlns:dc="http://purl.org/dc/elements/1.1/" xmlns:cc="http://creativecommons.org/ns#" xmlns:rdf="http://www.w3.org/1999/02/22-rdf-syntax-ns#">
   <cc:Work>
    <dc:type rdf:resource="http://purl.org/dc/dcmitype/StillImage"/>
    <dc:date>2026-02-16T18:34:10.237246</dc:date>
    <dc:format>image/svg+xml</dc:format>
    <dc:creator>
     <cc:Agent>
      <dc:title>Matplotlib v3.10.8, https://matplotlib.org/</dc:title>
     </cc:Agent>
    </dc:creator>
   </cc:Work>
  </rdf:RDF>
 </metadata>
 <defs>
  <style type="text/css">*{stroke-linejoin: round; stroke-linecap: butt}</style>
 </defs>
 <g id="figure_1">
  <g id="patch_1">
   <path d="M 0 108 
L 93.6 108 
L 93.6 0 
L 0 0 
L 0 108 
z
" style="fill: none"/>
  </g>
  <g id="axes_1">
   <g id="patch_2">
    <path d="M 11.7 96.12 
L 84.24 96.12 
L 84.24 12.96 
L 11.7 12.96 
L 11.7 96.12 
z
" style="fill: none"/>
   </g>
   <g id="FillBetweenPolyCollection_1">
    <path d="M 11.7 13.6699 
L 11.7 16644.96 
L 12.00225 16644.96 
L 12.3045 16644.96 
L 12.60675 16644.96 
L 12.909 16644.96 
L 13.21125 16644.96 
L 13.5135 16644.96 
L 13.81575 16644.96 
L 14.118 16644.96 
L 14.42025 16644.96 
L 14.7225 16644.96 
L 15.02475 16644.96 
L 15.327 16644.96 
L 15.62925 16644.96 
L 15.9315 16644.96 
L 16.23375 16644.96 
L 16.536 16644.96 
L 16.83825 16644.96 
L 17.1405 16644.96 
L 17.44275 16644.96 
L 17.745 16644.96 
L 18.04725 16644.96 
L 18.3495 16644.96 
L 18.65175 16644.96 
L 18.954 16644.96 
L 19.25625 16644.96 
L 19.5585 16644.96 
L 19.86075 16644.96 
L 20.163 16644.96 
L 20.46525 16644.96 
L 20.7675 16644.96 
L 21.06975 16644.96 
L 21.372 16644.96 
L 21.67425 16644.96 
L 21.9765 16644.96 
L 22.27875 16644.96 
L 22.581 16644.96 
L 22.88325 16644.96 
L 23.1855 16644.96 
L 23.48775 16644.96 
L 23.79 16644.96 
L 24.09225 16644.96 
L 24.3945 16644.96 
L 24.69675 16644.96 
L 24.999 16644.96 
L 25.30125 16644.96 
L 25.6035 16644.96 
L 25.90575 16644.96 
L 26.208 16644.96 
L 26.51025 16644.96 
L 26.8125 16644.96 
L 27.11475 16644.96 
L 27.417 16644.96 
L 27.71925 16644.96 
L 28.0215 16644.96 
L 28.32375 16644.96 
L 28.626 16644.96 
L 28.92825 16644.96 
L 29.2305 16644.96 
L 29.53275 16644.96 
L 29.835 16644.96 
L 30.13725 16644.96 
L 30.4395 16644.96 
L 30.74175 16644.96 
L 31.044 16644.96 
L 31.34625 16644.96 
L 31.6485 16644.96 
L 31.95075 16644.96 
L 32.253 16644.96 
L 32.55525 16644.96 
L 32.8575 16644.96 
L 33.15975 16644.96 
L 33.462 16644.96 
L 33.76425 16644.96 
L 34.0665 16644.96 
L 34.36875 16644.96 
L 34.671 16644.96 
L 34.97325 16644.96 
L 35.2755 16644.96 
L 35.57775 16644.96 
L 35.88 16644.96 
L 36.18225 16644.96 
L 36.4845 16644.96 
L 36.78675 16644.96 
L 37.089 16644.96 
L 37.39125 16644.96 
L 37.6935 16644.96 
L 37.99575 16644.96 
L 38.298 16644.96 
L 38.60025 16644.96 
L 38.9025 16644.96 
L 39.20475 16644.96 
L 39.507 16644.96 
L 39.80925 16644.96 
L 40.1115 16644.96 
L 40.41375 16644.96 
L 40.716 16644.96 
L 41.01825 16644.96 
L 41.3205 16644.96 
L 41.62275 16644.96 
L 41.925 16644.96 
L 42.22725 16644.96 
L 42.5295 16644.96 
L 42.83175 16644.96 
L 43.134 16644.96 
L 43.43625 16644.96 
L 43.7385 16644.96 
L 44.04075 16644.96 
L 44.343 16644.96 
L 44.64525 16644.96 
L 44.9475 16644.96 
L 45.24975 16644.96 
L 45.552 16644.96 
L 45.85425 16644.96 
L 46.1565 16644.96 
L 46.45875 16644.96 
L 46.761 16644.96 
L 47.06325 16644.96 
L 47.3655 16644.96 
L 47.66775 16644.96 
L 47.97 16644.96 
L 48.27225 16644.96 
L 48.5745 16644.96 
L 48.87675 16644.96 
L 49.179 16644.96 
L 49.48125 16644.96 
L 49.7835 16644.96 
L 50.08575 16644.96 
L 50.388 16644.96 
L 50.69025 16644.96 
L 50.9925 16644.96 
L 51.29475 16644.96 
L 51.597 16644.96 
L 51.89925 16644.96 
L 52.2015 16644.96 
L 52.50375 16644.96 
L 52.806 16644.96 
L 53.10825 16644.96 
L 53.4105 16644.96 
L 53.71275 16644.96 
L 54.015 16644.96 
L 54.31725 16644.96 
L 54.6195 16644.96 
L 54.92175 16644.96 
L 55.224 16644.96 
L 55.52625 16644.96 
L 55.8285 16644.96 
L 56.13075 16644.96 
L 56.433 16644.96 
L 56.73525 16644.96 
L 57.0375 16644.96 
L 57.33975 16644.96 
L 57.642 16644.96 
L 57.94425 16644.96 
L 58.2465 16644.96 
L 58.54875 16644.96 
L 58.851 16644.96 
L 59.15325 16644.96 
L 59.4555 16644.96 
L 59.75775 16644.96 
L 60.06 16644.96 
L 60.36225 16644.96 
L 60.6645 16644.96 
L 60.96675 16644.96 
L 61.269 16644.96 
L 61.57125 16644.96 
L 61.8735 16644.96 
L 62.17575 16644.96 
L 62.478 16644.96 
L 62.78025 16644.96 
L 63.0825 16644.96 
L 63.38475 16644.96 
L 63.687 16644.96 
L 63.98925 16644.96 
L 64.2915 16644.96 
L 64.59375 16644.96 
L 64.896 16644.96 
L 65.19825 16644.96 
L 65.5005 16644.96 
L 65.80275 16644.96 
L 66.105 16644.96 
L 66.40725 16644.96 
L 66.7095 16644.96 
L 67.01175 16644.96 
L 67.314 16644.96 
L 67.61625 16644.96 
L 67.9185 16644.96 
L 68.22075 16644.96 
L 68.523 16644.96 
L 68.82525 16644.96 
L 69.1275 16644.96 
L 69.42975 16644.96 
L 69.732 16644.96 
L 70.03425 16644.96 
L 70.3365 16644.96 
L 70.63875 16644.96 
L 70.941 16644.96 
L 71.24325 16644.96 
L 71.5455 16644.96 
L 71.84775 16644.96 
L 72.15 16644.96 
L 72.45225 16644.96 
L 72.7545 16644.96 
L 73.05675 16644.96 
L 73.359 16644.96 
L 73.66125 16644.96 
L 73.9635 16644.96 
L 74.26575 16644.96 
L 74.568 16644.96 
L 74.87025 16644.96 
L 75.1725 16644.96 
L 75.47475 16644.96 
L 75.777 16644.96 
L 76.07925 16644.96 
L 76.3815 16644.96 
L 76.68375 16644.96 
L 76.986 16644.96 
L 77.28825 16644.96 
L 77.5905 16644.96 
L 77.89275 16644.96 
L 78.195 16644.96 
L 78.49725 16644.96 
L 78.7995 16644.96 
L 79.10175 16644.96 
L 79.404 16644.96 
L 79.70625 16644.96 
L 80.0085 16644.96 
L 80.31075 16644.96 
L 80.613 16644.96 
L 80.91525 16644.96 
L 81.2175 16644.96 
L 81.51975 16644.96 
L 81.822 16644.96 
L 82.12425 16644.96 
L 82.4265 16644.96 
L 82.72875 16644.96 
L 83.031 16644.96 
L 83.33325 16644.96 
L 83.6355 16644.96 
L 83.93775 16644.96 
L 84.24 16644.96 
L 84.24 128.361923 
L 84.24 128.361923 
L 83.93775 128.045834 
L 83.6355 127.728938 
L 83.33325 127.411198 
L 83.031 127.092574 
L 82.72875 126.773023 
L 82.4265 126.4525 
L 82.12425 126.130959 
L 81.822 125.80835 
L 81.51975 125.484621 
L 81.2175 125.159716 
L 80.91525 124.833577 
L 80.613 124.506142 
L 80.31075 124.177347 
L 80.0085 123.847122 
L 79.70625 123.515394 
L 79.404 123.182085 
L 79.10175 122.847114 
L 78.7995 122.510394 
L 78.49725 122.171831 
L 78.195 121.831328 
L 77.89275 121.48878 
L 77.5905 121.144075 
L 77.28825 120.797095 
L 76.986 120.447712 
L 76.68375 120.095792 
L 76.3815 119.741189 
L 76.07925 119.383749 
L 75.777 119.023306 
L 75.47475 118.65968 
L 75.1725 118.29268 
L 74.87025 117.922101 
L 74.568 117.547719 
L 74.26575 117.169295 
L 73.9635 116.78657 
L 73.66125 116.399261 
L 73.359 116.007064 
L 73.05675 115.609648 
L 72.7545 115.206652 
L 72.45225 114.797681 
L 72.15 114.382304 
L 71.84775 113.960048 
L 71.5455 113.530395 
L 71.24325 113.092771 
L 70.941 112.646545 
L 70.63875 112.191017 
L 70.3365 111.725409 
L 70.03425 111.248854 
L 69.732 110.760387 
L 69.42975 110.258921 
L 69.1275 109.74324 
L 68.82525 109.211971 
L 68.523 108.66356 
L 68.22075 108.096249 
L 67.9185 107.50804 
L 67.61625 106.896657 
L 67.314 106.259512 
L 67.01175 105.593652 
L 66.7095 104.895721 
L 66.40725 104.161916 
L 66.105 103.387951 
L 65.80275 102.569043 
L 65.5005 101.699929 
L 65.19825 100.774924 
L 64.896 99.788058 
L 64.59375 98.733286 
L 64.2915 97.604797 
L 63.98925 96.397422 
L 63.687 95.107104 
L 63.38475 93.731381 
L 63.0825 92.269832 
L 62.78025 90.72437 
L 62.478 89.099355 
L 62.17575 87.401464 
L 61.8735 85.639355 
L 61.57125 83.823165 
L 61.269 81.963929 
L 60.96675 80.073011 
L 60.6645 78.161589 
L 60.36225 76.240261 
L 60.06 74.318764 
L 59.75775 72.405815 
L 59.4555 70.509037 
L 59.15325 68.634965 
L 58.851 66.789094 
L 58.54875 64.975962 
L 58.2465 63.199245 
L 57.94425 61.461854 
L 57.642 59.766037 
L 57.33975 58.113464 
L 57.0375 56.50532 
L 56.73525 54.942368 
L 56.433 53.425022 
L 56.13075 51.953403 
L 55.8285 50.527382 
L 55.52625 49.146629 
L 55.224 47.810644 
L 54.92175 46.518792 
L 54.6195 45.270325 
L 54.31725 44.064404 
L 54.015 42.900124 
L 53.71275 41.77652 
L 53.4105 40.692591 
L 53.10825 39.647304 
L 52.806 38.639606 
L 52.50375 37.668431 
L 52.2015 36.732712 
L 51.89925 35.831378 
L 51.597 34.963367 
L 51.29475 34.127626 
L 50.9925 33.323113 
L 50.69025 32.548805 
L 50.388 31.803692 
L 50.08575 31.08679 
L 49.7835 30.39713 
L 49.48125 29.73377 
L 49.179 29.095788 
L 48.87675 28.482287 
L 48.5745 27.892395 
L 48.27225 27.325262 
L 47.97 26.780065 
L 47.66775 26.256003 
L 47.3655 25.752302 
L 47.06325 25.268209 
L 46.761 24.802999 
L 46.45875 24.355966 
L 46.1565 23.92643 
L 45.85425 23.513733 
L 45.552 23.11724 
L 45.24975 22.736335 
L 44.9475 22.370427 
L 44.64525 22.018943 
L 44.343 21.681331 
L 44.04075 21.357058 
L 43.7385 21.045612 
L 43.43625 20.746497 
L 43.134 20.459237 
L 42.83175 20.183371 
L 42.5295 19.918459 
L 42.22725 19.664073 
L 41.925 19.419802 
L 41.62275 19.185253 
L 41.3205 18.960045 
L 41.01825 18.743811 
L 40.716 18.536199 
L 40.41375 18.336872 
L 40.1115 18.145502 
L 39.80925 17.961776 
L 39.507 17.785394 
L 39.20475 17.616064 
L 38.9025 17.453508 
L 38.60025 17.297458 
L 38.298 17.147657 
L 37.99575 17.003856 
L 37.6935 16.865818 
L 37.39125 16.733313 
L 37.089 16.606123 
L 36.78675 16.484034 
L 36.4845 16.366845 
L 36.18225 16.25436 
L 35.88 16.146392 
L 35.57775 16.04276 
L 35.2755 15.943292 
L 34.97325 15.847821 
L 34.671 15.756188 
L 34.36875 15.668239 
L 34.0665 15.583827 
L 33.76425 15.50281 
L 33.462 15.425053 
L 33.15975 15.350425 
L 32.8575 15.2788 
L 32.55525 15.210059 
L 32.253 15.144086 
L 31.95075 15.080769 
L 31.6485 15.020002 
L 31.34625 14.961683 
L 31.044 14.905714 
L 30.74175 14.852 
L 30.4395 14.80045 
L 30.13725 14.750978 
L 29.835 14.703501 
L 29.53275 14.657937 
L 29.2305 14.61421 
L 28.92825 14.572247 
L 28.626 14.531976 
L 28.32375 14.493329 
L 28.0215 14.456241 
L 27.71925 14.420649 
L 27.417 14.386492 
L 27.11475 14.353714 
L 26.8125 14.322259 
L 26.51025 14.292072 
L 26.208 14.263104 
L 25.90575 14.235305 
L 25.6035 14.208628 
L 25.30125 14.183028 
L 24.999 14.158461 
L 24.69675 14.134886 
L 24.3945 14.112262 
L 24.09225 14.090552 
L 23.79 14.069719 
L 23.48775 14.049726 
L 23.1855 14.030541 
L 22.88325 14.012131 
L 22.581 13.994464 
L 22.27875 13.97751 
L 21.9765 13.961241 
L 21.67425 13.94563 
L 21.372 13.930648 
L 21.06975 13.916272 
L 20.7675 13.902477 
L 20.46525 13.889239 
L 20.163 13.876535 
L 19.86075 13.864345 
L 19.5585 13.852647 
L 19.25625 13.841422 
L 18.954 13.83065 
L 18.65175 13.820314 
L 18.3495 13.810395 
L 18.04725 13.800876 
L 17.745 13.791743 
L 17.44275 13.782978 
L 17.1405 13.774567 
L 16.83825 13.766497 
L 16.536 13.758752 
L 16.23375 13.751321 
L 15.9315 13.744189 
L 15.62925 13.737346 
L 15.327 13.730779 
L 15.02475 13.724478 
L 14.7225 13.718431 
L 14.42025 13.712629 
L 14.118 13.707061 
L 13.81575 13.701718 
L 13.5135 13.696592 
L 13.21125 13.691672 
L 12.909 13.686951 
L 12.60675 13.682421 
L 12.3045 13.678074 
L 12.00225 13.673903 
L 11.7 13.6699 
z
" clip-path="url(#p96f644e8ed)" style="fill: #ff8ef4; fill-opacity: 0.85"/>
   </g>
   <g id="FillBetweenPolyCollection_2">
    <path d="M 11.7 13.038787 
L 11.7 13.6699 
L 12.00225 13.673903 
L 12.3045 13.678074 
L 12.60675 13.682421 
L 12.909 13.686951 
L 13.21125 13.691672 
L 13.5135 13.696592 
L 13.81575 13.701718 
L 14.118 13.707061 
L 14.42025 13.712629 
L 14.7225 13.718431 
L 15.02475 13.724478 
L 15.327 13.730779 
L 15.62925 13.737346 
L 15.9315 13.744189 
L 16.23375 13.751321 
L 16.536 13.758752 
L 16.83825 13.766497 
L 17.1405 13.774567 
L 17.44275 13.782978 
L 17.745 13.791743 
L 18.04725 13.800876 
L 18.3495 13.810395 
L 18.65175 13.820314 
L 18.954 13.83065 
L 19.25625 13.841422 
L 19.5585 13.852647 
L 19.86075 13.864345 
L 20.163 13.876535 
L 20.46525 13.889239 
L 20.7675 13.902477 
L 21.06975 13.916272 
L 21.372 13.930648 
L 21.67425 13.94563 
L 21.9765 13.961241 
L 22.27875 13.97751 
L 22.581 13.994464 
L 22.88325 14.012131 
L 23.1855 14.030541 
L 23.48775 14.049726 
L 23.79 14.069719 
L 24.09225 14.090552 
L 24.3945 14.112262 
L 24.69675 14.134886 
L 24.999 14.158461 
L 25.30125 14.183028 
L 25.6035 14.208628 
L 25.90575 14.235305 
L 26.208 14.263104 
L 26.51025 14.292072 
L 26.8125 14.322259 
L 27.11475 14.353714 
L 27.417 14.386492 
L 27.71925 14.420649 
L 28.0215 14.456241 
L 28.32375 14.493329 
L 28.626 14.531976 
L 28.92825 14.572247 
L 29.2305 14.61421 
L 29.53275 14.657937 
L 29.835 14.703501 
L 30.13725 14.750978 
L 30.4395 14.80045 
L 30.74175 14.852 
L 31.044 14.905714 
L 31.34625 14.961683 
L 31.6485 15.020002 
L 31.95075 15.080769 
L 32.253 15.144086 
L 32.55525 15.210059 
L 32.8575 15.2788 
L 33.15975 15.350425 
L 33.462 15.425053 
L 33.76425 15.50281 
L 34.0665 15.583827 
L 34.36875 15.668239 
L 34.671 15.756188 
L 34.97325 15.847821 
L 35.2755 15.943292 
L 35.57775 16.04276 
L 35.88 16.146392 
L 36.18225 16.25436 
L 36.4845 16.366845 
L 36.78675 16.484034 
L 37.089 16.606123 
L 37.39125 16.733313 
L 37.6935 16.865818 
L 37.99575 17.003856 
L 38.298 17.147657 
L 38.60025 17.297458 
L 38.9025 17.453508 
L 39.20475 17.616064 
L 39.507 17.785394 
L 39.80925 17.961776 
L 40.1115 18.145502 
L 40.41375 18.336872 
L 40.716 18.536199 
L 41.01825 18.743811 
L 41.3205 18.960045 
L 41.62275 19.185253 
L 41.925 19.419802 
L 42.22725 19.664073 
L 42.5295 19.918459 
L 42.83175 20.183371 
L 43.134 20.459237 
L 43.43625 20.746497 
L 43.7385 21.045612 
L 44.04075 21.357058 
L 44.343 21.681331 
L 44.64525 22.018943 
L 44.9475 22.370427 
L 45.24975 22.736335 
L 45.552 23.11724 
L 45.85425 23.513733 
L 46.1565 23.92643 
L 46.45875 24.355966 
L 46.761 24.802999 
L 47.06325 25.268209 
L 47.3655 25.752302 
L 47.66775 26.256003 
L 47.97 26.780065 
L 48.27225 27.325262 
L 48.5745 27.892395 
L 48.87675 28.482287 
L 49.179 29.095788 
L 49.48125 29.73377 
L 49.7835 30.39713 
L 50.08575 31.08679 
L 50.388 31.803692 
L 50.69025 32.548805 
L 50.9925 33.323113 
L 51.29475 34.127626 
L 51.597 34.963367 
L 51.89925 35.831378 
L 52.2015 36.732712 
L 52.50375 37.668431 
L 52.806 38.639606 
L 53.10825 39.647304 
L 53.4105 40.692591 
L 53.71275 41.77652 
L 54.015 42.900124 
L 54.31725 44.064404 
L 54.6195 45.270325 
L 54.92175 46.518792 
L 55.224 47.810644 
L 55.52625 49.146629 
L 55.8285 50.527382 
L 56.13075 51.953403 
L 56.433 53.425022 
L 56.73525 54.942368 
L 57.0375 56.50532 
L 57.33975 58.113464 
L 57.642 59.766037 
L 57.94425 61.461854 
L 58.2465 63.199245 
L 58.54875 64.975962 
L 58.851 66.789094 
L 59.15325 68.634965 
L 59.4555 70.509037 
L 59.75775 72.405815 
L 60.06 74.318764 
L 60.36225 76.240261 
L 60.6645 78.161589 
L 60.96675 80.073011 
L 61.269 81.963929 
L 61.57125 83.823165 
L 61.8735 85.639355 
L 62.17575 87.401464 
L 62.478 89.099355 
L 62.78025 90.72437 
L 63.0825 92.269832 
L 63.38475 93.731381 
L 63.687 95.107104 
L 63.98925 96.397422 
L 64.2915 97.604797 
L 64.59375 98.733286 
L 64.896 99.788058 
L 65.19825 100.774924 
L 65.5005 101.699929 
L 65.80275 102.569043 
L 66.105 103.387951 
L 66.40725 104.161916 
L 66.7095 104.895721 
L 67.01175 105.593652 
L 67.314 106.259512 
L 67.61625 106.896657 
L 67.9185 107.50804 
L 68.22075 108.096249 
L 68.523 108.66356 
L 68.82525 109.211971 
L 69.1275 109.74324 
L 69.42975 110.258921 
L 69.732 110.760387 
L 70.03425 111.248854 
L 70.3365 111.725409 
L 70.63875 112.191017 
L 70.941 112.646545 
L 71.24325 113.092771 
L 71.5455 113.530395 
L 71.84775 113.960048 
L 72.15 114.382304 
L 72.45225 114.797681 
L 72.7545 115.206652 
L 73.05675 115.609648 
L 73.359 116.007064 
L 73.66125 116.399261 
L 73.9635 116.78657 
L 74.26575 117.169295 
L 74.568 117.547719 
L 74.87025 117.922101 
L 75.1725 118.29268 
L 75.47475 118.65968 
L 75.777 119.023306 
L 76.07925 119.383749 
L 76.3815 119.741189 
L 76.68375 120.095792 
L 76.986 120.447712 
L 77.28825 120.797095 
L 77.5905 121.144075 
L 77.89275 121.48878 
L 78.195 121.831328 
L 78.49725 122.171831 
L 78.7995 122.510394 
L 79.10175 122.847114 
L 79.404 123.182085 
L 79.70625 123.515394 
L 80.0085 123.847122 
L 80.31075 124.177347 
L 80.613 124.506142 
L 80.91525 124.833577 
L 81.2175 125.159716 
L 81.51975 125.484621 
L 81.822 125.80835 
L 82.12425 126.130959 
L 82.4265 126.4525 
L 82.72875 126.773023 
L 83.031 127.092574 
L 83.33325 127.411198 
L 83.6355 127.728938 
L 83.93775 128.045834 
L 84.24 128.361923 
L 84.24 124.728948 
L 84.24 124.728948 
L 83.93775 124.382744 
L 83.6355 124.033941 
L 83.33325 123.682368 
L 83.031 123.327836 
L 82.72875 122.970139 
L 82.4265 122.609054 
L 82.12425 122.244335 
L 81.822 121.875713 
L 81.51975 121.502891 
L 81.2175 121.125542 
L 80.91525 120.743304 
L 80.613 120.355774 
L 80.31075 119.962507 
L 80.0085 119.563001 
L 79.70625 119.156696 
L 79.404 118.742964 
L 79.10175 118.321092 
L 78.7995 117.890275 
L 78.49725 117.449597 
L 78.195 116.998012 
L 77.89275 116.53432 
L 77.5905 116.05714 
L 77.28825 115.56488 
L 76.986 115.055693 
L 76.68375 114.527432 
L 76.3815 113.977599 
L 76.07925 113.403281 
L 75.777 112.801085 
L 75.47475 112.167066 
L 75.1725 111.496661 
L 74.87025 110.784639 
L 74.568 110.025074 
L 74.26575 109.211376 
L 73.9635 108.3364 
L 73.66125 107.392664 
L 73.359 106.372703 
L 73.05675 105.269558 
L 72.7545 104.077387 
L 72.45225 102.792128 
L 72.15 101.412111 
L 71.84775 99.938515 
L 71.5455 98.375551 
L 71.24325 96.730327 
L 70.941 95.012414 
L 70.63875 93.233189 
L 70.3365 91.405086 
L 70.03425 89.540856 
L 69.732 87.652944 
L 69.42975 85.753018 
L 69.1275 83.851663 
L 68.82525 81.958223 
L 68.523 80.080751 
L 68.22075 78.226051 
L 67.9185 76.399762 
L 67.61625 74.606466 
L 67.314 72.84982 
L 67.01175 71.132672 
L 66.7095 69.457174 
L 66.40725 67.824891 
L 66.105 66.23689 
L 65.80275 64.693821 
L 65.5005 63.195982 
L 65.19825 61.743385 
L 64.896 60.335796 
L 64.59375 58.972785 
L 64.2915 57.653758 
L 63.98925 56.377986 
L 63.687 55.144627 
L 63.38475 53.952752 
L 63.0825 52.801357 
L 62.78025 51.689378 
L 62.478 50.615703 
L 62.17575 49.579177 
L 61.8735 48.578615 
L 61.57125 47.612802 
L 61.269 46.680501 
L 60.96675 45.780453 
L 60.6645 44.911385 
L 60.36225 44.072006 
L 60.06 43.261014 
L 59.75775 42.477098 
L 59.4555 41.718937 
L 59.15325 40.985209 
L 58.851 40.274589 
L 58.54875 39.585759 
L 58.2465 38.91741 
L 57.94425 38.26825 
L 57.642 37.637011 
L 57.33975 37.022456 
L 57.0375 36.42339 
L 56.73525 35.838667 
L 56.433 35.267198 
L 56.13075 34.707965 
L 55.8285 34.160019 
L 55.52625 33.622499 
L 55.224 33.094628 
L 54.92175 32.575724 
L 54.6195 32.065196 
L 54.31725 31.562552 
L 54.015 31.067394 
L 53.71275 30.579411 
L 53.4105 30.098384 
L 53.10825 29.62417 
L 52.806 29.156699 
L 52.50375 28.695966 
L 52.2015 28.242019 
L 51.89925 27.794954 
L 51.597 27.3549 
L 51.29475 26.922014 
L 50.9925 26.496471 
L 50.69025 26.078456 
L 50.388 25.668158 
L 50.08575 25.26576 
L 49.7835 24.871439 
L 49.48125 24.485358 
L 49.179 24.107664 
L 48.87675 23.738482 
L 48.5745 23.37792 
L 48.27225 23.026062 
L 47.97 22.682968 
L 47.66775 22.348676 
L 47.3655 22.023202 
L 47.06325 21.70654 
L 46.761 21.398663 
L 46.45875 21.099523 
L 46.1565 20.809056 
L 45.85425 20.527178 
L 45.552 20.253794 
L 45.24975 19.98879 
L 44.9475 19.732043 
L 44.64525 19.483417 
L 44.343 19.242768 
L 44.04075 19.009943 
L 43.7385 18.784782 
L 43.43625 18.567118 
L 43.134 18.35678 
L 42.83175 18.153595 
L 42.5295 17.957385 
L 42.22725 17.76797 
L 41.925 17.58517 
L 41.62275 17.408805 
L 41.3205 17.238693 
L 41.01825 17.074655 
L 40.716 16.916512 
L 40.41375 16.764087 
L 40.1115 16.617205 
L 39.80925 16.475693 
L 39.507 16.339381 
L 39.20475 16.208102 
L 38.9025 16.081692 
L 38.60025 15.959992 
L 38.298 15.842843 
L 37.99575 15.730092 
L 37.6935 15.621589 
L 37.39125 15.517188 
L 37.089 15.416747 
L 36.78675 15.320128 
L 36.4845 15.227194 
L 36.18225 15.137816 
L 35.88 15.051867 
L 35.57775 14.969222 
L 35.2755 14.889762 
L 34.97325 14.813371 
L 34.671 14.739938 
L 34.36875 14.669352 
L 34.0665 14.601509 
L 33.76425 14.536307 
L 33.462 14.473647 
L 33.15975 14.413435 
L 32.8575 14.355577 
L 32.55525 14.299987 
L 32.253 14.246577 
L 31.95075 14.195265 
L 31.6485 14.145971 
L 31.34625 14.098619 
L 31.044 14.053133 
L 30.74175 14.009442 
L 30.4395 13.967478 
L 30.13725 13.927173 
L 29.835 13.888463 
L 29.53275 13.851288 
L 29.2305 13.815586 
L 28.92825 13.781301 
L 28.626 13.748379 
L 28.32375 13.716765 
L 28.0215 13.686408 
L 27.71925 13.65726 
L 27.417 13.629273 
L 27.11475 13.602401 
L 26.8125 13.576601 
L 26.51025 13.55183 
L 26.208 13.528049 
L 25.90575 13.505217 
L 25.6035 13.483298 
L 25.30125 13.462256 
L 24.999 13.442055 
L 24.69675 13.422662 
L 24.3945 13.404047 
L 24.09225 13.386176 
L 23.79 13.369022 
L 23.48775 13.352555 
L 23.1855 13.336749 
L 22.88325 13.321577 
L 22.581 13.307013 
L 22.27875 13.293034 
L 21.9765 13.279617 
L 21.67425 13.266738 
L 21.372 13.254376 
L 21.06975 13.242511 
L 20.7675 13.231124 
L 20.46525 13.220193 
L 20.163 13.209703 
L 19.86075 13.199634 
L 19.5585 13.18997 
L 19.25625 13.180696 
L 18.954 13.171794 
L 18.65175 13.163251 
L 18.3495 13.155052 
L 18.04725 13.147182 
L 17.745 13.13963 
L 17.44275 13.132382 
L 17.1405 13.125426 
L 16.83825 13.11875 
L 16.536 13.112343 
L 16.23375 13.106195 
L 15.9315 13.100294 
L 15.62925 13.094631 
L 15.327 13.089196 
L 15.02475 13.083981 
L 14.7225 13.078975 
L 14.42025 13.074172 
L 14.118 13.069562 
L 13.81575 13.065139 
L 13.5135 13.060893 
L 13.21125 13.056819 
L 12.909 13.05291 
L 12.60675 13.049158 
L 12.3045 13.045557 
L 12.00225 13.042102 
L 11.7 13.038787 
z
" clip-path="url(#p96f644e8ed)" style="fill: #ffff7c; fill-opacity: 0.85"/>
   </g>
   <g id="FillBetweenPolyCollection_3">
    <path d="M 11.7 13.038773 
L 11.7 13.038787 
L 12.00225 13.042102 
L 12.3045 13.045557 
L 12.60675 13.049158 
L 12.909 13.05291 
L 13.21125 13.056819 
L 13.5135 13.060893 
L 13.81575 13.065139 
L 14.118 13.069562 
L 14.42025 13.074172 
L 14.7225 13.078975 
L 15.02475 13.083981 
L 15.327 13.089196 
L 15.62925 13.094631 
L 15.9315 13.100294 
L 16.23375 13.106195 
L 16.536 13.112343 
L 16.83825 13.11875 
L 17.1405 13.125426 
L 17.44275 13.132382 
L 17.745 13.13963 
L 18.04725 13.147182 
L 18.3495 13.155052 
L 18.65175 13.163251 
L 18.954 13.171794 
L 19.25625 13.180696 
L 19.5585 13.18997 
L 19.86075 13.199634 
L 20.163 13.209703 
L 20.46525 13.220193 
L 20.7675 13.231124 
L 21.06975 13.242511 
L 21.372 13.254376 
L 21.67425 13.266738 
L 21.9765 13.279617 
L 22.27875 13.293034 
L 22.581 13.307013 
L 22.88325 13.321577 
L 23.1855 13.336749 
L 23.48775 13.352555 
L 23.79 13.369022 
L 24.09225 13.386176 
L 24.3945 13.404047 
L 24.69675 13.422662 
L 24.999 13.442055 
L 25.30125 13.462256 
L 25.6035 13.483298 
L 25.90575 13.505217 
L 26.208 13.528049 
L 26.51025 13.55183 
L 26.8125 13.576601 
L 27.11475 13.602401 
L 27.417 13.629273 
L 27.71925 13.65726 
L 28.0215 13.686408 
L 28.32375 13.716765 
L 28.626 13.748379 
L 28.92825 13.781301 
L 29.2305 13.815586 
L 29.53275 13.851288 
L 29.835 13.888463 
L 30.13725 13.927173 
L 30.4395 13.967478 
L 30.74175 14.009442 
L 31.044 14.053133 
L 31.34625 14.098619 
L 31.6485 14.145971 
L 31.95075 14.195265 
L 32.253 14.246577 
L 32.55525 14.299987 
L 32.8575 14.355577 
L 33.15975 14.413435 
L 33.462 14.473647 
L 33.76425 14.536307 
L 34.0665 14.601509 
L 34.36875 14.669352 
L 34.671 14.739938 
L 34.97325 14.813371 
L 35.2755 14.889762 
L 35.57775 14.969222 
L 35.88 15.051867 
L 36.18225 15.137816 
L 36.4845 15.227194 
L 36.78675 15.320128 
L 37.089 15.416747 
L 37.39125 15.517188 
L 37.6935 15.621589 
L 37.99575 15.730092 
L 38.298 15.842843 
L 38.60025 15.959992 
L 38.9025 16.081692 
L 39.20475 16.208102 
L 39.507 16.339381 
L 39.80925 16.475693 
L 40.1115 16.617205 
L 40.41375 16.764087 
L 40.716 16.916512 
L 41.01825 17.074655 
L 41.3205 17.238693 
L 41.62275 17.408805 
L 41.925 17.58517 
L 42.22725 17.76797 
L 42.5295 17.957385 
L 42.83175 18.153595 
L 43.134 18.35678 
L 43.43625 18.567118 
L 43.7385 18.784782 
L 44.04075 19.009943 
L 44.343 19.242768 
L 44.64525 19.483417 
L 44.9475 19.732043 
L 45.24975 19.98879 
L 45.552 20.253794 
L 45.85425 20.527178 
L 46.1565 20.809056 
L 46.45875 21.099523 
L 46.761 21.398663 
L 47.06325 21.70654 
L 47.3655 22.023202 
L 47.66775 22.348676 
L 47.97 22.682968 
L 48.27225 23.026062 
L 48.5745 23.37792 
L 48.87675 23.738482 
L 49.179 24.107664 
L 49.48125 24.485358 
L 49.7835 24.871439 
L 50.08575 25.26576 
L 50.388 25.668158 
L 50.69025 26.078456 
L 50.9925 26.496471 
L 51.29475 26.922014 
L 51.597 27.3549 
L 51.89925 27.794954 
L 52.2015 28.242019 
L 52.50375 28.695966 
L 52.806 29.156699 
L 53.10825 29.62417 
L 53.4105 30.098384 
L 53.71275 30.579411 
L 54.015 31.067394 
L 54.31725 31.562552 
L 54.6195 32.065196 
L 54.92175 32.575724 
L 55.224 33.094628 
L 55.52625 33.622499 
L 55.8285 34.160019 
L 56.13075 34.707965 
L 56.433 35.267198 
L 56.73525 35.838667 
L 57.0375 36.42339 
L 57.33975 37.022456 
L 57.642 37.637011 
L 57.94425 38.26825 
L 58.2465 38.91741 
L 58.54875 39.585759 
L 58.851 40.274589 
L 59.15325 40.985209 
L 59.4555 41.718937 
L 59.75775 42.477098 
L 60.06 43.261014 
L 60.36225 44.072006 
L 60.6645 44.911385 
L 60.96675 45.780453 
L 61.269 46.680501 
L 61.57125 47.612802 
L 61.8735 48.578615 
L 62.17575 49.579177 
L 62.478 50.615703 
L 62.78025 51.689378 
L 63.0825 52.801357 
L 63.38475 53.952752 
L 63.687 55.144627 
L 63.98925 56.377986 
L 64.2915 57.653758 
L 64.59375 58.972785 
L 64.896 60.335796 
L 65.19825 61.743385 
L 65.5005 63.195982 
L 65.80275 64.693821 
L 66.105 66.23689 
L 66.40725 67.824891 
L 66.7095 69.457174 
L 67.01175 71.132672 
L 67.314 72.84982 
L 67.61625 74.606466 
L 67.9185 76.399762 
L 68.22075 78.226051 
L 68.523 80.080751 
L 68.82525 81.958223 
L 69.1275 83.851663 
L 69.42975 85.753018 
L 69.732 87.652944 
L 70.03425 89.540856 
L 70.3365 91.405086 
L 70.63875 93.233189 
L 70.941 95.012414 
L 71.24325 96.730327 
L 71.5455 98.375551 
L 71.84775 99.938515 
L 72.15 101.412111 
L 72.45225 102.792128 
L 72.7545 104.077387 
L 73.05675 105.269558 
L 73.359 106.372703 
L 73.66125 107.392664 
L 73.9635 108.3364 
L 74.26575 109.211376 
L 74.568 110.025074 
L 74.87025 110.784639 
L 75.1725 111.496661 
L 75.47475 112.167066 
L 75.777 112.801085 
L 76.07925 113.403281 
L 76.3815 113.977599 
L 76.68375 114.527432 
L 76.986 115.055693 
L 77.28825 115.56488 
L 77.5905 116.05714 
L 77.89275 116.53432 
L 78.195 116.998012 
L 78.49725 117.449597 
L 78.7995 117.890275 
L 79.10175 118.321092 
L 79.404 118.742964 
L 79.70625 119.156696 
L 80.0085 119.563001 
L 80.31075 119.962507 
L 80.613 120.355774 
L 80.91525 120.743304 
L 81.2175 121.125542 
L 81.51975 121.502891 
L 81.822 121.875713 
L 82.12425 122.244335 
L 82.4265 122.609054 
L 82.72875 122.970139 
L 83.031 123.327836 
L 83.33325 123.682368 
L 83.6355 124.033941 
L 83.93775 124.382744 
L 84.24 124.728948 
L 84.24 107.390116 
L 84.24 107.390116 
L 83.93775 107.35803 
L 83.6355 107.324264 
L 83.33325 107.28871 
L 83.031 107.25125 
L 82.72875 107.211757 
L 82.4265 107.170091 
L 82.12425 107.126099 
L 81.822 107.079612 
L 81.51975 107.030447 
L 81.2175 106.978397 
L 80.91525 106.923238 
L 80.613 106.864717 
L 80.31075 106.802552 
L 80.0085 106.736428 
L 79.70625 106.665991 
L 79.404 106.590837 
L 79.10175 106.51051 
L 78.7995 106.424488 
L 78.49725 106.332172 
L 78.195 106.232869 
L 77.89275 106.125775 
L 77.5905 106.00995 
L 77.28825 105.884287 
L 76.986 105.74748 
L 76.68375 105.597971 
L 76.3815 105.433897 
L 76.07925 105.253016 
L 75.777 105.052618 
L 75.47475 104.829416 
L 75.1725 104.57942 
L 74.87025 104.297789 
L 74.568 103.978673 
L 74.26575 103.615062 
L 73.9635 103.198664 
L 73.66125 102.719868 
L 73.359 102.167849 
L 73.05675 101.53089 
L 72.7545 100.796995 
L 72.45225 99.954817 
L 72.15 98.994843 
L 71.84775 97.910685 
L 71.5455 96.700196 
L 71.24325 95.366152 
L 70.941 93.916271 
L 70.63875 92.362577 
L 70.3365 90.720237 
L 70.03425 89.006186 
L 69.732 87.237791 
L 69.42975 85.431784 
L 69.1275 83.603513 
L 68.82525 81.766542 
L 68.523 79.932498 
L 68.22075 78.111105 
L 67.9185 76.310337 
L 67.61625 74.536607 
L 67.314 72.794985 
L 67.01175 71.089404 
L 66.7095 69.422842 
L 66.40725 67.79749 
L 66.105 66.214889 
L 65.80275 64.676046 
L 65.5005 63.181533 
L 65.19825 61.731566 
L 64.896 60.326068 
L 64.59375 58.964729 
L 64.2915 57.647046 
L 63.98925 56.37236 
L 63.687 55.139884 
L 63.38475 53.94873 
L 63.0825 52.797928 
L 62.78025 51.686438 
L 62.478 50.613169 
L 62.17575 49.576982 
L 61.8735 48.576703 
L 61.57125 47.61113 
L 61.269 46.679031 
L 60.96675 45.779156 
L 60.6645 44.910234 
L 60.36225 44.070981 
L 60.06 43.260099 
L 59.75775 42.476276 
L 59.4555 41.718198 
L 59.15325 40.984541 
L 58.851 40.273984 
L 58.54875 39.585209 
L 58.2465 38.916909 
L 57.94425 38.267792 
L 57.642 37.63659 
L 57.33975 37.02207 
L 57.0375 36.423035 
L 56.73525 35.838339 
L 56.433 35.266896 
L 56.13075 34.707684 
L 55.8285 34.15976 
L 55.52625 33.622258 
L 55.224 33.094404 
L 54.92175 32.575515 
L 54.6195 32.065002 
L 54.31725 31.562371 
L 54.015 31.067224 
L 53.71275 30.579253 
L 53.4105 30.098236 
L 53.10825 29.624031 
L 52.806 29.156569 
L 52.50375 28.695844 
L 52.2015 28.241905 
L 51.89925 27.794846 
L 51.597 27.354798 
L 51.29475 26.921918 
L 50.9925 26.496381 
L 50.69025 26.078371 
L 50.388 25.668078 
L 50.08575 25.265684 
L 49.7835 24.871368 
L 49.48125 24.48529 
L 49.179 24.107599 
L 48.87675 23.738421 
L 48.5745 23.377862 
L 48.27225 23.026006 
L 47.97 22.682915 
L 47.66775 22.348625 
L 47.3655 22.023154 
L 47.06325 21.706494 
L 46.761 21.398618 
L 46.45875 21.09948 
L 46.1565 20.809015 
L 45.85425 20.527139 
L 45.552 20.253756 
L 45.24975 19.988753 
L 44.9475 19.732007 
L 44.64525 19.483383 
L 44.343 19.242736 
L 44.04075 19.009912 
L 43.7385 18.784751 
L 43.43625 18.567088 
L 43.134 18.356751 
L 42.83175 18.153567 
L 42.5295 17.957357 
L 42.22725 17.767943 
L 41.925 17.585144 
L 41.62275 17.408779 
L 41.3205 17.238668 
L 41.01825 17.074631 
L 40.716 16.916489 
L 40.41375 16.764064 
L 40.1115 16.617182 
L 39.80925 16.47567 
L 39.507 16.339359 
L 39.20475 16.20808 
L 38.9025 16.081671 
L 38.60025 15.959971 
L 38.298 15.842822 
L 37.99575 15.730071 
L 37.6935 15.621569 
L 37.39125 15.517169 
L 37.089 15.416728 
L 36.78675 15.320109 
L 36.4845 15.227175 
L 36.18225 15.137798 
L 35.88 15.051848 
L 35.57775 14.969204 
L 35.2755 14.889744 
L 34.97325 14.813354 
L 34.671 14.73992 
L 34.36875 14.669334 
L 34.0665 14.601492 
L 33.76425 14.53629 
L 33.462 14.47363 
L 33.15975 14.413418 
L 32.8575 14.355561 
L 32.55525 14.29997 
L 32.253 14.24656 
L 31.95075 14.195249 
L 31.6485 14.145955 
L 31.34625 14.098602 
L 31.044 14.053117 
L 30.74175 14.009426 
L 30.4395 13.967462 
L 30.13725 13.927157 
L 29.835 13.888448 
L 29.53275 13.851272 
L 29.2305 13.815571 
L 28.92825 13.781286 
L 28.626 13.748363 
L 28.32375 13.716749 
L 28.0215 13.686393 
L 27.71925 13.657245 
L 27.417 13.629258 
L 27.11475 13.602386 
L 26.8125 13.576586 
L 26.51025 13.551815 
L 26.208 13.528034 
L 25.90575 13.505202 
L 25.6035 13.483283 
L 25.30125 13.462241 
L 24.999 13.44204 
L 24.69675 13.422648 
L 24.3945 13.404032 
L 24.09225 13.386162 
L 23.79 13.369007 
L 23.48775 13.352541 
L 23.1855 13.336735 
L 22.88325 13.321562 
L 22.581 13.306999 
L 22.27875 13.29302 
L 21.9765 13.279602 
L 21.67425 13.266723 
L 21.372 13.254362 
L 21.06975 13.242497 
L 20.7675 13.231109 
L 20.46525 13.220179 
L 20.163 13.209689 
L 19.86075 13.19962 
L 19.5585 13.189956 
L 19.25625 13.180681 
L 18.954 13.17178 
L 18.65175 13.163237 
L 18.3495 13.155037 
L 18.04725 13.147168 
L 17.745 13.139616 
L 17.44275 13.132368 
L 17.1405 13.125412 
L 16.83825 13.118736 
L 16.536 13.112329 
L 16.23375 13.106181 
L 15.9315 13.10028 
L 15.62925 13.094617 
L 15.327 13.089182 
L 15.02475 13.083967 
L 14.7225 13.078961 
L 14.42025 13.074158 
L 14.118 13.069548 
L 13.81575 13.065125 
L 13.5135 13.060879 
L 13.21125 13.056805 
L 12.909 13.052896 
L 12.60675 13.049144 
L 12.3045 13.045544 
L 12.00225 13.042088 
L 11.7 13.038773 
z
" clip-path="url(#p96f644e8ed)" style="fill: #7cffff; fill-opacity: 0.85"/>
   </g>
   <g id="FillBetweenPolyCollection_4">
    <path d="M 11.7 12.96 
L 11.7 13.038773 
L 12.00225 13.042088 
L 12.3045 13.045544 
L 12.60675 13.049144 
L 12.909 13.052896 
L 13.21125 13.056805 
L 13.5135 13.060879 
L 13.81575 13.065125 
L 14.118 13.069548 
L 14.42025 13.074158 
L 14.7225 13.078961 
L 15.02475 13.083967 
L 15.327 13.089182 
L 15.62925 13.094617 
L 15.9315 13.10028 
L 16.23375 13.106181 
L 16.536 13.112329 
L 16.83825 13.118736 
L 17.1405 13.125412 
L 17.44275 13.132368 
L 17.745 13.139616 
L 18.04725 13.147168 
L 18.3495 13.155037 
L 18.65175 13.163237 
L 18.954 13.17178 
L 19.25625 13.180681 
L 19.5585 13.189956 
L 19.86075 13.19962 
L 20.163 13.209689 
L 20.46525 13.220179 
L 20.7675 13.231109 
L 21.06975 13.242497 
L 21.372 13.254362 
L 21.67425 13.266723 
L 21.9765 13.279602 
L 22.27875 13.29302 
L 22.581 13.306999 
L 22.88325 13.321562 
L 23.1855 13.336735 
L 23.48775 13.352541 
L 23.79 13.369007 
L 24.09225 13.386162 
L 24.3945 13.404032 
L 24.69675 13.422648 
L 24.999 13.44204 
L 25.30125 13.462241 
L 25.6035 13.483283 
L 25.90575 13.505202 
L 26.208 13.528034 
L 26.51025 13.551815 
L 26.8125 13.576586 
L 27.11475 13.602386 
L 27.417 13.629258 
L 27.71925 13.657245 
L 28.0215 13.686393 
L 28.32375 13.716749 
L 28.626 13.748363 
L 28.92825 13.781286 
L 29.2305 13.815571 
L 29.53275 13.851272 
L 29.835 13.888448 
L 30.13725 13.927157 
L 30.4395 13.967462 
L 30.74175 14.009426 
L 31.044 14.053117 
L 31.34625 14.098602 
L 31.6485 14.145955 
L 31.95075 14.195249 
L 32.253 14.24656 
L 32.55525 14.29997 
L 32.8575 14.355561 
L 33.15975 14.413418 
L 33.462 14.47363 
L 33.76425 14.53629 
L 34.0665 14.601492 
L 34.36875 14.669334 
L 34.671 14.73992 
L 34.97325 14.813354 
L 35.2755 14.889744 
L 35.57775 14.969204 
L 35.88 15.051848 
L 36.18225 15.137798 
L 36.4845 15.227175 
L 36.78675 15.320109 
L 37.089 15.416728 
L 37.39125 15.517169 
L 37.6935 15.621569 
L 37.99575 15.730071 
L 38.298 15.842822 
L 38.60025 15.959971 
L 38.9025 16.081671 
L 39.20475 16.20808 
L 39.507 16.339359 
L 39.80925 16.47567 
L 40.1115 16.617182 
L 40.41375 16.764064 
L 40.716 16.916489 
L 41.01825 17.074631 
L 41.3205 17.238668 
L 41.62275 17.408779 
L 41.925 17.585144 
L 42.22725 17.767943 
L 42.5295 17.957357 
L 42.83175 18.153567 
L 43.134 18.356751 
L 43.43625 18.567088 
L 43.7385 18.784751 
L 44.04075 19.009912 
L 44.343 19.242736 
L 44.64525 19.483383 
L 44.9475 19.732007 
L 45.24975 19.988753 
L 45.552 20.253756 
L 45.85425 20.527139 
L 46.1565 20.809015 
L 46.45875 21.09948 
L 46.761 21.398618 
L 47.06325 21.706494 
L 47.3655 22.023154 
L 47.66775 22.348625 
L 47.97 22.682915 
L 48.27225 23.026006 
L 48.5745 23.377862 
L 48.87675 23.738421 
L 49.179 24.107599 
L 49.48125 24.48529 
L 49.7835 24.871368 
L 50.08575 25.265684 
L 50.388 25.668078 
L 50.69025 26.078371 
L 50.9925 26.496381 
L 51.29475 26.921918 
L 51.597 27.354798 
L 51.89925 27.794846 
L 52.2015 28.241905 
L 52.50375 28.695844 
L 52.806 29.156569 
L 53.10825 29.624031 
L 53.4105 30.098236 
L 53.71275 30.579253 
L 54.015 31.067224 
L 54.31725 31.562371 
L 54.6195 32.065002 
L 54.92175 32.575515 
L 55.224 33.094404 
L 55.52625 33.622258 
L 55.8285 34.15976 
L 56.13075 34.707684 
L 56.433 35.266896 
L 56.73525 35.838339 
L 57.0375 36.423035 
L 57.33975 37.02207 
L 57.642 37.63659 
L 57.94425 38.267792 
L 58.2465 38.916909 
L 58.54875 39.585209 
L 58.851 40.273984 
L 59.15325 40.984541 
L 59.4555 41.718198 
L 59.75775 42.476276 
L 60.06 43.260099 
L 60.36225 44.070981 
L 60.6645 44.910234 
L 60.96675 45.779156 
L 61.269 46.679031 
L 61.57125 47.61113 
L 61.8735 48.576703 
L 62.17575 49.576982 
L 62.478 50.613169 
L 62.78025 51.686438 
L 63.0825 52.797928 
L 63.38475 53.94873 
L 63.687 55.139884 
L 63.98925 56.37236 
L 64.2915 57.647046 
L 64.59375 58.964729 
L 64.896 60.326068 
L 65.19825 61.731566 
L 65.5005 63.181533 
L 65.80275 64.676046 
L 66.105 66.214889 
L 66.40725 67.79749 
L 66.7095 69.422842 
L 67.01175 71.089404 
L 67.314 72.794985 
L 67.61625 74.536607 
L 67.9185 76.310337 
L 68.22075 78.111105 
L 68.523 79.932498 
L 68.82525 81.766542 
L 69.1275 83.603513 
L 69.42975 85.431784 
L 69.732 87.237791 
L 70.03425 89.006186 
L 70.3365 90.720237 
L 70.63875 92.362577 
L 70.941 93.916271 
L 71.24325 95.366152 
L 71.5455 96.700196 
L 71.84775 97.910685 
L 72.15 98.994843 
L 72.45225 99.954817 
L 72.7545 100.796995 
L 73.05675 101.53089 
L 73.359 102.167849 
L 73.66125 102.719868 
L 73.9635 103.198664 
L 74.26575 103.615062 
L 74.568 103.978673 
L 74.87025 104.297789 
L 75.1725 104.57942 
L 75.47475 104.829416 
L 75.777 105.052618 
L 76.07925 105.253016 
L 76.3815 105.433897 
L 76.68375 105.597971 
L 76.986 105.74748 
L 77.28825 105.884287 
L 77.5905 106.00995 
L 77.89275 106.125775 
L 78.195 106.232869 
L 78.49725 106.332172 
L 78.7995 106.424488 
L 79.10175 106.51051 
L 79.404 106.590837 
L 79.70625 106.665991 
L 80.0085 106.736428 
L 80.31075 106.802552 
L 80.613 106.864717 
L 80.91525 106.923238 
L 81.2175 106.978397 
L 81.51975 107.030447 
L 81.822 107.079612 
L 82.12425 107.126099 
L 82.4265 107.170091 
L 82.72875 107.211757 
L 83.031 107.25125 
L 83.33325 107.28871 
L 83.6355 107.324264 
L 83.93775 107.35803 
L 84.24 107.390116 
L 84.24 12.96 
L 84.24 12.96 
L 83.93775 12.96 
L 83.6355 12.96 
L 83.33325 12.96 
L 83.031 12.96 
L 82.72875 12.96 
L 82.4265 12.96 
L 82.12425 12.96 
L 81.822 12.96 
L 81.51975 12.96 
L 81.2175 12.96 
L 80.91525 12.96 
L 80.613 12.96 
L 80.31075 12.96 
L 80.0085 12.96 
L 79.70625 12.96 
L 79.404 12.96 
L 79.10175 12.96 
L 78.7995 12.96 
L 78.49725 12.96 
L 78.195 12.96 
L 77.89275 12.96 
L 77.5905 12.96 
L 77.28825 12.96 
L 76.986 12.96 
L 76.68375 12.96 
L 76.3815 12.96 
L 76.07925 12.96 
L 75.777 12.96 
L 75.47475 12.96 
L 75.1725 12.96 
L 74.87025 12.96 
L 74.568 12.96 
L 74.26575 12.96 
L 73.9635 12.96 
L 73.66125 12.96 
L 73.359 12.96 
L 73.05675 12.96 
L 72.7545 12.96 
L 72.45225 12.96 
L 72.15 12.96 
L 71.84775 12.96 
L 71.5455 12.96 
L 71.24325 12.96 
L 70.941 12.96 
L 70.63875 12.96 
L 70.3365 12.96 
L 70.03425 12.96 
L 69.732 12.96 
L 69.42975 12.96 
L 69.1275 12.96 
L 68.82525 12.96 
L 68.523 12.96 
L 68.22075 12.96 
L 67.9185 12.96 
L 67.61625 12.96 
L 67.314 12.96 
L 67.01175 12.96 
L 66.7095 12.96 
L 66.40725 12.96 
L 66.105 12.96 
L 65.80275 12.96 
L 65.5005 12.96 
L 65.19825 12.96 
L 64.896 12.96 
L 64.59375 12.96 
L 64.2915 12.96 
L 63.98925 12.96 
L 63.687 12.96 
L 63.38475 12.96 
L 63.0825 12.96 
L 62.78025 12.96 
L 62.478 12.96 
L 62.17575 12.96 
L 61.8735 12.96 
L 61.57125 12.96 
L 61.269 12.96 
L 60.96675 12.96 
L 60.6645 12.96 
L 60.36225 12.96 
L 60.06 12.96 
L 59.75775 12.96 
L 59.4555 12.96 
L 59.15325 12.96 
L 58.851 12.96 
L 58.54875 12.96 
L 58.2465 12.96 
L 57.94425 12.96 
L 57.642 12.96 
L 57.33975 12.96 
L 57.0375 12.96 
L 56.73525 12.96 
L 56.433 12.96 
L 56.13075 12.96 
L 55.8285 12.96 
L 55.52625 12.96 
L 55.224 12.96 
L 54.92175 12.96 
L 54.6195 12.96 
L 54.31725 12.96 
L 54.015 12.96 
L 53.71275 12.96 
L 53.4105 12.96 
L 53.10825 12.96 
L 52.806 12.96 
L 52.50375 12.96 
L 52.2015 12.96 
L 51.89925 12.96 
L 51.597 12.96 
L 51.29475 12.96 
L 50.9925 12.96 
L 50.69025 12.96 
L 50.388 12.96 
L 50.08575 12.96 
L 49.7835 12.96 
L 49.48125 12.96 
L 49.179 12.96 
L 48.87675 12.96 
L 48.5745 12.96 
L 48.27225 12.96 
L 47.97 12.96 
L 47.66775 12.96 
L 47.3655 12.96 
L 47.06325 12.96 
L 46.761 12.96 
L 46.45875 12.96 
L 46.1565 12.96 
L 45.85425 12.96 
L 45.552 12.96 
L 45.24975 12.96 
L 44.9475 12.96 
L 44.64525 12.96 
L 44.343 12.96 
L 44.04075 12.96 
L 43.7385 12.96 
L 43.43625 12.96 
L 43.134 12.96 
L 42.83175 12.96 
L 42.5295 12.96 
L 42.22725 12.96 
L 41.925 12.96 
L 41.62275 12.96 
L 41.3205 12.96 
L 41.01825 12.96 
L 40.716 12.96 
L 40.41375 12.96 
L 40.1115 12.96 
L 39.80925 12.96 
L 39.507 12.96 
L 39.20475 12.96 
L 38.9025 12.96 
L 38.60025 12.96 
L 38.298 12.96 
L 37.99575 12.96 
L 37.6935 12.96 
L 37.39125 12.96 
L 37.089 12.96 
L 36.78675 12.96 
L 36.4845 12.96 
L 36.18225 12.96 
L 35.88 12.96 
L 35.57775 12.96 
L 35.2755 12.96 
L 34.97325 12.96 
L 34.671 12.96 
L 34.36875 12.96 
L 34.0665 12.96 
L 33.76425 12.96 
L 33.462 12.96 
L 33.15975 12.96 
L 32.8575 12.96 
L 32.55525 12.96 
L 32.253 12.96 
L 31.95075 12.96 
L 31.6485 12.96 
L 31.34625 12.96 
L 31.044 12.96 
L 30.74175 12.96 
L 30.4395 12.96 
L 30.13725 12.96 
L 29.835 12.96 
L 29.53275 12.96 
L 29.2305 12.96 
L 28.92825 12.96 
L 28.626 12.96 
L 28.32375 12.96 
L 28.0215 12.96 
L 27.71925 12.96 
L 27.417 12.96 
L 27.11475 12.96 
L 26.8125 12.96 
L 26.51025 12.96 
L 26.208 12.96 
L 25.90575 12.96 
L 25.6035 12.96 
L 25.30125 12.96 
L 24.999 12.96 
L 24.69675 12.96 
L 24.3945 12.96 
L 24.09225 12.96 
L 23.79 12.96 
L 23.48775 12.96 
L 23.1855 12.96 
L 22.88325 12.96 
L 22.581 12.96 
L 22.27875 12.96 
L 21.9765 12.96 
L 21.67425 12.96 
L 21.372 12.96 
L 21.06975 12.96 
L 20.7675 12.96 
L 20.46525 12.96 
L 20.163 12.96 
L 19.86075 12.96 
L 19.5585 12.96 
L 19.25625 12.96 
L 18.954 12.96 
L 18.65175 12.96 
L 18.3495 12.96 
L 18.04725 12.96 
L 17.745 12.96 
L 17.44275 12.96 
L 17.1405 12.96 
L 16.83825 12.96 
L 16.536 12.96 
L 16.23375 12.96 
L 15.9315 12.96 
L 15.62925 12.96 
L 15.327 12.96 
L 15.02475 12.96 
L 14.7225 12.96 
L 14.42025 12.96 
L 14.118 12.96 
L 13.81575 12.96 
L 13.5135 12.96 
L 13.21125 12.96 
L 12.909 12.96 
L 12.60675 12.96 
L 12.3045 12.96 
L 12.00225 12.96 
L 11.7 12.96 
z
" clip-path="url(#p96f644e8ed)" style="fill: #ffa09f; fill-opacity: 0.85"/>
   </g>
   <g id="matplotlib.axis_1">
    <g id="xtick_1">
     <g id="line2d_1">
      <defs>
       <path id="m58a558cde7" d="M 0 0 
L 0 3.5 
" style="stroke: #000000; stroke-width: 0.8"/>
      </defs>
      <g>
       <use xlink:href="#m58a558cde7" x="16.77709" y="96.12" style="stroke: #000000; stroke-width: 0.8"/>
      </g>
     </g>
     <g id="text_1">
      <!-- $\mathdefault{10^{-1}}$ -->
      <g transform="translate(9.72709 107.679063)">
       <text>
        <tspan x="0" y="-0.640625" style="font-size: 6px; font-family: 'DejaVu Sans'">1</tspan>
        <tspan x="3.817383" y="-0.640625" style="font-size: 6px; font-family: 'DejaVu Sans'">0</tspan>
        <tspan x="7.692188" y="-2.9375" style="font-size: 4.2px; font-family: 'DejaVu Sans'">−</tspan>
        <tspan x="11.211328" y="-2.9375" style="font-size: 4.2px; font-family: 'DejaVu Sans'">1</tspan>
       </text>
      </g>
     </g>
    </g>
    <g id="xtick_2">
     <g id="line2d_2">
      <g>
       <use xlink:href="#m58a558cde7" x="33.642817" y="96.12" style="stroke: #000000; stroke-width: 0.8"/>
      </g>
     </g>
     <g id="text_2">
      <!-- $\mathdefault{10^{0}}$ -->
      <g transform="translate(28.362817 107.679063)">
       <text>
        <tspan x="0" y="-0.585938" style="font-size: 6px; font-family: 'DejaVu Sans'">1</tspan>
        <tspan x="3.817383" y="-0.585938" style="font-size: 6px; font-family: 'DejaVu Sans'">0</tspan>
        <tspan x="7.692188" y="-2.882812" style="font-size: 4.2px; font-family: 'DejaVu Sans'">0</tspan>
       </text>
      </g>
     </g>
    </g>
    <g id="xtick_3">
     <g id="line2d_3">
      <g>
       <use xlink:href="#m58a558cde7" x="50.508545" y="96.12" style="stroke: #000000; stroke-width: 0.8"/>
      </g>
     </g>
     <g id="text_3">
      <!-- $\mathdefault{10^{1}}$ -->
      <g transform="translate(45.228545 107.679063)">
       <text>
        <tspan x="0" y="-0.640625" style="font-size: 6px; font-family: 'DejaVu Sans'">1</tspan>
        <tspan x="3.817383" y="-0.640625" style="font-size: 6px; font-family: 'DejaVu Sans'">0</tspan>
        <tspan x="7.692188" y="-2.9375" style="font-size: 4.2px; font-family: 'DejaVu Sans'">1</tspan>
       </text>
      </g>
     </g>
    </g>
    <g id="xtick_4">
     <g id="line2d_4">
      <g>
       <use xlink:href="#m58a558cde7" x="67.374272" y="96.12" style="stroke: #000000; stroke-width: 0.8"/>
      </g>
     </g>
     <g id="text_4">
      <!-- $\mathdefault{10^{2}}$ -->
      <g transform="translate(62.094272 107.679063)">
       <text>
        <tspan x="0" y="-0.585938" style="font-size: 6px; font-family: 'DejaVu Sans'">1</tspan>
        <tspan x="3.817383" y="-0.585938" style="font-size: 6px; font-family: 'DejaVu Sans'">0</tspan>
        <tspan x="7.692188" y="-2.882812" style="font-size: 4.2px; font-family: 'DejaVu Sans'">2</tspan>
       </text>
      </g>
     </g>
    </g>
    <g id="xtick_5">
     <g id="line2d_5">
      <g>
       <use xlink:href="#m58a558cde7" x="84.24" y="96.12" style="stroke: #000000; stroke-width: 0.8"/>
      </g>
     </g>
     <g id="text_5">
      <!-- $\mathdefault{10^{3}}$ -->
      <g transform="translate(78.96 107.679063)">
       <text>
        <tspan x="0" y="-0.585938" style="font-size: 6px; font-family: 'DejaVu Sans'">1</tspan>
        <tspan x="3.817383" y="-0.585938" style="font-size: 6px; font-family: 'DejaVu Sans'">0</tspan>
        <tspan x="7.692188" y="-2.882812" style="font-size: 4.2px; font-family: 'DejaVu Sans'">3</tspan>
       </text>
      </g>
     </g>
    </g>
    <g id="xtick_6"/>
    <g id="xtick_7"/>
    <g id="xtick_8"/>
    <g id="xtick_9"/>
    <g id="xtick_10"/>
    <g id="xtick_11"/>
    <g id="xtick_12"/>
    <g id="xtick_13"/>
    <g id="xtick_14"/>
    <g id="xtick_15"/>
    <g id="xtick_16"/>
    <g id="xtick_17"/>
    <g id="xtick_18"/>
    <g id="xtick_19"/>
    <g id="xtick_20"/>
    <g id="xtick_21"/>
    <g id="xtick_22"/>
    <g id="xtick_23"/>
    <g id="xtick_24"/>
    <g id="xtick_25"/>
    <g id="xtick_26"/>
    <g id="xtick_27"/>
    <g id="xtick_28"/>
    <g id="xtick_29"/>
    <g id="xtick_30"/>
    <g id="xtick_31"/>
    <g id="xtick_32"/>
    <g id="xtick_33"/>
    <g id="xtick_34"/>
    <g id="xtick_35"/>
    <g id="xtick_36"/>
    <g id="xtick_37"/>
    <g id="xtick_38"/>
    <g id="xtick_39"/>
    <g id="xtick_40"/>
    <g id="xtick_41"/>
    <g id="xtick_42"/>
    <g id="text_6">
     <text style="font-size: 6px; font-family: 'DejaVu Sans', 'Arial', 'Helvetica', 'Lucida Grande', 'Verdana', 'Geneva', 'Lucid', 'Avant Garde', sans-serif; text-anchor: middle" x="47.97" y="117.485938" transform="rotate(-0 47.97 117.485938)">Antibiotic concentration C (μg/mL)</text>
    </g>
   </g>
   <g id="matplotlib.axis_2">
    <g id="ytick_1">
     <g id="line2d_6">
      <defs>
       <path id="m4ed4a89f5c" d="M 0 0 
L -3.5 0 
" style="stroke: #000000; stroke-width: 0.8"/>
      </defs>
      <g>
       <use xlink:href="#m4ed4a89f5c" x="11.7" y="96.12" style="stroke: #000000; stroke-width: 0.8"/>
      </g>
     </g>
     <g id="text_7">
      <!-- $\mathdefault{10^{-5}}$ -->
      <g transform="translate(-9.4 98.399531)">
       <text>
        <tspan x="0" y="-0.640625" style="font-size: 6px; font-family: 'DejaVu Sans'">1</tspan>
        <tspan x="3.817383" y="-0.640625" style="font-size: 6px; font-family: 'DejaVu Sans'">0</tspan>
        <tspan x="7.692188" y="-2.9375" style="font-size: 4.2px; font-family: 'DejaVu Sans'">−</tspan>
        <tspan x="11.211328" y="-2.9375" style="font-size: 4.2px; font-family: 'DejaVu Sans'">5</tspan>
       </text>
      </g>
     </g>
    </g>
    <g id="ytick_2">
     <g id="line2d_7">
      <g>
       <use xlink:href="#m4ed4a89f5c" x="11.7" y="79.488" style="stroke: #000000; stroke-width: 0.8"/>
      </g>
     </g>
     <g id="text_8">
      <!-- $\mathdefault{10^{-4}}$ -->
      <g transform="translate(-9.4 81.767531)">
       <text>
        <tspan x="0" y="-0.640625" style="font-size: 6px; font-family: 'DejaVu Sans'">1</tspan>
        <tspan x="3.817383" y="-0.640625" style="font-size: 6px; font-family: 'DejaVu Sans'">0</tspan>
        <tspan x="7.692188" y="-2.9375" style="font-size: 4.2px; font-family: 'DejaVu Sans'">−</tspan>
        <tspan x="11.211328" y="-2.9375" style="font-size: 4.2px; font-family: 'DejaVu Sans'">4</tspan>
       </text>
      </g>
     </g>
    </g>
    <g id="ytick_3">
     <g id="line2d_8">
      <g>
       <use xlink:href="#m4ed4a89f5c" x="11.7" y="62.856" style="stroke: #000000; stroke-width: 0.8"/>
      </g>
     </g>
     <g id="text_9">
      <!-- $\mathdefault{10^{-3}}$ -->
      <g transform="translate(-9.4 65.135531)">
       <text>
        <tspan x="0" y="-0.585938" style="font-size: 6px; font-family: 'DejaVu Sans'">1</tspan>
        <tspan x="3.817383" y="-0.585938" style="font-size: 6px; font-family: 'DejaVu Sans'">0</tspan>
        <tspan x="7.692188" y="-2.882812" style="font-size: 4.2px; font-family: 'DejaVu Sans'">−</tspan>
        <tspan x="11.211328" y="-2.882812" style="font-size: 4.2px; font-family: 'DejaVu Sans'">3</tspan>
       </text>
      </g>
     </g>
    </g>
    <g id="ytick_4">
     <g id="line2d_9">
      <g>
       <use xlink:href="#m4ed4a89f5c" x="11.7" y="46.224" style="stroke: #000000; stroke-width: 0.8"/>
      </g>
     </g>
     <g id="text_10">
      <!-- $\mathdefault{10^{-2}}$ -->
      <g transform="translate(-9.4 48.503531)">
       <text>
        <tspan x="0" y="-0.585938" style="font-size: 6px; font-family: 'DejaVu Sans'">1</tspan>
        <tspan x="3.817383" y="-0.585938" style="font-size: 6px; font-family: 'DejaVu Sans'">0</tspan>
        <tspan x="7.692188" y="-2.882812" style="font-size: 4.2px; font-family: 'DejaVu Sans'">−</tspan>
        <tspan x="11.211328" y="-2.882812" style="font-size: 4.2px; font-family: 'DejaVu Sans'">2</tspan>
       </text>
      </g>
     </g>
    </g>
    <g id="ytick_5">
     <g id="line2d_10">
      <g>
       <use xlink:href="#m4ed4a89f5c" x="11.7" y="29.592" style="stroke: #000000; stroke-width: 0.8"/>
      </g>
     </g>
     <g id="text_11">
      <!-- $\mathdefault{10^{-1}}$ -->
      <g transform="translate(-9.4 31.871531)">
       <text>
        <tspan x="0" y="-0.640625" style="font-size: 6px; font-family: 'DejaVu Sans'">1</tspan>
        <tspan x="3.817383" y="-0.640625" style="font-size: 6px; font-family: 'DejaVu Sans'">0</tspan>
        <tspan x="7.692188" y="-2.9375" style="font-size: 4.2px; font-family: 'DejaVu Sans'">−</tspan>
        <tspan x="11.211328" y="-2.9375" style="font-size: 4.2px; font-family: 'DejaVu Sans'">1</tspan>
       </text>
      </g>
     </g>
    </g>
    <g id="ytick_6">
     <g id="line2d_11">
      <g>
       <use xlink:href="#m4ed4a89f5c" x="11.7" y="12.96" style="stroke: #000000; stroke-width: 0.8"/>
      </g>
     </g>
     <g id="text_12">
      <!-- $\mathdefault{10^{0}}$ -->
      <g transform="translate(-5.86 15.239531)">
       <text>
        <tspan x="0" y="-0.585938" style="font-size: 6px; font-family: 'DejaVu Sans'">1</tspan>
        <tspan x="3.817383" y="-0.585938" style="font-size: 6px; font-family: 'DejaVu Sans'">0</tspan>
        <tspan x="7.692188" y="-2.882812" style="font-size: 4.2px; font-family: 'DejaVu Sans'">0</tspan>
       </text>
      </g>
     </g>
    </g>
    <g id="ytick_7"/>
    <g id="ytick_8"/>
    <g id="ytick_9"/>
    <g id="ytick_10"/>
    <g id="ytick_11"/>
    <g id="ytick_12"/>
    <g id="ytick_13"/>
    <g id="ytick_14"/>
    <g id="ytick_15"/>
    <g id="ytick_16"/>
    <g id="ytick_17"/>
    <g id="ytick_18"/>
    <g id="ytick_19"/>
    <g id="ytick_20"/>
    <g id="ytick_21"/>
    <g id="ytick_22"/>
    <g id="ytick_23"/>
    <g id="ytick_24"/>
    <g id="ytick_25"/>
    <g id="ytick_26"/>
    <g id="ytick_27"/>
    <g id="ytick_28"/>
    <g id="ytick_29"/>
    <g id="ytick_30"/>
    <g id="ytick_31"/>
    <g id="ytick_32"/>
    <g id="ytick_33"/>
    <g id="ytick_34"/>
    <g id="ytick_35"/>
    <g id="ytick_36"/>
    <g id="ytick_37"/>
    <g id="ytick_38"/>
    <g id="ytick_39"/>
    <g id="ytick_40"/>
    <g id="ytick_41"/>
    <g id="ytick_42"/>
    <g id="ytick_43"/>
    <g id="ytick_44"/>
    <g id="ytick_45"/>
    <g id="ytick_46"/>
    <g id="text_13">
     <text style="font-size: 6px; font-family: 'DejaVu Sans', 'Arial', 'Helvetica', 'Lucida Grande', 'Verdana', 'Geneva', 'Lucid', 'Avant Garde', sans-serif; text-anchor: middle" x="-14.647812" y="54.54" transform="rotate(-90 -14.647812 54.54)">Frac of population at Ab removal</text>
    </g>
   </g>
   <g id="patch_3">
    <path d="M 11.7 96.12 
L 11.7 12.96 
" style="fill: none; stroke: #000000; stroke-width: 0.5; stroke-linejoin: miter; stroke-linecap: square"/>
   </g>
   <g id="patch_4">
    <path d="M 11.7 96.12 
L 84.24 96.12 
" style="fill: none; stroke: #000000; stroke-width: 0.5; stroke-linejoin: miter; stroke-linecap: square"/>
   </g>
  </g>
 </g>
 <defs>
  <clipPath id="p96f644e8ed">
   <rect x="11.7" y="12.96" width="72.54" height="83.16"/>
  </clipPath>
 </defs>
</svg>
