<?xml version="1.0" encoding="utf-8" standalone="no"?>
<!DOCTYPE svg PUBLIC "-//W3C//DTD SVG 1.1//EN"
  "http://www.w3.org/Graphics/SVG/1.1/DTD/svg11.dtd">
<svg xmlns:xlink="http://www.w3.org/1999/xlink" width="61.2pt" height="28.8pt" viewBox="0 0 61.2 28.8" xmlns="http://www.w3.org/2000/svg" version="1.1">
 <metadata>
  <rdf:RDF xmlns:dc="http://purl.org/dc/elements/1.1/" xmlns:cc="http://creativecommons.org/ns#" xmlns:rdf="http://www.w3.org/1999/02/22-rdf-syntax-ns#">
   <cc:Work>
    <dc:type rdf:resource="http://purl.org/dc/dcmitype/StillImage"/>
    <dc:date>2026-02-16T19:46:10.720383</dc:date>
    <dc:format>image/svg+xml</dc:format>
    <dc:creator>
     <cc:Agent>
      <dc:title>Matplotlib v3.10.8, https://matplotlib.org/</dc:title>
     </cc:Agent>
    </dc:creator>
   </cc:Work>
  </rdf:RDF>
 </metadata>
 <defs>
  <style type="text/css">*{stroke-linejoin: round; stroke-linecap: butt}</style>
 </defs>
 <g id="figure_1">
  <g id="patch_1">
   <path d="M 0 28.8 
L 61.2 28.8 
L 61.2 0 
L 0 0 
L 0 28.8 
z
" style="fill: none"/>
  </g>
  <g id="axes_1">
   <g id="patch_2">
    <path d="M 7.65 25.632 
L 55.08 25.632 
L 55.08 3.456 
L 7.65 3.456 
L 7.65 25.632 
z
" style="fill: none"/>
   </g>
   <g id="matplotlib.axis_1">
    <g id="xtick_1">
     <g id="line2d_1">
      <defs>
       <path id="m33ea75ebf0" d="M 0 0 
L 0 3.5 
" style="stroke: #000000; stroke-width: 0.8"/>
      </defs>
      <g>
       <use xlink:href="#m33ea75ebf0" x="9.805909" y="25.632" style="stroke: #000000; stroke-width: 0.8"/>
      </g>
     </g>
     <g id="text_1">
      <text style="font-size: 6px; font-family: 'DejaVu Sans', 'Arial', 'Helvetica', 'Lucida Grande', 'Verdana', 'Geneva', 'Lucid', 'Avant Garde', sans-serif; text-anchor: middle" x="9.805909" y="37.191063" transform="rotate(-0 9.805909 37.191063)">0</text>
     </g>
    </g>
    <g id="xtick_2">
     <g id="line2d_2">
      <g>
       <use xlink:href="#m33ea75ebf0" x="27.053182" y="25.632" style="stroke: #000000; stroke-width: 0.8"/>
      </g>
     </g>
     <g id="text_2">
      <text style="font-size: 6px; font-family: 'DejaVu Sans', 'Arial', 'Helvetica', 'Lucida Grande', 'Verdana', 'Geneva', 'Lucid', 'Avant Garde', sans-serif; text-anchor: middle" x="27.053182" y="37.191063" transform="rotate(-0 27.053182 37.191063)">4</text>
     </g>
    </g>
    <g id="xtick_3">
     <g id="line2d_3">
      <g>
       <use xlink:href="#m33ea75ebf0" x="44.300455" y="25.632" style="stroke: #000000; stroke-width: 0.8"/>
      </g>
     </g>
     <g id="text_3">
      <text style="font-size: 6px; font-family: 'DejaVu Sans', 'Arial', 'Helvetica', 'Lucida Grande', 'Verdana', 'Geneva', 'Lucid', 'Avant Garde', sans-serif; text-anchor: middle" x="44.300455" y="37.191063" transform="rotate(-0 44.300455 37.191063)">8</text>
     </g>
    </g>
    <g id="text_4">
     <text style="font-size: 6px; font-family: 'DejaVu Sans', 'Arial', 'Helvetica', 'Lucida Grande', 'Verdana', 'Geneva', 'Lucid', 'Avant Garde', sans-serif; text-anchor: middle" x="31.365" y="46.997938" transform="rotate(-0 31.365 46.997938)">τ (h)</text>
    </g>
   </g>
   <g id="matplotlib.axis_2">
    <g id="ytick_1">
     <g id="line2d_4">
      <defs>
       <path id="me4c68ab16a" d="M 0 0 
L -3.5 0 
" style="stroke: #000000; stroke-width: 0.8"/>
      </defs>
      <g>
       <use xlink:href="#me4c68ab16a" x="7.65" y="24.624" style="stroke: #000000; stroke-width: 0.8"/>
      </g>
     </g>
     <g id="text_5">
      <text style="font-size: 6px; font-family: 'DejaVu Sans', 'Arial', 'Helvetica', 'Lucida Grande', 'Verdana', 'Geneva', 'Lucid', 'Avant Garde', sans-serif; text-anchor: end" x="0.65" y="26.903531" transform="rotate(-0 0.65 26.903531)">0.0</text>
     </g>
    </g>
    <g id="ytick_2">
     <g id="line2d_5">
      <g>
       <use xlink:href="#me4c68ab16a" x="7.65" y="14.544" style="stroke: #000000; stroke-width: 0.8"/>
      </g>
     </g>
     <g id="text_6">
      <text style="font-size: 6px; font-family: 'DejaVu Sans', 'Arial', 'Helvetica', 'Lucida Grande', 'Verdana', 'Geneva', 'Lucid', 'Avant Garde', sans-serif; text-anchor: end" x="0.65" y="16.823531" transform="rotate(-0 0.65 16.823531)">0.5</text>
     </g>
    </g>
    <g id="ytick_3">
     <g id="line2d_6">
      <g>
       <use xlink:href="#me4c68ab16a" x="7.65" y="4.464" style="stroke: #000000; stroke-width: 0.8"/>
      </g>
     </g>
     <g id="text_7">
      <text style="font-size: 6px; font-family: 'DejaVu Sans', 'Arial', 'Helvetica', 'Lucida Grande', 'Verdana', 'Geneva', 'Lucid', 'Avant Garde', sans-serif; text-anchor: end" x="0.65" y="6.743531" transform="rotate(-0 0.65 6.743531)">1.0</text>
     </g>
    </g>
    <g id="text_8">
     <text style="font-size: 6px; font-family: 'DejaVu Sans', 'Arial', 'Helvetica', 'Lucida Grande', 'Verdana', 'Geneva', 'Lucid', 'Avant Garde', sans-serif; text-anchor: middle" x="-14.139687" y="14.544" transform="rotate(-90 -14.139687 14.544)">Survivor fraction</text>
    </g>
   </g>
   <g id="line2d_7">
    <path d="M 9.805909 24.624 
L 11.292743 24.383913 
L 12.779577 22.035211 
L 14.266411 18.620048 
L 15.753245 16.304164 
L 17.240078 15.82075 
L 18.726912 17.137098 
L 20.213746 19.500313 
L 21.70058 21.759242 
L 23.187414 23.256668 
L 24.674248 24.038088 
L 26.161082 24.389815 
L 27.647915 24.534573 
L 29.134749 24.590902 
L 30.621583 24.61202 
L 32.108417 24.619733 
L 33.595251 24.622499 
L 35.082085 24.623476 
L 36.568918 24.623818 
L 38.055752 24.623937 
L 39.542586 24.623978 
L 41.02942 24.623993 
L 42.516254 24.623997 
L 44.003088 24.623999 
L 45.489922 24.624 
L 46.976755 24.624 
L 48.463589 24.624 
L 49.950423 24.624 
L 51.437257 24.624 
L 52.924091 24.624 
" clip-path="url(#p2c353f1941)" style="fill: none; stroke: #c900c9; stroke-linecap: square"/>
   </g>
   <g id="line2d_8">
    <path d="M 9.805909 24.624 
L 11.292743 24.61602 
L 12.779577 24.401845 
L 14.266411 23.578219 
L 15.753245 21.854808 
L 17.240078 19.008662 
L 18.726912 15.151392 
L 20.213746 11.098278 
L 21.70058 7.928673 
L 23.187414 6.038139 
L 24.674248 5.114463 
L 26.161082 4.717033 
L 27.647915 4.558678 
L 29.134749 4.49851 
L 30.621583 4.47635 
L 32.108417 4.468361 
L 33.595251 4.465525 
L 35.082085 4.464529 
L 36.568918 4.464183 
L 38.055752 4.464063 
L 39.542586 4.464022 
L 41.02942 4.464007 
L 42.516254 4.464003 
L 44.003088 4.464001 
L 45.489922 4.464 
L 46.976755 4.464 
L 48.463589 4.464 
L 49.950423 4.464 
L 51.437257 4.464 
L 52.924091 4.464 
" clip-path="url(#p2c353f1941)" style="fill: none; stroke: #f7bb25; stroke-linecap: square"/>
   </g>
   <g id="line2d_9">
    <path d="M 9.805909 4.464 
L 11.292743 4.712067 
L 12.779577 7.274944 
L 14.266411 11.513733 
L 15.753245 15.553028 
L 17.240078 18.882588 
L 18.726912 21.42351 
L 20.213746 23.113409 
L 21.70058 24.024085 
L 23.187414 24.417192 
L 24.674248 24.559449 
L 26.161082 24.605153 
L 27.647915 24.618749 
L 29.134749 24.622588 
L 30.621583 24.623631 
L 32.108417 24.623906 
L 33.595251 24.623976 
L 35.082085 24.623994 
L 36.568918 24.623999 
L 38.055752 24.624 
L 39.542586 24.624 
L 41.02942 24.624 
L 42.516254 24.624 
L 44.003088 24.624 
L 45.489922 24.624 
L 46.976755 24.624 
L 48.463589 24.624 
L 49.950423 24.624 
L 51.437257 24.624 
L 52.924091 24.624 
" clip-path="url(#p2c353f1941)" style="fill: none; stroke: #00cbcb; stroke-linecap: square"/>
   </g>
   <g id="patch_3">
    <path d="M 7.65 25.632 
L 7.65 3.456 
" style="fill: none; stroke: #000000; stroke-width: 0.5; stroke-linejoin: miter; stroke-linecap: square"/>
   </g>
   <g id="patch_4">
    <path d="M 7.65 25.632 
L 55.08 25.632 
" style="fill: none; stroke: #000000; stroke-width: 0.5; stroke-linejoin: miter; stroke-linecap: square"/>
   </g>
  </g>
 </g>
 <defs>
  <clipPath id="p2c353f1941">
   <rect x="7.65" y="3.456" width="47.43" height="22.176"/>
  </clipPath>
 </defs>
</svg>
