<?xml version="1.0" encoding="utf-8" standalone="no"?>
<!DOCTYPE svg PUBLIC "-//W3C//DTD SVG 1.1//EN"
  "http://www.w3.org/Graphics/SVG/1.1/DTD/svg11.dtd">
<svg xmlns:xlink="http://www.w3.org/1999/xlink" width="93.6pt" height="108pt" viewBox="0 0 93.6 108" xmlns="http://www.w3.org/2000/svg" version="1.1">
 <metadata>
  <rdf:RDF xmlns:dc="http://purl.org/dc/elements/1.1/" xmlns:cc="http://creativecommons.org/ns#" xmlns:rdf="http://www.w3.org/1999/02/22-rdf-syntax-ns#">
   <cc:Work>
    <dc:type rdf:resource="http://purl.org/dc/dcmitype/StillImage"/>
    <dc:date>2026-02-16T13:11:41.707725</dc:date>
    <dc:format>image/svg+xml</dc:format>
    <dc:creator>
     <cc:Agent>
      <dc:title>Matplotlib v3.10.8, https://matplotlib.org/</dc:title>
     </cc:Agent>
    </dc:creator>
   </cc:Work>
  </rdf:RDF>
 </metadata>
 <defs>
  <style type="text/css">*{stroke-linejoin: round; stroke-linecap: butt}</style>
 </defs>
 <g id="figure_1">
  <g id="patch_1">
   <path d="M 0 108 
L 93.6 108 
L 93.6 0 
L 0 0 
L 0 108 
z
" style="fill: none"/>
  </g>
  <g id="axes_1">
   <g id="patch_2">
    <path d="M 11.7 96.12 
L 84.24 96.12 
L 84.24 12.96 
L 11.7 12.96 
L 11.7 96.12 
z
" style="fill: none"/>
   </g>
   <g id="FillBetweenPolyCollection_1">
    <path d="M 11.7 84.399583 
L 11.7 16644.96 
L 12.00225 16644.96 
L 12.3045 16644.96 
L 12.60675 16644.96 
L 12.909 16644.96 
L 13.21125 16644.96 
L 13.5135 16644.96 
L 13.81575 16644.96 
L 14.118 16644.96 
L 14.42025 16644.96 
L 14.7225 16644.96 
L 15.02475 16644.96 
L 15.327 16644.96 
L 15.62925 16644.96 
L 15.9315 16644.96 
L 16.23375 16644.96 
L 16.536 16644.96 
L 16.83825 16644.96 
L 17.1405 16644.96 
L 17.44275 16644.96 
L 17.745 16644.96 
L 18.04725 16644.96 
L 18.3495 16644.96 
L 18.65175 16644.96 
L 18.954 16644.96 
L 19.25625 16644.96 
L 19.5585 16644.96 
L 19.86075 16644.96 
L 20.163 16644.96 
L 20.46525 16644.96 
L 20.7675 16644.96 
L 21.06975 16644.96 
L 21.372 16644.96 
L 21.67425 16644.96 
L 21.9765 16644.96 
L 22.27875 16644.96 
L 22.581 16644.96 
L 22.88325 16644.96 
L 23.1855 16644.96 
L 23.48775 16644.96 
L 23.79 16644.96 
L 24.09225 16644.96 
L 24.3945 16644.96 
L 24.69675 16644.96 
L 24.999 16644.96 
L 25.30125 16644.96 
L 25.6035 16644.96 
L 25.90575 16644.96 
L 26.208 16644.96 
L 26.51025 16644.96 
L 26.8125 16644.96 
L 27.11475 16644.96 
L 27.417 16644.96 
L 27.71925 16644.96 
L 28.0215 16644.96 
L 28.32375 16644.96 
L 28.626 16644.96 
L 28.92825 16644.96 
L 29.2305 16644.96 
L 29.53275 16644.96 
L 29.835 16644.96 
L 30.13725 16644.96 
L 30.4395 16644.96 
L 30.74175 16644.96 
L 31.044 16644.96 
L 31.34625 16644.96 
L 31.6485 16644.96 
L 31.95075 16644.96 
L 32.253 16644.96 
L 32.55525 16644.96 
L 32.8575 16644.96 
L 33.15975 16644.96 
L 33.462 16644.96 
L 33.76425 16644.96 
L 34.0665 16644.96 
L 34.36875 16644.96 
L 34.671 16644.96 
L 34.97325 16644.96 
L 35.2755 16644.96 
L 35.57775 16644.96 
L 35.88 16644.96 
L 36.18225 16644.96 
L 36.4845 16644.96 
L 36.78675 16644.96 
L 37.089 16644.96 
L 37.39125 16644.96 
L 37.6935 16644.96 
L 37.99575 16644.96 
L 38.298 16644.96 
L 38.60025 16644.96 
L 38.9025 16644.96 
L 39.20475 16644.96 
L 39.507 16644.96 
L 39.80925 16644.96 
L 40.1115 16644.96 
L 40.41375 16644.96 
L 40.716 16644.96 
L 41.01825 16644.96 
L 41.3205 16644.96 
L 41.62275 16644.96 
L 41.925 16644.96 
L 42.22725 16644.96 
L 42.5295 16644.96 
L 42.83175 16644.96 
L 43.134 16644.96 
L 43.43625 16644.96 
L 43.7385 16644.96 
L 44.04075 16644.96 
L 44.343 16644.96 
L 44.64525 16644.96 
L 44.9475 16644.96 
L 45.24975 16644.96 
L 45.552 16644.96 
L 45.85425 16644.96 
L 46.1565 16644.96 
L 46.45875 16644.96 
L 46.761 16644.96 
L 47.06325 16644.96 
L 47.3655 16644.96 
L 47.66775 16644.96 
L 47.97 16644.96 
L 48.27225 16644.96 
L 48.5745 16644.96 
L 48.87675 16644.96 
L 49.179 16644.96 
L 49.48125 16644.96 
L 49.7835 16644.96 
L 50.08575 16644.96 
L 50.388 16644.96 
L 50.69025 16644.96 
L 50.9925 16644.96 
L 51.29475 16644.96 
L 51.597 16644.96 
L 51.89925 16644.96 
L 52.2015 16644.96 
L 52.50375 16644.96 
L 52.806 16644.96 
L 53.10825 16644.96 
L 53.4105 16644.96 
L 53.71275 16644.96 
L 54.015 16644.96 
L 54.31725 16644.96 
L 54.6195 16644.96 
L 54.92175 16644.96 
L 55.224 16644.96 
L 55.52625 16644.96 
L 55.8285 16644.96 
L 56.13075 16644.96 
L 56.433 16644.96 
L 56.73525 16644.96 
L 57.0375 16644.96 
L 57.33975 16644.96 
L 57.642 16644.96 
L 57.94425 16644.96 
L 58.2465 16644.96 
L 58.54875 16644.96 
L 58.851 16644.96 
L 59.15325 16644.96 
L 59.4555 16644.96 
L 59.75775 16644.96 
L 60.06 16644.96 
L 60.36225 16644.96 
L 60.6645 16644.96 
L 60.96675 16644.96 
L 61.269 16644.96 
L 61.57125 16644.96 
L 61.8735 16644.96 
L 62.17575 16644.96 
L 62.478 16644.96 
L 62.78025 16644.96 
L 63.0825 16644.96 
L 63.38475 16644.96 
L 63.687 16644.96 
L 63.98925 16644.96 
L 64.2915 16644.96 
L 64.59375 16644.96 
L 64.896 16644.96 
L 65.19825 16644.96 
L 65.5005 16644.96 
L 65.80275 16644.96 
L 66.105 16644.96 
L 66.40725 16644.96 
L 66.7095 16644.96 
L 67.01175 16644.96 
L 67.314 16644.96 
L 67.61625 16644.96 
L 67.9185 16644.96 
L 68.22075 16644.96 
L 68.523 16644.96 
L 68.82525 16644.96 
L 69.1275 16644.96 
L 69.42975 16644.96 
L 69.732 16644.96 
L 70.03425 16644.96 
L 70.3365 16644.96 
L 70.63875 16644.96 
L 70.941 16644.96 
L 71.24325 16644.96 
L 71.5455 16644.96 
L 71.84775 16644.96 
L 72.15 16644.96 
L 72.45225 16644.96 
L 72.7545 16644.96 
L 73.05675 16644.96 
L 73.359 16644.96 
L 73.66125 16644.96 
L 73.9635 16644.96 
L 74.26575 16644.96 
L 74.568 16644.96 
L 74.87025 16644.96 
L 75.1725 16644.96 
L 75.47475 16644.96 
L 75.777 16644.96 
L 76.07925 16644.96 
L 76.3815 16644.96 
L 76.68375 16644.96 
L 76.986 16644.96 
L 77.28825 16644.96 
L 77.5905 16644.96 
L 77.89275 16644.96 
L 78.195 16644.96 
L 78.49725 16644.96 
L 78.7995 16644.96 
L 79.10175 16644.96 
L 79.404 16644.96 
L 79.70625 16644.96 
L 80.0085 16644.96 
L 80.31075 16644.96 
L 80.613 16644.96 
L 80.91525 16644.96 
L 81.2175 16644.96 
L 81.51975 16644.96 
L 81.822 16644.96 
L 82.12425 16644.96 
L 82.4265 16644.96 
L 82.72875 16644.96 
L 83.031 16644.96 
L 83.33325 16644.96 
L 83.6355 16644.96 
L 83.93775 16644.96 
L 84.24 16644.96 
L 84.24 57.445409 
L 84.24 57.445409 
L 83.93775 57.560641 
L 83.6355 57.676421 
L 83.33325 57.79275 
L 83.031 57.909632 
L 82.72875 58.027069 
L 82.4265 58.145064 
L 82.12425 58.263619 
L 81.822 58.382737 
L 81.51975 58.502421 
L 81.2175 58.622673 
L 80.91525 58.743496 
L 80.613 58.864892 
L 80.31075 58.986864 
L 80.0085 59.109416 
L 79.70625 59.232548 
L 79.404 59.356265 
L 79.10175 59.480568 
L 78.7995 59.60546 
L 78.49725 59.730945 
L 78.195 59.857024 
L 77.89275 59.9837 
L 77.5905 60.110977 
L 77.28825 60.238856 
L 76.986 60.36734 
L 76.68375 60.496432 
L 76.3815 60.626134 
L 76.07925 60.756449 
L 75.777 60.887381 
L 75.47475 61.01893 
L 75.1725 61.151101 
L 74.87025 61.283895 
L 74.568 61.417315 
L 74.26575 61.551364 
L 73.9635 61.686044 
L 73.66125 61.821359 
L 73.359 61.957309 
L 73.05675 62.093899 
L 72.7545 62.231131 
L 72.45225 62.369007 
L 72.15 62.507529 
L 71.84775 62.6467 
L 71.5455 62.786524 
L 71.24325 62.927001 
L 70.941 63.068135 
L 70.63875 63.209928 
L 70.3365 63.352382 
L 70.03425 63.495501 
L 69.732 63.639285 
L 69.42975 63.783739 
L 69.1275 63.928863 
L 68.82525 64.07466 
L 68.523 64.221133 
L 68.22075 64.368283 
L 67.9185 64.516114 
L 67.61625 64.664626 
L 67.314 64.813823 
L 67.01175 64.963707 
L 66.7095 65.114278 
L 66.40725 65.265541 
L 66.105 65.417496 
L 65.80275 65.570145 
L 65.5005 65.723491 
L 65.19825 65.877535 
L 64.896 66.032279 
L 64.59375 66.187725 
L 64.2915 66.343874 
L 63.98925 66.500731 
L 63.687 66.657892 
L 63.38475 66.813634 
L 63.0825 66.975537 
L 62.78025 67.135232 
L 62.478 67.295636 
L 62.17575 67.456753 
L 61.8735 67.618586 
L 61.57125 67.781135 
L 61.269 67.944402 
L 60.96675 68.108387 
L 60.6645 68.27309 
L 60.36225 68.438514 
L 60.06 68.604659 
L 59.75775 68.771525 
L 59.4555 68.939112 
L 59.15325 69.107422 
L 58.851 69.276454 
L 58.54875 69.446209 
L 58.2465 69.616686 
L 57.94425 69.787887 
L 57.642 69.959809 
L 57.33975 70.132454 
L 57.0375 70.305821 
L 56.73525 70.479908 
L 56.433 70.654716 
L 56.13075 70.830243 
L 55.8285 71.006489 
L 55.52625 71.183452 
L 55.224 71.361131 
L 54.92175 71.539524 
L 54.6195 71.71863 
L 54.31725 71.898446 
L 54.015 72.078971 
L 53.71275 72.260202 
L 53.4105 72.442137 
L 53.10825 72.624772 
L 52.806 72.808105 
L 52.50375 72.992133 
L 52.2015 73.176852 
L 51.89925 73.362259 
L 51.597 73.548349 
L 51.29475 73.735118 
L 50.9925 73.922562 
L 50.69025 74.110676 
L 50.388 74.299455 
L 50.08575 74.488893 
L 49.7835 74.678984 
L 49.48125 74.869723 
L 49.179 75.061104 
L 48.87675 75.253118 
L 48.5745 75.445759 
L 48.27225 75.63902 
L 47.97 75.832893 
L 47.66775 76.027368 
L 47.3655 76.222438 
L 47.06325 76.418093 
L 46.761 76.614323 
L 46.45875 76.811118 
L 46.1565 77.008468 
L 45.85425 77.206361 
L 45.552 77.404785 
L 45.24975 77.603729 
L 44.9475 77.803179 
L 44.64525 78.003122 
L 44.343 78.203543 
L 44.04075 78.404428 
L 43.7385 78.605762 
L 43.43625 78.807529 
L 43.134 79.009711 
L 42.83175 79.212292 
L 42.5295 79.415253 
L 42.22725 79.618574 
L 41.925 79.822237 
L 41.62275 80.02622 
L 41.3205 80.230501 
L 41.01825 80.435059 
L 40.716 80.63987 
L 40.41375 80.844909 
L 40.1115 81.05015 
L 39.80925 81.255568 
L 39.507 81.461134 
L 39.20475 81.666821 
L 38.9025 81.872597 
L 38.60025 82.078432 
L 38.298 82.284293 
L 37.99575 82.490147 
L 37.6935 82.695958 
L 37.39125 82.90169 
L 37.089 83.107304 
L 36.78675 83.312762 
L 36.4845 83.518022 
L 36.18225 83.723042 
L 35.88 83.927776 
L 35.57775 84.132178 
L 35.2755 84.336201 
L 34.97325 84.539793 
L 34.671 84.742903 
L 34.36875 84.945477 
L 34.0665 85.147458 
L 33.76425 85.348787 
L 33.462 85.549403 
L 33.15975 85.749243 
L 32.8575 85.94824 
L 32.55525 86.146325 
L 32.253 86.343427 
L 31.95075 86.539471 
L 31.6485 86.734379 
L 31.34625 86.928071 
L 31.044 87.120461 
L 30.74175 87.311461 
L 30.4395 87.500981 
L 30.13725 87.688925 
L 29.835 87.875192 
L 29.53275 88.05968 
L 29.2305 88.242279 
L 28.92825 88.422876 
L 28.626 88.601354 
L 28.32375 88.777588 
L 28.0215 88.95145 
L 27.71925 89.122805 
L 27.417 89.291512 
L 27.11475 89.457423 
L 26.8125 89.620382 
L 26.51025 89.780229 
L 26.208 89.936793 
L 25.90575 90.089897 
L 25.6035 90.239351 
L 25.30125 90.384961 
L 24.999 90.52652 
L 24.69675 90.663808 
L 24.3945 90.796598 
L 24.09225 90.924648 
L 23.79 91.047702 
L 23.48775 91.165492 
L 23.1855 91.277732 
L 22.88325 91.384122 
L 22.581 91.484341 
L 22.27875 91.57805 
L 21.9765 91.664891 
L 21.67425 91.744479 
L 21.372 91.816408 
L 21.06975 91.880242 
L 20.7675 91.935516 
L 20.46525 91.981734 
L 20.163 92.018364 
L 19.86075 92.044834 
L 19.5585 92.060531 
L 19.25625 92.064794 
L 18.954 92.05691 
L 18.65175 92.036109 
L 18.3495 92.001556 
L 18.04725 91.952348 
L 17.745 91.887499 
L 17.44275 91.80594 
L 17.1405 91.706501 
L 16.83825 91.5879 
L 16.536 91.448734 
L 16.23375 91.287458 
L 15.9315 91.102369 
L 15.62925 90.891584 
L 15.327 90.653016 
L 15.02475 90.384344 
L 14.7225 90.082979 
L 14.42025 89.746022 
L 14.118 89.370221 
L 13.81575 88.951909 
L 13.5135 88.486939 
L 13.21125 87.970599 
L 12.909 87.397519 
L 12.60675 86.761542 
L 12.3045 86.055583 
L 12.00225 85.271443 
L 11.7 84.399583 
z
" clip-path="url(#p97294e57ad)" style="fill: #ff8ef4; fill-opacity: 0.85"/>
   </g>
   <g id="FillBetweenPolyCollection_2">
    <path d="M 11.7 84.399583 
L 11.7 84.399583 
L 12.00225 85.271443 
L 12.3045 86.055583 
L 12.60675 86.761542 
L 12.909 87.397519 
L 13.21125 87.970599 
L 13.5135 88.486939 
L 13.81575 88.951909 
L 14.118 89.370221 
L 14.42025 89.746022 
L 14.7225 90.082979 
L 15.02475 90.384344 
L 15.327 90.653016 
L 15.62925 90.891584 
L 15.9315 91.102369 
L 16.23375 91.287458 
L 16.536 91.448734 
L 16.83825 91.5879 
L 17.1405 91.706501 
L 17.44275 91.80594 
L 17.745 91.887499 
L 18.04725 91.952348 
L 18.3495 92.001556 
L 18.65175 92.036109 
L 18.954 92.05691 
L 19.25625 92.064794 
L 19.5585 92.060531 
L 19.86075 92.044834 
L 20.163 92.018364 
L 20.46525 91.981734 
L 20.7675 91.935516 
L 21.06975 91.880242 
L 21.372 91.816408 
L 21.67425 91.744479 
L 21.9765 91.664891 
L 22.27875 91.57805 
L 22.581 91.484341 
L 22.88325 91.384122 
L 23.1855 91.277732 
L 23.48775 91.165492 
L 23.79 91.047702 
L 24.09225 90.924648 
L 24.3945 90.796598 
L 24.69675 90.663808 
L 24.999 90.52652 
L 25.30125 90.384961 
L 25.6035 90.239351 
L 25.90575 90.089897 
L 26.208 89.936793 
L 26.51025 89.780229 
L 26.8125 89.620382 
L 27.11475 89.457423 
L 27.417 89.291512 
L 27.71925 89.122805 
L 28.0215 88.95145 
L 28.32375 88.777588 
L 28.626 88.601354 
L 28.92825 88.422876 
L 29.2305 88.242279 
L 29.53275 88.05968 
L 29.835 87.875192 
L 30.13725 87.688925 
L 30.4395 87.500981 
L 30.74175 87.311461 
L 31.044 87.120461 
L 31.34625 86.928071 
L 31.6485 86.734379 
L 31.95075 86.539471 
L 32.253 86.343427 
L 32.55525 86.146325 
L 32.8575 85.94824 
L 33.15975 85.749243 
L 33.462 85.549403 
L 33.76425 85.348787 
L 34.0665 85.147458 
L 34.36875 84.945477 
L 34.671 84.742903 
L 34.97325 84.539793 
L 35.2755 84.336201 
L 35.57775 84.132178 
L 35.88 83.927776 
L 36.18225 83.723042 
L 36.4845 83.518022 
L 36.78675 83.312762 
L 37.089 83.107304 
L 37.39125 82.90169 
L 37.6935 82.695958 
L 37.99575 82.490147 
L 38.298 82.284293 
L 38.60025 82.078432 
L 38.9025 81.872597 
L 39.20475 81.666821 
L 39.507 81.461134 
L 39.80925 81.255568 
L 40.1115 81.05015 
L 40.41375 80.844909 
L 40.716 80.63987 
L 41.01825 80.435059 
L 41.3205 80.230501 
L 41.62275 80.02622 
L 41.925 79.822237 
L 42.22725 79.618574 
L 42.5295 79.415253 
L 42.83175 79.212292 
L 43.134 79.009711 
L 43.43625 78.807529 
L 43.7385 78.605762 
L 44.04075 78.404428 
L 44.343 78.203543 
L 44.64525 78.003122 
L 44.9475 77.803179 
L 45.24975 77.603729 
L 45.552 77.404785 
L 45.85425 77.206361 
L 46.1565 77.008468 
L 46.45875 76.811118 
L 46.761 76.614323 
L 47.06325 76.418093 
L 47.3655 76.222438 
L 47.66775 76.027368 
L 47.97 75.832893 
L 48.27225 75.63902 
L 48.5745 75.445759 
L 48.87675 75.253118 
L 49.179 75.061104 
L 49.48125 74.869723 
L 49.7835 74.678984 
L 50.08575 74.488893 
L 50.388 74.299455 
L 50.69025 74.110676 
L 50.9925 73.922562 
L 51.29475 73.735118 
L 51.597 73.548349 
L 51.89925 73.362259 
L 52.2015 73.176852 
L 52.50375 72.992133 
L 52.806 72.808105 
L 53.10825 72.624772 
L 53.4105 72.442137 
L 53.71275 72.260202 
L 54.015 72.078971 
L 54.31725 71.898446 
L 54.6195 71.71863 
L 54.92175 71.539524 
L 55.224 71.361131 
L 55.52625 71.183452 
L 55.8285 71.006489 
L 56.13075 70.830243 
L 56.433 70.654716 
L 56.73525 70.479908 
L 57.0375 70.305821 
L 57.33975 70.132454 
L 57.642 69.959809 
L 57.94425 69.787887 
L 58.2465 69.616686 
L 58.54875 69.446209 
L 58.851 69.276454 
L 59.15325 69.107422 
L 59.4555 68.939112 
L 59.75775 68.771525 
L 60.06 68.604659 
L 60.36225 68.438514 
L 60.6645 68.27309 
L 60.96675 68.108387 
L 61.269 67.944402 
L 61.57125 67.781135 
L 61.8735 67.618586 
L 62.17575 67.456753 
L 62.478 67.295636 
L 62.78025 67.135232 
L 63.0825 66.975537 
L 63.38475 66.813634 
L 63.687 66.657892 
L 63.98925 66.500731 
L 64.2915 66.343874 
L 64.59375 66.187725 
L 64.896 66.032279 
L 65.19825 65.877535 
L 65.5005 65.723491 
L 65.80275 65.570145 
L 66.105 65.417496 
L 66.40725 65.265541 
L 66.7095 65.114278 
L 67.01175 64.963707 
L 67.314 64.813823 
L 67.61625 64.664626 
L 67.9185 64.516114 
L 68.22075 64.368283 
L 68.523 64.221133 
L 68.82525 64.07466 
L 69.1275 63.928863 
L 69.42975 63.783739 
L 69.732 63.639285 
L 70.03425 63.495501 
L 70.3365 63.352382 
L 70.63875 63.209928 
L 70.941 63.068135 
L 71.24325 62.927001 
L 71.5455 62.786524 
L 71.84775 62.6467 
L 72.15 62.507529 
L 72.45225 62.369007 
L 72.7545 62.231131 
L 73.05675 62.093899 
L 73.359 61.957309 
L 73.66125 61.821359 
L 73.9635 61.686044 
L 74.26575 61.551364 
L 74.568 61.417315 
L 74.87025 61.283895 
L 75.1725 61.151101 
L 75.47475 61.01893 
L 75.777 60.887381 
L 76.07925 60.756449 
L 76.3815 60.626134 
L 76.68375 60.496432 
L 76.986 60.36734 
L 77.28825 60.238856 
L 77.5905 60.110977 
L 77.89275 59.9837 
L 78.195 59.857024 
L 78.49725 59.730945 
L 78.7995 59.60546 
L 79.10175 59.480568 
L 79.404 59.356265 
L 79.70625 59.232548 
L 80.0085 59.109416 
L 80.31075 58.986864 
L 80.613 58.864892 
L 80.91525 58.743496 
L 81.2175 58.622673 
L 81.51975 58.502421 
L 81.822 58.382737 
L 82.12425 58.263619 
L 82.4265 58.145064 
L 82.72875 58.027069 
L 83.031 57.909632 
L 83.33325 57.79275 
L 83.6355 57.676421 
L 83.93775 57.560641 
L 84.24 57.445409 
L 84.24 41.030894 
L 84.24 41.030894 
L 83.93775 41.076222 
L 83.6355 41.121605 
L 83.33325 41.167045 
L 83.031 41.212539 
L 82.72875 41.258087 
L 82.4265 41.303688 
L 82.12425 41.349342 
L 81.822 41.395048 
L 81.51975 41.440806 
L 81.2175 41.486613 
L 80.91525 41.532471 
L 80.613 41.578378 
L 80.31075 41.624334 
L 80.0085 41.670337 
L 79.70625 41.716388 
L 79.404 41.762484 
L 79.10175 41.808627 
L 78.7995 41.854815 
L 78.49725 41.901046 
L 78.195 41.947322 
L 77.89275 41.993641 
L 77.5905 42.040002 
L 77.28825 42.086404 
L 76.986 42.132848 
L 76.68375 42.179332 
L 76.3815 42.225855 
L 76.07925 42.272417 
L 75.777 42.319018 
L 75.47475 42.365656 
L 75.1725 42.412332 
L 74.87025 42.459044 
L 74.568 42.505791 
L 74.26575 42.552574 
L 73.9635 42.599391 
L 73.66125 42.646242 
L 73.359 42.693126 
L 73.05675 42.740043 
L 72.7545 42.786991 
L 72.45225 42.833972 
L 72.15 42.880983 
L 71.84775 42.928024 
L 71.5455 42.975096 
L 71.24325 43.022196 
L 70.941 43.069325 
L 70.63875 43.116482 
L 70.3365 43.163667 
L 70.03425 43.210879 
L 69.732 43.258117 
L 69.42975 43.305382 
L 69.1275 43.352672 
L 68.82525 43.399987 
L 68.523 43.447327 
L 68.22075 43.494691 
L 67.9185 43.542079 
L 67.61625 43.58949 
L 67.314 43.636924 
L 67.01175 43.684381 
L 66.7095 43.73186 
L 66.40725 43.779361 
L 66.105 43.826884 
L 65.80275 43.874428 
L 65.5005 43.921992 
L 65.19825 43.969578 
L 64.896 44.017183 
L 64.59375 44.064809 
L 64.2915 44.112455 
L 63.98925 44.16012 
L 63.687 44.207794 
L 63.38475 44.25543 
L 63.0825 44.303232 
L 62.78025 44.350975 
L 62.478 44.398736 
L 62.17575 44.446516 
L 61.8735 44.494315 
L 61.57125 44.542133 
L 61.269 44.589969 
L 60.96675 44.637824 
L 60.6645 44.685698 
L 60.36225 44.733591 
L 60.06 44.781503 
L 59.75775 44.829433 
L 59.4555 44.877383 
L 59.15325 44.925353 
L 58.851 44.973342 
L 58.54875 45.021351 
L 58.2465 45.06938 
L 57.94425 45.11743 
L 57.642 45.1655 
L 57.33975 45.213591 
L 57.0375 45.261704 
L 56.73525 45.309839 
L 56.433 45.357997 
L 56.13075 45.406177 
L 55.8285 45.454382 
L 55.52625 45.50261 
L 55.224 45.550863 
L 54.92175 45.599141 
L 54.6195 45.647446 
L 54.31725 45.695778 
L 54.015 45.744138 
L 53.71275 45.792526 
L 53.4105 45.840944 
L 53.10825 45.889392 
L 52.806 45.937872 
L 52.50375 45.986384 
L 52.2015 46.03493 
L 51.89925 46.083511 
L 51.597 46.132128 
L 51.29475 46.180782 
L 50.9925 46.229475 
L 50.69025 46.278208 
L 50.388 46.326983 
L 50.08575 46.375801 
L 49.7835 46.424663 
L 49.48125 46.473572 
L 49.179 46.522529 
L 48.87675 46.571536 
L 48.5745 46.620595 
L 48.27225 46.669708 
L 47.97 46.718876 
L 47.66775 46.768103 
L 47.3655 46.817389 
L 47.06325 46.866738 
L 46.761 46.916153 
L 46.45875 46.965634 
L 46.1565 47.015186 
L 45.85425 47.06481 
L 45.552 47.11451 
L 45.24975 47.164288 
L 44.9475 47.214148 
L 44.64525 47.264093 
L 44.343 47.314126 
L 44.04075 47.36425 
L 43.7385 47.414469 
L 43.43625 47.464787 
L 43.134 47.515208 
L 42.83175 47.565735 
L 42.5295 47.616372 
L 42.22725 47.667125 
L 41.925 47.717997 
L 41.62275 47.768994 
L 41.3205 47.82012 
L 41.01825 47.871379 
L 40.716 47.922779 
L 40.41375 47.974323 
L 40.1115 48.026018 
L 39.80925 48.07787 
L 39.507 48.129884 
L 39.20475 48.182068 
L 38.9025 48.234428 
L 38.60025 48.286971 
L 38.298 48.339705 
L 37.99575 48.392637 
L 37.6935 48.445775 
L 37.39125 48.499127 
L 37.089 48.552703 
L 36.78675 48.606511 
L 36.4845 48.660561 
L 36.18225 48.714863 
L 35.88 48.769427 
L 35.57775 48.824265 
L 35.2755 48.879387 
L 34.97325 48.934806 
L 34.671 48.990535 
L 34.36875 49.046586 
L 34.0665 49.102973 
L 33.76425 49.159712 
L 33.462 49.216817 
L 33.15975 49.274304 
L 32.8575 49.33219 
L 32.55525 49.390494 
L 32.253 49.449233 
L 31.95075 49.508429 
L 31.6485 49.568101 
L 31.34625 49.628272 
L 31.044 49.688964 
L 30.74175 49.750204 
L 30.4395 49.812017 
L 30.13725 49.87443 
L 29.835 49.937472 
L 29.53275 50.001176 
L 29.2305 50.065574 
L 28.92825 50.130701 
L 28.626 50.196595 
L 28.32375 50.263295 
L 28.0215 50.330844 
L 27.71925 50.399288 
L 27.417 50.468674 
L 27.11475 50.539054 
L 26.8125 50.610485 
L 26.51025 50.683026 
L 26.208 50.75674 
L 25.90575 50.831697 
L 25.6035 50.907971 
L 25.30125 50.985642 
L 24.999 51.064795 
L 24.69675 51.145526 
L 24.3945 51.227934 
L 24.09225 51.31213 
L 23.79 51.398233 
L 23.48775 51.486373 
L 23.1855 51.576694 
L 22.88325 51.66935 
L 22.581 51.764511 
L 22.27875 51.862366 
L 21.9765 51.96312 
L 21.67425 52.067001 
L 21.372 52.174262 
L 21.06975 52.285182 
L 20.7675 52.400073 
L 20.46525 52.519284 
L 20.163 52.643204 
L 19.86075 52.772272 
L 19.5585 52.906984 
L 19.25625 53.047902 
L 18.954 53.195665 
L 18.65175 53.351004 
L 18.3495 53.514759 
L 18.04725 53.687904 
L 17.745 53.871568 
L 17.44275 54.067073 
L 17.1405 54.275979 
L 16.83825 54.500139 
L 16.536 54.741773 
L 16.23375 55.003567 
L 15.9315 55.288807 
L 15.62925 55.601562 
L 15.327 55.946945 
L 15.02475 56.331477 
L 14.7225 56.763642 
L 14.42025 57.254721 
L 14.118 57.820122 
L 13.81575 58.481593 
L 13.5135 59.271125 
L 13.21125 60.238374 
L 12.909 61.466229 
L 12.60675 63.108346 
L 12.3045 65.500939 
L 12.00225 69.649382 
L 11.7 84.399583 
z
" clip-path="url(#p97294e57ad)" style="fill: #ffff7c; fill-opacity: 0.85"/>
   </g>
   <g id="FillBetweenPolyCollection_3">
    <path d="M 11.7 84.397206 
L 11.7 84.399583 
L 12.00225 69.649382 
L 12.3045 65.500939 
L 12.60675 63.108346 
L 12.909 61.466229 
L 13.21125 60.238374 
L 13.5135 59.271125 
L 13.81575 58.481593 
L 14.118 57.820122 
L 14.42025 57.254721 
L 14.7225 56.763642 
L 15.02475 56.331477 
L 15.327 55.946945 
L 15.62925 55.601562 
L 15.9315 55.288807 
L 16.23375 55.003567 
L 16.536 54.741773 
L 16.83825 54.500139 
L 17.1405 54.275979 
L 17.44275 54.067073 
L 17.745 53.871568 
L 18.04725 53.687904 
L 18.3495 53.514759 
L 18.65175 53.351004 
L 18.954 53.195665 
L 19.25625 53.047902 
L 19.5585 52.906984 
L 19.86075 52.772272 
L 20.163 52.643204 
L 20.46525 52.519284 
L 20.7675 52.400073 
L 21.06975 52.285182 
L 21.372 52.174262 
L 21.67425 52.067001 
L 21.9765 51.96312 
L 22.27875 51.862366 
L 22.581 51.764511 
L 22.88325 51.66935 
L 23.1855 51.576694 
L 23.48775 51.486373 
L 23.79 51.398233 
L 24.09225 51.31213 
L 24.3945 51.227934 
L 24.69675 51.145526 
L 24.999 51.064795 
L 25.30125 50.985642 
L 25.6035 50.907971 
L 25.90575 50.831697 
L 26.208 50.75674 
L 26.51025 50.683026 
L 26.8125 50.610485 
L 27.11475 50.539054 
L 27.417 50.468674 
L 27.71925 50.399288 
L 28.0215 50.330844 
L 28.32375 50.263295 
L 28.626 50.196595 
L 28.92825 50.130701 
L 29.2305 50.065574 
L 29.53275 50.001176 
L 29.835 49.937472 
L 30.13725 49.87443 
L 30.4395 49.812017 
L 30.74175 49.750204 
L 31.044 49.688964 
L 31.34625 49.628272 
L 31.6485 49.568101 
L 31.95075 49.508429 
L 32.253 49.449233 
L 32.55525 49.390494 
L 32.8575 49.33219 
L 33.15975 49.274304 
L 33.462 49.216817 
L 33.76425 49.159712 
L 34.0665 49.102973 
L 34.36875 49.046586 
L 34.671 48.990535 
L 34.97325 48.934806 
L 35.2755 48.879387 
L 35.57775 48.824265 
L 35.88 48.769427 
L 36.18225 48.714863 
L 36.4845 48.660561 
L 36.78675 48.606511 
L 37.089 48.552703 
L 37.39125 48.499127 
L 37.6935 48.445775 
L 37.99575 48.392637 
L 38.298 48.339705 
L 38.60025 48.286971 
L 38.9025 48.234428 
L 39.20475 48.182068 
L 39.507 48.129884 
L 39.80925 48.07787 
L 40.1115 48.026018 
L 40.41375 47.974323 
L 40.716 47.922779 
L 41.01825 47.871379 
L 41.3205 47.82012 
L 41.62275 47.768994 
L 41.925 47.717997 
L 42.22725 47.667125 
L 42.5295 47.616372 
L 42.83175 47.565735 
L 43.134 47.515208 
L 43.43625 47.464787 
L 43.7385 47.414469 
L 44.04075 47.36425 
L 44.343 47.314126 
L 44.64525 47.264093 
L 44.9475 47.214148 
L 45.24975 47.164288 
L 45.552 47.11451 
L 45.85425 47.06481 
L 46.1565 47.015186 
L 46.45875 46.965634 
L 46.761 46.916153 
L 47.06325 46.866738 
L 47.3655 46.817389 
L 47.66775 46.768103 
L 47.97 46.718876 
L 48.27225 46.669708 
L 48.5745 46.620595 
L 48.87675 46.571536 
L 49.179 46.522529 
L 49.48125 46.473572 
L 49.7835 46.424663 
L 50.08575 46.375801 
L 50.388 46.326983 
L 50.69025 46.278208 
L 50.9925 46.229475 
L 51.29475 46.180782 
L 51.597 46.132128 
L 51.89925 46.083511 
L 52.2015 46.03493 
L 52.50375 45.986384 
L 52.806 45.937872 
L 53.10825 45.889392 
L 53.4105 45.840944 
L 53.71275 45.792526 
L 54.015 45.744138 
L 54.31725 45.695778 
L 54.6195 45.647446 
L 54.92175 45.599141 
L 55.224 45.550863 
L 55.52625 45.50261 
L 55.8285 45.454382 
L 56.13075 45.406177 
L 56.433 45.357997 
L 56.73525 45.309839 
L 57.0375 45.261704 
L 57.33975 45.213591 
L 57.642 45.1655 
L 57.94425 45.11743 
L 58.2465 45.06938 
L 58.54875 45.021351 
L 58.851 44.973342 
L 59.15325 44.925353 
L 59.4555 44.877383 
L 59.75775 44.829433 
L 60.06 44.781503 
L 60.36225 44.733591 
L 60.6645 44.685698 
L 60.96675 44.637824 
L 61.269 44.589969 
L 61.57125 44.542133 
L 61.8735 44.494315 
L 62.17575 44.446516 
L 62.478 44.398736 
L 62.78025 44.350975 
L 63.0825 44.303232 
L 63.38475 44.25543 
L 63.687 44.207794 
L 63.98925 44.16012 
L 64.2915 44.112455 
L 64.59375 44.064809 
L 64.896 44.017183 
L 65.19825 43.969578 
L 65.5005 43.921992 
L 65.80275 43.874428 
L 66.105 43.826884 
L 66.40725 43.779361 
L 66.7095 43.73186 
L 67.01175 43.684381 
L 67.314 43.636924 
L 67.61625 43.58949 
L 67.9185 43.542079 
L 68.22075 43.494691 
L 68.523 43.447327 
L 68.82525 43.399987 
L 69.1275 43.352672 
L 69.42975 43.305382 
L 69.732 43.258117 
L 70.03425 43.210879 
L 70.3365 43.163667 
L 70.63875 43.116482 
L 70.941 43.069325 
L 71.24325 43.022196 
L 71.5455 42.975096 
L 71.84775 42.928024 
L 72.15 42.880983 
L 72.45225 42.833972 
L 72.7545 42.786991 
L 73.05675 42.740043 
L 73.359 42.693126 
L 73.66125 42.646242 
L 73.9635 42.599391 
L 74.26575 42.552574 
L 74.568 42.505791 
L 74.87025 42.459044 
L 75.1725 42.412332 
L 75.47475 42.365656 
L 75.777 42.319018 
L 76.07925 42.272417 
L 76.3815 42.225855 
L 76.68375 42.179332 
L 76.986 42.132848 
L 77.28825 42.086404 
L 77.5905 42.040002 
L 77.89275 41.993641 
L 78.195 41.947322 
L 78.49725 41.901046 
L 78.7995 41.854815 
L 79.10175 41.808627 
L 79.404 41.762484 
L 79.70625 41.716388 
L 80.0085 41.670337 
L 80.31075 41.624334 
L 80.613 41.578378 
L 80.91525 41.532471 
L 81.2175 41.486613 
L 81.51975 41.440806 
L 81.822 41.395048 
L 82.12425 41.349342 
L 82.4265 41.303688 
L 82.72875 41.258087 
L 83.031 41.212539 
L 83.33325 41.167045 
L 83.6355 41.121605 
L 83.93775 41.076222 
L 84.24 41.030894 
L 84.24 40.491945 
L 84.24 40.491945 
L 83.93775 40.545577 
L 83.6355 40.599192 
L 83.33325 40.652788 
L 83.031 40.706366 
L 82.72875 40.759923 
L 82.4265 40.81346 
L 82.12425 40.866975 
L 81.822 40.920468 
L 81.51975 40.973938 
L 81.2175 41.027384 
L 80.91525 41.080805 
L 80.613 41.1342 
L 80.31075 41.187569 
L 80.0085 41.240911 
L 79.70625 41.294226 
L 79.404 41.347512 
L 79.10175 41.400769 
L 78.7995 41.453996 
L 78.49725 41.507192 
L 78.195 41.560357 
L 77.89275 41.613491 
L 77.5905 41.666591 
L 77.28825 41.719659 
L 76.986 41.772693 
L 76.68375 41.825692 
L 76.3815 41.878656 
L 76.07925 41.931585 
L 75.777 41.984478 
L 75.47475 42.037334 
L 75.1725 42.090153 
L 74.87025 42.142934 
L 74.568 42.195676 
L 74.26575 42.248381 
L 73.9635 42.301045 
L 73.66125 42.353671 
L 73.359 42.406256 
L 73.05675 42.458801 
L 72.7545 42.511305 
L 72.45225 42.563767 
L 72.15 42.616188 
L 71.84775 42.668567 
L 71.5455 42.720904 
L 71.24325 42.773199 
L 70.941 42.82545 
L 70.63875 42.877659 
L 70.3365 42.929824 
L 70.03425 42.981945 
L 69.732 43.034023 
L 69.42975 43.086057 
L 69.1275 43.138047 
L 68.82525 43.189992 
L 68.523 43.241894 
L 68.22075 43.293751 
L 67.9185 43.345563 
L 67.61625 43.397331 
L 67.314 43.449055 
L 67.01175 43.500734 
L 66.7095 43.552369 
L 66.40725 43.603959 
L 66.105 43.655505 
L 65.80275 43.707007 
L 65.5005 43.758465 
L 65.19825 43.809879 
L 64.896 43.861249 
L 64.59375 43.912576 
L 64.2915 43.96386 
L 63.98925 44.015101 
L 63.687 44.066288 
L 63.38475 44.117377 
L 63.0825 44.168568 
L 62.78025 44.21964 
L 62.478 44.270672 
L 62.17575 44.321662 
L 61.8735 44.372612 
L 61.57125 44.423522 
L 61.269 44.474394 
L 60.96675 44.525226 
L 60.6645 44.576021 
L 60.36225 44.626778 
L 60.06 44.677499 
L 59.75775 44.728183 
L 59.4555 44.778833 
L 59.15325 44.829447 
L 58.851 44.880028 
L 58.54875 44.930577 
L 58.2465 44.981093 
L 57.94425 45.031578 
L 57.642 45.082033 
L 57.33975 45.132459 
L 57.0375 45.182856 
L 56.73525 45.233227 
L 56.433 45.283571 
L 56.13075 45.333891 
L 55.8285 45.384187 
L 55.52625 45.434461 
L 55.224 45.484714 
L 54.92175 45.534946 
L 54.6195 45.585161 
L 54.31725 45.635358 
L 54.015 45.685539 
L 53.71275 45.735707 
L 53.4105 45.785862 
L 53.10825 45.836005 
L 52.806 45.88614 
L 52.50375 45.936266 
L 52.2015 45.986387 
L 51.89925 46.036504 
L 51.597 46.086618 
L 51.29475 46.136732 
L 50.9925 46.186848 
L 50.69025 46.236967 
L 50.388 46.287092 
L 50.08575 46.337225 
L 49.7835 46.387368 
L 49.48125 46.437523 
L 49.179 46.487693 
L 48.87675 46.53788 
L 48.5745 46.588087 
L 48.27225 46.638317 
L 47.97 46.688571 
L 47.66775 46.738852 
L 47.3655 46.789165 
L 47.06325 46.83951 
L 46.761 46.889892 
L 46.45875 46.940314 
L 46.1565 46.990778 
L 45.85425 47.041288 
L 45.552 47.091847 
L 45.24975 47.142459 
L 44.9475 47.193127 
L 44.64525 47.243856 
L 44.343 47.294649 
L 44.04075 47.345509 
L 43.7385 47.396442 
L 43.43625 47.447451 
L 43.134 47.49854 
L 42.83175 47.549715 
L 42.5295 47.600979 
L 42.22725 47.652338 
L 41.925 47.703797 
L 41.62275 47.755361 
L 41.3205 47.807034 
L 41.01825 47.858824 
L 40.716 47.910735 
L 40.41375 47.962773 
L 40.1115 48.014946 
L 39.80925 48.067258 
L 39.507 48.119717 
L 39.20475 48.172329 
L 38.9025 48.225103 
L 38.60025 48.278045 
L 38.298 48.331162 
L 37.99575 48.384464 
L 37.6935 48.437959 
L 37.39125 48.491654 
L 37.089 48.545561 
L 36.78675 48.599687 
L 36.4845 48.654043 
L 36.18225 48.708639 
L 35.88 48.763486 
L 35.57775 48.818595 
L 35.2755 48.873978 
L 34.97325 48.929648 
L 34.671 48.985617 
L 34.36875 49.041899 
L 34.0665 49.098508 
L 33.76425 49.155459 
L 33.462 49.212768 
L 33.15975 49.27045 
L 32.8575 49.328524 
L 32.55525 49.387006 
L 32.253 49.445917 
L 31.95075 49.505277 
L 31.6485 49.565106 
L 31.34625 49.625427 
L 31.044 49.686263 
L 30.74175 49.74764 
L 30.4395 49.809584 
L 30.13725 49.872122 
L 29.835 49.935284 
L 29.53275 49.999102 
L 29.2305 50.063609 
L 28.92825 50.128839 
L 28.626 50.194832 
L 28.32375 50.261626 
L 28.0215 50.329265 
L 27.71925 50.397793 
L 27.417 50.467261 
L 27.11475 50.537718 
L 26.8125 50.609223 
L 26.51025 50.681833 
L 26.208 50.755614 
L 25.90575 50.830634 
L 25.6035 50.906967 
L 25.30125 50.984694 
L 24.999 51.063902 
L 24.69675 51.144683 
L 24.3945 51.227139 
L 24.09225 51.311381 
L 23.79 51.397527 
L 23.48775 51.485709 
L 23.1855 51.576068 
L 22.88325 51.66876 
L 22.581 51.763956 
L 22.27875 51.861843 
L 21.9765 51.962628 
L 21.67425 52.066538 
L 21.372 52.173826 
L 21.06975 52.284772 
L 20.7675 52.399688 
L 20.46525 52.518921 
L 20.163 52.642862 
L 19.86075 52.771951 
L 19.5585 52.906682 
L 19.25625 53.047618 
L 18.954 53.195397 
L 18.65175 53.350751 
L 18.3495 53.514521 
L 18.04725 53.68768 
L 17.745 53.871356 
L 17.44275 54.066873 
L 17.1405 54.27579 
L 16.83825 54.49996 
L 16.536 54.741603 
L 16.23375 55.003405 
L 15.9315 55.288652 
L 15.62925 55.601415 
L 15.327 55.946803 
L 15.02475 56.331341 
L 14.7225 56.76351 
L 14.42025 57.254592 
L 14.118 57.819994 
L 13.81575 58.481465 
L 13.5135 59.270995 
L 13.21125 60.238239 
L 12.909 61.466082 
L 12.60675 63.108179 
L 12.3045 65.500728 
L 12.00225 69.649042 
L 11.7 84.397206 
z
" clip-path="url(#p97294e57ad)" style="fill: #7cffff; fill-opacity: 0.85"/>
   </g>
   <g id="FillBetweenPolyCollection_4">
    <path d="M 11.7 12.96 
L 11.7 84.397206 
L 12.00225 69.649042 
L 12.3045 65.500728 
L 12.60675 63.108179 
L 12.909 61.466082 
L 13.21125 60.238239 
L 13.5135 59.270995 
L 13.81575 58.481465 
L 14.118 57.819994 
L 14.42025 57.254592 
L 14.7225 56.76351 
L 15.02475 56.331341 
L 15.327 55.946803 
L 15.62925 55.601415 
L 15.9315 55.288652 
L 16.23375 55.003405 
L 16.536 54.741603 
L 16.83825 54.49996 
L 17.1405 54.27579 
L 17.44275 54.066873 
L 17.745 53.871356 
L 18.04725 53.68768 
L 18.3495 53.514521 
L 18.65175 53.350751 
L 18.954 53.195397 
L 19.25625 53.047618 
L 19.5585 52.906682 
L 19.86075 52.771951 
L 20.163 52.642862 
L 20.46525 52.518921 
L 20.7675 52.399688 
L 21.06975 52.284772 
L 21.372 52.173826 
L 21.67425 52.066538 
L 21.9765 51.962628 
L 22.27875 51.861843 
L 22.581 51.763956 
L 22.88325 51.66876 
L 23.1855 51.576068 
L 23.48775 51.485709 
L 23.79 51.397527 
L 24.09225 51.311381 
L 24.3945 51.227139 
L 24.69675 51.144683 
L 24.999 51.063902 
L 25.30125 50.984694 
L 25.6035 50.906967 
L 25.90575 50.830634 
L 26.208 50.755614 
L 26.51025 50.681833 
L 26.8125 50.609223 
L 27.11475 50.537718 
L 27.417 50.467261 
L 27.71925 50.397793 
L 28.0215 50.329265 
L 28.32375 50.261626 
L 28.626 50.194832 
L 28.92825 50.128839 
L 29.2305 50.063609 
L 29.53275 49.999102 
L 29.835 49.935284 
L 30.13725 49.872122 
L 30.4395 49.809584 
L 30.74175 49.74764 
L 31.044 49.686263 
L 31.34625 49.625427 
L 31.6485 49.565106 
L 31.95075 49.505277 
L 32.253 49.445917 
L 32.55525 49.387006 
L 32.8575 49.328524 
L 33.15975 49.27045 
L 33.462 49.212768 
L 33.76425 49.155459 
L 34.0665 49.098508 
L 34.36875 49.041899 
L 34.671 48.985617 
L 34.97325 48.929648 
L 35.2755 48.873978 
L 35.57775 48.818595 
L 35.88 48.763486 
L 36.18225 48.708639 
L 36.4845 48.654043 
L 36.78675 48.599687 
L 37.089 48.545561 
L 37.39125 48.491654 
L 37.6935 48.437959 
L 37.99575 48.384464 
L 38.298 48.331162 
L 38.60025 48.278045 
L 38.9025 48.225103 
L 39.20475 48.172329 
L 39.507 48.119717 
L 39.80925 48.067258 
L 40.1115 48.014946 
L 40.41375 47.962773 
L 40.716 47.910735 
L 41.01825 47.858824 
L 41.3205 47.807034 
L 41.62275 47.755361 
L 41.925 47.703797 
L 42.22725 47.652338 
L 42.5295 47.600979 
L 42.83175 47.549715 
L 43.134 47.49854 
L 43.43625 47.447451 
L 43.7385 47.396442 
L 44.04075 47.345509 
L 44.343 47.294649 
L 44.64525 47.243856 
L 44.9475 47.193127 
L 45.24975 47.142459 
L 45.552 47.091847 
L 45.85425 47.041288 
L 46.1565 46.990778 
L 46.45875 46.940314 
L 46.761 46.889892 
L 47.06325 46.83951 
L 47.3655 46.789165 
L 47.66775 46.738852 
L 47.97 46.688571 
L 48.27225 46.638317 
L 48.5745 46.588087 
L 48.87675 46.53788 
L 49.179 46.487693 
L 49.48125 46.437523 
L 49.7835 46.387368 
L 50.08575 46.337225 
L 50.388 46.287092 
L 50.69025 46.236967 
L 50.9925 46.186848 
L 51.29475 46.136732 
L 51.597 46.086618 
L 51.89925 46.036504 
L 52.2015 45.986387 
L 52.50375 45.936266 
L 52.806 45.88614 
L 53.10825 45.836005 
L 53.4105 45.785862 
L 53.71275 45.735707 
L 54.015 45.685539 
L 54.31725 45.635358 
L 54.6195 45.585161 
L 54.92175 45.534946 
L 55.224 45.484714 
L 55.52625 45.434461 
L 55.8285 45.384187 
L 56.13075 45.333891 
L 56.433 45.283571 
L 56.73525 45.233227 
L 57.0375 45.182856 
L 57.33975 45.132459 
L 57.642 45.082033 
L 57.94425 45.031578 
L 58.2465 44.981093 
L 58.54875 44.930577 
L 58.851 44.880028 
L 59.15325 44.829447 
L 59.4555 44.778833 
L 59.75775 44.728183 
L 60.06 44.677499 
L 60.36225 44.626778 
L 60.6645 44.576021 
L 60.96675 44.525226 
L 61.269 44.474394 
L 61.57125 44.423522 
L 61.8735 44.372612 
L 62.17575 44.321662 
L 62.478 44.270672 
L 62.78025 44.21964 
L 63.0825 44.168568 
L 63.38475 44.117377 
L 63.687 44.066288 
L 63.98925 44.015101 
L 64.2915 43.96386 
L 64.59375 43.912576 
L 64.896 43.861249 
L 65.19825 43.809879 
L 65.5005 43.758465 
L 65.80275 43.707007 
L 66.105 43.655505 
L 66.40725 43.603959 
L 66.7095 43.552369 
L 67.01175 43.500734 
L 67.314 43.449055 
L 67.61625 43.397331 
L 67.9185 43.345563 
L 68.22075 43.293751 
L 68.523 43.241894 
L 68.82525 43.189992 
L 69.1275 43.138047 
L 69.42975 43.086057 
L 69.732 43.034023 
L 70.03425 42.981945 
L 70.3365 42.929824 
L 70.63875 42.877659 
L 70.941 42.82545 
L 71.24325 42.773199 
L 71.5455 42.720904 
L 71.84775 42.668567 
L 72.15 42.616188 
L 72.45225 42.563767 
L 72.7545 42.511305 
L 73.05675 42.458801 
L 73.359 42.406256 
L 73.66125 42.353671 
L 73.9635 42.301045 
L 74.26575 42.248381 
L 74.568 42.195676 
L 74.87025 42.142934 
L 75.1725 42.090153 
L 75.47475 42.037334 
L 75.777 41.984478 
L 76.07925 41.931585 
L 76.3815 41.878656 
L 76.68375 41.825692 
L 76.986 41.772693 
L 77.28825 41.719659 
L 77.5905 41.666591 
L 77.89275 41.613491 
L 78.195 41.560357 
L 78.49725 41.507192 
L 78.7995 41.453996 
L 79.10175 41.400769 
L 79.404 41.347512 
L 79.70625 41.294226 
L 80.0085 41.240911 
L 80.31075 41.187569 
L 80.613 41.1342 
L 80.91525 41.080805 
L 81.2175 41.027384 
L 81.51975 40.973938 
L 81.822 40.920468 
L 82.12425 40.866975 
L 82.4265 40.81346 
L 82.72875 40.759923 
L 83.031 40.706366 
L 83.33325 40.652788 
L 83.6355 40.599192 
L 83.93775 40.545577 
L 84.24 40.491945 
L 84.24 12.96 
L 84.24 12.96 
L 83.93775 12.96 
L 83.6355 12.96 
L 83.33325 12.96 
L 83.031 12.96 
L 82.72875 12.96 
L 82.4265 12.96 
L 82.12425 12.96 
L 81.822 12.96 
L 81.51975 12.96 
L 81.2175 12.96 
L 80.91525 12.96 
L 80.613 12.96 
L 80.31075 12.96 
L 80.0085 12.96 
L 79.70625 12.96 
L 79.404 12.96 
L 79.10175 12.96 
L 78.7995 12.96 
L 78.49725 12.96 
L 78.195 12.96 
L 77.89275 12.96 
L 77.5905 12.96 
L 77.28825 12.96 
L 76.986 12.96 
L 76.68375 12.96 
L 76.3815 12.96 
L 76.07925 12.96 
L 75.777 12.96 
L 75.47475 12.96 
L 75.1725 12.96 
L 74.87025 12.96 
L 74.568 12.96 
L 74.26575 12.96 
L 73.9635 12.96 
L 73.66125 12.96 
L 73.359 12.96 
L 73.05675 12.96 
L 72.7545 12.96 
L 72.45225 12.96 
L 72.15 12.96 
L 71.84775 12.96 
L 71.5455 12.96 
L 71.24325 12.96 
L 70.941 12.96 
L 70.63875 12.96 
L 70.3365 12.96 
L 70.03425 12.96 
L 69.732 12.96 
L 69.42975 12.96 
L 69.1275 12.96 
L 68.82525 12.96 
L 68.523 12.96 
L 68.22075 12.96 
L 67.9185 12.96 
L 67.61625 12.96 
L 67.314 12.96 
L 67.01175 12.96 
L 66.7095 12.96 
L 66.40725 12.96 
L 66.105 12.96 
L 65.80275 12.96 
L 65.5005 12.96 
L 65.19825 12.96 
L 64.896 12.96 
L 64.59375 12.96 
L 64.2915 12.96 
L 63.98925 12.96 
L 63.687 12.96 
L 63.38475 12.96 
L 63.0825 12.96 
L 62.78025 12.96 
L 62.478 12.96 
L 62.17575 12.96 
L 61.8735 12.96 
L 61.57125 12.96 
L 61.269 12.96 
L 60.96675 12.96 
L 60.6645 12.96 
L 60.36225 12.96 
L 60.06 12.96 
L 59.75775 12.96 
L 59.4555 12.96 
L 59.15325 12.96 
L 58.851 12.96 
L 58.54875 12.96 
L 58.2465 12.96 
L 57.94425 12.96 
L 57.642 12.96 
L 57.33975 12.96 
L 57.0375 12.96 
L 56.73525 12.96 
L 56.433 12.96 
L 56.13075 12.96 
L 55.8285 12.96 
L 55.52625 12.96 
L 55.224 12.96 
L 54.92175 12.96 
L 54.6195 12.96 
L 54.31725 12.96 
L 54.015 12.96 
L 53.71275 12.96 
L 53.4105 12.96 
L 53.10825 12.96 
L 52.806 12.96 
L 52.50375 12.96 
L 52.2015 12.96 
L 51.89925 12.96 
L 51.597 12.96 
L 51.29475 12.96 
L 50.9925 12.96 
L 50.69025 12.96 
L 50.388 12.96 
L 50.08575 12.96 
L 49.7835 12.96 
L 49.48125 12.96 
L 49.179 12.96 
L 48.87675 12.96 
L 48.5745 12.96 
L 48.27225 12.96 
L 47.97 12.96 
L 47.66775 12.96 
L 47.3655 12.96 
L 47.06325 12.96 
L 46.761 12.96 
L 46.45875 12.96 
L 46.1565 12.96 
L 45.85425 12.96 
L 45.552 12.96 
L 45.24975 12.96 
L 44.9475 12.96 
L 44.64525 12.96 
L 44.343 12.96 
L 44.04075 12.96 
L 43.7385 12.96 
L 43.43625 12.96 
L 43.134 12.96 
L 42.83175 12.96 
L 42.5295 12.96 
L 42.22725 12.96 
L 41.925 12.96 
L 41.62275 12.96 
L 41.3205 12.96 
L 41.01825 12.96 
L 40.716 12.96 
L 40.41375 12.96 
L 40.1115 12.96 
L 39.80925 12.96 
L 39.507 12.96 
L 39.20475 12.96 
L 38.9025 12.96 
L 38.60025 12.96 
L 38.298 12.96 
L 37.99575 12.96 
L 37.6935 12.96 
L 37.39125 12.96 
L 37.089 12.96 
L 36.78675 12.96 
L 36.4845 12.96 
L 36.18225 12.96 
L 35.88 12.96 
L 35.57775 12.96 
L 35.2755 12.96 
L 34.97325 12.96 
L 34.671 12.96 
L 34.36875 12.96 
L 34.0665 12.96 
L 33.76425 12.96 
L 33.462 12.96 
L 33.15975 12.96 
L 32.8575 12.96 
L 32.55525 12.96 
L 32.253 12.96 
L 31.95075 12.96 
L 31.6485 12.96 
L 31.34625 12.96 
L 31.044 12.96 
L 30.74175 12.96 
L 30.4395 12.96 
L 30.13725 12.96 
L 29.835 12.96 
L 29.53275 12.96 
L 29.2305 12.96 
L 28.92825 12.96 
L 28.626 12.96 
L 28.32375 12.96 
L 28.0215 12.96 
L 27.71925 12.96 
L 27.417 12.96 
L 27.11475 12.96 
L 26.8125 12.96 
L 26.51025 12.96 
L 26.208 12.96 
L 25.90575 12.96 
L 25.6035 12.96 
L 25.30125 12.96 
L 24.999 12.96 
L 24.69675 12.96 
L 24.3945 12.96 
L 24.09225 12.96 
L 23.79 12.96 
L 23.48775 12.96 
L 23.1855 12.96 
L 22.88325 12.96 
L 22.581 12.96 
L 22.27875 12.96 
L 21.9765 12.96 
L 21.67425 12.96 
L 21.372 12.96 
L 21.06975 12.96 
L 20.7675 12.96 
L 20.46525 12.96 
L 20.163 12.96 
L 19.86075 12.96 
L 19.5585 12.96 
L 19.25625 12.96 
L 18.954 12.96 
L 18.65175 12.96 
L 18.3495 12.96 
L 18.04725 12.96 
L 17.745 12.96 
L 17.44275 12.96 
L 17.1405 12.96 
L 16.83825 12.96 
L 16.536 12.96 
L 16.23375 12.96 
L 15.9315 12.96 
L 15.62925 12.96 
L 15.327 12.96 
L 15.02475 12.96 
L 14.7225 12.96 
L 14.42025 12.96 
L 14.118 12.96 
L 13.81575 12.96 
L 13.5135 12.96 
L 13.21125 12.96 
L 12.909 12.96 
L 12.60675 12.96 
L 12.3045 12.96 
L 12.00225 12.96 
L 11.7 12.96 
z
" clip-path="url(#p97294e57ad)" style="fill: #ffa09f; fill-opacity: 0.85"/>
   </g>
   <g id="matplotlib.axis_1">
    <g id="xtick_1">
     <g id="line2d_1">
      <defs>
       <path id="m5b04f7107f" d="M 0 0 
L 0 3.5 
" style="stroke: #000000; stroke-width: 0.8"/>
      </defs>
      <g>
       <use xlink:href="#m5b04f7107f" x="11.7" y="96.12" style="stroke: #000000; stroke-width: 0.8"/>
      </g>
     </g>
     <g id="text_1">
      <text style="font-size: 6px; font-family: 'DejaVu Sans', 'Arial', 'Helvetica', 'Lucida Grande', 'Verdana', 'Geneva', 'Lucid', 'Avant Garde', sans-serif; text-anchor: middle" x="11.7" y="107.679063" transform="rotate(-0 11.7 107.679063)">0</text>
     </g>
    </g>
    <g id="xtick_2">
     <g id="line2d_2">
      <g>
       <use xlink:href="#m5b04f7107f" x="30.590625" y="96.12" style="stroke: #000000; stroke-width: 0.8"/>
      </g>
     </g>
     <g id="text_2">
      <text style="font-size: 6px; font-family: 'DejaVu Sans', 'Arial', 'Helvetica', 'Lucida Grande', 'Verdana', 'Geneva', 'Lucid', 'Avant Garde', sans-serif; text-anchor: middle" x="30.590625" y="107.679063" transform="rotate(-0 30.590625 107.679063)">25</text>
     </g>
    </g>
    <g id="xtick_3">
     <g id="line2d_3">
      <g>
       <use xlink:href="#m5b04f7107f" x="49.48125" y="96.12" style="stroke: #000000; stroke-width: 0.8"/>
      </g>
     </g>
     <g id="text_3">
      <text style="font-size: 6px; font-family: 'DejaVu Sans', 'Arial', 'Helvetica', 'Lucida Grande', 'Verdana', 'Geneva', 'Lucid', 'Avant Garde', sans-serif; text-anchor: middle" x="49.48125" y="107.679063" transform="rotate(-0 49.48125 107.679063)">50</text>
     </g>
    </g>
    <g id="xtick_4">
     <g id="line2d_4">
      <g>
       <use xlink:href="#m5b04f7107f" x="68.371875" y="96.12" style="stroke: #000000; stroke-width: 0.8"/>
      </g>
     </g>
     <g id="text_4">
      <text style="font-size: 6px; font-family: 'DejaVu Sans', 'Arial', 'Helvetica', 'Lucida Grande', 'Verdana', 'Geneva', 'Lucid', 'Avant Garde', sans-serif; text-anchor: middle" x="68.371875" y="107.679063" transform="rotate(-0 68.371875 107.679063)">75</text>
     </g>
    </g>
    <g id="text_5">
     <text style="font-size: 6px; font-family: 'DejaVu Sans', 'Arial', 'Helvetica', 'Lucida Grande', 'Verdana', 'Geneva', 'Lucid', 'Avant Garde', sans-serif; text-anchor: middle" x="47.97" y="117.485938" transform="rotate(-0 47.97 117.485938)">Dormancy depth a (h)</text>
    </g>
   </g>
   <g id="matplotlib.axis_2">
    <g id="ytick_1">
     <g id="line2d_5">
      <defs>
       <path id="mda67bafefe" d="M 0 0 
L -3.5 0 
" style="stroke: #000000; stroke-width: 0.8"/>
      </defs>
      <g>
       <use xlink:href="#mda67bafefe" x="11.7" y="96.12" style="stroke: #000000; stroke-width: 0.8"/>
      </g>
     </g>
     <g id="text_6">
      <!-- $\mathdefault{10^{-5}}$ -->
      <g transform="translate(-9.4 98.399531)">
       <text>
        <tspan x="0" y="-0.640625" style="font-size: 6px; font-family: 'DejaVu Sans'">1</tspan>
        <tspan x="3.817383" y="-0.640625" style="font-size: 6px; font-family: 'DejaVu Sans'">0</tspan>
        <tspan x="7.692188" y="-2.9375" style="font-size: 4.2px; font-family: 'DejaVu Sans'">−</tspan>
        <tspan x="11.211328" y="-2.9375" style="font-size: 4.2px; font-family: 'DejaVu Sans'">5</tspan>
       </text>
      </g>
     </g>
    </g>
    <g id="ytick_2">
     <g id="line2d_6">
      <g>
       <use xlink:href="#mda67bafefe" x="11.7" y="79.488" style="stroke: #000000; stroke-width: 0.8"/>
      </g>
     </g>
     <g id="text_7">
      <!-- $\mathdefault{10^{-4}}$ -->
      <g transform="translate(-9.4 81.767531)">
       <text>
        <tspan x="0" y="-0.640625" style="font-size: 6px; font-family: 'DejaVu Sans'">1</tspan>
        <tspan x="3.817383" y="-0.640625" style="font-size: 6px; font-family: 'DejaVu Sans'">0</tspan>
        <tspan x="7.692188" y="-2.9375" style="font-size: 4.2px; font-family: 'DejaVu Sans'">−</tspan>
        <tspan x="11.211328" y="-2.9375" style="font-size: 4.2px; font-family: 'DejaVu Sans'">4</tspan>
       </text>
      </g>
     </g>
    </g>
    <g id="ytick_3">
     <g id="line2d_7">
      <g>
       <use xlink:href="#mda67bafefe" x="11.7" y="62.856" style="stroke: #000000; stroke-width: 0.8"/>
      </g>
     </g>
     <g id="text_8">
      <!-- $\mathdefault{10^{-3}}$ -->
      <g transform="translate(-9.4 65.135531)">
       <text>
        <tspan x="0" y="-0.585938" style="font-size: 6px; font-family: 'DejaVu Sans'">1</tspan>
        <tspan x="3.817383" y="-0.585938" style="font-size: 6px; font-family: 'DejaVu Sans'">0</tspan>
        <tspan x="7.692188" y="-2.882812" style="font-size: 4.2px; font-family: 'DejaVu Sans'">−</tspan>
        <tspan x="11.211328" y="-2.882812" style="font-size: 4.2px; font-family: 'DejaVu Sans'">3</tspan>
       </text>
      </g>
     </g>
    </g>
    <g id="ytick_4">
     <g id="line2d_8">
      <g>
       <use xlink:href="#mda67bafefe" x="11.7" y="46.224" style="stroke: #000000; stroke-width: 0.8"/>
      </g>
     </g>
     <g id="text_9">
      <!-- $\mathdefault{10^{-2}}$ -->
      <g transform="translate(-9.4 48.503531)">
       <text>
        <tspan x="0" y="-0.585938" style="font-size: 6px; font-family: 'DejaVu Sans'">1</tspan>
        <tspan x="3.817383" y="-0.585938" style="font-size: 6px; font-family: 'DejaVu Sans'">0</tspan>
        <tspan x="7.692188" y="-2.882812" style="font-size: 4.2px; font-family: 'DejaVu Sans'">−</tspan>
        <tspan x="11.211328" y="-2.882812" style="font-size: 4.2px; font-family: 'DejaVu Sans'">2</tspan>
       </text>
      </g>
     </g>
    </g>
    <g id="ytick_5">
     <g id="line2d_9">
      <g>
       <use xlink:href="#mda67bafefe" x="11.7" y="29.592" style="stroke: #000000; stroke-width: 0.8"/>
      </g>
     </g>
     <g id="text_10">
      <!-- $\mathdefault{10^{-1}}$ -->
      <g transform="translate(-9.4 31.871531)">
       <text>
        <tspan x="0" y="-0.640625" style="font-size: 6px; font-family: 'DejaVu Sans'">1</tspan>
        <tspan x="3.817383" y="-0.640625" style="font-size: 6px; font-family: 'DejaVu Sans'">0</tspan>
        <tspan x="7.692188" y="-2.9375" style="font-size: 4.2px; font-family: 'DejaVu Sans'">−</tspan>
        <tspan x="11.211328" y="-2.9375" style="font-size: 4.2px; font-family: 'DejaVu Sans'">1</tspan>
       </text>
      </g>
     </g>
    </g>
    <g id="ytick_6">
     <g id="line2d_10">
      <g>
       <use xlink:href="#mda67bafefe" x="11.7" y="12.96" style="stroke: #000000; stroke-width: 0.8"/>
      </g>
     </g>
     <g id="text_11">
      <!-- $\mathdefault{10^{0}}$ -->
      <g transform="translate(-5.86 15.239531)">
       <text>
        <tspan x="0" y="-0.585938" style="font-size: 6px; font-family: 'DejaVu Sans'">1</tspan>
        <tspan x="3.817383" y="-0.585938" style="font-size: 6px; font-family: 'DejaVu Sans'">0</tspan>
        <tspan x="7.692188" y="-2.882812" style="font-size: 4.2px; font-family: 'DejaVu Sans'">0</tspan>
       </text>
      </g>
     </g>
    </g>
    <g id="ytick_7"/>
    <g id="ytick_8"/>
    <g id="ytick_9"/>
    <g id="ytick_10"/>
    <g id="ytick_11"/>
    <g id="ytick_12"/>
    <g id="ytick_13"/>
    <g id="ytick_14"/>
    <g id="ytick_15"/>
    <g id="ytick_16"/>
    <g id="ytick_17"/>
    <g id="ytick_18"/>
    <g id="ytick_19"/>
    <g id="ytick_20"/>
    <g id="ytick_21"/>
    <g id="ytick_22"/>
    <g id="ytick_23"/>
    <g id="ytick_24"/>
    <g id="ytick_25"/>
    <g id="ytick_26"/>
    <g id="ytick_27"/>
    <g id="ytick_28"/>
    <g id="ytick_29"/>
    <g id="ytick_30"/>
    <g id="ytick_31"/>
    <g id="ytick_32"/>
    <g id="ytick_33"/>
    <g id="ytick_34"/>
    <g id="ytick_35"/>
    <g id="ytick_36"/>
    <g id="ytick_37"/>
    <g id="ytick_38"/>
    <g id="ytick_39"/>
    <g id="ytick_40"/>
    <g id="ytick_41"/>
    <g id="ytick_42"/>
    <g id="ytick_43"/>
    <g id="ytick_44"/>
    <g id="ytick_45"/>
    <g id="ytick_46"/>
    <g id="text_12">
     <text style="font-size: 6px; font-family: 'DejaVu Sans', 'Arial', 'Helvetica', 'Lucida Grande', 'Verdana', 'Geneva', 'Lucid', 'Avant Garde', sans-serif; text-anchor: middle" x="-14.647812" y="54.54" transform="rotate(-90 -14.647812 54.54)">Frac of population at Ab removal</text>
    </g>
   </g>
   <g id="patch_3">
    <path d="M 11.7 96.12 
L 11.7 12.96 
" style="fill: none; stroke: #000000; stroke-width: 0.5; stroke-linejoin: miter; stroke-linecap: square"/>
   </g>
   <g id="patch_4">
    <path d="M 11.7 96.12 
L 84.24 96.12 
" style="fill: none; stroke: #000000; stroke-width: 0.5; stroke-linejoin: miter; stroke-linecap: square"/>
   </g>
  </g>
 </g>
 <defs>
  <clipPath id="p97294e57ad">
   <rect x="11.7" y="12.96" width="72.54" height="83.16"/>
  </clipPath>
 </defs>
</svg>
