<?xml version="1.0" encoding="utf-8" standalone="no"?>
<!DOCTYPE svg PUBLIC "-//W3C//DTD SVG 1.1//EN"
  "http://www.w3.org/Graphics/SVG/1.1/DTD/svg11.dtd">
<svg xmlns:xlink="http://www.w3.org/1999/xlink" width="93.6pt" height="108pt" viewBox="0 0 93.6 108" xmlns="http://www.w3.org/2000/svg" version="1.1">
 <metadata>
  <rdf:RDF xmlns:dc="http://purl.org/dc/elements/1.1/" xmlns:cc="http://creativecommons.org/ns#" xmlns:rdf="http://www.w3.org/1999/02/22-rdf-syntax-ns#">
   <cc:Work>
    <dc:type rdf:resource="http://purl.org/dc/dcmitype/StillImage"/>
    <dc:date>2026-02-16T13:11:41.572821</dc:date>
    <dc:format>image/svg+xml</dc:format>
    <dc:creator>
     <cc:Agent>
      <dc:title>Matplotlib v3.10.8, https://matplotlib.org/</dc:title>
     </cc:Agent>
    </dc:creator>
   </cc:Work>
  </rdf:RDF>
 </metadata>
 <defs>
  <style type="text/css">*{stroke-linejoin: round; stroke-linecap: butt}</style>
 </defs>
 <g id="figure_1">
  <g id="patch_1">
   <path d="M 0 108 
L 93.6 108 
L 93.6 0 
L 0 0 
L 0 108 
z
" style="fill: none"/>
  </g>
  <g id="axes_1">
   <g id="patch_2">
    <path d="M 11.7 96.12 
L 84.24 96.12 
L 84.24 12.96 
L 11.7 12.96 
L 11.7 96.12 
z
" style="fill: none"/>
   </g>
   <g id="FillBetweenPolyCollection_1">
    <path d="M 11.7 14.113145 
L 11.7 16644.96 
L 12.00225 16644.96 
L 12.3045 16644.96 
L 12.60675 16644.96 
L 12.909 16644.96 
L 13.21125 16644.96 
L 13.5135 16644.96 
L 13.81575 16644.96 
L 14.118 16644.96 
L 14.42025 16644.96 
L 14.7225 16644.96 
L 15.02475 16644.96 
L 15.327 16644.96 
L 15.62925 16644.96 
L 15.9315 16644.96 
L 16.23375 16644.96 
L 16.536 16644.96 
L 16.83825 16644.96 
L 17.1405 16644.96 
L 17.44275 16644.96 
L 17.745 16644.96 
L 18.04725 16644.96 
L 18.3495 16644.96 
L 18.65175 16644.96 
L 18.954 16644.96 
L 19.25625 16644.96 
L 19.5585 16644.96 
L 19.86075 16644.96 
L 20.163 16644.96 
L 20.46525 16644.96 
L 20.7675 16644.96 
L 21.06975 16644.96 
L 21.372 16644.96 
L 21.67425 16644.96 
L 21.9765 16644.96 
L 22.27875 16644.96 
L 22.581 16644.96 
L 22.88325 16644.96 
L 23.1855 16644.96 
L 23.48775 16644.96 
L 23.79 16644.96 
L 24.09225 16644.96 
L 24.3945 16644.96 
L 24.69675 16644.96 
L 24.999 16644.96 
L 25.30125 16644.96 
L 25.6035 16644.96 
L 25.90575 16644.96 
L 26.208 16644.96 
L 26.51025 16644.96 
L 26.8125 16644.96 
L 27.11475 16644.96 
L 27.417 16644.96 
L 27.71925 16644.96 
L 28.0215 16644.96 
L 28.32375 16644.96 
L 28.626 16644.96 
L 28.92825 16644.96 
L 29.2305 16644.96 
L 29.53275 16644.96 
L 29.835 16644.96 
L 30.13725 16644.96 
L 30.4395 16644.96 
L 30.74175 16644.96 
L 31.044 16644.96 
L 31.34625 16644.96 
L 31.6485 16644.96 
L 31.95075 16644.96 
L 32.253 16644.96 
L 32.55525 16644.96 
L 32.8575 16644.96 
L 33.15975 16644.96 
L 33.462 16644.96 
L 33.76425 16644.96 
L 34.0665 16644.96 
L 34.36875 16644.96 
L 34.671 16644.96 
L 34.97325 16644.96 
L 35.2755 16644.96 
L 35.57775 16644.96 
L 35.88 16644.96 
L 36.18225 16644.96 
L 36.4845 16644.96 
L 36.78675 16644.96 
L 37.089 16644.96 
L 37.39125 16644.96 
L 37.6935 16644.96 
L 37.99575 16644.96 
L 38.298 16644.96 
L 38.60025 16644.96 
L 38.9025 16644.96 
L 39.20475 16644.96 
L 39.507 16644.96 
L 39.80925 16644.96 
L 40.1115 16644.96 
L 40.41375 16644.96 
L 40.716 16644.96 
L 41.01825 16644.96 
L 41.3205 16644.96 
L 41.62275 16644.96 
L 41.925 16644.96 
L 42.22725 16644.96 
L 42.5295 16644.96 
L 42.83175 16644.96 
L 43.134 16644.96 
L 43.43625 16644.96 
L 43.7385 16644.96 
L 44.04075 16644.96 
L 44.343 16644.96 
L 44.64525 16644.96 
L 44.9475 16644.96 
L 45.24975 16644.96 
L 45.552 16644.96 
L 45.85425 16644.96 
L 46.1565 16644.96 
L 46.45875 16644.96 
L 46.761 16644.96 
L 47.06325 16644.96 
L 47.3655 16644.96 
L 47.66775 16644.96 
L 47.97 16644.96 
L 48.27225 16644.96 
L 48.5745 16644.96 
L 48.87675 16644.96 
L 49.179 16644.96 
L 49.48125 16644.96 
L 49.7835 16644.96 
L 50.08575 16644.96 
L 50.388 16644.96 
L 50.69025 16644.96 
L 50.9925 16644.96 
L 51.29475 16644.96 
L 51.597 16644.96 
L 51.89925 16644.96 
L 52.2015 16644.96 
L 52.50375 16644.96 
L 52.806 16644.96 
L 53.10825 16644.96 
L 53.4105 16644.96 
L 53.71275 16644.96 
L 54.015 16644.96 
L 54.31725 16644.96 
L 54.6195 16644.96 
L 54.92175 16644.96 
L 55.224 16644.96 
L 55.52625 16644.96 
L 55.8285 16644.96 
L 56.13075 16644.96 
L 56.433 16644.96 
L 56.73525 16644.96 
L 57.0375 16644.96 
L 57.33975 16644.96 
L 57.642 16644.96 
L 57.94425 16644.96 
L 58.2465 16644.96 
L 58.54875 16644.96 
L 58.851 16644.96 
L 59.15325 16644.96 
L 59.4555 16644.96 
L 59.75775 16644.96 
L 60.06 16644.96 
L 60.36225 16644.96 
L 60.6645 16644.96 
L 60.96675 16644.96 
L 61.269 16644.96 
L 61.57125 16644.96 
L 61.8735 16644.96 
L 62.17575 16644.96 
L 62.478 16644.96 
L 62.78025 16644.96 
L 63.0825 16644.96 
L 63.38475 16644.96 
L 63.687 16644.96 
L 63.98925 16644.96 
L 64.2915 16644.96 
L 64.59375 16644.96 
L 64.896 16644.96 
L 65.19825 16644.96 
L 65.5005 16644.96 
L 65.80275 16644.96 
L 66.105 16644.96 
L 66.40725 16644.96 
L 66.7095 16644.96 
L 67.01175 16644.96 
L 67.314 16644.96 
L 67.61625 16644.96 
L 67.9185 16644.96 
L 68.22075 16644.96 
L 68.523 16644.96 
L 68.82525 16644.96 
L 69.1275 16644.96 
L 69.42975 16644.96 
L 69.732 16644.96 
L 70.03425 16644.96 
L 70.3365 16644.96 
L 70.63875 16644.96 
L 70.941 16644.96 
L 71.24325 16644.96 
L 71.5455 16644.96 
L 71.84775 16644.96 
L 72.15 16644.96 
L 72.45225 16644.96 
L 72.7545 16644.96 
L 73.05675 16644.96 
L 73.359 16644.96 
L 73.66125 16644.96 
L 73.9635 16644.96 
L 74.26575 16644.96 
L 74.568 16644.96 
L 74.87025 16644.96 
L 75.1725 16644.96 
L 75.47475 16644.96 
L 75.777 16644.96 
L 76.07925 16644.96 
L 76.3815 16644.96 
L 76.68375 16644.96 
L 76.986 16644.96 
L 77.28825 16644.96 
L 77.5905 16644.96 
L 77.89275 16644.96 
L 78.195 16644.96 
L 78.49725 16644.96 
L 78.7995 16644.96 
L 79.10175 16644.96 
L 79.404 16644.96 
L 79.70625 16644.96 
L 80.0085 16644.96 
L 80.31075 16644.96 
L 80.613 16644.96 
L 80.91525 16644.96 
L 81.2175 16644.96 
L 81.51975 16644.96 
L 81.822 16644.96 
L 82.12425 16644.96 
L 82.4265 16644.96 
L 82.72875 16644.96 
L 83.031 16644.96 
L 83.33325 16644.96 
L 83.6355 16644.96 
L 83.93775 16644.96 
L 84.24 16644.96 
L 84.24 112.497998 
L 84.24 112.497998 
L 83.93775 112.389228 
L 83.6355 112.278816 
L 83.33325 112.166714 
L 83.031 112.052868 
L 82.72875 111.937226 
L 82.4265 111.819731 
L 82.12425 111.700323 
L 81.822 111.578941 
L 81.51975 111.455521 
L 81.2175 111.329993 
L 80.91525 111.202287 
L 80.613 111.072327 
L 80.31075 110.940036 
L 80.0085 110.805329 
L 79.70625 110.66812 
L 79.404 110.528317 
L 79.10175 110.385824 
L 78.7995 110.240537 
L 78.49725 110.092349 
L 78.195 109.941147 
L 77.89275 109.78681 
L 77.5905 109.62921 
L 77.28825 109.468212 
L 76.986 109.303673 
L 76.68375 109.13544 
L 76.3815 108.963353 
L 76.07925 108.787239 
L 75.777 108.606916 
L 75.47475 108.422188 
L 75.1725 108.232847 
L 74.87025 108.038671 
L 74.568 107.839423 
L 74.26575 107.634848 
L 73.9635 107.424674 
L 73.66125 107.208609 
L 73.359 106.98634 
L 73.05675 106.757527 
L 72.7545 106.52181 
L 72.45225 106.278796 
L 72.15 106.028064 
L 71.84775 105.769157 
L 71.5455 105.501585 
L 71.24325 105.224815 
L 70.941 104.93827 
L 70.63875 104.641327 
L 70.3365 104.333307 
L 70.03425 104.01348 
L 69.732 103.681047 
L 69.42975 103.335148 
L 69.1275 102.974846 
L 68.82525 102.599129 
L 68.523 102.206901 
L 68.22075 101.796978 
L 67.9185 101.368082 
L 67.61625 100.918843 
L 67.314 100.447789 
L 67.01175 99.953354 
L 66.7095 99.433875 
L 66.40725 98.887601 
L 66.105 98.312702 
L 65.80275 97.707286 
L 65.5005 97.069419 
L 65.19825 96.397152 
L 64.896 95.688559 
L 64.59375 94.941771 
L 64.2915 94.155035 
L 63.98925 93.326756 
L 63.687 92.45556 
L 63.38475 91.540351 
L 63.0825 90.58036 
L 62.78025 89.575203 
L 62.478 88.524912 
L 62.17575 87.42997 
L 61.8735 86.291316 
L 61.57125 85.110349 
L 61.269 83.888903 
L 60.96675 82.629216 
L 60.6645 81.333879 
L 60.36225 80.005784 
L 60.06 78.648055 
L 59.75775 77.263991 
L 59.4555 75.856994 
L 59.15325 74.430515 
L 58.851 72.987994 
L 58.54875 71.532818 
L 58.2465 70.068278 
L 57.94425 68.59754 
L 57.642 67.12362 
L 57.33975 65.649369 
L 57.0375 64.177463 
L 56.73525 62.7104 
L 56.433 61.250498 
L 56.13075 59.799902 
L 55.8285 58.360588 
L 55.52625 56.934373 
L 55.224 55.522927 
L 54.92175 54.127781 
L 54.6195 52.750342 
L 54.31725 51.3919 
L 54.015 50.053642 
L 53.71275 48.736661 
L 53.4105 47.441965 
L 53.10825 46.170485 
L 52.806 44.923082 
L 52.50375 43.700552 
L 52.2015 42.50363 
L 51.89925 41.332996 
L 51.597 40.189274 
L 51.29475 39.073036 
L 50.9925 37.984798 
L 50.69025 36.925024 
L 50.388 35.894124 
L 50.08575 34.892449 
L 49.7835 33.920295 
L 49.48125 32.977895 
L 49.179 32.065423 
L 48.87675 31.182987 
L 48.5745 30.330631 
L 48.27225 29.508334 
L 47.97 28.716006 
L 47.66775 27.953491 
L 47.3655 27.220568 
L 47.06325 26.516949 
L 46.761 25.842285 
L 46.45875 25.196164 
L 46.1565 24.578117 
L 45.85425 23.98762 
L 45.552 23.4241 
L 45.24975 22.886935 
L 44.9475 22.375464 
L 44.64525 21.888987 
L 44.343 21.426776 
L 44.04075 20.988072 
L 43.7385 20.572097 
L 43.43625 20.178056 
L 43.134 19.805142 
L 42.83175 19.452541 
L 42.5295 19.119437 
L 42.22725 18.805014 
L 41.925 18.508463 
L 41.62275 18.228981 
L 41.3205 17.96578 
L 41.01825 17.718085 
L 40.716 17.485137 
L 40.41375 17.266197 
L 40.1115 17.060547 
L 39.80925 16.867491 
L 39.507 16.686355 
L 39.20475 16.516491 
L 38.9025 16.357275 
L 38.60025 16.208107 
L 38.298 16.068414 
L 37.99575 15.937647 
L 37.6935 15.815284 
L 37.39125 15.700824 
L 37.089 15.593796 
L 36.78675 15.493747 
L 36.4845 15.400251 
L 36.18225 15.312904 
L 35.88 15.231322 
L 35.57775 15.155144 
L 35.2755 15.084028 
L 34.97325 15.017653 
L 34.671 14.955715 
L 34.36875 14.897929 
L 34.0665 14.844026 
L 33.76425 14.793753 
L 33.462 14.746873 
L 33.15975 14.703163 
L 32.8575 14.662415 
L 32.55525 14.624433 
L 32.253 14.589033 
L 31.95075 14.556043 
L 31.6485 14.525303 
L 31.34625 14.496661 
L 31.044 14.469977 
L 30.74175 14.445119 
L 30.4395 14.421964 
L 30.13725 14.400396 
L 29.835 14.380309 
L 29.53275 14.361602 
L 29.2305 14.344181 
L 28.92825 14.327958 
L 28.626 14.312852 
L 28.32375 14.298786 
L 28.0215 14.28569 
L 27.71925 14.273497 
L 27.417 14.262146 
L 27.11475 14.251578 
L 26.8125 14.241739 
L 26.51025 14.232581 
L 26.208 14.224055 
L 25.90575 14.216119 
L 25.6035 14.208732 
L 25.30125 14.201855 
L 24.999 14.195455 
L 24.69675 14.189497 
L 24.3945 14.183952 
L 24.09225 14.178791 
L 23.79 14.173987 
L 23.48775 14.169516 
L 23.1855 14.165355 
L 22.88325 14.161482 
L 22.581 14.157878 
L 22.27875 14.154523 
L 21.9765 14.151401 
L 21.67425 14.148495 
L 21.372 14.145791 
L 21.06975 14.143274 
L 20.7675 14.140932 
L 20.46525 14.138752 
L 20.163 14.136724 
L 19.86075 14.134836 
L 19.5585 14.133079 
L 19.25625 14.131444 
L 18.954 14.129922 
L 18.65175 14.128506 
L 18.3495 14.127188 
L 18.04725 14.125961 
L 17.745 14.12482 
L 17.44275 14.123758 
L 17.1405 14.122769 
L 16.83825 14.12185 
L 16.536 14.120993 
L 16.23375 14.120197 
L 15.9315 14.119455 
L 15.62925 14.118765 
L 15.327 14.118123 
L 15.02475 14.117526 
L 14.7225 14.11697 
L 14.42025 14.116452 
L 14.118 14.115971 
L 13.81575 14.115523 
L 13.5135 14.115105 
L 13.21125 14.114717 
L 12.909 14.114356 
L 12.60675 14.11402 
L 12.3045 14.113707 
L 12.00225 14.113416 
L 11.7 14.113145 
z
" clip-path="url(#pd6f94efb7c)" style="fill: #ff8ef4; fill-opacity: 0.85"/>
   </g>
   <g id="FillBetweenPolyCollection_2">
    <path d="M 11.7 12.963376 
L 11.7 14.113145 
L 12.00225 14.113416 
L 12.3045 14.113707 
L 12.60675 14.11402 
L 12.909 14.114356 
L 13.21125 14.114717 
L 13.5135 14.115105 
L 13.81575 14.115523 
L 14.118 14.115971 
L 14.42025 14.116452 
L 14.7225 14.11697 
L 15.02475 14.117526 
L 15.327 14.118123 
L 15.62925 14.118765 
L 15.9315 14.119455 
L 16.23375 14.120197 
L 16.536 14.120993 
L 16.83825 14.12185 
L 17.1405 14.122769 
L 17.44275 14.123758 
L 17.745 14.12482 
L 18.04725 14.125961 
L 18.3495 14.127188 
L 18.65175 14.128506 
L 18.954 14.129922 
L 19.25625 14.131444 
L 19.5585 14.133079 
L 19.86075 14.134836 
L 20.163 14.136724 
L 20.46525 14.138752 
L 20.7675 14.140932 
L 21.06975 14.143274 
L 21.372 14.145791 
L 21.67425 14.148495 
L 21.9765 14.151401 
L 22.27875 14.154523 
L 22.581 14.157878 
L 22.88325 14.161482 
L 23.1855 14.165355 
L 23.48775 14.169516 
L 23.79 14.173987 
L 24.09225 14.178791 
L 24.3945 14.183952 
L 24.69675 14.189497 
L 24.999 14.195455 
L 25.30125 14.201855 
L 25.6035 14.208732 
L 25.90575 14.216119 
L 26.208 14.224055 
L 26.51025 14.232581 
L 26.8125 14.241739 
L 27.11475 14.251578 
L 27.417 14.262146 
L 27.71925 14.273497 
L 28.0215 14.28569 
L 28.32375 14.298786 
L 28.626 14.312852 
L 28.92825 14.327958 
L 29.2305 14.344181 
L 29.53275 14.361602 
L 29.835 14.380309 
L 30.13725 14.400396 
L 30.4395 14.421964 
L 30.74175 14.445119 
L 31.044 14.469977 
L 31.34625 14.496661 
L 31.6485 14.525303 
L 31.95075 14.556043 
L 32.253 14.589033 
L 32.55525 14.624433 
L 32.8575 14.662415 
L 33.15975 14.703163 
L 33.462 14.746873 
L 33.76425 14.793753 
L 34.0665 14.844026 
L 34.36875 14.897929 
L 34.671 14.955715 
L 34.97325 15.017653 
L 35.2755 15.084028 
L 35.57775 15.155144 
L 35.88 15.231322 
L 36.18225 15.312904 
L 36.4845 15.400251 
L 36.78675 15.493747 
L 37.089 15.593796 
L 37.39125 15.700824 
L 37.6935 15.815284 
L 37.99575 15.937647 
L 38.298 16.068414 
L 38.60025 16.208107 
L 38.9025 16.357275 
L 39.20475 16.516491 
L 39.507 16.686355 
L 39.80925 16.867491 
L 40.1115 17.060547 
L 40.41375 17.266197 
L 40.716 17.485137 
L 41.01825 17.718085 
L 41.3205 17.96578 
L 41.62275 18.228981 
L 41.925 18.508463 
L 42.22725 18.805014 
L 42.5295 19.119437 
L 42.83175 19.452541 
L 43.134 19.805142 
L 43.43625 20.178056 
L 43.7385 20.572097 
L 44.04075 20.988072 
L 44.343 21.426776 
L 44.64525 21.888987 
L 44.9475 22.375464 
L 45.24975 22.886935 
L 45.552 23.4241 
L 45.85425 23.98762 
L 46.1565 24.578117 
L 46.45875 25.196164 
L 46.761 25.842285 
L 47.06325 26.516949 
L 47.3655 27.220568 
L 47.66775 27.953491 
L 47.97 28.716006 
L 48.27225 29.508334 
L 48.5745 30.330631 
L 48.87675 31.182987 
L 49.179 32.065423 
L 49.48125 32.977895 
L 49.7835 33.920295 
L 50.08575 34.892449 
L 50.388 35.894124 
L 50.69025 36.925024 
L 50.9925 37.984798 
L 51.29475 39.073036 
L 51.597 40.189274 
L 51.89925 41.332996 
L 52.2015 42.50363 
L 52.50375 43.700552 
L 52.806 44.923082 
L 53.10825 46.170485 
L 53.4105 47.441965 
L 53.71275 48.736661 
L 54.015 50.053642 
L 54.31725 51.3919 
L 54.6195 52.750342 
L 54.92175 54.127781 
L 55.224 55.522927 
L 55.52625 56.934373 
L 55.8285 58.360588 
L 56.13075 59.799902 
L 56.433 61.250498 
L 56.73525 62.7104 
L 57.0375 64.177463 
L 57.33975 65.649369 
L 57.642 67.12362 
L 57.94425 68.59754 
L 58.2465 70.068278 
L 58.54875 71.532818 
L 58.851 72.987994 
L 59.15325 74.430515 
L 59.4555 75.856994 
L 59.75775 77.263991 
L 60.06 78.648055 
L 60.36225 80.005784 
L 60.6645 81.333879 
L 60.96675 82.629216 
L 61.269 83.888903 
L 61.57125 85.110349 
L 61.8735 86.291316 
L 62.17575 87.42997 
L 62.478 88.524912 
L 62.78025 89.575203 
L 63.0825 90.58036 
L 63.38475 91.540351 
L 63.687 92.45556 
L 63.98925 93.326756 
L 64.2915 94.155035 
L 64.59375 94.941771 
L 64.896 95.688559 
L 65.19825 96.397152 
L 65.5005 97.069419 
L 65.80275 97.707286 
L 66.105 98.312702 
L 66.40725 98.887601 
L 66.7095 99.433875 
L 67.01175 99.953354 
L 67.314 100.447789 
L 67.61625 100.918843 
L 67.9185 101.368082 
L 68.22075 101.796978 
L 68.523 102.206901 
L 68.82525 102.599129 
L 69.1275 102.974846 
L 69.42975 103.335148 
L 69.732 103.681047 
L 70.03425 104.01348 
L 70.3365 104.333307 
L 70.63875 104.641327 
L 70.941 104.93827 
L 71.24325 105.224815 
L 71.5455 105.501585 
L 71.84775 105.769157 
L 72.15 106.028064 
L 72.45225 106.278796 
L 72.7545 106.52181 
L 73.05675 106.757527 
L 73.359 106.98634 
L 73.66125 107.208609 
L 73.9635 107.424674 
L 74.26575 107.634848 
L 74.568 107.839423 
L 74.87025 108.038671 
L 75.1725 108.232847 
L 75.47475 108.422188 
L 75.777 108.606916 
L 76.07925 108.787239 
L 76.3815 108.963353 
L 76.68375 109.13544 
L 76.986 109.303673 
L 77.28825 109.468212 
L 77.5905 109.62921 
L 77.89275 109.78681 
L 78.195 109.941147 
L 78.49725 110.092349 
L 78.7995 110.240537 
L 79.10175 110.385824 
L 79.404 110.528317 
L 79.70625 110.66812 
L 80.0085 110.805329 
L 80.31075 110.940036 
L 80.613 111.072327 
L 80.91525 111.202287 
L 81.2175 111.329993 
L 81.51975 111.455521 
L 81.822 111.578941 
L 82.12425 111.700323 
L 82.4265 111.819731 
L 82.72875 111.937226 
L 83.031 112.052868 
L 83.33325 112.166714 
L 83.6355 112.278816 
L 83.93775 112.389228 
L 84.24 112.497998 
L 84.24 102.441987 
L 84.24 102.441987 
L 83.93775 102.192649 
L 83.6355 101.935543 
L 83.33325 101.670446 
L 83.031 101.396819 
L 82.72875 101.114306 
L 82.4265 100.822479 
L 82.12425 100.520897 
L 81.822 100.209098 
L 81.51975 99.886603 
L 81.2175 99.552917 
L 80.91525 99.20753 
L 80.613 98.849917 
L 80.31075 98.479541 
L 80.0085 98.095854 
L 79.70625 97.6983 
L 79.404 97.286321 
L 79.10175 96.859354 
L 78.7995 96.416838 
L 78.49725 95.958221 
L 78.195 95.482961 
L 77.89275 94.990531 
L 77.5905 94.480425 
L 77.28825 93.952166 
L 76.986 93.405306 
L 76.68375 92.839439 
L 76.3815 92.254198 
L 76.07925 91.64927 
L 75.777 91.024392 
L 75.47475 90.379363 
L 75.1725 89.714044 
L 74.87025 89.028361 
L 74.568 88.322313 
L 74.26575 87.595968 
L 73.9635 86.849467 
L 73.66125 86.083026 
L 73.359 85.296931 
L 73.05675 84.491543 
L 72.7545 83.667289 
L 72.45225 82.824666 
L 72.15 81.964234 
L 71.84775 81.086614 
L 71.5455 80.192483 
L 71.24325 79.282573 
L 70.941 78.357663 
L 70.63875 77.418578 
L 70.3365 76.466185 
L 70.03425 75.501387 
L 69.732 74.525124 
L 69.42975 73.538363 
L 69.1275 72.542103 
L 68.82525 71.537367 
L 68.523 70.525203 
L 68.22075 69.506679 
L 67.9185 68.482884 
L 67.61625 67.454926 
L 67.314 66.42393 
L 67.01175 65.391037 
L 66.7095 64.357403 
L 66.40725 63.324198 
L 66.105 62.292605 
L 65.80275 61.263817 
L 65.5005 60.239039 
L 65.19825 59.219482 
L 64.896 58.206364 
L 64.59375 57.200903 
L 64.2915 56.204322 
L 63.98925 55.217837 
L 63.687 54.242657 
L 63.38475 53.279982 
L 63.0825 52.330991 
L 62.78025 51.396844 
L 62.478 50.478669 
L 62.17575 49.577561 
L 61.8735 48.694569 
L 61.57125 47.830694 
L 61.269 46.986877 
L 60.96675 46.163991 
L 60.6645 45.362831 
L 60.36225 44.584107 
L 60.06 43.828436 
L 59.75775 43.096327 
L 59.4555 42.388179 
L 59.15325 41.704265 
L 58.851 41.044728 
L 58.54875 40.409574 
L 58.2465 39.798658 
L 57.94425 39.211683 
L 57.642 38.64819 
L 57.33975 38.107554 
L 57.0375 37.58898 
L 56.73525 37.091498 
L 56.433 36.613961 
L 56.13075 36.15505 
L 55.8285 35.71327 
L 55.52625 35.28696 
L 55.224 34.8743 
L 54.92175 34.473323 
L 54.6195 34.081938 
L 54.31725 33.697948 
L 54.015 33.319083 
L 53.71275 32.943036 
L 53.4105 32.567508 
L 53.10825 32.190255 
L 52.806 31.809142 
L 52.50375 31.422204 
L 52.2015 31.027697 
L 51.89925 30.624159 
L 51.597 30.210451 
L 51.29475 29.7858 
L 50.9925 29.349823 
L 50.69025 28.902534 
L 50.388 28.44434 
L 50.08575 27.976019 
L 49.7835 27.498679 
L 49.48125 27.013718 
L 49.179 26.522758 
L 48.87675 26.027592 
L 48.5745 25.53012 
L 48.27225 25.03229 
L 47.97 24.536042 
L 47.66775 24.043267 
L 47.3655 23.555763 
L 47.06325 23.075207 
L 46.761 22.60313 
L 46.45875 22.140906 
L 46.1565 21.689741 
L 45.85425 21.250671 
L 45.552 20.824562 
L 45.24975 20.412119 
L 44.9475 20.01389 
L 44.64525 19.630279 
L 44.343 19.261557 
L 44.04075 18.907872 
L 43.7385 18.569265 
L 43.43625 18.245679 
L 43.134 17.93697 
L 42.83175 17.642923 
L 42.5295 17.363258 
L 42.22725 17.097645 
L 41.925 16.845708 
L 41.62275 16.607036 
L 41.3205 16.381192 
L 41.01825 16.167716 
L 40.716 15.966136 
L 40.41375 15.77597 
L 40.1115 15.596729 
L 39.80925 15.427928 
L 39.507 15.269082 
L 39.20475 15.119713 
L 38.9025 14.979352 
L 38.60025 14.847539 
L 38.298 14.723829 
L 37.99575 14.607787 
L 37.6935 14.498996 
L 37.39125 14.397052 
L 37.089 14.301568 
L 36.78675 14.212173 
L 36.4845 14.128512 
L 36.18225 14.050246 
L 35.88 13.977053 
L 35.57775 13.908627 
L 35.2755 13.844675 
L 34.97325 13.784923 
L 34.671 13.72911 
L 34.36875 13.676988 
L 34.0665 13.628325 
L 33.76425 13.582901 
L 33.462 13.540509 
L 33.15975 13.500953 
L 32.8575 13.464051 
L 32.55525 13.42963 
L 32.253 13.397528 
L 31.95075 13.367593 
L 31.6485 13.339682 
L 31.34625 13.313662 
L 31.044 13.289407 
L 30.74175 13.2668 
L 30.4395 13.245732 
L 30.13725 13.226098 
L 29.835 13.207803 
L 29.53275 13.190758 
L 29.2305 13.174877 
L 28.92825 13.160083 
L 28.626 13.146301 
L 28.32375 13.133464 
L 28.0215 13.121507 
L 27.71925 13.110371 
L 27.417 13.1 
L 27.11475 13.090341 
L 26.8125 13.081346 
L 26.51025 13.072969 
L 26.208 13.06517 
L 25.90575 13.057907 
L 25.6035 13.051144 
L 25.30125 13.044848 
L 24.999 13.038985 
L 24.69675 13.033527 
L 24.3945 13.028445 
L 24.09225 13.023714 
L 23.79 13.019309 
L 23.48775 13.015209 
L 23.1855 13.011391 
L 22.88325 13.007837 
L 22.581 13.004529 
L 22.27875 13.001449 
L 21.9765 12.998582 
L 21.67425 12.995914 
L 21.372 12.993429 
L 21.06975 12.991117 
L 20.7675 12.988964 
L 20.46525 12.98696 
L 20.163 12.985095 
L 19.86075 12.983359 
L 19.5585 12.981743 
L 19.25625 12.980239 
L 18.954 12.978838 
L 18.65175 12.977535 
L 18.3495 12.976322 
L 18.04725 12.975193 
L 17.745 12.974142 
L 17.44275 12.973164 
L 17.1405 12.972253 
L 16.83825 12.971405 
L 16.536 12.970617 
L 16.23375 12.969882 
L 15.9315 12.969199 
L 15.62925 12.968563 
L 15.327 12.967971 
L 15.02475 12.96742 
L 14.7225 12.966907 
L 14.42025 12.966429 
L 14.118 12.965985 
L 13.81575 12.965571 
L 13.5135 12.965186 
L 13.21125 12.964828 
L 12.909 12.964495 
L 12.60675 12.964184 
L 12.3045 12.963895 
L 12.00225 12.963626 
L 11.7 12.963376 
z
" clip-path="url(#pd6f94efb7c)" style="fill: #ffff7c; fill-opacity: 0.85"/>
   </g>
   <g id="FillBetweenPolyCollection_3">
    <path d="M 11.7 12.963363 
L 11.7 12.963376 
L 12.00225 12.963626 
L 12.3045 12.963895 
L 12.60675 12.964184 
L 12.909 12.964495 
L 13.21125 12.964828 
L 13.5135 12.965186 
L 13.81575 12.965571 
L 14.118 12.965985 
L 14.42025 12.966429 
L 14.7225 12.966907 
L 15.02475 12.96742 
L 15.327 12.967971 
L 15.62925 12.968563 
L 15.9315 12.969199 
L 16.23375 12.969882 
L 16.536 12.970617 
L 16.83825 12.971405 
L 17.1405 12.972253 
L 17.44275 12.973164 
L 17.745 12.974142 
L 18.04725 12.975193 
L 18.3495 12.976322 
L 18.65175 12.977535 
L 18.954 12.978838 
L 19.25625 12.980239 
L 19.5585 12.981743 
L 19.86075 12.983359 
L 20.163 12.985095 
L 20.46525 12.98696 
L 20.7675 12.988964 
L 21.06975 12.991117 
L 21.372 12.993429 
L 21.67425 12.995914 
L 21.9765 12.998582 
L 22.27875 13.001449 
L 22.581 13.004529 
L 22.88325 13.007837 
L 23.1855 13.011391 
L 23.48775 13.015209 
L 23.79 13.019309 
L 24.09225 13.023714 
L 24.3945 13.028445 
L 24.69675 13.033527 
L 24.999 13.038985 
L 25.30125 13.044848 
L 25.6035 13.051144 
L 25.90575 13.057907 
L 26.208 13.06517 
L 26.51025 13.072969 
L 26.8125 13.081346 
L 27.11475 13.090341 
L 27.417 13.1 
L 27.71925 13.110371 
L 28.0215 13.121507 
L 28.32375 13.133464 
L 28.626 13.146301 
L 28.92825 13.160083 
L 29.2305 13.174877 
L 29.53275 13.190758 
L 29.835 13.207803 
L 30.13725 13.226098 
L 30.4395 13.245732 
L 30.74175 13.2668 
L 31.044 13.289407 
L 31.34625 13.313662 
L 31.6485 13.339682 
L 31.95075 13.367593 
L 32.253 13.397528 
L 32.55525 13.42963 
L 32.8575 13.464051 
L 33.15975 13.500953 
L 33.462 13.540509 
L 33.76425 13.582901 
L 34.0665 13.628325 
L 34.36875 13.676988 
L 34.671 13.72911 
L 34.97325 13.784923 
L 35.2755 13.844675 
L 35.57775 13.908627 
L 35.88 13.977053 
L 36.18225 14.050246 
L 36.4845 14.128512 
L 36.78675 14.212173 
L 37.089 14.301568 
L 37.39125 14.397052 
L 37.6935 14.498996 
L 37.99575 14.607787 
L 38.298 14.723829 
L 38.60025 14.847539 
L 38.9025 14.979352 
L 39.20475 15.119713 
L 39.507 15.269082 
L 39.80925 15.427928 
L 40.1115 15.596729 
L 40.41375 15.77597 
L 40.716 15.966136 
L 41.01825 16.167716 
L 41.3205 16.381192 
L 41.62275 16.607036 
L 41.925 16.845708 
L 42.22725 17.097645 
L 42.5295 17.363258 
L 42.83175 17.642923 
L 43.134 17.93697 
L 43.43625 18.245679 
L 43.7385 18.569265 
L 44.04075 18.907872 
L 44.343 19.261557 
L 44.64525 19.630279 
L 44.9475 20.01389 
L 45.24975 20.412119 
L 45.552 20.824562 
L 45.85425 21.250671 
L 46.1565 21.689741 
L 46.45875 22.140906 
L 46.761 22.60313 
L 47.06325 23.075207 
L 47.3655 23.555763 
L 47.66775 24.043267 
L 47.97 24.536042 
L 48.27225 25.03229 
L 48.5745 25.53012 
L 48.87675 26.027592 
L 49.179 26.522758 
L 49.48125 27.013718 
L 49.7835 27.498679 
L 50.08575 27.976019 
L 50.388 28.44434 
L 50.69025 28.902534 
L 50.9925 29.349823 
L 51.29475 29.7858 
L 51.597 30.210451 
L 51.89925 30.624159 
L 52.2015 31.027697 
L 52.50375 31.422204 
L 52.806 31.809142 
L 53.10825 32.190255 
L 53.4105 32.567508 
L 53.71275 32.943036 
L 54.015 33.319083 
L 54.31725 33.697948 
L 54.6195 34.081938 
L 54.92175 34.473323 
L 55.224 34.8743 
L 55.52625 35.28696 
L 55.8285 35.71327 
L 56.13075 36.15505 
L 56.433 36.613961 
L 56.73525 37.091498 
L 57.0375 37.58898 
L 57.33975 38.107554 
L 57.642 38.64819 
L 57.94425 39.211683 
L 58.2465 39.798658 
L 58.54875 40.409574 
L 58.851 41.044728 
L 59.15325 41.704265 
L 59.4555 42.388179 
L 59.75775 43.096327 
L 60.06 43.828436 
L 60.36225 44.584107 
L 60.6645 45.362831 
L 60.96675 46.163991 
L 61.269 46.986877 
L 61.57125 47.830694 
L 61.8735 48.694569 
L 62.17575 49.577561 
L 62.478 50.478669 
L 62.78025 51.396844 
L 63.0825 52.330991 
L 63.38475 53.279982 
L 63.687 54.242657 
L 63.98925 55.217837 
L 64.2915 56.204322 
L 64.59375 57.200903 
L 64.896 58.206364 
L 65.19825 59.219482 
L 65.5005 60.239039 
L 65.80275 61.263817 
L 66.105 62.292605 
L 66.40725 63.324198 
L 66.7095 64.357403 
L 67.01175 65.391037 
L 67.314 66.42393 
L 67.61625 67.454926 
L 67.9185 68.482884 
L 68.22075 69.506679 
L 68.523 70.525203 
L 68.82525 71.537367 
L 69.1275 72.542103 
L 69.42975 73.538363 
L 69.732 74.525124 
L 70.03425 75.501387 
L 70.3365 76.466185 
L 70.63875 77.418578 
L 70.941 78.357663 
L 71.24325 79.282573 
L 71.5455 80.192483 
L 71.84775 81.086614 
L 72.15 81.964234 
L 72.45225 82.824666 
L 72.7545 83.667289 
L 73.05675 84.491543 
L 73.359 85.296931 
L 73.66125 86.083026 
L 73.9635 86.849467 
L 74.26575 87.595968 
L 74.568 88.322313 
L 74.87025 89.028361 
L 75.1725 89.714044 
L 75.47475 90.379363 
L 75.777 91.024392 
L 76.07925 91.64927 
L 76.3815 92.254198 
L 76.68375 92.839439 
L 76.986 93.405306 
L 77.28825 93.952166 
L 77.5905 94.480425 
L 77.89275 94.990531 
L 78.195 95.482961 
L 78.49725 95.958221 
L 78.7995 96.416838 
L 79.10175 96.859354 
L 79.404 97.286321 
L 79.70625 97.6983 
L 80.0085 98.095854 
L 80.31075 98.479541 
L 80.613 98.849917 
L 80.91525 99.20753 
L 81.2175 99.552917 
L 81.51975 99.886603 
L 81.822 100.209098 
L 82.12425 100.520897 
L 82.4265 100.822479 
L 82.72875 101.114306 
L 83.031 101.396819 
L 83.33325 101.670446 
L 83.6355 101.935543 
L 83.93775 102.192649 
L 84.24 102.441987 
L 84.24 99.834223 
L 84.24 99.834223 
L 83.93775 99.65954 
L 83.6355 99.477537 
L 83.33325 99.287911 
L 83.031 99.090123 
L 82.72875 98.88375 
L 82.4265 98.668313 
L 82.12425 98.443303 
L 81.822 98.208188 
L 81.51975 97.962412 
L 81.2175 97.705392 
L 80.91525 97.436524 
L 80.613 97.155177 
L 80.31075 96.860704 
L 80.0085 96.552435 
L 79.70625 96.229686 
L 79.404 95.891761 
L 79.10175 95.537954 
L 78.7995 95.167557 
L 78.49725 94.779863 
L 78.195 94.374172 
L 77.89275 93.9498 
L 77.5905 93.506085 
L 77.28825 93.042394 
L 76.986 92.558133 
L 76.68375 92.052752 
L 76.3815 91.525755 
L 76.07925 90.976709 
L 75.777 90.40525 
L 75.47475 89.811088 
L 75.1725 89.194018 
L 74.87025 88.553918 
L 74.568 87.890758 
L 74.26575 87.204601 
L 73.9635 86.495602 
L 73.66125 85.764011 
L 73.359 85.010168 
L 73.05675 84.234504 
L 72.7545 83.437534 
L 72.45225 82.619854 
L 72.15 81.782135 
L 71.84775 80.925117 
L 71.5455 80.049605 
L 71.24325 79.156459 
L 70.941 78.246591 
L 70.63875 77.320956 
L 70.3365 76.380551 
L 70.03425 75.426405 
L 69.732 74.459578 
L 69.42975 73.481153 
L 69.1275 72.492239 
L 68.82525 71.493959 
L 68.523 70.487455 
L 68.22075 69.473885 
L 67.9185 68.454415 
L 67.61625 67.430227 
L 67.314 66.402512 
L 67.01175 65.372469 
L 66.7095 64.341307 
L 66.40725 63.310246 
L 66.105 62.280508 
L 65.80275 61.253325 
L 65.5005 60.229934 
L 65.19825 59.211575 
L 64.896 58.199491 
L 64.59375 57.194923 
L 64.2915 56.199112 
L 63.98925 55.213292 
L 63.687 54.238686 
L 63.38475 53.276506 
L 63.0825 52.327943 
L 62.78025 51.394166 
L 62.478 50.47631 
L 62.17575 49.575479 
L 61.8735 48.692727 
L 61.57125 47.82906 
L 61.269 46.985423 
L 60.96675 46.162693 
L 60.6645 45.361669 
L 60.36225 44.583064 
L 60.06 43.827497 
L 59.75775 43.095479 
L 59.4555 42.387409 
L 59.15325 41.703564 
L 58.851 41.044089 
L 58.54875 40.408989 
L 58.2465 39.79812 
L 57.94425 39.211187 
L 57.642 38.647731 
L 57.33975 38.107129 
L 57.0375 37.588584 
L 56.73525 37.091128 
L 56.433 36.613615 
L 56.13075 36.154726 
L 55.8285 35.712965 
L 55.52625 35.286672 
L 55.224 34.874028 
L 54.92175 34.473066 
L 54.6195 34.081694 
L 54.31725 33.697717 
L 54.015 33.318863 
L 53.71275 32.942828 
L 53.4105 32.56731 
L 53.10825 32.190067 
L 52.806 31.808964 
L 52.50375 31.422035 
L 52.2015 31.027538 
L 51.89925 30.624008 
L 51.597 30.210308 
L 51.29475 29.785666 
L 50.9925 29.349696 
L 50.69025 28.902415 
L 50.388 28.444229 
L 50.08575 27.975914 
L 49.7835 27.498581 
L 49.48125 27.013626 
L 49.179 26.522672 
L 48.87675 26.027512 
L 48.5745 25.530046 
L 48.27225 25.03222 
L 47.97 24.535977 
L 47.66775 24.043207 
L 47.3655 23.555706 
L 47.06325 23.075153 
L 46.761 22.60308 
L 46.45875 22.140859 
L 46.1565 21.689698 
L 45.85425 21.25063 
L 45.552 20.824524 
L 45.24975 20.412082 
L 44.9475 20.013855 
L 44.64525 19.630246 
L 44.343 19.261525 
L 44.04075 18.907843 
L 43.7385 18.569237 
L 43.43625 18.245652 
L 43.134 17.936944 
L 42.83175 17.642898 
L 42.5295 17.363234 
L 42.22725 17.097622 
L 41.925 16.845686 
L 41.62275 16.607015 
L 41.3205 16.381171 
L 41.01825 16.167696 
L 40.716 15.966117 
L 40.41375 15.77595 
L 40.1115 15.59671 
L 39.80925 15.42791 
L 39.507 15.269064 
L 39.20475 15.119696 
L 38.9025 14.979335 
L 38.60025 14.847522 
L 38.298 14.723812 
L 37.99575 14.607771 
L 37.6935 14.49898 
L 37.39125 14.397036 
L 37.089 14.301552 
L 36.78675 14.212158 
L 36.4845 14.128497 
L 36.18225 14.050231 
L 35.88 13.977038 
L 35.57775 13.908612 
L 35.2755 13.84466 
L 34.97325 13.784909 
L 34.671 13.729095 
L 34.36875 13.676974 
L 34.0665 13.628311 
L 33.76425 13.582887 
L 33.462 13.540495 
L 33.15975 13.500939 
L 32.8575 13.464037 
L 32.55525 13.429616 
L 32.253 13.397514 
L 31.95075 13.367579 
L 31.6485 13.339669 
L 31.34625 13.313648 
L 31.044 13.289394 
L 30.74175 13.266787 
L 30.4395 13.245718 
L 30.13725 13.226084 
L 29.835 13.20779 
L 29.53275 13.190744 
L 29.2305 13.174864 
L 28.92825 13.160069 
L 28.626 13.146288 
L 28.32375 13.133451 
L 28.0215 13.121494 
L 27.71925 13.110358 
L 27.417 13.099986 
L 27.11475 13.090327 
L 26.8125 13.081332 
L 26.51025 13.072956 
L 26.208 13.065156 
L 25.90575 13.057894 
L 25.6035 13.051131 
L 25.30125 13.044835 
L 24.999 13.038972 
L 24.69675 13.033514 
L 24.3945 13.028432 
L 24.09225 13.023701 
L 23.79 13.019296 
L 23.48775 13.015195 
L 23.1855 13.011378 
L 22.88325 13.007824 
L 22.581 13.004516 
L 22.27875 13.001436 
L 21.9765 12.998569 
L 21.67425 12.9959 
L 21.372 12.993416 
L 21.06975 12.991104 
L 20.7675 12.988951 
L 20.46525 12.986947 
L 20.163 12.985082 
L 19.86075 12.983346 
L 19.5585 12.98173 
L 19.25625 12.980226 
L 18.954 12.978825 
L 18.65175 12.977522 
L 18.3495 12.976309 
L 18.04725 12.97518 
L 17.745 12.974129 
L 17.44275 12.97315 
L 17.1405 12.97224 
L 16.83825 12.971392 
L 16.536 12.970603 
L 16.23375 12.969869 
L 15.9315 12.969186 
L 15.62925 12.96855 
L 15.327 12.967958 
L 15.02475 12.967406 
L 14.7225 12.966894 
L 14.42025 12.966416 
L 14.118 12.965972 
L 13.81575 12.965558 
L 13.5135 12.965173 
L 13.21125 12.964815 
L 12.909 12.964481 
L 12.60675 12.964171 
L 12.3045 12.963882 
L 12.00225 12.963613 
L 11.7 12.963363 
z
" clip-path="url(#pd6f94efb7c)" style="fill: #7cffff; fill-opacity: 0.85"/>
   </g>
   <g id="FillBetweenPolyCollection_4">
    <path d="M 11.7 12.96 
L 11.7 12.963363 
L 12.00225 12.963613 
L 12.3045 12.963882 
L 12.60675 12.964171 
L 12.909 12.964481 
L 13.21125 12.964815 
L 13.5135 12.965173 
L 13.81575 12.965558 
L 14.118 12.965972 
L 14.42025 12.966416 
L 14.7225 12.966894 
L 15.02475 12.967406 
L 15.327 12.967958 
L 15.62925 12.96855 
L 15.9315 12.969186 
L 16.23375 12.969869 
L 16.536 12.970603 
L 16.83825 12.971392 
L 17.1405 12.97224 
L 17.44275 12.97315 
L 17.745 12.974129 
L 18.04725 12.97518 
L 18.3495 12.976309 
L 18.65175 12.977522 
L 18.954 12.978825 
L 19.25625 12.980226 
L 19.5585 12.98173 
L 19.86075 12.983346 
L 20.163 12.985082 
L 20.46525 12.986947 
L 20.7675 12.988951 
L 21.06975 12.991104 
L 21.372 12.993416 
L 21.67425 12.9959 
L 21.9765 12.998569 
L 22.27875 13.001436 
L 22.581 13.004516 
L 22.88325 13.007824 
L 23.1855 13.011378 
L 23.48775 13.015195 
L 23.79 13.019296 
L 24.09225 13.023701 
L 24.3945 13.028432 
L 24.69675 13.033514 
L 24.999 13.038972 
L 25.30125 13.044835 
L 25.6035 13.051131 
L 25.90575 13.057894 
L 26.208 13.065156 
L 26.51025 13.072956 
L 26.8125 13.081332 
L 27.11475 13.090327 
L 27.417 13.099986 
L 27.71925 13.110358 
L 28.0215 13.121494 
L 28.32375 13.133451 
L 28.626 13.146288 
L 28.92825 13.160069 
L 29.2305 13.174864 
L 29.53275 13.190744 
L 29.835 13.20779 
L 30.13725 13.226084 
L 30.4395 13.245718 
L 30.74175 13.266787 
L 31.044 13.289394 
L 31.34625 13.313648 
L 31.6485 13.339669 
L 31.95075 13.367579 
L 32.253 13.397514 
L 32.55525 13.429616 
L 32.8575 13.464037 
L 33.15975 13.500939 
L 33.462 13.540495 
L 33.76425 13.582887 
L 34.0665 13.628311 
L 34.36875 13.676974 
L 34.671 13.729095 
L 34.97325 13.784909 
L 35.2755 13.84466 
L 35.57775 13.908612 
L 35.88 13.977038 
L 36.18225 14.050231 
L 36.4845 14.128497 
L 36.78675 14.212158 
L 37.089 14.301552 
L 37.39125 14.397036 
L 37.6935 14.49898 
L 37.99575 14.607771 
L 38.298 14.723812 
L 38.60025 14.847522 
L 38.9025 14.979335 
L 39.20475 15.119696 
L 39.507 15.269064 
L 39.80925 15.42791 
L 40.1115 15.59671 
L 40.41375 15.77595 
L 40.716 15.966117 
L 41.01825 16.167696 
L 41.3205 16.381171 
L 41.62275 16.607015 
L 41.925 16.845686 
L 42.22725 17.097622 
L 42.5295 17.363234 
L 42.83175 17.642898 
L 43.134 17.936944 
L 43.43625 18.245652 
L 43.7385 18.569237 
L 44.04075 18.907843 
L 44.343 19.261525 
L 44.64525 19.630246 
L 44.9475 20.013855 
L 45.24975 20.412082 
L 45.552 20.824524 
L 45.85425 21.25063 
L 46.1565 21.689698 
L 46.45875 22.140859 
L 46.761 22.60308 
L 47.06325 23.075153 
L 47.3655 23.555706 
L 47.66775 24.043207 
L 47.97 24.535977 
L 48.27225 25.03222 
L 48.5745 25.530046 
L 48.87675 26.027512 
L 49.179 26.522672 
L 49.48125 27.013626 
L 49.7835 27.498581 
L 50.08575 27.975914 
L 50.388 28.444229 
L 50.69025 28.902415 
L 50.9925 29.349696 
L 51.29475 29.785666 
L 51.597 30.210308 
L 51.89925 30.624008 
L 52.2015 31.027538 
L 52.50375 31.422035 
L 52.806 31.808964 
L 53.10825 32.190067 
L 53.4105 32.56731 
L 53.71275 32.942828 
L 54.015 33.318863 
L 54.31725 33.697717 
L 54.6195 34.081694 
L 54.92175 34.473066 
L 55.224 34.874028 
L 55.52625 35.286672 
L 55.8285 35.712965 
L 56.13075 36.154726 
L 56.433 36.613615 
L 56.73525 37.091128 
L 57.0375 37.588584 
L 57.33975 38.107129 
L 57.642 38.647731 
L 57.94425 39.211187 
L 58.2465 39.79812 
L 58.54875 40.408989 
L 58.851 41.044089 
L 59.15325 41.703564 
L 59.4555 42.387409 
L 59.75775 43.095479 
L 60.06 43.827497 
L 60.36225 44.583064 
L 60.6645 45.361669 
L 60.96675 46.162693 
L 61.269 46.985423 
L 61.57125 47.82906 
L 61.8735 48.692727 
L 62.17575 49.575479 
L 62.478 50.47631 
L 62.78025 51.394166 
L 63.0825 52.327943 
L 63.38475 53.276506 
L 63.687 54.238686 
L 63.98925 55.213292 
L 64.2915 56.199112 
L 64.59375 57.194923 
L 64.896 58.199491 
L 65.19825 59.211575 
L 65.5005 60.229934 
L 65.80275 61.253325 
L 66.105 62.280508 
L 66.40725 63.310246 
L 66.7095 64.341307 
L 67.01175 65.372469 
L 67.314 66.402512 
L 67.61625 67.430227 
L 67.9185 68.454415 
L 68.22075 69.473885 
L 68.523 70.487455 
L 68.82525 71.493959 
L 69.1275 72.492239 
L 69.42975 73.481153 
L 69.732 74.459578 
L 70.03425 75.426405 
L 70.3365 76.380551 
L 70.63875 77.320956 
L 70.941 78.246591 
L 71.24325 79.156459 
L 71.5455 80.049605 
L 71.84775 80.925117 
L 72.15 81.782135 
L 72.45225 82.619854 
L 72.7545 83.437534 
L 73.05675 84.234504 
L 73.359 85.010168 
L 73.66125 85.764011 
L 73.9635 86.495602 
L 74.26575 87.204601 
L 74.568 87.890758 
L 74.87025 88.553918 
L 75.1725 89.194018 
L 75.47475 89.811088 
L 75.777 90.40525 
L 76.07925 90.976709 
L 76.3815 91.525755 
L 76.68375 92.052752 
L 76.986 92.558133 
L 77.28825 93.042394 
L 77.5905 93.506085 
L 77.89275 93.9498 
L 78.195 94.374172 
L 78.49725 94.779863 
L 78.7995 95.167557 
L 79.10175 95.537954 
L 79.404 95.891761 
L 79.70625 96.229686 
L 80.0085 96.552435 
L 80.31075 96.860704 
L 80.613 97.155177 
L 80.91525 97.436524 
L 81.2175 97.705392 
L 81.51975 97.962412 
L 81.822 98.208188 
L 82.12425 98.443303 
L 82.4265 98.668313 
L 82.72875 98.88375 
L 83.031 99.090123 
L 83.33325 99.287911 
L 83.6355 99.477537 
L 83.93775 99.65954 
L 84.24 99.834223 
L 84.24 12.96 
L 84.24 12.96 
L 83.93775 12.96 
L 83.6355 12.96 
L 83.33325 12.96 
L 83.031 12.96 
L 82.72875 12.96 
L 82.4265 12.96 
L 82.12425 12.96 
L 81.822 12.96 
L 81.51975 12.96 
L 81.2175 12.96 
L 80.91525 12.96 
L 80.613 12.96 
L 80.31075 12.96 
L 80.0085 12.96 
L 79.70625 12.96 
L 79.404 12.96 
L 79.10175 12.96 
L 78.7995 12.96 
L 78.49725 12.96 
L 78.195 12.96 
L 77.89275 12.96 
L 77.5905 12.96 
L 77.28825 12.96 
L 76.986 12.96 
L 76.68375 12.96 
L 76.3815 12.96 
L 76.07925 12.96 
L 75.777 12.96 
L 75.47475 12.96 
L 75.1725 12.96 
L 74.87025 12.96 
L 74.568 12.96 
L 74.26575 12.96 
L 73.9635 12.96 
L 73.66125 12.96 
L 73.359 12.96 
L 73.05675 12.96 
L 72.7545 12.96 
L 72.45225 12.96 
L 72.15 12.96 
L 71.84775 12.96 
L 71.5455 12.96 
L 71.24325 12.96 
L 70.941 12.96 
L 70.63875 12.96 
L 70.3365 12.96 
L 70.03425 12.96 
L 69.732 12.96 
L 69.42975 12.96 
L 69.1275 12.96 
L 68.82525 12.96 
L 68.523 12.96 
L 68.22075 12.96 
L 67.9185 12.96 
L 67.61625 12.96 
L 67.314 12.96 
L 67.01175 12.96 
L 66.7095 12.96 
L 66.40725 12.96 
L 66.105 12.96 
L 65.80275 12.96 
L 65.5005 12.96 
L 65.19825 12.96 
L 64.896 12.96 
L 64.59375 12.96 
L 64.2915 12.96 
L 63.98925 12.96 
L 63.687 12.96 
L 63.38475 12.96 
L 63.0825 12.96 
L 62.78025 12.96 
L 62.478 12.96 
L 62.17575 12.96 
L 61.8735 12.96 
L 61.57125 12.96 
L 61.269 12.96 
L 60.96675 12.96 
L 60.6645 12.96 
L 60.36225 12.96 
L 60.06 12.96 
L 59.75775 12.96 
L 59.4555 12.96 
L 59.15325 12.96 
L 58.851 12.96 
L 58.54875 12.96 
L 58.2465 12.96 
L 57.94425 12.96 
L 57.642 12.96 
L 57.33975 12.96 
L 57.0375 12.96 
L 56.73525 12.96 
L 56.433 12.96 
L 56.13075 12.96 
L 55.8285 12.96 
L 55.52625 12.96 
L 55.224 12.96 
L 54.92175 12.96 
L 54.6195 12.96 
L 54.31725 12.96 
L 54.015 12.96 
L 53.71275 12.96 
L 53.4105 12.96 
L 53.10825 12.96 
L 52.806 12.96 
L 52.50375 12.96 
L 52.2015 12.96 
L 51.89925 12.96 
L 51.597 12.96 
L 51.29475 12.96 
L 50.9925 12.96 
L 50.69025 12.96 
L 50.388 12.96 
L 50.08575 12.96 
L 49.7835 12.96 
L 49.48125 12.96 
L 49.179 12.96 
L 48.87675 12.96 
L 48.5745 12.96 
L 48.27225 12.96 
L 47.97 12.96 
L 47.66775 12.96 
L 47.3655 12.96 
L 47.06325 12.96 
L 46.761 12.96 
L 46.45875 12.96 
L 46.1565 12.96 
L 45.85425 12.96 
L 45.552 12.96 
L 45.24975 12.96 
L 44.9475 12.96 
L 44.64525 12.96 
L 44.343 12.96 
L 44.04075 12.96 
L 43.7385 12.96 
L 43.43625 12.96 
L 43.134 12.96 
L 42.83175 12.96 
L 42.5295 12.96 
L 42.22725 12.96 
L 41.925 12.96 
L 41.62275 12.96 
L 41.3205 12.96 
L 41.01825 12.96 
L 40.716 12.96 
L 40.41375 12.96 
L 40.1115 12.96 
L 39.80925 12.96 
L 39.507 12.96 
L 39.20475 12.96 
L 38.9025 12.96 
L 38.60025 12.96 
L 38.298 12.96 
L 37.99575 12.96 
L 37.6935 12.96 
L 37.39125 12.96 
L 37.089 12.96 
L 36.78675 12.96 
L 36.4845 12.96 
L 36.18225 12.96 
L 35.88 12.96 
L 35.57775 12.96 
L 35.2755 12.96 
L 34.97325 12.96 
L 34.671 12.96 
L 34.36875 12.96 
L 34.0665 12.96 
L 33.76425 12.96 
L 33.462 12.96 
L 33.15975 12.96 
L 32.8575 12.96 
L 32.55525 12.96 
L 32.253 12.96 
L 31.95075 12.96 
L 31.6485 12.96 
L 31.34625 12.96 
L 31.044 12.96 
L 30.74175 12.96 
L 30.4395 12.96 
L 30.13725 12.96 
L 29.835 12.96 
L 29.53275 12.96 
L 29.2305 12.96 
L 28.92825 12.96 
L 28.626 12.96 
L 28.32375 12.96 
L 28.0215 12.96 
L 27.71925 12.96 
L 27.417 12.96 
L 27.11475 12.96 
L 26.8125 12.96 
L 26.51025 12.96 
L 26.208 12.96 
L 25.90575 12.96 
L 25.6035 12.96 
L 25.30125 12.96 
L 24.999 12.96 
L 24.69675 12.96 
L 24.3945 12.96 
L 24.09225 12.96 
L 23.79 12.96 
L 23.48775 12.96 
L 23.1855 12.96 
L 22.88325 12.96 
L 22.581 12.96 
L 22.27875 12.96 
L 21.9765 12.96 
L 21.67425 12.96 
L 21.372 12.96 
L 21.06975 12.96 
L 20.7675 12.96 
L 20.46525 12.96 
L 20.163 12.96 
L 19.86075 12.96 
L 19.5585 12.96 
L 19.25625 12.96 
L 18.954 12.96 
L 18.65175 12.96 
L 18.3495 12.96 
L 18.04725 12.96 
L 17.745 12.96 
L 17.44275 12.96 
L 17.1405 12.96 
L 16.83825 12.96 
L 16.536 12.96 
L 16.23375 12.96 
L 15.9315 12.96 
L 15.62925 12.96 
L 15.327 12.96 
L 15.02475 12.96 
L 14.7225 12.96 
L 14.42025 12.96 
L 14.118 12.96 
L 13.81575 12.96 
L 13.5135 12.96 
L 13.21125 12.96 
L 12.909 12.96 
L 12.60675 12.96 
L 12.3045 12.96 
L 12.00225 12.96 
L 11.7 12.96 
z
" clip-path="url(#pd6f94efb7c)" style="fill: #ffa09f; fill-opacity: 0.85"/>
   </g>
   <g id="matplotlib.axis_1">
    <g id="xtick_1">
     <g id="line2d_1">
      <defs>
       <path id="m259537770c" d="M 0 0 
L 0 3.5 
" style="stroke: #000000; stroke-width: 0.8"/>
      </defs>
      <g>
       <use xlink:href="#m259537770c" x="16.77709" y="96.12" style="stroke: #000000; stroke-width: 0.8"/>
      </g>
     </g>
     <g id="text_1">
      <!-- $\mathdefault{10^{-1}}$ -->
      <g transform="translate(9.72709 107.679063)">
       <text>
        <tspan x="0" y="-0.640625" style="font-size: 6px; font-family: 'DejaVu Sans'">1</tspan>
        <tspan x="3.817383" y="-0.640625" style="font-size: 6px; font-family: 'DejaVu Sans'">0</tspan>
        <tspan x="7.692188" y="-2.9375" style="font-size: 4.2px; font-family: 'DejaVu Sans'">−</tspan>
        <tspan x="11.211328" y="-2.9375" style="font-size: 4.2px; font-family: 'DejaVu Sans'">1</tspan>
       </text>
      </g>
     </g>
    </g>
    <g id="xtick_2">
     <g id="line2d_2">
      <g>
       <use xlink:href="#m259537770c" x="33.642817" y="96.12" style="stroke: #000000; stroke-width: 0.8"/>
      </g>
     </g>
     <g id="text_2">
      <!-- $\mathdefault{10^{0}}$ -->
      <g transform="translate(28.362817 107.679063)">
       <text>
        <tspan x="0" y="-0.585938" style="font-size: 6px; font-family: 'DejaVu Sans'">1</tspan>
        <tspan x="3.817383" y="-0.585938" style="font-size: 6px; font-family: 'DejaVu Sans'">0</tspan>
        <tspan x="7.692188" y="-2.882812" style="font-size: 4.2px; font-family: 'DejaVu Sans'">0</tspan>
       </text>
      </g>
     </g>
    </g>
    <g id="xtick_3">
     <g id="line2d_3">
      <g>
       <use xlink:href="#m259537770c" x="50.508545" y="96.12" style="stroke: #000000; stroke-width: 0.8"/>
      </g>
     </g>
     <g id="text_3">
      <!-- $\mathdefault{10^{1}}$ -->
      <g transform="translate(45.228545 107.679063)">
       <text>
        <tspan x="0" y="-0.640625" style="font-size: 6px; font-family: 'DejaVu Sans'">1</tspan>
        <tspan x="3.817383" y="-0.640625" style="font-size: 6px; font-family: 'DejaVu Sans'">0</tspan>
        <tspan x="7.692188" y="-2.9375" style="font-size: 4.2px; font-family: 'DejaVu Sans'">1</tspan>
       </text>
      </g>
     </g>
    </g>
    <g id="xtick_4">
     <g id="line2d_4">
      <g>
       <use xlink:href="#m259537770c" x="67.374272" y="96.12" style="stroke: #000000; stroke-width: 0.8"/>
      </g>
     </g>
     <g id="text_4">
      <!-- $\mathdefault{10^{2}}$ -->
      <g transform="translate(62.094272 107.679063)">
       <text>
        <tspan x="0" y="-0.585938" style="font-size: 6px; font-family: 'DejaVu Sans'">1</tspan>
        <tspan x="3.817383" y="-0.585938" style="font-size: 6px; font-family: 'DejaVu Sans'">0</tspan>
        <tspan x="7.692188" y="-2.882812" style="font-size: 4.2px; font-family: 'DejaVu Sans'">2</tspan>
       </text>
      </g>
     </g>
    </g>
    <g id="xtick_5">
     <g id="line2d_5">
      <g>
       <use xlink:href="#m259537770c" x="84.24" y="96.12" style="stroke: #000000; stroke-width: 0.8"/>
      </g>
     </g>
     <g id="text_5">
      <!-- $\mathdefault{10^{3}}$ -->
      <g transform="translate(78.96 107.679063)">
       <text>
        <tspan x="0" y="-0.585938" style="font-size: 6px; font-family: 'DejaVu Sans'">1</tspan>
        <tspan x="3.817383" y="-0.585938" style="font-size: 6px; font-family: 'DejaVu Sans'">0</tspan>
        <tspan x="7.692188" y="-2.882812" style="font-size: 4.2px; font-family: 'DejaVu Sans'">3</tspan>
       </text>
      </g>
     </g>
    </g>
    <g id="xtick_6"/>
    <g id="xtick_7"/>
    <g id="xtick_8"/>
    <g id="xtick_9"/>
    <g id="xtick_10"/>
    <g id="xtick_11"/>
    <g id="xtick_12"/>
    <g id="xtick_13"/>
    <g id="xtick_14"/>
    <g id="xtick_15"/>
    <g id="xtick_16"/>
    <g id="xtick_17"/>
    <g id="xtick_18"/>
    <g id="xtick_19"/>
    <g id="xtick_20"/>
    <g id="xtick_21"/>
    <g id="xtick_22"/>
    <g id="xtick_23"/>
    <g id="xtick_24"/>
    <g id="xtick_25"/>
    <g id="xtick_26"/>
    <g id="xtick_27"/>
    <g id="xtick_28"/>
    <g id="xtick_29"/>
    <g id="xtick_30"/>
    <g id="xtick_31"/>
    <g id="xtick_32"/>
    <g id="xtick_33"/>
    <g id="xtick_34"/>
    <g id="xtick_35"/>
    <g id="xtick_36"/>
    <g id="xtick_37"/>
    <g id="xtick_38"/>
    <g id="xtick_39"/>
    <g id="xtick_40"/>
    <g id="xtick_41"/>
    <g id="xtick_42"/>
    <g id="text_6">
     <text style="font-size: 6px; font-family: 'DejaVu Sans', 'Arial', 'Helvetica', 'Lucida Grande', 'Verdana', 'Geneva', 'Lucid', 'Avant Garde', sans-serif; text-anchor: middle" x="47.97" y="117.485938" transform="rotate(-0 47.97 117.485938)">Antibiotic concentration C (μg/mL)</text>
    </g>
   </g>
   <g id="matplotlib.axis_2">
    <g id="ytick_1">
     <g id="line2d_6">
      <defs>
       <path id="m07833cbb66" d="M 0 0 
L -3.5 0 
" style="stroke: #000000; stroke-width: 0.8"/>
      </defs>
      <g>
       <use xlink:href="#m07833cbb66" x="11.7" y="96.12" style="stroke: #000000; stroke-width: 0.8"/>
      </g>
     </g>
     <g id="text_7">
      <!-- $\mathdefault{10^{-5}}$ -->
      <g transform="translate(-9.4 98.399531)">
       <text>
        <tspan x="0" y="-0.640625" style="font-size: 6px; font-family: 'DejaVu Sans'">1</tspan>
        <tspan x="3.817383" y="-0.640625" style="font-size: 6px; font-family: 'DejaVu Sans'">0</tspan>
        <tspan x="7.692188" y="-2.9375" style="font-size: 4.2px; font-family: 'DejaVu Sans'">−</tspan>
        <tspan x="11.211328" y="-2.9375" style="font-size: 4.2px; font-family: 'DejaVu Sans'">5</tspan>
       </text>
      </g>
     </g>
    </g>
    <g id="ytick_2">
     <g id="line2d_7">
      <g>
       <use xlink:href="#m07833cbb66" x="11.7" y="79.488" style="stroke: #000000; stroke-width: 0.8"/>
      </g>
     </g>
     <g id="text_8">
      <!-- $\mathdefault{10^{-4}}$ -->
      <g transform="translate(-9.4 81.767531)">
       <text>
        <tspan x="0" y="-0.640625" style="font-size: 6px; font-family: 'DejaVu Sans'">1</tspan>
        <tspan x="3.817383" y="-0.640625" style="font-size: 6px; font-family: 'DejaVu Sans'">0</tspan>
        <tspan x="7.692188" y="-2.9375" style="font-size: 4.2px; font-family: 'DejaVu Sans'">−</tspan>
        <tspan x="11.211328" y="-2.9375" style="font-size: 4.2px; font-family: 'DejaVu Sans'">4</tspan>
       </text>
      </g>
     </g>
    </g>
    <g id="ytick_3">
     <g id="line2d_8">
      <g>
       <use xlink:href="#m07833cbb66" x="11.7" y="62.856" style="stroke: #000000; stroke-width: 0.8"/>
      </g>
     </g>
     <g id="text_9">
      <!-- $\mathdefault{10^{-3}}$ -->
      <g transform="translate(-9.4 65.135531)">
       <text>
        <tspan x="0" y="-0.585938" style="font-size: 6px; font-family: 'DejaVu Sans'">1</tspan>
        <tspan x="3.817383" y="-0.585938" style="font-size: 6px; font-family: 'DejaVu Sans'">0</tspan>
        <tspan x="7.692188" y="-2.882812" style="font-size: 4.2px; font-family: 'DejaVu Sans'">−</tspan>
        <tspan x="11.211328" y="-2.882812" style="font-size: 4.2px; font-family: 'DejaVu Sans'">3</tspan>
       </text>
      </g>
     </g>
    </g>
    <g id="ytick_4">
     <g id="line2d_9">
      <g>
       <use xlink:href="#m07833cbb66" x="11.7" y="46.224" style="stroke: #000000; stroke-width: 0.8"/>
      </g>
     </g>
     <g id="text_10">
      <!-- $\mathdefault{10^{-2}}$ -->
      <g transform="translate(-9.4 48.503531)">
       <text>
        <tspan x="0" y="-0.585938" style="font-size: 6px; font-family: 'DejaVu Sans'">1</tspan>
        <tspan x="3.817383" y="-0.585938" style="font-size: 6px; font-family: 'DejaVu Sans'">0</tspan>
        <tspan x="7.692188" y="-2.882812" style="font-size: 4.2px; font-family: 'DejaVu Sans'">−</tspan>
        <tspan x="11.211328" y="-2.882812" style="font-size: 4.2px; font-family: 'DejaVu Sans'">2</tspan>
       </text>
      </g>
     </g>
    </g>
    <g id="ytick_5">
     <g id="line2d_10">
      <g>
       <use xlink:href="#m07833cbb66" x="11.7" y="29.592" style="stroke: #000000; stroke-width: 0.8"/>
      </g>
     </g>
     <g id="text_11">
      <!-- $\mathdefault{10^{-1}}$ -->
      <g transform="translate(-9.4 31.871531)">
       <text>
        <tspan x="0" y="-0.640625" style="font-size: 6px; font-family: 'DejaVu Sans'">1</tspan>
        <tspan x="3.817383" y="-0.640625" style="font-size: 6px; font-family: 'DejaVu Sans'">0</tspan>
        <tspan x="7.692188" y="-2.9375" style="font-size: 4.2px; font-family: 'DejaVu Sans'">−</tspan>
        <tspan x="11.211328" y="-2.9375" style="font-size: 4.2px; font-family: 'DejaVu Sans'">1</tspan>
       </text>
      </g>
     </g>
    </g>
    <g id="ytick_6">
     <g id="line2d_11">
      <g>
       <use xlink:href="#m07833cbb66" x="11.7" y="12.96" style="stroke: #000000; stroke-width: 0.8"/>
      </g>
     </g>
     <g id="text_12">
      <!-- $\mathdefault{10^{0}}$ -->
      <g transform="translate(-5.86 15.239531)">
       <text>
        <tspan x="0" y="-0.585938" style="font-size: 6px; font-family: 'DejaVu Sans'">1</tspan>
        <tspan x="3.817383" y="-0.585938" style="font-size: 6px; font-family: 'DejaVu Sans'">0</tspan>
        <tspan x="7.692188" y="-2.882812" style="font-size: 4.2px; font-family: 'DejaVu Sans'">0</tspan>
       </text>
      </g>
     </g>
    </g>
    <g id="ytick_7"/>
    <g id="ytick_8"/>
    <g id="ytick_9"/>
    <g id="ytick_10"/>
    <g id="ytick_11"/>
    <g id="ytick_12"/>
    <g id="ytick_13"/>
    <g id="ytick_14"/>
    <g id="ytick_15"/>
    <g id="ytick_16"/>
    <g id="ytick_17"/>
    <g id="ytick_18"/>
    <g id="ytick_19"/>
    <g id="ytick_20"/>
    <g id="ytick_21"/>
    <g id="ytick_22"/>
    <g id="ytick_23"/>
    <g id="ytick_24"/>
    <g id="ytick_25"/>
    <g id="ytick_26"/>
    <g id="ytick_27"/>
    <g id="ytick_28"/>
    <g id="ytick_29"/>
    <g id="ytick_30"/>
    <g id="ytick_31"/>
    <g id="ytick_32"/>
    <g id="ytick_33"/>
    <g id="ytick_34"/>
    <g id="ytick_35"/>
    <g id="ytick_36"/>
    <g id="ytick_37"/>
    <g id="ytick_38"/>
    <g id="ytick_39"/>
    <g id="ytick_40"/>
    <g id="ytick_41"/>
    <g id="ytick_42"/>
    <g id="ytick_43"/>
    <g id="ytick_44"/>
    <g id="ytick_45"/>
    <g id="ytick_46"/>
    <g id="text_13">
     <text style="font-size: 6px; font-family: 'DejaVu Sans', 'Arial', 'Helvetica', 'Lucida Grande', 'Verdana', 'Geneva', 'Lucid', 'Avant Garde', sans-serif; text-anchor: middle" x="-14.647812" y="54.54" transform="rotate(-90 -14.647812 54.54)">Frac of population at Ab removal</text>
    </g>
   </g>
   <g id="patch_3">
    <path d="M 11.7 96.12 
L 11.7 12.96 
" style="fill: none; stroke: #000000; stroke-width: 0.5; stroke-linejoin: miter; stroke-linecap: square"/>
   </g>
   <g id="patch_4">
    <path d="M 11.7 96.12 
L 84.24 96.12 
" style="fill: none; stroke: #000000; stroke-width: 0.5; stroke-linejoin: miter; stroke-linecap: square"/>
   </g>
  </g>
 </g>
 <defs>
  <clipPath id="pd6f94efb7c">
   <rect x="11.7" y="12.96" width="72.54" height="83.16"/>
  </clipPath>
 </defs>
</svg>
