<?xml version="1.0" encoding="utf-8" standalone="no"?>
<!DOCTYPE svg PUBLIC "-//W3C//DTD SVG 1.1//EN"
  "http://www.w3.org/Graphics/SVG/1.1/DTD/svg11.dtd">
<svg xmlns:xlink="http://www.w3.org/1999/xlink" width="93.6pt" height="108pt" viewBox="0 0 93.6 108" xmlns="http://www.w3.org/2000/svg" version="1.1">
 <metadata>
  <rdf:RDF xmlns:dc="http://purl.org/dc/elements/1.1/" xmlns:cc="http://creativecommons.org/ns#" xmlns:rdf="http://www.w3.org/1999/02/22-rdf-syntax-ns#">
   <cc:Work>
    <dc:type rdf:resource="http://purl.org/dc/dcmitype/StillImage"/>
    <dc:date>2026-02-16T18:34:10.076943</dc:date>
    <dc:format>image/svg+xml</dc:format>
    <dc:creator>
     <cc:Agent>
      <dc:title>Matplotlib v3.10.8, https://matplotlib.org/</dc:title>
     </cc:Agent>
    </dc:creator>
   </cc:Work>
  </rdf:RDF>
 </metadata>
 <defs>
  <style type="text/css">*{stroke-linejoin: round; stroke-linecap: butt}</style>
 </defs>
 <g id="figure_1">
  <g id="patch_1">
   <path d="M 0 108 
L 93.6 108 
L 93.6 0 
L 0 0 
L 0 108 
z
" style="fill: none"/>
  </g>
  <g id="axes_1">
   <g id="patch_2">
    <path d="M 11.7 96.12 
L 84.24 96.12 
L 84.24 12.96 
L 11.7 12.96 
L 11.7 96.12 
z
" style="fill: none"/>
   </g>
   <g id="FillBetweenPolyCollection_1">
    <path d="M 11.7 16644.96 
L 11.7 16644.96 
L 12.0627 16644.96 
L 12.4254 16644.96 
L 12.7881 16644.96 
L 13.1508 16644.96 
L 13.5135 16644.96 
L 13.8762 16644.96 
L 14.2389 16644.96 
L 14.6016 16644.96 
L 14.9643 16644.96 
L 15.327 16644.96 
L 15.6897 16644.96 
L 16.0524 16644.96 
L 16.4151 16644.96 
L 16.7778 16644.96 
L 17.1405 16644.96 
L 17.5032 16644.96 
L 17.8659 16644.96 
L 18.2286 16644.96 
L 18.5913 16644.96 
L 18.954 16644.96 
L 19.3167 16644.96 
L 19.6794 16644.96 
L 20.0421 16644.96 
L 20.4048 16644.96 
L 20.7675 16644.96 
L 21.1302 16644.96 
L 21.4929 16644.96 
L 21.8556 16644.96 
L 22.2183 16644.96 
L 22.581 16644.96 
L 22.9437 16644.96 
L 23.3064 16644.96 
L 23.6691 16644.96 
L 24.0318 16644.96 
L 24.3945 16644.96 
L 24.7572 16644.96 
L 25.1199 16644.96 
L 25.4826 16644.96 
L 25.8453 16644.96 
L 26.208 16644.96 
L 26.5707 16644.96 
L 26.9334 16644.96 
L 27.2961 16644.96 
L 27.6588 16644.96 
L 28.0215 16644.96 
L 28.3842 16644.96 
L 28.7469 16644.96 
L 29.1096 16644.96 
L 29.4723 16644.96 
L 29.835 16644.96 
L 30.1977 16644.96 
L 30.5604 16644.96 
L 30.9231 16644.96 
L 31.2858 16644.96 
L 31.6485 16644.96 
L 32.0112 16644.96 
L 32.3739 16644.96 
L 32.7366 16644.96 
L 33.0993 16644.96 
L 33.462 16644.96 
L 33.8247 16644.96 
L 34.1874 16644.96 
L 34.5501 16644.96 
L 34.9128 16644.96 
L 35.2755 16644.96 
L 35.6382 16644.96 
L 36.0009 16644.96 
L 36.3636 16644.96 
L 36.7263 16644.96 
L 37.089 16644.96 
L 37.4517 16644.96 
L 37.8144 16644.96 
L 38.1771 16644.96 
L 38.5398 16644.96 
L 38.9025 16644.96 
L 39.2652 16644.96 
L 39.6279 16644.96 
L 39.9906 16644.96 
L 40.3533 16644.96 
L 40.716 16644.96 
L 41.0787 16644.96 
L 41.4414 16644.96 
L 41.8041 16644.96 
L 42.1668 16644.96 
L 42.5295 16644.96 
L 42.8922 16644.96 
L 43.2549 16644.96 
L 43.6176 16644.96 
L 43.9803 16644.96 
L 44.343 16644.96 
L 44.7057 16644.96 
L 45.0684 16644.96 
L 45.4311 16644.96 
L 45.7938 16644.96 
L 46.1565 16644.96 
L 46.5192 16644.96 
L 46.8819 16644.96 
L 47.2446 16644.96 
L 47.6073 16644.96 
L 47.97 16644.96 
L 48.3327 16644.96 
L 48.6954 16644.96 
L 49.0581 16644.96 
L 49.4208 16644.96 
L 49.7835 16644.96 
L 50.1462 16644.96 
L 50.5089 16644.96 
L 50.8716 16644.96 
L 51.2343 16644.96 
L 51.597 16644.96 
L 51.9597 16644.96 
L 52.3224 16644.96 
L 52.6851 16644.96 
L 53.0478 16644.96 
L 53.4105 16644.96 
L 53.7732 16644.96 
L 54.1359 16644.96 
L 54.4986 16644.96 
L 54.8613 16644.96 
L 55.224 16644.96 
L 55.5867 16644.96 
L 55.9494 16644.96 
L 56.3121 16644.96 
L 56.6748 16644.96 
L 57.0375 16644.96 
L 57.4002 16644.96 
L 57.7629 16644.96 
L 58.1256 16644.96 
L 58.4883 16644.96 
L 58.851 16644.96 
L 59.2137 16644.96 
L 59.5764 16644.96 
L 59.9391 16644.96 
L 60.3018 16644.96 
L 60.6645 16644.96 
L 61.0272 16644.96 
L 61.3899 16644.96 
L 61.7526 16644.96 
L 62.1153 16644.96 
L 62.478 16644.96 
L 62.8407 16644.96 
L 63.2034 16644.96 
L 63.5661 16644.96 
L 63.9288 16644.96 
L 64.2915 16644.96 
L 64.6542 16644.96 
L 65.0169 16644.96 
L 65.3796 16644.96 
L 65.7423 16644.96 
L 66.105 16644.96 
L 66.4677 16644.96 
L 66.8304 16644.96 
L 67.1931 16644.96 
L 67.5558 16644.96 
L 67.9185 16644.96 
L 68.2812 16644.96 
L 68.6439 16644.96 
L 69.0066 16644.96 
L 69.3693 16644.96 
L 69.732 16644.96 
L 70.0947 16644.96 
L 70.4574 16644.96 
L 70.8201 16644.96 
L 71.1828 16644.96 
L 71.5455 16644.96 
L 71.9082 16644.96 
L 72.2709 16644.96 
L 72.6336 16644.96 
L 72.9963 16644.96 
L 73.359 16644.96 
L 73.7217 16644.96 
L 74.0844 16644.96 
L 74.4471 16644.96 
L 74.8098 16644.96 
L 75.1725 16644.96 
L 75.5352 16644.96 
L 75.8979 16644.96 
L 76.2606 16644.96 
L 76.6233 16644.96 
L 76.986 16644.96 
L 77.3487 16644.96 
L 77.7114 16644.96 
L 78.0741 16644.96 
L 78.4368 16644.96 
L 78.7995 16644.96 
L 79.1622 16644.96 
L 79.5249 16644.96 
L 79.8876 16644.96 
L 80.2503 16644.96 
L 80.613 16644.96 
L 80.9757 16644.96 
L 81.3384 16644.96 
L 81.7011 16644.96 
L 82.0638 16644.96 
L 82.4265 16644.96 
L 82.7892 16644.96 
L 83.1519 16644.96 
L 83.5146 16644.96 
L 83.8773 16644.96 
L 84.24 16644.96 
L 84.24 212.315481 
L 84.24 212.315481 
L 83.8773 211.050527 
L 83.5146 209.785656 
L 83.1519 208.520872 
L 82.7892 207.256179 
L 82.4265 205.991581 
L 82.0638 204.727082 
L 81.7011 203.462687 
L 81.3384 202.1984 
L 80.9757 200.934225 
L 80.613 199.670167 
L 80.2503 198.406233 
L 79.8876 197.142426 
L 79.5249 195.878752 
L 79.1622 194.615218 
L 78.7995 193.351828 
L 78.4368 192.08859 
L 78.0741 190.825509 
L 77.7114 189.562591 
L 77.3487 188.299845 
L 76.986 187.037277 
L 76.6233 185.774894 
L 76.2606 184.512704 
L 75.8979 183.250715 
L 75.5352 181.988935 
L 75.1725 180.727374 
L 74.8098 179.466039 
L 74.4471 178.204939 
L 74.0844 176.944085 
L 73.7217 175.683487 
L 73.359 174.423154 
L 72.9963 173.163097 
L 72.6336 171.903327 
L 72.2709 170.643856 
L 71.9082 169.384695 
L 71.5455 168.125856 
L 71.1828 166.867352 
L 70.8201 165.609197 
L 70.4574 164.351402 
L 70.0947 163.093984 
L 69.732 161.836955 
L 69.3693 160.580331 
L 69.0066 159.324127 
L 68.6439 158.06836 
L 68.2812 156.813045 
L 67.9185 155.5582 
L 67.5558 154.303842 
L 67.1931 153.04999 
L 66.8304 151.796661 
L 66.4677 150.543877 
L 66.105 149.291655 
L 65.7423 148.040018 
L 65.3796 146.788987 
L 65.0169 145.538583 
L 64.6542 144.288829 
L 64.2915 143.039749 
L 63.9288 141.791366 
L 63.5661 140.543706 
L 63.2034 139.296794 
L 62.8407 138.050657 
L 62.478 136.805321 
L 62.1153 135.560816 
L 61.7526 134.31717 
L 61.3899 133.074412 
L 61.0272 131.832574 
L 60.6645 130.591688 
L 60.3018 129.351785 
L 59.9391 128.1129 
L 59.5764 126.875067 
L 59.2137 125.638322 
L 58.851 124.402701 
L 58.4883 123.168243 
L 58.1256 121.934986 
L 57.7629 120.70297 
L 57.4002 119.472237 
L 57.0375 118.242829 
L 56.6748 117.01479 
L 56.3121 115.788165 
L 55.9494 114.562999 
L 55.5867 113.339342 
L 55.224 112.117241 
L 54.8613 110.896747 
L 54.4986 109.677912 
L 54.1359 108.46079 
L 53.7732 107.245435 
L 53.4105 106.031905 
L 53.0478 104.820257 
L 52.6851 103.610551 
L 52.3224 102.402849 
L 51.9597 101.197215 
L 51.597 99.993714 
L 51.2343 98.792413 
L 50.8716 97.593382 
L 50.5089 96.396692 
L 50.1462 95.202415 
L 49.7835 94.010629 
L 49.4208 92.821411 
L 49.0581 91.63484 
L 48.6954 90.451 
L 48.3327 89.269976 
L 47.97 88.091855 
L 47.6073 86.916728 
L 47.2446 85.744688 
L 46.8819 84.575832 
L 46.5192 83.410257 
L 46.1565 82.248067 
L 45.7938 81.089366 
L 45.4311 79.934264 
L 45.0684 78.782873 
L 44.7057 77.635308 
L 44.343 76.49169 
L 43.9803 75.352141 
L 43.6176 74.21679 
L 43.2549 73.085768 
L 42.8922 71.959213 
L 42.5295 70.837264 
L 42.1668 69.720069 
L 41.8041 68.607778 
L 41.4414 67.500548 
L 41.0787 66.398541 
L 40.716 65.301924 
L 40.3533 64.210873 
L 39.9906 63.125566 
L 39.6279 62.046192 
L 39.2652 60.972946 
L 38.9025 59.906028 
L 38.5398 58.845649 
L 38.1771 57.792026 
L 37.8144 56.745388 
L 37.4517 55.705969 
L 37.089 54.674015 
L 36.7263 53.649783 
L 36.3636 52.63354 
L 36.0009 51.625564 
L 35.6382 50.626145 
L 35.2755 49.635588 
L 34.9128 48.654211 
L 34.5501 47.682344 
L 34.1874 46.720336 
L 33.8247 45.768551 
L 33.462 44.82737 
L 33.0993 43.897195 
L 32.7366 42.978446 
L 32.3739 42.071565 
L 32.0112 41.177017 
L 31.6485 40.295293 
L 31.2858 39.426908 
L 30.9231 38.572408 
L 30.5604 37.732367 
L 30.1977 36.907395 
L 29.835 36.098134 
L 29.4723 35.305269 
L 29.1096 34.529522 
L 28.7469 33.771663 
L 28.3842 33.03251 
L 28.0215 32.312935 
L 27.6588 31.613868 
L 27.2961 30.936301 
L 26.9334 30.281299 
L 26.5707 29.649998 
L 26.208 29.043623 
L 25.8453 28.463488 
L 25.4826 27.911009 
L 25.1199 27.387715 
L 24.7572 26.89526 
L 24.3945 26.435439 
L 24.0318 26.010198 
L 23.6691 25.621659 
L 23.3064 25.27214 
L 22.9437 24.964178 
L 22.581 24.700559 
L 22.2183 24.48435 
L 21.8556 24.318941 
L 21.4929 24.208093 
L 21.1302 24.15599 
L 20.7675 24.167307 
L 20.4048 24.247291 
L 20.0421 24.40186 
L 19.6794 24.637718 
L 19.3167 24.962505 
L 18.954 25.384979 
L 18.5913 25.915245 
L 18.2286 26.565046 
L 17.8659 27.34814 
L 17.5032 28.280788 
L 17.1405 29.382398 
L 16.7778 30.676402 
L 16.4151 32.191442 
L 16.0524 33.963048 
L 15.6897 36.036037 
L 15.327 38.468063 
L 14.9643 41.335042 
L 14.6016 44.73979 
L 14.2389 48.826452 
L 13.8762 53.806138 
L 13.5135 60.006132 
L 13.1508 67.97473 
L 12.7881 78.739791 
L 12.4254 94.608892 
L 12.0627 122.945312 
L 11.7 16644.96 
z
" clip-path="url(#pd97b1158c7)" style="fill: #ff8ef4; fill-opacity: 0.85"/>
   </g>
   <g id="FillBetweenPolyCollection_2">
    <path d="M 11.7 16644.96 
L 11.7 16644.96 
L 12.0627 122.945312 
L 12.4254 94.608892 
L 12.7881 78.739791 
L 13.1508 67.97473 
L 13.5135 60.006132 
L 13.8762 53.806138 
L 14.2389 48.826452 
L 14.6016 44.73979 
L 14.9643 41.335042 
L 15.327 38.468063 
L 15.6897 36.036037 
L 16.0524 33.963048 
L 16.4151 32.191442 
L 16.7778 30.676402 
L 17.1405 29.382398 
L 17.5032 28.280788 
L 17.8659 27.34814 
L 18.2286 26.565046 
L 18.5913 25.915245 
L 18.954 25.384979 
L 19.3167 24.962505 
L 19.6794 24.637718 
L 20.0421 24.40186 
L 20.4048 24.247291 
L 20.7675 24.167307 
L 21.1302 24.15599 
L 21.4929 24.208093 
L 21.8556 24.318941 
L 22.2183 24.48435 
L 22.581 24.700559 
L 22.9437 24.964178 
L 23.3064 25.27214 
L 23.6691 25.621659 
L 24.0318 26.010198 
L 24.3945 26.435439 
L 24.7572 26.89526 
L 25.1199 27.387715 
L 25.4826 27.911009 
L 25.8453 28.463488 
L 26.208 29.043623 
L 26.5707 29.649998 
L 26.9334 30.281299 
L 27.2961 30.936301 
L 27.6588 31.613868 
L 28.0215 32.312935 
L 28.3842 33.03251 
L 28.7469 33.771663 
L 29.1096 34.529522 
L 29.4723 35.305269 
L 29.835 36.098134 
L 30.1977 36.907395 
L 30.5604 37.732367 
L 30.9231 38.572408 
L 31.2858 39.426908 
L 31.6485 40.295293 
L 32.0112 41.177017 
L 32.3739 42.071565 
L 32.7366 42.978446 
L 33.0993 43.897195 
L 33.462 44.82737 
L 33.8247 45.768551 
L 34.1874 46.720336 
L 34.5501 47.682344 
L 34.9128 48.654211 
L 35.2755 49.635588 
L 35.6382 50.626145 
L 36.0009 51.625564 
L 36.3636 52.63354 
L 36.7263 53.649783 
L 37.089 54.674015 
L 37.4517 55.705969 
L 37.8144 56.745388 
L 38.1771 57.792026 
L 38.5398 58.845649 
L 38.9025 59.906028 
L 39.2652 60.972946 
L 39.6279 62.046192 
L 39.9906 63.125566 
L 40.3533 64.210873 
L 40.716 65.301924 
L 41.0787 66.398541 
L 41.4414 67.500548 
L 41.8041 68.607778 
L 42.1668 69.720069 
L 42.5295 70.837264 
L 42.8922 71.959213 
L 43.2549 73.085768 
L 43.6176 74.21679 
L 43.9803 75.352141 
L 44.343 76.49169 
L 44.7057 77.635308 
L 45.0684 78.782873 
L 45.4311 79.934264 
L 45.7938 81.089366 
L 46.1565 82.248067 
L 46.5192 83.410257 
L 46.8819 84.575832 
L 47.2446 85.744688 
L 47.6073 86.916728 
L 47.97 88.091855 
L 48.3327 89.269976 
L 48.6954 90.451 
L 49.0581 91.63484 
L 49.4208 92.821411 
L 49.7835 94.010629 
L 50.1462 95.202415 
L 50.5089 96.396692 
L 50.8716 97.593382 
L 51.2343 98.792413 
L 51.597 99.993714 
L 51.9597 101.197215 
L 52.3224 102.402849 
L 52.6851 103.610551 
L 53.0478 104.820257 
L 53.4105 106.031905 
L 53.7732 107.245435 
L 54.1359 108.46079 
L 54.4986 109.677912 
L 54.8613 110.896747 
L 55.224 112.117241 
L 55.5867 113.339342 
L 55.9494 114.562999 
L 56.3121 115.788165 
L 56.6748 117.01479 
L 57.0375 118.242829 
L 57.4002 119.472237 
L 57.7629 120.70297 
L 58.1256 121.934986 
L 58.4883 123.168243 
L 58.851 124.402701 
L 59.2137 125.638322 
L 59.5764 126.875067 
L 59.9391 128.1129 
L 60.3018 129.351785 
L 60.6645 130.591688 
L 61.0272 131.832574 
L 61.3899 133.074412 
L 61.7526 134.31717 
L 62.1153 135.560816 
L 62.478 136.805321 
L 62.8407 138.050657 
L 63.2034 139.296794 
L 63.5661 140.543706 
L 63.9288 141.791366 
L 64.2915 143.039749 
L 64.6542 144.288829 
L 65.0169 145.538583 
L 65.3796 146.788987 
L 65.7423 148.040018 
L 66.105 149.291655 
L 66.4677 150.543877 
L 66.8304 151.796661 
L 67.1931 153.04999 
L 67.5558 154.303842 
L 67.9185 155.5582 
L 68.2812 156.813045 
L 68.6439 158.06836 
L 69.0066 159.324127 
L 69.3693 160.580331 
L 69.732 161.836955 
L 70.0947 163.093984 
L 70.4574 164.351402 
L 70.8201 165.609197 
L 71.1828 166.867352 
L 71.5455 168.125856 
L 71.9082 169.384695 
L 72.2709 170.643856 
L 72.6336 171.903327 
L 72.9963 173.163097 
L 73.359 174.423154 
L 73.7217 175.683487 
L 74.0844 176.944085 
L 74.4471 178.204939 
L 74.8098 179.466039 
L 75.1725 180.727374 
L 75.5352 181.988935 
L 75.8979 183.250715 
L 76.2606 184.512704 
L 76.6233 185.774894 
L 76.986 187.037277 
L 77.3487 188.299845 
L 77.7114 189.562591 
L 78.0741 190.825509 
L 78.4368 192.08859 
L 78.7995 193.351828 
L 79.1622 194.615218 
L 79.5249 195.878752 
L 79.8876 197.142426 
L 80.2503 198.406233 
L 80.613 199.670167 
L 80.9757 200.934225 
L 81.3384 202.1984 
L 81.7011 203.462687 
L 82.0638 204.727082 
L 82.4265 205.991581 
L 82.7892 207.256179 
L 83.1519 208.520872 
L 83.5146 209.785656 
L 83.8773 211.050527 
L 84.24 212.315481 
L 84.24 85.580845 
L 84.24 85.580845 
L 83.8773 85.225234 
L 83.5146 84.869623 
L 83.1519 84.514011 
L 82.7892 84.1584 
L 82.4265 83.802789 
L 82.0638 83.447178 
L 81.7011 83.091567 
L 81.3384 82.735955 
L 80.9757 82.380344 
L 80.613 82.024733 
L 80.2503 81.669122 
L 79.8876 81.31351 
L 79.5249 80.957899 
L 79.1622 80.602288 
L 78.7995 80.246676 
L 78.4368 79.891065 
L 78.0741 79.535454 
L 77.7114 79.179843 
L 77.3487 78.824231 
L 76.986 78.46862 
L 76.6233 78.113008 
L 76.2606 77.757397 
L 75.8979 77.401785 
L 75.5352 77.046174 
L 75.1725 76.690562 
L 74.8098 76.334951 
L 74.4471 75.979339 
L 74.0844 75.623727 
L 73.7217 75.268116 
L 73.359 74.912504 
L 72.9963 74.556892 
L 72.6336 74.20128 
L 72.2709 73.845667 
L 71.9082 73.490055 
L 71.5455 73.134443 
L 71.1828 72.77883 
L 70.8201 72.423217 
L 70.4574 72.067604 
L 70.0947 71.711991 
L 69.732 71.356377 
L 69.3693 71.000763 
L 69.0066 70.645149 
L 68.6439 70.289534 
L 68.2812 69.933919 
L 67.9185 69.578303 
L 67.5558 69.222687 
L 67.1931 68.86707 
L 66.8304 68.511452 
L 66.4677 68.155834 
L 66.105 67.800214 
L 65.7423 67.444594 
L 65.3796 67.088972 
L 65.0169 66.733349 
L 64.6542 66.377724 
L 64.2915 66.022097 
L 63.9288 65.666469 
L 63.5661 65.310838 
L 63.2034 64.955204 
L 62.8407 64.599568 
L 62.478 64.243928 
L 62.1153 63.888285 
L 61.7526 63.532638 
L 61.3899 63.176986 
L 61.0272 62.821328 
L 60.6645 62.465665 
L 60.3018 62.109995 
L 59.9391 61.754317 
L 59.5764 61.398631 
L 59.2137 61.042935 
L 58.851 60.687229 
L 58.4883 60.33151 
L 58.1256 59.975778 
L 57.7629 59.62003 
L 57.4002 59.264265 
L 57.0375 58.908481 
L 56.6748 58.552674 
L 56.3121 58.196843 
L 55.9494 57.840985 
L 55.5867 57.485095 
L 55.224 57.129171 
L 54.8613 56.773208 
L 54.4986 56.4172 
L 54.1359 56.061144 
L 53.7732 55.705033 
L 53.4105 55.348861 
L 53.0478 54.992619 
L 52.6851 54.636301 
L 52.3224 54.279896 
L 51.9597 53.923395 
L 51.597 53.566787 
L 51.2343 53.210058 
L 50.8716 52.853196 
L 50.5089 52.496184 
L 50.1462 52.139005 
L 49.7835 51.781641 
L 49.4208 51.42407 
L 49.0581 51.06627 
L 48.6954 50.708215 
L 48.3327 50.349877 
L 47.97 49.991224 
L 47.6073 49.632224 
L 47.2446 49.272837 
L 46.8819 48.913023 
L 46.5192 48.552738 
L 46.1565 48.191931 
L 45.7938 47.83055 
L 45.4311 47.468535 
L 45.0684 47.105822 
L 44.7057 46.742344 
L 44.343 46.378024 
L 43.9803 46.012782 
L 43.6176 45.64653 
L 43.2549 45.279175 
L 42.8922 44.910616 
L 42.5295 44.540745 
L 42.1668 44.169447 
L 41.8041 43.796601 
L 41.4414 43.422078 
L 41.0787 43.045742 
L 40.716 42.667452 
L 40.3533 42.287058 
L 39.9906 41.904407 
L 39.6279 41.519341 
L 39.2652 41.131698 
L 38.9025 40.741313 
L 38.5398 40.348022 
L 38.1771 39.95166 
L 37.8144 39.552066 
L 37.4517 39.149084 
L 37.089 38.742567 
L 36.7263 38.332378 
L 36.3636 37.918395 
L 36.0009 37.500514 
L 35.6382 37.078652 
L 35.2755 36.652753 
L 34.9128 36.22279 
L 34.5501 35.788771 
L 34.1874 35.350744 
L 33.8247 34.908799 
L 33.462 34.463075 
L 33.0993 34.013761 
L 32.7366 33.561105 
L 32.3739 33.105415 
L 32.0112 32.64706 
L 31.6485 32.186478 
L 31.2858 31.724178 
L 30.9231 31.260739 
L 30.5604 30.796815 
L 30.1977 30.333136 
L 29.835 29.870509 
L 29.4723 29.409821 
L 29.1096 28.952035 
L 28.7469 28.498197 
L 28.3842 28.049434 
L 28.0215 27.606953 
L 27.6588 27.172046 
L 27.2961 26.746088 
L 26.9334 26.330545 
L 26.5707 25.926969 
L 26.208 25.53701 
L 25.8453 25.162415 
L 25.4826 24.805039 
L 25.1199 24.466849 
L 24.7572 24.149935 
L 24.3945 23.856524 
L 24.0318 23.58899 
L 23.6691 23.349875 
L 23.3064 23.141902 
L 22.9437 22.968007 
L 22.581 22.831361 
L 22.2183 22.735403 
L 21.8556 22.683883 
L 21.4929 22.680904 
L 21.1302 22.730979 
L 20.7675 22.8391 
L 20.4048 23.010813 
L 20.0421 23.252321 
L 19.6794 23.570601 
L 19.3167 23.97355 
L 18.954 24.470169 
L 18.5913 25.070795 
L 18.2286 25.787388 
L 17.8659 26.633911 
L 17.5032 27.62682 
L 17.1405 28.785706 
L 16.7778 30.134172 
L 16.4151 31.701022 
L 16.0524 33.521939 
L 15.6897 35.641882 
L 15.327 38.11864 
L 14.9643 41.028256 
L 14.6016 44.473664 
L 14.2389 48.59912 
L 13.8762 53.615837 
L 13.5135 59.851201 
L 13.1508 67.853596 
L 12.7881 78.650971 
L 12.4254 94.550983 
L 12.0627 122.916986 
L 11.7 16644.96 
z
" clip-path="url(#pd97b1158c7)" style="fill: #ffff7c; fill-opacity: 0.85"/>
   </g>
   <g id="FillBetweenPolyCollection_3">
    <path d="M 11.7 12.96 
L 11.7 16644.96 
L 12.0627 122.916986 
L 12.4254 94.550983 
L 12.7881 78.650971 
L 13.1508 67.853596 
L 13.5135 59.851201 
L 13.8762 53.615837 
L 14.2389 48.59912 
L 14.6016 44.473664 
L 14.9643 41.028256 
L 15.327 38.11864 
L 15.6897 35.641882 
L 16.0524 33.521939 
L 16.4151 31.701022 
L 16.7778 30.134172 
L 17.1405 28.785706 
L 17.5032 27.62682 
L 17.8659 26.633911 
L 18.2286 25.787388 
L 18.5913 25.070795 
L 18.954 24.470169 
L 19.3167 23.97355 
L 19.6794 23.570601 
L 20.0421 23.252321 
L 20.4048 23.010813 
L 20.7675 22.8391 
L 21.1302 22.730979 
L 21.4929 22.680904 
L 21.8556 22.683883 
L 22.2183 22.735403 
L 22.581 22.831361 
L 22.9437 22.968007 
L 23.3064 23.141902 
L 23.6691 23.349875 
L 24.0318 23.58899 
L 24.3945 23.856524 
L 24.7572 24.149935 
L 25.1199 24.466849 
L 25.4826 24.805039 
L 25.8453 25.162415 
L 26.208 25.53701 
L 26.5707 25.926969 
L 26.9334 26.330545 
L 27.2961 26.746088 
L 27.6588 27.172046 
L 28.0215 27.606953 
L 28.3842 28.049434 
L 28.7469 28.498197 
L 29.1096 28.952035 
L 29.4723 29.409821 
L 29.835 29.870509 
L 30.1977 30.333136 
L 30.5604 30.796815 
L 30.9231 31.260739 
L 31.2858 31.724178 
L 31.6485 32.186478 
L 32.0112 32.64706 
L 32.3739 33.105415 
L 32.7366 33.561105 
L 33.0993 34.013761 
L 33.462 34.463075 
L 33.8247 34.908799 
L 34.1874 35.350744 
L 34.5501 35.788771 
L 34.9128 36.22279 
L 35.2755 36.652753 
L 35.6382 37.078652 
L 36.0009 37.500514 
L 36.3636 37.918395 
L 36.7263 38.332378 
L 37.089 38.742567 
L 37.4517 39.149084 
L 37.8144 39.552066 
L 38.1771 39.95166 
L 38.5398 40.348022 
L 38.9025 40.741313 
L 39.2652 41.131698 
L 39.6279 41.519341 
L 39.9906 41.904407 
L 40.3533 42.287058 
L 40.716 42.667452 
L 41.0787 43.045742 
L 41.4414 43.422078 
L 41.8041 43.796601 
L 42.1668 44.169447 
L 42.5295 44.540745 
L 42.8922 44.910616 
L 43.2549 45.279175 
L 43.6176 45.64653 
L 43.9803 46.012782 
L 44.343 46.378024 
L 44.7057 46.742344 
L 45.0684 47.105822 
L 45.4311 47.468535 
L 45.7938 47.83055 
L 46.1565 48.191931 
L 46.5192 48.552738 
L 46.8819 48.913023 
L 47.2446 49.272837 
L 47.6073 49.632224 
L 47.97 49.991224 
L 48.3327 50.349877 
L 48.6954 50.708215 
L 49.0581 51.06627 
L 49.4208 51.42407 
L 49.7835 51.781641 
L 50.1462 52.139005 
L 50.5089 52.496184 
L 50.8716 52.853196 
L 51.2343 53.210058 
L 51.597 53.566787 
L 51.9597 53.923395 
L 52.3224 54.279896 
L 52.6851 54.636301 
L 53.0478 54.992619 
L 53.4105 55.348861 
L 53.7732 55.705033 
L 54.1359 56.061144 
L 54.4986 56.4172 
L 54.8613 56.773208 
L 55.224 57.129171 
L 55.5867 57.485095 
L 55.9494 57.840985 
L 56.3121 58.196843 
L 56.6748 58.552674 
L 57.0375 58.908481 
L 57.4002 59.264265 
L 57.7629 59.62003 
L 58.1256 59.975778 
L 58.4883 60.33151 
L 58.851 60.687229 
L 59.2137 61.042935 
L 59.5764 61.398631 
L 59.9391 61.754317 
L 60.3018 62.109995 
L 60.6645 62.465665 
L 61.0272 62.821328 
L 61.3899 63.176986 
L 61.7526 63.532638 
L 62.1153 63.888285 
L 62.478 64.243928 
L 62.8407 64.599568 
L 63.2034 64.955204 
L 63.5661 65.310838 
L 63.9288 65.666469 
L 64.2915 66.022097 
L 64.6542 66.377724 
L 65.0169 66.733349 
L 65.3796 67.088972 
L 65.7423 67.444594 
L 66.105 67.800214 
L 66.4677 68.155834 
L 66.8304 68.511452 
L 67.1931 68.86707 
L 67.5558 69.222687 
L 67.9185 69.578303 
L 68.2812 69.933919 
L 68.6439 70.289534 
L 69.0066 70.645149 
L 69.3693 71.000763 
L 69.732 71.356377 
L 70.0947 71.711991 
L 70.4574 72.067604 
L 70.8201 72.423217 
L 71.1828 72.77883 
L 71.5455 73.134443 
L 71.9082 73.490055 
L 72.2709 73.845667 
L 72.6336 74.20128 
L 72.9963 74.556892 
L 73.359 74.912504 
L 73.7217 75.268116 
L 74.0844 75.623727 
L 74.4471 75.979339 
L 74.8098 76.334951 
L 75.1725 76.690562 
L 75.5352 77.046174 
L 75.8979 77.401785 
L 76.2606 77.757397 
L 76.6233 78.113008 
L 76.986 78.46862 
L 77.3487 78.824231 
L 77.7114 79.179843 
L 78.0741 79.535454 
L 78.4368 79.891065 
L 78.7995 80.246676 
L 79.1622 80.602288 
L 79.5249 80.957899 
L 79.8876 81.31351 
L 80.2503 81.669122 
L 80.613 82.024733 
L 80.9757 82.380344 
L 81.3384 82.735955 
L 81.7011 83.091567 
L 82.0638 83.447178 
L 82.4265 83.802789 
L 82.7892 84.1584 
L 83.1519 84.514011 
L 83.5146 84.869623 
L 83.8773 85.225234 
L 84.24 85.580845 
L 84.24 85.580845 
L 84.24 85.580845 
L 83.8773 85.225234 
L 83.5146 84.869623 
L 83.1519 84.514011 
L 82.7892 84.1584 
L 82.4265 83.802789 
L 82.0638 83.447178 
L 81.7011 83.091567 
L 81.3384 82.735955 
L 80.9757 82.380344 
L 80.613 82.024733 
L 80.2503 81.669122 
L 79.8876 81.31351 
L 79.5249 80.957899 
L 79.1622 80.602288 
L 78.7995 80.246676 
L 78.4368 79.891065 
L 78.0741 79.535454 
L 77.7114 79.179842 
L 77.3487 78.824231 
L 76.986 78.46862 
L 76.6233 78.113008 
L 76.2606 77.757397 
L 75.8979 77.401785 
L 75.5352 77.046174 
L 75.1725 76.690562 
L 74.8098 76.334951 
L 74.4471 75.979339 
L 74.0844 75.623727 
L 73.7217 75.268115 
L 73.359 74.912504 
L 72.9963 74.556892 
L 72.6336 74.20128 
L 72.2709 73.845667 
L 71.9082 73.490055 
L 71.5455 73.134442 
L 71.1828 72.77883 
L 70.8201 72.423217 
L 70.4574 72.067604 
L 70.0947 71.71199 
L 69.732 71.356377 
L 69.3693 71.000763 
L 69.0066 70.645149 
L 68.6439 70.289534 
L 68.2812 69.933919 
L 67.9185 69.578303 
L 67.5558 69.222687 
L 67.1931 68.86707 
L 66.8304 68.511452 
L 66.4677 68.155833 
L 66.105 67.800213 
L 65.7423 67.444593 
L 65.3796 67.088971 
L 65.0169 66.733347 
L 64.6542 66.377722 
L 64.2915 66.022095 
L 63.9288 65.666466 
L 63.5661 65.310835 
L 63.2034 64.955201 
L 62.8407 64.599564 
L 62.478 64.243924 
L 62.1153 63.88828 
L 61.7526 63.532632 
L 61.3899 63.176978 
L 61.0272 62.82132 
L 60.6645 62.465655 
L 60.3018 62.109983 
L 59.9391 61.754303 
L 59.5764 61.398615 
L 59.2137 61.042916 
L 58.851 60.687207 
L 58.4883 60.331484 
L 58.1256 59.975747 
L 57.7629 59.619994 
L 57.4002 59.264223 
L 57.0375 58.908431 
L 56.6748 58.552616 
L 56.3121 58.196775 
L 55.9494 57.840905 
L 55.5867 57.485002 
L 55.224 57.129062 
L 54.8613 56.77308 
L 54.4986 56.417051 
L 54.1359 56.06097 
L 53.7732 55.70483 
L 53.4105 55.348623 
L 53.0478 54.992342 
L 52.6851 54.635977 
L 52.3224 54.279519 
L 51.9597 53.922955 
L 51.597 53.566274 
L 51.2343 53.20946 
L 50.8716 52.852499 
L 50.5089 52.495372 
L 50.1462 52.138061 
L 49.7835 51.780543 
L 49.4208 51.422793 
L 49.0581 51.064786 
L 48.6954 50.706491 
L 48.3327 50.347875 
L 47.97 49.9889 
L 47.6073 49.629528 
L 47.2446 49.269711 
L 46.8819 48.909401 
L 46.5192 48.548542 
L 46.1565 48.187075 
L 45.7938 47.824932 
L 45.4311 47.462039 
L 45.0684 47.098318 
L 44.7057 46.733678 
L 44.343 46.368025 
L 43.9803 46.001252 
L 43.6176 45.633244 
L 43.2549 45.263877 
L 42.8922 44.893015 
L 42.5295 44.52051 
L 42.1668 44.146204 
L 41.8041 43.769926 
L 41.4414 43.391492 
L 41.0787 43.010705 
L 40.716 42.627354 
L 40.3533 42.241216 
L 39.9906 41.852054 
L 39.6279 41.459619 
L 39.2652 41.063648 
L 38.9025 40.663868 
L 38.5398 40.259994 
L 38.1771 39.851734 
L 37.8144 39.438788 
L 37.4517 39.02085 
L 37.089 38.597615 
L 36.7263 38.168777 
L 36.3636 37.734034 
L 36.0009 37.293095 
L 35.6382 36.845681 
L 35.2755 36.39153 
L 34.9128 35.930406 
L 34.5501 35.462098 
L 34.1874 34.986433 
L 33.8247 34.503275 
L 33.462 34.012534 
L 33.0993 33.514172 
L 32.7366 33.008205 
L 32.3739 32.49471 
L 32.0112 31.973828 
L 31.6485 31.445768 
L 31.2858 30.910807 
L 30.9231 30.369295 
L 30.5604 29.821656 
L 30.1977 29.268382 
L 29.835 28.710039 
L 29.4723 28.147261 
L 29.1096 27.580749 
L 28.7469 27.011266 
L 28.3842 26.439636 
L 28.0215 25.866736 
L 27.6588 25.293496 
L 27.2961 24.72089 
L 26.9334 24.149933 
L 26.5707 23.581677 
L 26.208 23.017204 
L 25.8453 22.457625 
L 25.4826 21.904071 
L 25.1199 21.357695 
L 24.7572 20.81966 
L 24.3945 20.291144 
L 24.0318 19.773328 
L 23.6691 19.267398 
L 23.3064 18.774538 
L 22.9437 18.295927 
L 22.581 17.832732 
L 22.2183 17.386104 
L 21.8556 16.957171 
L 21.4929 16.547027 
L 21.1302 16.156727 
L 20.7675 15.78727 
L 20.4048 15.439589 
L 20.0421 15.114532 
L 19.6794 14.812841 
L 19.3167 14.535131 
L 18.954 14.281861 
L 18.5913 14.053307 
L 18.2286 13.849529 
L 17.8659 13.670336 
L 17.5032 13.515255 
L 17.1405 13.3835 
L 16.7778 13.27395 
L 16.4151 13.185139 
L 16.0524 13.115263 
L 15.6897 13.06221 
L 15.327 13.023621 
L 14.9643 12.99698 
L 14.6016 12.979738 
L 14.2389 12.969449 
L 13.8762 12.963921 
L 13.5135 12.961337 
L 13.1508 12.960343 
L 12.7881 12.960056 
L 12.4254 12.960004 
L 12.0627 12.96 
L 11.7 12.96 
z
" clip-path="url(#pd97b1158c7)" style="fill: #7cffff; fill-opacity: 0.85"/>
   </g>
   <g id="FillBetweenPolyCollection_4">
    <path d="M 11.7 12.96 
L 11.7 12.96 
L 12.0627 12.96 
L 12.4254 12.960004 
L 12.7881 12.960056 
L 13.1508 12.960343 
L 13.5135 12.961337 
L 13.8762 12.963921 
L 14.2389 12.969449 
L 14.6016 12.979738 
L 14.9643 12.99698 
L 15.327 13.023621 
L 15.6897 13.06221 
L 16.0524 13.115263 
L 16.4151 13.185139 
L 16.7778 13.27395 
L 17.1405 13.3835 
L 17.5032 13.515255 
L 17.8659 13.670336 
L 18.2286 13.849529 
L 18.5913 14.053307 
L 18.954 14.281861 
L 19.3167 14.535131 
L 19.6794 14.812841 
L 20.0421 15.114532 
L 20.4048 15.439589 
L 20.7675 15.78727 
L 21.1302 16.156727 
L 21.4929 16.547027 
L 21.8556 16.957171 
L 22.2183 17.386104 
L 22.581 17.832732 
L 22.9437 18.295927 
L 23.3064 18.774538 
L 23.6691 19.267398 
L 24.0318 19.773328 
L 24.3945 20.291144 
L 24.7572 20.81966 
L 25.1199 21.357695 
L 25.4826 21.904071 
L 25.8453 22.457625 
L 26.208 23.017204 
L 26.5707 23.581677 
L 26.9334 24.149933 
L 27.2961 24.72089 
L 27.6588 25.293496 
L 28.0215 25.866736 
L 28.3842 26.439636 
L 28.7469 27.011266 
L 29.1096 27.580749 
L 29.4723 28.147261 
L 29.835 28.710039 
L 30.1977 29.268382 
L 30.5604 29.821656 
L 30.9231 30.369295 
L 31.2858 30.910807 
L 31.6485 31.445768 
L 32.0112 31.973828 
L 32.3739 32.49471 
L 32.7366 33.008205 
L 33.0993 33.514172 
L 33.462 34.012534 
L 33.8247 34.503275 
L 34.1874 34.986433 
L 34.5501 35.462098 
L 34.9128 35.930406 
L 35.2755 36.39153 
L 35.6382 36.845681 
L 36.0009 37.293095 
L 36.3636 37.734034 
L 36.7263 38.168777 
L 37.089 38.597615 
L 37.4517 39.02085 
L 37.8144 39.438788 
L 38.1771 39.851734 
L 38.5398 40.259994 
L 38.9025 40.663868 
L 39.2652 41.063648 
L 39.6279 41.459619 
L 39.9906 41.852054 
L 40.3533 42.241216 
L 40.716 42.627354 
L 41.0787 43.010705 
L 41.4414 43.391492 
L 41.8041 43.769926 
L 42.1668 44.146204 
L 42.5295 44.52051 
L 42.8922 44.893015 
L 43.2549 45.263877 
L 43.6176 45.633244 
L 43.9803 46.001252 
L 44.343 46.368025 
L 44.7057 46.733678 
L 45.0684 47.098318 
L 45.4311 47.462039 
L 45.7938 47.824932 
L 46.1565 48.187075 
L 46.5192 48.548542 
L 46.8819 48.909401 
L 47.2446 49.269711 
L 47.6073 49.629528 
L 47.97 49.9889 
L 48.3327 50.347875 
L 48.6954 50.706491 
L 49.0581 51.064786 
L 49.4208 51.422793 
L 49.7835 51.780543 
L 50.1462 52.138061 
L 50.5089 52.495372 
L 50.8716 52.852499 
L 51.2343 53.20946 
L 51.597 53.566274 
L 51.9597 53.922955 
L 52.3224 54.279519 
L 52.6851 54.635977 
L 53.0478 54.992342 
L 53.4105 55.348623 
L 53.7732 55.70483 
L 54.1359 56.06097 
L 54.4986 56.417051 
L 54.8613 56.77308 
L 55.224 57.129062 
L 55.5867 57.485002 
L 55.9494 57.840905 
L 56.3121 58.196775 
L 56.6748 58.552616 
L 57.0375 58.908431 
L 57.4002 59.264223 
L 57.7629 59.619994 
L 58.1256 59.975747 
L 58.4883 60.331484 
L 58.851 60.687207 
L 59.2137 61.042916 
L 59.5764 61.398615 
L 59.9391 61.754303 
L 60.3018 62.109983 
L 60.6645 62.465655 
L 61.0272 62.82132 
L 61.3899 63.176978 
L 61.7526 63.532632 
L 62.1153 63.88828 
L 62.478 64.243924 
L 62.8407 64.599564 
L 63.2034 64.955201 
L 63.5661 65.310835 
L 63.9288 65.666466 
L 64.2915 66.022095 
L 64.6542 66.377722 
L 65.0169 66.733347 
L 65.3796 67.088971 
L 65.7423 67.444593 
L 66.105 67.800213 
L 66.4677 68.155833 
L 66.8304 68.511452 
L 67.1931 68.86707 
L 67.5558 69.222687 
L 67.9185 69.578303 
L 68.2812 69.933919 
L 68.6439 70.289534 
L 69.0066 70.645149 
L 69.3693 71.000763 
L 69.732 71.356377 
L 70.0947 71.71199 
L 70.4574 72.067604 
L 70.8201 72.423217 
L 71.1828 72.77883 
L 71.5455 73.134442 
L 71.9082 73.490055 
L 72.2709 73.845667 
L 72.6336 74.20128 
L 72.9963 74.556892 
L 73.359 74.912504 
L 73.7217 75.268115 
L 74.0844 75.623727 
L 74.4471 75.979339 
L 74.8098 76.334951 
L 75.1725 76.690562 
L 75.5352 77.046174 
L 75.8979 77.401785 
L 76.2606 77.757397 
L 76.6233 78.113008 
L 76.986 78.46862 
L 77.3487 78.824231 
L 77.7114 79.179842 
L 78.0741 79.535454 
L 78.4368 79.891065 
L 78.7995 80.246676 
L 79.1622 80.602288 
L 79.5249 80.957899 
L 79.8876 81.31351 
L 80.2503 81.669122 
L 80.613 82.024733 
L 80.9757 82.380344 
L 81.3384 82.735955 
L 81.7011 83.091567 
L 82.0638 83.447178 
L 82.4265 83.802789 
L 82.7892 84.1584 
L 83.1519 84.514011 
L 83.5146 84.869623 
L 83.8773 85.225234 
L 84.24 85.580845 
L 84.24 12.96 
L 84.24 12.96 
L 83.8773 12.96 
L 83.5146 12.96 
L 83.1519 12.96 
L 82.7892 12.96 
L 82.4265 12.96 
L 82.0638 12.96 
L 81.7011 12.96 
L 81.3384 12.96 
L 80.9757 12.96 
L 80.613 12.96 
L 80.2503 12.96 
L 79.8876 12.96 
L 79.5249 12.96 
L 79.1622 12.96 
L 78.7995 12.96 
L 78.4368 12.96 
L 78.0741 12.96 
L 77.7114 12.96 
L 77.3487 12.96 
L 76.986 12.96 
L 76.6233 12.96 
L 76.2606 12.96 
L 75.8979 12.96 
L 75.5352 12.96 
L 75.1725 12.96 
L 74.8098 12.96 
L 74.4471 12.96 
L 74.0844 12.96 
L 73.7217 12.96 
L 73.359 12.96 
L 72.9963 12.96 
L 72.6336 12.96 
L 72.2709 12.96 
L 71.9082 12.96 
L 71.5455 12.96 
L 71.1828 12.96 
L 70.8201 12.96 
L 70.4574 12.96 
L 70.0947 12.96 
L 69.732 12.96 
L 69.3693 12.96 
L 69.0066 12.96 
L 68.6439 12.96 
L 68.2812 12.96 
L 67.9185 12.96 
L 67.5558 12.96 
L 67.1931 12.96 
L 66.8304 12.96 
L 66.4677 12.96 
L 66.105 12.96 
L 65.7423 12.96 
L 65.3796 12.96 
L 65.0169 12.96 
L 64.6542 12.96 
L 64.2915 12.96 
L 63.9288 12.96 
L 63.5661 12.96 
L 63.2034 12.96 
L 62.8407 12.96 
L 62.478 12.96 
L 62.1153 12.96 
L 61.7526 12.96 
L 61.3899 12.96 
L 61.0272 12.96 
L 60.6645 12.96 
L 60.3018 12.96 
L 59.9391 12.96 
L 59.5764 12.96 
L 59.2137 12.96 
L 58.851 12.96 
L 58.4883 12.96 
L 58.1256 12.96 
L 57.7629 12.96 
L 57.4002 12.96 
L 57.0375 12.96 
L 56.6748 12.96 
L 56.3121 12.96 
L 55.9494 12.96 
L 55.5867 12.96 
L 55.224 12.96 
L 54.8613 12.96 
L 54.4986 12.96 
L 54.1359 12.96 
L 53.7732 12.96 
L 53.4105 12.96 
L 53.0478 12.96 
L 52.6851 12.96 
L 52.3224 12.96 
L 51.9597 12.96 
L 51.597 12.96 
L 51.2343 12.96 
L 50.8716 12.96 
L 50.5089 12.96 
L 50.1462 12.96 
L 49.7835 12.96 
L 49.4208 12.96 
L 49.0581 12.96 
L 48.6954 12.96 
L 48.3327 12.96 
L 47.97 12.96 
L 47.6073 12.96 
L 47.2446 12.96 
L 46.8819 12.96 
L 46.5192 12.96 
L 46.1565 12.96 
L 45.7938 12.96 
L 45.4311 12.96 
L 45.0684 12.96 
L 44.7057 12.96 
L 44.343 12.96 
L 43.9803 12.96 
L 43.6176 12.96 
L 43.2549 12.96 
L 42.8922 12.96 
L 42.5295 12.96 
L 42.1668 12.96 
L 41.8041 12.96 
L 41.4414 12.96 
L 41.0787 12.96 
L 40.716 12.96 
L 40.3533 12.96 
L 39.9906 12.96 
L 39.6279 12.96 
L 39.2652 12.96 
L 38.9025 12.96 
L 38.5398 12.96 
L 38.1771 12.96 
L 37.8144 12.96 
L 37.4517 12.96 
L 37.089 12.96 
L 36.7263 12.96 
L 36.3636 12.96 
L 36.0009 12.96 
L 35.6382 12.96 
L 35.2755 12.96 
L 34.9128 12.96 
L 34.5501 12.96 
L 34.1874 12.96 
L 33.8247 12.96 
L 33.462 12.96 
L 33.0993 12.96 
L 32.7366 12.96 
L 32.3739 12.96 
L 32.0112 12.96 
L 31.6485 12.96 
L 31.2858 12.96 
L 30.9231 12.96 
L 30.5604 12.96 
L 30.1977 12.96 
L 29.835 12.96 
L 29.4723 12.96 
L 29.1096 12.96 
L 28.7469 12.96 
L 28.3842 12.96 
L 28.0215 12.96 
L 27.6588 12.96 
L 27.2961 12.96 
L 26.9334 12.96 
L 26.5707 12.96 
L 26.208 12.96 
L 25.8453 12.96 
L 25.4826 12.96 
L 25.1199 12.96 
L 24.7572 12.96 
L 24.3945 12.96 
L 24.0318 12.96 
L 23.6691 12.96 
L 23.3064 12.96 
L 22.9437 12.96 
L 22.581 12.96 
L 22.2183 12.96 
L 21.8556 12.96 
L 21.4929 12.96 
L 21.1302 12.96 
L 20.7675 12.96 
L 20.4048 12.96 
L 20.0421 12.96 
L 19.6794 12.96 
L 19.3167 12.96 
L 18.954 12.96 
L 18.5913 12.96 
L 18.2286 12.96 
L 17.8659 12.96 
L 17.5032 12.96 
L 17.1405 12.96 
L 16.7778 12.96 
L 16.4151 12.96 
L 16.0524 12.96 
L 15.6897 12.96 
L 15.327 12.96 
L 14.9643 12.96 
L 14.6016 12.96 
L 14.2389 12.96 
L 13.8762 12.96 
L 13.5135 12.96 
L 13.1508 12.96 
L 12.7881 12.96 
L 12.4254 12.96 
L 12.0627 12.96 
L 11.7 12.96 
z
" clip-path="url(#pd97b1158c7)" style="fill: #ffa09f; fill-opacity: 0.85"/>
   </g>
   <g id="matplotlib.axis_1">
    <g id="xtick_1">
     <g id="line2d_1">
      <defs>
       <path id="mf3e0125dce" d="M 0 0 
L 0 3.5 
" style="stroke: #000000; stroke-width: 0.8"/>
      </defs>
      <g>
       <use xlink:href="#mf3e0125dce" x="11.7" y="96.12" style="stroke: #000000; stroke-width: 0.8"/>
      </g>
     </g>
     <g id="text_1">
      <text style="font-size: 6px; font-family: 'DejaVu Sans', 'Arial', 'Helvetica', 'Lucida Grande', 'Verdana', 'Geneva', 'Lucid', 'Avant Garde', sans-serif; text-anchor: middle" x="11.7" y="107.679063" transform="rotate(-0 11.7 107.679063)">0</text>
     </g>
    </g>
    <g id="xtick_2">
     <g id="line2d_2">
      <g>
       <use xlink:href="#mf3e0125dce" x="29.835" y="96.12" style="stroke: #000000; stroke-width: 0.8"/>
      </g>
     </g>
     <g id="text_2">
      <text style="font-size: 6px; font-family: 'DejaVu Sans', 'Arial', 'Helvetica', 'Lucida Grande', 'Verdana', 'Geneva', 'Lucid', 'Avant Garde', sans-serif; text-anchor: middle" x="29.835" y="107.679063" transform="rotate(-0 29.835 107.679063)">2</text>
     </g>
    </g>
    <g id="xtick_3">
     <g id="line2d_3">
      <g>
       <use xlink:href="#mf3e0125dce" x="47.97" y="96.12" style="stroke: #000000; stroke-width: 0.8"/>
      </g>
     </g>
     <g id="text_3">
      <text style="font-size: 6px; font-family: 'DejaVu Sans', 'Arial', 'Helvetica', 'Lucida Grande', 'Verdana', 'Geneva', 'Lucid', 'Avant Garde', sans-serif; text-anchor: middle" x="47.97" y="107.679063" transform="rotate(-0 47.97 107.679063)">4</text>
     </g>
    </g>
    <g id="xtick_4">
     <g id="line2d_4">
      <g>
       <use xlink:href="#mf3e0125dce" x="66.105" y="96.12" style="stroke: #000000; stroke-width: 0.8"/>
      </g>
     </g>
     <g id="text_4">
      <text style="font-size: 6px; font-family: 'DejaVu Sans', 'Arial', 'Helvetica', 'Lucida Grande', 'Verdana', 'Geneva', 'Lucid', 'Avant Garde', sans-serif; text-anchor: middle" x="66.105" y="107.679063" transform="rotate(-0 66.105 107.679063)">6</text>
     </g>
    </g>
    <g id="xtick_5">
     <g id="line2d_5">
      <g>
       <use xlink:href="#mf3e0125dce" x="84.24" y="96.12" style="stroke: #000000; stroke-width: 0.8"/>
      </g>
     </g>
     <g id="text_5">
      <text style="font-size: 6px; font-family: 'DejaVu Sans', 'Arial', 'Helvetica', 'Lucida Grande', 'Verdana', 'Geneva', 'Lucid', 'Avant Garde', sans-serif; text-anchor: middle" x="84.24" y="107.679063" transform="rotate(-0 84.24 107.679063)">8</text>
     </g>
    </g>
    <g id="text_6">
     <text style="font-size: 6px; font-family: 'DejaVu Sans', 'Arial', 'Helvetica', 'Lucida Grande', 'Verdana', 'Geneva', 'Lucid', 'Avant Garde', sans-serif; text-anchor: middle" x="47.97" y="117.485938" transform="rotate(-0 47.97 117.485938)">Exposure duration τ (h)</text>
    </g>
   </g>
   <g id="matplotlib.axis_2">
    <g id="ytick_1">
     <g id="line2d_6">
      <defs>
       <path id="m1699835e31" d="M 0 0 
L -3.5 0 
" style="stroke: #000000; stroke-width: 0.8"/>
      </defs>
      <g>
       <use xlink:href="#m1699835e31" x="11.7" y="96.12" style="stroke: #000000; stroke-width: 0.8"/>
      </g>
     </g>
     <g id="text_7">
      <!-- $\mathdefault{10^{-5}}$ -->
      <g transform="translate(-9.4 98.399531)">
       <text>
        <tspan x="0" y="-0.640625" style="font-size: 6px; font-family: 'DejaVu Sans'">1</tspan>
        <tspan x="3.817383" y="-0.640625" style="font-size: 6px; font-family: 'DejaVu Sans'">0</tspan>
        <tspan x="7.692188" y="-2.9375" style="font-size: 4.2px; font-family: 'DejaVu Sans'">−</tspan>
        <tspan x="11.211328" y="-2.9375" style="font-size: 4.2px; font-family: 'DejaVu Sans'">5</tspan>
       </text>
      </g>
     </g>
    </g>
    <g id="ytick_2">
     <g id="line2d_7">
      <g>
       <use xlink:href="#m1699835e31" x="11.7" y="79.488" style="stroke: #000000; stroke-width: 0.8"/>
      </g>
     </g>
     <g id="text_8">
      <!-- $\mathdefault{10^{-4}}$ -->
      <g transform="translate(-9.4 81.767531)">
       <text>
        <tspan x="0" y="-0.640625" style="font-size: 6px; font-family: 'DejaVu Sans'">1</tspan>
        <tspan x="3.817383" y="-0.640625" style="font-size: 6px; font-family: 'DejaVu Sans'">0</tspan>
        <tspan x="7.692188" y="-2.9375" style="font-size: 4.2px; font-family: 'DejaVu Sans'">−</tspan>
        <tspan x="11.211328" y="-2.9375" style="font-size: 4.2px; font-family: 'DejaVu Sans'">4</tspan>
       </text>
      </g>
     </g>
    </g>
    <g id="ytick_3">
     <g id="line2d_8">
      <g>
       <use xlink:href="#m1699835e31" x="11.7" y="62.856" style="stroke: #000000; stroke-width: 0.8"/>
      </g>
     </g>
     <g id="text_9">
      <!-- $\mathdefault{10^{-3}}$ -->
      <g transform="translate(-9.4 65.135531)">
       <text>
        <tspan x="0" y="-0.585938" style="font-size: 6px; font-family: 'DejaVu Sans'">1</tspan>
        <tspan x="3.817383" y="-0.585938" style="font-size: 6px; font-family: 'DejaVu Sans'">0</tspan>
        <tspan x="7.692188" y="-2.882812" style="font-size: 4.2px; font-family: 'DejaVu Sans'">−</tspan>
        <tspan x="11.211328" y="-2.882812" style="font-size: 4.2px; font-family: 'DejaVu Sans'">3</tspan>
       </text>
      </g>
     </g>
    </g>
    <g id="ytick_4">
     <g id="line2d_9">
      <g>
       <use xlink:href="#m1699835e31" x="11.7" y="46.224" style="stroke: #000000; stroke-width: 0.8"/>
      </g>
     </g>
     <g id="text_10">
      <!-- $\mathdefault{10^{-2}}$ -->
      <g transform="translate(-9.4 48.503531)">
       <text>
        <tspan x="0" y="-0.585938" style="font-size: 6px; font-family: 'DejaVu Sans'">1</tspan>
        <tspan x="3.817383" y="-0.585938" style="font-size: 6px; font-family: 'DejaVu Sans'">0</tspan>
        <tspan x="7.692188" y="-2.882812" style="font-size: 4.2px; font-family: 'DejaVu Sans'">−</tspan>
        <tspan x="11.211328" y="-2.882812" style="font-size: 4.2px; font-family: 'DejaVu Sans'">2</tspan>
       </text>
      </g>
     </g>
    </g>
    <g id="ytick_5">
     <g id="line2d_10">
      <g>
       <use xlink:href="#m1699835e31" x="11.7" y="29.592" style="stroke: #000000; stroke-width: 0.8"/>
      </g>
     </g>
     <g id="text_11">
      <!-- $\mathdefault{10^{-1}}$ -->
      <g transform="translate(-9.4 31.871531)">
       <text>
        <tspan x="0" y="-0.640625" style="font-size: 6px; font-family: 'DejaVu Sans'">1</tspan>
        <tspan x="3.817383" y="-0.640625" style="font-size: 6px; font-family: 'DejaVu Sans'">0</tspan>
        <tspan x="7.692188" y="-2.9375" style="font-size: 4.2px; font-family: 'DejaVu Sans'">−</tspan>
        <tspan x="11.211328" y="-2.9375" style="font-size: 4.2px; font-family: 'DejaVu Sans'">1</tspan>
       </text>
      </g>
     </g>
    </g>
    <g id="ytick_6">
     <g id="line2d_11">
      <g>
       <use xlink:href="#m1699835e31" x="11.7" y="12.96" style="stroke: #000000; stroke-width: 0.8"/>
      </g>
     </g>
     <g id="text_12">
      <!-- $\mathdefault{10^{0}}$ -->
      <g transform="translate(-5.86 15.239531)">
       <text>
        <tspan x="0" y="-0.585938" style="font-size: 6px; font-family: 'DejaVu Sans'">1</tspan>
        <tspan x="3.817383" y="-0.585938" style="font-size: 6px; font-family: 'DejaVu Sans'">0</tspan>
        <tspan x="7.692188" y="-2.882812" style="font-size: 4.2px; font-family: 'DejaVu Sans'">0</tspan>
       </text>
      </g>
     </g>
    </g>
    <g id="ytick_7"/>
    <g id="ytick_8"/>
    <g id="ytick_9"/>
    <g id="ytick_10"/>
    <g id="ytick_11"/>
    <g id="ytick_12"/>
    <g id="ytick_13"/>
    <g id="ytick_14"/>
    <g id="ytick_15"/>
    <g id="ytick_16"/>
    <g id="ytick_17"/>
    <g id="ytick_18"/>
    <g id="ytick_19"/>
    <g id="ytick_20"/>
    <g id="ytick_21"/>
    <g id="ytick_22"/>
    <g id="ytick_23"/>
    <g id="ytick_24"/>
    <g id="ytick_25"/>
    <g id="ytick_26"/>
    <g id="ytick_27"/>
    <g id="ytick_28"/>
    <g id="ytick_29"/>
    <g id="ytick_30"/>
    <g id="ytick_31"/>
    <g id="ytick_32"/>
    <g id="ytick_33"/>
    <g id="ytick_34"/>
    <g id="ytick_35"/>
    <g id="ytick_36"/>
    <g id="ytick_37"/>
    <g id="ytick_38"/>
    <g id="ytick_39"/>
    <g id="ytick_40"/>
    <g id="ytick_41"/>
    <g id="ytick_42"/>
    <g id="ytick_43"/>
    <g id="ytick_44"/>
    <g id="ytick_45"/>
    <g id="ytick_46"/>
    <g id="text_13">
     <text style="font-size: 6px; font-family: 'DejaVu Sans', 'Arial', 'Helvetica', 'Lucida Grande', 'Verdana', 'Geneva', 'Lucid', 'Avant Garde', sans-serif; text-anchor: middle" x="-14.647812" y="54.54" transform="rotate(-90 -14.647812 54.54)">Frac of population at Ab removal</text>
    </g>
   </g>
   <g id="patch_3">
    <path d="M 11.7 96.12 
L 11.7 12.96 
" style="fill: none; stroke: #000000; stroke-width: 0.5; stroke-linejoin: miter; stroke-linecap: square"/>
   </g>
   <g id="patch_4">
    <path d="M 11.7 96.12 
L 84.24 96.12 
" style="fill: none; stroke: #000000; stroke-width: 0.5; stroke-linejoin: miter; stroke-linecap: square"/>
   </g>
  </g>
 </g>
 <defs>
  <clipPath id="pd97b1158c7">
   <rect x="11.7" y="12.96" width="72.54" height="83.16"/>
  </clipPath>
 </defs>
</svg>
