<?xml version="1.0" encoding="utf-8" standalone="no"?>
<!DOCTYPE svg PUBLIC "-//W3C//DTD SVG 1.1//EN"
  "http://www.w3.org/Graphics/SVG/1.1/DTD/svg11.dtd">
<svg xmlns:xlink="http://www.w3.org/1999/xlink" width="93.6pt" height="108pt" viewBox="0 0 93.6 108" xmlns="http://www.w3.org/2000/svg" version="1.1">
 <metadata>
  <rdf:RDF xmlns:dc="http://purl.org/dc/elements/1.1/" xmlns:cc="http://creativecommons.org/ns#" xmlns:rdf="http://www.w3.org/1999/02/22-rdf-syntax-ns#">
   <cc:Work>
    <dc:type rdf:resource="http://purl.org/dc/dcmitype/StillImage"/>
    <dc:date>2026-02-16T19:46:10.429768</dc:date>
    <dc:format>image/svg+xml</dc:format>
    <dc:creator>
     <cc:Agent>
      <dc:title>Matplotlib v3.10.8, https://matplotlib.org/</dc:title>
     </cc:Agent>
    </dc:creator>
   </cc:Work>
  </rdf:RDF>
 </metadata>
 <defs>
  <style type="text/css">*{stroke-linejoin: round; stroke-linecap: butt}</style>
 </defs>
 <g id="figure_1">
  <g id="patch_1">
   <path d="M 0 108 
L 93.6 108 
L 93.6 0 
L 0 0 
L 0 108 
z
" style="fill: none"/>
  </g>
  <g id="axes_1">
   <g id="patch_2">
    <path d="M 11.7 96.12 
L 84.24 96.12 
L 84.24 12.96 
L 11.7 12.96 
L 11.7 96.12 
z
" style="fill: none"/>
   </g>
   <g id="FillBetweenPolyCollection_1">
    <path d="M 11.7 104.095228 
L 11.7 16644.96 
L 12.00225 16644.96 
L 12.3045 16644.96 
L 12.60675 16644.96 
L 12.909 16644.96 
L 13.21125 16644.96 
L 13.5135 16644.96 
L 13.81575 16644.96 
L 14.118 16644.96 
L 14.42025 16644.96 
L 14.7225 16644.96 
L 15.02475 16644.96 
L 15.327 16644.96 
L 15.62925 16644.96 
L 15.9315 16644.96 
L 16.23375 16644.96 
L 16.536 16644.96 
L 16.83825 16644.96 
L 17.1405 16644.96 
L 17.44275 16644.96 
L 17.745 16644.96 
L 18.04725 16644.96 
L 18.3495 16644.96 
L 18.65175 16644.96 
L 18.954 16644.96 
L 19.25625 16644.96 
L 19.5585 16644.96 
L 19.86075 16644.96 
L 20.163 16644.96 
L 20.46525 16644.96 
L 20.7675 16644.96 
L 21.06975 16644.96 
L 21.372 16644.96 
L 21.67425 16644.96 
L 21.9765 16644.96 
L 22.27875 16644.96 
L 22.581 16644.96 
L 22.88325 16644.96 
L 23.1855 16644.96 
L 23.48775 16644.96 
L 23.79 16644.96 
L 24.09225 16644.96 
L 24.3945 16644.96 
L 24.69675 16644.96 
L 24.999 16644.96 
L 25.30125 16644.96 
L 25.6035 16644.96 
L 25.90575 16644.96 
L 26.208 16644.96 
L 26.51025 16644.96 
L 26.8125 16644.96 
L 27.11475 16644.96 
L 27.417 16644.96 
L 27.71925 16644.96 
L 28.0215 16644.96 
L 28.32375 16644.96 
L 28.626 16644.96 
L 28.92825 16644.96 
L 29.2305 16644.96 
L 29.53275 16644.96 
L 29.835 16644.96 
L 30.13725 16644.96 
L 30.4395 16644.96 
L 30.74175 16644.96 
L 31.044 16644.96 
L 31.34625 16644.96 
L 31.6485 16644.96 
L 31.95075 16644.96 
L 32.253 16644.96 
L 32.55525 16644.96 
L 32.8575 16644.96 
L 33.15975 16644.96 
L 33.462 16644.96 
L 33.76425 16644.96 
L 34.0665 16644.96 
L 34.36875 16644.96 
L 34.671 16644.96 
L 34.97325 16644.96 
L 35.2755 16644.96 
L 35.57775 16644.96 
L 35.88 16644.96 
L 36.18225 16644.96 
L 36.4845 16644.96 
L 36.78675 16644.96 
L 37.089 16644.96 
L 37.39125 16644.96 
L 37.6935 16644.96 
L 37.99575 16644.96 
L 38.298 16644.96 
L 38.60025 16644.96 
L 38.9025 16644.96 
L 39.20475 16644.96 
L 39.507 16644.96 
L 39.80925 16644.96 
L 40.1115 16644.96 
L 40.41375 16644.96 
L 40.716 16644.96 
L 41.01825 16644.96 
L 41.3205 16644.96 
L 41.62275 16644.96 
L 41.925 16644.96 
L 42.22725 16644.96 
L 42.5295 16644.96 
L 42.83175 16644.96 
L 43.134 16644.96 
L 43.43625 16644.96 
L 43.7385 16644.96 
L 44.04075 16644.96 
L 44.343 16644.96 
L 44.64525 16644.96 
L 44.9475 16644.96 
L 45.24975 16644.96 
L 45.552 16644.96 
L 45.85425 16644.96 
L 46.1565 16644.96 
L 46.45875 16644.96 
L 46.761 16644.96 
L 47.06325 16644.96 
L 47.3655 16644.96 
L 47.66775 16644.96 
L 47.97 16644.96 
L 48.27225 16644.96 
L 48.5745 16644.96 
L 48.87675 16644.96 
L 49.179 16644.96 
L 49.48125 16644.96 
L 49.7835 16644.96 
L 50.08575 16644.96 
L 50.388 16644.96 
L 50.69025 16644.96 
L 50.9925 16644.96 
L 51.29475 16644.96 
L 51.597 16644.96 
L 51.89925 16644.96 
L 52.2015 16644.96 
L 52.50375 16644.96 
L 52.806 16644.96 
L 53.10825 16644.96 
L 53.4105 16644.96 
L 53.71275 16644.96 
L 54.015 16644.96 
L 54.31725 16644.96 
L 54.6195 16644.96 
L 54.92175 16644.96 
L 55.224 16644.96 
L 55.52625 16644.96 
L 55.8285 16644.96 
L 56.13075 16644.96 
L 56.433 16644.96 
L 56.73525 16644.96 
L 57.0375 16644.96 
L 57.33975 16644.96 
L 57.642 16644.96 
L 57.94425 16644.96 
L 58.2465 16644.96 
L 58.54875 16644.96 
L 58.851 16644.96 
L 59.15325 16644.96 
L 59.4555 16644.96 
L 59.75775 16644.96 
L 60.06 16644.96 
L 60.36225 16644.96 
L 60.6645 16644.96 
L 60.96675 16644.96 
L 61.269 16644.96 
L 61.57125 16644.96 
L 61.8735 16644.96 
L 62.17575 16644.96 
L 62.478 16644.96 
L 62.78025 16644.96 
L 63.0825 16644.96 
L 63.38475 16644.96 
L 63.687 16644.96 
L 63.98925 16644.96 
L 64.2915 16644.96 
L 64.59375 16644.96 
L 64.896 16644.96 
L 65.19825 16644.96 
L 65.5005 16644.96 
L 65.80275 16644.96 
L 66.105 16644.96 
L 66.40725 16644.96 
L 66.7095 16644.96 
L 67.01175 16644.96 
L 67.314 16644.96 
L 67.61625 16644.96 
L 67.9185 16644.96 
L 68.22075 16644.96 
L 68.523 16644.96 
L 68.82525 16644.96 
L 69.1275 16644.96 
L 69.42975 16644.96 
L 69.732 16644.96 
L 70.03425 16644.96 
L 70.3365 16644.96 
L 70.63875 16644.96 
L 70.941 16644.96 
L 71.24325 16644.96 
L 71.5455 16644.96 
L 71.84775 16644.96 
L 72.15 16644.96 
L 72.45225 16644.96 
L 72.7545 16644.96 
L 73.05675 16644.96 
L 73.359 16644.96 
L 73.66125 16644.96 
L 73.9635 16644.96 
L 74.26575 16644.96 
L 74.568 16644.96 
L 74.87025 16644.96 
L 75.1725 16644.96 
L 75.47475 16644.96 
L 75.777 16644.96 
L 76.07925 16644.96 
L 76.3815 16644.96 
L 76.68375 16644.96 
L 76.986 16644.96 
L 77.28825 16644.96 
L 77.5905 16644.96 
L 77.89275 16644.96 
L 78.195 16644.96 
L 78.49725 16644.96 
L 78.7995 16644.96 
L 79.10175 16644.96 
L 79.404 16644.96 
L 79.70625 16644.96 
L 80.0085 16644.96 
L 80.31075 16644.96 
L 80.613 16644.96 
L 80.91525 16644.96 
L 81.2175 16644.96 
L 81.51975 16644.96 
L 81.822 16644.96 
L 82.12425 16644.96 
L 82.4265 16644.96 
L 82.72875 16644.96 
L 83.031 16644.96 
L 83.33325 16644.96 
L 83.6355 16644.96 
L 83.93775 16644.96 
L 84.24 16644.96 
L 84.24 69.51338 
L 84.24 69.51338 
L 83.93775 69.617431 
L 83.6355 69.721862 
L 83.33325 69.826674 
L 83.031 69.931869 
L 82.72875 70.037449 
L 82.4265 70.143415 
L 82.12425 70.249769 
L 81.822 70.356512 
L 81.51975 70.463646 
L 81.2175 70.571173 
L 80.91525 70.679095 
L 80.613 70.787413 
L 80.31075 70.896128 
L 80.0085 71.005243 
L 79.70625 71.114759 
L 79.404 71.224678 
L 79.10175 71.335001 
L 78.7995 71.445731 
L 78.49725 71.556869 
L 78.195 71.668416 
L 77.89275 71.780375 
L 77.5905 71.892746 
L 77.28825 72.005533 
L 76.986 72.118736 
L 76.68375 72.232358 
L 76.3815 72.3464 
L 76.07925 72.460864 
L 75.777 72.575751 
L 75.47475 72.691064 
L 75.1725 72.806804 
L 74.87025 72.922973 
L 74.568 73.039573 
L 74.26575 73.156606 
L 73.9635 73.274073 
L 73.66125 73.391976 
L 73.359 73.510318 
L 73.05675 73.629099 
L 72.7545 73.748322 
L 72.45225 73.867988 
L 72.15 73.9881 
L 71.84775 74.108659 
L 71.5455 74.229667 
L 71.24325 74.351127 
L 70.941 74.473039 
L 70.63875 74.595405 
L 70.3365 74.718228 
L 70.03425 74.84151 
L 69.732 74.965252 
L 69.42975 75.089456 
L 69.1275 75.214124 
L 68.82525 75.339258 
L 68.523 75.46486 
L 68.22075 75.590932 
L 67.9185 75.717475 
L 67.61625 75.844492 
L 67.314 75.971984 
L 67.01175 76.099954 
L 66.7095 76.228403 
L 66.40725 76.357333 
L 66.105 76.486747 
L 65.80275 76.616645 
L 65.5005 76.74703 
L 65.19825 76.877905 
L 64.896 77.00927 
L 64.59375 77.141127 
L 64.2915 77.27348 
L 63.98925 77.406329 
L 63.687 77.539676 
L 63.38475 77.673524 
L 63.0825 77.807874 
L 62.78025 77.942729 
L 62.478 78.078089 
L 62.17575 78.213958 
L 61.8735 78.350337 
L 61.57125 78.487228 
L 61.269 78.624632 
L 60.96675 78.762552 
L 60.6645 78.90099 
L 60.36225 79.039948 
L 60.06 79.179427 
L 59.75775 79.319429 
L 59.4555 79.459956 
L 59.15325 79.601011 
L 58.851 79.742594 
L 58.54875 79.884708 
L 58.2465 80.027355 
L 57.94425 80.170536 
L 57.642 80.314254 
L 57.33975 80.45851 
L 57.0375 80.603305 
L 56.73525 80.748643 
L 56.433 80.894524 
L 56.13075 81.04095 
L 55.8285 81.187923 
L 55.52625 81.335445 
L 55.224 81.483517 
L 54.92175 81.632141 
L 54.6195 81.78132 
L 54.31725 81.931053 
L 54.015 82.081344 
L 53.71275 82.232194 
L 53.4105 82.383604 
L 53.10825 82.535576 
L 52.806 82.688111 
L 52.50375 82.841211 
L 52.2015 82.994878 
L 51.89925 83.149112 
L 51.597 83.303916 
L 51.29475 83.459291 
L 50.9925 83.615237 
L 50.69025 83.771757 
L 50.388 83.928851 
L 50.08575 84.086522 
L 49.7835 84.244769 
L 49.48125 84.403594 
L 49.179 84.562999 
L 48.87675 84.722983 
L 48.5745 84.883549 
L 48.27225 85.044698 
L 47.97 85.206429 
L 47.66775 85.368744 
L 47.3655 85.531643 
L 47.06325 85.695128 
L 46.761 85.859199 
L 46.45875 86.023856 
L 46.1565 86.1891 
L 45.85425 86.354931 
L 45.552 86.52135 
L 45.24975 86.688356 
L 44.9475 86.85595 
L 44.64525 87.024132 
L 44.343 87.192901 
L 44.04075 87.362258 
L 43.7385 87.532203 
L 43.43625 87.702734 
L 43.134 87.873851 
L 42.83175 88.045553 
L 42.5295 88.21784 
L 42.22725 88.390711 
L 41.925 88.564164 
L 41.62275 88.738199 
L 41.3205 88.912813 
L 41.01825 89.088005 
L 40.716 89.263774 
L 40.41375 89.440118 
L 40.1115 89.617033 
L 39.80925 89.794518 
L 39.507 89.972571 
L 39.20475 90.151188 
L 38.9025 90.330366 
L 38.60025 90.510102 
L 38.298 90.690392 
L 37.99575 90.871232 
L 37.6935 91.052619 
L 37.39125 91.234548 
L 37.089 91.417013 
L 36.78675 91.60001 
L 36.4845 91.783533 
L 36.18225 91.967577 
L 35.88 92.152134 
L 35.57775 92.337199 
L 35.2755 92.522763 
L 34.97325 92.70882 
L 34.671 92.895361 
L 34.36875 93.082378 
L 34.0665 93.26986 
L 33.76425 93.457799 
L 33.462 93.646185 
L 33.15975 93.835005 
L 32.8575 94.024248 
L 32.55525 94.213902 
L 32.253 94.403953 
L 31.95075 94.594388 
L 31.6485 94.785191 
L 31.34625 94.976347 
L 31.044 95.167838 
L 30.74175 95.359646 
L 30.4395 95.551754 
L 30.13725 95.74414 
L 29.835 95.936784 
L 29.53275 96.129662 
L 29.2305 96.32275 
L 28.92825 96.516023 
L 28.626 96.709454 
L 28.32375 96.903013 
L 28.0215 97.09667 
L 27.71925 97.290393 
L 27.417 97.484146 
L 27.11475 97.677892 
L 26.8125 97.871593 
L 26.51025 98.065206 
L 26.208 98.258686 
L 25.90575 98.451986 
L 25.6035 98.645055 
L 25.30125 98.837839 
L 24.999 99.03028 
L 24.69675 99.222315 
L 24.3945 99.413879 
L 24.09225 99.604902 
L 23.79 99.795306 
L 23.48775 99.98501 
L 23.1855 100.173928 
L 22.88325 100.361966 
L 22.581 100.549023 
L 22.27875 100.73499 
L 21.9765 100.919751 
L 21.67425 101.10318 
L 21.372 101.285142 
L 21.06975 101.465489 
L 20.7675 101.644062 
L 20.46525 101.820691 
L 20.163 101.995187 
L 19.86075 102.167349 
L 19.5585 102.336956 
L 19.25625 102.503766 
L 18.954 102.667518 
L 18.65175 102.827925 
L 18.3495 102.984671 
L 18.04725 103.137413 
L 17.745 103.285768 
L 17.44275 103.42932 
L 17.1405 103.567606 
L 16.83825 103.700112 
L 16.536 103.826272 
L 16.23375 103.945452 
L 15.9315 104.056945 
L 15.62925 104.159963 
L 15.327 104.253618 
L 15.02475 104.336911 
L 14.7225 104.408715 
L 14.42025 104.46775 
L 14.118 104.512563 
L 13.81575 104.541493 
L 13.5135 104.552635 
L 13.21125 104.543799 
L 12.909 104.512452 
L 12.60675 104.455654 
L 12.3045 104.369978 
L 12.00225 104.25141 
L 11.7 104.095228 
z
" clip-path="url(#pa4de279c3a)" style="fill: #ff8ef4; fill-opacity: 0.85"/>
   </g>
   <g id="FillBetweenPolyCollection_2">
    <path d="M 11.7 104.095228 
L 11.7 104.095228 
L 12.00225 104.25141 
L 12.3045 104.369978 
L 12.60675 104.455654 
L 12.909 104.512452 
L 13.21125 104.543799 
L 13.5135 104.552635 
L 13.81575 104.541493 
L 14.118 104.512563 
L 14.42025 104.46775 
L 14.7225 104.408715 
L 15.02475 104.336911 
L 15.327 104.253618 
L 15.62925 104.159963 
L 15.9315 104.056945 
L 16.23375 103.945452 
L 16.536 103.826272 
L 16.83825 103.700112 
L 17.1405 103.567606 
L 17.44275 103.42932 
L 17.745 103.285768 
L 18.04725 103.137413 
L 18.3495 102.984671 
L 18.65175 102.827925 
L 18.954 102.667518 
L 19.25625 102.503766 
L 19.5585 102.336956 
L 19.86075 102.167349 
L 20.163 101.995187 
L 20.46525 101.820691 
L 20.7675 101.644062 
L 21.06975 101.465489 
L 21.372 101.285142 
L 21.67425 101.10318 
L 21.9765 100.919751 
L 22.27875 100.73499 
L 22.581 100.549023 
L 22.88325 100.361966 
L 23.1855 100.173928 
L 23.48775 99.98501 
L 23.79 99.795306 
L 24.09225 99.604902 
L 24.3945 99.413879 
L 24.69675 99.222315 
L 24.999 99.03028 
L 25.30125 98.837839 
L 25.6035 98.645055 
L 25.90575 98.451986 
L 26.208 98.258686 
L 26.51025 98.065206 
L 26.8125 97.871593 
L 27.11475 97.677892 
L 27.417 97.484146 
L 27.71925 97.290393 
L 28.0215 97.09667 
L 28.32375 96.903013 
L 28.626 96.709454 
L 28.92825 96.516023 
L 29.2305 96.32275 
L 29.53275 96.129662 
L 29.835 95.936784 
L 30.13725 95.74414 
L 30.4395 95.551754 
L 30.74175 95.359646 
L 31.044 95.167838 
L 31.34625 94.976347 
L 31.6485 94.785191 
L 31.95075 94.594388 
L 32.253 94.403953 
L 32.55525 94.213902 
L 32.8575 94.024248 
L 33.15975 93.835005 
L 33.462 93.646185 
L 33.76425 93.457799 
L 34.0665 93.26986 
L 34.36875 93.082378 
L 34.671 92.895361 
L 34.97325 92.70882 
L 35.2755 92.522763 
L 35.57775 92.337199 
L 35.88 92.152134 
L 36.18225 91.967577 
L 36.4845 91.783533 
L 36.78675 91.60001 
L 37.089 91.417013 
L 37.39125 91.234548 
L 37.6935 91.052619 
L 37.99575 90.871232 
L 38.298 90.690392 
L 38.60025 90.510102 
L 38.9025 90.330366 
L 39.20475 90.151188 
L 39.507 89.972571 
L 39.80925 89.794518 
L 40.1115 89.617033 
L 40.41375 89.440118 
L 40.716 89.263774 
L 41.01825 89.088005 
L 41.3205 88.912813 
L 41.62275 88.738199 
L 41.925 88.564164 
L 42.22725 88.390711 
L 42.5295 88.21784 
L 42.83175 88.045553 
L 43.134 87.873851 
L 43.43625 87.702734 
L 43.7385 87.532203 
L 44.04075 87.362258 
L 44.343 87.192901 
L 44.64525 87.024132 
L 44.9475 86.85595 
L 45.24975 86.688356 
L 45.552 86.52135 
L 45.85425 86.354931 
L 46.1565 86.1891 
L 46.45875 86.023856 
L 46.761 85.859199 
L 47.06325 85.695128 
L 47.3655 85.531643 
L 47.66775 85.368744 
L 47.97 85.206429 
L 48.27225 85.044698 
L 48.5745 84.883549 
L 48.87675 84.722983 
L 49.179 84.562999 
L 49.48125 84.403594 
L 49.7835 84.244769 
L 50.08575 84.086522 
L 50.388 83.928851 
L 50.69025 83.771757 
L 50.9925 83.615237 
L 51.29475 83.459291 
L 51.597 83.303916 
L 51.89925 83.149112 
L 52.2015 82.994878 
L 52.50375 82.841211 
L 52.806 82.688111 
L 53.10825 82.535576 
L 53.4105 82.383604 
L 53.71275 82.232194 
L 54.015 82.081344 
L 54.31725 81.931053 
L 54.6195 81.78132 
L 54.92175 81.632141 
L 55.224 81.483517 
L 55.52625 81.335445 
L 55.8285 81.187923 
L 56.13075 81.04095 
L 56.433 80.894524 
L 56.73525 80.748643 
L 57.0375 80.603305 
L 57.33975 80.45851 
L 57.642 80.314254 
L 57.94425 80.170536 
L 58.2465 80.027355 
L 58.54875 79.884708 
L 58.851 79.742594 
L 59.15325 79.601011 
L 59.4555 79.459956 
L 59.75775 79.319429 
L 60.06 79.179427 
L 60.36225 79.039948 
L 60.6645 78.90099 
L 60.96675 78.762552 
L 61.269 78.624632 
L 61.57125 78.487228 
L 61.8735 78.350337 
L 62.17575 78.213958 
L 62.478 78.078089 
L 62.78025 77.942729 
L 63.0825 77.807874 
L 63.38475 77.673524 
L 63.687 77.539676 
L 63.98925 77.406329 
L 64.2915 77.27348 
L 64.59375 77.141127 
L 64.896 77.00927 
L 65.19825 76.877905 
L 65.5005 76.74703 
L 65.80275 76.616645 
L 66.105 76.486747 
L 66.40725 76.357333 
L 66.7095 76.228403 
L 67.01175 76.099954 
L 67.314 75.971984 
L 67.61625 75.844492 
L 67.9185 75.717475 
L 68.22075 75.590932 
L 68.523 75.46486 
L 68.82525 75.339258 
L 69.1275 75.214124 
L 69.42975 75.089456 
L 69.732 74.965252 
L 70.03425 74.84151 
L 70.3365 74.718228 
L 70.63875 74.595405 
L 70.941 74.473039 
L 71.24325 74.351127 
L 71.5455 74.229667 
L 71.84775 74.108659 
L 72.15 73.9881 
L 72.45225 73.867988 
L 72.7545 73.748322 
L 73.05675 73.629099 
L 73.359 73.510318 
L 73.66125 73.391976 
L 73.9635 73.274073 
L 74.26575 73.156606 
L 74.568 73.039573 
L 74.87025 72.922973 
L 75.1725 72.806804 
L 75.47475 72.691064 
L 75.777 72.575751 
L 76.07925 72.460864 
L 76.3815 72.3464 
L 76.68375 72.232358 
L 76.986 72.118736 
L 77.28825 72.005533 
L 77.5905 71.892746 
L 77.89275 71.780375 
L 78.195 71.668416 
L 78.49725 71.556869 
L 78.7995 71.445731 
L 79.10175 71.335001 
L 79.404 71.224678 
L 79.70625 71.114759 
L 80.0085 71.005243 
L 80.31075 70.896128 
L 80.613 70.787413 
L 80.91525 70.679095 
L 81.2175 70.571173 
L 81.51975 70.463646 
L 81.822 70.356512 
L 82.12425 70.249769 
L 82.4265 70.143415 
L 82.72875 70.037449 
L 83.031 69.931869 
L 83.33325 69.826674 
L 83.6355 69.721862 
L 83.93775 69.617431 
L 84.24 69.51338 
L 84.24 41.618227 
L 84.24 41.618227 
L 83.93775 41.648924 
L 83.6355 41.679656 
L 83.33325 41.710423 
L 83.031 41.741225 
L 82.72875 41.772062 
L 82.4265 41.802934 
L 82.12425 41.833841 
L 81.822 41.864783 
L 81.51975 41.895761 
L 81.2175 41.926773 
L 80.91525 41.957821 
L 80.613 41.988905 
L 80.31075 42.020023 
L 80.0085 42.051178 
L 79.70625 42.082367 
L 79.404 42.113593 
L 79.10175 42.144854 
L 78.7995 42.176151 
L 78.49725 42.207484 
L 78.195 42.238853 
L 77.89275 42.270258 
L 77.5905 42.301699 
L 77.28825 42.333177 
L 76.986 42.364691 
L 76.68375 42.396242 
L 76.3815 42.42783 
L 76.07925 42.459455 
L 75.777 42.491117 
L 75.47475 42.522816 
L 75.1725 42.554553 
L 74.87025 42.586327 
L 74.568 42.618139 
L 74.26575 42.64999 
L 73.9635 42.681878 
L 73.66125 42.713805 
L 73.359 42.745771 
L 73.05675 42.777775 
L 72.7545 42.809819 
L 72.45225 42.841902 
L 72.15 42.874025 
L 71.84775 42.906188 
L 71.5455 42.938391 
L 71.24325 42.970635 
L 70.941 43.00292 
L 70.63875 43.035245 
L 70.3365 43.067613 
L 70.03425 43.100022 
L 69.732 43.132473 
L 69.42975 43.164967 
L 69.1275 43.197504 
L 68.82525 43.230084 
L 68.523 43.262707 
L 68.22075 43.295375 
L 67.9185 43.328088 
L 67.61625 43.360845 
L 67.314 43.393648 
L 67.01175 43.426497 
L 66.7095 43.459392 
L 66.40725 43.492335 
L 66.105 43.525324 
L 65.80275 43.558362 
L 65.5005 43.591448 
L 65.19825 43.624583 
L 64.896 43.657768 
L 64.59375 43.691004 
L 64.2915 43.72429 
L 63.98925 43.757627 
L 63.687 43.791017 
L 63.38475 43.82446 
L 63.0825 43.857957 
L 62.78025 43.891508 
L 62.478 43.925114 
L 62.17575 43.958776 
L 61.8735 43.992494 
L 61.57125 44.02627 
L 61.269 44.060104 
L 60.96675 44.093998 
L 60.6645 44.127951 
L 60.36225 44.161966 
L 60.06 44.196042 
L 59.75775 44.230182 
L 59.4555 44.264385 
L 59.15325 44.298653 
L 58.851 44.332988 
L 58.54875 44.367389 
L 58.2465 44.401859 
L 57.94425 44.436398 
L 57.642 44.471008 
L 57.33975 44.50569 
L 57.0375 44.540444 
L 56.73525 44.575274 
L 56.433 44.610179 
L 56.13075 44.645161 
L 55.8285 44.680222 
L 55.52625 44.715362 
L 55.224 44.750585 
L 54.92175 44.78589 
L 54.6195 44.821281 
L 54.31725 44.856757 
L 54.015 44.892322 
L 53.71275 44.927977 
L 53.4105 44.963723 
L 53.10825 44.999563 
L 52.806 45.035499 
L 52.50375 45.071532 
L 52.2015 45.107664 
L 51.89925 45.143898 
L 51.597 45.180236 
L 51.29475 45.21668 
L 50.9925 45.253232 
L 50.69025 45.289895 
L 50.388 45.326671 
L 50.08575 45.363563 
L 49.7835 45.400573 
L 49.48125 45.437704 
L 49.179 45.474959 
L 48.87675 45.512341 
L 48.5745 45.549852 
L 48.27225 45.587496 
L 47.97 45.625276 
L 47.66775 45.663195 
L 47.3655 45.701256 
L 47.06325 45.739464 
L 46.761 45.777821 
L 46.45875 45.816331 
L 46.1565 45.854999 
L 45.85425 45.893827 
L 45.552 45.932821 
L 45.24975 45.971985 
L 44.9475 46.011322 
L 44.64525 46.050838 
L 44.343 46.090538 
L 44.04075 46.130425 
L 43.7385 46.170505 
L 43.43625 46.210784 
L 43.134 46.251267 
L 42.83175 46.291959 
L 42.5295 46.332867 
L 42.22725 46.373996 
L 41.925 46.415352 
L 41.62275 46.456943 
L 41.3205 46.498775 
L 41.01825 46.540854 
L 40.716 46.583189 
L 40.41375 46.625787 
L 40.1115 46.668655 
L 39.80925 46.711803 
L 39.507 46.755237 
L 39.20475 46.798968 
L 38.9025 46.843005 
L 38.60025 46.887357 
L 38.298 46.932034 
L 37.99575 46.977046 
L 37.6935 47.022405 
L 37.39125 47.068121 
L 37.089 47.114207 
L 36.78675 47.160675 
L 36.4845 47.207538 
L 36.18225 47.254809 
L 35.88 47.302502 
L 35.57775 47.350632 
L 35.2755 47.399214 
L 34.97325 47.448265 
L 34.671 47.497801 
L 34.36875 47.547841 
L 34.0665 47.598401 
L 33.76425 47.649503 
L 33.462 47.701166 
L 33.15975 47.753412 
L 32.8575 47.806263 
L 32.55525 47.859743 
L 32.253 47.913877 
L 31.95075 47.968691 
L 31.6485 48.024212 
L 31.34625 48.08047 
L 31.044 48.137496 
L 30.74175 48.195322 
L 30.4395 48.253982 
L 30.13725 48.313512 
L 29.835 48.373951 
L 29.53275 48.43534 
L 29.2305 48.497721 
L 28.92825 48.56114 
L 28.626 48.625647 
L 28.32375 48.691291 
L 28.0215 48.75813 
L 27.71925 48.82622 
L 27.417 48.895624 
L 27.11475 48.966409 
L 26.8125 49.038647 
L 26.51025 49.112412 
L 26.208 49.187788 
L 25.90575 49.264861 
L 25.6035 49.343726 
L 25.30125 49.424484 
L 24.999 49.507243 
L 24.69675 49.592122 
L 24.3945 49.679247 
L 24.09225 49.768756 
L 23.79 49.860798 
L 23.48775 49.955534 
L 23.1855 50.053142 
L 22.88325 50.153812 
L 22.581 50.257754 
L 22.27875 50.365199 
L 21.9765 50.476397 
L 21.67425 50.591627 
L 21.372 50.711193 
L 21.06975 50.835434 
L 20.7675 50.964724 
L 20.46525 51.09948 
L 20.163 51.240166 
L 19.86075 51.387304 
L 19.5585 51.541479 
L 19.25625 51.70335 
L 18.954 51.873665 
L 18.65175 52.053276 
L 18.3495 52.243157 
L 18.04725 52.444427 
L 17.745 52.658383 
L 17.44275 52.886532 
L 17.1405 53.130643 
L 16.83825 53.392808 
L 16.536 53.675516 
L 16.23375 53.981768 
L 15.9315 54.315213 
L 15.62925 54.680345 
L 15.327 55.082784 
L 15.02475 55.529665 
L 14.7225 56.030229 
L 14.42025 56.596721 
L 14.118 57.245813 
L 13.81575 58.000999 
L 13.5135 58.896833 
L 13.21125 59.987076 
L 12.909 61.362022 
L 12.60675 63.191186 
L 12.3045 65.855051 
L 12.00225 70.563249 
L 11.7 104.095228 
z
" clip-path="url(#pa4de279c3a)" style="fill: #ffff7c; fill-opacity: 0.85"/>
   </g>
   <g id="FillBetweenPolyCollection_3">
    <path d="M 11.7 102.522818 
L 11.7 104.095228 
L 12.00225 70.563249 
L 12.3045 65.855051 
L 12.60675 63.191186 
L 12.909 61.362022 
L 13.21125 59.987076 
L 13.5135 58.896833 
L 13.81575 58.000999 
L 14.118 57.245813 
L 14.42025 56.596721 
L 14.7225 56.030229 
L 15.02475 55.529665 
L 15.327 55.082784 
L 15.62925 54.680345 
L 15.9315 54.315213 
L 16.23375 53.981768 
L 16.536 53.675516 
L 16.83825 53.392808 
L 17.1405 53.130643 
L 17.44275 52.886532 
L 17.745 52.658383 
L 18.04725 52.444427 
L 18.3495 52.243157 
L 18.65175 52.053276 
L 18.954 51.873665 
L 19.25625 51.70335 
L 19.5585 51.541479 
L 19.86075 51.387304 
L 20.163 51.240166 
L 20.46525 51.09948 
L 20.7675 50.964724 
L 21.06975 50.835434 
L 21.372 50.711193 
L 21.67425 50.591627 
L 21.9765 50.476397 
L 22.27875 50.365199 
L 22.581 50.257754 
L 22.88325 50.153812 
L 23.1855 50.053142 
L 23.48775 49.955534 
L 23.79 49.860798 
L 24.09225 49.768756 
L 24.3945 49.679247 
L 24.69675 49.592122 
L 24.999 49.507243 
L 25.30125 49.424484 
L 25.6035 49.343726 
L 25.90575 49.264861 
L 26.208 49.187788 
L 26.51025 49.112412 
L 26.8125 49.038647 
L 27.11475 48.966409 
L 27.417 48.895624 
L 27.71925 48.82622 
L 28.0215 48.75813 
L 28.32375 48.691291 
L 28.626 48.625647 
L 28.92825 48.56114 
L 29.2305 48.497721 
L 29.53275 48.43534 
L 29.835 48.373951 
L 30.13725 48.313512 
L 30.4395 48.253982 
L 30.74175 48.195322 
L 31.044 48.137496 
L 31.34625 48.08047 
L 31.6485 48.024212 
L 31.95075 47.968691 
L 32.253 47.913877 
L 32.55525 47.859743 
L 32.8575 47.806263 
L 33.15975 47.753412 
L 33.462 47.701166 
L 33.76425 47.649503 
L 34.0665 47.598401 
L 34.36875 47.547841 
L 34.671 47.497801 
L 34.97325 47.448265 
L 35.2755 47.399214 
L 35.57775 47.350632 
L 35.88 47.302502 
L 36.18225 47.254809 
L 36.4845 47.207538 
L 36.78675 47.160675 
L 37.089 47.114207 
L 37.39125 47.068121 
L 37.6935 47.022405 
L 37.99575 46.977046 
L 38.298 46.932034 
L 38.60025 46.887357 
L 38.9025 46.843005 
L 39.20475 46.798968 
L 39.507 46.755237 
L 39.80925 46.711803 
L 40.1115 46.668655 
L 40.41375 46.625787 
L 40.716 46.583189 
L 41.01825 46.540854 
L 41.3205 46.498775 
L 41.62275 46.456943 
L 41.925 46.415352 
L 42.22725 46.373996 
L 42.5295 46.332867 
L 42.83175 46.291959 
L 43.134 46.251267 
L 43.43625 46.210784 
L 43.7385 46.170505 
L 44.04075 46.130425 
L 44.343 46.090538 
L 44.64525 46.050838 
L 44.9475 46.011322 
L 45.24975 45.971985 
L 45.552 45.932821 
L 45.85425 45.893827 
L 46.1565 45.854999 
L 46.45875 45.816331 
L 46.761 45.777821 
L 47.06325 45.739464 
L 47.3655 45.701256 
L 47.66775 45.663195 
L 47.97 45.625276 
L 48.27225 45.587496 
L 48.5745 45.549852 
L 48.87675 45.512341 
L 49.179 45.474959 
L 49.48125 45.437704 
L 49.7835 45.400573 
L 50.08575 45.363563 
L 50.388 45.326671 
L 50.69025 45.289895 
L 50.9925 45.253232 
L 51.29475 45.21668 
L 51.597 45.180236 
L 51.89925 45.143898 
L 52.2015 45.107664 
L 52.50375 45.071532 
L 52.806 45.035499 
L 53.10825 44.999563 
L 53.4105 44.963723 
L 53.71275 44.927977 
L 54.015 44.892322 
L 54.31725 44.856757 
L 54.6195 44.821281 
L 54.92175 44.78589 
L 55.224 44.750585 
L 55.52625 44.715362 
L 55.8285 44.680222 
L 56.13075 44.645161 
L 56.433 44.610179 
L 56.73525 44.575274 
L 57.0375 44.540444 
L 57.33975 44.50569 
L 57.642 44.471008 
L 57.94425 44.436398 
L 58.2465 44.401859 
L 58.54875 44.367389 
L 58.851 44.332988 
L 59.15325 44.298653 
L 59.4555 44.264385 
L 59.75775 44.230182 
L 60.06 44.196042 
L 60.36225 44.161966 
L 60.6645 44.127951 
L 60.96675 44.093998 
L 61.269 44.060104 
L 61.57125 44.02627 
L 61.8735 43.992494 
L 62.17575 43.958776 
L 62.478 43.925114 
L 62.78025 43.891508 
L 63.0825 43.857957 
L 63.38475 43.82446 
L 63.687 43.791017 
L 63.98925 43.757627 
L 64.2915 43.72429 
L 64.59375 43.691004 
L 64.896 43.657768 
L 65.19825 43.624583 
L 65.5005 43.591448 
L 65.80275 43.558362 
L 66.105 43.525324 
L 66.40725 43.492335 
L 66.7095 43.459392 
L 67.01175 43.426497 
L 67.314 43.393648 
L 67.61625 43.360845 
L 67.9185 43.328088 
L 68.22075 43.295375 
L 68.523 43.262707 
L 68.82525 43.230084 
L 69.1275 43.197504 
L 69.42975 43.164967 
L 69.732 43.132473 
L 70.03425 43.100022 
L 70.3365 43.067613 
L 70.63875 43.035245 
L 70.941 43.00292 
L 71.24325 42.970635 
L 71.5455 42.938391 
L 71.84775 42.906188 
L 72.15 42.874025 
L 72.45225 42.841902 
L 72.7545 42.809819 
L 73.05675 42.777775 
L 73.359 42.745771 
L 73.66125 42.713805 
L 73.9635 42.681878 
L 74.26575 42.64999 
L 74.568 42.618139 
L 74.87025 42.586327 
L 75.1725 42.554553 
L 75.47475 42.522816 
L 75.777 42.491117 
L 76.07925 42.459455 
L 76.3815 42.42783 
L 76.68375 42.396242 
L 76.986 42.364691 
L 77.28825 42.333177 
L 77.5905 42.301699 
L 77.89275 42.270258 
L 78.195 42.238853 
L 78.49725 42.207484 
L 78.7995 42.176151 
L 79.10175 42.144854 
L 79.404 42.113593 
L 79.70625 42.082367 
L 80.0085 42.051178 
L 80.31075 42.020023 
L 80.613 41.988905 
L 80.91525 41.957821 
L 81.2175 41.926773 
L 81.51975 41.895761 
L 81.822 41.864783 
L 82.12425 41.833841 
L 82.4265 41.802934 
L 82.72875 41.772062 
L 83.031 41.741225 
L 83.33325 41.710423 
L 83.6355 41.679656 
L 83.93775 41.648924 
L 84.24 41.618227 
L 84.24 41.290246 
L 84.24 41.290246 
L 83.93775 41.325204 
L 83.6355 41.36016 
L 83.33325 41.395114 
L 83.031 41.430067 
L 82.72875 41.465019 
L 82.4265 41.49997 
L 82.12425 41.534919 
L 81.822 41.569868 
L 81.51975 41.604815 
L 81.2175 41.639762 
L 80.91525 41.674709 
L 80.613 41.709655 
L 80.31075 41.744601 
L 80.0085 41.779546 
L 79.70625 41.814492 
L 79.404 41.849438 
L 79.10175 41.884385 
L 78.7995 41.919332 
L 78.49725 41.95428 
L 78.195 41.989229 
L 77.89275 42.02418 
L 77.5905 42.059132 
L 77.28825 42.094086 
L 76.986 42.129042 
L 76.68375 42.164001 
L 76.3815 42.198962 
L 76.07925 42.233926 
L 75.777 42.268893 
L 75.47475 42.303863 
L 75.1725 42.338837 
L 74.87025 42.373816 
L 74.568 42.408798 
L 74.26575 42.443786 
L 73.9635 42.478778 
L 73.66125 42.513776 
L 73.359 42.54878 
L 73.05675 42.58379 
L 72.7545 42.618807 
L 72.45225 42.65383 
L 72.15 42.688861 
L 71.84775 42.7239 
L 71.5455 42.758947 
L 71.24325 42.794003 
L 70.941 42.829068 
L 70.63875 42.864143 
L 70.3365 42.899227 
L 70.03425 42.934323 
L 69.732 42.96943 
L 69.42975 43.004548 
L 69.1275 43.039678 
L 68.82525 43.074822 
L 68.523 43.109978 
L 68.22075 43.145149 
L 67.9185 43.180334 
L 67.61625 43.215535 
L 67.314 43.250751 
L 67.01175 43.285983 
L 66.7095 43.321233 
L 66.40725 43.356501 
L 66.105 43.391787 
L 65.80275 43.427092 
L 65.5005 43.462418 
L 65.19825 43.497764 
L 64.896 43.533131 
L 64.59375 43.568521 
L 64.2915 43.603934 
L 63.98925 43.639371 
L 63.687 43.674833 
L 63.38475 43.71032 
L 63.0825 43.745834 
L 62.78025 43.781375 
L 62.478 43.816945 
L 62.17575 43.852545 
L 61.8735 43.888174 
L 61.57125 43.923836 
L 61.269 43.959529 
L 60.96675 43.995256 
L 60.6645 44.031018 
L 60.36225 44.066816 
L 60.06 44.10265 
L 59.75775 44.138523 
L 59.4555 44.174434 
L 59.15325 44.210387 
L 58.851 44.246381 
L 58.54875 44.282418 
L 58.2465 44.3185 
L 57.94425 44.354627 
L 57.642 44.390802 
L 57.33975 44.427025 
L 57.0375 44.463299 
L 56.73525 44.499624 
L 56.433 44.536002 
L 56.13075 44.572436 
L 55.8285 44.608925 
L 55.52625 44.645473 
L 55.224 44.682081 
L 54.92175 44.71875 
L 54.6195 44.755482 
L 54.31725 44.79228 
L 54.015 44.829146 
L 53.71275 44.86608 
L 53.4105 44.903085 
L 53.10825 44.940164 
L 52.806 44.977319 
L 52.50375 45.014551 
L 52.2015 45.051862 
L 51.89925 45.089256 
L 51.597 45.126735 
L 51.29475 45.1643 
L 50.9925 45.201955 
L 50.69025 45.239702 
L 50.388 45.277544 
L 50.08575 45.315484 
L 49.7835 45.353524 
L 49.48125 45.391667 
L 49.179 45.429916 
L 48.87675 45.468274 
L 48.5745 45.506746 
L 48.27225 45.545332 
L 47.97 45.584038 
L 47.66775 45.622867 
L 47.3655 45.661822 
L 47.06325 45.700906 
L 46.761 45.740124 
L 46.45875 45.77948 
L 46.1565 45.818977 
L 45.85425 45.858621 
L 45.552 45.898414 
L 45.24975 45.938362 
L 44.9475 45.978469 
L 44.64525 46.01874 
L 44.343 46.05918 
L 44.04075 46.099794 
L 43.7385 46.140587 
L 43.43625 46.181564 
L 43.134 46.222732 
L 42.83175 46.264096 
L 42.5295 46.305662 
L 42.22725 46.347436 
L 41.925 46.389425 
L 41.62275 46.431636 
L 41.3205 46.474075 
L 41.01825 46.516749 
L 40.716 46.559667 
L 40.41375 46.602836 
L 40.1115 46.646263 
L 39.80925 46.689958 
L 39.507 46.733929 
L 39.20475 46.778185 
L 38.9025 46.822735 
L 38.60025 46.86759 
L 38.298 46.912759 
L 37.99575 46.958253 
L 37.6935 47.004082 
L 37.39125 47.05026 
L 37.089 47.096797 
L 36.78675 47.143705 
L 36.4845 47.190999 
L 36.18225 47.238691 
L 35.88 47.286797 
L 35.57775 47.335329 
L 35.2755 47.384306 
L 34.97325 47.433741 
L 34.671 47.483653 
L 34.36875 47.53406 
L 34.0665 47.584979 
L 33.76425 47.636431 
L 33.462 47.688436 
L 33.15975 47.741016 
L 32.8575 47.794193 
L 32.55525 47.847991 
L 32.253 47.902435 
L 31.95075 47.957552 
L 31.6485 48.013369 
L 31.34625 48.069915 
L 31.044 48.127222 
L 30.74175 48.185321 
L 30.4395 48.244248 
L 30.13725 48.304039 
L 29.835 48.364732 
L 29.53275 48.426368 
L 29.2305 48.48899 
L 28.92825 48.552644 
L 28.626 48.617378 
L 28.32375 48.683245 
L 28.0215 48.750299 
L 27.71925 48.8186 
L 27.417 48.888208 
L 27.11475 48.959193 
L 26.8125 49.031623 
L 26.51025 49.105577 
L 26.208 49.181135 
L 25.90575 49.258386 
L 25.6035 49.337423 
L 25.30125 49.418347 
L 24.999 49.501269 
L 24.69675 49.586304 
L 24.3945 49.673582 
L 24.09225 49.763238 
L 23.79 49.855422 
L 23.48775 49.950297 
L 23.1855 50.048037 
L 22.88325 50.148836 
L 22.581 50.252902 
L 22.27875 50.360466 
L 21.9765 50.47178 
L 21.67425 50.58712 
L 21.372 50.706793 
L 21.06975 50.831135 
L 20.7675 50.960523 
L 20.46525 51.095371 
L 20.163 51.236146 
L 19.86075 51.383368 
L 19.5585 51.537621 
L 19.25625 51.699566 
L 18.954 51.86995 
L 18.65175 52.049625 
L 18.3495 52.239564 
L 18.04725 52.440887 
L 17.745 52.654889 
L 17.44275 52.883077 
L 17.1405 53.127221 
L 16.83825 53.38941 
L 16.536 53.672134 
L 16.23375 53.97839 
L 15.9315 54.311828 
L 15.62925 54.676939 
L 15.327 55.079339 
L 15.02475 55.52616 
L 14.7225 56.026639 
L 14.42025 56.593008 
L 14.118 57.241932 
L 13.81575 57.996882 
L 13.5135 58.892382 
L 13.21125 59.982133 
L 12.909 61.356313 
L 12.60675 63.184166 
L 12.3045 65.845366 
L 12.00225 70.545526 
L 11.7 102.522818 
z
" clip-path="url(#pa4de279c3a)" style="fill: #7cffff; fill-opacity: 0.85"/>
   </g>
   <g id="FillBetweenPolyCollection_4">
    <path d="M 11.7 12.96 
L 11.7 102.522818 
L 12.00225 70.545526 
L 12.3045 65.845366 
L 12.60675 63.184166 
L 12.909 61.356313 
L 13.21125 59.982133 
L 13.5135 58.892382 
L 13.81575 57.996882 
L 14.118 57.241932 
L 14.42025 56.593008 
L 14.7225 56.026639 
L 15.02475 55.52616 
L 15.327 55.079339 
L 15.62925 54.676939 
L 15.9315 54.311828 
L 16.23375 53.97839 
L 16.536 53.672134 
L 16.83825 53.38941 
L 17.1405 53.127221 
L 17.44275 52.883077 
L 17.745 52.654889 
L 18.04725 52.440887 
L 18.3495 52.239564 
L 18.65175 52.049625 
L 18.954 51.86995 
L 19.25625 51.699566 
L 19.5585 51.537621 
L 19.86075 51.383368 
L 20.163 51.236146 
L 20.46525 51.095371 
L 20.7675 50.960523 
L 21.06975 50.831135 
L 21.372 50.706793 
L 21.67425 50.58712 
L 21.9765 50.47178 
L 22.27875 50.360466 
L 22.581 50.252902 
L 22.88325 50.148836 
L 23.1855 50.048037 
L 23.48775 49.950297 
L 23.79 49.855422 
L 24.09225 49.763238 
L 24.3945 49.673582 
L 24.69675 49.586304 
L 24.999 49.501269 
L 25.30125 49.418347 
L 25.6035 49.337423 
L 25.90575 49.258386 
L 26.208 49.181135 
L 26.51025 49.105577 
L 26.8125 49.031623 
L 27.11475 48.959193 
L 27.417 48.888208 
L 27.71925 48.8186 
L 28.0215 48.750299 
L 28.32375 48.683245 
L 28.626 48.617378 
L 28.92825 48.552644 
L 29.2305 48.48899 
L 29.53275 48.426368 
L 29.835 48.364732 
L 30.13725 48.304039 
L 30.4395 48.244248 
L 30.74175 48.185321 
L 31.044 48.127222 
L 31.34625 48.069915 
L 31.6485 48.013369 
L 31.95075 47.957552 
L 32.253 47.902435 
L 32.55525 47.847991 
L 32.8575 47.794193 
L 33.15975 47.741016 
L 33.462 47.688436 
L 33.76425 47.636431 
L 34.0665 47.584979 
L 34.36875 47.53406 
L 34.671 47.483653 
L 34.97325 47.433741 
L 35.2755 47.384306 
L 35.57775 47.335329 
L 35.88 47.286797 
L 36.18225 47.238691 
L 36.4845 47.190999 
L 36.78675 47.143705 
L 37.089 47.096797 
L 37.39125 47.05026 
L 37.6935 47.004082 
L 37.99575 46.958253 
L 38.298 46.912759 
L 38.60025 46.86759 
L 38.9025 46.822735 
L 39.20475 46.778185 
L 39.507 46.733929 
L 39.80925 46.689958 
L 40.1115 46.646263 
L 40.41375 46.602836 
L 40.716 46.559667 
L 41.01825 46.516749 
L 41.3205 46.474075 
L 41.62275 46.431636 
L 41.925 46.389425 
L 42.22725 46.347436 
L 42.5295 46.305662 
L 42.83175 46.264096 
L 43.134 46.222732 
L 43.43625 46.181564 
L 43.7385 46.140587 
L 44.04075 46.099794 
L 44.343 46.05918 
L 44.64525 46.01874 
L 44.9475 45.978469 
L 45.24975 45.938362 
L 45.552 45.898414 
L 45.85425 45.858621 
L 46.1565 45.818977 
L 46.45875 45.77948 
L 46.761 45.740124 
L 47.06325 45.700906 
L 47.3655 45.661822 
L 47.66775 45.622867 
L 47.97 45.584038 
L 48.27225 45.545332 
L 48.5745 45.506746 
L 48.87675 45.468274 
L 49.179 45.429916 
L 49.48125 45.391667 
L 49.7835 45.353524 
L 50.08575 45.315484 
L 50.388 45.277544 
L 50.69025 45.239702 
L 50.9925 45.201955 
L 51.29475 45.1643 
L 51.597 45.126735 
L 51.89925 45.089256 
L 52.2015 45.051862 
L 52.50375 45.014551 
L 52.806 44.977319 
L 53.10825 44.940164 
L 53.4105 44.903085 
L 53.71275 44.86608 
L 54.015 44.829146 
L 54.31725 44.79228 
L 54.6195 44.755482 
L 54.92175 44.71875 
L 55.224 44.682081 
L 55.52625 44.645473 
L 55.8285 44.608925 
L 56.13075 44.572436 
L 56.433 44.536002 
L 56.73525 44.499624 
L 57.0375 44.463299 
L 57.33975 44.427025 
L 57.642 44.390802 
L 57.94425 44.354627 
L 58.2465 44.3185 
L 58.54875 44.282418 
L 58.851 44.246381 
L 59.15325 44.210387 
L 59.4555 44.174434 
L 59.75775 44.138523 
L 60.06 44.10265 
L 60.36225 44.066816 
L 60.6645 44.031018 
L 60.96675 43.995256 
L 61.269 43.959529 
L 61.57125 43.923836 
L 61.8735 43.888174 
L 62.17575 43.852545 
L 62.478 43.816945 
L 62.78025 43.781375 
L 63.0825 43.745834 
L 63.38475 43.71032 
L 63.687 43.674833 
L 63.98925 43.639371 
L 64.2915 43.603934 
L 64.59375 43.568521 
L 64.896 43.533131 
L 65.19825 43.497764 
L 65.5005 43.462418 
L 65.80275 43.427092 
L 66.105 43.391787 
L 66.40725 43.356501 
L 66.7095 43.321233 
L 67.01175 43.285983 
L 67.314 43.250751 
L 67.61625 43.215535 
L 67.9185 43.180334 
L 68.22075 43.145149 
L 68.523 43.109978 
L 68.82525 43.074822 
L 69.1275 43.039678 
L 69.42975 43.004548 
L 69.732 42.96943 
L 70.03425 42.934323 
L 70.3365 42.899227 
L 70.63875 42.864143 
L 70.941 42.829068 
L 71.24325 42.794003 
L 71.5455 42.758947 
L 71.84775 42.7239 
L 72.15 42.688861 
L 72.45225 42.65383 
L 72.7545 42.618807 
L 73.05675 42.58379 
L 73.359 42.54878 
L 73.66125 42.513776 
L 73.9635 42.478778 
L 74.26575 42.443786 
L 74.568 42.408798 
L 74.87025 42.373816 
L 75.1725 42.338837 
L 75.47475 42.303863 
L 75.777 42.268893 
L 76.07925 42.233926 
L 76.3815 42.198962 
L 76.68375 42.164001 
L 76.986 42.129042 
L 77.28825 42.094086 
L 77.5905 42.059132 
L 77.89275 42.02418 
L 78.195 41.989229 
L 78.49725 41.95428 
L 78.7995 41.919332 
L 79.10175 41.884385 
L 79.404 41.849438 
L 79.70625 41.814492 
L 80.0085 41.779546 
L 80.31075 41.744601 
L 80.613 41.709655 
L 80.91525 41.674709 
L 81.2175 41.639762 
L 81.51975 41.604815 
L 81.822 41.569868 
L 82.12425 41.534919 
L 82.4265 41.49997 
L 82.72875 41.465019 
L 83.031 41.430067 
L 83.33325 41.395114 
L 83.6355 41.36016 
L 83.93775 41.325204 
L 84.24 41.290246 
L 84.24 12.96 
L 84.24 12.96 
L 83.93775 12.96 
L 83.6355 12.96 
L 83.33325 12.96 
L 83.031 12.96 
L 82.72875 12.96 
L 82.4265 12.96 
L 82.12425 12.96 
L 81.822 12.96 
L 81.51975 12.96 
L 81.2175 12.96 
L 80.91525 12.96 
L 80.613 12.96 
L 80.31075 12.96 
L 80.0085 12.96 
L 79.70625 12.96 
L 79.404 12.96 
L 79.10175 12.96 
L 78.7995 12.96 
L 78.49725 12.96 
L 78.195 12.96 
L 77.89275 12.96 
L 77.5905 12.96 
L 77.28825 12.96 
L 76.986 12.96 
L 76.68375 12.96 
L 76.3815 12.96 
L 76.07925 12.96 
L 75.777 12.96 
L 75.47475 12.96 
L 75.1725 12.96 
L 74.87025 12.96 
L 74.568 12.96 
L 74.26575 12.96 
L 73.9635 12.96 
L 73.66125 12.96 
L 73.359 12.96 
L 73.05675 12.96 
L 72.7545 12.96 
L 72.45225 12.96 
L 72.15 12.96 
L 71.84775 12.96 
L 71.5455 12.96 
L 71.24325 12.96 
L 70.941 12.96 
L 70.63875 12.96 
L 70.3365 12.96 
L 70.03425 12.96 
L 69.732 12.96 
L 69.42975 12.96 
L 69.1275 12.96 
L 68.82525 12.96 
L 68.523 12.96 
L 68.22075 12.96 
L 67.9185 12.96 
L 67.61625 12.96 
L 67.314 12.96 
L 67.01175 12.96 
L 66.7095 12.96 
L 66.40725 12.96 
L 66.105 12.96 
L 65.80275 12.96 
L 65.5005 12.96 
L 65.19825 12.96 
L 64.896 12.96 
L 64.59375 12.96 
L 64.2915 12.96 
L 63.98925 12.96 
L 63.687 12.96 
L 63.38475 12.96 
L 63.0825 12.96 
L 62.78025 12.96 
L 62.478 12.96 
L 62.17575 12.96 
L 61.8735 12.96 
L 61.57125 12.96 
L 61.269 12.96 
L 60.96675 12.96 
L 60.6645 12.96 
L 60.36225 12.96 
L 60.06 12.96 
L 59.75775 12.96 
L 59.4555 12.96 
L 59.15325 12.96 
L 58.851 12.96 
L 58.54875 12.96 
L 58.2465 12.96 
L 57.94425 12.96 
L 57.642 12.96 
L 57.33975 12.96 
L 57.0375 12.96 
L 56.73525 12.96 
L 56.433 12.96 
L 56.13075 12.96 
L 55.8285 12.96 
L 55.52625 12.96 
L 55.224 12.96 
L 54.92175 12.96 
L 54.6195 12.96 
L 54.31725 12.96 
L 54.015 12.96 
L 53.71275 12.96 
L 53.4105 12.96 
L 53.10825 12.96 
L 52.806 12.96 
L 52.50375 12.96 
L 52.2015 12.96 
L 51.89925 12.96 
L 51.597 12.96 
L 51.29475 12.96 
L 50.9925 12.96 
L 50.69025 12.96 
L 50.388 12.96 
L 50.08575 12.96 
L 49.7835 12.96 
L 49.48125 12.96 
L 49.179 12.96 
L 48.87675 12.96 
L 48.5745 12.96 
L 48.27225 12.96 
L 47.97 12.96 
L 47.66775 12.96 
L 47.3655 12.96 
L 47.06325 12.96 
L 46.761 12.96 
L 46.45875 12.96 
L 46.1565 12.96 
L 45.85425 12.96 
L 45.552 12.96 
L 45.24975 12.96 
L 44.9475 12.96 
L 44.64525 12.96 
L 44.343 12.96 
L 44.04075 12.96 
L 43.7385 12.96 
L 43.43625 12.96 
L 43.134 12.96 
L 42.83175 12.96 
L 42.5295 12.96 
L 42.22725 12.96 
L 41.925 12.96 
L 41.62275 12.96 
L 41.3205 12.96 
L 41.01825 12.96 
L 40.716 12.96 
L 40.41375 12.96 
L 40.1115 12.96 
L 39.80925 12.96 
L 39.507 12.96 
L 39.20475 12.96 
L 38.9025 12.96 
L 38.60025 12.96 
L 38.298 12.96 
L 37.99575 12.96 
L 37.6935 12.96 
L 37.39125 12.96 
L 37.089 12.96 
L 36.78675 12.96 
L 36.4845 12.96 
L 36.18225 12.96 
L 35.88 12.96 
L 35.57775 12.96 
L 35.2755 12.96 
L 34.97325 12.96 
L 34.671 12.96 
L 34.36875 12.96 
L 34.0665 12.96 
L 33.76425 12.96 
L 33.462 12.96 
L 33.15975 12.96 
L 32.8575 12.96 
L 32.55525 12.96 
L 32.253 12.96 
L 31.95075 12.96 
L 31.6485 12.96 
L 31.34625 12.96 
L 31.044 12.96 
L 30.74175 12.96 
L 30.4395 12.96 
L 30.13725 12.96 
L 29.835 12.96 
L 29.53275 12.96 
L 29.2305 12.96 
L 28.92825 12.96 
L 28.626 12.96 
L 28.32375 12.96 
L 28.0215 12.96 
L 27.71925 12.96 
L 27.417 12.96 
L 27.11475 12.96 
L 26.8125 12.96 
L 26.51025 12.96 
L 26.208 12.96 
L 25.90575 12.96 
L 25.6035 12.96 
L 25.30125 12.96 
L 24.999 12.96 
L 24.69675 12.96 
L 24.3945 12.96 
L 24.09225 12.96 
L 23.79 12.96 
L 23.48775 12.96 
L 23.1855 12.96 
L 22.88325 12.96 
L 22.581 12.96 
L 22.27875 12.96 
L 21.9765 12.96 
L 21.67425 12.96 
L 21.372 12.96 
L 21.06975 12.96 
L 20.7675 12.96 
L 20.46525 12.96 
L 20.163 12.96 
L 19.86075 12.96 
L 19.5585 12.96 
L 19.25625 12.96 
L 18.954 12.96 
L 18.65175 12.96 
L 18.3495 12.96 
L 18.04725 12.96 
L 17.745 12.96 
L 17.44275 12.96 
L 17.1405 12.96 
L 16.83825 12.96 
L 16.536 12.96 
L 16.23375 12.96 
L 15.9315 12.96 
L 15.62925 12.96 
L 15.327 12.96 
L 15.02475 12.96 
L 14.7225 12.96 
L 14.42025 12.96 
L 14.118 12.96 
L 13.81575 12.96 
L 13.5135 12.96 
L 13.21125 12.96 
L 12.909 12.96 
L 12.60675 12.96 
L 12.3045 12.96 
L 12.00225 12.96 
L 11.7 12.96 
z
" clip-path="url(#pa4de279c3a)" style="fill: #ffa09f; fill-opacity: 0.85"/>
   </g>
   <g id="matplotlib.axis_1">
    <g id="xtick_1">
     <g id="line2d_1">
      <defs>
       <path id="mabc5edff8e" d="M 0 0 
L 0 3.5 
" style="stroke: #000000; stroke-width: 0.8"/>
      </defs>
      <g>
       <use xlink:href="#mabc5edff8e" x="11.7" y="96.12" style="stroke: #000000; stroke-width: 0.8"/>
      </g>
     </g>
     <g id="text_1">
      <text style="font-size: 6px; font-family: 'DejaVu Sans', 'Arial', 'Helvetica', 'Lucida Grande', 'Verdana', 'Geneva', 'Lucid', 'Avant Garde', sans-serif; text-anchor: middle" x="11.7" y="107.679063" transform="rotate(-0 11.7 107.679063)">0</text>
     </g>
    </g>
    <g id="xtick_2">
     <g id="line2d_2">
      <g>
       <use xlink:href="#mabc5edff8e" x="30.590625" y="96.12" style="stroke: #000000; stroke-width: 0.8"/>
      </g>
     </g>
     <g id="text_2">
      <text style="font-size: 6px; font-family: 'DejaVu Sans', 'Arial', 'Helvetica', 'Lucida Grande', 'Verdana', 'Geneva', 'Lucid', 'Avant Garde', sans-serif; text-anchor: middle" x="30.590625" y="107.679063" transform="rotate(-0 30.590625 107.679063)">25</text>
     </g>
    </g>
    <g id="xtick_3">
     <g id="line2d_3">
      <g>
       <use xlink:href="#mabc5edff8e" x="49.48125" y="96.12" style="stroke: #000000; stroke-width: 0.8"/>
      </g>
     </g>
     <g id="text_3">
      <text style="font-size: 6px; font-family: 'DejaVu Sans', 'Arial', 'Helvetica', 'Lucida Grande', 'Verdana', 'Geneva', 'Lucid', 'Avant Garde', sans-serif; text-anchor: middle" x="49.48125" y="107.679063" transform="rotate(-0 49.48125 107.679063)">50</text>
     </g>
    </g>
    <g id="xtick_4">
     <g id="line2d_4">
      <g>
       <use xlink:href="#mabc5edff8e" x="68.371875" y="96.12" style="stroke: #000000; stroke-width: 0.8"/>
      </g>
     </g>
     <g id="text_4">
      <text style="font-size: 6px; font-family: 'DejaVu Sans', 'Arial', 'Helvetica', 'Lucida Grande', 'Verdana', 'Geneva', 'Lucid', 'Avant Garde', sans-serif; text-anchor: middle" x="68.371875" y="107.679063" transform="rotate(-0 68.371875 107.679063)">75</text>
     </g>
    </g>
    <g id="text_5">
     <text style="font-size: 6px; font-family: 'DejaVu Sans', 'Arial', 'Helvetica', 'Lucida Grande', 'Verdana', 'Geneva', 'Lucid', 'Avant Garde', sans-serif; text-anchor: middle" x="47.97" y="117.485938" transform="rotate(-0 47.97 117.485938)">Dormancy depth a (h)</text>
    </g>
   </g>
   <g id="matplotlib.axis_2">
    <g id="ytick_1">
     <g id="line2d_5">
      <defs>
       <path id="m83cdd9f6a5" d="M 0 0 
L -3.5 0 
" style="stroke: #000000; stroke-width: 0.8"/>
      </defs>
      <g>
       <use xlink:href="#m83cdd9f6a5" x="11.7" y="96.12" style="stroke: #000000; stroke-width: 0.8"/>
      </g>
     </g>
     <g id="text_6">
      <!-- $\mathdefault{10^{-5}}$ -->
      <g transform="translate(-9.4 98.399531)">
       <text>
        <tspan x="0" y="-0.640625" style="font-size: 6px; font-family: 'DejaVu Sans'">1</tspan>
        <tspan x="3.817383" y="-0.640625" style="font-size: 6px; font-family: 'DejaVu Sans'">0</tspan>
        <tspan x="7.692188" y="-2.9375" style="font-size: 4.2px; font-family: 'DejaVu Sans'">−</tspan>
        <tspan x="11.211328" y="-2.9375" style="font-size: 4.2px; font-family: 'DejaVu Sans'">5</tspan>
       </text>
      </g>
     </g>
    </g>
    <g id="ytick_2">
     <g id="line2d_6">
      <g>
       <use xlink:href="#m83cdd9f6a5" x="11.7" y="79.488" style="stroke: #000000; stroke-width: 0.8"/>
      </g>
     </g>
     <g id="text_7">
      <!-- $\mathdefault{10^{-4}}$ -->
      <g transform="translate(-9.4 81.767531)">
       <text>
        <tspan x="0" y="-0.640625" style="font-size: 6px; font-family: 'DejaVu Sans'">1</tspan>
        <tspan x="3.817383" y="-0.640625" style="font-size: 6px; font-family: 'DejaVu Sans'">0</tspan>
        <tspan x="7.692188" y="-2.9375" style="font-size: 4.2px; font-family: 'DejaVu Sans'">−</tspan>
        <tspan x="11.211328" y="-2.9375" style="font-size: 4.2px; font-family: 'DejaVu Sans'">4</tspan>
       </text>
      </g>
     </g>
    </g>
    <g id="ytick_3">
     <g id="line2d_7">
      <g>
       <use xlink:href="#m83cdd9f6a5" x="11.7" y="62.856" style="stroke: #000000; stroke-width: 0.8"/>
      </g>
     </g>
     <g id="text_8">
      <!-- $\mathdefault{10^{-3}}$ -->
      <g transform="translate(-9.4 65.135531)">
       <text>
        <tspan x="0" y="-0.585938" style="font-size: 6px; font-family: 'DejaVu Sans'">1</tspan>
        <tspan x="3.817383" y="-0.585938" style="font-size: 6px; font-family: 'DejaVu Sans'">0</tspan>
        <tspan x="7.692188" y="-2.882812" style="font-size: 4.2px; font-family: 'DejaVu Sans'">−</tspan>
        <tspan x="11.211328" y="-2.882812" style="font-size: 4.2px; font-family: 'DejaVu Sans'">3</tspan>
       </text>
      </g>
     </g>
    </g>
    <g id="ytick_4">
     <g id="line2d_8">
      <g>
       <use xlink:href="#m83cdd9f6a5" x="11.7" y="46.224" style="stroke: #000000; stroke-width: 0.8"/>
      </g>
     </g>
     <g id="text_9">
      <!-- $\mathdefault{10^{-2}}$ -->
      <g transform="translate(-9.4 48.503531)">
       <text>
        <tspan x="0" y="-0.585938" style="font-size: 6px; font-family: 'DejaVu Sans'">1</tspan>
        <tspan x="3.817383" y="-0.585938" style="font-size: 6px; font-family: 'DejaVu Sans'">0</tspan>
        <tspan x="7.692188" y="-2.882812" style="font-size: 4.2px; font-family: 'DejaVu Sans'">−</tspan>
        <tspan x="11.211328" y="-2.882812" style="font-size: 4.2px; font-family: 'DejaVu Sans'">2</tspan>
       </text>
      </g>
     </g>
    </g>
    <g id="ytick_5">
     <g id="line2d_9">
      <g>
       <use xlink:href="#m83cdd9f6a5" x="11.7" y="29.592" style="stroke: #000000; stroke-width: 0.8"/>
      </g>
     </g>
     <g id="text_10">
      <!-- $\mathdefault{10^{-1}}$ -->
      <g transform="translate(-9.4 31.871531)">
       <text>
        <tspan x="0" y="-0.640625" style="font-size: 6px; font-family: 'DejaVu Sans'">1</tspan>
        <tspan x="3.817383" y="-0.640625" style="font-size: 6px; font-family: 'DejaVu Sans'">0</tspan>
        <tspan x="7.692188" y="-2.9375" style="font-size: 4.2px; font-family: 'DejaVu Sans'">−</tspan>
        <tspan x="11.211328" y="-2.9375" style="font-size: 4.2px; font-family: 'DejaVu Sans'">1</tspan>
       </text>
      </g>
     </g>
    </g>
    <g id="ytick_6">
     <g id="line2d_10">
      <g>
       <use xlink:href="#m83cdd9f6a5" x="11.7" y="12.96" style="stroke: #000000; stroke-width: 0.8"/>
      </g>
     </g>
     <g id="text_11">
      <!-- $\mathdefault{10^{0}}$ -->
      <g transform="translate(-5.86 15.239531)">
       <text>
        <tspan x="0" y="-0.585938" style="font-size: 6px; font-family: 'DejaVu Sans'">1</tspan>
        <tspan x="3.817383" y="-0.585938" style="font-size: 6px; font-family: 'DejaVu Sans'">0</tspan>
        <tspan x="7.692188" y="-2.882812" style="font-size: 4.2px; font-family: 'DejaVu Sans'">0</tspan>
       </text>
      </g>
     </g>
    </g>
    <g id="ytick_7"/>
    <g id="ytick_8"/>
    <g id="ytick_9"/>
    <g id="ytick_10"/>
    <g id="ytick_11"/>
    <g id="ytick_12"/>
    <g id="ytick_13"/>
    <g id="ytick_14"/>
    <g id="ytick_15"/>
    <g id="ytick_16"/>
    <g id="ytick_17"/>
    <g id="ytick_18"/>
    <g id="ytick_19"/>
    <g id="ytick_20"/>
    <g id="ytick_21"/>
    <g id="ytick_22"/>
    <g id="ytick_23"/>
    <g id="ytick_24"/>
    <g id="ytick_25"/>
    <g id="ytick_26"/>
    <g id="ytick_27"/>
    <g id="ytick_28"/>
    <g id="ytick_29"/>
    <g id="ytick_30"/>
    <g id="ytick_31"/>
    <g id="ytick_32"/>
    <g id="ytick_33"/>
    <g id="ytick_34"/>
    <g id="ytick_35"/>
    <g id="ytick_36"/>
    <g id="ytick_37"/>
    <g id="ytick_38"/>
    <g id="ytick_39"/>
    <g id="ytick_40"/>
    <g id="ytick_41"/>
    <g id="ytick_42"/>
    <g id="ytick_43"/>
    <g id="ytick_44"/>
    <g id="ytick_45"/>
    <g id="ytick_46"/>
    <g id="text_12">
     <text style="font-size: 6px; font-family: 'DejaVu Sans', 'Arial', 'Helvetica', 'Lucida Grande', 'Verdana', 'Geneva', 'Lucid', 'Avant Garde', sans-serif; text-anchor: middle" x="-14.647812" y="54.54" transform="rotate(-90 -14.647812 54.54)">Frac of population at Ab removal</text>
    </g>
   </g>
   <g id="patch_3">
    <path d="M 11.7 96.12 
L 11.7 12.96 
" style="fill: none; stroke: #000000; stroke-width: 0.5; stroke-linejoin: miter; stroke-linecap: square"/>
   </g>
   <g id="patch_4">
    <path d="M 11.7 96.12 
L 84.24 96.12 
" style="fill: none; stroke: #000000; stroke-width: 0.5; stroke-linejoin: miter; stroke-linecap: square"/>
   </g>
  </g>
 </g>
 <defs>
  <clipPath id="pa4de279c3a">
   <rect x="11.7" y="12.96" width="72.54" height="83.16"/>
  </clipPath>
 </defs>
</svg>
