<?xml version="1.0" encoding="utf-8" standalone="no"?>
<!DOCTYPE svg PUBLIC "-//W3C//DTD SVG 1.1//EN"
  "http://www.w3.org/Graphics/SVG/1.1/DTD/svg11.dtd">
<svg xmlns:xlink="http://www.w3.org/1999/xlink" width="61.2pt" height="28.8pt" viewBox="0 0 61.2 28.8" xmlns="http://www.w3.org/2000/svg" version="1.1">
 <metadata>
  <rdf:RDF xmlns:dc="http://purl.org/dc/elements/1.1/" xmlns:cc="http://creativecommons.org/ns#" xmlns:rdf="http://www.w3.org/1999/02/22-rdf-syntax-ns#">
   <cc:Work>
    <dc:type rdf:resource="http://purl.org/dc/dcmitype/StillImage"/>
    <dc:date>2026-02-16T18:34:13.766349</dc:date>
    <dc:format>image/svg+xml</dc:format>
    <dc:creator>
     <cc:Agent>
      <dc:title>Matplotlib v3.10.8, https://matplotlib.org/</dc:title>
     </cc:Agent>
    </dc:creator>
   </cc:Work>
  </rdf:RDF>
 </metadata>
 <defs>
  <style type="text/css">*{stroke-linejoin: round; stroke-linecap: butt}</style>
 </defs>
 <g id="figure_1">
  <g id="patch_1">
   <path d="M 0 28.8 
L 61.2 28.8 
L 61.2 0 
L 0 0 
L 0 28.8 
z
" style="fill: none"/>
  </g>
  <g id="axes_1">
   <g id="patch_2">
    <path d="M 7.65 25.632 
L 55.08 25.632 
L 55.08 3.456 
L 7.65 3.456 
L 7.65 25.632 
z
" style="fill: none"/>
   </g>
   <g id="matplotlib.axis_1">
    <g id="xtick_1">
     <g id="line2d_1">
      <defs>
       <path id="m10c68e1889" d="M 0 0 
L 0 3.5 
" style="stroke: #000000; stroke-width: 0.8"/>
      </defs>
      <g>
       <use xlink:href="#m10c68e1889" x="9.805909" y="25.632" style="stroke: #000000; stroke-width: 0.8"/>
      </g>
     </g>
     <g id="text_1">
      <text style="font-size: 6px; font-family: 'DejaVu Sans', 'Arial', 'Helvetica', 'Lucida Grande', 'Verdana', 'Geneva', 'Lucid', 'Avant Garde', sans-serif; text-anchor: middle" x="9.805909" y="37.191063" transform="rotate(-0 9.805909 37.191063)">0</text>
     </g>
    </g>
    <g id="xtick_2">
     <g id="line2d_2">
      <g>
       <use xlink:href="#m10c68e1889" x="27.053182" y="25.632" style="stroke: #000000; stroke-width: 0.8"/>
      </g>
     </g>
     <g id="text_2">
      <text style="font-size: 6px; font-family: 'DejaVu Sans', 'Arial', 'Helvetica', 'Lucida Grande', 'Verdana', 'Geneva', 'Lucid', 'Avant Garde', sans-serif; text-anchor: middle" x="27.053182" y="37.191063" transform="rotate(-0 27.053182 37.191063)">4</text>
     </g>
    </g>
    <g id="xtick_3">
     <g id="line2d_3">
      <g>
       <use xlink:href="#m10c68e1889" x="44.300455" y="25.632" style="stroke: #000000; stroke-width: 0.8"/>
      </g>
     </g>
     <g id="text_3">
      <text style="font-size: 6px; font-family: 'DejaVu Sans', 'Arial', 'Helvetica', 'Lucida Grande', 'Verdana', 'Geneva', 'Lucid', 'Avant Garde', sans-serif; text-anchor: middle" x="44.300455" y="37.191063" transform="rotate(-0 44.300455 37.191063)">8</text>
     </g>
    </g>
    <g id="text_4">
     <text style="font-size: 6px; font-family: 'DejaVu Sans', 'Arial', 'Helvetica', 'Lucida Grande', 'Verdana', 'Geneva', 'Lucid', 'Avant Garde', sans-serif; text-anchor: middle" x="31.365" y="46.997938" transform="rotate(-0 31.365 46.997938)">τ (h)</text>
    </g>
   </g>
   <g id="matplotlib.axis_2">
    <g id="ytick_1">
     <g id="line2d_4">
      <defs>
       <path id="m11928cc08f" d="M 0 0 
L -3.5 0 
" style="stroke: #000000; stroke-width: 0.8"/>
      </defs>
      <g>
       <use xlink:href="#m11928cc08f" x="7.65" y="24.624" style="stroke: #000000; stroke-width: 0.8"/>
      </g>
     </g>
     <g id="text_5">
      <text style="font-size: 6px; font-family: 'DejaVu Sans', 'Arial', 'Helvetica', 'Lucida Grande', 'Verdana', 'Geneva', 'Lucid', 'Avant Garde', sans-serif; text-anchor: end" x="0.65" y="26.903531" transform="rotate(-0 0.65 26.903531)">0.0</text>
     </g>
    </g>
    <g id="ytick_2">
     <g id="line2d_5">
      <g>
       <use xlink:href="#m11928cc08f" x="7.65" y="14.544" style="stroke: #000000; stroke-width: 0.8"/>
      </g>
     </g>
     <g id="text_6">
      <text style="font-size: 6px; font-family: 'DejaVu Sans', 'Arial', 'Helvetica', 'Lucida Grande', 'Verdana', 'Geneva', 'Lucid', 'Avant Garde', sans-serif; text-anchor: end" x="0.65" y="16.823531" transform="rotate(-0 0.65 16.823531)">0.5</text>
     </g>
    </g>
    <g id="ytick_3">
     <g id="line2d_6">
      <g>
       <use xlink:href="#m11928cc08f" x="7.65" y="4.464" style="stroke: #000000; stroke-width: 0.8"/>
      </g>
     </g>
     <g id="text_7">
      <text style="font-size: 6px; font-family: 'DejaVu Sans', 'Arial', 'Helvetica', 'Lucida Grande', 'Verdana', 'Geneva', 'Lucid', 'Avant Garde', sans-serif; text-anchor: end" x="0.65" y="6.743531" transform="rotate(-0 0.65 6.743531)">1.0</text>
     </g>
    </g>
    <g id="text_8">
     <text style="font-size: 6px; font-family: 'DejaVu Sans', 'Arial', 'Helvetica', 'Lucida Grande', 'Verdana', 'Geneva', 'Lucid', 'Avant Garde', sans-serif; text-anchor: middle" x="-14.139687" y="14.544" transform="rotate(-90 -14.139687 14.544)">Survivor fraction</text>
    </g>
   </g>
   <g id="line2d_7">
    <path d="M 9.805909 24.624 
L 11.292743 24.251266 
L 12.779577 20.803216 
L 14.266411 16.106694 
L 15.753245 13.202747 
L 17.240078 12.719127 
L 18.726912 14.199775 
L 20.213746 16.71565 
L 21.70058 19.288044 
L 23.187414 21.323103 
L 24.674248 22.69591 
L 26.161082 23.536088 
L 27.647915 24.022071 
L 29.134749 24.294504 
L 30.621583 24.444663 
L 32.108417 24.526688 
L 33.595251 24.571281 
L 35.082085 24.595463 
L 36.568918 24.60856 
L 38.055752 24.615648 
L 39.542586 24.619483 
L 41.02942 24.621557 
L 42.516254 24.622679 
L 44.003088 24.623286 
L 45.489922 24.623614 
L 46.976755 24.623791 
L 48.463589 24.623887 
L 49.950423 24.623939 
L 51.437257 24.623967 
L 52.924091 24.623982 
" clip-path="url(#p382b2063f2)" style="fill: none; stroke: #c900c9; stroke-linecap: square"/>
   </g>
   <g id="line2d_8">
    <path d="M 9.805909 24.624 
L 11.292743 24.615014 
L 12.779577 24.38429 
L 14.266411 23.539458 
L 15.753245 21.888388 
L 17.240078 19.382048 
L 18.726912 16.2085 
L 20.213746 12.872158 
L 21.70058 9.964316 
L 23.187414 7.812831 
L 24.674248 6.404818 
L 26.161082 5.555063 
L 27.647915 5.066669 
L 29.134749 4.793663 
L 30.621583 4.643373 
L 32.108417 4.56132 
L 33.595251 4.516721 
L 35.082085 4.492537 
L 36.568918 4.47944 
L 38.055752 4.472352 
L 39.542586 4.468517 
L 41.02942 4.466443 
L 42.516254 4.465321 
L 44.003088 4.464714 
L 45.489922 4.464386 
L 46.976755 4.464209 
L 48.463589 4.464113 
L 49.950423 4.464061 
L 51.437257 4.464033 
L 52.924091 4.464018 
" clip-path="url(#p382b2063f2)" style="fill: none; stroke: #f7bb25; stroke-linecap: square"/>
   </g>
   <g id="line2d_9">
    <path d="M 9.805909 4.464 
L 11.292743 4.84572 
L 12.779577 8.524493 
L 14.266411 14.065848 
L 15.753245 18.620866 
L 17.240078 21.610824 
L 18.726912 23.303725 
L 20.213746 24.124192 
L 21.70058 24.45964 
L 23.187414 24.576066 
L 24.674248 24.611271 
L 26.161082 24.620849 
L 27.647915 24.62326 
L 29.134749 24.623833 
L 30.621583 24.623964 
L 32.108417 24.623992 
L 33.595251 24.623998 
L 35.082085 24.624 
L 36.568918 24.624 
L 38.055752 24.624 
L 39.542586 24.624 
L 41.02942 24.624 
L 42.516254 24.624 
L 44.003088 24.624 
L 45.489922 24.624 
L 46.976755 24.624 
L 48.463589 24.624 
L 49.950423 24.624 
L 51.437257 24.624 
L 52.924091 24.624 
" clip-path="url(#p382b2063f2)" style="fill: none; stroke: #00cbcb; stroke-linecap: square"/>
   </g>
   <g id="patch_3">
    <path d="M 7.65 25.632 
L 7.65 3.456 
" style="fill: none; stroke: #000000; stroke-width: 0.5; stroke-linejoin: miter; stroke-linecap: square"/>
   </g>
   <g id="patch_4">
    <path d="M 7.65 25.632 
L 55.08 25.632 
" style="fill: none; stroke: #000000; stroke-width: 0.5; stroke-linejoin: miter; stroke-linecap: square"/>
   </g>
  </g>
 </g>
 <defs>
  <clipPath id="p382b2063f2">
   <rect x="7.65" y="3.456" width="47.43" height="22.176"/>
  </clipPath>
 </defs>
</svg>
