<?xml version="1.0" encoding="utf-8" standalone="no"?>
<!DOCTYPE svg PUBLIC "-//W3C//DTD SVG 1.1//EN"
  "http://www.w3.org/Graphics/SVG/1.1/DTD/svg11.dtd">
<svg xmlns:xlink="http://www.w3.org/1999/xlink" width="93.6pt" height="108pt" viewBox="0 0 93.6 108" xmlns="http://www.w3.org/2000/svg" version="1.1">
 <metadata>
  <rdf:RDF xmlns:dc="http://purl.org/dc/elements/1.1/" xmlns:cc="http://creativecommons.org/ns#" xmlns:rdf="http://www.w3.org/1999/02/22-rdf-syntax-ns#">
   <cc:Work>
    <dc:type rdf:resource="http://purl.org/dc/dcmitype/StillImage"/>
    <dc:date>2026-02-16T13:11:41.463860</dc:date>
    <dc:format>image/svg+xml</dc:format>
    <dc:creator>
     <cc:Agent>
      <dc:title>Matplotlib v3.10.8, https://matplotlib.org/</dc:title>
     </cc:Agent>
    </dc:creator>
   </cc:Work>
  </rdf:RDF>
 </metadata>
 <defs>
  <style type="text/css">*{stroke-linejoin: round; stroke-linecap: butt}</style>
 </defs>
 <g id="figure_1">
  <g id="patch_1">
   <path d="M 0 108 
L 93.6 108 
L 93.6 0 
L 0 0 
L 0 108 
z
" style="fill: none"/>
  </g>
  <g id="axes_1">
   <g id="patch_2">
    <path d="M 11.7 96.12 
L 84.24 96.12 
L 84.24 12.96 
L 11.7 12.96 
L 11.7 96.12 
z
" style="fill: none"/>
   </g>
   <g id="FillBetweenPolyCollection_1">
    <path d="M 11.7 16644.96 
L 11.7 16644.96 
L 12.0627 16644.96 
L 12.4254 16644.96 
L 12.7881 16644.96 
L 13.1508 16644.96 
L 13.5135 16644.96 
L 13.8762 16644.96 
L 14.2389 16644.96 
L 14.6016 16644.96 
L 14.9643 16644.96 
L 15.327 16644.96 
L 15.6897 16644.96 
L 16.0524 16644.96 
L 16.4151 16644.96 
L 16.7778 16644.96 
L 17.1405 16644.96 
L 17.5032 16644.96 
L 17.8659 16644.96 
L 18.2286 16644.96 
L 18.5913 16644.96 
L 18.954 16644.96 
L 19.3167 16644.96 
L 19.6794 16644.96 
L 20.0421 16644.96 
L 20.4048 16644.96 
L 20.7675 16644.96 
L 21.1302 16644.96 
L 21.4929 16644.96 
L 21.8556 16644.96 
L 22.2183 16644.96 
L 22.581 16644.96 
L 22.9437 16644.96 
L 23.3064 16644.96 
L 23.6691 16644.96 
L 24.0318 16644.96 
L 24.3945 16644.96 
L 24.7572 16644.96 
L 25.1199 16644.96 
L 25.4826 16644.96 
L 25.8453 16644.96 
L 26.208 16644.96 
L 26.5707 16644.96 
L 26.9334 16644.96 
L 27.2961 16644.96 
L 27.6588 16644.96 
L 28.0215 16644.96 
L 28.3842 16644.96 
L 28.7469 16644.96 
L 29.1096 16644.96 
L 29.4723 16644.96 
L 29.835 16644.96 
L 30.1977 16644.96 
L 30.5604 16644.96 
L 30.9231 16644.96 
L 31.2858 16644.96 
L 31.6485 16644.96 
L 32.0112 16644.96 
L 32.3739 16644.96 
L 32.7366 16644.96 
L 33.0993 16644.96 
L 33.462 16644.96 
L 33.8247 16644.96 
L 34.1874 16644.96 
L 34.5501 16644.96 
L 34.9128 16644.96 
L 35.2755 16644.96 
L 35.6382 16644.96 
L 36.0009 16644.96 
L 36.3636 16644.96 
L 36.7263 16644.96 
L 37.089 16644.96 
L 37.4517 16644.96 
L 37.8144 16644.96 
L 38.1771 16644.96 
L 38.5398 16644.96 
L 38.9025 16644.96 
L 39.2652 16644.96 
L 39.6279 16644.96 
L 39.9906 16644.96 
L 40.3533 16644.96 
L 40.716 16644.96 
L 41.0787 16644.96 
L 41.4414 16644.96 
L 41.8041 16644.96 
L 42.1668 16644.96 
L 42.5295 16644.96 
L 42.8922 16644.96 
L 43.2549 16644.96 
L 43.6176 16644.96 
L 43.9803 16644.96 
L 44.343 16644.96 
L 44.7057 16644.96 
L 45.0684 16644.96 
L 45.4311 16644.96 
L 45.7938 16644.96 
L 46.1565 16644.96 
L 46.5192 16644.96 
L 46.8819 16644.96 
L 47.2446 16644.96 
L 47.6073 16644.96 
L 47.97 16644.96 
L 48.3327 16644.96 
L 48.6954 16644.96 
L 49.0581 16644.96 
L 49.4208 16644.96 
L 49.7835 16644.96 
L 50.1462 16644.96 
L 50.5089 16644.96 
L 50.8716 16644.96 
L 51.2343 16644.96 
L 51.597 16644.96 
L 51.9597 16644.96 
L 52.3224 16644.96 
L 52.6851 16644.96 
L 53.0478 16644.96 
L 53.4105 16644.96 
L 53.7732 16644.96 
L 54.1359 16644.96 
L 54.4986 16644.96 
L 54.8613 16644.96 
L 55.224 16644.96 
L 55.5867 16644.96 
L 55.9494 16644.96 
L 56.3121 16644.96 
L 56.6748 16644.96 
L 57.0375 16644.96 
L 57.4002 16644.96 
L 57.7629 16644.96 
L 58.1256 16644.96 
L 58.4883 16644.96 
L 58.851 16644.96 
L 59.2137 16644.96 
L 59.5764 16644.96 
L 59.9391 16644.96 
L 60.3018 16644.96 
L 60.6645 16644.96 
L 61.0272 16644.96 
L 61.3899 16644.96 
L 61.7526 16644.96 
L 62.1153 16644.96 
L 62.478 16644.96 
L 62.8407 16644.96 
L 63.2034 16644.96 
L 63.5661 16644.96 
L 63.9288 16644.96 
L 64.2915 16644.96 
L 64.6542 16644.96 
L 65.0169 16644.96 
L 65.3796 16644.96 
L 65.7423 16644.96 
L 66.105 16644.96 
L 66.4677 16644.96 
L 66.8304 16644.96 
L 67.1931 16644.96 
L 67.5558 16644.96 
L 67.9185 16644.96 
L 68.2812 16644.96 
L 68.6439 16644.96 
L 69.0066 16644.96 
L 69.3693 16644.96 
L 69.732 16644.96 
L 70.0947 16644.96 
L 70.4574 16644.96 
L 70.8201 16644.96 
L 71.1828 16644.96 
L 71.5455 16644.96 
L 71.9082 16644.96 
L 72.2709 16644.96 
L 72.6336 16644.96 
L 72.9963 16644.96 
L 73.359 16644.96 
L 73.7217 16644.96 
L 74.0844 16644.96 
L 74.4471 16644.96 
L 74.8098 16644.96 
L 75.1725 16644.96 
L 75.5352 16644.96 
L 75.8979 16644.96 
L 76.2606 16644.96 
L 76.6233 16644.96 
L 76.986 16644.96 
L 77.3487 16644.96 
L 77.7114 16644.96 
L 78.0741 16644.96 
L 78.4368 16644.96 
L 78.7995 16644.96 
L 79.1622 16644.96 
L 79.5249 16644.96 
L 79.8876 16644.96 
L 80.2503 16644.96 
L 80.613 16644.96 
L 80.9757 16644.96 
L 81.3384 16644.96 
L 81.7011 16644.96 
L 82.0638 16644.96 
L 82.4265 16644.96 
L 82.7892 16644.96 
L 83.1519 16644.96 
L 83.5146 16644.96 
L 83.8773 16644.96 
L 84.24 16644.96 
L 84.24 211.123211 
L 84.24 211.123211 
L 83.8773 209.870357 
L 83.5146 208.61757 
L 83.1519 207.364852 
L 82.7892 206.112206 
L 82.4265 204.859637 
L 82.0638 203.607148 
L 81.7011 202.354742 
L 81.3384 201.102423 
L 80.9757 199.850195 
L 80.613 198.598063 
L 80.2503 197.34603 
L 79.8876 196.094102 
L 79.5249 194.842282 
L 79.1622 193.590576 
L 78.7995 192.33899 
L 78.4368 191.087527 
L 78.0741 189.836195 
L 77.7114 188.584998 
L 77.3487 187.333942 
L 76.986 186.083035 
L 76.6233 184.832281 
L 76.2606 183.581689 
L 75.8979 182.331265 
L 75.5352 181.081017 
L 75.1725 179.830951 
L 74.8098 178.581077 
L 74.4471 177.331401 
L 74.0844 176.081933 
L 73.7217 174.832682 
L 73.359 173.583656 
L 72.9963 172.334865 
L 72.6336 171.08632 
L 72.2709 169.83803 
L 71.9082 168.590006 
L 71.5455 167.342259 
L 71.1828 166.094801 
L 70.8201 164.847643 
L 70.4574 163.600797 
L 70.0947 162.354278 
L 69.732 161.108097 
L 69.3693 159.862269 
L 69.0066 158.616807 
L 68.6439 157.371727 
L 68.2812 156.127044 
L 67.9185 154.882773 
L 67.5558 153.638931 
L 67.1931 152.395534 
L 66.8304 151.152601 
L 66.4677 149.91015 
L 66.105 148.668198 
L 65.7423 147.426766 
L 65.3796 146.185873 
L 65.0169 144.945541 
L 64.6542 143.705791 
L 64.2915 142.466644 
L 63.9288 141.228123 
L 63.5661 139.990253 
L 63.2034 138.753058 
L 62.8407 137.516562 
L 62.478 136.280793 
L 62.1153 135.045776 
L 61.7526 133.811539 
L 61.3899 132.578112 
L 61.0272 131.345523 
L 60.6645 130.113804 
L 60.3018 128.882985 
L 59.9391 127.653099 
L 59.5764 126.424179 
L 59.2137 125.196261 
L 58.851 123.969379 
L 58.4883 122.74357 
L 58.1256 121.518872 
L 57.7629 120.295325 
L 57.4002 119.072968 
L 57.0375 117.851843 
L 56.6748 116.631992 
L 56.3121 115.41346 
L 55.9494 114.196291 
L 55.5867 112.980533 
L 55.224 111.766234 
L 54.8613 110.553443 
L 54.4986 109.342211 
L 54.1359 108.132592 
L 53.7732 106.924638 
L 53.4105 105.718407 
L 53.0478 104.513955 
L 52.6851 103.311342 
L 52.3224 102.11063 
L 51.9597 100.91188 
L 51.597 99.715157 
L 51.2343 98.52053 
L 50.8716 97.328065 
L 50.5089 96.137834 
L 50.1462 94.94991 
L 49.7835 93.764369 
L 49.4208 92.581287 
L 49.0581 91.400745 
L 48.6954 90.222825 
L 48.3327 89.047611 
L 47.97 87.875192 
L 47.6073 86.705658 
L 47.2446 85.539101 
L 46.8819 84.375618 
L 46.5192 83.215307 
L 46.1565 82.058271 
L 45.7938 80.904615 
L 45.4311 79.754448 
L 45.0684 78.607882 
L 44.7057 77.465033 
L 44.343 76.326021 
L 43.9803 75.190971 
L 43.6176 74.060008 
L 43.2549 72.933267 
L 42.8922 71.810884 
L 42.5295 70.693 
L 42.1668 69.579761 
L 41.8041 68.471319 
L 41.4414 67.367832 
L 41.0787 66.26946 
L 40.716 65.176374 
L 40.3533 64.088747 
L 39.9906 63.00676 
L 39.6279 61.930602 
L 39.2652 60.860467 
L 38.9025 59.796558 
L 38.5398 58.739085 
L 38.1771 57.688267 
L 37.8144 56.644332 
L 37.4517 55.607515 
L 37.089 54.578065 
L 36.7263 53.556237 
L 36.3636 52.5423 
L 36.0009 51.536532 
L 35.6382 50.539225 
L 35.2755 49.550684 
L 34.9128 48.571227 
L 34.5501 47.601187 
L 34.1874 46.640913 
L 33.8247 45.690769 
L 33.462 44.751138 
L 33.0993 43.822422 
L 32.7366 42.905042 
L 32.3739 41.999441 
L 32.0112 41.106086 
L 31.6485 40.225467 
L 31.2858 39.358102 
L 30.9231 38.504536 
L 30.5604 37.665346 
L 30.1977 36.841141 
L 29.835 36.032566 
L 29.4723 35.240304 
L 29.1096 34.465081 
L 28.7469 33.707667 
L 28.3842 32.968881 
L 28.0215 32.249595 
L 27.6588 31.55074 
L 27.2961 30.873312 
L 26.9334 30.218372 
L 26.5707 29.587062 
L 26.208 28.980604 
L 25.8453 28.400315 
L 25.4826 27.847611 
L 25.1199 27.324024 
L 24.7572 26.831207 
L 24.3945 26.370956 
L 24.0318 25.945218 
L 23.6691 25.556118 
L 23.3064 25.205973 
L 22.9437 24.89732 
L 22.581 24.632948 
L 22.2183 24.415923 
L 21.8556 24.249639 
L 21.4929 24.137855 
L 21.1302 24.084757 
L 20.7675 24.09502 
L 20.4048 24.173894 
L 20.0421 24.327295 
L 19.6794 24.56193 
L 19.3167 24.88544 
L 18.954 25.306583 
L 18.5913 25.835464 
L 18.2286 26.483829 
L 17.8659 27.265436 
L 17.5032 28.196545 
L 17.1405 29.296567 
L 16.7778 30.588934 
L 16.4151 32.102289 
L 16.0524 33.872163 
L 15.6897 35.943373 
L 15.327 38.373574 
L 14.9643 41.238683 
L 14.6016 44.641517 
L 14.2389 48.726222 
L 13.8762 53.703907 
L 13.5135 59.901859 
L 13.1508 67.868373 
L 12.7881 78.63131 
L 12.4254 94.498247 
L 12.0627 122.832464 
L 11.7 16644.96 
z
" clip-path="url(#p4d7dead317)" style="fill: #ff8ef4; fill-opacity: 0.85"/>
   </g>
   <g id="FillBetweenPolyCollection_2">
    <path d="M 11.7 16644.96 
L 11.7 16644.96 
L 12.0627 122.832464 
L 12.4254 94.498247 
L 12.7881 78.63131 
L 13.1508 67.868373 
L 13.5135 59.901859 
L 13.8762 53.703907 
L 14.2389 48.726222 
L 14.6016 44.641517 
L 14.9643 41.238683 
L 15.327 38.373574 
L 15.6897 35.943373 
L 16.0524 33.872163 
L 16.4151 32.102289 
L 16.7778 30.588934 
L 17.1405 29.296567 
L 17.5032 28.196545 
L 17.8659 27.265436 
L 18.2286 26.483829 
L 18.5913 25.835464 
L 18.954 25.306583 
L 19.3167 24.88544 
L 19.6794 24.56193 
L 20.0421 24.327295 
L 20.4048 24.173894 
L 20.7675 24.09502 
L 21.1302 24.084757 
L 21.4929 24.137855 
L 21.8556 24.249639 
L 22.2183 24.415923 
L 22.581 24.632948 
L 22.9437 24.89732 
L 23.3064 25.205973 
L 23.6691 25.556118 
L 24.0318 25.945218 
L 24.3945 26.370956 
L 24.7572 26.831207 
L 25.1199 27.324024 
L 25.4826 27.847611 
L 25.8453 28.400315 
L 26.208 28.980604 
L 26.5707 29.587062 
L 26.9334 30.218372 
L 27.2961 30.873312 
L 27.6588 31.55074 
L 28.0215 32.249595 
L 28.3842 32.968881 
L 28.7469 33.707667 
L 29.1096 34.465081 
L 29.4723 35.240304 
L 29.835 36.032566 
L 30.1977 36.841141 
L 30.5604 37.665346 
L 30.9231 38.504536 
L 31.2858 39.358102 
L 31.6485 40.225467 
L 32.0112 41.106086 
L 32.3739 41.999441 
L 32.7366 42.905042 
L 33.0993 43.822422 
L 33.462 44.751138 
L 33.8247 45.690769 
L 34.1874 46.640913 
L 34.5501 47.601187 
L 34.9128 48.571227 
L 35.2755 49.550684 
L 35.6382 50.539225 
L 36.0009 51.536532 
L 36.3636 52.5423 
L 36.7263 53.556237 
L 37.089 54.578065 
L 37.4517 55.607515 
L 37.8144 56.644332 
L 38.1771 57.688267 
L 38.5398 58.739085 
L 38.9025 59.796558 
L 39.2652 60.860467 
L 39.6279 61.930602 
L 39.9906 63.00676 
L 40.3533 64.088747 
L 40.716 65.176374 
L 41.0787 66.26946 
L 41.4414 67.367832 
L 41.8041 68.471319 
L 42.1668 69.579761 
L 42.5295 70.693 
L 42.8922 71.810884 
L 43.2549 72.933267 
L 43.6176 74.060008 
L 43.9803 75.190971 
L 44.343 76.326021 
L 44.7057 77.465033 
L 45.0684 78.607882 
L 45.4311 79.754448 
L 45.7938 80.904615 
L 46.1565 82.058271 
L 46.5192 83.215307 
L 46.8819 84.375618 
L 47.2446 85.539101 
L 47.6073 86.705658 
L 47.97 87.875192 
L 48.3327 89.047611 
L 48.6954 90.222825 
L 49.0581 91.400745 
L 49.4208 92.581287 
L 49.7835 93.764369 
L 50.1462 94.94991 
L 50.5089 96.137834 
L 50.8716 97.328065 
L 51.2343 98.52053 
L 51.597 99.715157 
L 51.9597 100.91188 
L 52.3224 102.11063 
L 52.6851 103.311342 
L 53.0478 104.513955 
L 53.4105 105.718407 
L 53.7732 106.924638 
L 54.1359 108.132592 
L 54.4986 109.342211 
L 54.8613 110.553443 
L 55.224 111.766234 
L 55.5867 112.980533 
L 55.9494 114.196291 
L 56.3121 115.41346 
L 56.6748 116.631992 
L 57.0375 117.851843 
L 57.4002 119.072968 
L 57.7629 120.295325 
L 58.1256 121.518872 
L 58.4883 122.74357 
L 58.851 123.969379 
L 59.2137 125.196261 
L 59.5764 126.424179 
L 59.9391 127.653099 
L 60.3018 128.882985 
L 60.6645 130.113804 
L 61.0272 131.345523 
L 61.3899 132.578112 
L 61.7526 133.811539 
L 62.1153 135.045776 
L 62.478 136.280793 
L 62.8407 137.516562 
L 63.2034 138.753058 
L 63.5661 139.990253 
L 63.9288 141.228123 
L 64.2915 142.466644 
L 64.6542 143.705791 
L 65.0169 144.945541 
L 65.3796 146.185873 
L 65.7423 147.426766 
L 66.105 148.668198 
L 66.4677 149.91015 
L 66.8304 151.152601 
L 67.1931 152.395534 
L 67.5558 153.638931 
L 67.9185 154.882773 
L 68.2812 156.127044 
L 68.6439 157.371727 
L 69.0066 158.616807 
L 69.3693 159.862269 
L 69.732 161.108097 
L 70.0947 162.354278 
L 70.4574 163.600797 
L 70.8201 164.847643 
L 71.1828 166.094801 
L 71.5455 167.342259 
L 71.9082 168.590006 
L 72.2709 169.83803 
L 72.6336 171.08632 
L 72.9963 172.334865 
L 73.359 173.583656 
L 73.7217 174.832682 
L 74.0844 176.081933 
L 74.4471 177.331401 
L 74.8098 178.581077 
L 75.1725 179.830951 
L 75.5352 181.081017 
L 75.8979 182.331265 
L 76.2606 183.581689 
L 76.6233 184.832281 
L 76.986 186.083035 
L 77.3487 187.333942 
L 77.7114 188.584998 
L 78.0741 189.836195 
L 78.4368 191.087527 
L 78.7995 192.33899 
L 79.1622 193.590576 
L 79.5249 194.842282 
L 79.8876 196.094102 
L 80.2503 197.34603 
L 80.613 198.598063 
L 80.9757 199.850195 
L 81.3384 201.102423 
L 81.7011 202.354742 
L 82.0638 203.607148 
L 82.4265 204.859637 
L 82.7892 206.112206 
L 83.1519 207.364852 
L 83.5146 208.61757 
L 83.8773 209.870357 
L 84.24 211.123211 
L 84.24 90.237296 
L 84.24 90.237296 
L 83.8773 89.834538 
L 83.5146 89.43178 
L 83.1519 89.029022 
L 82.7892 88.626264 
L 82.4265 88.223506 
L 82.0638 87.820748 
L 81.7011 87.41799 
L 81.3384 87.015232 
L 80.9757 86.612474 
L 80.613 86.209716 
L 80.2503 85.806958 
L 79.8876 85.4042 
L 79.5249 85.001442 
L 79.1622 84.598684 
L 78.7995 84.195926 
L 78.4368 83.793168 
L 78.0741 83.39041 
L 77.7114 82.987652 
L 77.3487 82.584894 
L 76.986 82.182136 
L 76.6233 81.779378 
L 76.2606 81.376619 
L 75.8979 80.973861 
L 75.5352 80.571103 
L 75.1725 80.168344 
L 74.8098 79.765586 
L 74.4471 79.362827 
L 74.0844 78.960069 
L 73.7217 78.55731 
L 73.359 78.154551 
L 72.9963 77.751792 
L 72.6336 77.349033 
L 72.2709 76.946274 
L 71.9082 76.543514 
L 71.5455 76.140755 
L 71.1828 75.737995 
L 70.8201 75.335235 
L 70.4574 74.932475 
L 70.0947 74.529714 
L 69.732 74.126953 
L 69.3693 73.724192 
L 69.0066 73.32143 
L 68.6439 72.918668 
L 68.2812 72.515905 
L 67.9185 72.113141 
L 67.5558 71.710377 
L 67.1931 71.307613 
L 66.8304 70.904847 
L 66.4677 70.50208 
L 66.105 70.099313 
L 65.7423 69.696544 
L 65.3796 69.293773 
L 65.0169 68.891002 
L 64.6542 68.488228 
L 64.2915 68.085453 
L 63.9288 67.682676 
L 63.5661 67.279896 
L 63.2034 66.877113 
L 62.8407 66.474328 
L 62.478 66.071539 
L 62.1153 65.668746 
L 61.7526 65.26595 
L 61.3899 64.863148 
L 61.0272 64.460342 
L 60.6645 64.057529 
L 60.3018 63.65471 
L 59.9391 63.251884 
L 59.5764 62.84905 
L 59.2137 62.446206 
L 58.851 62.043353 
L 58.4883 61.640488 
L 58.1256 61.23761 
L 57.7629 60.834718 
L 57.4002 60.431811 
L 57.0375 60.028885 
L 56.6748 59.625941 
L 56.3121 59.222974 
L 55.9494 58.819983 
L 55.5867 58.416965 
L 55.224 58.013917 
L 54.8613 57.610835 
L 54.4986 57.207716 
L 54.1359 56.804556 
L 53.7732 56.40135 
L 53.4105 55.998092 
L 53.0478 55.594778 
L 52.6851 55.1914 
L 52.3224 54.787953 
L 51.9597 54.384429 
L 51.597 53.980819 
L 51.2343 53.577114 
L 50.8716 53.173304 
L 50.5089 52.769378 
L 50.1462 52.365324 
L 49.7835 51.961129 
L 49.4208 51.556778 
L 49.0581 51.152255 
L 48.6954 50.747543 
L 48.3327 50.342622 
L 47.97 49.937472 
L 47.6073 49.532071 
L 47.2446 49.126394 
L 46.8819 48.720415 
L 46.5192 48.314104 
L 46.1565 47.90743 
L 45.7938 47.500361 
L 45.4311 47.092859 
L 45.0684 46.684887 
L 44.7057 46.276401 
L 44.343 45.867359 
L 43.9803 45.457712 
L 43.6176 45.04741 
L 43.2549 44.6364 
L 42.8922 44.224624 
L 42.5295 43.812023 
L 42.1668 43.398535 
L 41.8041 42.984094 
L 41.4414 42.568634 
L 41.0787 42.152083 
L 40.716 41.73437 
L 40.3533 41.315422 
L 39.9906 40.895164 
L 39.6279 40.473523 
L 39.2652 40.050425 
L 38.9025 39.625799 
L 38.5398 39.199574 
L 38.1771 38.771685 
L 37.8144 38.342074 
L 37.4517 37.910686 
L 37.089 37.477477 
L 36.7263 37.042415 
L 36.3636 36.605478 
L 36.0009 36.166661 
L 35.6382 35.725975 
L 35.2755 35.283452 
L 34.9128 34.839149 
L 34.5501 34.393144 
L 34.1874 33.945548 
L 33.8247 33.496503 
L 33.462 33.046185 
L 33.0993 32.594808 
L 32.7366 32.142628 
L 32.3739 31.689946 
L 32.0112 31.23711 
L 31.6485 30.784519 
L 31.2858 30.332624 
L 30.9231 29.881934 
L 30.5604 29.433018 
L 30.1977 28.986504 
L 29.835 28.543087 
L 29.4723 28.103527 
L 29.1096 27.668656 
L 28.7469 27.239376 
L 28.3842 26.816664 
L 28.0215 26.401577 
L 27.6588 25.99525 
L 27.2961 25.598906 
L 26.9334 25.213853 
L 26.5707 24.841494 
L 26.208 24.483331 
L 25.8453 24.140971 
L 25.4826 23.816132 
L 25.1199 23.510654 
L 24.7572 23.226509 
L 24.3945 22.965811 
L 24.0318 22.730834 
L 23.6691 22.524024 
L 23.3064 22.348023 
L 22.9437 22.20569 
L 22.581 22.10013 
L 22.2183 22.034724 
L 21.8556 22.013172 
L 21.4929 22.039533 
L 21.1302 22.118286 
L 20.7675 22.254392 
L 20.4048 22.453376 
L 20.0421 22.721423 
L 19.6794 23.065497 
L 19.3167 23.493486 
L 18.954 24.014389 
L 18.5913 24.63854 
L 18.2286 25.377905 
L 17.8659 26.24645 
L 17.5032 27.260639 
L 17.1405 28.440074 
L 16.7778 29.808369 
L 16.4151 31.394341 
L 16.0524 33.233688 
L 15.6897 35.371384 
L 15.327 37.865234 
L 14.9643 40.791297 
L 14.6016 44.252523 
L 14.2389 48.393189 
L 13.8762 53.424523 
L 13.5135 59.673927 
L 13.1508 67.689806 
L 12.7881 78.500124 
L 12.4254 94.412554 
L 12.0627 122.790472 
L 11.7 16644.96 
z
" clip-path="url(#p4d7dead317)" style="fill: #ffff7c; fill-opacity: 0.85"/>
   </g>
   <g id="FillBetweenPolyCollection_3">
    <path d="M 11.7 12.96 
L 11.7 16644.96 
L 12.0627 122.790472 
L 12.4254 94.412554 
L 12.7881 78.500124 
L 13.1508 67.689806 
L 13.5135 59.673927 
L 13.8762 53.424523 
L 14.2389 48.393189 
L 14.6016 44.252523 
L 14.9643 40.791297 
L 15.327 37.865234 
L 15.6897 35.371384 
L 16.0524 33.233688 
L 16.4151 31.394341 
L 16.7778 29.808369 
L 17.1405 28.440074 
L 17.5032 27.260639 
L 17.8659 26.24645 
L 18.2286 25.377905 
L 18.5913 24.63854 
L 18.954 24.014389 
L 19.3167 23.493486 
L 19.6794 23.065497 
L 20.0421 22.721423 
L 20.4048 22.453376 
L 20.7675 22.254392 
L 21.1302 22.118286 
L 21.4929 22.039533 
L 21.8556 22.013172 
L 22.2183 22.034724 
L 22.581 22.10013 
L 22.9437 22.20569 
L 23.3064 22.348023 
L 23.6691 22.524024 
L 24.0318 22.730834 
L 24.3945 22.965811 
L 24.7572 23.226509 
L 25.1199 23.510654 
L 25.4826 23.816132 
L 25.8453 24.140971 
L 26.208 24.483331 
L 26.5707 24.841494 
L 26.9334 25.213853 
L 27.2961 25.598906 
L 27.6588 25.99525 
L 28.0215 26.401577 
L 28.3842 26.816664 
L 28.7469 27.239376 
L 29.1096 27.668656 
L 29.4723 28.103527 
L 29.835 28.543087 
L 30.1977 28.986504 
L 30.5604 29.433018 
L 30.9231 29.881934 
L 31.2858 30.332624 
L 31.6485 30.784519 
L 32.0112 31.23711 
L 32.3739 31.689946 
L 32.7366 32.142628 
L 33.0993 32.594808 
L 33.462 33.046185 
L 33.8247 33.496503 
L 34.1874 33.945548 
L 34.5501 34.393144 
L 34.9128 34.839149 
L 35.2755 35.283452 
L 35.6382 35.725975 
L 36.0009 36.166661 
L 36.3636 36.605478 
L 36.7263 37.042415 
L 37.089 37.477477 
L 37.4517 37.910686 
L 37.8144 38.342074 
L 38.1771 38.771685 
L 38.5398 39.199574 
L 38.9025 39.625799 
L 39.2652 40.050425 
L 39.6279 40.473523 
L 39.9906 40.895164 
L 40.3533 41.315422 
L 40.716 41.73437 
L 41.0787 42.152083 
L 41.4414 42.568634 
L 41.8041 42.984094 
L 42.1668 43.398535 
L 42.5295 43.812023 
L 42.8922 44.224624 
L 43.2549 44.6364 
L 43.6176 45.04741 
L 43.9803 45.457712 
L 44.343 45.867359 
L 44.7057 46.276401 
L 45.0684 46.684887 
L 45.4311 47.092859 
L 45.7938 47.500361 
L 46.1565 47.90743 
L 46.5192 48.314104 
L 46.8819 48.720415 
L 47.2446 49.126394 
L 47.6073 49.532071 
L 47.97 49.937472 
L 48.3327 50.342622 
L 48.6954 50.747543 
L 49.0581 51.152255 
L 49.4208 51.556778 
L 49.7835 51.961129 
L 50.1462 52.365324 
L 50.5089 52.769378 
L 50.8716 53.173304 
L 51.2343 53.577114 
L 51.597 53.980819 
L 51.9597 54.384429 
L 52.3224 54.787953 
L 52.6851 55.1914 
L 53.0478 55.594778 
L 53.4105 55.998092 
L 53.7732 56.40135 
L 54.1359 56.804556 
L 54.4986 57.207716 
L 54.8613 57.610835 
L 55.224 58.013917 
L 55.5867 58.416965 
L 55.9494 58.819983 
L 56.3121 59.222974 
L 56.6748 59.625941 
L 57.0375 60.028885 
L 57.4002 60.431811 
L 57.7629 60.834718 
L 58.1256 61.23761 
L 58.4883 61.640488 
L 58.851 62.043353 
L 59.2137 62.446206 
L 59.5764 62.84905 
L 59.9391 63.251884 
L 60.3018 63.65471 
L 60.6645 64.057529 
L 61.0272 64.460342 
L 61.3899 64.863148 
L 61.7526 65.26595 
L 62.1153 65.668746 
L 62.478 66.071539 
L 62.8407 66.474328 
L 63.2034 66.877113 
L 63.5661 67.279896 
L 63.9288 67.682676 
L 64.2915 68.085453 
L 64.6542 68.488228 
L 65.0169 68.891002 
L 65.3796 69.293773 
L 65.7423 69.696544 
L 66.105 70.099313 
L 66.4677 70.50208 
L 66.8304 70.904847 
L 67.1931 71.307613 
L 67.5558 71.710377 
L 67.9185 72.113141 
L 68.2812 72.515905 
L 68.6439 72.918668 
L 69.0066 73.32143 
L 69.3693 73.724192 
L 69.732 74.126953 
L 70.0947 74.529714 
L 70.4574 74.932475 
L 70.8201 75.335235 
L 71.1828 75.737995 
L 71.5455 76.140755 
L 71.9082 76.543514 
L 72.2709 76.946274 
L 72.6336 77.349033 
L 72.9963 77.751792 
L 73.359 78.154551 
L 73.7217 78.55731 
L 74.0844 78.960069 
L 74.4471 79.362827 
L 74.8098 79.765586 
L 75.1725 80.168344 
L 75.5352 80.571103 
L 75.8979 80.973861 
L 76.2606 81.376619 
L 76.6233 81.779378 
L 76.986 82.182136 
L 77.3487 82.584894 
L 77.7114 82.987652 
L 78.0741 83.39041 
L 78.4368 83.793168 
L 78.7995 84.195926 
L 79.1622 84.598684 
L 79.5249 85.001442 
L 79.8876 85.4042 
L 80.2503 85.806958 
L 80.613 86.209716 
L 80.9757 86.612474 
L 81.3384 87.015232 
L 81.7011 87.41799 
L 82.0638 87.820748 
L 82.4265 88.223506 
L 82.7892 88.626264 
L 83.1519 89.029022 
L 83.5146 89.43178 
L 83.8773 89.834538 
L 84.24 90.237296 
L 84.24 90.237296 
L 84.24 90.237296 
L 83.8773 89.834538 
L 83.5146 89.43178 
L 83.1519 89.029022 
L 82.7892 88.626264 
L 82.4265 88.223506 
L 82.0638 87.820748 
L 81.7011 87.41799 
L 81.3384 87.015232 
L 80.9757 86.612474 
L 80.613 86.209716 
L 80.2503 85.806958 
L 79.8876 85.4042 
L 79.5249 85.001442 
L 79.1622 84.598684 
L 78.7995 84.195926 
L 78.4368 83.793168 
L 78.0741 83.39041 
L 77.7114 82.987652 
L 77.3487 82.584894 
L 76.986 82.182136 
L 76.6233 81.779378 
L 76.2606 81.376619 
L 75.8979 80.973861 
L 75.5352 80.571103 
L 75.1725 80.168344 
L 74.8098 79.765586 
L 74.4471 79.362827 
L 74.0844 78.960069 
L 73.7217 78.55731 
L 73.359 78.154551 
L 72.9963 77.751792 
L 72.6336 77.349033 
L 72.2709 76.946274 
L 71.9082 76.543514 
L 71.5455 76.140755 
L 71.1828 75.737995 
L 70.8201 75.335235 
L 70.4574 74.932474 
L 70.0947 74.529714 
L 69.732 74.126953 
L 69.3693 73.724191 
L 69.0066 73.32143 
L 68.6439 72.918667 
L 68.2812 72.515904 
L 67.9185 72.113141 
L 67.5558 71.710377 
L 67.1931 71.307612 
L 66.8304 70.904846 
L 66.4677 70.502079 
L 66.105 70.099312 
L 65.7423 69.696542 
L 65.3796 69.293772 
L 65.0169 68.891 
L 64.6542 68.488226 
L 64.2915 68.085451 
L 63.9288 67.682673 
L 63.5661 67.279892 
L 63.2034 66.877109 
L 62.8407 66.474323 
L 62.478 66.071534 
L 62.1153 65.66874 
L 61.7526 65.265942 
L 61.3899 64.86314 
L 61.0272 64.460332 
L 60.6645 64.057518 
L 60.3018 63.654697 
L 59.9391 63.251868 
L 59.5764 62.849031 
L 59.2137 62.446185 
L 58.851 62.043328 
L 58.4883 61.640458 
L 58.1256 61.237576 
L 57.7629 60.834678 
L 57.4002 60.431764 
L 57.0375 60.028831 
L 56.6748 59.625878 
L 56.3121 59.222901 
L 55.9494 58.819898 
L 55.5867 58.416866 
L 55.224 58.013802 
L 54.8613 57.610701 
L 54.4986 57.207561 
L 54.1359 56.804375 
L 53.7732 56.401139 
L 53.4105 55.997848 
L 53.0478 55.594494 
L 52.6851 55.191072 
L 52.3224 54.787572 
L 51.9597 54.383987 
L 51.597 53.980306 
L 51.2343 53.57652 
L 50.8716 53.172617 
L 50.5089 52.768583 
L 50.1462 52.364404 
L 49.7835 51.960065 
L 49.4208 51.555547 
L 49.0581 51.150833 
L 48.6954 50.7459 
L 48.3327 50.340726 
L 47.97 49.935284 
L 47.6073 49.529547 
L 47.2446 49.123485 
L 46.8819 48.717062 
L 46.5192 48.310243 
L 46.1565 47.902987 
L 45.7938 47.49525 
L 45.4311 47.086983 
L 45.0684 46.678135 
L 44.7057 46.268649 
L 44.343 45.858463 
L 43.9803 45.44751 
L 43.6176 45.035719 
L 43.2549 44.62301 
L 42.8922 44.209299 
L 42.5295 43.794498 
L 42.1668 43.378508 
L 41.8041 42.961227 
L 41.4414 42.542543 
L 41.0787 42.12234 
L 40.716 41.700493 
L 40.3533 41.276871 
L 39.9906 40.851335 
L 39.6279 40.42374 
L 39.2652 39.993936 
L 38.9025 39.561764 
L 38.5398 39.127063 
L 38.1771 38.689666 
L 37.8144 38.249404 
L 37.4517 37.806104 
L 37.089 37.359594 
L 36.7263 36.909702 
L 36.3636 36.456259 
L 36.0009 35.999103 
L 35.6382 35.538077 
L 35.2755 35.073035 
L 34.9128 34.603844 
L 34.5501 34.130387 
L 34.1874 33.652567 
L 33.8247 33.170308 
L 33.462 32.683561 
L 33.0993 32.192306 
L 32.7366 31.696557 
L 32.3739 31.196362 
L 32.0112 30.691811 
L 31.6485 30.183036 
L 31.2858 29.670213 
L 30.9231 29.153568 
L 30.5604 28.633375 
L 30.1977 28.109959 
L 29.835 27.583702 
L 29.4723 27.055034 
L 29.1096 26.524443 
L 28.7469 25.992468 
L 28.3842 25.459704 
L 28.0215 24.926794 
L 27.6588 24.394434 
L 27.2961 23.863369 
L 26.9334 23.334388 
L 26.5707 22.808326 
L 26.208 22.286057 
L 25.8453 21.768495 
L 25.4826 21.256588 
L 25.1199 20.751317 
L 24.7572 20.253689 
L 24.3945 19.764738 
L 24.0318 19.285516 
L 23.6691 18.817093 
L 23.3064 18.360551 
L 22.9437 17.916977 
L 22.581 17.48746 
L 22.2183 17.073082 
L 21.8556 16.67491 
L 21.4929 16.293991 
L 21.1302 15.931334 
L 20.7675 15.587905 
L 20.4048 15.264607 
L 20.0421 14.962264 
L 19.6794 14.681602 
L 19.3167 14.423224 
L 18.954 14.187587 
L 18.5913 13.974967 
L 18.2286 13.785437 
L 17.8659 13.618829 
L 17.5032 13.474703 
L 17.1405 13.352323 
L 16.7778 13.250637 
L 16.4151 13.168265 
L 16.0524 13.103512 
L 15.6897 13.054394 
L 15.327 13.018704 
L 14.9643 12.994092 
L 14.6016 12.97818 
L 14.2389 12.968696 
L 13.8762 12.963605 
L 13.5135 12.961228 
L 13.1508 12.960315 
L 12.7881 12.960051 
L 12.4254 12.960004 
L 12.0627 12.96 
L 11.7 12.96 
z
" clip-path="url(#p4d7dead317)" style="fill: #7cffff; fill-opacity: 0.85"/>
   </g>
   <g id="FillBetweenPolyCollection_4">
    <path d="M 11.7 12.96 
L 11.7 12.96 
L 12.0627 12.96 
L 12.4254 12.960004 
L 12.7881 12.960051 
L 13.1508 12.960315 
L 13.5135 12.961228 
L 13.8762 12.963605 
L 14.2389 12.968696 
L 14.6016 12.97818 
L 14.9643 12.994092 
L 15.327 13.018704 
L 15.6897 13.054394 
L 16.0524 13.103512 
L 16.4151 13.168265 
L 16.7778 13.250637 
L 17.1405 13.352323 
L 17.5032 13.474703 
L 17.8659 13.618829 
L 18.2286 13.785437 
L 18.5913 13.974967 
L 18.954 14.187587 
L 19.3167 14.423224 
L 19.6794 14.681602 
L 20.0421 14.962264 
L 20.4048 15.264607 
L 20.7675 15.587905 
L 21.1302 15.931334 
L 21.4929 16.293991 
L 21.8556 16.67491 
L 22.2183 17.073082 
L 22.581 17.48746 
L 22.9437 17.916977 
L 23.3064 18.360551 
L 23.6691 18.817093 
L 24.0318 19.285516 
L 24.3945 19.764738 
L 24.7572 20.253689 
L 25.1199 20.751317 
L 25.4826 21.256588 
L 25.8453 21.768495 
L 26.208 22.286057 
L 26.5707 22.808326 
L 26.9334 23.334388 
L 27.2961 23.863369 
L 27.6588 24.394434 
L 28.0215 24.926794 
L 28.3842 25.459704 
L 28.7469 25.992468 
L 29.1096 26.524443 
L 29.4723 27.055034 
L 29.835 27.583702 
L 30.1977 28.109959 
L 30.5604 28.633375 
L 30.9231 29.153568 
L 31.2858 29.670213 
L 31.6485 30.183036 
L 32.0112 30.691811 
L 32.3739 31.196362 
L 32.7366 31.696557 
L 33.0993 32.192306 
L 33.462 32.683561 
L 33.8247 33.170308 
L 34.1874 33.652567 
L 34.5501 34.130387 
L 34.9128 34.603844 
L 35.2755 35.073035 
L 35.6382 35.538077 
L 36.0009 35.999103 
L 36.3636 36.456259 
L 36.7263 36.909702 
L 37.089 37.359594 
L 37.4517 37.806104 
L 37.8144 38.249404 
L 38.1771 38.689666 
L 38.5398 39.127063 
L 38.9025 39.561764 
L 39.2652 39.993936 
L 39.6279 40.42374 
L 39.9906 40.851335 
L 40.3533 41.276871 
L 40.716 41.700493 
L 41.0787 42.12234 
L 41.4414 42.542543 
L 41.8041 42.961227 
L 42.1668 43.378508 
L 42.5295 43.794498 
L 42.8922 44.209299 
L 43.2549 44.62301 
L 43.6176 45.035719 
L 43.9803 45.44751 
L 44.343 45.858463 
L 44.7057 46.268649 
L 45.0684 46.678135 
L 45.4311 47.086983 
L 45.7938 47.49525 
L 46.1565 47.902987 
L 46.5192 48.310243 
L 46.8819 48.717062 
L 47.2446 49.123485 
L 47.6073 49.529547 
L 47.97 49.935284 
L 48.3327 50.340726 
L 48.6954 50.7459 
L 49.0581 51.150833 
L 49.4208 51.555547 
L 49.7835 51.960065 
L 50.1462 52.364404 
L 50.5089 52.768583 
L 50.8716 53.172617 
L 51.2343 53.57652 
L 51.597 53.980306 
L 51.9597 54.383987 
L 52.3224 54.787572 
L 52.6851 55.191072 
L 53.0478 55.594494 
L 53.4105 55.997848 
L 53.7732 56.401139 
L 54.1359 56.804375 
L 54.4986 57.207561 
L 54.8613 57.610701 
L 55.224 58.013802 
L 55.5867 58.416866 
L 55.9494 58.819898 
L 56.3121 59.222901 
L 56.6748 59.625878 
L 57.0375 60.028831 
L 57.4002 60.431764 
L 57.7629 60.834678 
L 58.1256 61.237576 
L 58.4883 61.640458 
L 58.851 62.043328 
L 59.2137 62.446185 
L 59.5764 62.849031 
L 59.9391 63.251868 
L 60.3018 63.654697 
L 60.6645 64.057518 
L 61.0272 64.460332 
L 61.3899 64.86314 
L 61.7526 65.265942 
L 62.1153 65.66874 
L 62.478 66.071534 
L 62.8407 66.474323 
L 63.2034 66.877109 
L 63.5661 67.279892 
L 63.9288 67.682673 
L 64.2915 68.085451 
L 64.6542 68.488226 
L 65.0169 68.891 
L 65.3796 69.293772 
L 65.7423 69.696542 
L 66.105 70.099312 
L 66.4677 70.502079 
L 66.8304 70.904846 
L 67.1931 71.307612 
L 67.5558 71.710377 
L 67.9185 72.113141 
L 68.2812 72.515904 
L 68.6439 72.918667 
L 69.0066 73.32143 
L 69.3693 73.724191 
L 69.732 74.126953 
L 70.0947 74.529714 
L 70.4574 74.932474 
L 70.8201 75.335235 
L 71.1828 75.737995 
L 71.5455 76.140755 
L 71.9082 76.543514 
L 72.2709 76.946274 
L 72.6336 77.349033 
L 72.9963 77.751792 
L 73.359 78.154551 
L 73.7217 78.55731 
L 74.0844 78.960069 
L 74.4471 79.362827 
L 74.8098 79.765586 
L 75.1725 80.168344 
L 75.5352 80.571103 
L 75.8979 80.973861 
L 76.2606 81.376619 
L 76.6233 81.779378 
L 76.986 82.182136 
L 77.3487 82.584894 
L 77.7114 82.987652 
L 78.0741 83.39041 
L 78.4368 83.793168 
L 78.7995 84.195926 
L 79.1622 84.598684 
L 79.5249 85.001442 
L 79.8876 85.4042 
L 80.2503 85.806958 
L 80.613 86.209716 
L 80.9757 86.612474 
L 81.3384 87.015232 
L 81.7011 87.41799 
L 82.0638 87.820748 
L 82.4265 88.223506 
L 82.7892 88.626264 
L 83.1519 89.029022 
L 83.5146 89.43178 
L 83.8773 89.834538 
L 84.24 90.237296 
L 84.24 12.96 
L 84.24 12.96 
L 83.8773 12.96 
L 83.5146 12.96 
L 83.1519 12.96 
L 82.7892 12.96 
L 82.4265 12.96 
L 82.0638 12.96 
L 81.7011 12.96 
L 81.3384 12.96 
L 80.9757 12.96 
L 80.613 12.96 
L 80.2503 12.96 
L 79.8876 12.96 
L 79.5249 12.96 
L 79.1622 12.96 
L 78.7995 12.96 
L 78.4368 12.96 
L 78.0741 12.96 
L 77.7114 12.96 
L 77.3487 12.96 
L 76.986 12.96 
L 76.6233 12.96 
L 76.2606 12.96 
L 75.8979 12.96 
L 75.5352 12.96 
L 75.1725 12.96 
L 74.8098 12.96 
L 74.4471 12.96 
L 74.0844 12.96 
L 73.7217 12.96 
L 73.359 12.96 
L 72.9963 12.96 
L 72.6336 12.96 
L 72.2709 12.96 
L 71.9082 12.96 
L 71.5455 12.96 
L 71.1828 12.96 
L 70.8201 12.96 
L 70.4574 12.96 
L 70.0947 12.96 
L 69.732 12.96 
L 69.3693 12.96 
L 69.0066 12.96 
L 68.6439 12.96 
L 68.2812 12.96 
L 67.9185 12.96 
L 67.5558 12.96 
L 67.1931 12.96 
L 66.8304 12.96 
L 66.4677 12.96 
L 66.105 12.96 
L 65.7423 12.96 
L 65.3796 12.96 
L 65.0169 12.96 
L 64.6542 12.96 
L 64.2915 12.96 
L 63.9288 12.96 
L 63.5661 12.96 
L 63.2034 12.96 
L 62.8407 12.96 
L 62.478 12.96 
L 62.1153 12.96 
L 61.7526 12.96 
L 61.3899 12.96 
L 61.0272 12.96 
L 60.6645 12.96 
L 60.3018 12.96 
L 59.9391 12.96 
L 59.5764 12.96 
L 59.2137 12.96 
L 58.851 12.96 
L 58.4883 12.96 
L 58.1256 12.96 
L 57.7629 12.96 
L 57.4002 12.96 
L 57.0375 12.96 
L 56.6748 12.96 
L 56.3121 12.96 
L 55.9494 12.96 
L 55.5867 12.96 
L 55.224 12.96 
L 54.8613 12.96 
L 54.4986 12.96 
L 54.1359 12.96 
L 53.7732 12.96 
L 53.4105 12.96 
L 53.0478 12.96 
L 52.6851 12.96 
L 52.3224 12.96 
L 51.9597 12.96 
L 51.597 12.96 
L 51.2343 12.96 
L 50.8716 12.96 
L 50.5089 12.96 
L 50.1462 12.96 
L 49.7835 12.96 
L 49.4208 12.96 
L 49.0581 12.96 
L 48.6954 12.96 
L 48.3327 12.96 
L 47.97 12.96 
L 47.6073 12.96 
L 47.2446 12.96 
L 46.8819 12.96 
L 46.5192 12.96 
L 46.1565 12.96 
L 45.7938 12.96 
L 45.4311 12.96 
L 45.0684 12.96 
L 44.7057 12.96 
L 44.343 12.96 
L 43.9803 12.96 
L 43.6176 12.96 
L 43.2549 12.96 
L 42.8922 12.96 
L 42.5295 12.96 
L 42.1668 12.96 
L 41.8041 12.96 
L 41.4414 12.96 
L 41.0787 12.96 
L 40.716 12.96 
L 40.3533 12.96 
L 39.9906 12.96 
L 39.6279 12.96 
L 39.2652 12.96 
L 38.9025 12.96 
L 38.5398 12.96 
L 38.1771 12.96 
L 37.8144 12.96 
L 37.4517 12.96 
L 37.089 12.96 
L 36.7263 12.96 
L 36.3636 12.96 
L 36.0009 12.96 
L 35.6382 12.96 
L 35.2755 12.96 
L 34.9128 12.96 
L 34.5501 12.96 
L 34.1874 12.96 
L 33.8247 12.96 
L 33.462 12.96 
L 33.0993 12.96 
L 32.7366 12.96 
L 32.3739 12.96 
L 32.0112 12.96 
L 31.6485 12.96 
L 31.2858 12.96 
L 30.9231 12.96 
L 30.5604 12.96 
L 30.1977 12.96 
L 29.835 12.96 
L 29.4723 12.96 
L 29.1096 12.96 
L 28.7469 12.96 
L 28.3842 12.96 
L 28.0215 12.96 
L 27.6588 12.96 
L 27.2961 12.96 
L 26.9334 12.96 
L 26.5707 12.96 
L 26.208 12.96 
L 25.8453 12.96 
L 25.4826 12.96 
L 25.1199 12.96 
L 24.7572 12.96 
L 24.3945 12.96 
L 24.0318 12.96 
L 23.6691 12.96 
L 23.3064 12.96 
L 22.9437 12.96 
L 22.581 12.96 
L 22.2183 12.96 
L 21.8556 12.96 
L 21.4929 12.96 
L 21.1302 12.96 
L 20.7675 12.96 
L 20.4048 12.96 
L 20.0421 12.96 
L 19.6794 12.96 
L 19.3167 12.96 
L 18.954 12.96 
L 18.5913 12.96 
L 18.2286 12.96 
L 17.8659 12.96 
L 17.5032 12.96 
L 17.1405 12.96 
L 16.7778 12.96 
L 16.4151 12.96 
L 16.0524 12.96 
L 15.6897 12.96 
L 15.327 12.96 
L 14.9643 12.96 
L 14.6016 12.96 
L 14.2389 12.96 
L 13.8762 12.96 
L 13.5135 12.96 
L 13.1508 12.96 
L 12.7881 12.96 
L 12.4254 12.96 
L 12.0627 12.96 
L 11.7 12.96 
z
" clip-path="url(#p4d7dead317)" style="fill: #ffa09f; fill-opacity: 0.85"/>
   </g>
   <g id="matplotlib.axis_1">
    <g id="xtick_1">
     <g id="line2d_1">
      <defs>
       <path id="m5f09f14755" d="M 0 0 
L 0 3.5 
" style="stroke: #000000; stroke-width: 0.8"/>
      </defs>
      <g>
       <use xlink:href="#m5f09f14755" x="11.7" y="96.12" style="stroke: #000000; stroke-width: 0.8"/>
      </g>
     </g>
     <g id="text_1">
      <text style="font-size: 6px; font-family: 'DejaVu Sans', 'Arial', 'Helvetica', 'Lucida Grande', 'Verdana', 'Geneva', 'Lucid', 'Avant Garde', sans-serif; text-anchor: middle" x="11.7" y="107.679063" transform="rotate(-0 11.7 107.679063)">0</text>
     </g>
    </g>
    <g id="xtick_2">
     <g id="line2d_2">
      <g>
       <use xlink:href="#m5f09f14755" x="29.835" y="96.12" style="stroke: #000000; stroke-width: 0.8"/>
      </g>
     </g>
     <g id="text_2">
      <text style="font-size: 6px; font-family: 'DejaVu Sans', 'Arial', 'Helvetica', 'Lucida Grande', 'Verdana', 'Geneva', 'Lucid', 'Avant Garde', sans-serif; text-anchor: middle" x="29.835" y="107.679063" transform="rotate(-0 29.835 107.679063)">2</text>
     </g>
    </g>
    <g id="xtick_3">
     <g id="line2d_3">
      <g>
       <use xlink:href="#m5f09f14755" x="47.97" y="96.12" style="stroke: #000000; stroke-width: 0.8"/>
      </g>
     </g>
     <g id="text_3">
      <text style="font-size: 6px; font-family: 'DejaVu Sans', 'Arial', 'Helvetica', 'Lucida Grande', 'Verdana', 'Geneva', 'Lucid', 'Avant Garde', sans-serif; text-anchor: middle" x="47.97" y="107.679063" transform="rotate(-0 47.97 107.679063)">4</text>
     </g>
    </g>
    <g id="xtick_4">
     <g id="line2d_4">
      <g>
       <use xlink:href="#m5f09f14755" x="66.105" y="96.12" style="stroke: #000000; stroke-width: 0.8"/>
      </g>
     </g>
     <g id="text_4">
      <text style="font-size: 6px; font-family: 'DejaVu Sans', 'Arial', 'Helvetica', 'Lucida Grande', 'Verdana', 'Geneva', 'Lucid', 'Avant Garde', sans-serif; text-anchor: middle" x="66.105" y="107.679063" transform="rotate(-0 66.105 107.679063)">6</text>
     </g>
    </g>
    <g id="xtick_5">
     <g id="line2d_5">
      <g>
       <use xlink:href="#m5f09f14755" x="84.24" y="96.12" style="stroke: #000000; stroke-width: 0.8"/>
      </g>
     </g>
     <g id="text_5">
      <text style="font-size: 6px; font-family: 'DejaVu Sans', 'Arial', 'Helvetica', 'Lucida Grande', 'Verdana', 'Geneva', 'Lucid', 'Avant Garde', sans-serif; text-anchor: middle" x="84.24" y="107.679063" transform="rotate(-0 84.24 107.679063)">8</text>
     </g>
    </g>
    <g id="text_6">
     <text style="font-size: 6px; font-family: 'DejaVu Sans', 'Arial', 'Helvetica', 'Lucida Grande', 'Verdana', 'Geneva', 'Lucid', 'Avant Garde', sans-serif; text-anchor: middle" x="47.97" y="117.485938" transform="rotate(-0 47.97 117.485938)">Exposure duration τ (h)</text>
    </g>
   </g>
   <g id="matplotlib.axis_2">
    <g id="ytick_1">
     <g id="line2d_6">
      <defs>
       <path id="ma34f49ce24" d="M 0 0 
L -3.5 0 
" style="stroke: #000000; stroke-width: 0.8"/>
      </defs>
      <g>
       <use xlink:href="#ma34f49ce24" x="11.7" y="96.12" style="stroke: #000000; stroke-width: 0.8"/>
      </g>
     </g>
     <g id="text_7">
      <!-- $\mathdefault{10^{-5}}$ -->
      <g transform="translate(-9.4 98.399531)">
       <text>
        <tspan x="0" y="-0.640625" style="font-size: 6px; font-family: 'DejaVu Sans'">1</tspan>
        <tspan x="3.817383" y="-0.640625" style="font-size: 6px; font-family: 'DejaVu Sans'">0</tspan>
        <tspan x="7.692188" y="-2.9375" style="font-size: 4.2px; font-family: 'DejaVu Sans'">−</tspan>
        <tspan x="11.211328" y="-2.9375" style="font-size: 4.2px; font-family: 'DejaVu Sans'">5</tspan>
       </text>
      </g>
     </g>
    </g>
    <g id="ytick_2">
     <g id="line2d_7">
      <g>
       <use xlink:href="#ma34f49ce24" x="11.7" y="79.488" style="stroke: #000000; stroke-width: 0.8"/>
      </g>
     </g>
     <g id="text_8">
      <!-- $\mathdefault{10^{-4}}$ -->
      <g transform="translate(-9.4 81.767531)">
       <text>
        <tspan x="0" y="-0.640625" style="font-size: 6px; font-family: 'DejaVu Sans'">1</tspan>
        <tspan x="3.817383" y="-0.640625" style="font-size: 6px; font-family: 'DejaVu Sans'">0</tspan>
        <tspan x="7.692188" y="-2.9375" style="font-size: 4.2px; font-family: 'DejaVu Sans'">−</tspan>
        <tspan x="11.211328" y="-2.9375" style="font-size: 4.2px; font-family: 'DejaVu Sans'">4</tspan>
       </text>
      </g>
     </g>
    </g>
    <g id="ytick_3">
     <g id="line2d_8">
      <g>
       <use xlink:href="#ma34f49ce24" x="11.7" y="62.856" style="stroke: #000000; stroke-width: 0.8"/>
      </g>
     </g>
     <g id="text_9">
      <!-- $\mathdefault{10^{-3}}$ -->
      <g transform="translate(-9.4 65.135531)">
       <text>
        <tspan x="0" y="-0.585938" style="font-size: 6px; font-family: 'DejaVu Sans'">1</tspan>
        <tspan x="3.817383" y="-0.585938" style="font-size: 6px; font-family: 'DejaVu Sans'">0</tspan>
        <tspan x="7.692188" y="-2.882812" style="font-size: 4.2px; font-family: 'DejaVu Sans'">−</tspan>
        <tspan x="11.211328" y="-2.882812" style="font-size: 4.2px; font-family: 'DejaVu Sans'">3</tspan>
       </text>
      </g>
     </g>
    </g>
    <g id="ytick_4">
     <g id="line2d_9">
      <g>
       <use xlink:href="#ma34f49ce24" x="11.7" y="46.224" style="stroke: #000000; stroke-width: 0.8"/>
      </g>
     </g>
     <g id="text_10">
      <!-- $\mathdefault{10^{-2}}$ -->
      <g transform="translate(-9.4 48.503531)">
       <text>
        <tspan x="0" y="-0.585938" style="font-size: 6px; font-family: 'DejaVu Sans'">1</tspan>
        <tspan x="3.817383" y="-0.585938" style="font-size: 6px; font-family: 'DejaVu Sans'">0</tspan>
        <tspan x="7.692188" y="-2.882812" style="font-size: 4.2px; font-family: 'DejaVu Sans'">−</tspan>
        <tspan x="11.211328" y="-2.882812" style="font-size: 4.2px; font-family: 'DejaVu Sans'">2</tspan>
       </text>
      </g>
     </g>
    </g>
    <g id="ytick_5">
     <g id="line2d_10">
      <g>
       <use xlink:href="#ma34f49ce24" x="11.7" y="29.592" style="stroke: #000000; stroke-width: 0.8"/>
      </g>
     </g>
     <g id="text_11">
      <!-- $\mathdefault{10^{-1}}$ -->
      <g transform="translate(-9.4 31.871531)">
       <text>
        <tspan x="0" y="-0.640625" style="font-size: 6px; font-family: 'DejaVu Sans'">1</tspan>
        <tspan x="3.817383" y="-0.640625" style="font-size: 6px; font-family: 'DejaVu Sans'">0</tspan>
        <tspan x="7.692188" y="-2.9375" style="font-size: 4.2px; font-family: 'DejaVu Sans'">−</tspan>
        <tspan x="11.211328" y="-2.9375" style="font-size: 4.2px; font-family: 'DejaVu Sans'">1</tspan>
       </text>
      </g>
     </g>
    </g>
    <g id="ytick_6">
     <g id="line2d_11">
      <g>
       <use xlink:href="#ma34f49ce24" x="11.7" y="12.96" style="stroke: #000000; stroke-width: 0.8"/>
      </g>
     </g>
     <g id="text_12">
      <!-- $\mathdefault{10^{0}}$ -->
      <g transform="translate(-5.86 15.239531)">
       <text>
        <tspan x="0" y="-0.585938" style="font-size: 6px; font-family: 'DejaVu Sans'">1</tspan>
        <tspan x="3.817383" y="-0.585938" style="font-size: 6px; font-family: 'DejaVu Sans'">0</tspan>
        <tspan x="7.692188" y="-2.882812" style="font-size: 4.2px; font-family: 'DejaVu Sans'">0</tspan>
       </text>
      </g>
     </g>
    </g>
    <g id="ytick_7"/>
    <g id="ytick_8"/>
    <g id="ytick_9"/>
    <g id="ytick_10"/>
    <g id="ytick_11"/>
    <g id="ytick_12"/>
    <g id="ytick_13"/>
    <g id="ytick_14"/>
    <g id="ytick_15"/>
    <g id="ytick_16"/>
    <g id="ytick_17"/>
    <g id="ytick_18"/>
    <g id="ytick_19"/>
    <g id="ytick_20"/>
    <g id="ytick_21"/>
    <g id="ytick_22"/>
    <g id="ytick_23"/>
    <g id="ytick_24"/>
    <g id="ytick_25"/>
    <g id="ytick_26"/>
    <g id="ytick_27"/>
    <g id="ytick_28"/>
    <g id="ytick_29"/>
    <g id="ytick_30"/>
    <g id="ytick_31"/>
    <g id="ytick_32"/>
    <g id="ytick_33"/>
    <g id="ytick_34"/>
    <g id="ytick_35"/>
    <g id="ytick_36"/>
    <g id="ytick_37"/>
    <g id="ytick_38"/>
    <g id="ytick_39"/>
    <g id="ytick_40"/>
    <g id="ytick_41"/>
    <g id="ytick_42"/>
    <g id="ytick_43"/>
    <g id="ytick_44"/>
    <g id="ytick_45"/>
    <g id="ytick_46"/>
    <g id="text_13">
     <text style="font-size: 6px; font-family: 'DejaVu Sans', 'Arial', 'Helvetica', 'Lucida Grande', 'Verdana', 'Geneva', 'Lucid', 'Avant Garde', sans-serif; text-anchor: middle" x="-14.647812" y="54.54" transform="rotate(-90 -14.647812 54.54)">Frac of population at Ab removal</text>
    </g>
   </g>
   <g id="patch_3">
    <path d="M 11.7 96.12 
L 11.7 12.96 
" style="fill: none; stroke: #000000; stroke-width: 0.5; stroke-linejoin: miter; stroke-linecap: square"/>
   </g>
   <g id="patch_4">
    <path d="M 11.7 96.12 
L 84.24 96.12 
" style="fill: none; stroke: #000000; stroke-width: 0.5; stroke-linejoin: miter; stroke-linecap: square"/>
   </g>
  </g>
 </g>
 <defs>
  <clipPath id="p4d7dead317">
   <rect x="11.7" y="12.96" width="72.54" height="83.16"/>
  </clipPath>
 </defs>
</svg>
