<?xml version="1.0" encoding="utf-8" standalone="no"?>
<!DOCTYPE svg PUBLIC "-//W3C//DTD SVG 1.1//EN"
  "http://www.w3.org/Graphics/SVG/1.1/DTD/svg11.dtd">
<svg xmlns:xlink="http://www.w3.org/1999/xlink" width="61.2pt" height="28.8pt" viewBox="0 0 61.2 28.8" xmlns="http://www.w3.org/2000/svg" version="1.1">
 <metadata>
  <rdf:RDF xmlns:dc="http://purl.org/dc/elements/1.1/" xmlns:cc="http://creativecommons.org/ns#" xmlns:rdf="http://www.w3.org/1999/02/22-rdf-syntax-ns#">
   <cc:Work>
    <dc:type rdf:resource="http://purl.org/dc/dcmitype/StillImage"/>
    <dc:date>2026-02-16T13:12:05.451302</dc:date>
    <dc:format>image/svg+xml</dc:format>
    <dc:creator>
     <cc:Agent>
      <dc:title>Matplotlib v3.10.8, https://matplotlib.org/</dc:title>
     </cc:Agent>
    </dc:creator>
   </cc:Work>
  </rdf:RDF>
 </metadata>
 <defs>
  <style type="text/css">*{stroke-linejoin: round; stroke-linecap: butt}</style>
 </defs>
 <g id="figure_1">
  <g id="patch_1">
   <path d="M 0 28.8 
L 61.2 28.8 
L 61.2 0 
L 0 0 
L 0 28.8 
z
" style="fill: none"/>
  </g>
  <g id="axes_1">
   <g id="patch_2">
    <path d="M 7.65 25.632 
L 55.08 25.632 
L 55.08 3.456 
L 7.65 3.456 
L 7.65 25.632 
z
" style="fill: none"/>
   </g>
   <g id="matplotlib.axis_1">
    <g id="xtick_1">
     <g id="line2d_1">
      <defs>
       <path id="m54ef747164" d="M 0 0 
L 0 3.5 
" style="stroke: #000000; stroke-width: 0.8"/>
      </defs>
      <g>
       <use xlink:href="#m54ef747164" x="9.805909" y="25.632" style="stroke: #000000; stroke-width: 0.8"/>
      </g>
     </g>
     <g id="text_1">
      <text style="font-size: 6px; font-family: 'DejaVu Sans', 'Arial', 'Helvetica', 'Lucida Grande', 'Verdana', 'Geneva', 'Lucid', 'Avant Garde', sans-serif; text-anchor: middle" x="9.805909" y="37.191063" transform="rotate(-0 9.805909 37.191063)">0</text>
     </g>
    </g>
    <g id="xtick_2">
     <g id="line2d_2">
      <g>
       <use xlink:href="#m54ef747164" x="27.053182" y="25.632" style="stroke: #000000; stroke-width: 0.8"/>
      </g>
     </g>
     <g id="text_2">
      <text style="font-size: 6px; font-family: 'DejaVu Sans', 'Arial', 'Helvetica', 'Lucida Grande', 'Verdana', 'Geneva', 'Lucid', 'Avant Garde', sans-serif; text-anchor: middle" x="27.053182" y="37.191063" transform="rotate(-0 27.053182 37.191063)">4</text>
     </g>
    </g>
    <g id="xtick_3">
     <g id="line2d_3">
      <g>
       <use xlink:href="#m54ef747164" x="44.300455" y="25.632" style="stroke: #000000; stroke-width: 0.8"/>
      </g>
     </g>
     <g id="text_3">
      <text style="font-size: 6px; font-family: 'DejaVu Sans', 'Arial', 'Helvetica', 'Lucida Grande', 'Verdana', 'Geneva', 'Lucid', 'Avant Garde', sans-serif; text-anchor: middle" x="44.300455" y="37.191063" transform="rotate(-0 44.300455 37.191063)">8</text>
     </g>
    </g>
    <g id="text_4">
     <text style="font-size: 6px; font-family: 'DejaVu Sans', 'Arial', 'Helvetica', 'Lucida Grande', 'Verdana', 'Geneva', 'Lucid', 'Avant Garde', sans-serif; text-anchor: middle" x="31.365" y="46.997938" transform="rotate(-0 31.365 46.997938)">τ (h)</text>
    </g>
   </g>
   <g id="matplotlib.axis_2">
    <g id="ytick_1">
     <g id="line2d_4">
      <defs>
       <path id="m2210a19904" d="M 0 0 
L -3.5 0 
" style="stroke: #000000; stroke-width: 0.8"/>
      </defs>
      <g>
       <use xlink:href="#m2210a19904" x="7.65" y="24.624" style="stroke: #000000; stroke-width: 0.8"/>
      </g>
     </g>
     <g id="text_5">
      <text style="font-size: 6px; font-family: 'DejaVu Sans', 'Arial', 'Helvetica', 'Lucida Grande', 'Verdana', 'Geneva', 'Lucid', 'Avant Garde', sans-serif; text-anchor: end" x="0.65" y="26.903531" transform="rotate(-0 0.65 26.903531)">0.0</text>
     </g>
    </g>
    <g id="ytick_2">
     <g id="line2d_5">
      <g>
       <use xlink:href="#m2210a19904" x="7.65" y="14.544" style="stroke: #000000; stroke-width: 0.8"/>
      </g>
     </g>
     <g id="text_6">
      <text style="font-size: 6px; font-family: 'DejaVu Sans', 'Arial', 'Helvetica', 'Lucida Grande', 'Verdana', 'Geneva', 'Lucid', 'Avant Garde', sans-serif; text-anchor: end" x="0.65" y="16.823531" transform="rotate(-0 0.65 16.823531)">0.5</text>
     </g>
    </g>
    <g id="ytick_3">
     <g id="line2d_6">
      <g>
       <use xlink:href="#m2210a19904" x="7.65" y="4.464" style="stroke: #000000; stroke-width: 0.8"/>
      </g>
     </g>
     <g id="text_7">
      <text style="font-size: 6px; font-family: 'DejaVu Sans', 'Arial', 'Helvetica', 'Lucida Grande', 'Verdana', 'Geneva', 'Lucid', 'Avant Garde', sans-serif; text-anchor: end" x="0.65" y="6.743531" transform="rotate(-0 0.65 6.743531)">1.0</text>
     </g>
    </g>
    <g id="text_8">
     <text style="font-size: 6px; font-family: 'DejaVu Sans', 'Arial', 'Helvetica', 'Lucida Grande', 'Verdana', 'Geneva', 'Lucid', 'Avant Garde', sans-serif; text-anchor: middle" x="-14.139687" y="14.544" transform="rotate(-90 -14.139687 14.544)">Survivor fraction</text>
    </g>
   </g>
   <g id="line2d_7">
    <path d="M 9.805909 24.624 
L 11.292743 24.255729 
L 12.779577 20.950522 
L 14.266411 16.604572 
L 15.753245 14.104574 
L 17.240078 14.0401 
L 18.726912 15.897228 
L 20.213746 18.569511 
L 21.70058 20.975445 
L 23.187414 22.63437 
L 24.674248 23.604305 
L 26.161082 24.11938 
L 27.647915 24.378864 
L 29.134749 24.506034 
L 30.621583 24.567495 
L 32.108417 24.596995 
L 33.595251 24.611108 
L 35.082085 24.617848 
L 36.568918 24.621065 
L 38.055752 24.6226 
L 39.542586 24.623332 
L 41.02942 24.623682 
L 42.516254 24.623848 
L 44.003088 24.623928 
L 45.489922 24.623965 
L 46.976755 24.623984 
L 48.463589 24.623992 
L 49.950423 24.623996 
L 51.437257 24.623998 
L 52.924091 24.623999 
" clip-path="url(#p676568d537)" style="fill: none; stroke: #c900c9; stroke-linecap: square"/>
   </g>
   <g id="line2d_8">
    <path d="M 9.805909 24.624 
L 11.292743 24.612692 
L 12.779577 24.329124 
L 14.266411 23.304847 
L 15.753245 21.310554 
L 17.240078 18.311093 
L 18.726912 14.644359 
L 20.213746 11.069686 
L 21.70058 8.292279 
L 23.187414 6.50551 
L 24.674248 5.497385 
L 26.161082 4.972006 
L 27.647915 4.709934 
L 29.134749 4.582147 
L 30.621583 4.520545 
L 32.108417 4.491013 
L 33.595251 4.476894 
L 35.082085 4.470152 
L 36.568918 4.466935 
L 38.055752 4.4654 
L 39.542586 4.464668 
L 41.02942 4.464318 
L 42.516254 4.464152 
L 44.003088 4.464072 
L 45.489922 4.464035 
L 46.976755 4.464016 
L 48.463589 4.464008 
L 49.950423 4.464004 
L 51.437257 4.464002 
L 52.924091 4.464001 
" clip-path="url(#p676568d537)" style="fill: none; stroke: #f7bb25; stroke-linecap: square"/>
   </g>
   <g id="line2d_9">
    <path d="M 9.805909 4.464 
L 11.292743 4.84358 
L 12.779577 8.432354 
L 14.266411 13.802581 
L 15.753245 18.296872 
L 17.240078 21.360807 
L 18.726912 23.170412 
L 20.213746 24.072803 
L 21.70058 24.444276 
L 23.187414 24.57212 
L 24.674248 24.61031 
L 26.161082 24.620614 
L 27.647915 24.623201 
L 29.134749 24.623818 
L 30.621583 24.62396 
L 32.108417 24.623991 
L 33.595251 24.623998 
L 35.082085 24.624 
L 36.568918 24.624 
L 38.055752 24.624 
L 39.542586 24.624 
L 41.02942 24.624 
L 42.516254 24.624 
L 44.003088 24.624 
L 45.489922 24.624 
L 46.976755 24.624 
L 48.463589 24.624 
L 49.950423 24.624 
L 51.437257 24.624 
L 52.924091 24.624 
" clip-path="url(#p676568d537)" style="fill: none; stroke: #00cbcb; stroke-linecap: square"/>
   </g>
   <g id="patch_3">
    <path d="M 7.65 25.632 
L 7.65 3.456 
" style="fill: none; stroke: #000000; stroke-width: 0.5; stroke-linejoin: miter; stroke-linecap: square"/>
   </g>
   <g id="patch_4">
    <path d="M 7.65 25.632 
L 55.08 25.632 
" style="fill: none; stroke: #000000; stroke-width: 0.5; stroke-linejoin: miter; stroke-linecap: square"/>
   </g>
  </g>
 </g>
 <defs>
  <clipPath id="p676568d537">
   <rect x="7.65" y="3.456" width="47.43" height="22.176"/>
  </clipPath>
 </defs>
</svg>
