<?xml version="1.0" encoding="utf-8" standalone="no"?>
<!DOCTYPE svg PUBLIC "-//W3C//DTD SVG 1.1//EN"
  "http://www.w3.org/Graphics/SVG/1.1/DTD/svg11.dtd">
<svg xmlns:xlink="http://www.w3.org/1999/xlink" width="93.6pt" height="108pt" viewBox="0 0 93.6 108" xmlns="http://www.w3.org/2000/svg" version="1.1">
 <metadata>
  <rdf:RDF xmlns:dc="http://purl.org/dc/elements/1.1/" xmlns:cc="http://creativecommons.org/ns#" xmlns:rdf="http://www.w3.org/1999/02/22-rdf-syntax-ns#">
   <cc:Work>
    <dc:type rdf:resource="http://purl.org/dc/dcmitype/StillImage"/>
    <dc:date>2026-02-16T19:46:10.282664</dc:date>
    <dc:format>image/svg+xml</dc:format>
    <dc:creator>
     <cc:Agent>
      <dc:title>Matplotlib v3.10.8, https://matplotlib.org/</dc:title>
     </cc:Agent>
    </dc:creator>
   </cc:Work>
  </rdf:RDF>
 </metadata>
 <defs>
  <style type="text/css">*{stroke-linejoin: round; stroke-linecap: butt}</style>
 </defs>
 <g id="figure_1">
  <g id="patch_1">
   <path d="M 0 108 
L 93.6 108 
L 93.6 0 
L 0 0 
L 0 108 
z
" style="fill: none"/>
  </g>
  <g id="axes_1">
   <g id="patch_2">
    <path d="M 11.7 96.12 
L 84.24 96.12 
L 84.24 12.96 
L 11.7 12.96 
L 11.7 96.12 
z
" style="fill: none"/>
   </g>
   <g id="FillBetweenPolyCollection_1">
    <path d="M 11.7 14.464344 
L 11.7 16644.96 
L 12.00225 16644.96 
L 12.3045 16644.96 
L 12.60675 16644.96 
L 12.909 16644.96 
L 13.21125 16644.96 
L 13.5135 16644.96 
L 13.81575 16644.96 
L 14.118 16644.96 
L 14.42025 16644.96 
L 14.7225 16644.96 
L 15.02475 16644.96 
L 15.327 16644.96 
L 15.62925 16644.96 
L 15.9315 16644.96 
L 16.23375 16644.96 
L 16.536 16644.96 
L 16.83825 16644.96 
L 17.1405 16644.96 
L 17.44275 16644.96 
L 17.745 16644.96 
L 18.04725 16644.96 
L 18.3495 16644.96 
L 18.65175 16644.96 
L 18.954 16644.96 
L 19.25625 16644.96 
L 19.5585 16644.96 
L 19.86075 16644.96 
L 20.163 16644.96 
L 20.46525 16644.96 
L 20.7675 16644.96 
L 21.06975 16644.96 
L 21.372 16644.96 
L 21.67425 16644.96 
L 21.9765 16644.96 
L 22.27875 16644.96 
L 22.581 16644.96 
L 22.88325 16644.96 
L 23.1855 16644.96 
L 23.48775 16644.96 
L 23.79 16644.96 
L 24.09225 16644.96 
L 24.3945 16644.96 
L 24.69675 16644.96 
L 24.999 16644.96 
L 25.30125 16644.96 
L 25.6035 16644.96 
L 25.90575 16644.96 
L 26.208 16644.96 
L 26.51025 16644.96 
L 26.8125 16644.96 
L 27.11475 16644.96 
L 27.417 16644.96 
L 27.71925 16644.96 
L 28.0215 16644.96 
L 28.32375 16644.96 
L 28.626 16644.96 
L 28.92825 16644.96 
L 29.2305 16644.96 
L 29.53275 16644.96 
L 29.835 16644.96 
L 30.13725 16644.96 
L 30.4395 16644.96 
L 30.74175 16644.96 
L 31.044 16644.96 
L 31.34625 16644.96 
L 31.6485 16644.96 
L 31.95075 16644.96 
L 32.253 16644.96 
L 32.55525 16644.96 
L 32.8575 16644.96 
L 33.15975 16644.96 
L 33.462 16644.96 
L 33.76425 16644.96 
L 34.0665 16644.96 
L 34.36875 16644.96 
L 34.671 16644.96 
L 34.97325 16644.96 
L 35.2755 16644.96 
L 35.57775 16644.96 
L 35.88 16644.96 
L 36.18225 16644.96 
L 36.4845 16644.96 
L 36.78675 16644.96 
L 37.089 16644.96 
L 37.39125 16644.96 
L 37.6935 16644.96 
L 37.99575 16644.96 
L 38.298 16644.96 
L 38.60025 16644.96 
L 38.9025 16644.96 
L 39.20475 16644.96 
L 39.507 16644.96 
L 39.80925 16644.96 
L 40.1115 16644.96 
L 40.41375 16644.96 
L 40.716 16644.96 
L 41.01825 16644.96 
L 41.3205 16644.96 
L 41.62275 16644.96 
L 41.925 16644.96 
L 42.22725 16644.96 
L 42.5295 16644.96 
L 42.83175 16644.96 
L 43.134 16644.96 
L 43.43625 16644.96 
L 43.7385 16644.96 
L 44.04075 16644.96 
L 44.343 16644.96 
L 44.64525 16644.96 
L 44.9475 16644.96 
L 45.24975 16644.96 
L 45.552 16644.96 
L 45.85425 16644.96 
L 46.1565 16644.96 
L 46.45875 16644.96 
L 46.761 16644.96 
L 47.06325 16644.96 
L 47.3655 16644.96 
L 47.66775 16644.96 
L 47.97 16644.96 
L 48.27225 16644.96 
L 48.5745 16644.96 
L 48.87675 16644.96 
L 49.179 16644.96 
L 49.48125 16644.96 
L 49.7835 16644.96 
L 50.08575 16644.96 
L 50.388 16644.96 
L 50.69025 16644.96 
L 50.9925 16644.96 
L 51.29475 16644.96 
L 51.597 16644.96 
L 51.89925 16644.96 
L 52.2015 16644.96 
L 52.50375 16644.96 
L 52.806 16644.96 
L 53.10825 16644.96 
L 53.4105 16644.96 
L 53.71275 16644.96 
L 54.015 16644.96 
L 54.31725 16644.96 
L 54.6195 16644.96 
L 54.92175 16644.96 
L 55.224 16644.96 
L 55.52625 16644.96 
L 55.8285 16644.96 
L 56.13075 16644.96 
L 56.433 16644.96 
L 56.73525 16644.96 
L 57.0375 16644.96 
L 57.33975 16644.96 
L 57.642 16644.96 
L 57.94425 16644.96 
L 58.2465 16644.96 
L 58.54875 16644.96 
L 58.851 16644.96 
L 59.15325 16644.96 
L 59.4555 16644.96 
L 59.75775 16644.96 
L 60.06 16644.96 
L 60.36225 16644.96 
L 60.6645 16644.96 
L 60.96675 16644.96 
L 61.269 16644.96 
L 61.57125 16644.96 
L 61.8735 16644.96 
L 62.17575 16644.96 
L 62.478 16644.96 
L 62.78025 16644.96 
L 63.0825 16644.96 
L 63.38475 16644.96 
L 63.687 16644.96 
L 63.98925 16644.96 
L 64.2915 16644.96 
L 64.59375 16644.96 
L 64.896 16644.96 
L 65.19825 16644.96 
L 65.5005 16644.96 
L 65.80275 16644.96 
L 66.105 16644.96 
L 66.40725 16644.96 
L 66.7095 16644.96 
L 67.01175 16644.96 
L 67.314 16644.96 
L 67.61625 16644.96 
L 67.9185 16644.96 
L 68.22075 16644.96 
L 68.523 16644.96 
L 68.82525 16644.96 
L 69.1275 16644.96 
L 69.42975 16644.96 
L 69.732 16644.96 
L 70.03425 16644.96 
L 70.3365 16644.96 
L 70.63875 16644.96 
L 70.941 16644.96 
L 71.24325 16644.96 
L 71.5455 16644.96 
L 71.84775 16644.96 
L 72.15 16644.96 
L 72.45225 16644.96 
L 72.7545 16644.96 
L 73.05675 16644.96 
L 73.359 16644.96 
L 73.66125 16644.96 
L 73.9635 16644.96 
L 74.26575 16644.96 
L 74.568 16644.96 
L 74.87025 16644.96 
L 75.1725 16644.96 
L 75.47475 16644.96 
L 75.777 16644.96 
L 76.07925 16644.96 
L 76.3815 16644.96 
L 76.68375 16644.96 
L 76.986 16644.96 
L 77.28825 16644.96 
L 77.5905 16644.96 
L 77.89275 16644.96 
L 78.195 16644.96 
L 78.49725 16644.96 
L 78.7995 16644.96 
L 79.10175 16644.96 
L 79.404 16644.96 
L 79.70625 16644.96 
L 80.0085 16644.96 
L 80.31075 16644.96 
L 80.613 16644.96 
L 80.91525 16644.96 
L 81.2175 16644.96 
L 81.51975 16644.96 
L 81.822 16644.96 
L 82.12425 16644.96 
L 82.4265 16644.96 
L 82.72875 16644.96 
L 83.031 16644.96 
L 83.33325 16644.96 
L 83.6355 16644.96 
L 83.93775 16644.96 
L 84.24 16644.96 
L 84.24 108.492098 
L 84.24 108.492098 
L 83.93775 108.467927 
L 83.6355 108.442496 
L 83.33325 108.415742 
L 83.031 108.387602 
L 82.72875 108.35801 
L 82.4265 108.326897 
L 82.12425 108.294191 
L 81.822 108.259818 
L 81.51975 108.223701 
L 81.2175 108.18576 
L 80.91525 108.145913 
L 80.613 108.104075 
L 80.31075 108.060157 
L 80.0085 108.01407 
L 79.70625 107.965719 
L 79.404 107.915008 
L 79.10175 107.861839 
L 78.7995 107.80611 
L 78.49725 107.747719 
L 78.195 107.686558 
L 77.89275 107.622519 
L 77.5905 107.555493 
L 77.28825 107.485366 
L 76.986 107.412024 
L 76.68375 107.335351 
L 76.3815 107.25523 
L 76.07925 107.171542 
L 75.777 107.084168 
L 75.47475 106.992987 
L 75.1725 106.897877 
L 74.87025 106.798717 
L 74.568 106.695384 
L 74.26575 106.587758 
L 73.9635 106.475715 
L 73.66125 106.359134 
L 73.359 106.237894 
L 73.05675 106.111873 
L 72.7545 105.980949 
L 72.45225 105.845002 
L 72.15 105.70391 
L 71.84775 105.557549 
L 71.5455 105.405795 
L 71.24325 105.248522 
L 70.941 105.085596 
L 70.63875 104.916881 
L 70.3365 104.742233 
L 70.03425 104.561493 
L 69.732 104.374493 
L 69.42975 104.181043 
L 69.1275 103.980931 
L 68.82525 103.773914 
L 68.523 103.559713 
L 68.22075 103.338001 
L 67.9185 103.108393 
L 67.61625 102.870434 
L 67.314 102.623585 
L 67.01175 102.3672 
L 66.7095 102.100514 
L 66.40725 101.822612 
L 66.105 101.532411 
L 65.80275 101.228627 
L 65.5005 100.909748 
L 65.19825 100.574005 
L 64.896 100.219335 
L 64.59375 99.843358 
L 64.2915 99.443346 
L 63.98925 99.016194 
L 63.687 98.558406 
L 63.38475 98.066067 
L 63.0825 97.534827 
L 62.78025 96.959876 
L 62.478 96.335904 
L 62.17575 95.65705 
L 61.8735 94.916822 
L 61.57125 94.107991 
L 61.269 93.222472 
L 60.96675 92.251232 
L 60.6645 91.184285 
L 60.36225 90.010882 
L 60.06 88.72005 
L 59.75775 87.3016 
L 59.4555 85.747645 
L 59.15325 84.05446 
L 58.851 82.224266 
L 58.54875 80.266341 
L 58.2465 78.196991 
L 57.94425 76.038223 
L 57.642 73.815504 
L 57.33975 71.55522 
L 57.0375 69.282441 
L 56.73525 67.01938 
L 56.433 64.78459 
L 56.13075 62.592786 
L 55.8285 60.455088 
L 55.52625 58.379482 
L 55.224 56.371353 
L 54.92175 54.434018 
L 54.6195 52.56919 
L 54.31725 50.777371 
L 54.015 49.058167 
L 53.71275 47.410538 
L 53.4105 45.832984 
L 53.10825 44.323693 
L 52.806 42.880643 
L 52.50375 41.501685 
L 52.2015 40.184598 
L 51.89925 38.927132 
L 51.597 37.727037 
L 51.29475 36.582086 
L 50.9925 35.490087 
L 50.69025 34.448896 
L 50.388 33.456422 
L 50.08575 32.510634 
L 49.7835 31.60956 
L 49.48125 30.751291 
L 49.179 29.933981 
L 48.87675 29.155848 
L 48.5745 28.415173 
L 48.27225 27.710297 
L 47.97 27.039623 
L 47.66775 26.401616 
L 47.3655 25.794795 
L 47.06325 25.217741 
L 46.761 24.669086 
L 46.45875 24.147521 
L 46.1565 23.651787 
L 45.85425 23.180676 
L 45.552 22.733033 
L 45.24975 22.307748 
L 44.9475 21.90376 
L 44.64525 21.520052 
L 44.343 21.155651 
L 44.04075 20.809628 
L 43.7385 20.481094 
L 43.43625 20.169198 
L 43.134 19.873129 
L 42.83175 19.592112 
L 42.5295 19.325407 
L 42.22725 19.072309 
L 41.925 18.832143 
L 41.62275 18.604269 
L 41.3205 18.388073 
L 41.01825 18.182974 
L 40.716 17.988415 
L 40.41375 17.803867 
L 40.1115 17.628827 
L 39.80925 17.462814 
L 39.507 17.305373 
L 39.20475 17.15607 
L 38.9025 17.014491 
L 38.60025 16.880243 
L 38.298 16.752953 
L 37.99575 16.632266 
L 37.6935 16.517844 
L 37.39125 16.409367 
L 37.089 16.306529 
L 36.78675 16.209041 
L 36.4845 16.116629 
L 36.18225 16.02903 
L 35.88 15.945996 
L 35.57775 15.867293 
L 35.2755 15.792696 
L 34.97325 15.721993 
L 34.671 15.654982 
L 34.36875 15.591473 
L 34.0665 15.531283 
L 33.76425 15.474241 
L 33.462 15.420182 
L 33.15975 15.368952 
L 32.8575 15.320405 
L 32.55525 15.274399 
L 32.253 15.230803 
L 31.95075 15.189491 
L 31.6485 15.150344 
L 31.34625 15.11325 
L 31.044 15.078101 
L 30.74175 15.044795 
L 30.4395 15.013236 
L 30.13725 14.983333 
L 29.835 14.955 
L 29.53275 14.928154 
L 29.2305 14.902717 
L 28.92825 14.878616 
L 28.626 14.85578 
L 28.32375 14.834144 
L 28.0215 14.813645 
L 27.71925 14.794223 
L 27.417 14.775821 
L 27.11475 14.758386 
L 26.8125 14.741868 
L 26.51025 14.726218 
L 26.208 14.711391 
L 25.90575 14.697343 
L 25.6035 14.684034 
L 25.30125 14.671425 
L 24.999 14.659479 
L 24.69675 14.648161 
L 24.3945 14.637438 
L 24.09225 14.62728 
L 23.79 14.617655 
L 23.48775 14.608538 
L 23.1855 14.5999 
L 22.88325 14.591716 
L 22.581 14.583963 
L 22.27875 14.576618 
L 21.9765 14.569659 
L 21.67425 14.563067 
L 21.372 14.556821 
L 21.06975 14.550905 
L 20.7675 14.545299 
L 20.46525 14.539989 
L 20.163 14.534958 
L 19.86075 14.530192 
L 19.5585 14.525677 
L 19.25625 14.5214 
L 18.954 14.517348 
L 18.65175 14.513509 
L 18.3495 14.509872 
L 18.04725 14.506427 
L 17.745 14.503163 
L 17.44275 14.50007 
L 17.1405 14.497141 
L 16.83825 14.494366 
L 16.536 14.491737 
L 16.23375 14.489246 
L 15.9315 14.486887 
L 15.62925 14.484652 
L 15.327 14.482534 
L 15.02475 14.480528 
L 14.7225 14.478628 
L 14.42025 14.476828 
L 14.118 14.475122 
L 13.81575 14.473506 
L 13.5135 14.471976 
L 13.21125 14.470526 
L 12.909 14.469152 
L 12.60675 14.467851 
L 12.3045 14.466618 
L 12.00225 14.46545 
L 11.7 14.464344 
z
" clip-path="url(#pc7568d9798)" style="fill: #ff8ef4; fill-opacity: 0.85"/>
   </g>
   <g id="FillBetweenPolyCollection_2">
    <path d="M 11.7 12.978531 
L 11.7 14.464344 
L 12.00225 14.46545 
L 12.3045 14.466618 
L 12.60675 14.467851 
L 12.909 14.469152 
L 13.21125 14.470526 
L 13.5135 14.471976 
L 13.81575 14.473506 
L 14.118 14.475122 
L 14.42025 14.476828 
L 14.7225 14.478628 
L 15.02475 14.480528 
L 15.327 14.482534 
L 15.62925 14.484652 
L 15.9315 14.486887 
L 16.23375 14.489246 
L 16.536 14.491737 
L 16.83825 14.494366 
L 17.1405 14.497141 
L 17.44275 14.50007 
L 17.745 14.503163 
L 18.04725 14.506427 
L 18.3495 14.509872 
L 18.65175 14.513509 
L 18.954 14.517348 
L 19.25625 14.5214 
L 19.5585 14.525677 
L 19.86075 14.530192 
L 20.163 14.534958 
L 20.46525 14.539989 
L 20.7675 14.545299 
L 21.06975 14.550905 
L 21.372 14.556821 
L 21.67425 14.563067 
L 21.9765 14.569659 
L 22.27875 14.576618 
L 22.581 14.583963 
L 22.88325 14.591716 
L 23.1855 14.5999 
L 23.48775 14.608538 
L 23.79 14.617655 
L 24.09225 14.62728 
L 24.3945 14.637438 
L 24.69675 14.648161 
L 24.999 14.659479 
L 25.30125 14.671425 
L 25.6035 14.684034 
L 25.90575 14.697343 
L 26.208 14.711391 
L 26.51025 14.726218 
L 26.8125 14.741868 
L 27.11475 14.758386 
L 27.417 14.775821 
L 27.71925 14.794223 
L 28.0215 14.813645 
L 28.32375 14.834144 
L 28.626 14.85578 
L 28.92825 14.878616 
L 29.2305 14.902717 
L 29.53275 14.928154 
L 29.835 14.955 
L 30.13725 14.983333 
L 30.4395 15.013236 
L 30.74175 15.044795 
L 31.044 15.078101 
L 31.34625 15.11325 
L 31.6485 15.150344 
L 31.95075 15.189491 
L 32.253 15.230803 
L 32.55525 15.274399 
L 32.8575 15.320405 
L 33.15975 15.368952 
L 33.462 15.420182 
L 33.76425 15.474241 
L 34.0665 15.531283 
L 34.36875 15.591473 
L 34.671 15.654982 
L 34.97325 15.721993 
L 35.2755 15.792696 
L 35.57775 15.867293 
L 35.88 15.945996 
L 36.18225 16.02903 
L 36.4845 16.116629 
L 36.78675 16.209041 
L 37.089 16.306529 
L 37.39125 16.409367 
L 37.6935 16.517844 
L 37.99575 16.632266 
L 38.298 16.752953 
L 38.60025 16.880243 
L 38.9025 17.014491 
L 39.20475 17.15607 
L 39.507 17.305373 
L 39.80925 17.462814 
L 40.1115 17.628827 
L 40.41375 17.803867 
L 40.716 17.988415 
L 41.01825 18.182974 
L 41.3205 18.388073 
L 41.62275 18.604269 
L 41.925 18.832143 
L 42.22725 19.072309 
L 42.5295 19.325407 
L 42.83175 19.592112 
L 43.134 19.873129 
L 43.43625 20.169198 
L 43.7385 20.481094 
L 44.04075 20.809628 
L 44.343 21.155651 
L 44.64525 21.520052 
L 44.9475 21.90376 
L 45.24975 22.307748 
L 45.552 22.733033 
L 45.85425 23.180676 
L 46.1565 23.651787 
L 46.45875 24.147521 
L 46.761 24.669086 
L 47.06325 25.217741 
L 47.3655 25.794795 
L 47.66775 26.401616 
L 47.97 27.039623 
L 48.27225 27.710297 
L 48.5745 28.415173 
L 48.87675 29.155848 
L 49.179 29.933981 
L 49.48125 30.751291 
L 49.7835 31.60956 
L 50.08575 32.510634 
L 50.388 33.456422 
L 50.69025 34.448896 
L 50.9925 35.490087 
L 51.29475 36.582086 
L 51.597 37.727037 
L 51.89925 38.927132 
L 52.2015 40.184598 
L 52.50375 41.501685 
L 52.806 42.880643 
L 53.10825 44.323693 
L 53.4105 45.832984 
L 53.71275 47.410538 
L 54.015 49.058167 
L 54.31725 50.777371 
L 54.6195 52.56919 
L 54.92175 54.434018 
L 55.224 56.371353 
L 55.52625 58.379482 
L 55.8285 60.455088 
L 56.13075 62.592786 
L 56.433 64.78459 
L 56.73525 67.01938 
L 57.0375 69.282441 
L 57.33975 71.55522 
L 57.642 73.815504 
L 57.94425 76.038223 
L 58.2465 78.196991 
L 58.54875 80.266341 
L 58.851 82.224266 
L 59.15325 84.05446 
L 59.4555 85.747645 
L 59.75775 87.3016 
L 60.06 88.72005 
L 60.36225 90.010882 
L 60.6645 91.184285 
L 60.96675 92.251232 
L 61.269 93.222472 
L 61.57125 94.107991 
L 61.8735 94.916822 
L 62.17575 95.65705 
L 62.478 96.335904 
L 62.78025 96.959876 
L 63.0825 97.534827 
L 63.38475 98.066067 
L 63.687 98.558406 
L 63.98925 99.016194 
L 64.2915 99.443346 
L 64.59375 99.843358 
L 64.896 100.219335 
L 65.19825 100.574005 
L 65.5005 100.909748 
L 65.80275 101.228627 
L 66.105 101.532411 
L 66.40725 101.822612 
L 66.7095 102.100514 
L 67.01175 102.3672 
L 67.314 102.623585 
L 67.61625 102.870434 
L 67.9185 103.108393 
L 68.22075 103.338001 
L 68.523 103.559713 
L 68.82525 103.773914 
L 69.1275 103.980931 
L 69.42975 104.181043 
L 69.732 104.374493 
L 70.03425 104.561493 
L 70.3365 104.742233 
L 70.63875 104.916881 
L 70.941 105.085596 
L 71.24325 105.248522 
L 71.5455 105.405795 
L 71.84775 105.557549 
L 72.15 105.70391 
L 72.45225 105.845002 
L 72.7545 105.980949 
L 73.05675 106.111873 
L 73.359 106.237894 
L 73.66125 106.359134 
L 73.9635 106.475715 
L 74.26575 106.587758 
L 74.568 106.695384 
L 74.87025 106.798717 
L 75.1725 106.897877 
L 75.47475 106.992987 
L 75.777 107.084168 
L 76.07925 107.171542 
L 76.3815 107.25523 
L 76.68375 107.335351 
L 76.986 107.412024 
L 77.28825 107.485366 
L 77.5905 107.555493 
L 77.89275 107.622519 
L 78.195 107.686558 
L 78.49725 107.747719 
L 78.7995 107.80611 
L 79.10175 107.861839 
L 79.404 107.915008 
L 79.70625 107.965719 
L 80.0085 108.01407 
L 80.31075 108.060157 
L 80.613 108.104075 
L 80.91525 108.145913 
L 81.2175 108.18576 
L 81.51975 108.223701 
L 81.822 108.259818 
L 82.12425 108.294191 
L 82.4265 108.326897 
L 82.72875 108.35801 
L 83.031 108.387602 
L 83.33325 108.415742 
L 83.6355 108.442496 
L 83.93775 108.467927 
L 84.24 108.492098 
L 84.24 98.440168 
L 84.24 98.440168 
L 83.93775 98.354505 
L 83.6355 98.263894 
L 83.33325 98.16804 
L 83.031 98.066628 
L 82.72875 97.959324 
L 82.4265 97.845772 
L 82.12425 97.725594 
L 81.822 97.598387 
L 81.51975 97.463723 
L 81.2175 97.321147 
L 80.91525 97.170173 
L 80.613 97.010286 
L 80.31075 96.840936 
L 80.0085 96.661539 
L 79.70625 96.471475 
L 79.404 96.270082 
L 79.10175 96.056659 
L 78.7995 95.830461 
L 78.49725 95.590697 
L 78.195 95.336529 
L 77.89275 95.067072 
L 77.5905 94.781387 
L 77.28825 94.478489 
L 76.986 94.157336 
L 76.68375 93.816839 
L 76.3815 93.455857 
L 76.07925 93.073203 
L 75.777 92.667642 
L 75.47475 92.237904 
L 75.1725 91.782685 
L 74.87025 91.300656 
L 74.568 90.790476 
L 74.26575 90.250805 
L 73.9635 89.680318 
L 73.66125 89.077723 
L 73.359 88.441785 
L 73.05675 87.771346 
L 72.7545 87.06535 
L 72.45225 86.322872 
L 72.15 85.543139 
L 71.84775 84.725567 
L 71.5455 83.869778 
L 71.24325 82.975629 
L 70.941 82.043236 
L 70.63875 81.072987 
L 70.3365 80.065563 
L 70.03425 79.02194 
L 69.732 77.943399 
L 69.42975 76.831522 
L 69.1275 75.688185 
L 68.82525 74.515551 
L 68.523 73.316049 
L 68.22075 72.09236 
L 67.9185 70.847396 
L 67.61625 69.584277 
L 67.314 68.306309 
L 67.01175 67.016963 
L 66.7095 65.719849 
L 66.40725 64.418702 
L 66.105 63.117356 
L 65.80275 61.819732 
L 65.5005 60.529819 
L 65.19825 59.251656 
L 64.896 57.989318 
L 64.59375 56.7469 
L 64.2915 55.528492 
L 63.98925 54.338158 
L 63.687 53.179909 
L 63.38475 52.057666 
L 63.0825 50.975219 
L 62.78025 49.936177 
L 62.478 48.943912 
L 62.17575 48.001497 
L 61.8735 47.111635 
L 61.57125 46.276591 
L 61.269 45.498125 
L 60.96675 44.777426 
L 60.6645 44.11506 
L 60.36225 43.510924 
L 60.06 42.964222 
L 59.75775 42.473443 
L 59.4555 42.036364 
L 59.15325 41.650053 
L 58.851 41.310883 
L 58.54875 41.014546 
L 58.2465 40.756069 
L 57.94425 40.529821 
L 57.642 40.329529 
L 57.33975 40.14829 
L 57.0375 39.978611 
L 56.73525 39.812465 
L 56.433 39.641413 
L 56.13075 39.456781 
L 55.8285 39.249922 
L 55.52625 39.012559 
L 55.224 38.737198 
L 54.92175 38.41757 
L 54.6195 38.04904 
L 54.31725 37.628939 
L 54.015 37.156732 
L 53.71275 36.634007 
L 53.4105 36.064275 
L 53.10825 35.452616 
L 52.806 34.805231 
L 52.50375 34.128967 
L 52.2015 33.430881 
L 51.89925 32.717869 
L 51.597 31.996394 
L 51.29475 31.27231 
L 50.9925 30.550762 
L 50.69025 29.836155 
L 50.388 29.132178 
L 50.08575 28.441841 
L 49.7835 27.767548 
L 49.48125 27.111164 
L 49.179 26.474089 
L 48.87675 25.857324 
L 48.5745 25.26154 
L 48.27225 24.687127 
L 47.97 24.134248 
L 47.66775 23.602877 
L 47.3655 23.09284 
L 47.06325 22.603838 
L 46.761 22.135479 
L 46.45875 21.687298 
L 46.1565 21.25877 
L 45.85425 20.849329 
L 45.552 20.45838 
L 45.24975 20.085306 
L 44.9475 19.72948 
L 44.64525 19.390268 
L 44.343 19.067036 
L 44.04075 18.759156 
L 43.7385 18.466005 
L 43.43625 18.186974 
L 43.134 17.921464 
L 42.83175 17.668893 
L 42.5295 17.428693 
L 42.22725 17.200315 
L 41.925 16.983226 
L 41.62275 16.77691 
L 41.3205 16.580873 
L 41.01825 16.394634 
L 40.716 16.217735 
L 40.41375 16.049734 
L 40.1115 15.890207 
L 39.80925 15.738746 
L 39.507 15.594963 
L 39.20475 15.458485 
L 38.9025 15.328956 
L 38.60025 15.206034 
L 38.298 15.089394 
L 37.99575 14.978726 
L 37.6935 14.873733 
L 37.39125 14.774132 
L 37.089 14.679653 
L 36.78675 14.59004 
L 36.4845 14.505048 
L 36.18225 14.424444 
L 35.88 14.348005 
L 35.57775 14.275521 
L 35.2755 14.206791 
L 34.97325 14.141624 
L 34.671 14.079838 
L 34.36875 14.02126 
L 34.0665 13.965726 
L 33.76425 13.91308 
L 33.462 13.863174 
L 33.15975 13.815867 
L 32.8575 13.771024 
L 32.55525 13.72852 
L 32.253 13.688233 
L 31.95075 13.650048 
L 31.6485 13.613858 
L 31.34625 13.579558 
L 31.044 13.547051 
L 30.74175 13.516244 
L 30.4395 13.487048 
L 30.13725 13.459379 
L 29.835 13.433159 
L 29.53275 13.408312 
L 29.2305 13.384767 
L 28.92825 13.362455 
L 28.626 13.341312 
L 28.32375 13.321278 
L 28.0215 13.302294 
L 27.71925 13.284306 
L 27.417 13.267262 
L 27.11475 13.251112 
L 26.8125 13.235809 
L 26.51025 13.22131 
L 26.208 13.207572 
L 25.90575 13.194555 
L 25.6035 13.182222 
L 25.30125 13.170537 
L 24.999 13.159466 
L 24.69675 13.148976 
L 24.3945 13.139038 
L 24.09225 13.129622 
L 23.79 13.1207 
L 23.48775 13.112248 
L 23.1855 13.10424 
L 22.88325 13.096653 
L 22.581 13.089465 
L 22.27875 13.082655 
L 21.9765 13.076204 
L 21.67425 13.070091 
L 21.372 13.0643 
L 21.06975 13.058814 
L 20.7675 13.053616 
L 20.46525 13.048692 
L 20.163 13.044026 
L 19.86075 13.039607 
L 19.5585 13.035419 
L 19.25625 13.031453 
L 18.954 13.027694 
L 18.65175 13.024134 
L 18.3495 13.020761 
L 18.04725 13.017566 
L 17.745 13.014538 
L 17.44275 13.01167 
L 17.1405 13.008953 
L 16.83825 13.006379 
L 16.536 13.003941 
L 16.23375 13.001631 
L 15.9315 12.999442 
L 15.62925 12.997369 
L 15.327 12.995405 
L 15.02475 12.993544 
L 14.7225 12.991781 
L 14.42025 12.990111 
L 14.118 12.988529 
L 13.81575 12.987031 
L 13.5135 12.985611 
L 13.21125 12.984266 
L 12.909 12.982991 
L 12.60675 12.981784 
L 12.3045 12.980641 
L 12.00225 12.979557 
L 11.7 12.978531 
z
" clip-path="url(#pc7568d9798)" style="fill: #ffff7c; fill-opacity: 0.85"/>
   </g>
   <g id="FillBetweenPolyCollection_3">
    <path d="M 11.7 12.978462 
L 11.7 12.978531 
L 12.00225 12.979557 
L 12.3045 12.980641 
L 12.60675 12.981784 
L 12.909 12.982991 
L 13.21125 12.984266 
L 13.5135 12.985611 
L 13.81575 12.987031 
L 14.118 12.988529 
L 14.42025 12.990111 
L 14.7225 12.991781 
L 15.02475 12.993544 
L 15.327 12.995405 
L 15.62925 12.997369 
L 15.9315 12.999442 
L 16.23375 13.001631 
L 16.536 13.003941 
L 16.83825 13.006379 
L 17.1405 13.008953 
L 17.44275 13.01167 
L 17.745 13.014538 
L 18.04725 13.017566 
L 18.3495 13.020761 
L 18.65175 13.024134 
L 18.954 13.027694 
L 19.25625 13.031453 
L 19.5585 13.035419 
L 19.86075 13.039607 
L 20.163 13.044026 
L 20.46525 13.048692 
L 20.7675 13.053616 
L 21.06975 13.058814 
L 21.372 13.0643 
L 21.67425 13.070091 
L 21.9765 13.076204 
L 22.27875 13.082655 
L 22.581 13.089465 
L 22.88325 13.096653 
L 23.1855 13.10424 
L 23.48775 13.112248 
L 23.79 13.1207 
L 24.09225 13.129622 
L 24.3945 13.139038 
L 24.69675 13.148976 
L 24.999 13.159466 
L 25.30125 13.170537 
L 25.6035 13.182222 
L 25.90575 13.194555 
L 26.208 13.207572 
L 26.51025 13.22131 
L 26.8125 13.235809 
L 27.11475 13.251112 
L 27.417 13.267262 
L 27.71925 13.284306 
L 28.0215 13.302294 
L 28.32375 13.321278 
L 28.626 13.341312 
L 28.92825 13.362455 
L 29.2305 13.384767 
L 29.53275 13.408312 
L 29.835 13.433159 
L 30.13725 13.459379 
L 30.4395 13.487048 
L 30.74175 13.516244 
L 31.044 13.547051 
L 31.34625 13.579558 
L 31.6485 13.613858 
L 31.95075 13.650048 
L 32.253 13.688233 
L 32.55525 13.72852 
L 32.8575 13.771024 
L 33.15975 13.815867 
L 33.462 13.863174 
L 33.76425 13.91308 
L 34.0665 13.965726 
L 34.36875 14.02126 
L 34.671 14.079838 
L 34.97325 14.141624 
L 35.2755 14.206791 
L 35.57775 14.275521 
L 35.88 14.348005 
L 36.18225 14.424444 
L 36.4845 14.505048 
L 36.78675 14.59004 
L 37.089 14.679653 
L 37.39125 14.774132 
L 37.6935 14.873733 
L 37.99575 14.978726 
L 38.298 15.089394 
L 38.60025 15.206034 
L 38.9025 15.328956 
L 39.20475 15.458485 
L 39.507 15.594963 
L 39.80925 15.738746 
L 40.1115 15.890207 
L 40.41375 16.049734 
L 40.716 16.217735 
L 41.01825 16.394634 
L 41.3205 16.580873 
L 41.62275 16.77691 
L 41.925 16.983226 
L 42.22725 17.200315 
L 42.5295 17.428693 
L 42.83175 17.668893 
L 43.134 17.921464 
L 43.43625 18.186974 
L 43.7385 18.466005 
L 44.04075 18.759156 
L 44.343 19.067036 
L 44.64525 19.390268 
L 44.9475 19.72948 
L 45.24975 20.085306 
L 45.552 20.45838 
L 45.85425 20.849329 
L 46.1565 21.25877 
L 46.45875 21.687298 
L 46.761 22.135479 
L 47.06325 22.603838 
L 47.3655 23.09284 
L 47.66775 23.602877 
L 47.97 24.134248 
L 48.27225 24.687127 
L 48.5745 25.26154 
L 48.87675 25.857324 
L 49.179 26.474089 
L 49.48125 27.111164 
L 49.7835 27.767548 
L 50.08575 28.441841 
L 50.388 29.132178 
L 50.69025 29.836155 
L 50.9925 30.550762 
L 51.29475 31.27231 
L 51.597 31.996394 
L 51.89925 32.717869 
L 52.2015 33.430881 
L 52.50375 34.128967 
L 52.806 34.805231 
L 53.10825 35.452616 
L 53.4105 36.064275 
L 53.71275 36.634007 
L 54.015 37.156732 
L 54.31725 37.628939 
L 54.6195 38.04904 
L 54.92175 38.41757 
L 55.224 38.737198 
L 55.52625 39.012559 
L 55.8285 39.249922 
L 56.13075 39.456781 
L 56.433 39.641413 
L 56.73525 39.812465 
L 57.0375 39.978611 
L 57.33975 40.14829 
L 57.642 40.329529 
L 57.94425 40.529821 
L 58.2465 40.756069 
L 58.54875 41.014546 
L 58.851 41.310883 
L 59.15325 41.650053 
L 59.4555 42.036364 
L 59.75775 42.473443 
L 60.06 42.964222 
L 60.36225 43.510924 
L 60.6645 44.11506 
L 60.96675 44.777426 
L 61.269 45.498125 
L 61.57125 46.276591 
L 61.8735 47.111635 
L 62.17575 48.001497 
L 62.478 48.943912 
L 62.78025 49.936177 
L 63.0825 50.975219 
L 63.38475 52.057666 
L 63.687 53.179909 
L 63.98925 54.338158 
L 64.2915 55.528492 
L 64.59375 56.7469 
L 64.896 57.989318 
L 65.19825 59.251656 
L 65.5005 60.529819 
L 65.80275 61.819732 
L 66.105 63.117356 
L 66.40725 64.418702 
L 66.7095 65.719849 
L 67.01175 67.016963 
L 67.314 68.306309 
L 67.61625 69.584277 
L 67.9185 70.847396 
L 68.22075 72.09236 
L 68.523 73.316049 
L 68.82525 74.515551 
L 69.1275 75.688185 
L 69.42975 76.831522 
L 69.732 77.943399 
L 70.03425 79.02194 
L 70.3365 80.065563 
L 70.63875 81.072987 
L 70.941 82.043236 
L 71.24325 82.975629 
L 71.5455 83.869778 
L 71.84775 84.725567 
L 72.15 85.543139 
L 72.45225 86.322872 
L 72.7545 87.06535 
L 73.05675 87.771346 
L 73.359 88.441785 
L 73.66125 89.077723 
L 73.9635 89.680318 
L 74.26575 90.250805 
L 74.568 90.790476 
L 74.87025 91.300656 
L 75.1725 91.782685 
L 75.47475 92.237904 
L 75.777 92.667642 
L 76.07925 93.073203 
L 76.3815 93.455857 
L 76.68375 93.816839 
L 76.986 94.157336 
L 77.28825 94.478489 
L 77.5905 94.781387 
L 77.89275 95.067072 
L 78.195 95.336529 
L 78.49725 95.590697 
L 78.7995 95.830461 
L 79.10175 96.056659 
L 79.404 96.270082 
L 79.70625 96.471475 
L 80.0085 96.661539 
L 80.31075 96.840936 
L 80.613 97.010286 
L 80.91525 97.170173 
L 81.2175 97.321147 
L 81.51975 97.463723 
L 81.822 97.598387 
L 82.12425 97.725594 
L 82.4265 97.845772 
L 82.72875 97.959324 
L 83.031 98.066628 
L 83.33325 98.16804 
L 83.6355 98.263894 
L 83.93775 98.354505 
L 84.24 98.440168 
L 84.24 92.400063 
L 84.24 92.400063 
L 83.93775 92.362816 
L 83.6355 92.323146 
L 83.33325 92.280876 
L 83.031 92.235813 
L 82.72875 92.187748 
L 82.4265 92.136456 
L 82.12425 92.081688 
L 81.822 92.023177 
L 81.51975 91.960629 
L 81.2175 91.893725 
L 80.91525 91.822115 
L 80.613 91.74542 
L 80.31075 91.663222 
L 80.0085 91.575065 
L 79.70625 91.480451 
L 79.404 91.378834 
L 79.10175 91.269615 
L 78.7995 91.152138 
L 78.49725 91.025688 
L 78.195 90.889477 
L 77.89275 90.742647 
L 77.5905 90.584258 
L 77.28825 90.413283 
L 76.986 90.228604 
L 76.68375 90.029004 
L 76.3815 89.813163 
L 76.07925 89.579653 
L 75.777 89.326936 
L 75.47475 89.053361 
L 75.1725 88.75717 
L 74.87025 88.436499 
L 74.568 88.089389 
L 74.26575 87.713802 
L 73.9635 87.307635 
L 73.66125 86.868753 
L 73.359 86.395014 
L 73.05675 85.884315 
L 72.7545 85.334633 
L 72.45225 84.744076 
L 72.15 84.110937 
L 71.84775 83.433751 
L 71.5455 82.711349 
L 71.24325 81.942907 
L 70.941 81.127997 
L 70.63875 80.266614 
L 70.3365 79.359207 
L 70.03425 78.406683 
L 69.732 77.410414 
L 69.42975 76.372214 
L 69.1275 75.294321 
L 68.82525 74.179356 
L 68.523 73.030291 
L 68.22075 71.850397 
L 67.9185 70.643205 
L 67.61625 69.412459 
L 67.314 68.162077 
L 67.01175 66.896113 
L 66.7095 65.618726 
L 66.40725 64.334151 
L 66.105 63.046676 
L 65.80275 61.760627 
L 65.5005 60.480347 
L 65.19825 59.210184 
L 64.896 57.954481 
L 64.59375 56.717557 
L 64.2915 55.503695 
L 63.98925 54.317123 
L 63.687 53.161987 
L 63.38475 52.04232 
L 63.0825 50.962007 
L 62.78025 49.924733 
L 62.478 48.933937 
L 62.17575 47.992741 
L 61.8735 47.103893 
L 61.57125 46.269694 
L 61.269 45.491933 
L 60.96675 44.771821 
L 60.6645 44.109946 
L 60.36225 43.506221 
L 60.06 42.959861 
L 59.75775 42.469369 
L 59.4555 42.032529 
L 59.15325 41.646417 
L 58.851 41.307414 
L 58.54875 41.011217 
L 58.2465 40.752856 
L 57.94425 40.526708 
L 57.642 40.3265 
L 57.33975 40.145337 
L 57.0375 39.975726 
L 56.73525 39.809646 
L 56.433 39.63866 
L 56.13075 39.454097 
L 55.8285 39.247314 
L 55.52625 39.010035 
L 55.224 38.734769 
L 54.92175 38.415245 
L 54.6195 38.046831 
L 54.31725 37.626855 
L 54.015 37.15478 
L 53.71275 36.632191 
L 53.4105 36.062597 
L 53.10825 35.451074 
L 52.806 34.803821 
L 52.50375 34.127683 
L 52.2015 33.429715 
L 51.89925 32.716813 
L 51.597 31.995439 
L 51.29475 31.271446 
L 50.9925 30.549979 
L 50.69025 29.835447 
L 50.388 29.131535 
L 50.08575 28.441257 
L 49.7835 27.767016 
L 49.48125 27.110678 
L 49.179 26.473644 
L 48.87675 25.856916 
L 48.5745 25.261164 
L 48.27225 24.68678 
L 47.97 24.133926 
L 47.66775 23.602578 
L 47.3655 23.092561 
L 47.06325 22.603577 
L 46.761 22.135235 
L 46.45875 21.687069 
L 46.1565 21.258554 
L 45.85425 20.849125 
L 45.552 20.458186 
L 45.24975 20.085123 
L 44.9475 19.729306 
L 44.64525 19.390101 
L 44.343 19.066877 
L 44.04075 18.759003 
L 43.7385 18.465858 
L 43.43625 18.186832 
L 43.134 17.921328 
L 42.83175 17.668761 
L 42.5295 17.428566 
L 42.22725 17.200192 
L 41.925 16.983106 
L 41.62275 16.776794 
L 41.3205 16.58076 
L 41.01825 16.394524 
L 40.716 16.217628 
L 40.41375 16.049629 
L 40.1115 15.890104 
L 39.80925 15.738646 
L 39.507 15.594865 
L 39.20475 15.458389 
L 38.9025 15.328861 
L 38.60025 15.205941 
L 38.298 15.089302 
L 37.99575 14.978636 
L 37.6935 14.873644 
L 37.39125 14.774044 
L 37.089 14.679566 
L 36.78675 14.589954 
L 36.4845 14.504963 
L 36.18225 14.42436 
L 35.88 14.347922 
L 35.57775 14.275439 
L 35.2755 14.20671 
L 34.97325 14.141543 
L 34.671 14.079758 
L 34.36875 14.021181 
L 34.0665 13.965647 
L 33.76425 13.913002 
L 33.462 13.863096 
L 33.15975 13.81579 
L 32.8575 13.770948 
L 32.55525 13.728444 
L 32.253 13.688157 
L 31.95075 13.649973 
L 31.6485 13.613783 
L 31.34625 13.579483 
L 31.044 13.546977 
L 30.74175 13.51617 
L 30.4395 13.486974 
L 30.13725 13.459306 
L 29.835 13.433086 
L 29.53275 13.408239 
L 29.2305 13.384694 
L 28.92825 13.362382 
L 28.626 13.34124 
L 28.32375 13.321206 
L 28.0215 13.302223 
L 27.71925 13.284235 
L 27.417 13.26719 
L 27.11475 13.25104 
L 26.8125 13.235738 
L 26.51025 13.221239 
L 26.208 13.207501 
L 25.90575 13.194485 
L 25.6035 13.182152 
L 25.30125 13.170467 
L 24.999 13.159395 
L 24.69675 13.148906 
L 24.3945 13.138968 
L 24.09225 13.129552 
L 23.79 13.12063 
L 23.48775 13.112178 
L 23.1855 13.10417 
L 22.88325 13.096584 
L 22.581 13.089396 
L 22.27875 13.082586 
L 21.9765 13.076134 
L 21.67425 13.070022 
L 21.372 13.064231 
L 21.06975 13.058744 
L 20.7675 13.053547 
L 20.46525 13.048622 
L 20.163 13.043957 
L 19.86075 13.039537 
L 19.5585 13.03535 
L 19.25625 13.031383 
L 18.954 13.027625 
L 18.65175 13.024065 
L 18.3495 13.020692 
L 18.04725 13.017497 
L 17.745 13.014469 
L 17.44275 13.011601 
L 17.1405 13.008884 
L 16.83825 13.00631 
L 16.536 13.003872 
L 16.23375 13.001562 
L 15.9315 12.999373 
L 15.62925 12.9973 
L 15.327 12.995336 
L 15.02475 12.993475 
L 14.7225 12.991713 
L 14.42025 12.990043 
L 14.118 12.988461 
L 13.81575 12.986962 
L 13.5135 12.985542 
L 13.21125 12.984197 
L 12.909 12.982923 
L 12.60675 12.981716 
L 12.3045 12.980572 
L 12.00225 12.979489 
L 11.7 12.978462 
z
" clip-path="url(#pc7568d9798)" style="fill: #7cffff; fill-opacity: 0.85"/>
   </g>
   <g id="FillBetweenPolyCollection_4">
    <path d="M 11.7 12.96 
L 11.7 12.978462 
L 12.00225 12.979489 
L 12.3045 12.980572 
L 12.60675 12.981716 
L 12.909 12.982923 
L 13.21125 12.984197 
L 13.5135 12.985542 
L 13.81575 12.986962 
L 14.118 12.988461 
L 14.42025 12.990043 
L 14.7225 12.991713 
L 15.02475 12.993475 
L 15.327 12.995336 
L 15.62925 12.9973 
L 15.9315 12.999373 
L 16.23375 13.001562 
L 16.536 13.003872 
L 16.83825 13.00631 
L 17.1405 13.008884 
L 17.44275 13.011601 
L 17.745 13.014469 
L 18.04725 13.017497 
L 18.3495 13.020692 
L 18.65175 13.024065 
L 18.954 13.027625 
L 19.25625 13.031383 
L 19.5585 13.03535 
L 19.86075 13.039537 
L 20.163 13.043957 
L 20.46525 13.048622 
L 20.7675 13.053547 
L 21.06975 13.058744 
L 21.372 13.064231 
L 21.67425 13.070022 
L 21.9765 13.076134 
L 22.27875 13.082586 
L 22.581 13.089396 
L 22.88325 13.096584 
L 23.1855 13.10417 
L 23.48775 13.112178 
L 23.79 13.12063 
L 24.09225 13.129552 
L 24.3945 13.138968 
L 24.69675 13.148906 
L 24.999 13.159395 
L 25.30125 13.170467 
L 25.6035 13.182152 
L 25.90575 13.194485 
L 26.208 13.207501 
L 26.51025 13.221239 
L 26.8125 13.235738 
L 27.11475 13.25104 
L 27.417 13.26719 
L 27.71925 13.284235 
L 28.0215 13.302223 
L 28.32375 13.321206 
L 28.626 13.34124 
L 28.92825 13.362382 
L 29.2305 13.384694 
L 29.53275 13.408239 
L 29.835 13.433086 
L 30.13725 13.459306 
L 30.4395 13.486974 
L 30.74175 13.51617 
L 31.044 13.546977 
L 31.34625 13.579483 
L 31.6485 13.613783 
L 31.95075 13.649973 
L 32.253 13.688157 
L 32.55525 13.728444 
L 32.8575 13.770948 
L 33.15975 13.81579 
L 33.462 13.863096 
L 33.76425 13.913002 
L 34.0665 13.965647 
L 34.36875 14.021181 
L 34.671 14.079758 
L 34.97325 14.141543 
L 35.2755 14.20671 
L 35.57775 14.275439 
L 35.88 14.347922 
L 36.18225 14.42436 
L 36.4845 14.504963 
L 36.78675 14.589954 
L 37.089 14.679566 
L 37.39125 14.774044 
L 37.6935 14.873644 
L 37.99575 14.978636 
L 38.298 15.089302 
L 38.60025 15.205941 
L 38.9025 15.328861 
L 39.20475 15.458389 
L 39.507 15.594865 
L 39.80925 15.738646 
L 40.1115 15.890104 
L 40.41375 16.049629 
L 40.716 16.217628 
L 41.01825 16.394524 
L 41.3205 16.58076 
L 41.62275 16.776794 
L 41.925 16.983106 
L 42.22725 17.200192 
L 42.5295 17.428566 
L 42.83175 17.668761 
L 43.134 17.921328 
L 43.43625 18.186832 
L 43.7385 18.465858 
L 44.04075 18.759003 
L 44.343 19.066877 
L 44.64525 19.390101 
L 44.9475 19.729306 
L 45.24975 20.085123 
L 45.552 20.458186 
L 45.85425 20.849125 
L 46.1565 21.258554 
L 46.45875 21.687069 
L 46.761 22.135235 
L 47.06325 22.603577 
L 47.3655 23.092561 
L 47.66775 23.602578 
L 47.97 24.133926 
L 48.27225 24.68678 
L 48.5745 25.261164 
L 48.87675 25.856916 
L 49.179 26.473644 
L 49.48125 27.110678 
L 49.7835 27.767016 
L 50.08575 28.441257 
L 50.388 29.131535 
L 50.69025 29.835447 
L 50.9925 30.549979 
L 51.29475 31.271446 
L 51.597 31.995439 
L 51.89925 32.716813 
L 52.2015 33.429715 
L 52.50375 34.127683 
L 52.806 34.803821 
L 53.10825 35.451074 
L 53.4105 36.062597 
L 53.71275 36.632191 
L 54.015 37.15478 
L 54.31725 37.626855 
L 54.6195 38.046831 
L 54.92175 38.415245 
L 55.224 38.734769 
L 55.52625 39.010035 
L 55.8285 39.247314 
L 56.13075 39.454097 
L 56.433 39.63866 
L 56.73525 39.809646 
L 57.0375 39.975726 
L 57.33975 40.145337 
L 57.642 40.3265 
L 57.94425 40.526708 
L 58.2465 40.752856 
L 58.54875 41.011217 
L 58.851 41.307414 
L 59.15325 41.646417 
L 59.4555 42.032529 
L 59.75775 42.469369 
L 60.06 42.959861 
L 60.36225 43.506221 
L 60.6645 44.109946 
L 60.96675 44.771821 
L 61.269 45.491933 
L 61.57125 46.269694 
L 61.8735 47.103893 
L 62.17575 47.992741 
L 62.478 48.933937 
L 62.78025 49.924733 
L 63.0825 50.962007 
L 63.38475 52.04232 
L 63.687 53.161987 
L 63.98925 54.317123 
L 64.2915 55.503695 
L 64.59375 56.717557 
L 64.896 57.954481 
L 65.19825 59.210184 
L 65.5005 60.480347 
L 65.80275 61.760627 
L 66.105 63.046676 
L 66.40725 64.334151 
L 66.7095 65.618726 
L 67.01175 66.896113 
L 67.314 68.162077 
L 67.61625 69.412459 
L 67.9185 70.643205 
L 68.22075 71.850397 
L 68.523 73.030291 
L 68.82525 74.179356 
L 69.1275 75.294321 
L 69.42975 76.372214 
L 69.732 77.410414 
L 70.03425 78.406683 
L 70.3365 79.359207 
L 70.63875 80.266614 
L 70.941 81.127997 
L 71.24325 81.942907 
L 71.5455 82.711349 
L 71.84775 83.433751 
L 72.15 84.110937 
L 72.45225 84.744076 
L 72.7545 85.334633 
L 73.05675 85.884315 
L 73.359 86.395014 
L 73.66125 86.868753 
L 73.9635 87.307635 
L 74.26575 87.713802 
L 74.568 88.089389 
L 74.87025 88.436499 
L 75.1725 88.75717 
L 75.47475 89.053361 
L 75.777 89.326936 
L 76.07925 89.579653 
L 76.3815 89.813163 
L 76.68375 90.029004 
L 76.986 90.228604 
L 77.28825 90.413283 
L 77.5905 90.584258 
L 77.89275 90.742647 
L 78.195 90.889477 
L 78.49725 91.025688 
L 78.7995 91.152138 
L 79.10175 91.269615 
L 79.404 91.378834 
L 79.70625 91.480451 
L 80.0085 91.575065 
L 80.31075 91.663222 
L 80.613 91.74542 
L 80.91525 91.822115 
L 81.2175 91.893725 
L 81.51975 91.960629 
L 81.822 92.023177 
L 82.12425 92.081688 
L 82.4265 92.136456 
L 82.72875 92.187748 
L 83.031 92.235813 
L 83.33325 92.280876 
L 83.6355 92.323146 
L 83.93775 92.362816 
L 84.24 92.400063 
L 84.24 12.96 
L 84.24 12.96 
L 83.93775 12.96 
L 83.6355 12.96 
L 83.33325 12.96 
L 83.031 12.96 
L 82.72875 12.96 
L 82.4265 12.96 
L 82.12425 12.96 
L 81.822 12.96 
L 81.51975 12.96 
L 81.2175 12.96 
L 80.91525 12.96 
L 80.613 12.96 
L 80.31075 12.96 
L 80.0085 12.96 
L 79.70625 12.96 
L 79.404 12.96 
L 79.10175 12.96 
L 78.7995 12.96 
L 78.49725 12.96 
L 78.195 12.96 
L 77.89275 12.96 
L 77.5905 12.96 
L 77.28825 12.96 
L 76.986 12.96 
L 76.68375 12.96 
L 76.3815 12.96 
L 76.07925 12.96 
L 75.777 12.96 
L 75.47475 12.96 
L 75.1725 12.96 
L 74.87025 12.96 
L 74.568 12.96 
L 74.26575 12.96 
L 73.9635 12.96 
L 73.66125 12.96 
L 73.359 12.96 
L 73.05675 12.96 
L 72.7545 12.96 
L 72.45225 12.96 
L 72.15 12.96 
L 71.84775 12.96 
L 71.5455 12.96 
L 71.24325 12.96 
L 70.941 12.96 
L 70.63875 12.96 
L 70.3365 12.96 
L 70.03425 12.96 
L 69.732 12.96 
L 69.42975 12.96 
L 69.1275 12.96 
L 68.82525 12.96 
L 68.523 12.96 
L 68.22075 12.96 
L 67.9185 12.96 
L 67.61625 12.96 
L 67.314 12.96 
L 67.01175 12.96 
L 66.7095 12.96 
L 66.40725 12.96 
L 66.105 12.96 
L 65.80275 12.96 
L 65.5005 12.96 
L 65.19825 12.96 
L 64.896 12.96 
L 64.59375 12.96 
L 64.2915 12.96 
L 63.98925 12.96 
L 63.687 12.96 
L 63.38475 12.96 
L 63.0825 12.96 
L 62.78025 12.96 
L 62.478 12.96 
L 62.17575 12.96 
L 61.8735 12.96 
L 61.57125 12.96 
L 61.269 12.96 
L 60.96675 12.96 
L 60.6645 12.96 
L 60.36225 12.96 
L 60.06 12.96 
L 59.75775 12.96 
L 59.4555 12.96 
L 59.15325 12.96 
L 58.851 12.96 
L 58.54875 12.96 
L 58.2465 12.96 
L 57.94425 12.96 
L 57.642 12.96 
L 57.33975 12.96 
L 57.0375 12.96 
L 56.73525 12.96 
L 56.433 12.96 
L 56.13075 12.96 
L 55.8285 12.96 
L 55.52625 12.96 
L 55.224 12.96 
L 54.92175 12.96 
L 54.6195 12.96 
L 54.31725 12.96 
L 54.015 12.96 
L 53.71275 12.96 
L 53.4105 12.96 
L 53.10825 12.96 
L 52.806 12.96 
L 52.50375 12.96 
L 52.2015 12.96 
L 51.89925 12.96 
L 51.597 12.96 
L 51.29475 12.96 
L 50.9925 12.96 
L 50.69025 12.96 
L 50.388 12.96 
L 50.08575 12.96 
L 49.7835 12.96 
L 49.48125 12.96 
L 49.179 12.96 
L 48.87675 12.96 
L 48.5745 12.96 
L 48.27225 12.96 
L 47.97 12.96 
L 47.66775 12.96 
L 47.3655 12.96 
L 47.06325 12.96 
L 46.761 12.96 
L 46.45875 12.96 
L 46.1565 12.96 
L 45.85425 12.96 
L 45.552 12.96 
L 45.24975 12.96 
L 44.9475 12.96 
L 44.64525 12.96 
L 44.343 12.96 
L 44.04075 12.96 
L 43.7385 12.96 
L 43.43625 12.96 
L 43.134 12.96 
L 42.83175 12.96 
L 42.5295 12.96 
L 42.22725 12.96 
L 41.925 12.96 
L 41.62275 12.96 
L 41.3205 12.96 
L 41.01825 12.96 
L 40.716 12.96 
L 40.41375 12.96 
L 40.1115 12.96 
L 39.80925 12.96 
L 39.507 12.96 
L 39.20475 12.96 
L 38.9025 12.96 
L 38.60025 12.96 
L 38.298 12.96 
L 37.99575 12.96 
L 37.6935 12.96 
L 37.39125 12.96 
L 37.089 12.96 
L 36.78675 12.96 
L 36.4845 12.96 
L 36.18225 12.96 
L 35.88 12.96 
L 35.57775 12.96 
L 35.2755 12.96 
L 34.97325 12.96 
L 34.671 12.96 
L 34.36875 12.96 
L 34.0665 12.96 
L 33.76425 12.96 
L 33.462 12.96 
L 33.15975 12.96 
L 32.8575 12.96 
L 32.55525 12.96 
L 32.253 12.96 
L 31.95075 12.96 
L 31.6485 12.96 
L 31.34625 12.96 
L 31.044 12.96 
L 30.74175 12.96 
L 30.4395 12.96 
L 30.13725 12.96 
L 29.835 12.96 
L 29.53275 12.96 
L 29.2305 12.96 
L 28.92825 12.96 
L 28.626 12.96 
L 28.32375 12.96 
L 28.0215 12.96 
L 27.71925 12.96 
L 27.417 12.96 
L 27.11475 12.96 
L 26.8125 12.96 
L 26.51025 12.96 
L 26.208 12.96 
L 25.90575 12.96 
L 25.6035 12.96 
L 25.30125 12.96 
L 24.999 12.96 
L 24.69675 12.96 
L 24.3945 12.96 
L 24.09225 12.96 
L 23.79 12.96 
L 23.48775 12.96 
L 23.1855 12.96 
L 22.88325 12.96 
L 22.581 12.96 
L 22.27875 12.96 
L 21.9765 12.96 
L 21.67425 12.96 
L 21.372 12.96 
L 21.06975 12.96 
L 20.7675 12.96 
L 20.46525 12.96 
L 20.163 12.96 
L 19.86075 12.96 
L 19.5585 12.96 
L 19.25625 12.96 
L 18.954 12.96 
L 18.65175 12.96 
L 18.3495 12.96 
L 18.04725 12.96 
L 17.745 12.96 
L 17.44275 12.96 
L 17.1405 12.96 
L 16.83825 12.96 
L 16.536 12.96 
L 16.23375 12.96 
L 15.9315 12.96 
L 15.62925 12.96 
L 15.327 12.96 
L 15.02475 12.96 
L 14.7225 12.96 
L 14.42025 12.96 
L 14.118 12.96 
L 13.81575 12.96 
L 13.5135 12.96 
L 13.21125 12.96 
L 12.909 12.96 
L 12.60675 12.96 
L 12.3045 12.96 
L 12.00225 12.96 
L 11.7 12.96 
z
" clip-path="url(#pc7568d9798)" style="fill: #ffa09f; fill-opacity: 0.85"/>
   </g>
   <g id="matplotlib.axis_1">
    <g id="xtick_1">
     <g id="line2d_1">
      <defs>
       <path id="m51240bcdd3" d="M 0 0 
L 0 3.5 
" style="stroke: #000000; stroke-width: 0.8"/>
      </defs>
      <g>
       <use xlink:href="#m51240bcdd3" x="16.77709" y="96.12" style="stroke: #000000; stroke-width: 0.8"/>
      </g>
     </g>
     <g id="text_1">
      <!-- $\mathdefault{10^{-1}}$ -->
      <g transform="translate(9.72709 107.679063)">
       <text>
        <tspan x="0" y="-0.640625" style="font-size: 6px; font-family: 'DejaVu Sans'">1</tspan>
        <tspan x="3.817383" y="-0.640625" style="font-size: 6px; font-family: 'DejaVu Sans'">0</tspan>
        <tspan x="7.692188" y="-2.9375" style="font-size: 4.2px; font-family: 'DejaVu Sans'">−</tspan>
        <tspan x="11.211328" y="-2.9375" style="font-size: 4.2px; font-family: 'DejaVu Sans'">1</tspan>
       </text>
      </g>
     </g>
    </g>
    <g id="xtick_2">
     <g id="line2d_2">
      <g>
       <use xlink:href="#m51240bcdd3" x="33.642817" y="96.12" style="stroke: #000000; stroke-width: 0.8"/>
      </g>
     </g>
     <g id="text_2">
      <!-- $\mathdefault{10^{0}}$ -->
      <g transform="translate(28.362817 107.679063)">
       <text>
        <tspan x="0" y="-0.585938" style="font-size: 6px; font-family: 'DejaVu Sans'">1</tspan>
        <tspan x="3.817383" y="-0.585938" style="font-size: 6px; font-family: 'DejaVu Sans'">0</tspan>
        <tspan x="7.692188" y="-2.882812" style="font-size: 4.2px; font-family: 'DejaVu Sans'">0</tspan>
       </text>
      </g>
     </g>
    </g>
    <g id="xtick_3">
     <g id="line2d_3">
      <g>
       <use xlink:href="#m51240bcdd3" x="50.508545" y="96.12" style="stroke: #000000; stroke-width: 0.8"/>
      </g>
     </g>
     <g id="text_3">
      <!-- $\mathdefault{10^{1}}$ -->
      <g transform="translate(45.228545 107.679063)">
       <text>
        <tspan x="0" y="-0.640625" style="font-size: 6px; font-family: 'DejaVu Sans'">1</tspan>
        <tspan x="3.817383" y="-0.640625" style="font-size: 6px; font-family: 'DejaVu Sans'">0</tspan>
        <tspan x="7.692188" y="-2.9375" style="font-size: 4.2px; font-family: 'DejaVu Sans'">1</tspan>
       </text>
      </g>
     </g>
    </g>
    <g id="xtick_4">
     <g id="line2d_4">
      <g>
       <use xlink:href="#m51240bcdd3" x="67.374272" y="96.12" style="stroke: #000000; stroke-width: 0.8"/>
      </g>
     </g>
     <g id="text_4">
      <!-- $\mathdefault{10^{2}}$ -->
      <g transform="translate(62.094272 107.679063)">
       <text>
        <tspan x="0" y="-0.585938" style="font-size: 6px; font-family: 'DejaVu Sans'">1</tspan>
        <tspan x="3.817383" y="-0.585938" style="font-size: 6px; font-family: 'DejaVu Sans'">0</tspan>
        <tspan x="7.692188" y="-2.882812" style="font-size: 4.2px; font-family: 'DejaVu Sans'">2</tspan>
       </text>
      </g>
     </g>
    </g>
    <g id="xtick_5">
     <g id="line2d_5">
      <g>
       <use xlink:href="#m51240bcdd3" x="84.24" y="96.12" style="stroke: #000000; stroke-width: 0.8"/>
      </g>
     </g>
     <g id="text_5">
      <!-- $\mathdefault{10^{3}}$ -->
      <g transform="translate(78.96 107.679063)">
       <text>
        <tspan x="0" y="-0.585938" style="font-size: 6px; font-family: 'DejaVu Sans'">1</tspan>
        <tspan x="3.817383" y="-0.585938" style="font-size: 6px; font-family: 'DejaVu Sans'">0</tspan>
        <tspan x="7.692188" y="-2.882812" style="font-size: 4.2px; font-family: 'DejaVu Sans'">3</tspan>
       </text>
      </g>
     </g>
    </g>
    <g id="xtick_6"/>
    <g id="xtick_7"/>
    <g id="xtick_8"/>
    <g id="xtick_9"/>
    <g id="xtick_10"/>
    <g id="xtick_11"/>
    <g id="xtick_12"/>
    <g id="xtick_13"/>
    <g id="xtick_14"/>
    <g id="xtick_15"/>
    <g id="xtick_16"/>
    <g id="xtick_17"/>
    <g id="xtick_18"/>
    <g id="xtick_19"/>
    <g id="xtick_20"/>
    <g id="xtick_21"/>
    <g id="xtick_22"/>
    <g id="xtick_23"/>
    <g id="xtick_24"/>
    <g id="xtick_25"/>
    <g id="xtick_26"/>
    <g id="xtick_27"/>
    <g id="xtick_28"/>
    <g id="xtick_29"/>
    <g id="xtick_30"/>
    <g id="xtick_31"/>
    <g id="xtick_32"/>
    <g id="xtick_33"/>
    <g id="xtick_34"/>
    <g id="xtick_35"/>
    <g id="xtick_36"/>
    <g id="xtick_37"/>
    <g id="xtick_38"/>
    <g id="xtick_39"/>
    <g id="xtick_40"/>
    <g id="xtick_41"/>
    <g id="xtick_42"/>
    <g id="text_6">
     <text style="font-size: 6px; font-family: 'DejaVu Sans', 'Arial', 'Helvetica', 'Lucida Grande', 'Verdana', 'Geneva', 'Lucid', 'Avant Garde', sans-serif; text-anchor: middle" x="47.97" y="117.485938" transform="rotate(-0 47.97 117.485938)">Antibiotic concentration C (μg/mL)</text>
    </g>
   </g>
   <g id="matplotlib.axis_2">
    <g id="ytick_1">
     <g id="line2d_6">
      <defs>
       <path id="m3df8732d7c" d="M 0 0 
L -3.5 0 
" style="stroke: #000000; stroke-width: 0.8"/>
      </defs>
      <g>
       <use xlink:href="#m3df8732d7c" x="11.7" y="96.12" style="stroke: #000000; stroke-width: 0.8"/>
      </g>
     </g>
     <g id="text_7">
      <!-- $\mathdefault{10^{-5}}$ -->
      <g transform="translate(-9.4 98.399531)">
       <text>
        <tspan x="0" y="-0.640625" style="font-size: 6px; font-family: 'DejaVu Sans'">1</tspan>
        <tspan x="3.817383" y="-0.640625" style="font-size: 6px; font-family: 'DejaVu Sans'">0</tspan>
        <tspan x="7.692188" y="-2.9375" style="font-size: 4.2px; font-family: 'DejaVu Sans'">−</tspan>
        <tspan x="11.211328" y="-2.9375" style="font-size: 4.2px; font-family: 'DejaVu Sans'">5</tspan>
       </text>
      </g>
     </g>
    </g>
    <g id="ytick_2">
     <g id="line2d_7">
      <g>
       <use xlink:href="#m3df8732d7c" x="11.7" y="79.488" style="stroke: #000000; stroke-width: 0.8"/>
      </g>
     </g>
     <g id="text_8">
      <!-- $\mathdefault{10^{-4}}$ -->
      <g transform="translate(-9.4 81.767531)">
       <text>
        <tspan x="0" y="-0.640625" style="font-size: 6px; font-family: 'DejaVu Sans'">1</tspan>
        <tspan x="3.817383" y="-0.640625" style="font-size: 6px; font-family: 'DejaVu Sans'">0</tspan>
        <tspan x="7.692188" y="-2.9375" style="font-size: 4.2px; font-family: 'DejaVu Sans'">−</tspan>
        <tspan x="11.211328" y="-2.9375" style="font-size: 4.2px; font-family: 'DejaVu Sans'">4</tspan>
       </text>
      </g>
     </g>
    </g>
    <g id="ytick_3">
     <g id="line2d_8">
      <g>
       <use xlink:href="#m3df8732d7c" x="11.7" y="62.856" style="stroke: #000000; stroke-width: 0.8"/>
      </g>
     </g>
     <g id="text_9">
      <!-- $\mathdefault{10^{-3}}$ -->
      <g transform="translate(-9.4 65.135531)">
       <text>
        <tspan x="0" y="-0.585938" style="font-size: 6px; font-family: 'DejaVu Sans'">1</tspan>
        <tspan x="3.817383" y="-0.585938" style="font-size: 6px; font-family: 'DejaVu Sans'">0</tspan>
        <tspan x="7.692188" y="-2.882812" style="font-size: 4.2px; font-family: 'DejaVu Sans'">−</tspan>
        <tspan x="11.211328" y="-2.882812" style="font-size: 4.2px; font-family: 'DejaVu Sans'">3</tspan>
       </text>
      </g>
     </g>
    </g>
    <g id="ytick_4">
     <g id="line2d_9">
      <g>
       <use xlink:href="#m3df8732d7c" x="11.7" y="46.224" style="stroke: #000000; stroke-width: 0.8"/>
      </g>
     </g>
     <g id="text_10">
      <!-- $\mathdefault{10^{-2}}$ -->
      <g transform="translate(-9.4 48.503531)">
       <text>
        <tspan x="0" y="-0.585938" style="font-size: 6px; font-family: 'DejaVu Sans'">1</tspan>
        <tspan x="3.817383" y="-0.585938" style="font-size: 6px; font-family: 'DejaVu Sans'">0</tspan>
        <tspan x="7.692188" y="-2.882812" style="font-size: 4.2px; font-family: 'DejaVu Sans'">−</tspan>
        <tspan x="11.211328" y="-2.882812" style="font-size: 4.2px; font-family: 'DejaVu Sans'">2</tspan>
       </text>
      </g>
     </g>
    </g>
    <g id="ytick_5">
     <g id="line2d_10">
      <g>
       <use xlink:href="#m3df8732d7c" x="11.7" y="29.592" style="stroke: #000000; stroke-width: 0.8"/>
      </g>
     </g>
     <g id="text_11">
      <!-- $\mathdefault{10^{-1}}$ -->
      <g transform="translate(-9.4 31.871531)">
       <text>
        <tspan x="0" y="-0.640625" style="font-size: 6px; font-family: 'DejaVu Sans'">1</tspan>
        <tspan x="3.817383" y="-0.640625" style="font-size: 6px; font-family: 'DejaVu Sans'">0</tspan>
        <tspan x="7.692188" y="-2.9375" style="font-size: 4.2px; font-family: 'DejaVu Sans'">−</tspan>
        <tspan x="11.211328" y="-2.9375" style="font-size: 4.2px; font-family: 'DejaVu Sans'">1</tspan>
       </text>
      </g>
     </g>
    </g>
    <g id="ytick_6">
     <g id="line2d_11">
      <g>
       <use xlink:href="#m3df8732d7c" x="11.7" y="12.96" style="stroke: #000000; stroke-width: 0.8"/>
      </g>
     </g>
     <g id="text_12">
      <!-- $\mathdefault{10^{0}}$ -->
      <g transform="translate(-5.86 15.239531)">
       <text>
        <tspan x="0" y="-0.585938" style="font-size: 6px; font-family: 'DejaVu Sans'">1</tspan>
        <tspan x="3.817383" y="-0.585938" style="font-size: 6px; font-family: 'DejaVu Sans'">0</tspan>
        <tspan x="7.692188" y="-2.882812" style="font-size: 4.2px; font-family: 'DejaVu Sans'">0</tspan>
       </text>
      </g>
     </g>
    </g>
    <g id="ytick_7"/>
    <g id="ytick_8"/>
    <g id="ytick_9"/>
    <g id="ytick_10"/>
    <g id="ytick_11"/>
    <g id="ytick_12"/>
    <g id="ytick_13"/>
    <g id="ytick_14"/>
    <g id="ytick_15"/>
    <g id="ytick_16"/>
    <g id="ytick_17"/>
    <g id="ytick_18"/>
    <g id="ytick_19"/>
    <g id="ytick_20"/>
    <g id="ytick_21"/>
    <g id="ytick_22"/>
    <g id="ytick_23"/>
    <g id="ytick_24"/>
    <g id="ytick_25"/>
    <g id="ytick_26"/>
    <g id="ytick_27"/>
    <g id="ytick_28"/>
    <g id="ytick_29"/>
    <g id="ytick_30"/>
    <g id="ytick_31"/>
    <g id="ytick_32"/>
    <g id="ytick_33"/>
    <g id="ytick_34"/>
    <g id="ytick_35"/>
    <g id="ytick_36"/>
    <g id="ytick_37"/>
    <g id="ytick_38"/>
    <g id="ytick_39"/>
    <g id="ytick_40"/>
    <g id="ytick_41"/>
    <g id="ytick_42"/>
    <g id="ytick_43"/>
    <g id="ytick_44"/>
    <g id="ytick_45"/>
    <g id="ytick_46"/>
    <g id="text_13">
     <text style="font-size: 6px; font-family: 'DejaVu Sans', 'Arial', 'Helvetica', 'Lucida Grande', 'Verdana', 'Geneva', 'Lucid', 'Avant Garde', sans-serif; text-anchor: middle" x="-14.647812" y="54.54" transform="rotate(-90 -14.647812 54.54)">Frac of population at Ab removal</text>
    </g>
   </g>
   <g id="patch_3">
    <path d="M 11.7 96.12 
L 11.7 12.96 
" style="fill: none; stroke: #000000; stroke-width: 0.5; stroke-linejoin: miter; stroke-linecap: square"/>
   </g>
   <g id="patch_4">
    <path d="M 11.7 96.12 
L 84.24 96.12 
" style="fill: none; stroke: #000000; stroke-width: 0.5; stroke-linejoin: miter; stroke-linecap: square"/>
   </g>
  </g>
 </g>
 <defs>
  <clipPath id="pc7568d9798">
   <rect x="11.7" y="12.96" width="72.54" height="83.16"/>
  </clipPath>
 </defs>
</svg>
