<?xml version="1.0" encoding="utf-8" standalone="no"?>
<!DOCTYPE svg PUBLIC "-//W3C//DTD SVG 1.1//EN"
  "http://www.w3.org/Graphics/SVG/1.1/DTD/svg11.dtd">
<svg xmlns:xlink="http://www.w3.org/1999/xlink" width="108pt" height="108pt" viewBox="0 0 108 108" xmlns="http://www.w3.org/2000/svg" version="1.1">
 <metadata>
  <rdf:RDF xmlns:dc="http://purl.org/dc/elements/1.1/" xmlns:cc="http://creativecommons.org/ns#" xmlns:rdf="http://www.w3.org/1999/02/22-rdf-syntax-ns#">
   <cc:Work>
    <dc:type rdf:resource="http://purl.org/dc/dcmitype/StillImage"/>
    <dc:date>2026-02-16T18:34:13.792760</dc:date>
    <dc:format>image/svg+xml</dc:format>
    <dc:creator>
     <cc:Agent>
      <dc:title>Matplotlib v3.10.8, https://matplotlib.org/</dc:title>
     </cc:Agent>
    </dc:creator>
   </cc:Work>
  </rdf:RDF>
 </metadata>
 <defs>
  <style type="text/css">*{stroke-linejoin: round; stroke-linecap: butt}</style>
 </defs>
 <g id="figure_1">
  <g id="patch_1">
   <path d="M 0 108 
L 108 108 
L 108 0 
L 0 0 
L 0 108 
z
" style="fill: none"/>
  </g>
  <g id="axes_1">
   <g id="patch_2">
    <path d="M 13.5 96.12 
L 97.2 96.12 
L 97.2 12.96 
L 13.5 12.96 
L 13.5 96.12 
z
" style="fill: none"/>
   </g>
   <g id="QuadContourSet_1">
    <path d="M 81.855 72.170947 
L 84.645 72.260332 
L 87.435 72.323725 
L 90.225 72.37025 
L 93.015 72.405177 
L 95.805 72.431785 
L 95.805 72.158644 
L 95.805 69.339661 
L 95.805 66.520678 
L 95.805 63.701695 
L 95.805 60.882712 
L 95.805 58.063729 
L 95.805 55.244746 
L 95.805 52.425763 
L 95.805 49.60678 
L 95.805 46.787797 
L 95.805 43.968814 
L 95.805 41.149831 
L 95.805 38.330847 
L 95.805 35.511864 
L 95.805 32.692881 
L 95.805 29.873898 
L 95.805 27.054915 
L 95.805 24.235932 
L 95.805 21.416949 
L 95.805 18.597966 
L 95.805 15.778983 
L 95.805 12.96 
L 93.015 12.96 
L 90.225 12.96 
L 87.435 12.96 
L 84.645 12.96 
L 81.855 12.96 
L 79.065 12.96 
L 76.275 12.96 
L 73.485 12.96 
L 70.695 12.96 
L 67.905 12.96 
L 65.115 12.96 
L 62.325 12.96 
L 59.535 12.96 
L 56.745 12.96 
L 53.955 12.96 
L 52.68982 12.96 
L 53.117137 15.778983 
L 53.49409 18.597966 
L 53.830973 21.416949 
L 53.955 22.450965 
L 54.451094 24.235932 
L 55.155165 27.054915 
L 55.743222 29.873898 
L 56.242366 32.692881 
L 56.674739 35.511864 
L 56.745 35.94601 
L 57.573044 38.330847 
L 58.383583 41.149831 
L 59.039016 43.968814 
L 59.535 46.452025 
L 59.675801 46.787797 
L 60.860583 49.60678 
L 61.755771 52.425763 
L 62.325 54.51758 
L 62.701134 55.244746 
L 64.103559 58.063729 
L 65.115 60.854999 
L 65.132463 60.882712 
L 67.042505 63.701695 
L 67.905 65.165774 
L 69.046147 66.520678 
L 70.695 68.186361 
L 72.082228 69.339661 
L 73.485 69.962225 
L 76.275 70.904228 
L 79.065 71.66246 
L 81.622743 72.158644 
z
" clip-path="url(#pab285cd12d)" style="fill: #81a4fb"/>
    <path d="M 73.485 75.265501 
L 76.275 75.675136 
L 79.065 75.992863 
L 81.855 76.231663 
L 84.645 76.409251 
L 87.435 76.541977 
L 90.225 76.64224 
L 93.015 76.718766 
L 95.805 76.777655 
L 95.805 74.977627 
L 95.805 72.431785 
L 93.015 72.405177 
L 90.225 72.37025 
L 87.435 72.323725 
L 84.645 72.260332 
L 81.855 72.170947 
L 81.622743 72.158644 
L 79.065 71.66246 
L 76.275 70.904228 
L 73.485 69.962225 
L 72.082228 69.339661 
L 70.695 68.186361 
L 69.046147 66.520678 
L 67.905 65.165774 
L 67.042505 63.701695 
L 65.132463 60.882712 
L 65.115 60.854999 
L 64.103559 58.063729 
L 62.701134 55.244746 
L 62.325 54.51758 
L 61.755771 52.425763 
L 60.860583 49.60678 
L 59.675801 46.787797 
L 59.535 46.452025 
L 59.039016 43.968814 
L 58.383583 41.149831 
L 57.573044 38.330847 
L 56.745 35.94601 
L 56.674739 35.511864 
L 56.242366 32.692881 
L 55.743222 29.873898 
L 55.155165 27.054915 
L 54.451094 24.235932 
L 53.955 22.450965 
L 53.830973 21.416949 
L 53.49409 18.597966 
L 53.117137 15.778983 
L 52.68982 12.96 
L 51.165 12.96 
L 48.375 12.96 
L 46.047867 12.96 
L 46.562999 15.778983 
L 47.048613 18.597966 
L 47.509817 21.416949 
L 47.951393 24.235932 
L 48.375 27.034571 
L 48.379839 27.054915 
L 49.071253 29.873898 
L 49.710555 32.692881 
L 50.308602 35.511864 
L 50.875339 38.330847 
L 51.165 39.751917 
L 51.590673 41.149831 
L 52.428461 43.968814 
L 53.198172 46.787797 
L 53.920243 49.60678 
L 53.955 49.730454 
L 55.016316 52.425763 
L 56.018597 55.244746 
L 56.745 57.361914 
L 57.077513 58.063729 
L 58.449885 60.882712 
L 59.535 63.294067 
L 59.7756 63.701695 
L 61.572233 66.520678 
L 62.325 67.615559 
L 63.71986 69.339661 
L 65.115 70.734549 
L 66.663546 72.158644 
L 67.905 72.862067 
L 70.695 74.339872 
L 72.024582 74.977627 
z
" clip-path="url(#pab285cd12d)" style="fill: #b1cbfc"/>
    <path d="M 70.695 80.660033 
L 73.485 80.945667 
L 76.275 81.180641 
L 79.065 81.369993 
L 81.855 81.519997 
L 84.645 81.637463 
L 87.435 81.728899 
L 90.225 81.799953 
L 93.015 81.855212 
L 95.805 81.898266 
L 95.805 80.615593 
L 95.805 77.79661 
L 95.805 76.777655 
L 93.015 76.718766 
L 90.225 76.64224 
L 87.435 76.541977 
L 84.645 76.409251 
L 81.855 76.231663 
L 79.065 75.992863 
L 76.275 75.675136 
L 73.485 75.265501 
L 72.024582 74.977627 
L 70.695 74.339872 
L 67.905 72.862067 
L 66.663546 72.158644 
L 65.115 70.734549 
L 63.71986 69.339661 
L 62.325 67.615559 
L 61.572233 66.520678 
L 59.7756 63.701695 
L 59.535 63.294067 
L 58.449885 60.882712 
L 57.077513 58.063729 
L 56.745 57.361914 
L 56.018597 55.244746 
L 55.016316 52.425763 
L 53.955 49.730454 
L 53.920243 49.60678 
L 53.198172 46.787797 
L 52.428461 43.968814 
L 51.590673 41.149831 
L 51.165 39.751917 
L 50.875339 38.330847 
L 50.308602 35.511864 
L 49.710555 32.692881 
L 49.071253 29.873898 
L 48.379839 27.054915 
L 48.375 27.034571 
L 47.951393 24.235932 
L 47.509817 21.416949 
L 47.048613 18.597966 
L 46.562999 15.778983 
L 46.047867 12.96 
L 45.585 12.96 
L 42.795 12.96 
L 40.005 12.96 
L 37.215 12.96 
L 34.425 12.96 
L 33.869271 12.96 
L 34.243405 15.778983 
L 34.425 17.112185 
L 34.681818 18.597966 
L 35.178065 21.416949 
L 35.673108 24.235932 
L 36.16742 27.054915 
L 36.661757 29.873898 
L 37.157292 32.692881 
L 37.215 33.00384 
L 37.797538 35.511864 
L 38.452965 38.330847 
L 39.105517 41.149831 
L 39.75722 43.968814 
L 40.005 44.988796 
L 40.544319 46.787797 
L 41.406409 49.60678 
L 42.262533 52.425763 
L 42.795 54.114645 
L 43.226407 55.244746 
L 44.357097 58.063729 
L 45.478971 60.882712 
L 45.585 61.11807 
L 46.934364 63.701695 
L 48.375 66.43909 
L 48.424115 66.520678 
L 50.387336 69.339661 
L 51.165 70.309349 
L 52.752837 72.158644 
L 53.955 73.252924 
L 55.890637 74.977627 
L 56.745 75.493628 
L 59.535 77.121501 
L 60.703099 77.79661 
L 62.325 78.31737 
L 65.115 79.146334 
L 67.905 79.950057 
L 70.348164 80.615593 
z
" clip-path="url(#pab285cd12d)" style="fill: #ebd3c6"/>
    <path d="M 73.485 86.254385 
L 76.275 86.434532 
L 79.065 86.578976 
L 81.855 86.694536 
L 84.645 86.786585 
L 87.435 86.859565 
L 90.225 86.917214 
L 93.015 86.962645 
L 95.805 86.998403 
L 95.805 86.253559 
L 95.805 83.434576 
L 95.805 81.898266 
L 93.015 81.855212 
L 90.225 81.799953 
L 87.435 81.728899 
L 84.645 81.637463 
L 81.855 81.519997 
L 79.065 81.369993 
L 76.275 81.180641 
L 73.485 80.945667 
L 70.695 80.660033 
L 70.348164 80.615593 
L 67.905 79.950057 
L 65.115 79.146334 
L 62.325 78.31737 
L 60.703099 77.79661 
L 59.535 77.121501 
L 56.745 75.493628 
L 55.890637 74.977627 
L 53.955 73.252924 
L 52.752837 72.158644 
L 51.165 70.309349 
L 50.387336 69.339661 
L 48.424115 66.520678 
L 48.375 66.43909 
L 46.934364 63.701695 
L 45.585 61.11807 
L 45.478971 60.882712 
L 44.357097 58.063729 
L 43.226407 55.244746 
L 42.795 54.114645 
L 42.262533 52.425763 
L 41.406409 49.60678 
L 40.544319 46.787797 
L 40.005 44.988796 
L 39.75722 43.968814 
L 39.105517 41.149831 
L 38.452965 38.330847 
L 37.797538 35.511864 
L 37.215 33.00384 
L 37.157292 32.692881 
L 36.661757 29.873898 
L 36.16742 27.054915 
L 35.673108 24.235932 
L 35.178065 21.416949 
L 34.681818 18.597966 
L 34.425 17.112185 
L 34.243405 15.778983 
L 33.869271 12.96 
L 31.635 12.96 
L 28.845 12.96 
L 26.055 12.96 
L 23.265 12.96 
L 20.475 12.96 
L 17.685 12.96 
L 16.954908 12.96 
L 17.378853 15.778983 
L 17.685 17.71103 
L 17.820056 18.597966 
L 18.268554 21.416949 
L 18.740392 24.235932 
L 19.239219 27.054915 
L 19.769419 29.873898 
L 20.336302 32.692881 
L 20.475 33.341069 
L 20.921098 35.511864 
L 21.537395 38.330847 
L 22.199368 41.149831 
L 22.917026 43.968814 
L 23.265 45.229575 
L 23.679833 46.787797 
L 24.490556 49.60678 
L 25.381726 52.425763 
L 26.055 54.346096 
L 26.360761 55.244746 
L 27.41556 58.063729 
L 28.610313 60.882712 
L 28.845 61.372291 
L 29.931282 63.701695 
L 31.457445 66.520678 
L 31.635 66.802097 
L 33.207504 69.339661 
L 34.425 70.964967 
L 35.3153 72.158644 
L 37.215 74.215683 
L 37.926248 74.977627 
L 40.005 76.715051 
L 41.343721 77.79661 
L 42.795 78.680514 
L 45.585 80.263273 
L 46.232629 80.615593 
L 48.375 81.469371 
L 51.165 82.456474 
L 53.955 83.350402 
L 54.234095 83.434576 
L 56.745 83.998425 
L 59.535 84.52515 
L 62.325 84.972945 
L 65.115 85.359937 
L 67.905 85.698043 
L 70.695 85.994664 
L 73.474398 86.253559 
z
" clip-path="url(#pab285cd12d)" style="fill: #f08a6c"/>
    <path d="M 62.325 89.278845 
L 65.115 89.626269 
L 67.905 89.898778 
L 70.695 90.11277 
L 73.485 90.281263 
L 76.275 90.414485 
L 79.065 90.52034 
L 81.855 90.604826 
L 84.645 90.672453 
L 87.435 90.726634 
L 90.225 90.770015 
L 93.015 90.804695 
L 95.805 90.832373 
L 95.805 89.072542 
L 95.805 86.998403 
L 93.015 86.962645 
L 90.225 86.917214 
L 87.435 86.859565 
L 84.645 86.786585 
L 81.855 86.694536 
L 79.065 86.578976 
L 76.275 86.434532 
L 73.485 86.254385 
L 73.474398 86.253559 
L 70.695 85.994664 
L 67.905 85.698043 
L 65.115 85.359937 
L 62.325 84.972945 
L 59.535 84.52515 
L 56.745 83.998425 
L 54.234095 83.434576 
L 53.955 83.350402 
L 51.165 82.456474 
L 48.375 81.469371 
L 46.232629 80.615593 
L 45.585 80.263273 
L 42.795 78.680514 
L 41.343721 77.79661 
L 40.005 76.715051 
L 37.926248 74.977627 
L 37.215 74.215683 
L 35.3153 72.158644 
L 34.425 70.964967 
L 33.207504 69.339661 
L 31.635 66.802097 
L 31.457445 66.520678 
L 29.931282 63.701695 
L 28.845 61.372291 
L 28.610313 60.882712 
L 27.41556 58.063729 
L 26.360761 55.244746 
L 26.055 54.346096 
L 25.381726 52.425763 
L 24.490556 49.60678 
L 23.679833 46.787797 
L 23.265 45.229575 
L 22.917026 43.968814 
L 22.199368 41.149831 
L 21.537395 38.330847 
L 20.921098 35.511864 
L 20.475 33.341069 
L 20.336302 32.692881 
L 19.769419 29.873898 
L 19.239219 27.054915 
L 18.740392 24.235932 
L 18.268554 21.416949 
L 17.820056 18.597966 
L 17.685 17.71103 
L 17.378853 15.778983 
L 16.954908 12.96 
L 14.895 12.96 
L 14.895 15.778983 
L 14.895 18.597966 
L 14.895 21.416949 
L 14.895 24.235932 
L 14.895 27.054915 
L 14.895 29.873898 
L 14.895 32.692881 
L 14.895 35.511864 
L 14.895 38.330847 
L 14.895 41.149831 
L 14.895 43.968814 
L 14.895 46.787797 
L 14.895 49.60678 
L 14.895 52.425763 
L 14.895 55.244746 
L 14.895 58.063729 
L 14.895 60.882712 
L 14.895 63.701695 
L 14.895 66.520678 
L 14.895 69.339661 
L 14.895 72.158644 
L 14.895 74.84184 
L 15.014004 74.977627 
L 17.685 77.377775 
L 18.166394 77.79661 
L 20.475 79.390499 
L 22.473774 80.615593 
L 23.265 81.016212 
L 26.055 82.341742 
L 28.845 83.412886 
L 28.902083 83.434576 
L 31.635 84.397558 
L 34.425 85.188688 
L 37.215 85.828233 
L 39.396154 86.253559 
L 40.005 86.403595 
L 42.795 87.046008 
L 45.585 87.557682 
L 48.375 87.96762 
L 51.165 88.298901 
L 53.955 88.569909 
L 56.745 88.795242 
L 59.535 88.986349 
L 60.922265 89.072542 
z
" clip-path="url(#pab285cd12d)" style="fill: #cc403a"/>
    <path d="M 17.685 94.710508 
L 20.475 94.710508 
L 23.265 94.710508 
L 26.055 94.710508 
L 28.845 94.710508 
L 31.635 94.710508 
L 34.425 94.710508 
L 37.215 94.710508 
L 40.005 94.710508 
L 42.795 94.710508 
L 45.585 94.710508 
L 48.375 94.710508 
L 51.165 94.710508 
L 53.955 94.710508 
L 56.745 94.710508 
L 59.535 94.710508 
L 62.325 94.710508 
L 65.115 94.710508 
L 67.905 94.710508 
L 70.695 94.710508 
L 73.485 94.710508 
L 76.275 94.710508 
L 79.065 94.710508 
L 81.855 94.710508 
L 84.645 94.710508 
L 87.435 94.710508 
L 90.225 94.710508 
L 93.015 94.710508 
L 95.805 94.710508 
L 95.805 91.891525 
L 95.805 90.832373 
L 93.015 90.804695 
L 90.225 90.770015 
L 87.435 90.726634 
L 84.645 90.672453 
L 81.855 90.604826 
L 79.065 90.52034 
L 76.275 90.414485 
L 73.485 90.281263 
L 70.695 90.11277 
L 67.905 89.898778 
L 65.115 89.626269 
L 62.325 89.278845 
L 60.922265 89.072542 
L 59.535 88.986349 
L 56.745 88.795242 
L 53.955 88.569909 
L 51.165 88.298901 
L 48.375 87.96762 
L 45.585 87.557682 
L 42.795 87.046008 
L 40.005 86.403595 
L 39.396154 86.253559 
L 37.215 85.828233 
L 34.425 85.188688 
L 31.635 84.397558 
L 28.902083 83.434576 
L 28.845 83.412886 
L 26.055 82.341742 
L 23.265 81.016212 
L 22.473774 80.615593 
L 20.475 79.390499 
L 18.166394 77.79661 
L 17.685 77.377775 
L 15.014004 74.977627 
L 14.895 74.84184 
L 14.895 74.977627 
L 14.895 77.79661 
L 14.895 80.615593 
L 14.895 83.434576 
L 14.895 86.253559 
L 14.895 89.072542 
L 14.895 91.891525 
L 14.895 94.710508 
z
" clip-path="url(#pab285cd12d)" style="fill: #b70d28"/>
   </g>
   <g id="matplotlib.axis_1">
    <g id="xtick_1">
     <g id="line2d_1">
      <defs>
       <path id="mae52158d9b" d="M 0 0 
L 0 3.5 
" style="stroke: #000000; stroke-width: 0.8"/>
      </defs>
      <g>
       <use xlink:href="#mae52158d9b" x="13.5" y="96.12" style="stroke: #000000; stroke-width: 0.8"/>
      </g>
     </g>
     <g id="text_1">
      <text style="font-size: 6px; font-family: 'DejaVu Sans', 'Arial', 'Helvetica', 'Lucida Grande', 'Verdana', 'Geneva', 'Lucid', 'Avant Garde', sans-serif; text-anchor: middle" x="13.5" y="107.679063" transform="rotate(-0 13.5 107.679063)">1</text>
     </g>
    </g>
    <g id="xtick_2">
     <g id="line2d_2">
      <g>
       <use xlink:href="#mae52158d9b" x="41.4" y="96.12" style="stroke: #000000; stroke-width: 0.8"/>
      </g>
     </g>
     <g id="text_2">
      <text style="font-size: 6px; font-family: 'DejaVu Sans', 'Arial', 'Helvetica', 'Lucida Grande', 'Verdana', 'Geneva', 'Lucid', 'Avant Garde', sans-serif; text-anchor: middle" x="41.4" y="107.679063" transform="rotate(-0 41.4 107.679063)">10</text>
     </g>
    </g>
    <g id="xtick_3">
     <g id="line2d_3">
      <g>
       <use xlink:href="#mae52158d9b" x="69.3" y="96.12" style="stroke: #000000; stroke-width: 0.8"/>
      </g>
     </g>
     <g id="text_3">
      <text style="font-size: 6px; font-family: 'DejaVu Sans', 'Arial', 'Helvetica', 'Lucida Grande', 'Verdana', 'Geneva', 'Lucid', 'Avant Garde', sans-serif; text-anchor: middle" x="69.3" y="107.679063" transform="rotate(-0 69.3 107.679063)">100</text>
     </g>
    </g>
    <g id="xtick_4">
     <g id="line2d_4">
      <g>
       <use xlink:href="#mae52158d9b" x="97.2" y="96.12" style="stroke: #000000; stroke-width: 0.8"/>
      </g>
     </g>
     <g id="text_4">
      <text style="font-size: 6px; font-family: 'DejaVu Sans', 'Arial', 'Helvetica', 'Lucida Grande', 'Verdana', 'Geneva', 'Lucid', 'Avant Garde', sans-serif; text-anchor: middle" x="97.2" y="107.679063" transform="rotate(-0 97.2 107.679063)">1000</text>
     </g>
    </g>
    <g id="text_5">
     <text style="font-size: 6px; font-family: 'DejaVu Sans', 'Arial', 'Helvetica', 'Lucida Grande', 'Verdana', 'Geneva', 'Lucid', 'Avant Garde', sans-serif; text-anchor: middle" x="55.35" y="117.485938" transform="rotate(-0 55.35 117.485938)">C (µg/mL)</text>
    </g>
   </g>
   <g id="matplotlib.axis_2">
    <g id="ytick_1">
     <g id="line2d_5">
      <defs>
       <path id="m852aed09d0" d="M 0 0 
L -3.5 0 
" style="stroke: #000000; stroke-width: 0.8"/>
      </defs>
      <g>
       <use xlink:href="#m852aed09d0" x="13.5" y="96.12" style="stroke: #000000; stroke-width: 0.8"/>
      </g>
     </g>
     <g id="text_6">
      <text style="font-size: 6px; font-family: 'DejaVu Sans', 'Arial', 'Helvetica', 'Lucida Grande', 'Verdana', 'Geneva', 'Lucid', 'Avant Garde', sans-serif; text-anchor: end" x="6.5" y="98.399531" transform="rotate(-0 6.5 98.399531)">0</text>
     </g>
    </g>
    <g id="ytick_2">
     <g id="line2d_6">
      <g>
       <use xlink:href="#m852aed09d0" x="13.5" y="79.206102" style="stroke: #000000; stroke-width: 0.8"/>
      </g>
     </g>
     <g id="text_7">
      <text style="font-size: 6px; font-family: 'DejaVu Sans', 'Arial', 'Helvetica', 'Lucida Grande', 'Verdana', 'Geneva', 'Lucid', 'Avant Garde', sans-serif; text-anchor: end" x="6.5" y="81.485633" transform="rotate(-0 6.5 81.485633)">2</text>
     </g>
    </g>
    <g id="ytick_3">
     <g id="line2d_7">
      <g>
       <use xlink:href="#m852aed09d0" x="13.5" y="62.292203" style="stroke: #000000; stroke-width: 0.8"/>
      </g>
     </g>
     <g id="text_8">
      <text style="font-size: 6px; font-family: 'DejaVu Sans', 'Arial', 'Helvetica', 'Lucida Grande', 'Verdana', 'Geneva', 'Lucid', 'Avant Garde', sans-serif; text-anchor: end" x="6.5" y="64.571735" transform="rotate(-0 6.5 64.571735)">4</text>
     </g>
    </g>
    <g id="ytick_4">
     <g id="line2d_8">
      <g>
       <use xlink:href="#m852aed09d0" x="13.5" y="45.378305" style="stroke: #000000; stroke-width: 0.8"/>
      </g>
     </g>
     <g id="text_9">
      <text style="font-size: 6px; font-family: 'DejaVu Sans', 'Arial', 'Helvetica', 'Lucida Grande', 'Verdana', 'Geneva', 'Lucid', 'Avant Garde', sans-serif; text-anchor: end" x="6.5" y="47.657836" transform="rotate(-0 6.5 47.657836)">6</text>
     </g>
    </g>
    <g id="ytick_5">
     <g id="line2d_9">
      <g>
       <use xlink:href="#m852aed09d0" x="13.5" y="28.464407" style="stroke: #000000; stroke-width: 0.8"/>
      </g>
     </g>
     <g id="text_10">
      <text style="font-size: 6px; font-family: 'DejaVu Sans', 'Arial', 'Helvetica', 'Lucida Grande', 'Verdana', 'Geneva', 'Lucid', 'Avant Garde', sans-serif; text-anchor: end" x="6.5" y="30.743938" transform="rotate(-0 6.5 30.743938)">8</text>
     </g>
    </g>
    <g id="text_11">
     <text style="font-size: 6px; font-family: 'DejaVu Sans', 'Arial', 'Helvetica', 'Lucida Grande', 'Verdana', 'Geneva', 'Lucid', 'Avant Garde', sans-serif; text-anchor: middle" x="-2.565312" y="54.54" transform="rotate(-90 -2.565312 54.54)">τ (h)</text>
    </g>
   </g>
   <g id="QuadContourSet_2">
    <path clip-path="url(#pab285cd12d)" style="fill: none; stroke: #000000"/>
    <path d="M 95.805 72.431785 
L 93.015 72.405177 
L 90.225 72.37025 
L 87.435 72.323725 
L 84.645 72.260332 
L 81.855 72.170947 
L 81.622743 72.158644 
L 81.571313 72.148667 
M 64.234601 58.425363 
L 64.103559 58.063729 
L 62.701134 55.244746 
L 62.325 54.51758 
L 61.755771 52.425763 
L 60.860583 49.60678 
L 59.675801 46.787797 
L 59.535 46.452025 
L 59.039016 43.968814 
L 58.383583 41.149831 
L 57.573044 38.330847 
L 56.745 35.94601 
L 56.674739 35.511864 
L 56.242366 32.692881 
L 55.743222 29.873898 
L 55.155165 27.054915 
L 54.451094 24.235932 
L 53.955 22.450965 
L 53.830973 21.416949 
L 53.49409 18.597966 
L 53.117137 15.778983 
L 52.68982 12.96 
" clip-path="url(#pab285cd12d)" style="fill: none; stroke: #000000"/>
    <path d="M 95.805 76.777655 
L 93.015 76.718766 
L 90.225 76.64224 
L 87.435 76.541977 
L 84.645 76.409251 
L 81.855 76.231663 
L 79.065 75.992863 
L 76.275 75.675136 
L 73.485 75.265501 
L 72.024582 74.977627 
L 70.695 74.339872 
L 67.905 72.862067 
L 66.663546 72.158644 
L 65.115 70.734549 
L 63.71986 69.339661 
L 62.325 67.615559 
L 61.572233 66.520678 
L 59.7756 63.701695 
L 59.535 63.294067 
L 58.449885 60.882712 
L 57.077513 58.063729 
L 56.745 57.361914 
L 56.018597 55.244746 
L 55.016316 52.425763 
L 53.955 49.730454 
L 53.920243 49.60678 
L 53.198172 46.787797 
L 52.428461 43.968814 
L 51.590673 41.149831 
L 51.165 39.751917 
L 50.943271 38.664121 
M 46.477997 15.313821 
L 46.047867 12.96 
" clip-path="url(#pab285cd12d)" style="fill: none; stroke: #000000"/>
    <path d="M 95.805 81.898266 
L 93.015 81.855212 
L 90.225 81.799953 
L 87.435 81.728899 
L 84.645 81.637463 
L 81.855 81.519997 
L 79.065 81.369993 
L 76.275 81.180641 
L 73.485 80.945667 
L 70.695 80.660033 
L 70.348164 80.615593 
L 67.905 79.950057 
L 65.115 79.146334 
L 62.325 78.31737 
L 60.703099 77.79661 
L 59.535 77.121501 
L 56.745 75.493628 
L 55.890637 74.977627 
L 53.955 73.252924 
L 52.752837 72.158644 
L 51.165 70.309349 
L 50.387336 69.339661 
L 48.424115 66.520678 
L 48.375 66.43909 
L 46.934364 63.701695 
L 45.585 61.11807 
L 45.478971 60.882712 
L 44.357097 58.063729 
L 43.256144 55.318883 
M 37.102308 32.380091 
L 36.661757 29.873898 
L 36.16742 27.054915 
L 35.673108 24.235932 
L 35.178065 21.416949 
L 34.681818 18.597966 
L 34.425 17.112185 
L 34.243405 15.778983 
L 33.869271 12.96 
" clip-path="url(#pab285cd12d)" style="fill: none; stroke: #000000"/>
    <path d="M 95.805 86.998403 
L 93.015 86.962645 
L 90.225 86.917214 
L 87.435 86.859565 
L 84.645 86.786585 
L 81.855 86.694536 
L 79.065 86.578976 
L 76.275 86.434532 
L 73.485 86.254385 
L 73.474398 86.253559 
L 70.695 85.994664 
L 67.905 85.698043 
L 65.115 85.359937 
L 62.325 84.972945 
L 59.535 84.52515 
L 56.745 83.998425 
L 54.234095 83.434576 
L 53.955 83.350402 
L 51.165 82.456474 
L 48.375 81.469371 
L 46.232629 80.615593 
L 45.585 80.263273 
L 42.795 78.680514 
L 41.343721 77.79661 
L 40.005 76.715051 
L 37.926248 74.977627 
L 37.215 74.215683 
L 35.3153 72.158644 
L 34.533237 71.110087 
M 24.531717 49.736981 
L 24.490556 49.60678 
L 23.679833 46.787797 
L 23.265 45.229575 
L 22.917026 43.968814 
L 22.199368 41.149831 
L 21.537395 38.330847 
L 20.921098 35.511864 
L 20.475 33.341069 
L 20.336302 32.692881 
L 19.769419 29.873898 
L 19.239219 27.054915 
L 18.740392 24.235932 
L 18.268554 21.416949 
L 17.820056 18.597966 
L 17.685 17.71103 
L 17.378853 15.778983 
L 16.954908 12.96 
" clip-path="url(#pab285cd12d)" style="fill: none; stroke: #000000"/>
    <path d="M 95.805 90.832373 
L 93.015 90.804695 
L 90.225 90.770015 
L 87.435 90.726634 
L 84.645 90.672453 
L 81.855 90.604826 
L 79.065 90.52034 
L 76.787391 90.433925 
M 53.468838 88.522685 
L 51.165 88.298901 
L 48.375 87.96762 
L 45.585 87.557682 
L 42.795 87.046008 
L 40.005 86.403595 
L 39.396154 86.253559 
L 37.215 85.828233 
L 34.425 85.188688 
L 31.635 84.397558 
L 28.902083 83.434576 
L 28.845 83.412886 
L 26.055 82.341742 
L 23.265 81.016212 
L 22.473774 80.615593 
L 20.475 79.390499 
L 18.166394 77.79661 
L 17.685 77.377775 
L 15.014004 74.977627 
L 14.895 74.84184 
" clip-path="url(#pab285cd12d)" style="fill: none; stroke: #000000"/>
    <path clip-path="url(#pab285cd12d)" style="fill: none; stroke: #000000"/>
   </g>
   <g id="patch_3">
    <path d="M 13.5 96.12 
L 13.5 12.96 
" style="fill: none; stroke: #000000; stroke-width: 0.5; stroke-linejoin: miter; stroke-linecap: square"/>
   </g>
   <g id="patch_4">
    <path d="M 13.5 96.12 
L 97.2 96.12 
" style="fill: none; stroke: #000000; stroke-width: 0.5; stroke-linejoin: miter; stroke-linecap: square"/>
   </g>
   <g id="text_12">
    <text style="font-size: 6px; font-family: 'DejaVu Sans', 'Arial', 'Helvetica', 'Lucida Grande', 'Verdana', 'Geneva', 'Lucid', 'Avant Garde', sans-serif; text-anchor: middle" x="55.35" y="6.96" transform="rotate(-0 55.35 6.96)">Survival rate isoclines</text>
   </g>
   <g id="text_13">
    <g clip-path="url(#pab285cd12d)">
     <text style="font-size: 6px; font-family: 'DejaVu Sans', 'Arial', 'Helvetica', 'Lucida Grande', 'Verdana', 'Geneva', 'Lucid', 'Avant Garde', sans-serif" transform="translate(62.875036 64.268388) rotate(-322.476858)">0.001</text>
    </g>
   </g>
   <g id="text_14">
    <g clip-path="url(#pab285cd12d)">
     <text style="font-size: 6px; font-family: 'DejaVu Sans', 'Arial', 'Helvetica', 'Lucida Grande', 'Verdana', 'Geneva', 'Lucid', 'Avant Garde', sans-serif" transform="translate(45.103284 18.945258) rotate(-281.088979)">0.010</text>
    </g>
   </g>
   <g id="text_15">
    <g clip-path="url(#pab285cd12d)">
     <text style="font-size: 6px; font-family: 'DejaVu Sans', 'Arial', 'Helvetica', 'Lucida Grande', 'Verdana', 'Geneva', 'Lucid', 'Avant Garde', sans-serif" transform="translate(35.935081 36.101565) rotate(-285.000562)">0.100</text>
    </g>
   </g>
   <g id="text_16">
    <g clip-path="url(#pab285cd12d)">
     <text style="font-size: 6px; font-family: 'DejaVu Sans', 'Arial', 'Helvetica', 'Lucida Grande', 'Verdana', 'Geneva', 'Lucid', 'Avant Garde', sans-serif" transform="translate(23.494397 53.788365) rotate(-294.885066)">0.500</text>
    </g>
   </g>
   <g id="text_17">
    <g clip-path="url(#pab285cd12d)">
     <text style="font-size: 6px; font-family: 'DejaVu Sans', 'Arial', 'Helvetica', 'Lucida Grande', 'Verdana', 'Geneva', 'Lucid', 'Avant Garde', sans-serif" transform="translate(56.41465 90.524186) rotate(-354.981062)">0.900</text>
    </g>
   </g>
  </g>
 </g>
 <defs>
  <clipPath id="pab285cd12d">
   <rect x="13.5" y="12.96" width="83.7" height="83.16"/>
  </clipPath>
 </defs>
</svg>
