<?xml version="1.0" encoding="utf-8" standalone="no"?>
<!DOCTYPE svg PUBLIC "-//W3C//DTD SVG 1.1//EN"
  "http://www.w3.org/Graphics/SVG/1.1/DTD/svg11.dtd">
<svg xmlns:xlink="http://www.w3.org/1999/xlink" width="108pt" height="108pt" viewBox="0 0 108 108" xmlns="http://www.w3.org/2000/svg" version="1.1">
 <metadata>
  <rdf:RDF xmlns:dc="http://purl.org/dc/elements/1.1/" xmlns:cc="http://creativecommons.org/ns#" xmlns:rdf="http://www.w3.org/1999/02/22-rdf-syntax-ns#">
   <cc:Work>
    <dc:type rdf:resource="http://purl.org/dc/dcmitype/StillImage"/>
    <dc:date>2026-02-16T19:46:10.751933</dc:date>
    <dc:format>image/svg+xml</dc:format>
    <dc:creator>
     <cc:Agent>
      <dc:title>Matplotlib v3.10.8, https://matplotlib.org/</dc:title>
     </cc:Agent>
    </dc:creator>
   </cc:Work>
  </rdf:RDF>
 </metadata>
 <defs>
  <style type="text/css">*{stroke-linejoin: round; stroke-linecap: butt}</style>
 </defs>
 <g id="figure_1">
  <g id="patch_1">
   <path d="M 0 108 
L 108 108 
L 108 0 
L 0 0 
L 0 108 
z
" style="fill: none"/>
  </g>
  <g id="axes_1">
   <g id="patch_2">
    <path d="M 13.5 96.12 
L 97.2 96.12 
L 97.2 12.96 
L 13.5 12.96 
L 13.5 96.12 
z
" style="fill: none"/>
   </g>
   <g id="QuadContourSet_1">
    <path d="M 81.855 69.421136 
L 84.645 69.536329 
L 87.435 69.616214 
L 90.225 69.67209 
L 93.015 69.711529 
L 95.805 69.739594 
L 95.805 69.339661 
L 95.805 66.520678 
L 95.805 63.701695 
L 95.805 60.882712 
L 95.805 58.063729 
L 95.805 55.244746 
L 95.805 52.425763 
L 95.805 49.60678 
L 95.805 46.787797 
L 95.805 43.968814 
L 95.805 41.149831 
L 95.805 38.330847 
L 95.805 35.511864 
L 95.805 32.692881 
L 95.805 29.873898 
L 95.805 27.054915 
L 95.805 24.235932 
L 95.805 21.416949 
L 95.805 18.597966 
L 95.805 15.778983 
L 95.805 12.96 
L 93.015 12.96 
L 90.225 12.96 
L 87.435 12.96 
L 84.645 12.96 
L 81.855 12.96 
L 79.065 12.96 
L 76.275 12.96 
L 73.485 12.96 
L 70.695 12.96 
L 67.905 12.96 
L 65.115 12.96 
L 62.325 12.96 
L 59.535 12.96 
L 56.745 12.96 
L 53.955 12.96 
L 51.165 12.96 
L 50.93302 12.96 
L 51.165 14.701178 
L 51.440028 15.778983 
L 52.141458 18.597966 
L 52.767689 21.416949 
L 53.337267 24.235932 
L 53.86712 27.054915 
L 53.955 27.488582 
L 54.72693 29.873898 
L 55.526682 32.692881 
L 56.220725 35.511864 
L 56.745 37.801657 
L 56.946281 38.330847 
L 58.008983 41.149831 
L 58.85819 43.968814 
L 59.535 46.624748 
L 59.609494 46.787797 
L 60.928206 49.60678 
L 61.902594 52.425763 
L 62.325 53.720579 
L 63.197453 55.244746 
L 64.573715 58.063729 
L 65.115 59.274122 
L 66.285838 60.882712 
L 67.905 63.417868 
L 68.170176 63.701695 
L 70.695 65.921939 
L 71.505887 66.520678 
L 73.485 67.331514 
L 76.275 68.271283 
L 79.065 69.043709 
L 80.563561 69.339661 
z
" clip-path="url(#p44232a1416)" style="fill: #81a4fb"/>
    <path d="M 95.805 74.985185 
L 95.805 74.977627 
L 95.805 72.158644 
L 95.805 69.739594 
L 93.015 69.711529 
L 90.225 69.67209 
L 87.435 69.616214 
L 84.645 69.536329 
L 81.855 69.421136 
L 80.563561 69.339661 
L 79.065 69.043709 
L 76.275 68.271283 
L 73.485 67.331514 
L 71.505887 66.520678 
L 70.695 65.921939 
L 68.170176 63.701695 
L 67.905 63.417868 
L 66.285838 60.882712 
L 65.115 59.274122 
L 64.573715 58.063729 
L 63.197453 55.244746 
L 62.325 53.720579 
L 61.902594 52.425763 
L 60.928206 49.60678 
L 59.609494 46.787797 
L 59.535 46.624748 
L 58.85819 43.968814 
L 58.008983 41.149831 
L 56.946281 38.330847 
L 56.745 37.801657 
L 56.220725 35.511864 
L 55.526682 32.692881 
L 54.72693 29.873898 
L 53.955 27.488582 
L 53.86712 27.054915 
L 53.337267 24.235932 
L 52.767689 21.416949 
L 52.141458 18.597966 
L 51.440028 15.778983 
L 51.165 14.701178 
L 50.93302 12.96 
L 48.375 12.96 
L 45.585 12.96 
L 43.545815 12.96 
L 43.905097 15.778983 
L 44.255815 18.597966 
L 44.599706 21.416949 
L 44.93826 24.235932 
L 45.272591 27.054915 
L 45.585 29.708932 
L 45.620725 29.873898 
L 46.257861 32.692881 
L 46.887462 35.511864 
L 47.516179 38.330847 
L 48.149013 41.149831 
L 48.375 42.101671 
L 49.098169 43.968814 
L 50.264549 46.787797 
L 51.165 48.772477 
L 51.611594 49.60678 
L 53.328126 52.425763 
L 53.955 53.285979 
L 55.147429 55.244746 
L 56.745 57.599247 
L 57.016798 58.063729 
L 58.820285 60.882712 
L 59.535 61.878358 
L 60.779482 63.701695 
L 62.325 65.890771 
L 62.824629 66.520678 
L 65.115 69.096885 
L 65.366619 69.339661 
L 67.905 71.074504 
L 69.618411 72.158644 
L 70.695 72.5212 
L 73.485 73.19856 
L 76.275 73.72778 
L 79.065 74.123466 
L 81.855 74.411238 
L 84.645 74.617789 
L 87.435 74.765486 
L 90.225 74.871218 
L 93.015 74.947145 
L 94.577867 74.977627 
z
" clip-path="url(#p44232a1416)" style="fill: #b1cbfc"/>
    <path d="M 90.225 80.618213 
L 93.015 80.637345 
L 95.805 80.651153 
L 95.805 80.615593 
L 95.805 77.79661 
L 95.805 74.985185 
L 94.577867 74.977627 
L 93.015 74.947145 
L 90.225 74.871218 
L 87.435 74.765486 
L 84.645 74.617789 
L 81.855 74.411238 
L 79.065 74.123466 
L 76.275 73.72778 
L 73.485 73.19856 
L 70.695 72.5212 
L 69.618411 72.158644 
L 67.905 71.074504 
L 65.366619 69.339661 
L 65.115 69.096885 
L 62.824629 66.520678 
L 62.325 65.890771 
L 60.779482 63.701695 
L 59.535 61.878358 
L 58.820285 60.882712 
L 57.016798 58.063729 
L 56.745 57.599247 
L 55.147429 55.244746 
L 53.955 53.285979 
L 53.328126 52.425763 
L 51.611594 49.60678 
L 51.165 48.772477 
L 50.264549 46.787797 
L 49.098169 43.968814 
L 48.375 42.101671 
L 48.149013 41.149831 
L 47.516179 38.330847 
L 46.887462 35.511864 
L 46.257861 32.692881 
L 45.620725 29.873898 
L 45.585 29.708932 
L 45.272591 27.054915 
L 44.93826 24.235932 
L 44.599706 21.416949 
L 44.255815 18.597966 
L 43.905097 15.778983 
L 43.545815 12.96 
L 42.795 12.96 
L 40.005 12.96 
L 37.215 12.96 
L 34.425 12.96 
L 33.905185 12.96 
L 34.118289 15.778983 
L 34.336137 18.597966 
L 34.425 19.694188 
L 34.625754 21.416949 
L 34.962831 24.235932 
L 35.302598 27.054915 
L 35.645514 29.873898 
L 35.992356 32.692881 
L 36.344359 35.511864 
L 36.703374 38.330847 
L 37.072081 41.149831 
L 37.215 42.163587 
L 37.575802 43.968814 
L 38.154169 46.787797 
L 38.732335 49.60678 
L 39.316026 52.425763 
L 39.91479 55.244746 
L 40.005 55.618017 
L 40.811787 58.063729 
L 41.739492 60.882712 
L 42.674879 63.701695 
L 42.795 64.005406 
L 44.106483 66.520678 
L 45.567081 69.339661 
L 45.585 69.366711 
L 47.960275 72.158644 
L 48.375 72.555473 
L 51.165 74.399421 
L 52.74122 74.977627 
L 53.955 75.258467 
L 56.745 75.557061 
L 59.535 76.122761 
L 62.325 77.151306 
L 63.760686 77.79661 
L 65.115 78.127412 
L 67.905 78.747561 
L 70.695 79.262782 
L 73.485 79.665353 
L 76.275 79.968764 
L 79.065 80.192573 
L 81.855 80.355728 
L 84.645 80.474032 
L 87.435 80.559685 
L 89.951883 80.615593 
z
" clip-path="url(#p44232a1416)" style="fill: #ebd3c6"/>
    <path d="M 53.955 83.783407 
L 56.745 84.109609 
L 59.535 84.34967 
L 62.325 84.61104 
L 65.115 84.896385 
L 67.905 85.158856 
L 70.695 85.373945 
L 73.485 85.540393 
L 76.275 85.665712 
L 79.065 85.758771 
L 81.855 85.827367 
L 84.645 85.877729 
L 87.435 85.914625 
L 90.225 85.941628 
L 93.015 85.961381 
L 95.805 85.975828 
L 95.805 83.434576 
L 95.805 80.651153 
L 93.015 80.637345 
L 90.225 80.618213 
L 89.951883 80.615593 
L 87.435 80.559685 
L 84.645 80.474032 
L 81.855 80.355728 
L 79.065 80.192573 
L 76.275 79.968764 
L 73.485 79.665353 
L 70.695 79.262782 
L 67.905 78.747561 
L 65.115 78.127412 
L 63.760686 77.79661 
L 62.325 77.151306 
L 59.535 76.122761 
L 56.745 75.557061 
L 53.955 75.258467 
L 52.74122 74.977627 
L 51.165 74.399421 
L 48.375 72.555473 
L 47.960275 72.158644 
L 45.585 69.366711 
L 45.567081 69.339661 
L 44.106483 66.520678 
L 42.795 64.005406 
L 42.674879 63.701695 
L 41.739492 60.882712 
L 40.811787 58.063729 
L 40.005 55.618017 
L 39.91479 55.244746 
L 39.316026 52.425763 
L 38.732335 49.60678 
L 38.154169 46.787797 
L 37.575802 43.968814 
L 37.215 42.163587 
L 37.072081 41.149831 
L 36.703374 38.330847 
L 36.344359 35.511864 
L 35.992356 32.692881 
L 35.645514 29.873898 
L 35.302598 27.054915 
L 34.962831 24.235932 
L 34.625754 21.416949 
L 34.425 19.694188 
L 34.336137 18.597966 
L 34.118289 15.778983 
L 33.905185 12.96 
L 31.635 12.96 
L 28.845 12.96 
L 26.055 12.96 
L 23.265 12.96 
L 21.604264 12.96 
L 21.872945 15.778983 
L 22.157449 18.597966 
L 22.459869 21.416949 
L 22.78269 24.235932 
L 23.128879 27.054915 
L 23.265 28.091623 
L 23.483974 29.873898 
L 23.851959 32.692881 
L 24.245863 35.511864 
L 24.670484 38.330847 
L 25.131856 41.149831 
L 25.637671 43.968814 
L 26.055 46.079353 
L 26.186895 46.787797 
L 26.756182 49.60678 
L 27.385037 52.425763 
L 28.091187 55.244746 
L 28.845 57.878181 
L 28.89552 58.063729 
L 29.752018 60.882712 
L 30.744956 63.701695 
L 31.635 65.824881 
L 31.915857 66.520678 
L 33.257236 69.339661 
L 34.425 71.301389 
L 34.927657 72.158644 
L 37.032103 74.977627 
L 37.215 75.165601 
L 39.867674 77.79661 
L 40.005 77.897898 
L 42.795 79.822527 
L 44.086096 80.615593 
L 45.585 81.304642 
L 48.375 82.371263 
L 51.165 83.22382 
L 52.071055 83.434576 
z
" clip-path="url(#p44232a1416)" style="fill: #f08a6c"/>
    <path d="M 65.115 89.334154 
L 67.905 89.555482 
L 70.695 89.726203 
L 73.485 89.853377 
L 76.275 89.946638 
L 79.065 90.014612 
L 81.855 90.064066 
L 84.645 90.100044 
L 87.435 90.126236 
L 90.225 90.145321 
L 93.015 90.15924 
L 95.805 90.169398 
L 95.805 89.072542 
L 95.805 86.253559 
L 95.805 85.975828 
L 93.015 85.961381 
L 90.225 85.941628 
L 87.435 85.914625 
L 84.645 85.877729 
L 81.855 85.827367 
L 79.065 85.758771 
L 76.275 85.665712 
L 73.485 85.540393 
L 70.695 85.373945 
L 67.905 85.158856 
L 65.115 84.896385 
L 62.325 84.61104 
L 59.535 84.34967 
L 56.745 84.109609 
L 53.955 83.783407 
L 52.071055 83.434576 
L 51.165 83.22382 
L 48.375 82.371263 
L 45.585 81.304642 
L 44.086096 80.615593 
L 42.795 79.822527 
L 40.005 77.897898 
L 39.867674 77.79661 
L 37.215 75.165601 
L 37.032103 74.977627 
L 34.927657 72.158644 
L 34.425 71.301389 
L 33.257236 69.339661 
L 31.915857 66.520678 
L 31.635 65.824881 
L 30.744956 63.701695 
L 29.752018 60.882712 
L 28.89552 58.063729 
L 28.845 57.878181 
L 28.091187 55.244746 
L 27.385037 52.425763 
L 26.756182 49.60678 
L 26.186895 46.787797 
L 26.055 46.079353 
L 25.637671 43.968814 
L 25.131856 41.149831 
L 24.670484 38.330847 
L 24.245863 35.511864 
L 23.851959 32.692881 
L 23.483974 29.873898 
L 23.265 28.091623 
L 23.128879 27.054915 
L 22.78269 24.235932 
L 22.459869 21.416949 
L 22.157449 18.597966 
L 21.872945 15.778983 
L 21.604264 12.96 
L 20.475 12.96 
L 17.685 12.96 
L 14.895 12.96 
L 14.895 15.778983 
L 14.895 18.597966 
L 14.895 21.416949 
L 14.895 24.235932 
L 14.895 27.054915 
L 14.895 29.873898 
L 14.895 32.692881 
L 14.895 35.511864 
L 14.895 38.330847 
L 14.895 41.149831 
L 14.895 43.968814 
L 14.895 46.787797 
L 14.895 49.60678 
L 14.895 52.425763 
L 14.895 55.244746 
L 14.895 58.063729 
L 14.895 60.882712 
L 14.895 63.701695 
L 14.895 66.520678 
L 14.895 66.719268 
L 16.03582 69.339661 
L 17.685 72.109501 
L 17.711059 72.158644 
L 19.599993 74.977627 
L 20.475 75.936313 
L 22.140324 77.79661 
L 23.265 78.733579 
L 25.710641 80.615593 
L 26.055 80.825273 
L 28.845 82.454071 
L 30.943375 83.434576 
L 31.635 83.731889 
L 34.425 84.83616 
L 37.215 85.663991 
L 39.772225 86.253559 
L 40.005 86.323074 
L 42.795 87.103722 
L 45.585 87.679903 
L 48.375 88.106416 
L 51.165 88.422127 
L 53.955 88.654065 
L 56.745 88.823315 
L 59.535 88.953706 
L 62.325 89.069243 
L 62.405808 89.072542 
z
" clip-path="url(#p44232a1416)" style="fill: #cc403a"/>
    <path d="M 17.685 94.710508 
L 20.475 94.710508 
L 23.265 94.710508 
L 26.055 94.710508 
L 28.845 94.710508 
L 31.635 94.710508 
L 34.425 94.710508 
L 37.215 94.710508 
L 40.005 94.710508 
L 42.795 94.710508 
L 45.585 94.710508 
L 48.375 94.710508 
L 51.165 94.710508 
L 53.955 94.710508 
L 56.745 94.710508 
L 59.535 94.710508 
L 62.325 94.710508 
L 65.115 94.710508 
L 67.905 94.710508 
L 70.695 94.710508 
L 73.485 94.710508 
L 76.275 94.710508 
L 79.065 94.710508 
L 81.855 94.710508 
L 84.645 94.710508 
L 87.435 94.710508 
L 90.225 94.710508 
L 93.015 94.710508 
L 95.805 94.710508 
L 95.805 91.891525 
L 95.805 90.169398 
L 93.015 90.15924 
L 90.225 90.145321 
L 87.435 90.126236 
L 84.645 90.100044 
L 81.855 90.064066 
L 79.065 90.014612 
L 76.275 89.946638 
L 73.485 89.853377 
L 70.695 89.726203 
L 67.905 89.555482 
L 65.115 89.334154 
L 62.405808 89.072542 
L 62.325 89.069243 
L 59.535 88.953706 
L 56.745 88.823315 
L 53.955 88.654065 
L 51.165 88.422127 
L 48.375 88.106416 
L 45.585 87.679903 
L 42.795 87.103722 
L 40.005 86.323074 
L 39.772225 86.253559 
L 37.215 85.663991 
L 34.425 84.83616 
L 31.635 83.731889 
L 30.943375 83.434576 
L 28.845 82.454071 
L 26.055 80.825273 
L 25.710641 80.615593 
L 23.265 78.733579 
L 22.140324 77.79661 
L 20.475 75.936313 
L 19.599993 74.977627 
L 17.711059 72.158644 
L 17.685 72.109501 
L 16.03582 69.339661 
L 14.895 66.719268 
L 14.895 69.339661 
L 14.895 72.158644 
L 14.895 74.977627 
L 14.895 77.79661 
L 14.895 80.615593 
L 14.895 83.434576 
L 14.895 86.253559 
L 14.895 89.072542 
L 14.895 91.891525 
L 14.895 94.710508 
z
" clip-path="url(#p44232a1416)" style="fill: #b70d28"/>
   </g>
   <g id="matplotlib.axis_1">
    <g id="xtick_1">
     <g id="line2d_1">
      <defs>
       <path id="mdc0022c205" d="M 0 0 
L 0 3.5 
" style="stroke: #000000; stroke-width: 0.8"/>
      </defs>
      <g>
       <use xlink:href="#mdc0022c205" x="13.5" y="96.12" style="stroke: #000000; stroke-width: 0.8"/>
      </g>
     </g>
     <g id="text_1">
      <text style="font-size: 6px; font-family: 'DejaVu Sans', 'Arial', 'Helvetica', 'Lucida Grande', 'Verdana', 'Geneva', 'Lucid', 'Avant Garde', sans-serif; text-anchor: middle" x="13.5" y="107.679063" transform="rotate(-0 13.5 107.679063)">1</text>
     </g>
    </g>
    <g id="xtick_2">
     <g id="line2d_2">
      <g>
       <use xlink:href="#mdc0022c205" x="41.4" y="96.12" style="stroke: #000000; stroke-width: 0.8"/>
      </g>
     </g>
     <g id="text_2">
      <text style="font-size: 6px; font-family: 'DejaVu Sans', 'Arial', 'Helvetica', 'Lucida Grande', 'Verdana', 'Geneva', 'Lucid', 'Avant Garde', sans-serif; text-anchor: middle" x="41.4" y="107.679063" transform="rotate(-0 41.4 107.679063)">10</text>
     </g>
    </g>
    <g id="xtick_3">
     <g id="line2d_3">
      <g>
       <use xlink:href="#mdc0022c205" x="69.3" y="96.12" style="stroke: #000000; stroke-width: 0.8"/>
      </g>
     </g>
     <g id="text_3">
      <text style="font-size: 6px; font-family: 'DejaVu Sans', 'Arial', 'Helvetica', 'Lucida Grande', 'Verdana', 'Geneva', 'Lucid', 'Avant Garde', sans-serif; text-anchor: middle" x="69.3" y="107.679063" transform="rotate(-0 69.3 107.679063)">100</text>
     </g>
    </g>
    <g id="xtick_4">
     <g id="line2d_4">
      <g>
       <use xlink:href="#mdc0022c205" x="97.2" y="96.12" style="stroke: #000000; stroke-width: 0.8"/>
      </g>
     </g>
     <g id="text_4">
      <text style="font-size: 6px; font-family: 'DejaVu Sans', 'Arial', 'Helvetica', 'Lucida Grande', 'Verdana', 'Geneva', 'Lucid', 'Avant Garde', sans-serif; text-anchor: middle" x="97.2" y="107.679063" transform="rotate(-0 97.2 107.679063)">1000</text>
     </g>
    </g>
    <g id="text_5">
     <text style="font-size: 6px; font-family: 'DejaVu Sans', 'Arial', 'Helvetica', 'Lucida Grande', 'Verdana', 'Geneva', 'Lucid', 'Avant Garde', sans-serif; text-anchor: middle" x="55.35" y="117.485938" transform="rotate(-0 55.35 117.485938)">C (µg/mL)</text>
    </g>
   </g>
   <g id="matplotlib.axis_2">
    <g id="ytick_1">
     <g id="line2d_5">
      <defs>
       <path id="mee4a91b61b" d="M 0 0 
L -3.5 0 
" style="stroke: #000000; stroke-width: 0.8"/>
      </defs>
      <g>
       <use xlink:href="#mee4a91b61b" x="13.5" y="96.12" style="stroke: #000000; stroke-width: 0.8"/>
      </g>
     </g>
     <g id="text_6">
      <text style="font-size: 6px; font-family: 'DejaVu Sans', 'Arial', 'Helvetica', 'Lucida Grande', 'Verdana', 'Geneva', 'Lucid', 'Avant Garde', sans-serif; text-anchor: end" x="6.5" y="98.399531" transform="rotate(-0 6.5 98.399531)">0</text>
     </g>
    </g>
    <g id="ytick_2">
     <g id="line2d_6">
      <g>
       <use xlink:href="#mee4a91b61b" x="13.5" y="79.206102" style="stroke: #000000; stroke-width: 0.8"/>
      </g>
     </g>
     <g id="text_7">
      <text style="font-size: 6px; font-family: 'DejaVu Sans', 'Arial', 'Helvetica', 'Lucida Grande', 'Verdana', 'Geneva', 'Lucid', 'Avant Garde', sans-serif; text-anchor: end" x="6.5" y="81.485633" transform="rotate(-0 6.5 81.485633)">2</text>
     </g>
    </g>
    <g id="ytick_3">
     <g id="line2d_7">
      <g>
       <use xlink:href="#mee4a91b61b" x="13.5" y="62.292203" style="stroke: #000000; stroke-width: 0.8"/>
      </g>
     </g>
     <g id="text_8">
      <text style="font-size: 6px; font-family: 'DejaVu Sans', 'Arial', 'Helvetica', 'Lucida Grande', 'Verdana', 'Geneva', 'Lucid', 'Avant Garde', sans-serif; text-anchor: end" x="6.5" y="64.571735" transform="rotate(-0 6.5 64.571735)">4</text>
     </g>
    </g>
    <g id="ytick_4">
     <g id="line2d_8">
      <g>
       <use xlink:href="#mee4a91b61b" x="13.5" y="45.378305" style="stroke: #000000; stroke-width: 0.8"/>
      </g>
     </g>
     <g id="text_9">
      <text style="font-size: 6px; font-family: 'DejaVu Sans', 'Arial', 'Helvetica', 'Lucida Grande', 'Verdana', 'Geneva', 'Lucid', 'Avant Garde', sans-serif; text-anchor: end" x="6.5" y="47.657836" transform="rotate(-0 6.5 47.657836)">6</text>
     </g>
    </g>
    <g id="ytick_5">
     <g id="line2d_9">
      <g>
       <use xlink:href="#mee4a91b61b" x="13.5" y="28.464407" style="stroke: #000000; stroke-width: 0.8"/>
      </g>
     </g>
     <g id="text_10">
      <text style="font-size: 6px; font-family: 'DejaVu Sans', 'Arial', 'Helvetica', 'Lucida Grande', 'Verdana', 'Geneva', 'Lucid', 'Avant Garde', sans-serif; text-anchor: end" x="6.5" y="30.743938" transform="rotate(-0 6.5 30.743938)">8</text>
     </g>
    </g>
    <g id="text_11">
     <text style="font-size: 6px; font-family: 'DejaVu Sans', 'Arial', 'Helvetica', 'Lucida Grande', 'Verdana', 'Geneva', 'Lucid', 'Avant Garde', sans-serif; text-anchor: middle" x="-2.565312" y="54.54" transform="rotate(-90 -2.565312 54.54)">τ (h)</text>
    </g>
   </g>
   <g id="QuadContourSet_2">
    <path clip-path="url(#p44232a1416)" style="fill: none; stroke: #000000"/>
    <path d="M 95.805 69.739594 
L 93.015 69.711529 
L 90.225 69.67209 
L 87.435 69.616214 
L 84.645 69.536329 
L 81.855 69.421136 
L 81.769812 69.415762 
M 63.804131 56.487398 
L 63.197453 55.244746 
L 62.325 53.720579 
L 61.902594 52.425763 
L 60.928206 49.60678 
L 59.609494 46.787797 
L 59.535 46.624748 
L 58.85819 43.968814 
L 58.008983 41.149831 
L 56.946281 38.330847 
L 56.745 37.801657 
L 56.220725 35.511864 
L 55.526682 32.692881 
L 54.72693 29.873898 
L 53.955 27.488582 
L 53.86712 27.054915 
L 53.337267 24.235932 
L 52.767689 21.416949 
L 52.141458 18.597966 
L 51.440028 15.778983 
L 51.165 14.701178 
L 50.93302 12.96 
" clip-path="url(#p44232a1416)" style="fill: none; stroke: #000000"/>
    <path d="M 95.805 74.985185 
L 94.577867 74.977627 
L 93.015 74.947145 
L 90.225 74.871218 
L 87.435 74.765486 
L 84.645 74.617789 
L 81.855 74.411238 
L 79.065 74.123466 
L 76.275 73.72778 
L 73.485 73.19856 
L 70.695 72.5212 
L 69.618411 72.158644 
L 67.905 71.074504 
L 65.366619 69.339661 
L 65.115 69.096885 
L 62.824629 66.520678 
L 62.325 65.890771 
L 60.779482 63.701695 
L 59.535 61.878358 
L 58.820285 60.882712 
L 57.016798 58.063729 
L 56.745 57.599247 
L 55.147429 55.244746 
L 53.955 53.285979 
L 53.328126 52.425763 
L 51.611594 49.60678 
L 51.165 48.772477 
L 50.264549 46.787797 
L 49.098169 43.968814 
L 48.375 42.101671 
L 48.226205 41.474957 
M 44.189409 18.064211 
L 43.905097 15.778983 
L 43.545815 12.96 
" clip-path="url(#p44232a1416)" style="fill: none; stroke: #000000"/>
    <path d="M 95.805 80.651153 
L 93.015 80.637345 
L 90.225 80.618213 
L 89.951883 80.615593 
L 87.435 80.559685 
L 84.645 80.474032 
L 81.855 80.355728 
L 79.065 80.192573 
L 76.275 79.968764 
L 73.485 79.665353 
L 70.695 79.262782 
L 67.905 78.747561 
L 65.115 78.127412 
L 63.760686 77.79661 
L 62.325 77.151306 
L 59.535 76.122761 
L 56.745 75.557061 
L 53.955 75.258467 
L 52.74122 74.977627 
L 51.165 74.399421 
L 48.375 72.555473 
L 47.960275 72.158644 
L 45.585 69.366711 
L 45.567081 69.339661 
L 44.106483 66.520678 
L 42.795 64.005406 
L 42.674879 63.701695 
L 41.739492 60.882712 
L 40.811787 58.063729 
L 40.005 55.618017 
L 40.002962 55.609586 
M 35.930628 32.191181 
L 35.645514 29.873898 
L 35.302598 27.054915 
L 34.962831 24.235932 
L 34.625754 21.416949 
L 34.425 19.694188 
L 34.336137 18.597966 
L 34.118289 15.778983 
L 33.905185 12.96 
" clip-path="url(#p44232a1416)" style="fill: none; stroke: #000000"/>
    <path d="M 72.949895 85.508469 
L 70.695 85.373945 
L 67.905 85.158856 
L 65.115 84.896385 
L 62.325 84.61104 
L 59.535 84.34967 
L 56.745 84.109609 
L 53.955 83.783407 
L 52.071055 83.434576 
L 51.165 83.22382 
L 48.375 82.371263 
L 45.585 81.304642 
L 44.086096 80.615593 
L 42.795 79.822527 
L 40.005 77.897898 
L 39.867674 77.79661 
L 37.215 75.165601 
L 37.032103 74.977627 
L 34.927657 72.158644 
L 34.425 71.301389 
L 33.257236 69.339661 
L 31.915857 66.520678 
L 31.635 65.824881 
L 30.744956 63.701695 
L 29.752018 60.882712 
L 28.89552 58.063729 
L 28.845 57.878181 
L 28.091187 55.244746 
L 27.385037 52.425763 
L 26.756182 49.60678 
L 26.186895 46.787797 
L 26.055 46.079353 
L 25.637671 43.968814 
L 25.131856 41.149831 
L 24.670484 38.330847 
L 24.245863 35.511864 
L 23.851959 32.692881 
L 23.483974 29.873898 
L 23.265 28.091623 
L 23.128879 27.054915 
L 22.78269 24.235932 
L 22.459869 21.416949 
L 22.157449 18.597966 
L 21.872945 15.778983 
L 21.604264 12.96 
" clip-path="url(#p44232a1416)" style="fill: none; stroke: #000000"/>
    <path d="M 95.805 90.169398 
L 93.015 90.15924 
L 90.225 90.145321 
L 87.435 90.126236 
L 84.645 90.100044 
L 81.855 90.064066 
L 79.065 90.014612 
L 76.79852 89.959393 
M 53.437693 88.61106 
L 51.165 88.422127 
L 48.375 88.106416 
L 45.585 87.679903 
L 42.795 87.103722 
L 40.005 86.323074 
L 39.772225 86.253559 
L 37.215 85.663991 
L 34.425 84.83616 
L 31.635 83.731889 
L 30.943375 83.434576 
L 28.845 82.454071 
L 26.055 80.825273 
L 25.710641 80.615593 
L 23.265 78.733579 
L 22.140324 77.79661 
L 20.475 75.936313 
L 19.599993 74.977627 
L 17.711059 72.158644 
L 17.685 72.109501 
L 16.03582 69.339661 
L 14.895 66.719268 
" clip-path="url(#p44232a1416)" style="fill: none; stroke: #000000"/>
    <path clip-path="url(#p44232a1416)" style="fill: none; stroke: #000000"/>
   </g>
   <g id="patch_3">
    <path d="M 13.5 96.12 
L 13.5 12.96 
" style="fill: none; stroke: #000000; stroke-width: 0.5; stroke-linejoin: miter; stroke-linecap: square"/>
   </g>
   <g id="patch_4">
    <path d="M 13.5 96.12 
L 97.2 96.12 
" style="fill: none; stroke: #000000; stroke-width: 0.5; stroke-linejoin: miter; stroke-linecap: square"/>
   </g>
   <g id="text_12">
    <text style="font-size: 6px; font-family: 'DejaVu Sans', 'Arial', 'Helvetica', 'Lucida Grande', 'Verdana', 'Geneva', 'Lucid', 'Avant Garde', sans-serif; text-anchor: middle" x="55.35" y="6.96" transform="rotate(-0 55.35 6.96)">Survival rate isoclines</text>
   </g>
   <g id="text_13">
    <g clip-path="url(#p44232a1416)">
     <text style="font-size: 6px; font-family: 'DejaVu Sans', 'Arial', 'Helvetica', 'Lucida Grande', 'Verdana', 'Geneva', 'Lucid', 'Avant Garde', sans-serif" transform="translate(62.705588 62.362213) rotate(-325.073104)">0.001</text>
    </g>
   </g>
   <g id="text_14">
    <g clip-path="url(#p44232a1416)">
     <text style="font-size: 6px; font-family: 'DejaVu Sans', 'Arial', 'Helvetica', 'Lucida Grande', 'Verdana', 'Geneva', 'Lucid', 'Avant Garde', sans-serif" transform="translate(42.510094 21.699161) rotate(-279.921425)">0.010</text>
    </g>
   </g>
   <g id="text_15">
    <g clip-path="url(#p44232a1416)">
     <text style="font-size: 6px; font-family: 'DejaVu Sans', 'Arial', 'Helvetica', 'Lucida Grande', 'Verdana', 'Geneva', 'Lucid', 'Avant Garde', sans-serif" transform="translate(34.435096 35.805584) rotate(-280.132367)">0.100</text>
    </g>
   </g>
   <g id="text_16">
    <g clip-path="url(#p44232a1416)">
     <text style="font-size: 6px; font-family: 'DejaVu Sans', 'Arial', 'Helvetica', 'Lucida Grande', 'Verdana', 'Geneva', 'Lucid', 'Avant Garde', sans-serif" transform="translate(76.029179 87.384372) rotate(-359.007711)">0.500</text>
    </g>
   </g>
   <g id="text_17">
    <g clip-path="url(#p44232a1416)">
     <text style="font-size: 6px; font-family: 'DejaVu Sans', 'Arial', 'Helvetica', 'Lucida Grande', 'Verdana', 'Geneva', 'Lucid', 'Avant Garde', sans-serif" transform="translate(56.441903 90.46541) rotate(-356.520019)">0.900</text>
    </g>
   </g>
  </g>
 </g>
 <defs>
  <clipPath id="p44232a1416">
   <rect x="13.5" y="12.96" width="83.7" height="83.16"/>
  </clipPath>
 </defs>
</svg>
