<?xml version="1.0" encoding="utf-8" standalone="no"?>
<!DOCTYPE svg PUBLIC "-//W3C//DTD SVG 1.1//EN"
  "http://www.w3.org/Graphics/SVG/1.1/DTD/svg11.dtd">
<svg xmlns:xlink="http://www.w3.org/1999/xlink" width="108pt" height="108pt" viewBox="0 0 108 108" xmlns="http://www.w3.org/2000/svg" version="1.1">
 <metadata>
  <rdf:RDF xmlns:dc="http://purl.org/dc/elements/1.1/" xmlns:cc="http://creativecommons.org/ns#" xmlns:rdf="http://www.w3.org/1999/02/22-rdf-syntax-ns#">
   <cc:Work>
    <dc:type rdf:resource="http://purl.org/dc/dcmitype/StillImage"/>
    <dc:date>2026-02-16T18:34:25.874860</dc:date>
    <dc:format>image/svg+xml</dc:format>
    <dc:creator>
     <cc:Agent>
      <dc:title>Matplotlib v3.10.8, https://matplotlib.org/</dc:title>
     </cc:Agent>
    </dc:creator>
   </cc:Work>
  </rdf:RDF>
 </metadata>
 <defs>
  <style type="text/css">*{stroke-linejoin: round; stroke-linecap: butt}</style>
 </defs>
 <g id="figure_1">
  <g id="patch_1">
   <path d="M 0 108 
L 108 108 
L 108 0 
L 0 0 
L 0 108 
z
" style="fill: none"/>
  </g>
  <g id="axes_1">
   <g id="patch_2">
    <path d="M 13.5 96.12 
L 97.2 96.12 
L 97.2 12.96 
L 13.5 12.96 
L 13.5 96.12 
z
" style="fill: none"/>
   </g>
   <g id="QuadContourSet_1">
    <path d="M 17.685 94.710508 
L 20.475 94.710508 
L 23.265 94.710508 
L 26.055 94.710508 
L 28.845 94.710508 
L 31.635 94.710508 
L 34.425 94.710508 
L 37.215 94.710508 
L 40.005 94.710508 
L 42.795 94.710508 
L 45.585 94.710508 
L 48.375 94.710508 
L 51.165 94.710508 
L 53.955 94.710508 
L 56.745 94.710508 
L 59.535 94.710508 
L 62.325 94.710508 
L 65.115 94.710508 
L 67.905 94.710508 
L 70.695 94.710508 
L 73.485 94.710508 
L 76.275 94.710508 
L 79.065 94.710508 
L 81.855 94.710508 
L 84.645 94.710508 
L 87.435 94.710508 
L 90.225 94.710508 
L 93.015 94.710508 
L 95.805 94.710508 
L 95.805 91.891525 
L 95.805 89.072542 
L 95.805 88.954575 
L 95.367178 89.072542 
L 93.015 89.584846 
L 90.225 90.053947 
L 87.435 90.395834 
L 84.645 90.638493 
L 81.855 90.804146 
L 79.065 90.909718 
L 76.275 90.967324 
L 73.485 90.984852 
L 70.695 90.966609 
L 67.905 90.913923 
L 65.115 90.825635 
L 62.325 90.698451 
L 59.535 90.527174 
L 56.745 90.304871 
L 53.955 90.023036 
L 51.165 89.671858 
L 48.375 89.240657 
L 47.369029 89.072542 
L 45.585 88.964265 
L 42.795 88.774052 
L 40.005 88.550627 
L 37.215 88.292614 
L 34.425 88.000608 
L 31.635 87.677589 
L 28.845 87.329108 
L 26.055 86.963105 
L 23.265 86.589309 
L 20.716441 86.253559 
L 20.475 86.231867 
L 17.685 86.011033 
L 14.895 85.802532 
L 14.895 86.253559 
L 14.895 89.072542 
L 14.895 91.891525 
L 14.895 94.710508 
z
M 90.225 35.761097 
L 93.015 36.104276 
L 95.805 36.544363 
L 95.805 35.511864 
L 95.805 32.692881 
L 95.805 29.873898 
L 95.805 27.054915 
L 95.805 24.235932 
L 95.805 21.416949 
L 95.805 18.597966 
L 95.805 15.778983 
L 95.805 12.96 
L 93.015 12.96 
L 90.225 12.96 
L 87.435 12.96 
L 84.645 12.96 
L 81.855 12.96 
L 79.065 12.96 
L 76.275 12.96 
L 73.485 12.96 
L 73.473592 12.96 
L 73.485 13.721805 
L 74.947146 15.778983 
L 75.903776 18.597966 
L 76.176484 21.416949 
L 76.256352 24.235932 
L 76.275 25.385581 
L 77.630241 27.054915 
L 78.858542 29.873898 
L 79.065 30.943153 
L 81.050244 32.692881 
L 81.855 33.100201 
L 84.645 34.083996 
L 87.435 35.40327 
L 87.695695 35.511864 
z
" clip-path="url(#p66ded35bbc)" style="fill: #465ecf"/>
    <path d="M 48.375 89.240657 
L 51.165 89.671858 
L 53.955 90.023036 
L 56.745 90.304871 
L 59.535 90.527174 
L 62.325 90.698451 
L 65.115 90.825635 
L 67.905 90.913923 
L 70.695 90.966609 
L 73.485 90.984852 
L 76.275 90.967324 
L 79.065 90.909718 
L 81.855 90.804146 
L 84.645 90.638493 
L 87.435 90.395834 
L 90.225 90.053947 
L 93.015 89.584846 
L 95.367178 89.072542 
L 95.805 88.954575 
L 95.805 86.253559 
L 95.805 83.434576 
L 95.805 80.615593 
L 95.805 77.79661 
L 95.805 74.977627 
L 95.805 72.158644 
L 95.805 69.339661 
L 95.805 66.520678 
L 95.805 63.701695 
L 95.805 60.882712 
L 95.805 58.063729 
L 95.805 55.244746 
L 95.805 52.425763 
L 95.805 49.60678 
L 95.805 46.787797 
L 95.805 43.968814 
L 95.805 41.149831 
L 95.805 38.330847 
L 95.805 36.544363 
L 93.015 36.104276 
L 90.225 35.761097 
L 87.695695 35.511864 
L 87.435 35.40327 
L 84.645 34.083996 
L 81.855 33.100201 
L 81.050244 32.692881 
L 79.065 30.943153 
L 78.858542 29.873898 
L 77.630241 27.054915 
L 76.275 25.385581 
L 76.256352 24.235932 
L 76.176484 21.416949 
L 75.903776 18.597966 
L 74.947146 15.778983 
L 73.485 13.721805 
L 73.473592 12.96 
L 73.220992 12.96 
L 73.259801 15.778983 
L 73.407062 18.597966 
L 73.485 18.986035 
L 75.215295 21.416949 
L 75.984061 24.235932 
L 76.04449 27.054915 
L 76.254837 29.873898 
L 76.275 29.924312 
L 78.562193 32.692881 
L 79.065 34.743139 
L 79.950199 35.511864 
L 81.855 36.431143 
L 84.645 37.937362 
L 85.452841 38.330847 
L 87.435 40.166639 
L 88.83702 41.149831 
L 88.74588 43.968814 
L 88.644036 46.787797 
L 88.525727 49.60678 
L 88.387675 52.425763 
L 88.224612 55.244746 
L 88.029238 58.063729 
L 87.791153 60.882712 
L 87.495072 63.701695 
L 87.435 64.169425 
L 87.231793 66.520678 
L 86.905361 69.339661 
L 86.443949 72.158644 
L 85.753968 74.977627 
L 84.645 77.787168 
L 84.641944 77.79661 
L 83.164401 80.615593 
L 81.855 81.956709 
L 80.023171 83.434576 
L 79.065 83.934179 
L 76.275 85.003126 
L 73.485 85.588187 
L 70.695 85.87712 
L 67.905 85.981872 
L 65.115 85.962122 
L 62.325 85.844332 
L 59.535 85.633747 
L 56.745 85.321725 
L 53.955 84.890787 
L 51.165 84.318445 
L 48.375 83.580206 
L 47.865005 83.434576 
L 45.585 82.875069 
L 42.795 82.029374 
L 40.005 80.980792 
L 39.078253 80.615593 
L 37.215 79.846075 
L 34.425 78.553928 
L 32.877936 77.79661 
L 31.635 77.109195 
L 28.845 75.535775 
L 27.834225 74.977627 
L 26.055 73.852938 
L 23.359807 72.158644 
L 23.265 72.090414 
L 20.475 70.307488 
L 18.867807 69.339661 
L 17.685 68.543625 
L 14.895 66.850899 
L 14.895 69.339661 
L 14.895 72.158644 
L 14.895 74.977627 
L 14.895 77.79661 
L 14.895 80.615593 
L 14.895 83.434576 
L 14.895 85.802532 
L 17.685 86.011033 
L 20.475 86.231867 
L 20.716441 86.253559 
L 23.265 86.589309 
L 26.055 86.963105 
L 28.845 87.329108 
L 31.635 87.677589 
L 34.425 88.000608 
L 37.215 88.292614 
L 40.005 88.550627 
L 42.795 88.774052 
L 45.585 88.964265 
L 47.369029 89.072542 
z
" clip-path="url(#p66ded35bbc)" style="fill: #7295f4"/>
    <path d="M 48.375 83.580206 
L 51.165 84.318445 
L 53.955 84.890787 
L 56.745 85.321725 
L 59.535 85.633747 
L 62.325 85.844332 
L 65.115 85.962122 
L 67.905 85.981872 
L 70.695 85.87712 
L 73.485 85.588187 
L 76.275 85.003126 
L 79.065 83.934179 
L 80.023171 83.434576 
L 81.855 81.956709 
L 83.164401 80.615593 
L 84.641944 77.79661 
L 84.645 77.787168 
L 85.753968 74.977627 
L 86.443949 72.158644 
L 86.905361 69.339661 
L 87.231793 66.520678 
L 87.435 64.169425 
L 87.495072 63.701695 
L 87.791153 60.882712 
L 88.029238 58.063729 
L 88.224612 55.244746 
L 88.387675 52.425763 
L 88.525727 49.60678 
L 88.644036 46.787797 
L 88.74588 43.968814 
L 88.83702 41.149831 
L 87.435 40.166639 
L 85.452841 38.330847 
L 84.645 37.937362 
L 81.855 36.431143 
L 79.950199 35.511864 
L 79.065 34.743139 
L 78.562193 32.692881 
L 76.275 29.924312 
L 76.254837 29.873898 
L 76.04449 27.054915 
L 75.984061 24.235932 
L 75.215295 21.416949 
L 73.485 18.986035 
L 73.407062 18.597966 
L 73.259801 15.778983 
L 73.220992 12.96 
L 72.098329 12.96 
L 72.119889 15.778983 
L 72.201701 18.597966 
L 72.585281 21.416949 
L 73.485 22.427308 
L 74.773881 24.235932 
L 74.906869 27.054915 
L 75.023654 29.873898 
L 76.06699 32.692881 
L 76.275 32.920484 
L 77.817895 35.511864 
L 79.065 37.875563 
L 79.651271 38.330847 
L 79.622497 41.149831 
L 79.438431 43.968814 
L 79.222654 46.787797 
L 79.065 48.558613 
L 79.002795 49.60678 
L 78.815115 52.425763 
L 78.591875 55.244746 
L 78.315261 58.063729 
L 77.958234 60.882712 
L 77.478223 63.701695 
L 76.805219 66.520678 
L 76.275 68.161811 
L 75.886294 69.339661 
L 74.649085 72.158644 
L 73.485 73.937378 
L 72.558445 74.977627 
L 70.695 76.550979 
L 68.065281 77.79661 
L 67.905 77.862029 
L 65.115 78.457541 
L 62.325 78.54894 
L 59.535 78.235056 
L 57.758517 77.79661 
L 56.745 77.527632 
L 53.955 76.441551 
L 51.249855 74.977627 
L 51.165 74.921637 
L 48.375 72.842131 
L 47.55329 72.158644 
L 45.585 70.131653 
L 44.83224 69.339661 
L 42.795 66.692918 
L 42.657626 66.520678 
L 40.748759 63.701695 
L 40.005 62.388245 
L 39.08359 60.882712 
L 37.62257 58.063729 
L 37.215 57.173057 
L 36.236978 55.244746 
L 35.001719 52.425763 
L 34.425 50.95134 
L 33.8288 49.60678 
L 32.713949 46.787797 
L 31.728155 43.968814 
L 31.635 43.682627 
L 30.688189 41.149831 
L 29.745944 38.330847 
L 28.893407 35.511864 
L 28.845 35.342067 
L 27.964934 32.692881 
L 27.114896 29.873898 
L 26.33627 27.054915 
L 26.055 25.972376 
L 25.521253 24.235932 
L 24.716818 21.416949 
L 23.974193 18.597966 
L 23.283115 15.778983 
L 23.265 15.701792 
L 22.496765 12.96 
L 20.475 12.96 
L 17.685 12.96 
L 14.895 12.96 
L 14.895 15.778983 
L 14.895 18.597966 
L 14.895 21.416949 
L 14.895 24.235932 
L 14.895 27.054915 
L 14.895 29.873898 
L 14.895 32.692881 
L 14.895 35.511864 
L 14.895 38.330847 
L 14.895 41.149831 
L 14.895 43.968814 
L 14.895 46.787797 
L 14.895 49.60678 
L 14.895 52.425763 
L 14.895 55.244746 
L 14.895 58.063729 
L 14.895 60.882712 
L 14.895 63.701695 
L 14.895 66.520678 
L 14.895 66.850899 
L 17.685 68.543625 
L 18.867807 69.339661 
L 20.475 70.307488 
L 23.265 72.090414 
L 23.359807 72.158644 
L 26.055 73.852938 
L 27.834225 74.977627 
L 28.845 75.535775 
L 31.635 77.109195 
L 32.877936 77.79661 
L 34.425 78.553928 
L 37.215 79.846075 
L 39.078253 80.615593 
L 40.005 80.980792 
L 42.795 82.029374 
L 45.585 82.875069 
L 47.865005 83.434576 
z
" clip-path="url(#p66ded35bbc)" style="fill: #d9dce1"/>
    <path d="M 59.535 78.235056 
L 62.325 78.54894 
L 65.115 78.457541 
L 67.905 77.862029 
L 68.065281 77.79661 
L 70.695 76.550979 
L 72.558445 74.977627 
L 73.485 73.937378 
L 74.649085 72.158644 
L 75.886294 69.339661 
L 76.275 68.161811 
L 76.805219 66.520678 
L 77.478223 63.701695 
L 77.958234 60.882712 
L 78.315261 58.063729 
L 78.591875 55.244746 
L 78.815115 52.425763 
L 79.002795 49.60678 
L 79.065 48.558613 
L 79.222654 46.787797 
L 79.438431 43.968814 
L 79.622497 41.149831 
L 79.651271 38.330847 
L 79.065 37.875563 
L 77.817895 35.511864 
L 76.275 32.920484 
L 76.06699 32.692881 
L 75.023654 29.873898 
L 74.906869 27.054915 
L 74.773881 24.235932 
L 73.485 22.427308 
L 72.585281 21.416949 
L 72.201701 18.597966 
L 72.119889 15.778983 
L 72.098329 12.96 
L 70.975666 12.96 
L 70.979978 15.778983 
L 70.99634 18.597966 
L 71.073056 21.416949 
L 73.485 24.125494 
L 73.563701 24.235932 
L 73.769248 27.054915 
L 73.792472 29.873898 
L 73.999443 32.692881 
L 76.275 35.18278 
L 76.470935 35.511864 
L 76.599476 38.330847 
L 76.466076 41.149831 
L 76.303588 43.968814 
L 76.275 44.371792 
L 75.717577 46.787797 
L 75.180404 49.60678 
L 74.725383 52.425763 
L 74.304438 55.244746 
L 73.868551 58.063729 
L 73.485 60.149569 
L 73.134266 60.882712 
L 71.825066 63.701695 
L 70.695 66.378663 
L 70.57653 66.520678 
L 67.960497 69.339661 
L 67.905 69.388053 
L 65.115 70.600741 
L 62.325 70.974446 
L 59.535 70.443189 
L 57.002552 69.339661 
L 56.745 69.167867 
L 53.955 66.674486 
L 53.813518 66.520678 
L 51.705487 63.701695 
L 51.165 62.932071 
L 50.019365 60.882712 
L 48.385534 58.063729 
L 48.375 58.044126 
L 47.235348 55.244746 
L 45.996551 52.425763 
L 45.585 51.489312 
L 44.960265 49.60678 
L 44.032307 46.787797 
L 43.020725 43.968814 
L 42.795 43.333687 
L 42.222274 41.149831 
L 41.481713 38.330847 
L 40.69608 35.511864 
L 40.005 33.184318 
L 39.894827 32.692881 
L 39.301831 29.873898 
L 38.694266 27.054915 
L 38.057912 24.235932 
L 37.378734 21.416949 
L 37.215 20.735341 
L 36.837161 18.597966 
L 36.342261 15.778983 
L 35.835419 12.96 
L 34.425 12.96 
L 31.635 12.96 
L 28.845 12.96 
L 26.055 12.96 
L 23.265 12.96 
L 22.496765 12.96 
L 23.265 15.701792 
L 23.283115 15.778983 
L 23.974193 18.597966 
L 24.716818 21.416949 
L 25.521253 24.235932 
L 26.055 25.972376 
L 26.33627 27.054915 
L 27.114896 29.873898 
L 27.964934 32.692881 
L 28.845 35.342067 
L 28.893407 35.511864 
L 29.745944 38.330847 
L 30.688189 41.149831 
L 31.635 43.682627 
L 31.728155 43.968814 
L 32.713949 46.787797 
L 33.8288 49.60678 
L 34.425 50.95134 
L 35.001719 52.425763 
L 36.236978 55.244746 
L 37.215 57.173057 
L 37.62257 58.063729 
L 39.08359 60.882712 
L 40.005 62.388245 
L 40.748759 63.701695 
L 42.657626 66.520678 
L 42.795 66.692918 
L 44.83224 69.339661 
L 45.585 70.131653 
L 47.55329 72.158644 
L 48.375 72.842131 
L 51.165 74.921637 
L 51.249855 74.977627 
L 53.955 76.441551 
L 56.745 77.527632 
L 57.758517 77.79661 
z
" clip-path="url(#p66ded35bbc)" style="fill: #ec8165"/>
    <path d="M 59.535 70.443189 
L 62.325 70.974446 
L 65.115 70.600741 
L 67.905 69.388053 
L 67.960497 69.339661 
L 70.57653 66.520678 
L 70.695 66.378663 
L 71.825066 63.701695 
L 73.134266 60.882712 
L 73.485 60.149569 
L 73.868551 58.063729 
L 74.304438 55.244746 
L 74.725383 52.425763 
L 75.180404 49.60678 
L 75.717577 46.787797 
L 76.275 44.371792 
L 76.303588 43.968814 
L 76.466076 41.149831 
L 76.599476 38.330847 
L 76.470935 35.511864 
L 76.275 35.18278 
L 73.999443 32.692881 
L 73.792472 29.873898 
L 73.769248 27.054915 
L 73.563701 24.235932 
L 73.485 24.125494 
L 71.073056 21.416949 
L 70.99634 18.597966 
L 70.979978 15.778983 
L 70.975666 12.96 
L 70.723067 12.96 
L 70.723498 15.778983 
L 70.725134 18.597966 
L 70.732805 21.416949 
L 71.072085 24.235932 
L 73.485 26.675725 
L 73.513283 27.054915 
L 73.515456 29.873898 
L 73.534245 32.692881 
L 74.110983 35.511864 
L 73.91382 38.330847 
L 73.766484 41.149831 
L 73.638229 43.968814 
L 73.513173 46.787797 
L 73.485 47.282094 
L 72.411963 49.60678 
L 71.53484 52.425763 
L 70.956815 55.244746 
L 70.695 56.599684 
L 69.682855 58.063729 
L 68.123515 60.882712 
L 67.905 61.248951 
L 65.115 63.567433 
L 64.646003 63.701695 
L 62.325 64.006864 
L 61.105845 63.701695 
L 59.535 62.928524 
L 57.343751 60.882712 
L 56.745 60.221223 
L 55.55962 58.063729 
L 53.955 55.661779 
L 53.790899 55.244746 
L 52.782687 52.425763 
L 51.371434 49.60678 
L 51.165 49.196973 
L 50.571428 46.787797 
L 49.727053 43.968814 
L 48.601568 41.149831 
L 48.375 40.597198 
L 47.952144 38.330847 
L 47.351383 35.511864 
L 46.606849 32.692881 
L 45.660389 29.873898 
L 45.585 29.64851 
L 45.212224 27.054915 
L 44.753009 24.235932 
L 44.212082 21.416949 
L 43.563237 18.597966 
L 42.795 15.83909 
L 42.787649 15.778983 
L 42.465739 12.96 
L 40.005 12.96 
L 37.215 12.96 
L 35.835419 12.96 
L 36.342261 15.778983 
L 36.837161 18.597966 
L 37.215 20.735341 
L 37.378734 21.416949 
L 38.057912 24.235932 
L 38.694266 27.054915 
L 39.301831 29.873898 
L 39.894827 32.692881 
L 40.005 33.184318 
L 40.69608 35.511864 
L 41.481713 38.330847 
L 42.222274 41.149831 
L 42.795 43.333687 
L 43.020725 43.968814 
L 44.032307 46.787797 
L 44.960265 49.60678 
L 45.585 51.489312 
L 45.996551 52.425763 
L 47.235348 55.244746 
L 48.375 58.044126 
L 48.385534 58.063729 
L 50.019365 60.882712 
L 51.165 62.932071 
L 51.705487 63.701695 
L 53.813518 66.520678 
L 53.955 66.674486 
L 56.745 69.167867 
L 57.002552 69.339661 
z
" clip-path="url(#p66ded35bbc)" style="fill: #c0282f"/>
    <path d="M 62.325 64.006864 
L 64.646003 63.701695 
L 65.115 63.567433 
L 67.905 61.248951 
L 68.123515 60.882712 
L 69.682855 58.063729 
L 70.695 56.599684 
L 70.956815 55.244746 
L 71.53484 52.425763 
L 72.411963 49.60678 
L 73.485 47.282094 
L 73.513173 46.787797 
L 73.638229 43.968814 
L 73.766484 41.149831 
L 73.91382 38.330847 
L 74.110983 35.511864 
L 73.534245 32.692881 
L 73.515456 29.873898 
L 73.513283 27.054915 
L 73.485 26.675725 
L 71.072085 24.235932 
L 70.732805 21.416949 
L 70.725134 18.597966 
L 70.723498 15.778983 
L 70.723067 12.96 
L 70.695 12.96 
L 67.905 12.96 
L 65.115 12.96 
L 62.325 12.96 
L 59.535 12.96 
L 56.745 12.96 
L 53.955 12.96 
L 51.165 12.96 
L 48.375 12.96 
L 45.585 12.96 
L 42.795 12.96 
L 42.465739 12.96 
L 42.787649 15.778983 
L 42.795 15.83909 
L 43.563237 18.597966 
L 44.212082 21.416949 
L 44.753009 24.235932 
L 45.212224 27.054915 
L 45.585 29.64851 
L 45.660389 29.873898 
L 46.606849 32.692881 
L 47.351383 35.511864 
L 47.952144 38.330847 
L 48.375 40.597198 
L 48.601568 41.149831 
L 49.727053 43.968814 
L 50.571428 46.787797 
L 51.165 49.196973 
L 51.371434 49.60678 
L 52.782687 52.425763 
L 53.790899 55.244746 
L 53.955 55.661779 
L 55.55962 58.063729 
L 56.745 60.221223 
L 57.343751 60.882712 
L 59.535 62.928524 
L 61.105845 63.701695 
z
" clip-path="url(#p66ded35bbc)" style="fill: #b40426"/>
   </g>
   <g id="matplotlib.axis_1">
    <g id="xtick_1">
     <g id="line2d_1">
      <defs>
       <path id="m19ebeaf3c0" d="M 0 0 
L 0 3.5 
" style="stroke: #000000; stroke-width: 0.8"/>
      </defs>
      <g>
       <use xlink:href="#m19ebeaf3c0" x="13.5" y="96.12" style="stroke: #000000; stroke-width: 0.8"/>
      </g>
     </g>
     <g id="text_1">
      <text style="font-size: 6px; font-family: 'DejaVu Sans', 'Arial', 'Helvetica', 'Lucida Grande', 'Verdana', 'Geneva', 'Lucid', 'Avant Garde', sans-serif; text-anchor: middle" x="13.5" y="107.679063" transform="rotate(-0 13.5 107.679063)">1</text>
     </g>
    </g>
    <g id="xtick_2">
     <g id="line2d_2">
      <g>
       <use xlink:href="#m19ebeaf3c0" x="41.4" y="96.12" style="stroke: #000000; stroke-width: 0.8"/>
      </g>
     </g>
     <g id="text_2">
      <text style="font-size: 6px; font-family: 'DejaVu Sans', 'Arial', 'Helvetica', 'Lucida Grande', 'Verdana', 'Geneva', 'Lucid', 'Avant Garde', sans-serif; text-anchor: middle" x="41.4" y="107.679063" transform="rotate(-0 41.4 107.679063)">10</text>
     </g>
    </g>
    <g id="xtick_3">
     <g id="line2d_3">
      <g>
       <use xlink:href="#m19ebeaf3c0" x="69.3" y="96.12" style="stroke: #000000; stroke-width: 0.8"/>
      </g>
     </g>
     <g id="text_3">
      <text style="font-size: 6px; font-family: 'DejaVu Sans', 'Arial', 'Helvetica', 'Lucida Grande', 'Verdana', 'Geneva', 'Lucid', 'Avant Garde', sans-serif; text-anchor: middle" x="69.3" y="107.679063" transform="rotate(-0 69.3 107.679063)">100</text>
     </g>
    </g>
    <g id="xtick_4">
     <g id="line2d_4">
      <g>
       <use xlink:href="#m19ebeaf3c0" x="97.2" y="96.12" style="stroke: #000000; stroke-width: 0.8"/>
      </g>
     </g>
     <g id="text_4">
      <text style="font-size: 6px; font-family: 'DejaVu Sans', 'Arial', 'Helvetica', 'Lucida Grande', 'Verdana', 'Geneva', 'Lucid', 'Avant Garde', sans-serif; text-anchor: middle" x="97.2" y="107.679063" transform="rotate(-0 97.2 107.679063)">1000</text>
     </g>
    </g>
    <g id="text_5">
     <text style="font-size: 6px; font-family: 'DejaVu Sans', 'Arial', 'Helvetica', 'Lucida Grande', 'Verdana', 'Geneva', 'Lucid', 'Avant Garde', sans-serif; text-anchor: middle" x="55.35" y="117.485938" transform="rotate(-0 55.35 117.485938)">C (µg/mL)</text>
    </g>
   </g>
   <g id="matplotlib.axis_2">
    <g id="ytick_1">
     <g id="line2d_5">
      <defs>
       <path id="m1a06c717ad" d="M 0 0 
L -3.5 0 
" style="stroke: #000000; stroke-width: 0.8"/>
      </defs>
      <g>
       <use xlink:href="#m1a06c717ad" x="13.5" y="96.12" style="stroke: #000000; stroke-width: 0.8"/>
      </g>
     </g>
     <g id="text_6">
      <text style="font-size: 6px; font-family: 'DejaVu Sans', 'Arial', 'Helvetica', 'Lucida Grande', 'Verdana', 'Geneva', 'Lucid', 'Avant Garde', sans-serif; text-anchor: end" x="6.5" y="98.399531" transform="rotate(-0 6.5 98.399531)">0</text>
     </g>
    </g>
    <g id="ytick_2">
     <g id="line2d_6">
      <g>
       <use xlink:href="#m1a06c717ad" x="13.5" y="79.206102" style="stroke: #000000; stroke-width: 0.8"/>
      </g>
     </g>
     <g id="text_7">
      <text style="font-size: 6px; font-family: 'DejaVu Sans', 'Arial', 'Helvetica', 'Lucida Grande', 'Verdana', 'Geneva', 'Lucid', 'Avant Garde', sans-serif; text-anchor: end" x="6.5" y="81.485633" transform="rotate(-0 6.5 81.485633)">2</text>
     </g>
    </g>
    <g id="ytick_3">
     <g id="line2d_7">
      <g>
       <use xlink:href="#m1a06c717ad" x="13.5" y="62.292203" style="stroke: #000000; stroke-width: 0.8"/>
      </g>
     </g>
     <g id="text_8">
      <text style="font-size: 6px; font-family: 'DejaVu Sans', 'Arial', 'Helvetica', 'Lucida Grande', 'Verdana', 'Geneva', 'Lucid', 'Avant Garde', sans-serif; text-anchor: end" x="6.5" y="64.571735" transform="rotate(-0 6.5 64.571735)">4</text>
     </g>
    </g>
    <g id="ytick_4">
     <g id="line2d_8">
      <g>
       <use xlink:href="#m1a06c717ad" x="13.5" y="45.378305" style="stroke: #000000; stroke-width: 0.8"/>
      </g>
     </g>
     <g id="text_9">
      <text style="font-size: 6px; font-family: 'DejaVu Sans', 'Arial', 'Helvetica', 'Lucida Grande', 'Verdana', 'Geneva', 'Lucid', 'Avant Garde', sans-serif; text-anchor: end" x="6.5" y="47.657836" transform="rotate(-0 6.5 47.657836)">6</text>
     </g>
    </g>
    <g id="ytick_5">
     <g id="line2d_9">
      <g>
       <use xlink:href="#m1a06c717ad" x="13.5" y="28.464407" style="stroke: #000000; stroke-width: 0.8"/>
      </g>
     </g>
     <g id="text_10">
      <text style="font-size: 6px; font-family: 'DejaVu Sans', 'Arial', 'Helvetica', 'Lucida Grande', 'Verdana', 'Geneva', 'Lucid', 'Avant Garde', sans-serif; text-anchor: end" x="6.5" y="30.743938" transform="rotate(-0 6.5 30.743938)">8</text>
     </g>
    </g>
    <g id="text_11">
     <text style="font-size: 6px; font-family: 'DejaVu Sans', 'Arial', 'Helvetica', 'Lucida Grande', 'Verdana', 'Geneva', 'Lucid', 'Avant Garde', sans-serif; text-anchor: middle" x="-2.565312" y="54.54" transform="rotate(-90 -2.565312 54.54)">τ (h)</text>
    </g>
   </g>
   <g id="QuadContourSet_2">
    <path d="M 14.895 94.710508 
L 17.685 94.710508 
L 20.475 94.710508 
L 23.265 94.710508 
L 26.055 94.710508 
L 28.845 94.710508 
L 30.1305 94.710508 
M 49.8795 94.710508 
L 51.165 94.710508 
L 53.955 94.710508 
L 56.745 94.710508 
L 59.535 94.710508 
L 62.325 94.710508 
L 65.115 94.710508 
L 67.905 94.710508 
L 70.695 94.710508 
L 73.485 94.710508 
L 76.275 94.710508 
L 79.065 94.710508 
L 81.855 94.710508 
L 84.645 94.710508 
L 87.435 94.710508 
L 90.225 94.710508 
L 93.015 94.710508 
L 95.805 94.710508 
" clip-path="url(#p66ded35bbc)" style="fill: none; stroke: #000000"/>
    <path d="M 14.895 85.802532 
L 17.685 86.011033 
L 20.475 86.231867 
L 20.716441 86.253559 
L 23.265 86.589309 
L 26.055 86.963105 
L 28.845 87.329108 
L 31.635 87.677589 
L 34.425 88.000608 
L 37.215 88.292614 
L 40.005 88.550627 
L 42.795 88.774052 
L 45.585 88.964265 
L 47.369029 89.072542 
L 48.375 89.240657 
L 51.165 89.671858 
L 53.955 90.023036 
L 56.745 90.304871 
L 59.535 90.527174 
L 62.325 90.698451 
L 65.115 90.825635 
L 67.905 90.913923 
L 70.695 90.966609 
L 73.485 90.984852 
L 74.777785 90.97673 
M 94.419409 89.278966 
L 95.367178 89.072542 
L 95.805 88.954575 
M 95.805 36.544363 
L 93.015 36.104276 
L 90.225 35.761097 
L 87.695695 35.511864 
L 87.435 35.40327 
L 86.752361 35.080478 
M 76.097171 20.597088 
L 75.903776 18.597966 
L 74.947146 15.778983 
L 73.485 13.721805 
L 73.473592 12.96 
" clip-path="url(#p66ded35bbc)" style="fill: none; stroke: #000000"/>
    <path d="M 14.895 66.850899 
L 17.685 68.543625 
L 18.867807 69.339661 
L 20.475 70.307488 
L 23.134272 72.006873 
M 40.635366 81.217706 
L 42.795 82.029374 
L 45.585 82.875069 
L 47.865005 83.434576 
L 48.375 83.580206 
L 51.165 84.318445 
L 53.955 84.890787 
L 56.745 85.321725 
L 59.535 85.633747 
L 62.325 85.844332 
L 65.115 85.962122 
L 67.905 85.981872 
L 70.695 85.87712 
L 73.485 85.588187 
L 76.275 85.003126 
L 79.065 83.934179 
L 80.023171 83.434576 
L 81.855 81.956709 
L 83.164401 80.615593 
L 84.641944 77.79661 
L 84.645 77.787168 
L 85.753968 74.977627 
L 86.443949 72.158644 
L 86.905361 69.339661 
L 87.231793 66.520678 
L 87.435 64.169425 
L 87.495072 63.701695 
L 87.791153 60.882712 
L 88.029238 58.063729 
L 88.224612 55.244746 
L 88.387675 52.425763 
L 88.525727 49.60678 
L 88.644036 46.787797 
L 88.74588 43.968814 
L 88.83702 41.149831 
L 87.435 40.166639 
L 85.452841 38.330847 
L 84.645 37.937362 
L 81.855 36.431143 
L 79.950199 35.511864 
L 79.065 34.743139 
L 78.562193 32.692881 
L 76.275 29.924312 
L 76.254837 29.873898 
L 76.04449 27.054915 
L 75.984061 24.235932 
L 75.215295 21.416949 
L 73.485 18.986035 
L 73.407062 18.597966 
L 73.259801 15.778983 
L 73.220992 12.96 
" clip-path="url(#p66ded35bbc)" style="fill: none; stroke: #000000"/>
    <path d="M 22.496765 12.96 
L 23.265 15.701792 
L 23.283115 15.778983 
L 23.974193 18.597966 
L 24.716818 21.416949 
L 25.185192 23.058275 
M 31.08727 42.217404 
L 31.635 43.682627 
L 31.728155 43.968814 
L 32.713949 46.787797 
L 33.8288 49.60678 
L 34.425 50.95134 
L 35.001719 52.425763 
L 36.236978 55.244746 
L 37.215 57.173057 
L 37.62257 58.063729 
L 39.08359 60.882712 
L 40.005 62.388245 
L 40.748759 63.701695 
L 42.657626 66.520678 
L 42.795 66.692918 
L 44.83224 69.339661 
L 45.585 70.131653 
L 47.55329 72.158644 
L 48.375 72.842131 
L 51.165 74.921637 
L 51.249855 74.977627 
L 53.955 76.441551 
L 56.745 77.527632 
L 57.758517 77.79661 
L 59.535 78.235056 
L 62.325 78.54894 
L 65.115 78.457541 
L 67.905 77.862029 
L 68.065281 77.79661 
L 70.695 76.550979 
L 72.558445 74.977627 
L 73.485 73.937378 
L 74.649085 72.158644 
L 75.886294 69.339661 
L 76.275 68.161811 
L 76.805219 66.520678 
L 77.478223 63.701695 
L 77.958234 60.882712 
L 78.315261 58.063729 
L 78.591875 55.244746 
L 78.815115 52.425763 
L 79.002795 49.60678 
L 79.065 48.558613 
L 79.222654 46.787797 
L 79.438431 43.968814 
L 79.622497 41.149831 
L 79.651271 38.330847 
L 79.065 37.875563 
L 77.817895 35.511864 
L 76.275 32.920484 
L 76.06699 32.692881 
L 75.023654 29.873898 
L 74.906869 27.054915 
L 74.773881 24.235932 
L 73.485 22.427308 
L 72.585281 21.416949 
L 72.201701 18.597966 
L 72.119889 15.778983 
L 72.098329 12.96 
" clip-path="url(#p66ded35bbc)" style="fill: none; stroke: #000000"/>
    <path d="M 35.835419 12.96 
L 36.342261 15.778983 
L 36.837161 18.597966 
L 37.215 20.735341 
L 37.378734 21.416949 
L 38.057912 24.235932 
L 38.694266 27.054915 
L 39.301831 29.873898 
L 39.894827 32.692881 
L 40.005 33.184318 
L 40.69608 35.511864 
L 41.481713 38.330847 
L 42.222274 41.149831 
L 42.795 43.333687 
L 43.020725 43.968814 
L 44.032307 46.787797 
L 44.960265 49.60678 
L 45.585 51.489312 
L 45.996551 52.425763 
L 47.235348 55.244746 
L 48.375 58.044126 
L 48.385534 58.063729 
L 50.019365 60.882712 
L 50.403571 61.569994 
M 66.180519 70.137607 
L 67.905 69.388053 
L 67.960497 69.339661 
L 70.57653 66.520678 
L 70.695 66.378663 
L 71.825066 63.701695 
L 73.134266 60.882712 
L 73.485 60.149569 
L 73.868551 58.063729 
L 74.304438 55.244746 
L 74.725383 52.425763 
L 75.180404 49.60678 
L 75.717577 46.787797 
L 76.275 44.371792 
L 76.303588 43.968814 
L 76.466076 41.149831 
L 76.599476 38.330847 
L 76.470935 35.511864 
L 76.275 35.18278 
L 73.999443 32.692881 
L 73.792472 29.873898 
L 73.769248 27.054915 
L 73.563701 24.235932 
L 73.485 24.125494 
L 71.073056 21.416949 
L 70.99634 18.597966 
L 70.979978 15.778983 
L 70.975666 12.96 
" clip-path="url(#p66ded35bbc)" style="fill: none; stroke: #000000"/>
    <path d="M 42.465739 12.96 
L 42.787649 15.778983 
L 42.795 15.83909 
L 43.563237 18.597966 
L 44.212082 21.416949 
L 44.499422 22.914393 
M 49.094682 42.384924 
L 49.727053 43.968814 
L 50.571428 46.787797 
L 51.165 49.196973 
L 51.371434 49.60678 
L 52.782687 52.425763 
L 53.790899 55.244746 
L 53.955 55.661779 
L 55.55962 58.063729 
L 56.745 60.221223 
L 57.343751 60.882712 
L 59.535 62.928524 
L 61.105845 63.701695 
L 62.325 64.006864 
L 64.646003 63.701695 
L 65.115 63.567433 
L 67.905 61.248951 
L 68.123515 60.882712 
L 69.682855 58.063729 
L 70.695 56.599684 
L 70.956815 55.244746 
L 71.53484 52.425763 
L 72.411963 49.60678 
L 73.485 47.282094 
L 73.513173 46.787797 
L 73.638229 43.968814 
L 73.766484 41.149831 
L 73.91382 38.330847 
L 74.110983 35.511864 
L 73.534245 32.692881 
L 73.515456 29.873898 
L 73.513283 27.054915 
L 73.485 26.675725 
L 71.072085 24.235932 
L 70.732805 21.416949 
L 70.725134 18.597966 
L 70.723498 15.778983 
L 70.723067 12.96 
" clip-path="url(#p66ded35bbc)" style="fill: none; stroke: #000000"/>
    <path clip-path="url(#p66ded35bbc)" style="fill: none; stroke: #000000"/>
   </g>
   <g id="patch_3">
    <path d="M 13.5 96.12 
L 13.5 12.96 
" style="fill: none; stroke: #000000; stroke-width: 0.5; stroke-linejoin: miter; stroke-linecap: square"/>
   </g>
   <g id="patch_4">
    <path d="M 13.5 96.12 
L 97.2 96.12 
" style="fill: none; stroke: #000000; stroke-width: 0.5; stroke-linejoin: miter; stroke-linecap: square"/>
   </g>
   <g id="text_12">
    <text style="font-size: 6px; font-family: 'DejaVu Sans', 'Arial', 'Helvetica', 'Lucida Grande', 'Verdana', 'Geneva', 'Lucid', 'Avant Garde', sans-serif; text-anchor: middle" x="55.35" y="6.96" transform="rotate(-0 55.35 6.96)">Fraction of survivors descended from T</text>
   </g>
   <g id="text_13">
    <g clip-path="url(#p66ded35bbc)">
     <text style="font-size: 6px; font-family: 'DejaVu Sans', 'Arial', 'Helvetica', 'Lucida Grande', 'Verdana', 'Geneva', 'Lucid', 'Avant Garde', sans-serif; text-anchor: middle" x="40.005" y="96.366133" transform="rotate(-0 40.005 96.366133)">0.00</text>
    </g>
   </g>
   <g id="text_14">
    <g clip-path="url(#p66ded35bbc)">
     <text style="font-size: 6px; font-family: 'DejaVu Sans', 'Arial', 'Helvetica', 'Lucida Grande', 'Verdana', 'Geneva', 'Lucid', 'Avant Garde', sans-serif" transform="translate(78.112933 92.804463) rotate(-4.424252)">0.01</text>
    </g>
   </g>
   <g id="text_15">
    <g clip-path="url(#p66ded35bbc)">
     <text style="font-size: 6px; font-family: 'DejaVu Sans', 'Arial', 'Helvetica', 'Lucida Grande', 'Verdana', 'Geneva', 'Lucid', 'Avant Garde', sans-serif" transform="translate(73.455884 25.611199) rotate(-307.805784)">0.01</text>
    </g>
   </g>
   <g id="text_16">
    <g clip-path="url(#p66ded35bbc)">
     <text style="font-size: 6px; font-family: 'DejaVu Sans', 'Arial', 'Helvetica', 'Lucida Grande', 'Verdana', 'Geneva', 'Lucid', 'Avant Garde', sans-serif" transform="translate(24.952275 75.465875) rotate(-332.263993)">0.10</text>
    </g>
   </g>
   <g id="text_17">
    <g clip-path="url(#p66ded35bbc)">
     <text style="font-size: 6px; font-family: 'DejaVu Sans', 'Arial', 'Helvetica', 'Lucida Grande', 'Verdana', 'Geneva', 'Lucid', 'Avant Garde', sans-serif" transform="translate(24.422742 26.792695) rotate(-287.057844)">0.50</text>
    </g>
   </g>
   <g id="text_18">
    <g clip-path="url(#p66ded35bbc)">
     <text style="font-size: 6px; font-family: 'DejaVu Sans', 'Arial', 'Helvetica', 'Lucida Grande', 'Verdana', 'Geneva', 'Lucid', 'Avant Garde', sans-serif" transform="translate(50.163351 67.157589) rotate(-329.094637)">0.90</text>
    </g>
   </g>
   <g id="text_19">
    <g clip-path="url(#p66ded35bbc)">
     <text style="font-size: 6px; font-family: 'DejaVu Sans', 'Arial', 'Helvetica', 'Lucida Grande', 'Verdana', 'Geneva', 'Lucid', 'Avant Garde', sans-serif" transform="translate(43.439532 26.583264) rotate(-283.482132)">0.99</text>
    </g>
   </g>
  </g>
 </g>
 <defs>
  <clipPath id="p66ded35bbc">
   <rect x="13.5" y="12.96" width="83.7" height="83.16"/>
  </clipPath>
 </defs>
</svg>
