<?xml version="1.0" encoding="utf-8" standalone="no"?>
<!DOCTYPE svg PUBLIC "-//W3C//DTD SVG 1.1//EN"
  "http://www.w3.org/Graphics/SVG/1.1/DTD/svg11.dtd">
<svg xmlns:xlink="http://www.w3.org/1999/xlink" width="108pt" height="108pt" viewBox="0 0 108 108" xmlns="http://www.w3.org/2000/svg" version="1.1">
 <metadata>
  <rdf:RDF xmlns:dc="http://purl.org/dc/elements/1.1/" xmlns:cc="http://creativecommons.org/ns#" xmlns:rdf="http://www.w3.org/1999/02/22-rdf-syntax-ns#">
   <cc:Work>
    <dc:type rdf:resource="http://purl.org/dc/dcmitype/StillImage"/>
    <dc:date>2026-02-16T19:46:11.067298</dc:date>
    <dc:format>image/svg+xml</dc:format>
    <dc:creator>
     <cc:Agent>
      <dc:title>Matplotlib v3.10.8, https://matplotlib.org/</dc:title>
     </cc:Agent>
    </dc:creator>
   </cc:Work>
  </rdf:RDF>
 </metadata>
 <defs>
  <style type="text/css">*{stroke-linejoin: round; stroke-linecap: butt}</style>
 </defs>
 <g id="figure_1">
  <g id="patch_1">
   <path d="M 0 108 
L 108 108 
L 108 0 
L 0 0 
L 0 108 
z
" style="fill: none"/>
  </g>
  <g id="axes_1">
   <g id="patch_2">
    <path d="M 13.5 96.12 
L 97.2 96.12 
L 97.2 12.96 
L 13.5 12.96 
L 13.5 96.12 
z
" style="fill: none"/>
   </g>
   <g id="QuadContourSet_1">
    <path d="M 17.685 94.710508 
L 20.475 94.710508 
L 23.265 94.710508 
L 26.055 94.710508 
L 28.845 94.710508 
L 31.635 94.710508 
L 34.425 94.710508 
L 37.215 94.710508 
L 40.005 94.710508 
L 42.795 94.710508 
L 45.585 94.710508 
L 48.375 94.710508 
L 51.165 94.710508 
L 53.955 94.710508 
L 56.745 94.710508 
L 59.535 94.710508 
L 62.325 94.710508 
L 65.115 94.710508 
L 67.905 94.710508 
L 70.695 94.710508 
L 73.485 94.710508 
L 76.275 94.710508 
L 79.065 94.710508 
L 81.855 94.710508 
L 84.645 94.710508 
L 87.435 94.710508 
L 90.225 94.710508 
L 93.015 94.710508 
L 95.805 94.710508 
L 95.805 91.891525 
L 95.805 90.569881 
L 93.015 90.608482 
L 90.225 90.657689 
L 87.435 90.719019 
L 84.645 90.793292 
L 81.855 90.880074 
L 79.065 90.977123 
L 76.275 91.080082 
L 73.485 91.182561 
L 70.695 91.276437 
L 67.905 91.351567 
L 65.115 91.393193 
L 62.325 91.374097 
L 59.535 91.236207 
L 56.745 90.852344 
L 53.955 89.970626 
L 52.090687 89.072542 
L 51.165 88.8382 
L 48.375 88.130411 
L 45.585 87.44287 
L 42.795 87.011652 
L 40.005 86.827708 
L 37.215 86.775588 
L 34.425 86.774699 
L 31.635 86.788841 
L 28.845 86.804765 
L 26.055 86.818466 
L 23.265 86.82923 
L 20.475 86.837366 
L 17.685 86.843407 
L 14.895 86.847856 
L 14.895 89.072542 
L 14.895 91.891525 
L 14.895 94.710508 
z
M 87.435 24.256482 
L 90.225 24.69735 
L 93.015 25.11871 
L 95.805 25.48695 
L 95.805 24.235932 
L 95.805 21.416949 
L 95.805 18.597966 
L 95.805 15.778983 
L 95.805 12.96 
L 93.015 12.96 
L 90.225 12.96 
L 87.435 12.96 
L 84.645 12.96 
L 81.855 12.96 
L 79.065 12.96 
L 77.607948 12.96 
L 78.826339 15.778983 
L 79.065 16.704369 
L 80.736722 18.597966 
L 81.855 20.317039 
L 83.057755 21.416949 
L 84.645 22.40492 
L 87.361579 24.235932 
z
" clip-path="url(#pe253c6b2af)" style="fill: #465ecf"/>
    <path d="M 53.955 89.970626 
L 56.745 90.852344 
L 59.535 91.236207 
L 62.325 91.374097 
L 65.115 91.393193 
L 67.905 91.351567 
L 70.695 91.276437 
L 73.485 91.182561 
L 76.275 91.080082 
L 79.065 90.977123 
L 81.855 90.880074 
L 84.645 90.793292 
L 87.435 90.719019 
L 90.225 90.657689 
L 93.015 90.608482 
L 95.805 90.569881 
L 95.805 89.072542 
L 95.805 86.253559 
L 95.805 83.434576 
L 95.805 82.761793 
L 93.015 83.023139 
L 90.225 83.343938 
L 89.601542 83.434576 
L 87.435 83.738181 
L 84.645 84.201279 
L 81.855 84.715794 
L 79.065 85.255739 
L 76.275 85.786173 
L 73.600533 86.253559 
L 73.485 86.276118 
L 70.695 86.836908 
L 67.905 87.284652 
L 65.115 87.57219 
L 62.325 87.624475 
L 59.535 87.289625 
L 56.76506 86.253559 
L 56.745 86.247934 
L 53.955 85.009076 
L 51.740978 83.434576 
L 51.165 83.02586 
L 48.375 80.986471 
L 47.765868 80.615593 
L 45.585 79.281151 
L 42.795 77.8377 
L 42.669107 77.79661 
L 40.005 76.937561 
L 37.215 76.229555 
L 34.425 75.667437 
L 31.635 75.219041 
L 29.704583 74.977627 
L 28.845 74.867785 
L 26.055 74.594784 
L 23.265 74.378285 
L 20.475 74.209775 
L 17.685 74.080581 
L 14.895 73.982688 
L 14.895 74.977627 
L 14.895 77.79661 
L 14.895 80.615593 
L 14.895 83.434576 
L 14.895 86.253559 
L 14.895 86.847856 
L 17.685 86.843407 
L 20.475 86.837366 
L 23.265 86.82923 
L 26.055 86.818466 
L 28.845 86.804765 
L 31.635 86.788841 
L 34.425 86.774699 
L 37.215 86.775588 
L 40.005 86.827708 
L 42.795 87.011652 
L 45.585 87.44287 
L 48.375 88.130411 
L 51.165 88.8382 
L 52.090687 89.072542 
z
M 95.805 29.894255 
L 95.805 29.873898 
L 95.805 27.054915 
L 95.805 25.48695 
L 93.015 25.11871 
L 90.225 24.69735 
L 87.435 24.256482 
L 87.361579 24.235932 
L 84.645 22.40492 
L 83.057755 21.416949 
L 81.855 20.317039 
L 80.736722 18.597966 
L 79.065 16.704369 
L 78.826339 15.778983 
L 77.607948 12.96 
L 76.275 12.96 
L 75.711611 12.96 
L 76.164809 15.778983 
L 76.275 16.441225 
L 77.953106 18.597966 
L 78.986055 21.416949 
L 79.065 21.646247 
L 81.46284 24.235932 
L 81.855 24.699539 
L 84.630618 27.054915 
L 84.645 27.062087 
L 87.435 27.783726 
L 90.225 28.573647 
L 93.015 29.325437 
L 95.421552 29.873898 
z
" clip-path="url(#pe253c6b2af)" style="fill: #7295f4"/>
    <path d="M 59.535 87.289625 
L 62.325 87.624475 
L 65.115 87.57219 
L 67.905 87.284652 
L 70.695 86.836908 
L 73.485 86.276118 
L 73.600533 86.253559 
L 76.275 85.786173 
L 79.065 85.255739 
L 81.855 84.715794 
L 84.645 84.201279 
L 87.435 83.738181 
L 89.601542 83.434576 
L 90.225 83.343938 
L 93.015 83.023139 
L 95.805 82.761793 
L 95.805 80.615593 
L 95.805 77.79661 
L 95.805 74.977627 
L 95.805 72.158644 
L 95.805 69.339661 
L 95.805 66.520678 
L 95.805 63.701695 
L 95.805 60.882712 
L 95.805 58.063729 
L 95.805 55.244746 
L 95.805 52.425763 
L 95.805 49.60678 
L 95.805 46.787797 
L 95.805 45.206949 
L 94.827329 46.787797 
L 93.015 49.329687 
L 92.864054 49.60678 
L 91.12207 52.425763 
L 90.225 53.669022 
L 89.341983 55.244746 
L 87.450784 58.063729 
L 87.435 58.08428 
L 85.722397 60.882712 
L 84.645 62.328393 
L 83.805096 63.701695 
L 81.855 66.292534 
L 81.707901 66.520678 
L 79.523031 69.339661 
L 79.065 69.821607 
L 77.035072 72.158644 
L 76.275 72.867225 
L 74.052532 74.977627 
L 73.485 75.418611 
L 70.695 77.474462 
L 70.204447 77.79661 
L 67.905 79.058589 
L 65.115 80.167745 
L 62.986077 80.615593 
L 62.325 80.738906 
L 60.287095 80.615593 
L 59.535 80.570862 
L 56.745 79.514978 
L 54.303233 77.79661 
L 53.955 77.539128 
L 51.409551 74.977627 
L 51.165 74.702243 
L 49.107777 72.158644 
L 48.375 71.05739 
L 47.074594 69.339661 
L 45.585 66.780481 
L 45.383578 66.520678 
L 43.598948 63.701695 
L 42.795 62.108914 
L 41.956623 60.882712 
L 40.408648 58.063729 
L 40.005 57.197746 
L 38.793733 55.244746 
L 37.383011 52.425763 
L 37.215 52.04342 
L 35.806499 49.60678 
L 34.474169 46.787797 
L 34.425 46.671671 
L 32.921297 43.968814 
L 31.635 41.192098 
L 31.609114 41.149831 
L 30.049618 38.330847 
L 28.845 35.774551 
L 28.681129 35.511864 
L 27.085317 32.692881 
L 26.055 30.612259 
L 25.57044 29.873898 
L 23.894275 27.054915 
L 23.265 25.880524 
L 22.096443 24.235932 
L 20.475 21.707565 
L 20.228182 21.416949 
L 18.015671 18.597966 
L 17.685 18.141135 
L 15.419594 15.778983 
L 14.895 15.190676 
L 14.895 15.778983 
L 14.895 18.597966 
L 14.895 21.416949 
L 14.895 24.235932 
L 14.895 27.054915 
L 14.895 29.873898 
L 14.895 32.692881 
L 14.895 35.511864 
L 14.895 38.330847 
L 14.895 41.149831 
L 14.895 43.968814 
L 14.895 46.787797 
L 14.895 49.60678 
L 14.895 52.425763 
L 14.895 55.244746 
L 14.895 58.063729 
L 14.895 60.882712 
L 14.895 63.701695 
L 14.895 66.520678 
L 14.895 69.339661 
L 14.895 72.158644 
L 14.895 73.982688 
L 17.685 74.080581 
L 20.475 74.209775 
L 23.265 74.378285 
L 26.055 74.594784 
L 28.845 74.867785 
L 29.704583 74.977627 
L 31.635 75.219041 
L 34.425 75.667437 
L 37.215 76.229555 
L 40.005 76.937561 
L 42.669107 77.79661 
L 42.795 77.8377 
L 45.585 79.281151 
L 47.765868 80.615593 
L 48.375 80.986471 
L 51.165 83.02586 
L 51.740978 83.434576 
L 53.955 85.009076 
L 56.745 86.247934 
L 56.76506 86.253559 
z
M 84.645 30.071212 
L 87.435 31.241845 
L 90.225 31.679495 
L 93.015 32.03164 
L 95.805 32.627426 
L 95.805 29.894255 
L 95.421552 29.873898 
L 93.015 29.325437 
L 90.225 28.573647 
L 87.435 27.783726 
L 84.645 27.062087 
L 84.630618 27.054915 
L 81.855 24.699539 
L 81.46284 24.235932 
L 79.065 21.646247 
L 78.986055 21.416949 
L 77.953106 18.597966 
L 76.275 16.441225 
L 76.164809 15.778983 
L 75.711611 12.96 
L 73.485 12.96 
L 73.11731 12.96 
L 73.485 13.331511 
L 74.973779 15.778983 
L 75.274652 18.597966 
L 76.275 20.026711 
L 77.372202 21.416949 
L 78.329219 24.235932 
L 79.065 24.996543 
L 80.993587 27.054915 
L 81.855 27.974056 
L 84.486362 29.873898 
z
" clip-path="url(#pe253c6b2af)" style="fill: #d9dce1"/>
    <path d="M 62.325 80.738906 
L 62.986077 80.615593 
L 65.115 80.167745 
L 67.905 79.058589 
L 70.204447 77.79661 
L 70.695 77.474462 
L 73.485 75.418611 
L 74.052532 74.977627 
L 76.275 72.867225 
L 77.035072 72.158644 
L 79.065 69.821607 
L 79.523031 69.339661 
L 81.707901 66.520678 
L 81.855 66.292534 
L 83.805096 63.701695 
L 84.645 62.328393 
L 85.722397 60.882712 
L 87.435 58.08428 
L 87.450784 58.063729 
L 89.341983 55.244746 
L 90.225 53.669022 
L 91.12207 52.425763 
L 92.864054 49.60678 
L 93.015 49.329687 
L 94.827329 46.787797 
L 95.805 45.206949 
L 95.805 43.968814 
L 95.805 41.149831 
L 95.805 38.330847 
L 95.805 35.511864 
L 95.805 32.692881 
L 95.805 32.627426 
L 93.015 32.03164 
L 90.225 31.679495 
L 87.435 31.241845 
L 84.645 30.071212 
L 84.486362 29.873898 
L 81.855 27.974056 
L 80.993587 27.054915 
L 79.065 24.996543 
L 78.329219 24.235932 
L 77.372202 21.416949 
L 76.275 20.026711 
L 75.274652 18.597966 
L 74.973779 15.778983 
L 73.485 13.331511 
L 73.11731 12.96 
L 71.179462 12.96 
L 73.485 15.289499 
L 73.782749 15.778983 
L 73.842915 18.597966 
L 74.708325 21.416949 
L 76.275 23.001355 
L 76.685122 24.235932 
L 79.065 26.696121 
L 79.401171 27.054915 
L 81.855 29.673186 
L 82.132995 29.873898 
L 83.153922 32.692881 
L 82.527893 35.511864 
L 81.896325 38.330847 
L 81.855 38.496687 
L 81.034753 41.149831 
L 80.227564 43.968814 
L 79.443834 46.787797 
L 79.065 48.055312 
L 78.459452 49.60678 
L 77.407797 52.425763 
L 76.410644 55.244746 
L 76.275 55.582981 
L 75.019117 58.063729 
L 73.719836 60.882712 
L 73.485 61.33323 
L 71.948217 63.701695 
L 70.695 65.677947 
L 70.017297 66.520678 
L 67.905 69.003847 
L 67.551273 69.339661 
L 65.115 71.228896 
L 63.574027 72.158644 
L 62.325 72.670291 
L 59.535 73.013398 
L 56.745 72.367118 
L 56.449709 72.158644 
L 53.955 70.0559 
L 53.42619 69.339661 
L 51.390139 66.520678 
L 51.165 66.202263 
L 50.156533 63.701695 
L 48.793648 60.882712 
L 48.375 60.064504 
L 47.740859 58.063729 
L 46.827013 55.244746 
L 45.685093 52.425763 
L 45.585 52.178032 
L 44.907721 49.60678 
L 44.132971 46.787797 
L 43.241039 43.968814 
L 42.795 42.650227 
L 42.427399 41.149831 
L 41.768688 38.330847 
L 41.06891 35.511864 
L 40.290537 32.692881 
L 40.005 31.685905 
L 39.620199 29.873898 
L 39.039813 27.054915 
L 38.439984 24.235932 
L 37.801501 21.416949 
L 37.215 18.99837 
L 37.13662 18.597966 
L 36.621913 15.778983 
L 36.105224 12.96 
L 34.425 12.96 
L 31.635 12.96 
L 28.845 12.96 
L 26.055 12.96 
L 23.265 12.96 
L 20.475 12.96 
L 17.685 12.96 
L 14.895 12.96 
L 14.895 15.190676 
L 15.419594 15.778983 
L 17.685 18.141135 
L 18.015671 18.597966 
L 20.228182 21.416949 
L 20.475 21.707565 
L 22.096443 24.235932 
L 23.265 25.880524 
L 23.894275 27.054915 
L 25.57044 29.873898 
L 26.055 30.612259 
L 27.085317 32.692881 
L 28.681129 35.511864 
L 28.845 35.774551 
L 30.049618 38.330847 
L 31.609114 41.149831 
L 31.635 41.192098 
L 32.921297 43.968814 
L 34.425 46.671671 
L 34.474169 46.787797 
L 35.806499 49.60678 
L 37.215 52.04342 
L 37.383011 52.425763 
L 38.793733 55.244746 
L 40.005 57.197746 
L 40.408648 58.063729 
L 41.956623 60.882712 
L 42.795 62.108914 
L 43.598948 63.701695 
L 45.383578 66.520678 
L 45.585 66.780481 
L 47.074594 69.339661 
L 48.375 71.05739 
L 49.107777 72.158644 
L 51.165 74.702243 
L 51.409551 74.977627 
L 53.955 77.539128 
L 54.303233 77.79661 
L 56.745 79.514978 
L 59.535 80.570862 
L 60.287095 80.615593 
z
" clip-path="url(#pe253c6b2af)" style="fill: #ec8165"/>
    <path d="M 56.745 72.367118 
L 59.535 73.013398 
L 62.325 72.670291 
L 63.574027 72.158644 
L 65.115 71.228896 
L 67.551273 69.339661 
L 67.905 69.003847 
L 70.017297 66.520678 
L 70.695 65.677947 
L 71.948217 63.701695 
L 73.485 61.33323 
L 73.719836 60.882712 
L 75.019117 58.063729 
L 76.275 55.582981 
L 76.410644 55.244746 
L 77.407797 52.425763 
L 78.459452 49.60678 
L 79.065 48.055312 
L 79.443834 46.787797 
L 80.227564 43.968814 
L 81.034753 41.149831 
L 81.855 38.496687 
L 81.896325 38.330847 
L 82.527893 35.511864 
L 83.153922 32.692881 
L 82.132995 29.873898 
L 81.855 29.673186 
L 79.401171 27.054915 
L 79.065 26.696121 
L 76.685122 24.235932 
L 76.275 23.001355 
L 74.708325 21.416949 
L 73.842915 18.597966 
L 73.782749 15.778983 
L 73.485 15.289499 
L 71.179462 12.96 
L 70.743446 12.96 
L 73.485 15.730047 
L 73.514768 15.778983 
L 73.520775 18.597966 
L 73.607222 21.416949 
L 76.275 24.114919 
L 76.3152 24.235932 
L 77.906748 27.054915 
L 78.149793 29.873898 
L 77.485741 32.692881 
L 76.894991 35.511864 
L 76.423361 38.330847 
L 76.275 39.191847 
L 75.421697 41.149831 
L 74.455306 43.968814 
L 73.754316 46.787797 
L 73.485 47.913878 
L 72.577137 49.60678 
L 71.373329 52.425763 
L 70.695 54.482918 
L 70.197017 55.244746 
L 68.502878 58.063729 
L 67.905 59.219639 
L 66.527209 60.882712 
L 65.115 62.674901 
L 63.979765 63.701695 
L 62.325 64.845739 
L 59.535 65.980503 
L 56.745 65.352367 
L 54.83767 63.701695 
L 53.955 62.820606 
L 53.244262 60.882712 
L 51.739457 58.063729 
L 51.165 57.122226 
L 50.815792 55.244746 
L 50.173131 52.425763 
L 49.16747 49.60678 
L 48.375 47.891714 
L 48.218646 46.787797 
L 47.814932 43.968814 
L 47.275636 41.149831 
L 46.519273 38.330847 
L 45.585 35.800391 
L 45.549258 35.511864 
L 45.232627 32.692881 
L 44.851522 29.873898 
L 44.375198 27.054915 
L 43.763928 24.235932 
L 42.965236 21.416949 
L 42.795 20.8397 
L 42.574645 18.597966 
L 42.273385 15.778983 
L 41.92425 12.96 
L 40.005 12.96 
L 37.215 12.96 
L 36.105224 12.96 
L 36.621913 15.778983 
L 37.13662 18.597966 
L 37.215 18.99837 
L 37.801501 21.416949 
L 38.439984 24.235932 
L 39.039813 27.054915 
L 39.620199 29.873898 
L 40.005 31.685905 
L 40.290537 32.692881 
L 41.06891 35.511864 
L 41.768688 38.330847 
L 42.427399 41.149831 
L 42.795 42.650227 
L 43.241039 43.968814 
L 44.132971 46.787797 
L 44.907721 49.60678 
L 45.585 52.178032 
L 45.685093 52.425763 
L 46.827013 55.244746 
L 47.740859 58.063729 
L 48.375 60.064504 
L 48.793648 60.882712 
L 50.156533 63.701695 
L 51.165 66.202263 
L 51.390139 66.520678 
L 53.42619 69.339661 
L 53.955 70.0559 
L 56.449709 72.158644 
z
" clip-path="url(#pe253c6b2af)" style="fill: #c0282f"/>
    <path d="M 56.745 65.352367 
L 59.535 65.980503 
L 62.325 64.845739 
L 63.979765 63.701695 
L 65.115 62.674901 
L 66.527209 60.882712 
L 67.905 59.219639 
L 68.502878 58.063729 
L 70.197017 55.244746 
L 70.695 54.482918 
L 71.373329 52.425763 
L 72.577137 49.60678 
L 73.485 47.913878 
L 73.754316 46.787797 
L 74.455306 43.968814 
L 75.421697 41.149831 
L 76.275 39.191847 
L 76.423361 38.330847 
L 76.894991 35.511864 
L 77.485741 32.692881 
L 78.149793 29.873898 
L 77.906748 27.054915 
L 76.3152 24.235932 
L 76.275 24.114919 
L 73.607222 21.416949 
L 73.520775 18.597966 
L 73.514768 15.778983 
L 73.485 15.730047 
L 70.743446 12.96 
L 70.695 12.96 
L 67.905 12.96 
L 65.115 12.96 
L 62.325 12.96 
L 59.535 12.96 
L 56.745 12.96 
L 53.955 12.96 
L 51.165 12.96 
L 48.375 12.96 
L 45.585 12.96 
L 42.795 12.96 
L 41.92425 12.96 
L 42.273385 15.778983 
L 42.574645 18.597966 
L 42.795 20.8397 
L 42.965236 21.416949 
L 43.763928 24.235932 
L 44.375198 27.054915 
L 44.851522 29.873898 
L 45.232627 32.692881 
L 45.549258 35.511864 
L 45.585 35.800391 
L 46.519273 38.330847 
L 47.275636 41.149831 
L 47.814932 43.968814 
L 48.218646 46.787797 
L 48.375 47.891714 
L 49.16747 49.60678 
L 50.173131 52.425763 
L 50.815792 55.244746 
L 51.165 57.122226 
L 51.739457 58.063729 
L 53.244262 60.882712 
L 53.955 62.820606 
L 54.83767 63.701695 
z
" clip-path="url(#pe253c6b2af)" style="fill: #b40426"/>
   </g>
   <g id="matplotlib.axis_1">
    <g id="xtick_1">
     <g id="line2d_1">
      <defs>
       <path id="mbb3d9384d9" d="M 0 0 
L 0 3.5 
" style="stroke: #000000; stroke-width: 0.8"/>
      </defs>
      <g>
       <use xlink:href="#mbb3d9384d9" x="13.5" y="96.12" style="stroke: #000000; stroke-width: 0.8"/>
      </g>
     </g>
     <g id="text_1">
      <text style="font-size: 6px; font-family: 'DejaVu Sans', 'Arial', 'Helvetica', 'Lucida Grande', 'Verdana', 'Geneva', 'Lucid', 'Avant Garde', sans-serif; text-anchor: middle" x="13.5" y="107.679063" transform="rotate(-0 13.5 107.679063)">1</text>
     </g>
    </g>
    <g id="xtick_2">
     <g id="line2d_2">
      <g>
       <use xlink:href="#mbb3d9384d9" x="41.4" y="96.12" style="stroke: #000000; stroke-width: 0.8"/>
      </g>
     </g>
     <g id="text_2">
      <text style="font-size: 6px; font-family: 'DejaVu Sans', 'Arial', 'Helvetica', 'Lucida Grande', 'Verdana', 'Geneva', 'Lucid', 'Avant Garde', sans-serif; text-anchor: middle" x="41.4" y="107.679063" transform="rotate(-0 41.4 107.679063)">10</text>
     </g>
    </g>
    <g id="xtick_3">
     <g id="line2d_3">
      <g>
       <use xlink:href="#mbb3d9384d9" x="69.3" y="96.12" style="stroke: #000000; stroke-width: 0.8"/>
      </g>
     </g>
     <g id="text_3">
      <text style="font-size: 6px; font-family: 'DejaVu Sans', 'Arial', 'Helvetica', 'Lucida Grande', 'Verdana', 'Geneva', 'Lucid', 'Avant Garde', sans-serif; text-anchor: middle" x="69.3" y="107.679063" transform="rotate(-0 69.3 107.679063)">100</text>
     </g>
    </g>
    <g id="xtick_4">
     <g id="line2d_4">
      <g>
       <use xlink:href="#mbb3d9384d9" x="97.2" y="96.12" style="stroke: #000000; stroke-width: 0.8"/>
      </g>
     </g>
     <g id="text_4">
      <text style="font-size: 6px; font-family: 'DejaVu Sans', 'Arial', 'Helvetica', 'Lucida Grande', 'Verdana', 'Geneva', 'Lucid', 'Avant Garde', sans-serif; text-anchor: middle" x="97.2" y="107.679063" transform="rotate(-0 97.2 107.679063)">1000</text>
     </g>
    </g>
    <g id="text_5">
     <text style="font-size: 6px; font-family: 'DejaVu Sans', 'Arial', 'Helvetica', 'Lucida Grande', 'Verdana', 'Geneva', 'Lucid', 'Avant Garde', sans-serif; text-anchor: middle" x="55.35" y="117.485938" transform="rotate(-0 55.35 117.485938)">C (µg/mL)</text>
    </g>
   </g>
   <g id="matplotlib.axis_2">
    <g id="ytick_1">
     <g id="line2d_5">
      <defs>
       <path id="m78de125ad5" d="M 0 0 
L -3.5 0 
" style="stroke: #000000; stroke-width: 0.8"/>
      </defs>
      <g>
       <use xlink:href="#m78de125ad5" x="13.5" y="96.12" style="stroke: #000000; stroke-width: 0.8"/>
      </g>
     </g>
     <g id="text_6">
      <text style="font-size: 6px; font-family: 'DejaVu Sans', 'Arial', 'Helvetica', 'Lucida Grande', 'Verdana', 'Geneva', 'Lucid', 'Avant Garde', sans-serif; text-anchor: end" x="6.5" y="98.399531" transform="rotate(-0 6.5 98.399531)">0</text>
     </g>
    </g>
    <g id="ytick_2">
     <g id="line2d_6">
      <g>
       <use xlink:href="#m78de125ad5" x="13.5" y="79.206102" style="stroke: #000000; stroke-width: 0.8"/>
      </g>
     </g>
     <g id="text_7">
      <text style="font-size: 6px; font-family: 'DejaVu Sans', 'Arial', 'Helvetica', 'Lucida Grande', 'Verdana', 'Geneva', 'Lucid', 'Avant Garde', sans-serif; text-anchor: end" x="6.5" y="81.485633" transform="rotate(-0 6.5 81.485633)">2</text>
     </g>
    </g>
    <g id="ytick_3">
     <g id="line2d_7">
      <g>
       <use xlink:href="#m78de125ad5" x="13.5" y="62.292203" style="stroke: #000000; stroke-width: 0.8"/>
      </g>
     </g>
     <g id="text_8">
      <text style="font-size: 6px; font-family: 'DejaVu Sans', 'Arial', 'Helvetica', 'Lucida Grande', 'Verdana', 'Geneva', 'Lucid', 'Avant Garde', sans-serif; text-anchor: end" x="6.5" y="64.571735" transform="rotate(-0 6.5 64.571735)">4</text>
     </g>
    </g>
    <g id="ytick_4">
     <g id="line2d_8">
      <g>
       <use xlink:href="#m78de125ad5" x="13.5" y="45.378305" style="stroke: #000000; stroke-width: 0.8"/>
      </g>
     </g>
     <g id="text_9">
      <text style="font-size: 6px; font-family: 'DejaVu Sans', 'Arial', 'Helvetica', 'Lucida Grande', 'Verdana', 'Geneva', 'Lucid', 'Avant Garde', sans-serif; text-anchor: end" x="6.5" y="47.657836" transform="rotate(-0 6.5 47.657836)">6</text>
     </g>
    </g>
    <g id="ytick_5">
     <g id="line2d_9">
      <g>
       <use xlink:href="#m78de125ad5" x="13.5" y="28.464407" style="stroke: #000000; stroke-width: 0.8"/>
      </g>
     </g>
     <g id="text_10">
      <text style="font-size: 6px; font-family: 'DejaVu Sans', 'Arial', 'Helvetica', 'Lucida Grande', 'Verdana', 'Geneva', 'Lucid', 'Avant Garde', sans-serif; text-anchor: end" x="6.5" y="30.743938" transform="rotate(-0 6.5 30.743938)">8</text>
     </g>
    </g>
    <g id="text_11">
     <text style="font-size: 6px; font-family: 'DejaVu Sans', 'Arial', 'Helvetica', 'Lucida Grande', 'Verdana', 'Geneva', 'Lucid', 'Avant Garde', sans-serif; text-anchor: middle" x="-2.565312" y="54.54" transform="rotate(-90 -2.565312 54.54)">τ (h)</text>
    </g>
   </g>
   <g id="QuadContourSet_2">
    <path d="M 14.895 94.710508 
L 17.685 94.710508 
L 20.475 94.710508 
L 23.265 94.710508 
L 26.055 94.710508 
L 28.845 94.710508 
L 30.1305 94.710508 
M 49.8795 94.710508 
L 51.165 94.710508 
L 53.955 94.710508 
L 56.745 94.710508 
L 59.535 94.710508 
L 62.325 94.710508 
L 65.115 94.710508 
L 67.905 94.710508 
L 70.695 94.710508 
L 73.485 94.710508 
L 76.275 94.710508 
L 79.065 94.710508 
L 81.855 94.710508 
L 84.645 94.710508 
L 87.435 94.710508 
L 90.225 94.710508 
L 93.015 94.710508 
L 95.805 94.710508 
" clip-path="url(#pe253c6b2af)" style="fill: none; stroke: #000000"/>
    <path d="M 14.895 86.847856 
L 17.685 86.843407 
L 20.475 86.837366 
L 23.265 86.82923 
L 26.055 86.818466 
L 28.845 86.804765 
L 31.635 86.788841 
L 34.425 86.774699 
L 37.215 86.775588 
L 40.005 86.827708 
L 42.795 87.011652 
L 45.585 87.44287 
L 48.375 88.130411 
L 51.165 88.8382 
L 52.090687 89.072542 
L 53.955 89.970626 
L 56.745 90.852344 
L 59.535 91.236207 
L 62.325 91.374097 
L 65.115 91.393193 
L 67.905 91.351567 
L 70.695 91.276437 
L 73.485 91.182561 
L 76.275 91.080082 
L 77.565379 91.032463 
M 95.805 25.48695 
L 93.015 25.11871 
L 92.059711 24.974437 
M 77.704894 13.184302 
L 77.607948 12.96 
" clip-path="url(#pe253c6b2af)" style="fill: none; stroke: #000000"/>
    <path d="M 14.895 73.982688 
L 17.685 74.080581 
L 20.475 74.209775 
L 23.265 74.378285 
L 26.055 74.594784 
L 27.457065 74.731976 
M 46.391819 79.774832 
L 47.765868 80.615593 
L 48.375 80.986471 
L 51.165 83.02586 
L 51.740978 83.434576 
L 53.955 85.009076 
L 56.745 86.247934 
L 56.76506 86.253559 
L 59.535 87.289625 
L 62.325 87.624475 
L 65.115 87.57219 
L 67.905 87.284652 
L 70.695 86.836908 
L 73.485 86.276118 
L 73.600533 86.253559 
L 76.275 85.786173 
L 79.065 85.255739 
L 81.855 84.715794 
L 84.645 84.201279 
L 87.435 83.738181 
L 89.601542 83.434576 
L 90.225 83.343938 
L 93.015 83.023139 
L 95.805 82.761793 
M 95.805 29.894255 
L 95.421552 29.873898 
L 93.015 29.325437 
L 90.677884 28.695681 
M 76.353262 16.541809 
L 76.275 16.441225 
L 76.164809 15.778983 
L 75.711611 12.96 
" clip-path="url(#pe253c6b2af)" style="fill: none; stroke: #000000"/>
    <path d="M 95.805 32.627426 
L 93.015 32.03164 
L 90.225 31.679495 
L 87.435 31.241845 
L 86.819625 30.983645 
M 75.014041 16.156207 
L 74.973779 15.778983 
L 73.485 13.331511 
L 73.11731 12.96 
M 14.895 15.190676 
L 15.419594 15.778983 
L 17.685 18.141135 
L 18.015671 18.597966 
L 20.228182 21.416949 
L 20.241935 21.433142 
M 30.255066 38.702221 
L 31.609114 41.149831 
L 31.635 41.192098 
L 32.921297 43.968814 
L 34.425 46.671671 
L 34.474169 46.787797 
L 35.806499 49.60678 
L 37.215 52.04342 
L 37.383011 52.425763 
L 38.793733 55.244746 
L 40.005 57.197746 
L 40.408648 58.063729 
L 41.956623 60.882712 
L 42.795 62.108914 
L 43.598948 63.701695 
L 45.383578 66.520678 
L 45.585 66.780481 
L 47.074594 69.339661 
L 48.375 71.05739 
L 49.107777 72.158644 
L 51.165 74.702243 
L 51.409551 74.977627 
L 53.955 77.539128 
L 54.303233 77.79661 
L 56.745 79.514978 
L 59.535 80.570862 
L 60.287095 80.615593 
L 62.325 80.738906 
L 62.986077 80.615593 
L 65.115 80.167745 
L 67.905 79.058589 
L 70.204447 77.79661 
L 70.695 77.474462 
L 73.485 75.418611 
L 74.052532 74.977627 
L 76.275 72.867225 
L 77.035072 72.158644 
L 79.065 69.821607 
L 79.523031 69.339661 
L 81.707901 66.520678 
L 81.855 66.292534 
L 83.805096 63.701695 
L 84.645 62.328393 
L 85.722397 60.882712 
L 87.435 58.08428 
L 87.450784 58.063729 
L 89.341983 55.244746 
L 90.225 53.669022 
L 91.12207 52.425763 
L 92.864054 49.60678 
L 93.015 49.329687 
L 94.827329 46.787797 
L 95.805 45.206949 
" clip-path="url(#pe253c6b2af)" style="fill: none; stroke: #000000"/>
    <path d="M 36.105224 12.96 
L 36.621913 15.778983 
L 37.13662 18.597966 
L 37.215 18.99837 
L 37.801501 21.416949 
L 38.439984 24.235932 
L 39.039813 27.054915 
L 39.620199 29.873898 
L 40.005 31.685905 
L 40.290537 32.692881 
L 41.06891 35.511864 
L 41.768688 38.330847 
L 42.427399 41.149831 
L 42.795 42.650227 
L 43.241039 43.968814 
L 44.132971 46.787797 
L 44.907721 49.60678 
L 45.585 52.178032 
L 45.685093 52.425763 
L 46.827013 55.244746 
L 47.740859 58.063729 
L 48.375 60.064504 
L 48.793648 60.882712 
L 50.156533 63.701695 
L 51.165 66.202263 
L 51.390139 66.520678 
L 53.42619 69.339661 
L 53.955 70.0559 
L 56.449709 72.158644 
L 56.745 72.367118 
L 59.535 73.013398 
L 62.325 72.670291 
L 63.574027 72.158644 
L 65.115 71.228896 
L 67.551273 69.339661 
L 67.905 69.003847 
L 70.017297 66.520678 
L 70.695 65.677947 
L 71.948217 63.701695 
L 73.485 61.33323 
L 73.719836 60.882712 
L 74.653736 58.856476 
M 81.383453 40.021937 
L 81.855 38.496687 
L 81.896325 38.330847 
L 82.527893 35.511864 
L 83.153922 32.692881 
L 82.132995 29.873898 
L 81.855 29.673186 
L 79.401171 27.054915 
L 79.065 26.696121 
L 76.685122 24.235932 
L 76.275 23.001355 
L 74.708325 21.416949 
L 73.842915 18.597966 
L 73.782749 15.778983 
L 73.485 15.289499 
L 71.179462 12.96 
" clip-path="url(#pe253c6b2af)" style="fill: none; stroke: #000000"/>
    <path d="M 41.92425 12.96 
L 42.273385 15.778983 
L 42.574645 18.597966 
L 42.795 20.8397 
L 42.965236 21.416949 
L 43.763928 24.235932 
L 44.057832 25.591326 
M 47.992679 45.209956 
L 48.218646 46.787797 
L 48.375 47.891714 
L 49.16747 49.60678 
L 50.173131 52.425763 
L 50.815792 55.244746 
L 51.165 57.122226 
L 51.739457 58.063729 
L 53.244262 60.882712 
L 53.955 62.820606 
L 54.83767 63.701695 
L 56.745 65.352367 
L 59.535 65.980503 
L 62.325 64.845739 
L 63.979765 63.701695 
L 65.115 62.674901 
L 66.527209 60.882712 
L 67.905 59.219639 
L 68.502878 58.063729 
L 70.197017 55.244746 
L 70.695 54.482918 
L 71.373329 52.425763 
L 72.577137 49.60678 
L 73.485 47.913878 
L 73.754316 46.787797 
L 74.455306 43.968814 
L 75.421697 41.149831 
L 76.275 39.191847 
L 76.423361 38.330847 
L 76.894991 35.511864 
L 77.485741 32.692881 
L 78.149793 29.873898 
L 77.906748 27.054915 
L 76.3152 24.235932 
L 76.275 24.114919 
L 73.607222 21.416949 
L 73.520775 18.597966 
L 73.514768 15.778983 
L 73.485 15.730047 
L 70.743446 12.96 
" clip-path="url(#pe253c6b2af)" style="fill: none; stroke: #000000"/>
    <path clip-path="url(#pe253c6b2af)" style="fill: none; stroke: #000000"/>
   </g>
   <g id="patch_3">
    <path d="M 13.5 96.12 
L 13.5 12.96 
" style="fill: none; stroke: #000000; stroke-width: 0.5; stroke-linejoin: miter; stroke-linecap: square"/>
   </g>
   <g id="patch_4">
    <path d="M 13.5 96.12 
L 97.2 96.12 
" style="fill: none; stroke: #000000; stroke-width: 0.5; stroke-linejoin: miter; stroke-linecap: square"/>
   </g>
   <g id="text_12">
    <text style="font-size: 6px; font-family: 'DejaVu Sans', 'Arial', 'Helvetica', 'Lucida Grande', 'Verdana', 'Geneva', 'Lucid', 'Avant Garde', sans-serif; text-anchor: middle" x="55.35" y="6.96" transform="rotate(-0 55.35 6.96)">Fraction of survivors descended from T</text>
   </g>
   <g id="text_13">
    <g clip-path="url(#pe253c6b2af)">
     <text style="font-size: 6px; font-family: 'DejaVu Sans', 'Arial', 'Helvetica', 'Lucida Grande', 'Verdana', 'Geneva', 'Lucid', 'Avant Garde', sans-serif; text-anchor: middle" x="40.005" y="96.366133" transform="rotate(-0 40.005 96.366133)">0.00</text>
    </g>
   </g>
   <g id="text_14">
    <g clip-path="url(#pe253c6b2af)">
     <text style="font-size: 6px; font-family: 'DejaVu Sans', 'Arial', 'Helvetica', 'Lucida Grande', 'Verdana', 'Geneva', 'Lucid', 'Avant Garde', sans-serif" transform="translate(80.796825 92.533943) rotate(-1.370599)">0.01</text>
    </g>
   </g>
   <g id="text_15">
    <g clip-path="url(#pe253c6b2af)">
     <text style="font-size: 6px; font-family: 'DejaVu Sans', 'Arial', 'Helvetica', 'Lucida Grande', 'Verdana', 'Geneva', 'Lucid', 'Avant Garde', sans-serif" transform="translate(76.836155 18.475689) rotate(-320.776798)">0.01</text>
    </g>
   </g>
   <g id="text_16">
    <g clip-path="url(#pe253c6b2af)">
     <text style="font-size: 6px; font-family: 'DejaVu Sans', 'Arial', 'Helvetica', 'Lucida Grande', 'Verdana', 'Geneva', 'Lucid', 'Avant Garde', sans-serif" transform="translate(30.333599 76.304691) rotate(-346.704811)">0.10</text>
    </g>
   </g>
   <g id="text_17">
    <g clip-path="url(#pe253c6b2af)">
     <text style="font-size: 6px; font-family: 'DejaVu Sans', 'Arial', 'Helvetica', 'Lucida Grande', 'Verdana', 'Geneva', 'Lucid', 'Avant Garde', sans-serif" transform="translate(75.784364 21.458136) rotate(-317.979341)">0.10</text>
    </g>
   </g>
   <g id="text_18">
    <g clip-path="url(#pe253c6b2af)">
     <text style="font-size: 6px; font-family: 'DejaVu Sans', 'Arial', 'Helvetica', 'Lucida Grande', 'Verdana', 'Geneva', 'Lucid', 'Avant Garde', sans-serif" transform="translate(73.571152 20.852035) rotate(-309.048671)">0.50</text>
    </g>
   </g>
   <g id="text_19">
    <g clip-path="url(#pe253c6b2af)">
     <text style="font-size: 6px; font-family: 'DejaVu Sans', 'Arial', 'Helvetica', 'Lucida Grande', 'Verdana', 'Geneva', 'Lucid', 'Avant Garde', sans-serif" transform="translate(20.741193 24.971073) rotate(-300.646066)">0.50</text>
    </g>
   </g>
   <g id="text_20">
    <g clip-path="url(#pe253c6b2af)">
     <text style="font-size: 6px; font-family: 'DejaVu Sans', 'Arial', 'Helvetica', 'Lucida Grande', 'Verdana', 'Geneva', 'Lucid', 'Avant Garde', sans-serif" transform="translate(77.84513 56.461116) rotate(-70.957759)">0.90</text>
    </g>
   </g>
   <g id="text_21">
    <g clip-path="url(#pe253c6b2af)">
     <text style="font-size: 6px; font-family: 'DejaVu Sans', 'Arial', 'Helvetica', 'Lucida Grande', 'Verdana', 'Geneva', 'Lucid', 'Avant Garde', sans-serif" transform="translate(42.529278 29.328092) rotate(-282.108803)">0.99</text>
    </g>
   </g>
  </g>
 </g>
 <defs>
  <clipPath id="pe253c6b2af">
   <rect x="13.5" y="12.96" width="83.7" height="83.16"/>
  </clipPath>
 </defs>
</svg>
