<?xml version="1.0" encoding="utf-8" standalone="no"?>
<!DOCTYPE svg PUBLIC "-//W3C//DTD SVG 1.1//EN"
  "http://www.w3.org/Graphics/SVG/1.1/DTD/svg11.dtd">
<svg xmlns:xlink="http://www.w3.org/1999/xlink" width="108pt" height="108pt" viewBox="0 0 108 108" xmlns="http://www.w3.org/2000/svg" version="1.1">
 <metadata>
  <rdf:RDF xmlns:dc="http://purl.org/dc/elements/1.1/" xmlns:cc="http://creativecommons.org/ns#" xmlns:rdf="http://www.w3.org/1999/02/22-rdf-syntax-ns#">
   <cc:Work>
    <dc:type rdf:resource="http://purl.org/dc/dcmitype/StillImage"/>
    <dc:date>2026-02-16T13:07:15.839130</dc:date>
    <dc:format>image/svg+xml</dc:format>
    <dc:creator>
     <cc:Agent>
      <dc:title>Matplotlib v3.10.8, https://matplotlib.org/</dc:title>
     </cc:Agent>
    </dc:creator>
   </cc:Work>
  </rdf:RDF>
 </metadata>
 <defs>
  <style type="text/css">*{stroke-linejoin: round; stroke-linecap: butt}</style>
 </defs>
 <g id="figure_1">
  <g id="patch_1">
   <path d="M 0 108 
L 108 108 
L 108 0 
L 0 0 
L 0 108 
z
" style="fill: none"/>
  </g>
  <g id="axes_1">
   <g id="patch_2">
    <path d="M 13.5 96.12 
L 97.2 96.12 
L 97.2 12.96 
L 13.5 12.96 
L 13.5 96.12 
z
" style="fill: none"/>
   </g>
   <g id="QuadContourSet_1">
    <path d="M 17.685 94.710508 
L 20.475 94.710508 
L 23.265 94.710508 
L 26.055 94.710508 
L 28.845 94.710508 
L 31.635 94.710508 
L 34.425 94.710508 
L 37.215 94.710508 
L 40.005 94.710508 
L 42.795 94.710508 
L 45.585 94.710508 
L 48.375 94.710508 
L 51.165 94.710508 
L 53.955 94.710508 
L 56.745 94.710508 
L 59.535 94.710508 
L 62.325 94.710508 
L 65.115 94.710508 
L 67.905 94.710508 
L 70.695 94.710508 
L 73.485 94.710508 
L 76.275 94.710508 
L 79.065 94.710508 
L 81.855 94.710508 
L 84.645 94.710508 
L 87.435 94.710508 
L 90.225 94.710508 
L 93.015 94.710508 
L 95.805 94.710508 
L 95.805 91.891525 
L 95.805 91.555053 
L 93.015 91.551494 
L 90.225 91.546108 
L 87.435 91.538508 
L 84.645 91.528179 
L 81.855 91.514415 
L 79.065 91.496232 
L 76.275 91.472227 
L 73.485 91.44036 
L 70.695 91.397605 
L 67.905 91.338646 
L 65.115 91.258719 
L 62.325 91.144846 
L 59.535 90.981414 
L 56.745 90.744251 
L 53.955 90.399713 
L 51.165 89.905723 
L 48.375 89.21927 
L 47.806676 89.072542 
L 45.585 88.846209 
L 42.795 88.516933 
L 40.005 88.147837 
L 37.215 87.774671 
L 34.425 87.436541 
L 31.635 87.159906 
L 28.845 86.95212 
L 26.055 86.805944 
L 23.265 86.707828 
L 20.475 86.644052 
L 17.685 86.603468 
L 14.895 86.577998 
L 14.895 89.072542 
L 14.895 91.891525 
L 14.895 94.710508 
z
M 93.015 29.905375 
L 95.805 30.272133 
L 95.805 29.873898 
L 95.805 27.054915 
L 95.805 24.235932 
L 95.805 21.416949 
L 95.805 18.597966 
L 95.805 15.778983 
L 95.805 12.96 
L 93.015 12.96 
L 90.225 12.96 
L 87.435 12.96 
L 84.645 12.96 
L 81.855 12.96 
L 79.065 12.96 
L 78.828995 12.96 
L 79.065 14.637167 
L 79.954083 15.778983 
L 81.521112 18.597966 
L 81.855 19.838859 
L 83.20839 21.416949 
L 84.635356 24.235932 
L 84.645 24.252621 
L 87.435 26.989492 
L 87.513058 27.054915 
L 90.225 28.212065 
L 92.863244 29.873898 
z
" clip-path="url(#p64b2bb7d41)" style="fill: #465ecf"/>
    <path d="M 48.375 89.21927 
L 51.165 89.905723 
L 53.955 90.399713 
L 56.745 90.744251 
L 59.535 90.981414 
L 62.325 91.144846 
L 65.115 91.258719 
L 67.905 91.338646 
L 70.695 91.397605 
L 73.485 91.44036 
L 76.275 91.472227 
L 79.065 91.496232 
L 81.855 91.514415 
L 84.645 91.528179 
L 87.435 91.538508 
L 90.225 91.546108 
L 93.015 91.551494 
L 95.805 91.555053 
L 95.805 89.072542 
L 95.805 87.34417 
L 93.015 87.422744 
L 90.225 87.49119 
L 87.435 87.548237 
L 84.645 87.592261 
L 81.855 87.621118 
L 79.065 87.631908 
L 76.275 87.620592 
L 73.485 87.581399 
L 70.695 87.50588 
L 67.905 87.381376 
L 65.115 87.188668 
L 62.325 86.89814 
L 59.535 86.464473 
L 58.526141 86.253559 
L 56.745 86.007568 
L 53.955 85.496512 
L 51.165 84.776289 
L 48.375 83.756696 
L 47.590859 83.434576 
L 45.585 82.722822 
L 42.795 81.473283 
L 41.093775 80.615593 
L 40.005 80.043566 
L 37.215 78.542134 
L 35.780326 77.79661 
L 34.425 76.99852 
L 31.635 75.524375 
L 30.384341 74.977627 
L 28.845 74.221352 
L 26.055 73.143427 
L 23.265 72.302968 
L 22.580659 72.158644 
L 20.475 71.686928 
L 17.685 71.249632 
L 14.895 70.948738 
L 14.895 72.158644 
L 14.895 74.977627 
L 14.895 77.79661 
L 14.895 80.615593 
L 14.895 83.434576 
L 14.895 86.253559 
L 14.895 86.577998 
L 17.685 86.603468 
L 20.475 86.644052 
L 23.265 86.707828 
L 26.055 86.805944 
L 28.845 86.95212 
L 31.635 87.159906 
L 34.425 87.436541 
L 37.215 87.774671 
L 40.005 88.147837 
L 42.795 88.516933 
L 45.585 88.846209 
L 47.806676 89.072542 
z
M 93.015 33.061585 
L 95.805 33.610639 
L 95.805 32.692881 
L 95.805 30.272133 
L 93.015 29.905375 
L 92.863244 29.873898 
L 90.225 28.212065 
L 87.513058 27.054915 
L 87.435 26.989492 
L 84.645 24.252621 
L 84.635356 24.235932 
L 83.20839 21.416949 
L 81.855 19.838859 
L 81.521112 18.597966 
L 79.954083 15.778983 
L 79.065 14.637167 
L 78.828995 12.96 
L 76.275 12.96 
L 76.206753 12.96 
L 76.275 13.31907 
L 78.069567 15.778983 
L 78.900524 18.597966 
L 79.065 19.468357 
L 80.617361 21.416949 
L 81.759843 24.235932 
L 81.855 24.496341 
L 84.139429 27.054915 
L 84.645 27.803514 
L 86.786734 29.873898 
L 87.435 30.339877 
L 90.225 32.162594 
L 91.102353 32.692881 
z
" clip-path="url(#p64b2bb7d41)" style="fill: #7295f4"/>
    <path d="M 59.535 86.464473 
L 62.325 86.89814 
L 65.115 87.188668 
L 67.905 87.381376 
L 70.695 87.50588 
L 73.485 87.581399 
L 76.275 87.620592 
L 79.065 87.631908 
L 81.855 87.621118 
L 84.645 87.592261 
L 87.435 87.548237 
L 90.225 87.49119 
L 93.015 87.422744 
L 95.805 87.34417 
L 95.805 86.253559 
L 95.805 83.434576 
L 95.805 80.615593 
L 95.805 77.79661 
L 95.805 74.977627 
L 95.805 72.158644 
L 95.805 69.339661 
L 95.805 66.520678 
L 95.805 66.511404 
L 95.799255 66.520678 
L 93.544592 69.339661 
L 93.015 69.839475 
L 90.474514 72.158644 
L 90.225 72.332003 
L 87.435 74.197527 
L 86.134848 74.977627 
L 84.645 75.675407 
L 81.855 76.837245 
L 79.065 77.794888 
L 79.059421 77.79661 
L 76.275 78.501341 
L 73.485 79.049919 
L 70.695 79.44406 
L 67.905 79.681299 
L 65.115 79.751309 
L 62.325 79.635396 
L 59.535 79.306191 
L 56.745 78.721178 
L 53.955 77.799563 
L 53.94844 77.79661 
L 51.165 76.457066 
L 48.88392 74.977627 
L 48.375 74.591399 
L 45.713476 72.158644 
L 45.585 72.017226 
L 43.368808 69.339661 
L 42.795 68.494748 
L 41.450614 66.520678 
L 40.005 63.867412 
L 39.904543 63.701695 
L 38.438926 60.882712 
L 37.255466 58.063729 
L 37.215 57.957515 
L 36.006387 55.244746 
L 34.972761 52.425763 
L 34.425 50.730103 
L 33.964081 49.60678 
L 32.953267 46.787797 
L 32.090189 43.968814 
L 31.635 42.312876 
L 31.207268 41.149831 
L 30.283111 38.330847 
L 29.478452 35.511864 
L 28.845 33.026426 
L 28.726249 32.692881 
L 27.802472 29.873898 
L 26.98698 27.054915 
L 26.257734 24.235932 
L 26.055 23.39248 
L 25.376354 21.416949 
L 24.49823 18.597966 
L 23.706711 15.778983 
L 23.265 14.072823 
L 22.845004 12.96 
L 20.475 12.96 
L 17.685 12.96 
L 14.895 12.96 
L 14.895 15.778983 
L 14.895 18.597966 
L 14.895 21.416949 
L 14.895 24.235932 
L 14.895 27.054915 
L 14.895 29.873898 
L 14.895 32.692881 
L 14.895 35.511864 
L 14.895 38.330847 
L 14.895 41.149831 
L 14.895 43.968814 
L 14.895 46.787797 
L 14.895 49.60678 
L 14.895 52.425763 
L 14.895 55.244746 
L 14.895 58.063729 
L 14.895 60.882712 
L 14.895 63.701695 
L 14.895 66.520678 
L 14.895 69.339661 
L 14.895 70.948738 
L 17.685 71.249632 
L 20.475 71.686928 
L 22.580659 72.158644 
L 23.265 72.302968 
L 26.055 73.143427 
L 28.845 74.221352 
L 30.384341 74.977627 
L 31.635 75.524375 
L 34.425 76.99852 
L 35.780326 77.79661 
L 37.215 78.542134 
L 40.005 80.043566 
L 41.093775 80.615593 
L 42.795 81.473283 
L 45.585 82.722822 
L 47.590859 83.434576 
L 48.375 83.756696 
L 51.165 84.776289 
L 53.955 85.496512 
L 56.745 86.007568 
L 58.526141 86.253559 
z
M 93.015 36.447983 
L 95.805 37.189661 
L 95.805 35.511864 
L 95.805 33.610639 
L 93.015 33.061585 
L 91.102353 32.692881 
L 90.225 32.162594 
L 87.435 30.339877 
L 86.786734 29.873898 
L 84.645 27.803514 
L 84.139429 27.054915 
L 81.855 24.496341 
L 81.759843 24.235932 
L 80.617361 21.416949 
L 79.065 19.468357 
L 78.900524 18.597966 
L 78.069567 15.778983 
L 76.275 13.31907 
L 76.206753 12.96 
L 74.997085 12.96 
L 75.356489 15.778983 
L 76.275 16.966457 
L 77.475848 18.597966 
L 78.026153 21.416949 
L 79.065 22.896429 
L 80.147498 24.235932 
L 81.153028 27.054915 
L 81.855 27.765444 
L 83.693654 29.873898 
L 84.645 30.856803 
L 86.667197 32.692881 
L 87.435 33.529225 
L 90.225 34.523617 
L 91.932752 35.511864 
z
" clip-path="url(#p64b2bb7d41)" style="fill: #d9dce1"/>
    <path d="M 53.955 77.799563 
L 56.745 78.721178 
L 59.535 79.306191 
L 62.325 79.635396 
L 65.115 79.751309 
L 67.905 79.681299 
L 70.695 79.44406 
L 73.485 79.049919 
L 76.275 78.501341 
L 79.059421 77.79661 
L 79.065 77.794888 
L 81.855 76.837245 
L 84.645 75.675407 
L 86.134848 74.977627 
L 87.435 74.197527 
L 90.225 72.332003 
L 90.474514 72.158644 
L 93.015 69.839475 
L 93.544592 69.339661 
L 95.799255 66.520678 
L 95.805 66.511404 
L 95.805 63.701695 
L 95.805 60.882712 
L 95.805 58.063729 
L 95.805 55.244746 
L 95.805 52.425763 
L 95.805 49.60678 
L 95.805 46.787797 
L 95.805 43.968814 
L 95.805 41.149831 
L 95.805 38.330847 
L 95.805 37.189661 
L 93.015 36.447983 
L 91.932752 35.511864 
L 90.225 34.523617 
L 87.435 33.529225 
L 86.667197 32.692881 
L 84.645 30.856803 
L 83.693654 29.873898 
L 81.855 27.765444 
L 81.153028 27.054915 
L 80.147498 24.235932 
L 79.065 22.896429 
L 78.026153 21.416949 
L 77.475848 18.597966 
L 76.275 16.966457 
L 75.356489 15.778983 
L 74.997085 12.96 
L 73.787417 12.96 
L 73.859298 15.778983 
L 75.198307 18.597966 
L 76.275 19.685866 
L 76.625221 21.416949 
L 77.480409 24.235932 
L 79.065 25.837743 
L 79.482216 27.054915 
L 81.855 29.456624 
L 82.21888 29.873898 
L 84.645 32.3805 
L 84.989047 32.692881 
L 87.435 35.357181 
L 87.849256 35.511864 
L 88.315401 38.330847 
L 87.785506 41.149831 
L 87.435 42.865664 
L 87.133925 43.968814 
L 86.334262 46.787797 
L 85.509242 49.60678 
L 84.645 52.331476 
L 84.605533 52.425763 
L 83.32962 55.244746 
L 82.015501 58.063729 
L 81.855 58.357726 
L 80.207418 60.882712 
L 79.065 62.475915 
L 78.028309 63.701695 
L 76.275 65.491143 
L 75.12687 66.520678 
L 73.485 67.692087 
L 70.922403 69.339661 
L 70.695 69.446384 
L 67.905 70.442799 
L 65.115 71.160927 
L 62.325 71.478482 
L 59.535 71.264145 
L 56.745 70.501504 
L 54.041717 69.339661 
L 53.955 69.28509 
L 51.165 66.899404 
L 50.819197 66.520678 
L 48.539734 63.701695 
L 48.375 63.482199 
L 47.000765 60.882712 
L 45.585 58.484165 
L 45.409914 58.063729 
L 44.364348 55.244746 
L 43.166103 52.425763 
L 42.795 51.57196 
L 42.252324 49.60678 
L 41.47078 46.787797 
L 40.597056 43.968814 
L 40.005 42.20468 
L 39.778822 41.149831 
L 39.210819 38.330847 
L 38.616223 35.511864 
L 37.969471 32.692881 
L 37.244383 29.873898 
L 37.215 29.757895 
L 36.792256 27.054915 
L 36.350502 24.235932 
L 35.894646 21.416949 
L 35.413353 18.597966 
L 34.895304 15.778983 
L 34.425 13.395344 
L 34.366882 12.96 
L 31.635 12.96 
L 28.845 12.96 
L 26.055 12.96 
L 23.265 12.96 
L 22.845004 12.96 
L 23.265 14.072823 
L 23.706711 15.778983 
L 24.49823 18.597966 
L 25.376354 21.416949 
L 26.055 23.39248 
L 26.257734 24.235932 
L 26.98698 27.054915 
L 27.802472 29.873898 
L 28.726249 32.692881 
L 28.845 33.026426 
L 29.478452 35.511864 
L 30.283111 38.330847 
L 31.207268 41.149831 
L 31.635 42.312876 
L 32.090189 43.968814 
L 32.953267 46.787797 
L 33.964081 49.60678 
L 34.425 50.730103 
L 34.972761 52.425763 
L 36.006387 55.244746 
L 37.215 57.957515 
L 37.255466 58.063729 
L 38.438926 60.882712 
L 39.904543 63.701695 
L 40.005 63.867412 
L 41.450614 66.520678 
L 42.795 68.494748 
L 43.368808 69.339661 
L 45.585 72.017226 
L 45.713476 72.158644 
L 48.375 74.591399 
L 48.88392 74.977627 
L 51.165 76.457066 
L 53.94844 77.79661 
z
" clip-path="url(#p64b2bb7d41)" style="fill: #ec8165"/>
    <path d="M 56.745 70.501504 
L 59.535 71.264145 
L 62.325 71.478482 
L 65.115 71.160927 
L 67.905 70.442799 
L 70.695 69.446384 
L 70.922403 69.339661 
L 73.485 67.692087 
L 75.12687 66.520678 
L 76.275 65.491143 
L 78.028309 63.701695 
L 79.065 62.475915 
L 80.207418 60.882712 
L 81.855 58.357726 
L 82.015501 58.063729 
L 83.32962 55.244746 
L 84.605533 52.425763 
L 84.645 52.331476 
L 85.509242 49.60678 
L 86.334262 46.787797 
L 87.133925 43.968814 
L 87.435 42.865664 
L 87.785506 41.149831 
L 88.315401 38.330847 
L 87.849256 35.511864 
L 87.435 35.357181 
L 84.989047 32.692881 
L 84.645 32.3805 
L 82.21888 29.873898 
L 81.855 29.456624 
L 79.482216 27.054915 
L 79.065 25.837743 
L 77.480409 24.235932 
L 76.625221 21.416949 
L 76.275 19.685866 
L 75.198307 18.597966 
L 73.859298 15.778983 
L 73.787417 12.96 
L 73.515242 12.96 
L 73.52243 15.778983 
L 73.656329 18.597966 
L 76.275 21.243893 
L 76.310012 21.416949 
L 76.395465 24.235932 
L 79.065 26.934477 
L 79.106283 27.054915 
L 81.855 29.837139 
L 81.887055 29.873898 
L 83.074227 32.692881 
L 82.641406 35.511864 
L 82.153906 38.330847 
L 81.855 39.912182 
L 81.307395 41.149831 
L 80.193919 43.968814 
L 79.330608 46.787797 
L 79.065 47.629833 
L 77.918464 49.60678 
L 76.584402 52.425763 
L 76.275 53.056466 
L 74.643775 55.244746 
L 73.485 56.931093 
L 72.438349 58.063729 
L 70.695 59.775219 
L 69.358676 60.882712 
L 67.905 61.770884 
L 65.115 63.159615 
L 63.157327 63.701695 
L 62.325 63.815321 
L 60.289063 63.701695 
L 59.535 63.60703 
L 56.745 62.172481 
L 54.991722 60.882712 
L 53.955 59.906948 
L 52.627498 58.063729 
L 51.165 56.168342 
L 50.744178 55.244746 
L 49.388568 52.425763 
L 48.375 50.700479 
L 48.062515 49.60678 
L 47.210652 46.787797 
L 46.025556 43.968814 
L 45.585 43.006048 
L 45.247414 41.149831 
L 44.668227 38.330847 
L 43.91879 35.511864 
L 42.92108 32.692881 
L 42.795 32.341661 
L 42.495233 29.873898 
L 42.103399 27.054915 
L 41.629332 24.235932 
L 41.043256 21.416949 
L 40.307244 18.597966 
L 40.005 17.522529 
L 39.851808 15.778983 
L 39.593631 12.96 
L 37.215 12.96 
L 34.425 12.96 
L 34.366882 12.96 
L 34.425 13.395344 
L 34.895304 15.778983 
L 35.413353 18.597966 
L 35.894646 21.416949 
L 36.350502 24.235932 
L 36.792256 27.054915 
L 37.215 29.757895 
L 37.244383 29.873898 
L 37.969471 32.692881 
L 38.616223 35.511864 
L 39.210819 38.330847 
L 39.778822 41.149831 
L 40.005 42.20468 
L 40.597056 43.968814 
L 41.47078 46.787797 
L 42.252324 49.60678 
L 42.795 51.57196 
L 43.166103 52.425763 
L 44.364348 55.244746 
L 45.409914 58.063729 
L 45.585 58.484165 
L 47.000765 60.882712 
L 48.375 63.482199 
L 48.539734 63.701695 
L 50.819197 66.520678 
L 51.165 66.899404 
L 53.955 69.28509 
L 54.041717 69.339661 
z
" clip-path="url(#p64b2bb7d41)" style="fill: #c0282f"/>
    <path d="M 62.325 63.815321 
L 63.157327 63.701695 
L 65.115 63.159615 
L 67.905 61.770884 
L 69.358676 60.882712 
L 70.695 59.775219 
L 72.438349 58.063729 
L 73.485 56.931093 
L 74.643775 55.244746 
L 76.275 53.056466 
L 76.584402 52.425763 
L 77.918464 49.60678 
L 79.065 47.629833 
L 79.330608 46.787797 
L 80.193919 43.968814 
L 81.307395 41.149831 
L 81.855 39.912182 
L 82.153906 38.330847 
L 82.641406 35.511864 
L 83.074227 32.692881 
L 81.887055 29.873898 
L 81.855 29.837139 
L 79.106283 27.054915 
L 79.065 26.934477 
L 76.395465 24.235932 
L 76.310012 21.416949 
L 76.275 21.243893 
L 73.656329 18.597966 
L 73.52243 15.778983 
L 73.515242 12.96 
L 73.485 12.96 
L 70.695 12.96 
L 67.905 12.96 
L 65.115 12.96 
L 62.325 12.96 
L 59.535 12.96 
L 56.745 12.96 
L 53.955 12.96 
L 51.165 12.96 
L 48.375 12.96 
L 45.585 12.96 
L 42.795 12.96 
L 40.005 12.96 
L 39.593631 12.96 
L 39.851808 15.778983 
L 40.005 17.522529 
L 40.307244 18.597966 
L 41.043256 21.416949 
L 41.629332 24.235932 
L 42.103399 27.054915 
L 42.495233 29.873898 
L 42.795 32.341661 
L 42.92108 32.692881 
L 43.91879 35.511864 
L 44.668227 38.330847 
L 45.247414 41.149831 
L 45.585 43.006048 
L 46.025556 43.968814 
L 47.210652 46.787797 
L 48.062515 49.60678 
L 48.375 50.700479 
L 49.388568 52.425763 
L 50.744178 55.244746 
L 51.165 56.168342 
L 52.627498 58.063729 
L 53.955 59.906948 
L 54.991722 60.882712 
L 56.745 62.172481 
L 59.535 63.60703 
L 60.289063 63.701695 
z
" clip-path="url(#p64b2bb7d41)" style="fill: #b40426"/>
   </g>
   <g id="matplotlib.axis_1">
    <g id="xtick_1">
     <g id="line2d_1">
      <defs>
       <path id="m599086ee5f" d="M 0 0 
L 0 3.5 
" style="stroke: #000000; stroke-width: 0.8"/>
      </defs>
      <g>
       <use xlink:href="#m599086ee5f" x="13.5" y="96.12" style="stroke: #000000; stroke-width: 0.8"/>
      </g>
     </g>
     <g id="text_1">
      <text style="font-size: 6px; font-family: 'DejaVu Sans', 'Arial', 'Helvetica', 'Lucida Grande', 'Verdana', 'Geneva', 'Lucid', 'Avant Garde', sans-serif; text-anchor: middle" x="13.5" y="107.679063" transform="rotate(-0 13.5 107.679063)">1</text>
     </g>
    </g>
    <g id="xtick_2">
     <g id="line2d_2">
      <g>
       <use xlink:href="#m599086ee5f" x="41.4" y="96.12" style="stroke: #000000; stroke-width: 0.8"/>
      </g>
     </g>
     <g id="text_2">
      <text style="font-size: 6px; font-family: 'DejaVu Sans', 'Arial', 'Helvetica', 'Lucida Grande', 'Verdana', 'Geneva', 'Lucid', 'Avant Garde', sans-serif; text-anchor: middle" x="41.4" y="107.679063" transform="rotate(-0 41.4 107.679063)">10</text>
     </g>
    </g>
    <g id="xtick_3">
     <g id="line2d_3">
      <g>
       <use xlink:href="#m599086ee5f" x="69.3" y="96.12" style="stroke: #000000; stroke-width: 0.8"/>
      </g>
     </g>
     <g id="text_3">
      <text style="font-size: 6px; font-family: 'DejaVu Sans', 'Arial', 'Helvetica', 'Lucida Grande', 'Verdana', 'Geneva', 'Lucid', 'Avant Garde', sans-serif; text-anchor: middle" x="69.3" y="107.679063" transform="rotate(-0 69.3 107.679063)">100</text>
     </g>
    </g>
    <g id="xtick_4">
     <g id="line2d_4">
      <g>
       <use xlink:href="#m599086ee5f" x="97.2" y="96.12" style="stroke: #000000; stroke-width: 0.8"/>
      </g>
     </g>
     <g id="text_4">
      <text style="font-size: 6px; font-family: 'DejaVu Sans', 'Arial', 'Helvetica', 'Lucida Grande', 'Verdana', 'Geneva', 'Lucid', 'Avant Garde', sans-serif; text-anchor: middle" x="97.2" y="107.679063" transform="rotate(-0 97.2 107.679063)">1000</text>
     </g>
    </g>
    <g id="text_5">
     <text style="font-size: 6px; font-family: 'DejaVu Sans', 'Arial', 'Helvetica', 'Lucida Grande', 'Verdana', 'Geneva', 'Lucid', 'Avant Garde', sans-serif; text-anchor: middle" x="55.35" y="117.485938" transform="rotate(-0 55.35 117.485938)">C (µg/mL)</text>
    </g>
   </g>
   <g id="matplotlib.axis_2">
    <g id="ytick_1">
     <g id="line2d_5">
      <defs>
       <path id="m5b81aca6b4" d="M 0 0 
L -3.5 0 
" style="stroke: #000000; stroke-width: 0.8"/>
      </defs>
      <g>
       <use xlink:href="#m5b81aca6b4" x="13.5" y="96.12" style="stroke: #000000; stroke-width: 0.8"/>
      </g>
     </g>
     <g id="text_6">
      <text style="font-size: 6px; font-family: 'DejaVu Sans', 'Arial', 'Helvetica', 'Lucida Grande', 'Verdana', 'Geneva', 'Lucid', 'Avant Garde', sans-serif; text-anchor: end" x="6.5" y="98.399531" transform="rotate(-0 6.5 98.399531)">0</text>
     </g>
    </g>
    <g id="ytick_2">
     <g id="line2d_6">
      <g>
       <use xlink:href="#m5b81aca6b4" x="13.5" y="79.206102" style="stroke: #000000; stroke-width: 0.8"/>
      </g>
     </g>
     <g id="text_7">
      <text style="font-size: 6px; font-family: 'DejaVu Sans', 'Arial', 'Helvetica', 'Lucida Grande', 'Verdana', 'Geneva', 'Lucid', 'Avant Garde', sans-serif; text-anchor: end" x="6.5" y="81.485633" transform="rotate(-0 6.5 81.485633)">2</text>
     </g>
    </g>
    <g id="ytick_3">
     <g id="line2d_7">
      <g>
       <use xlink:href="#m5b81aca6b4" x="13.5" y="62.292203" style="stroke: #000000; stroke-width: 0.8"/>
      </g>
     </g>
     <g id="text_8">
      <text style="font-size: 6px; font-family: 'DejaVu Sans', 'Arial', 'Helvetica', 'Lucida Grande', 'Verdana', 'Geneva', 'Lucid', 'Avant Garde', sans-serif; text-anchor: end" x="6.5" y="64.571735" transform="rotate(-0 6.5 64.571735)">4</text>
     </g>
    </g>
    <g id="ytick_4">
     <g id="line2d_8">
      <g>
       <use xlink:href="#m5b81aca6b4" x="13.5" y="45.378305" style="stroke: #000000; stroke-width: 0.8"/>
      </g>
     </g>
     <g id="text_9">
      <text style="font-size: 6px; font-family: 'DejaVu Sans', 'Arial', 'Helvetica', 'Lucida Grande', 'Verdana', 'Geneva', 'Lucid', 'Avant Garde', sans-serif; text-anchor: end" x="6.5" y="47.657836" transform="rotate(-0 6.5 47.657836)">6</text>
     </g>
    </g>
    <g id="ytick_5">
     <g id="line2d_9">
      <g>
       <use xlink:href="#m5b81aca6b4" x="13.5" y="28.464407" style="stroke: #000000; stroke-width: 0.8"/>
      </g>
     </g>
     <g id="text_10">
      <text style="font-size: 6px; font-family: 'DejaVu Sans', 'Arial', 'Helvetica', 'Lucida Grande', 'Verdana', 'Geneva', 'Lucid', 'Avant Garde', sans-serif; text-anchor: end" x="6.5" y="30.743938" transform="rotate(-0 6.5 30.743938)">8</text>
     </g>
    </g>
    <g id="text_11">
     <text style="font-size: 6px; font-family: 'DejaVu Sans', 'Arial', 'Helvetica', 'Lucida Grande', 'Verdana', 'Geneva', 'Lucid', 'Avant Garde', sans-serif; text-anchor: middle" x="-2.565312" y="54.54" transform="rotate(-90 -2.565312 54.54)">τ (h)</text>
    </g>
   </g>
   <g id="QuadContourSet_2">
    <path d="M 14.895 94.710508 
L 17.685 94.710508 
L 20.475 94.710508 
L 23.265 94.710508 
L 26.055 94.710508 
L 28.845 94.710508 
L 30.1305 94.710508 
M 49.8795 94.710508 
L 51.165 94.710508 
L 53.955 94.710508 
L 56.745 94.710508 
L 59.535 94.710508 
L 62.325 94.710508 
L 65.115 94.710508 
L 67.905 94.710508 
L 70.695 94.710508 
L 73.485 94.710508 
L 76.275 94.710508 
L 79.065 94.710508 
L 81.855 94.710508 
L 84.645 94.710508 
L 87.435 94.710508 
L 90.225 94.710508 
L 93.015 94.710508 
L 95.805 94.710508 
" clip-path="url(#p64b2bb7d41)" style="fill: none; stroke: #000000"/>
    <path d="M 14.895 86.577998 
L 17.685 86.603468 
L 20.475 86.644052 
L 23.265 86.707828 
L 26.055 86.805944 
L 28.845 86.95212 
L 31.635 87.159906 
L 34.425 87.436541 
L 37.215 87.774671 
L 40.005 88.147837 
L 42.795 88.516933 
L 45.585 88.846209 
L 47.806676 89.072542 
L 48.375 89.21927 
L 51.165 89.905723 
L 53.955 90.399713 
L 56.745 90.744251 
L 59.535 90.981414 
L 62.325 91.144846 
L 65.115 91.258719 
L 67.905 91.338646 
L 70.695 91.397605 
L 73.485 91.44036 
L 76.275 91.472227 
L 77.560662 91.483289 
M 95.805 30.272133 
L 93.015 29.905375 
L 92.863244 29.873898 
L 92.721722 29.784753 
M 79.79989 15.580958 
L 79.065 14.637167 
L 78.828995 12.96 
" clip-path="url(#p64b2bb7d41)" style="fill: none; stroke: #000000"/>
    <path d="M 14.895 70.948738 
L 17.685 71.249632 
L 20.475 71.686928 
L 22.580659 72.158644 
L 23.265 72.302968 
L 25.407848 72.948479 
M 43.176053 81.643942 
L 45.585 82.722822 
L 47.590859 83.434576 
L 48.375 83.756696 
L 51.165 84.776289 
L 53.955 85.496512 
L 56.745 86.007568 
L 58.526141 86.253559 
L 59.535 86.464473 
L 62.325 86.89814 
L 65.115 87.188668 
L 67.905 87.381376 
L 70.695 87.50588 
L 73.485 87.581399 
L 76.275 87.620592 
L 79.065 87.631908 
L 81.855 87.621118 
L 84.645 87.592261 
L 87.435 87.548237 
L 90.225 87.49119 
L 93.015 87.422744 
L 95.805 87.34417 
M 95.805 33.610639 
L 93.015 33.061585 
L 91.102353 32.692881 
L 90.225 32.162594 
L 88.978326 31.348137 
M 77.848119 15.475432 
L 76.275 13.31907 
L 76.206753 12.96 
" clip-path="url(#p64b2bb7d41)" style="fill: none; stroke: #000000"/>
    <path d="M 95.805 37.189661 
L 93.015 36.447983 
L 91.932752 35.511864 
L 90.225 34.523617 
L 89.238589 34.172047 
M 77.550492 18.980334 
L 77.475848 18.597966 
L 76.275 16.966457 
L 75.356489 15.778983 
L 74.997085 12.96 
M 22.845004 12.96 
L 23.265 14.072823 
L 23.706711 15.778983 
L 24.49823 18.597966 
L 25.376354 21.416949 
L 25.941868 23.063155 
M 31.625001 42.285688 
L 31.635 42.312876 
L 32.090189 43.968814 
L 32.953267 46.787797 
L 33.964081 49.60678 
L 34.425 50.730103 
L 34.972761 52.425763 
L 36.006387 55.244746 
L 37.215 57.957515 
L 37.255466 58.063729 
L 38.438926 60.882712 
L 39.904543 63.701695 
L 40.005 63.867412 
L 41.450614 66.520678 
L 42.795 68.494748 
L 43.368808 69.339661 
L 45.585 72.017226 
L 45.713476 72.158644 
L 48.375 74.591399 
L 48.88392 74.977627 
L 51.165 76.457066 
L 53.94844 77.79661 
L 53.955 77.799563 
L 56.745 78.721178 
L 59.535 79.306191 
L 62.325 79.635396 
L 65.115 79.751309 
L 67.905 79.681299 
L 70.695 79.44406 
L 73.485 79.049919 
L 76.275 78.501341 
L 79.059421 77.79661 
L 79.065 77.794888 
L 81.855 76.837245 
L 84.645 75.675407 
L 86.134848 74.977627 
L 87.435 74.197527 
L 90.225 72.332003 
L 90.474514 72.158644 
L 93.015 69.839475 
L 93.544592 69.339661 
L 95.799255 66.520678 
L 95.805 66.511404 
" clip-path="url(#p64b2bb7d41)" style="fill: none; stroke: #000000"/>
    <path d="M 34.366882 12.96 
L 34.425 13.395344 
L 34.895304 15.778983 
L 35.413353 18.597966 
L 35.894646 21.416949 
L 36.350502 24.235932 
L 36.792256 27.054915 
L 37.215 29.757895 
L 37.244383 29.873898 
L 37.969471 32.692881 
L 38.616223 35.511864 
L 39.210819 38.330847 
L 39.778822 41.149831 
L 40.005 42.20468 
L 40.597056 43.968814 
L 41.47078 46.787797 
L 42.252324 49.60678 
L 42.795 51.57196 
L 43.166103 52.425763 
L 44.364348 55.244746 
L 45.409914 58.063729 
L 45.585 58.484165 
L 47.000765 60.882712 
L 48.375 63.482199 
L 48.539734 63.701695 
L 50.819197 66.520678 
L 51.165 66.899404 
L 53.955 69.28509 
L 54.041717 69.339661 
L 56.745 70.501504 
L 59.535 71.264145 
L 62.325 71.478482 
L 65.115 71.160927 
L 67.905 70.442799 
L 70.695 69.446384 
L 70.922403 69.339661 
L 73.485 67.692087 
L 75.12687 66.520678 
L 76.275 65.491143 
L 78.028309 63.701695 
L 79.065 62.475915 
L 79.945372 61.248158 
M 87.446295 42.810369 
L 87.785506 41.149831 
L 88.315401 38.330847 
L 87.849256 35.511864 
L 87.435 35.357181 
L 84.989047 32.692881 
L 84.645 32.3805 
L 82.21888 29.873898 
L 81.855 29.456624 
L 79.482216 27.054915 
L 79.065 25.837743 
L 77.480409 24.235932 
L 76.625221 21.416949 
L 76.275 19.685866 
L 75.198307 18.597966 
L 73.859298 15.778983 
L 73.787417 12.96 
" clip-path="url(#p64b2bb7d41)" style="fill: none; stroke: #000000"/>
    <path d="M 39.593631 12.96 
L 39.851808 15.778983 
L 40.005 17.522529 
L 40.307244 18.597966 
L 41.043256 21.416949 
L 41.629332 24.235932 
L 42.103399 27.054915 
L 42.495233 29.873898 
L 42.795 32.341661 
L 42.92108 32.692881 
L 43.91879 35.511864 
L 44.668227 38.330847 
L 45.247414 41.149831 
L 45.585 43.006048 
L 46.025556 43.968814 
L 47.210652 46.787797 
L 48.062515 49.60678 
L 48.375 50.700479 
L 49.388568 52.425763 
L 50.744178 55.244746 
L 51.165 56.168342 
L 52.627498 58.063729 
L 53.734681 59.601038 
M 71.040159 59.436368 
L 72.438349 58.063729 
L 73.485 56.931093 
L 74.643775 55.244746 
L 76.275 53.056466 
L 76.584402 52.425763 
L 77.918464 49.60678 
L 79.065 47.629833 
L 79.330608 46.787797 
L 80.193919 43.968814 
L 81.307395 41.149831 
L 81.855 39.912182 
L 82.153906 38.330847 
L 82.641406 35.511864 
L 83.074227 32.692881 
L 81.887055 29.873898 
L 81.855 29.837139 
L 79.106283 27.054915 
L 79.065 26.934477 
L 76.395465 24.235932 
L 76.310012 21.416949 
L 76.275 21.243893 
L 73.656329 18.597966 
L 73.52243 15.778983 
L 73.515242 12.96 
" clip-path="url(#p64b2bb7d41)" style="fill: none; stroke: #000000"/>
    <path clip-path="url(#p64b2bb7d41)" style="fill: none; stroke: #000000"/>
   </g>
   <g id="patch_3">
    <path d="M 13.5 96.12 
L 13.5 12.96 
" style="fill: none; stroke: #000000; stroke-width: 0.5; stroke-linejoin: miter; stroke-linecap: square"/>
   </g>
   <g id="patch_4">
    <path d="M 13.5 96.12 
L 97.2 96.12 
" style="fill: none; stroke: #000000; stroke-width: 0.5; stroke-linejoin: miter; stroke-linecap: square"/>
   </g>
   <g id="text_12">
    <text style="font-size: 6px; font-family: 'DejaVu Sans', 'Arial', 'Helvetica', 'Lucida Grande', 'Verdana', 'Geneva', 'Lucid', 'Avant Garde', sans-serif; text-anchor: middle" x="55.35" y="6.96" transform="rotate(-0 55.35 6.96)">Fraction of survivors descended from T</text>
   </g>
   <g id="text_13">
    <g clip-path="url(#p64b2bb7d41)">
     <text style="font-size: 6px; font-family: 'DejaVu Sans', 'Arial', 'Helvetica', 'Lucida Grande', 'Verdana', 'Geneva', 'Lucid', 'Avant Garde', sans-serif; text-anchor: middle" x="40.005" y="96.366133" transform="rotate(-0 40.005 96.366133)">0.00</text>
    </g>
   </g>
   <g id="text_14">
    <g clip-path="url(#p64b2bb7d41)">
     <text style="font-size: 6px; font-family: 'DejaVu Sans', 'Arial', 'Helvetica', 'Lucida Grande', 'Verdana', 'Geneva', 'Lucid', 'Avant Garde', sans-serif" transform="translate(80.749822 93.171821) rotate(-359.80869)">0.01</text>
    </g>
   </g>
   <g id="text_15">
    <g clip-path="url(#p64b2bb7d41)">
     <text style="font-size: 6px; font-family: 'DejaVu Sans', 'Arial', 'Helvetica', 'Lucida Grande', 'Verdana', 'Geneva', 'Lucid', 'Avant Garde', sans-serif" transform="translate(78.956759 20.348407) rotate(-311.683987)">0.01</text>
    </g>
   </g>
   <g id="text_16">
    <g clip-path="url(#p64b2bb7d41)">
     <text style="font-size: 6px; font-family: 'DejaVu Sans', 'Arial', 'Helvetica', 'Lucida Grande', 'Verdana', 'Geneva', 'Lucid', 'Avant Garde', sans-serif" transform="translate(27.723622 75.432999) rotate(-332.93008)">0.10</text>
    </g>
   </g>
   <g id="text_17">
    <g clip-path="url(#p64b2bb7d41)">
     <text style="font-size: 6px; font-family: 'DejaVu Sans', 'Arial', 'Helvetica', 'Lucida Grande', 'Verdana', 'Geneva', 'Lucid', 'Avant Garde', sans-serif" transform="translate(76.660753 19.982017) rotate(-305.085305)">0.10</text>
    </g>
   </g>
   <g id="text_18">
    <g clip-path="url(#p64b2bb7d41)">
     <text style="font-size: 6px; font-family: 'DejaVu Sans', 'Arial', 'Helvetica', 'Lucida Grande', 'Verdana', 'Geneva', 'Lucid', 'Avant Garde', sans-serif" transform="translate(76.455304 23.498994) rotate(-307.765989)">0.50</text>
    </g>
   </g>
   <g id="text_19">
    <g clip-path="url(#p64b2bb7d41)">
     <text style="font-size: 6px; font-family: 'DejaVu Sans', 'Arial', 'Helvetica', 'Lucida Grande', 'Verdana', 'Geneva', 'Lucid', 'Avant Garde', sans-serif" transform="translate(25.234816 26.762518) rotate(-286.566191)">0.50</text>
    </g>
   </g>
   <g id="text_20">
    <g clip-path="url(#p64b2bb7d41)">
     <text style="font-size: 6px; font-family: 'DejaVu Sans', 'Arial', 'Helvetica', 'Lucida Grande', 'Verdana', 'Geneva', 'Lucid', 'Avant Garde', sans-serif" transform="translate(83.732439 59.251964) rotate(-68.790482)">0.90</text>
    </g>
   </g>
   <g id="text_21">
    <g clip-path="url(#p64b2bb7d41)">
     <text style="font-size: 6px; font-family: 'DejaVu Sans', 'Arial', 'Helvetica', 'Lucida Grande', 'Verdana', 'Geneva', 'Lucid', 'Avant Garde', sans-serif" transform="translate(55.694678 65.658727) rotate(-1.616582)">0.99</text>
    </g>
   </g>
  </g>
 </g>
 <defs>
  <clipPath id="p64b2bb7d41">
   <rect x="13.5" y="12.96" width="83.7" height="83.16"/>
  </clipPath>
 </defs>
</svg>
