<?xml version="1.0" encoding="utf-8" standalone="no"?>
<!DOCTYPE svg PUBLIC "-//W3C//DTD SVG 1.1//EN"
  "http://www.w3.org/Graphics/SVG/1.1/DTD/svg11.dtd">
<svg xmlns:xlink="http://www.w3.org/1999/xlink" width="108pt" height="108pt" viewBox="0 0 108 108" xmlns="http://www.w3.org/2000/svg" version="1.1">
 <metadata>
  <rdf:RDF xmlns:dc="http://purl.org/dc/elements/1.1/" xmlns:cc="http://creativecommons.org/ns#" xmlns:rdf="http://www.w3.org/1999/02/22-rdf-syntax-ns#">
   <cc:Work>
    <dc:type rdf:resource="http://purl.org/dc/dcmitype/StillImage"/>
    <dc:date>2026-02-16T13:12:05.478745</dc:date>
    <dc:format>image/svg+xml</dc:format>
    <dc:creator>
     <cc:Agent>
      <dc:title>Matplotlib v3.10.8, https://matplotlib.org/</dc:title>
     </cc:Agent>
    </dc:creator>
   </cc:Work>
  </rdf:RDF>
 </metadata>
 <defs>
  <style type="text/css">*{stroke-linejoin: round; stroke-linecap: butt}</style>
 </defs>
 <g id="figure_1">
  <g id="patch_1">
   <path d="M 0 108 
L 108 108 
L 108 0 
L 0 0 
L 0 108 
z
" style="fill: none"/>
  </g>
  <g id="axes_1">
   <g id="patch_2">
    <path d="M 13.5 96.12 
L 97.2 96.12 
L 97.2 12.96 
L 13.5 12.96 
L 13.5 96.12 
z
" style="fill: none"/>
   </g>
   <g id="QuadContourSet_1">
    <path d="M 81.855 69.505989 
L 84.645 69.796676 
L 87.435 70.06035 
L 90.225 70.298673 
L 93.015 70.513508 
L 95.805 70.706969 
L 95.805 69.339661 
L 95.805 66.520678 
L 95.805 63.701695 
L 95.805 60.882712 
L 95.805 58.063729 
L 95.805 55.244746 
L 95.805 52.425763 
L 95.805 49.60678 
L 95.805 46.787797 
L 95.805 43.968814 
L 95.805 41.149831 
L 95.805 38.330847 
L 95.805 35.511864 
L 95.805 32.692881 
L 95.805 29.873898 
L 95.805 27.054915 
L 95.805 24.235932 
L 95.805 21.416949 
L 95.805 18.597966 
L 95.805 15.778983 
L 95.805 12.96 
L 93.015 12.96 
L 90.225 12.96 
L 87.435 12.96 
L 84.645 12.96 
L 81.855 12.96 
L 79.065 12.96 
L 76.275 12.96 
L 73.485 12.96 
L 70.695 12.96 
L 67.905 12.96 
L 65.115 12.96 
L 62.325 12.96 
L 59.535 12.96 
L 56.745 12.96 
L 53.955 12.96 
L 52.143515 12.96 
L 52.607956 15.778983 
L 53.013804 18.597966 
L 53.373183 21.416949 
L 53.696574 24.235932 
L 53.955 26.637023 
L 54.074552 27.054915 
L 54.875479 29.873898 
L 55.533545 32.692881 
L 56.085133 35.511864 
L 56.559704 38.330847 
L 56.745 39.41825 
L 57.413818 41.149831 
L 58.367913 43.968814 
L 59.126598 46.787797 
L 59.535 48.414064 
L 60.132509 49.60678 
L 61.4269 52.425763 
L 62.325 54.903267 
L 62.540945 55.244746 
L 64.36708 58.063729 
L 65.115 59.341123 
L 66.389239 60.882712 
L 67.905 62.640451 
L 69.004154 63.701695 
L 70.695 64.927927 
L 72.871366 66.520678 
L 73.485 66.777926 
L 76.275 67.748333 
L 79.065 68.814254 
L 80.537794 69.339661 
z
" clip-path="url(#pfa330ca479)" style="fill: #81a4fb"/>
    <path d="M 84.645 74.992696 
L 87.435 75.131597 
L 90.225 75.253251 
L 93.015 75.360612 
L 95.805 75.456006 
L 95.805 74.977627 
L 95.805 72.158644 
L 95.805 70.706969 
L 93.015 70.513508 
L 90.225 70.298673 
L 87.435 70.06035 
L 84.645 69.796676 
L 81.855 69.505989 
L 80.537794 69.339661 
L 79.065 68.814254 
L 76.275 67.748333 
L 73.485 66.777926 
L 72.871366 66.520678 
L 70.695 64.927927 
L 69.004154 63.701695 
L 67.905 62.640451 
L 66.389239 60.882712 
L 65.115 59.341123 
L 64.36708 58.063729 
L 62.540945 55.244746 
L 62.325 54.903267 
L 61.4269 52.425763 
L 60.132509 49.60678 
L 59.535 48.414064 
L 59.126598 46.787797 
L 58.367913 43.968814 
L 57.413818 41.149831 
L 56.745 39.41825 
L 56.559704 38.330847 
L 56.085133 35.511864 
L 55.533545 32.692881 
L 54.875479 29.873898 
L 54.074552 27.054915 
L 53.955 26.637023 
L 53.696574 24.235932 
L 53.373183 21.416949 
L 53.013804 18.597966 
L 52.607956 15.778983 
L 52.143515 12.96 
L 51.165 12.96 
L 48.375 12.96 
L 46.328956 12.96 
L 46.714111 15.778983 
L 47.088912 18.597966 
L 47.457088 21.416949 
L 47.822556 24.235932 
L 48.189519 27.054915 
L 48.375 28.416427 
L 48.683611 29.873898 
L 49.274795 32.692881 
L 49.840054 35.511864 
L 50.390267 38.330847 
L 50.936968 41.149831 
L 51.165 42.251015 
L 51.684817 43.968814 
L 52.521311 46.787797 
L 53.319778 49.60678 
L 53.955 51.815465 
L 54.204925 52.425763 
L 55.406004 55.244746 
L 56.530942 58.063729 
L 56.745 58.533129 
L 58.126843 60.882712 
L 59.535 63.335224 
L 59.802686 63.701695 
L 62.096407 66.520678 
L 62.325 66.745512 
L 65.115 69.210805 
L 65.276453 69.339661 
L 67.905 70.685061 
L 70.57958 72.158644 
L 70.695 72.191593 
L 73.485 72.818909 
L 76.275 73.414568 
L 79.065 73.982214 
L 81.855 74.520664 
L 84.400279 74.977627 
z
" clip-path="url(#pfa330ca479)" style="fill: #b1cbfc"/>
    <path d="M 87.435 80.69039 
L 90.225 80.776643 
L 93.015 80.852948 
L 95.805 80.920891 
L 95.805 80.615593 
L 95.805 77.79661 
L 95.805 75.456006 
L 93.015 75.360612 
L 90.225 75.253251 
L 87.435 75.131597 
L 84.645 74.992696 
L 84.400279 74.977627 
L 81.855 74.520664 
L 79.065 73.982214 
L 76.275 73.414568 
L 73.485 72.818909 
L 70.695 72.191593 
L 70.57958 72.158644 
L 67.905 70.685061 
L 65.276453 69.339661 
L 65.115 69.210805 
L 62.325 66.745512 
L 62.096407 66.520678 
L 59.802686 63.701695 
L 59.535 63.335224 
L 58.126843 60.882712 
L 56.745 58.533129 
L 56.530942 58.063729 
L 55.406004 55.244746 
L 54.204925 52.425763 
L 53.955 51.815465 
L 53.319778 49.60678 
L 52.521311 46.787797 
L 51.684817 43.968814 
L 51.165 42.251015 
L 50.936968 41.149831 
L 50.390267 38.330847 
L 49.840054 35.511864 
L 49.274795 32.692881 
L 48.683611 29.873898 
L 48.375 28.416427 
L 48.189519 27.054915 
L 47.822556 24.235932 
L 47.457088 21.416949 
L 47.088912 18.597966 
L 46.714111 15.778983 
L 46.328956 12.96 
L 45.585 12.96 
L 42.795 12.96 
L 40.005 12.96 
L 37.215 12.96 
L 34.662475 12.96 
L 34.914578 15.778983 
L 35.173986 18.597966 
L 35.440372 21.416949 
L 35.713318 24.235932 
L 35.992383 27.054915 
L 36.277195 29.873898 
L 36.567579 32.692881 
L 36.863712 35.511864 
L 37.166318 38.330847 
L 37.215 38.749347 
L 37.653594 41.149831 
L 38.184564 43.968814 
L 38.722929 46.787797 
L 39.26682 49.60678 
L 39.81703 52.425763 
L 40.005 53.307257 
L 40.627308 55.244746 
L 41.567119 58.063729 
L 42.504019 60.882712 
L 42.795 61.666147 
L 43.851658 63.701695 
L 45.370013 66.520678 
L 45.585 66.857237 
L 47.58868 69.339661 
L 48.375 70.145456 
L 50.612538 72.158644 
L 51.165 72.516451 
L 53.955 74.17724 
L 55.293151 74.977627 
L 56.745 75.503389 
L 59.535 76.493619 
L 62.325 77.494637 
L 63.209529 77.79661 
L 65.115 78.13682 
L 67.905 78.587352 
L 70.695 78.997176 
L 73.485 79.369642 
L 76.275 79.708773 
L 79.065 80.018245 
L 81.855 80.301156 
L 84.645 80.560094 
L 85.319505 80.615593 
z
" clip-path="url(#pfa330ca479)" style="fill: #ebd3c6"/>
    <path d="M 53.955 83.72917 
L 56.745 84.074231 
L 59.535 84.358794 
L 62.325 84.602191 
L 65.115 84.815079 
L 67.905 85.00329 
L 70.695 85.170481 
L 73.485 85.319439 
L 76.275 85.452568 
L 79.065 85.571993 
L 81.855 85.679574 
L 84.645 85.776907 
L 87.435 85.865346 
L 90.225 85.946034 
L 93.015 86.01993 
L 95.805 86.087844 
L 95.805 83.434576 
L 95.805 80.920891 
L 93.015 80.852948 
L 90.225 80.776643 
L 87.435 80.69039 
L 85.319505 80.615593 
L 84.645 80.560094 
L 81.855 80.301156 
L 79.065 80.018245 
L 76.275 79.708773 
L 73.485 79.369642 
L 70.695 78.997176 
L 67.905 78.587352 
L 65.115 78.13682 
L 63.209529 77.79661 
L 62.325 77.494637 
L 59.535 76.493619 
L 56.745 75.503389 
L 55.293151 74.977627 
L 53.955 74.17724 
L 51.165 72.516451 
L 50.612538 72.158644 
L 48.375 70.145456 
L 47.58868 69.339661 
L 45.585 66.857237 
L 45.370013 66.520678 
L 43.851658 63.701695 
L 42.795 61.666147 
L 42.504019 60.882712 
L 41.567119 58.063729 
L 40.627308 55.244746 
L 40.005 53.307257 
L 39.81703 52.425763 
L 39.26682 49.60678 
L 38.722929 46.787797 
L 38.184564 43.968814 
L 37.653594 41.149831 
L 37.215 38.749347 
L 37.166318 38.330847 
L 36.863712 35.511864 
L 36.567579 32.692881 
L 36.277195 29.873898 
L 35.992383 27.054915 
L 35.713318 24.235932 
L 35.440372 21.416949 
L 35.173986 18.597966 
L 34.914578 15.778983 
L 34.662475 12.96 
L 34.425 12.96 
L 31.635 12.96 
L 28.845 12.96 
L 26.055 12.96 
L 23.265 12.96 
L 23.254177 12.96 
L 23.265 13.096723 
L 23.466166 15.778983 
L 23.687729 18.597966 
L 23.920759 21.416949 
L 24.166844 24.235932 
L 24.427886 27.054915 
L 24.706179 29.873898 
L 25.004511 32.692881 
L 25.3263 35.511864 
L 25.675778 38.330847 
L 26.055 41.126289 
L 26.058077 41.149831 
L 26.45204 43.968814 
L 26.877299 46.787797 
L 27.341726 49.60678 
L 27.85585 52.425763 
L 28.43405 55.244746 
L 28.845 57.012683 
L 29.083756 58.063729 
L 29.796083 60.882712 
L 30.613719 63.701695 
L 31.586332 66.520678 
L 31.635 66.64049 
L 32.73027 69.339661 
L 34.143339 72.158644 
L 34.425 72.607621 
L 35.988256 74.977627 
L 37.215 76.387857 
L 38.582689 77.79661 
L 40.005 78.881177 
L 42.736615 80.615593 
L 42.795 80.643162 
L 45.585 81.735666 
L 48.375 82.57797 
L 51.165 83.255441 
L 52.048801 83.434576 
z
" clip-path="url(#pfa330ca479)" style="fill: #f08a6c"/>
    <path d="M 65.115 89.146942 
L 67.905 89.311981 
L 70.695 89.451927 
L 73.485 89.572041 
L 76.275 89.676074 
L 79.065 89.766867 
L 81.855 89.846631 
L 84.645 89.917125 
L 87.435 89.97977 
L 90.225 90.035726 
L 93.015 90.085946 
L 95.805 90.131221 
L 95.805 89.072542 
L 95.805 86.253559 
L 95.805 86.087844 
L 93.015 86.01993 
L 90.225 85.946034 
L 87.435 85.865346 
L 84.645 85.776907 
L 81.855 85.679574 
L 79.065 85.571993 
L 76.275 85.452568 
L 73.485 85.319439 
L 70.695 85.170481 
L 67.905 85.00329 
L 65.115 84.815079 
L 62.325 84.602191 
L 59.535 84.358794 
L 56.745 84.074231 
L 53.955 83.72917 
L 52.048801 83.434576 
L 51.165 83.255441 
L 48.375 82.57797 
L 45.585 81.735666 
L 42.795 80.643162 
L 42.736615 80.615593 
L 40.005 78.881177 
L 38.582689 77.79661 
L 37.215 76.387857 
L 35.988256 74.977627 
L 34.425 72.607621 
L 34.143339 72.158644 
L 32.73027 69.339661 
L 31.635 66.64049 
L 31.586332 66.520678 
L 30.613719 63.701695 
L 29.796083 60.882712 
L 29.083756 58.063729 
L 28.845 57.012683 
L 28.43405 55.244746 
L 27.85585 52.425763 
L 27.341726 49.60678 
L 26.877299 46.787797 
L 26.45204 43.968814 
L 26.058077 41.149831 
L 26.055 41.126289 
L 25.675778 38.330847 
L 25.3263 35.511864 
L 25.004511 32.692881 
L 24.706179 29.873898 
L 24.427886 27.054915 
L 24.166844 24.235932 
L 23.920759 21.416949 
L 23.687729 18.597966 
L 23.466166 15.778983 
L 23.265 13.096723 
L 23.254177 12.96 
L 20.475 12.96 
L 17.685 12.96 
L 14.895 12.96 
L 14.895 15.778983 
L 14.895 18.597966 
L 14.895 21.416949 
L 14.895 24.235932 
L 14.895 27.054915 
L 14.895 29.873898 
L 14.895 32.692881 
L 14.895 35.511864 
L 14.895 38.330847 
L 14.895 41.149831 
L 14.895 43.968814 
L 14.895 46.787797 
L 14.895 49.60678 
L 14.895 52.425763 
L 14.895 55.020395 
L 14.9317 55.244746 
L 15.44418 58.063729 
L 16.060897 60.882712 
L 16.82021 63.701695 
L 17.685 66.263612 
L 17.753387 66.520678 
L 18.638542 69.339661 
L 19.844707 72.158644 
L 20.475 73.295355 
L 21.273668 74.977627 
L 23.243715 77.79661 
L 23.265 77.819905 
L 25.8115 80.615593 
L 26.055 80.806924 
L 28.845 82.874108 
L 29.742267 83.434576 
L 31.635 84.413633 
L 34.425 85.515632 
L 37.080878 86.253559 
L 37.215 86.297465 
L 40.005 87.108938 
L 42.795 87.667181 
L 45.585 88.059218 
L 48.375 88.341548 
L 51.165 88.550802 
L 53.955 88.710831 
L 56.745 88.837261 
L 59.535 88.940342 
L 62.325 89.026749 
L 64.021224 89.072542 
z
" clip-path="url(#pfa330ca479)" style="fill: #cc403a"/>
    <path d="M 17.685 94.710508 
L 20.475 94.710508 
L 23.265 94.710508 
L 26.055 94.710508 
L 28.845 94.710508 
L 31.635 94.710508 
L 34.425 94.710508 
L 37.215 94.710508 
L 40.005 94.710508 
L 42.795 94.710508 
L 45.585 94.710508 
L 48.375 94.710508 
L 51.165 94.710508 
L 53.955 94.710508 
L 56.745 94.710508 
L 59.535 94.710508 
L 62.325 94.710508 
L 65.115 94.710508 
L 67.905 94.710508 
L 70.695 94.710508 
L 73.485 94.710508 
L 76.275 94.710508 
L 79.065 94.710508 
L 81.855 94.710508 
L 84.645 94.710508 
L 87.435 94.710508 
L 90.225 94.710508 
L 93.015 94.710508 
L 95.805 94.710508 
L 95.805 91.891525 
L 95.805 90.131221 
L 93.015 90.085946 
L 90.225 90.035726 
L 87.435 89.97977 
L 84.645 89.917125 
L 81.855 89.846631 
L 79.065 89.766867 
L 76.275 89.676074 
L 73.485 89.572041 
L 70.695 89.451927 
L 67.905 89.311981 
L 65.115 89.146942 
L 64.021224 89.072542 
L 62.325 89.026749 
L 59.535 88.940342 
L 56.745 88.837261 
L 53.955 88.710831 
L 51.165 88.550802 
L 48.375 88.341548 
L 45.585 88.059218 
L 42.795 87.667181 
L 40.005 87.108938 
L 37.215 86.297465 
L 37.080878 86.253559 
L 34.425 85.515632 
L 31.635 84.413633 
L 29.742267 83.434576 
L 28.845 82.874108 
L 26.055 80.806924 
L 25.8115 80.615593 
L 23.265 77.819905 
L 23.243715 77.79661 
L 21.273668 74.977627 
L 20.475 73.295355 
L 19.844707 72.158644 
L 18.638542 69.339661 
L 17.753387 66.520678 
L 17.685 66.263612 
L 16.82021 63.701695 
L 16.060897 60.882712 
L 15.44418 58.063729 
L 14.9317 55.244746 
L 14.895 55.020395 
L 14.895 55.244746 
L 14.895 58.063729 
L 14.895 60.882712 
L 14.895 63.701695 
L 14.895 66.520678 
L 14.895 69.339661 
L 14.895 72.158644 
L 14.895 74.977627 
L 14.895 77.79661 
L 14.895 80.615593 
L 14.895 83.434576 
L 14.895 86.253559 
L 14.895 89.072542 
L 14.895 91.891525 
L 14.895 94.710508 
z
" clip-path="url(#pfa330ca479)" style="fill: #b70d28"/>
   </g>
   <g id="matplotlib.axis_1">
    <g id="xtick_1">
     <g id="line2d_1">
      <defs>
       <path id="m35d1f88cea" d="M 0 0 
L 0 3.5 
" style="stroke: #000000; stroke-width: 0.8"/>
      </defs>
      <g>
       <use xlink:href="#m35d1f88cea" x="13.5" y="96.12" style="stroke: #000000; stroke-width: 0.8"/>
      </g>
     </g>
     <g id="text_1">
      <text style="font-size: 6px; font-family: 'DejaVu Sans', 'Arial', 'Helvetica', 'Lucida Grande', 'Verdana', 'Geneva', 'Lucid', 'Avant Garde', sans-serif; text-anchor: middle" x="13.5" y="107.679063" transform="rotate(-0 13.5 107.679063)">1</text>
     </g>
    </g>
    <g id="xtick_2">
     <g id="line2d_2">
      <g>
       <use xlink:href="#m35d1f88cea" x="41.4" y="96.12" style="stroke: #000000; stroke-width: 0.8"/>
      </g>
     </g>
     <g id="text_2">
      <text style="font-size: 6px; font-family: 'DejaVu Sans', 'Arial', 'Helvetica', 'Lucida Grande', 'Verdana', 'Geneva', 'Lucid', 'Avant Garde', sans-serif; text-anchor: middle" x="41.4" y="107.679063" transform="rotate(-0 41.4 107.679063)">10</text>
     </g>
    </g>
    <g id="xtick_3">
     <g id="line2d_3">
      <g>
       <use xlink:href="#m35d1f88cea" x="69.3" y="96.12" style="stroke: #000000; stroke-width: 0.8"/>
      </g>
     </g>
     <g id="text_3">
      <text style="font-size: 6px; font-family: 'DejaVu Sans', 'Arial', 'Helvetica', 'Lucida Grande', 'Verdana', 'Geneva', 'Lucid', 'Avant Garde', sans-serif; text-anchor: middle" x="69.3" y="107.679063" transform="rotate(-0 69.3 107.679063)">100</text>
     </g>
    </g>
    <g id="xtick_4">
     <g id="line2d_4">
      <g>
       <use xlink:href="#m35d1f88cea" x="97.2" y="96.12" style="stroke: #000000; stroke-width: 0.8"/>
      </g>
     </g>
     <g id="text_4">
      <text style="font-size: 6px; font-family: 'DejaVu Sans', 'Arial', 'Helvetica', 'Lucida Grande', 'Verdana', 'Geneva', 'Lucid', 'Avant Garde', sans-serif; text-anchor: middle" x="97.2" y="107.679063" transform="rotate(-0 97.2 107.679063)">1000</text>
     </g>
    </g>
    <g id="text_5">
     <text style="font-size: 6px; font-family: 'DejaVu Sans', 'Arial', 'Helvetica', 'Lucida Grande', 'Verdana', 'Geneva', 'Lucid', 'Avant Garde', sans-serif; text-anchor: middle" x="55.35" y="117.485938" transform="rotate(-0 55.35 117.485938)">C (µg/mL)</text>
    </g>
   </g>
   <g id="matplotlib.axis_2">
    <g id="ytick_1">
     <g id="line2d_5">
      <defs>
       <path id="m978ce0cc8e" d="M 0 0 
L -3.5 0 
" style="stroke: #000000; stroke-width: 0.8"/>
      </defs>
      <g>
       <use xlink:href="#m978ce0cc8e" x="13.5" y="96.12" style="stroke: #000000; stroke-width: 0.8"/>
      </g>
     </g>
     <g id="text_6">
      <text style="font-size: 6px; font-family: 'DejaVu Sans', 'Arial', 'Helvetica', 'Lucida Grande', 'Verdana', 'Geneva', 'Lucid', 'Avant Garde', sans-serif; text-anchor: end" x="6.5" y="98.399531" transform="rotate(-0 6.5 98.399531)">0</text>
     </g>
    </g>
    <g id="ytick_2">
     <g id="line2d_6">
      <g>
       <use xlink:href="#m978ce0cc8e" x="13.5" y="79.206102" style="stroke: #000000; stroke-width: 0.8"/>
      </g>
     </g>
     <g id="text_7">
      <text style="font-size: 6px; font-family: 'DejaVu Sans', 'Arial', 'Helvetica', 'Lucida Grande', 'Verdana', 'Geneva', 'Lucid', 'Avant Garde', sans-serif; text-anchor: end" x="6.5" y="81.485633" transform="rotate(-0 6.5 81.485633)">2</text>
     </g>
    </g>
    <g id="ytick_3">
     <g id="line2d_7">
      <g>
       <use xlink:href="#m978ce0cc8e" x="13.5" y="62.292203" style="stroke: #000000; stroke-width: 0.8"/>
      </g>
     </g>
     <g id="text_8">
      <text style="font-size: 6px; font-family: 'DejaVu Sans', 'Arial', 'Helvetica', 'Lucida Grande', 'Verdana', 'Geneva', 'Lucid', 'Avant Garde', sans-serif; text-anchor: end" x="6.5" y="64.571735" transform="rotate(-0 6.5 64.571735)">4</text>
     </g>
    </g>
    <g id="ytick_4">
     <g id="line2d_8">
      <g>
       <use xlink:href="#m978ce0cc8e" x="13.5" y="45.378305" style="stroke: #000000; stroke-width: 0.8"/>
      </g>
     </g>
     <g id="text_9">
      <text style="font-size: 6px; font-family: 'DejaVu Sans', 'Arial', 'Helvetica', 'Lucida Grande', 'Verdana', 'Geneva', 'Lucid', 'Avant Garde', sans-serif; text-anchor: end" x="6.5" y="47.657836" transform="rotate(-0 6.5 47.657836)">6</text>
     </g>
    </g>
    <g id="ytick_5">
     <g id="line2d_9">
      <g>
       <use xlink:href="#m978ce0cc8e" x="13.5" y="28.464407" style="stroke: #000000; stroke-width: 0.8"/>
      </g>
     </g>
     <g id="text_10">
      <text style="font-size: 6px; font-family: 'DejaVu Sans', 'Arial', 'Helvetica', 'Lucida Grande', 'Verdana', 'Geneva', 'Lucid', 'Avant Garde', sans-serif; text-anchor: end" x="6.5" y="30.743938" transform="rotate(-0 6.5 30.743938)">8</text>
     </g>
    </g>
    <g id="text_11">
     <text style="font-size: 6px; font-family: 'DejaVu Sans', 'Arial', 'Helvetica', 'Lucida Grande', 'Verdana', 'Geneva', 'Lucid', 'Avant Garde', sans-serif; text-anchor: middle" x="-2.565312" y="54.54" transform="rotate(-90 -2.565312 54.54)">τ (h)</text>
    </g>
   </g>
   <g id="QuadContourSet_2">
    <path clip-path="url(#pfa330ca479)" style="fill: none; stroke: #000000"/>
    <path d="M 95.805 70.706969 
L 93.015 70.513508 
L 90.225 70.298673 
L 87.435 70.06035 
L 84.645 69.796676 
L 81.855 69.505989 
L 81.397777 69.448254 
M 63.064385 56.052774 
L 62.540945 55.244746 
L 62.325 54.903267 
L 61.4269 52.425763 
L 60.132509 49.60678 
L 59.535 48.414064 
L 59.126598 46.787797 
L 58.367913 43.968814 
L 57.413818 41.149831 
L 56.745 39.41825 
L 56.559704 38.330847 
L 56.085133 35.511864 
L 55.533545 32.692881 
L 54.875479 29.873898 
L 54.074552 27.054915 
L 53.955 26.637023 
L 53.696574 24.235932 
L 53.373183 21.416949 
L 53.013804 18.597966 
L 52.607956 15.778983 
L 52.143515 12.96 
" clip-path="url(#pfa330ca479)" style="fill: none; stroke: #000000"/>
    <path d="M 95.805 75.456006 
L 93.015 75.360612 
L 90.225 75.253251 
L 87.435 75.131597 
L 84.645 74.992696 
L 84.400279 74.977627 
L 81.855 74.520664 
L 79.065 73.982214 
L 76.275 73.414568 
L 73.485 72.818909 
L 70.695 72.191593 
L 70.57958 72.158644 
L 67.905 70.685061 
L 65.276453 69.339661 
L 65.115 69.210805 
L 62.325 66.745512 
L 62.096407 66.520678 
L 59.802686 63.701695 
L 59.535 63.335224 
L 58.126843 60.882712 
L 56.745 58.533129 
L 56.530942 58.063729 
L 55.406004 55.244746 
L 54.204925 52.425763 
L 53.955 51.815465 
L 53.319778 49.60678 
L 52.521311 46.787797 
L 51.684817 43.968814 
L 51.165 42.251015 
L 50.936968 41.149831 
L 50.728111 40.072889 
M 46.826106 16.621332 
L 46.714111 15.778983 
L 46.328956 12.96 
" clip-path="url(#pfa330ca479)" style="fill: none; stroke: #000000"/>
    <path d="M 95.805 80.920891 
L 93.015 80.852948 
L 90.225 80.776643 
L 87.435 80.69039 
L 85.319505 80.615593 
L 84.645 80.560094 
L 81.855 80.301156 
L 79.065 80.018245 
L 76.275 79.708773 
L 73.485 79.369642 
L 70.695 78.997176 
L 67.905 78.587352 
L 65.115 78.13682 
L 63.209529 77.79661 
L 62.325 77.494637 
L 59.535 76.493619 
L 56.745 75.503389 
L 55.293151 74.977627 
L 53.955 74.17724 
L 51.165 72.516451 
L 50.612538 72.158644 
L 48.375 70.145456 
L 47.58868 69.339661 
L 45.585 66.857237 
L 45.370013 66.520678 
L 43.851658 63.701695 
L 42.795 61.666147 
L 42.504019 60.882712 
L 41.567119 58.063729 
L 40.735054 55.56793 
M 36.516778 32.199723 
L 36.277195 29.873898 
L 35.992383 27.054915 
L 35.713318 24.235932 
L 35.440372 21.416949 
L 35.173986 18.597966 
L 34.914578 15.778983 
L 34.662475 12.96 
" clip-path="url(#pfa330ca479)" style="fill: none; stroke: #000000"/>
    <path d="M 95.805 86.087844 
L 93.015 86.01993 
L 90.225 85.946034 
L 87.435 85.865346 
L 84.645 85.776907 
L 81.855 85.679574 
L 79.065 85.571993 
L 76.798154 85.474961 
M 53.471693 83.654477 
L 52.048801 83.434576 
L 51.165 83.255441 
L 48.375 82.57797 
L 45.585 81.735666 
L 42.795 80.643162 
L 42.736615 80.615593 
L 40.005 78.881177 
L 38.582689 77.79661 
L 37.215 76.387857 
L 35.988256 74.977627 
L 34.425 72.607621 
L 34.143339 72.158644 
L 32.73027 69.339661 
L 31.635 66.64049 
L 31.586332 66.520678 
L 30.613719 63.701695 
L 29.796083 60.882712 
L 29.083756 58.063729 
L 28.845 57.012683 
L 28.43405 55.244746 
L 27.85585 52.425763 
L 27.341726 49.60678 
L 26.877299 46.787797 
L 26.45204 43.968814 
L 26.058077 41.149831 
L 26.055 41.126289 
L 25.675778 38.330847 
L 25.3263 35.511864 
L 25.004511 32.692881 
L 24.706179 29.873898 
L 24.427886 27.054915 
L 24.166844 24.235932 
L 23.920759 21.416949 
L 23.687729 18.597966 
L 23.466166 15.778983 
L 23.265 13.096723 
L 23.254177 12.96 
" clip-path="url(#pfa330ca479)" style="fill: none; stroke: #000000"/>
    <path d="M 95.805 90.131221 
L 93.015 90.085946 
L 90.225 90.035726 
L 87.435 89.97977 
L 84.645 89.917125 
L 81.855 89.846631 
L 79.065 89.766867 
L 76.275 89.676074 
L 73.485 89.572041 
L 70.695 89.451927 
L 67.905 89.311981 
L 65.115 89.146942 
L 64.021224 89.072542 
L 62.325 89.026749 
L 59.535 88.940342 
L 56.745 88.837261 
L 53.955 88.710831 
L 51.165 88.550802 
L 48.375 88.341548 
L 45.585 88.059218 
L 42.795 87.667181 
L 40.005 87.108938 
L 37.215 86.297465 
L 37.080878 86.253559 
L 34.425 85.515632 
L 31.635 84.413633 
L 29.742267 83.434576 
L 28.845 82.874108 
L 26.939459 81.462242 
M 16.069072 60.913062 
L 16.060897 60.882712 
L 15.44418 58.063729 
L 14.9317 55.244746 
L 14.895 55.020395 
" clip-path="url(#pfa330ca479)" style="fill: none; stroke: #000000"/>
    <path clip-path="url(#pfa330ca479)" style="fill: none; stroke: #000000"/>
   </g>
   <g id="patch_3">
    <path d="M 13.5 96.12 
L 13.5 12.96 
" style="fill: none; stroke: #000000; stroke-width: 0.5; stroke-linejoin: miter; stroke-linecap: square"/>
   </g>
   <g id="patch_4">
    <path d="M 13.5 96.12 
L 97.2 96.12 
" style="fill: none; stroke: #000000; stroke-width: 0.5; stroke-linejoin: miter; stroke-linecap: square"/>
   </g>
   <g id="text_12">
    <text style="font-size: 6px; font-family: 'DejaVu Sans', 'Arial', 'Helvetica', 'Lucida Grande', 'Verdana', 'Geneva', 'Lucid', 'Avant Garde', sans-serif; text-anchor: middle" x="55.35" y="6.96" transform="rotate(-0 55.35 6.96)">Survival rate isoclines</text>
   </g>
   <g id="text_13">
    <g clip-path="url(#pfa330ca479)">
     <text style="font-size: 6px; font-family: 'DejaVu Sans', 'Arial', 'Helvetica', 'Lucida Grande', 'Verdana', 'Geneva', 'Lucid', 'Avant Garde', sans-serif" transform="translate(62.717874 61.340753) rotate(-324.876109)">0.001</text>
    </g>
   </g>
   <g id="text_14">
    <g clip-path="url(#pfa330ca479)">
     <text style="font-size: 6px; font-family: 'DejaVu Sans', 'Arial', 'Helvetica', 'Lucida Grande', 'Verdana', 'Geneva', 'Lucid', 'Avant Garde', sans-serif" transform="translate(45.298403 20.228821) rotate(-279.683075)">0.010</text>
    </g>
   </g>
   <g id="text_15">
    <g clip-path="url(#pfa330ca479)">
     <text style="font-size: 6px; font-family: 'DejaVu Sans', 'Arial', 'Helvetica', 'Lucida Grande', 'Verdana', 'Geneva', 'Lucid', 'Avant Garde', sans-serif" transform="translate(35.048627 35.803751) rotate(-280.098897)">0.100</text>
    </g>
   </g>
   <g id="text_16">
    <g clip-path="url(#pfa330ca479)">
     <text style="font-size: 6px; font-family: 'DejaVu Sans', 'Arial', 'Helvetica', 'Lucida Grande', 'Verdana', 'Geneva', 'Lucid', 'Avant Garde', sans-serif" transform="translate(56.428761 85.840558) rotate(-355.821778)">0.500</text>
    </g>
   </g>
   <g id="text_17">
    <g clip-path="url(#pfa330ca479)">
     <text style="font-size: 6px; font-family: 'DejaVu Sans', 'Arial', 'Helvetica', 'Lucida Grande', 'Verdana', 'Geneva', 'Lucid', 'Avant Garde', sans-serif" transform="translate(14.477406 65.252528) rotate(-296.942394)">0.900</text>
    </g>
   </g>
  </g>
 </g>
 <defs>
  <clipPath id="pfa330ca479">
   <rect x="13.5" y="12.96" width="83.7" height="83.16"/>
  </clipPath>
 </defs>
</svg>
