<?xml version="1.0" encoding="utf-8" standalone="no"?>
<!DOCTYPE svg PUBLIC "-//W3C//DTD SVG 1.1//EN"
  "http://www.w3.org/Graphics/SVG/1.1/DTD/svg11.dtd">
<svg xmlns:xlink="http://www.w3.org/1999/xlink" width="144pt" height="115.2pt" viewBox="0 0 144 115.2" xmlns="http://www.w3.org/2000/svg" version="1.1">
 <metadata>
  <rdf:RDF xmlns:dc="http://purl.org/dc/elements/1.1/" xmlns:cc="http://creativecommons.org/ns#" xmlns:rdf="http://www.w3.org/1999/02/22-rdf-syntax-ns#">
   <cc:Work>
    <dc:type rdf:resource="http://purl.org/dc/dcmitype/StillImage"/>
    <dc:date>2026-02-16T19:46:23.702561</dc:date>
    <dc:format>image/svg+xml</dc:format>
    <dc:creator>
     <cc:Agent>
      <dc:title>Matplotlib v3.10.8, https://matplotlib.org/</dc:title>
     </cc:Agent>
    </dc:creator>
   </cc:Work>
  </rdf:RDF>
 </metadata>
 <defs>
  <style type="text/css">*{stroke-linejoin: round; stroke-linecap: butt}</style>
 </defs>
 <g id="figure_1">
  <g id="patch_1">
   <path d="M 0 115.2 
L 144 115.2 
L 144 0 
L 0 0 
L 0 115.2 
z
" style="fill: none"/>
  </g>
  <g id="axes_1">
   <g id="patch_2">
    <path d="M 31.52 84.76 
L 136.84481 84.76 
L 136.84481 17.52 
L 31.52 17.52 
L 31.52 84.76 
z
" style="fill: none"/>
   </g>
   <g id="patch_3">
    <path d="M 36.307491 84.76 
L 38.701237 84.76 
L 38.701237 84.593234 
L 36.307491 84.593234 
z
" clip-path="url(#p9df0f78c14)" style="fill: #1f77b4"/>
   </g>
   <g id="patch_4">
    <path d="M 38.701237 84.76 
L 41.094983 84.76 
L 41.094983 84.593234 
L 38.701237 84.593234 
z
" clip-path="url(#p9df0f78c14)" style="fill: #1f77b4"/>
   </g>
   <g id="patch_5">
    <path d="M 41.094983 84.76 
L 43.488728 84.76 
L 43.488728 84.092937 
L 41.094983 84.092937 
z
" clip-path="url(#p9df0f78c14)" style="fill: #1f77b4"/>
   </g>
   <g id="patch_6">
    <path d="M 43.488728 84.76 
L 45.882474 84.76 
L 45.882474 82.75881 
L 43.488728 82.75881 
z
" clip-path="url(#p9df0f78c14)" style="fill: #1f77b4"/>
   </g>
   <g id="patch_7">
    <path d="M 45.882474 84.76 
L 48.27622 84.76 
L 48.27622 83.092341 
L 45.882474 83.092341 
z
" clip-path="url(#p9df0f78c14)" style="fill: #1f77b4"/>
   </g>
   <g id="patch_8">
    <path d="M 48.27622 84.76 
L 50.669965 84.76 
L 50.669965 81.091151 
L 48.27622 81.091151 
z
" clip-path="url(#p9df0f78c14)" style="fill: #1f77b4"/>
   </g>
   <g id="patch_9">
    <path d="M 50.669965 84.76 
L 53.063711 84.76 
L 53.063711 79.590258 
L 50.669965 79.590258 
z
" clip-path="url(#p9df0f78c14)" style="fill: #1f77b4"/>
   </g>
   <g id="patch_10">
    <path d="M 53.063711 84.76 
L 55.457457 84.76 
L 55.457457 80.257321 
L 53.063711 80.257321 
z
" clip-path="url(#p9df0f78c14)" style="fill: #1f77b4"/>
   </g>
   <g id="patch_11">
    <path d="M 55.457457 84.76 
L 57.851202 84.76 
L 57.851202 77.08877 
L 55.457457 77.08877 
z
" clip-path="url(#p9df0f78c14)" style="fill: #1f77b4"/>
   </g>
   <g id="patch_12">
    <path d="M 57.851202 84.76 
L 60.244948 84.76 
L 60.244948 69.250774 
L 57.851202 69.250774 
z
" clip-path="url(#p9df0f78c14)" style="fill: #1f77b4"/>
   </g>
   <g id="patch_13">
    <path d="M 60.244948 84.76 
L 62.638694 84.76 
L 62.638694 67.749881 
L 60.244948 67.749881 
z
" clip-path="url(#p9df0f78c14)" style="fill: #1f77b4"/>
   </g>
   <g id="patch_14">
    <path d="M 62.638694 84.76 
L 65.03244 84.76 
L 65.03244 63.7475 
L 62.638694 63.7475 
z
" clip-path="url(#p9df0f78c14)" style="fill: #1f77b4"/>
   </g>
   <g id="patch_15">
    <path d="M 65.03244 84.76 
L 67.426185 84.76 
L 67.426185 52.073889 
L 65.03244 52.073889 
z
" clip-path="url(#p9df0f78c14)" style="fill: #1f77b4"/>
   </g>
   <g id="patch_16">
    <path d="M 67.426185 84.76 
L 69.819931 84.76 
L 69.819931 48.905337 
L 67.426185 48.905337 
z
" clip-path="url(#p9df0f78c14)" style="fill: #1f77b4"/>
   </g>
   <g id="patch_17">
    <path d="M 69.819931 84.76 
L 72.213677 84.76 
L 72.213677 42.568234 
L 69.819931 42.568234 
z
" clip-path="url(#p9df0f78c14)" style="fill: #1f77b4"/>
   </g>
   <g id="patch_18">
    <path d="M 72.213677 84.76 
L 74.607422 84.76 
L 74.607422 35.730833 
L 72.213677 35.730833 
z
" clip-path="url(#p9df0f78c14)" style="fill: #1f77b4"/>
   </g>
   <g id="patch_19">
    <path d="M 74.607422 84.76 
L 77.001168 84.76 
L 77.001168 31.728452 
L 74.607422 31.728452 
z
" clip-path="url(#p9df0f78c14)" style="fill: #1f77b4"/>
   </g>
   <g id="patch_20">
    <path d="M 77.001168 84.76 
L 79.394914 84.76 
L 79.394914 22.723095 
L 77.001168 22.723095 
z
" clip-path="url(#p9df0f78c14)" style="fill: #1f77b4"/>
   </g>
   <g id="patch_21">
    <path d="M 79.394914 84.76 
L 81.788659 84.76 
L 81.788659 27.059008 
L 79.394914 27.059008 
z
" clip-path="url(#p9df0f78c14)" style="fill: #1f77b4"/>
   </g>
   <g id="patch_22">
    <path d="M 81.788659 84.76 
L 84.182405 84.76 
L 84.182405 20.721905 
L 81.788659 20.721905 
z
" clip-path="url(#p9df0f78c14)" style="fill: #1f77b4"/>
   </g>
   <g id="patch_23">
    <path d="M 84.182405 84.76 
L 86.576151 84.76 
L 86.576151 31.895218 
L 84.182405 31.895218 
z
" clip-path="url(#p9df0f78c14)" style="fill: #1f77b4"/>
   </g>
   <g id="patch_24">
    <path d="M 86.576151 84.76 
L 88.969896 84.76 
L 88.969896 28.893433 
L 86.576151 28.893433 
z
" clip-path="url(#p9df0f78c14)" style="fill: #1f77b4"/>
   </g>
   <g id="patch_25">
    <path d="M 88.969896 84.76 
L 91.363642 84.76 
L 91.363642 33.062579 
L 88.969896 33.062579 
z
" clip-path="url(#p9df0f78c14)" style="fill: #1f77b4"/>
   </g>
   <g id="patch_26">
    <path d="M 91.363642 84.76 
L 93.757388 84.76 
L 93.757388 39.066151 
L 91.363642 39.066151 
z
" clip-path="url(#p9df0f78c14)" style="fill: #1f77b4"/>
   </g>
   <g id="patch_27">
    <path d="M 93.757388 84.76 
L 96.151133 84.76 
L 96.151133 49.572401 
L 93.757388 49.572401 
z
" clip-path="url(#p9df0f78c14)" style="fill: #1f77b4"/>
   </g>
   <g id="patch_28">
    <path d="M 96.151133 84.76 
L 98.544879 84.76 
L 98.544879 52.907718 
L 96.151133 52.907718 
z
" clip-path="url(#p9df0f78c14)" style="fill: #1f77b4"/>
   </g>
   <g id="patch_29">
    <path d="M 98.544879 84.76 
L 100.938625 84.76 
L 100.938625 63.7475 
L 98.544879 63.7475 
z
" clip-path="url(#p9df0f78c14)" style="fill: #1f77b4"/>
   </g>
   <g id="patch_30">
    <path d="M 100.938625 84.76 
L 103.33237 84.76 
L 103.33237 65.915456 
L 100.938625 65.915456 
z
" clip-path="url(#p9df0f78c14)" style="fill: #1f77b4"/>
   </g>
   <g id="patch_31">
    <path d="M 103.33237 84.76 
L 105.726116 84.76 
L 105.726116 70.584901 
L 103.33237 70.584901 
z
" clip-path="url(#p9df0f78c14)" style="fill: #1f77b4"/>
   </g>
   <g id="patch_32">
    <path d="M 105.726116 84.76 
L 108.119862 84.76 
L 108.119862 77.589067 
L 105.726116 77.589067 
z
" clip-path="url(#p9df0f78c14)" style="fill: #1f77b4"/>
   </g>
   <g id="patch_33">
    <path d="M 108.119862 84.76 
L 110.513607 84.76 
L 110.513607 76.922004 
L 108.119862 76.922004 
z
" clip-path="url(#p9df0f78c14)" style="fill: #1f77b4"/>
   </g>
   <g id="patch_34">
    <path d="M 110.513607 84.76 
L 112.907353 84.76 
L 112.907353 79.256726 
L 110.513607 79.256726 
z
" clip-path="url(#p9df0f78c14)" style="fill: #1f77b4"/>
   </g>
   <g id="patch_35">
    <path d="M 112.907353 84.76 
L 115.301099 84.76 
L 115.301099 80.924385 
L 112.907353 80.924385 
z
" clip-path="url(#p9df0f78c14)" style="fill: #1f77b4"/>
   </g>
   <g id="patch_36">
    <path d="M 115.301099 84.76 
L 117.694845 84.76 
L 117.694845 82.592044 
L 115.301099 82.592044 
z
" clip-path="url(#p9df0f78c14)" style="fill: #1f77b4"/>
   </g>
   <g id="patch_37">
    <path d="M 117.694845 84.76 
L 120.08859 84.76 
L 120.08859 82.258512 
L 117.694845 82.258512 
z
" clip-path="url(#p9df0f78c14)" style="fill: #1f77b4"/>
   </g>
   <g id="patch_38">
    <path d="M 120.08859 84.76 
L 122.482336 84.76 
L 122.482336 84.092937 
L 120.08859 84.092937 
z
" clip-path="url(#p9df0f78c14)" style="fill: #1f77b4"/>
   </g>
   <g id="patch_39">
    <path d="M 122.482336 84.76 
L 124.876082 84.76 
L 124.876082 84.426468 
L 122.482336 84.426468 
z
" clip-path="url(#p9df0f78c14)" style="fill: #1f77b4"/>
   </g>
   <g id="patch_40">
    <path d="M 124.876082 84.76 
L 127.269827 84.76 
L 127.269827 84.593234 
L 124.876082 84.593234 
z
" clip-path="url(#p9df0f78c14)" style="fill: #1f77b4"/>
   </g>
   <g id="patch_41">
    <path d="M 127.269827 84.76 
L 129.663573 84.76 
L 129.663573 84.593234 
L 127.269827 84.593234 
z
" clip-path="url(#p9df0f78c14)" style="fill: #1f77b4"/>
   </g>
   <g id="patch_42">
    <path d="M 129.663573 84.76 
L 132.057319 84.76 
L 132.057319 84.259702 
L 129.663573 84.259702 
z
" clip-path="url(#p9df0f78c14)" style="fill: #1f77b4"/>
   </g>
   <g id="matplotlib.axis_1">
    <g id="xtick_1">
     <g id="line2d_1">
      <defs>
       <path id="md439c12f12" d="M 0 0 
L 0 3.5 
" style="stroke: #000000; stroke-width: 0.8"/>
      </defs>
      <g>
       <use xlink:href="#md439c12f12" x="39.675306" y="84.76" style="stroke: #000000; stroke-width: 0.8"/>
      </g>
     </g>
     <g id="text_1">
      <text style="font-size: 6px; font-family: 'DejaVu Sans', 'Arial', 'Helvetica', 'Lucida Grande', 'Verdana', 'Geneva', 'Lucid', 'Avant Garde', sans-serif; text-anchor: middle" x="39.675306" y="96.319063" transform="rotate(-0 39.675306 96.319063)">2.9</text>
     </g>
    </g>
    <g id="xtick_2">
     <g id="line2d_2">
      <g>
       <use xlink:href="#md439c12f12" x="76.30078" y="84.76" style="stroke: #000000; stroke-width: 0.8"/>
      </g>
     </g>
     <g id="text_2">
      <text style="font-size: 6px; font-family: 'DejaVu Sans', 'Arial', 'Helvetica', 'Lucida Grande', 'Verdana', 'Geneva', 'Lucid', 'Avant Garde', sans-serif; text-anchor: middle" x="76.30078" y="96.319063" transform="rotate(-0 76.30078 96.319063)">3.0</text>
     </g>
    </g>
    <g id="xtick_3">
     <g id="line2d_3">
      <g>
       <use xlink:href="#md439c12f12" x="112.926254" y="84.76" style="stroke: #000000; stroke-width: 0.8"/>
      </g>
     </g>
     <g id="text_3">
      <text style="font-size: 6px; font-family: 'DejaVu Sans', 'Arial', 'Helvetica', 'Lucida Grande', 'Verdana', 'Geneva', 'Lucid', 'Avant Garde', sans-serif; text-anchor: middle" x="112.926254" y="96.319063" transform="rotate(-0 112.926254 96.319063)">3.1</text>
     </g>
    </g>
    <g id="text_4">
     <text style="font-size: 6px; font-family: 'DejaVu Sans', 'Arial', 'Helvetica', 'Lucida Grande', 'Verdana', 'Geneva', 'Lucid', 'Avant Garde', sans-serif; text-anchor: middle" x="84.182405" y="106.125938" transform="rotate(-0 84.182405 106.125938)">value</text>
    </g>
   </g>
   <g id="matplotlib.axis_2">
    <g id="ytick_1">
     <g id="line2d_4">
      <defs>
       <path id="mc9c34a7344" d="M 0 0 
L -3.5 0 
" style="stroke: #000000; stroke-width: 0.8"/>
      </defs>
      <g>
       <use xlink:href="#mc9c34a7344" x="31.52" y="84.76" style="stroke: #000000; stroke-width: 0.8"/>
      </g>
     </g>
     <g id="text_5">
      <text style="font-size: 6px; font-family: 'DejaVu Sans', 'Arial', 'Helvetica', 'Lucida Grande', 'Verdana', 'Geneva', 'Lucid', 'Avant Garde', sans-serif; text-anchor: end" x="24.52" y="87.039531" transform="rotate(-0 24.52 87.039531)">0.0</text>
     </g>
    </g>
    <g id="ytick_2">
     <g id="line2d_5">
      <g>
       <use xlink:href="#mc9c34a7344" x="31.52" y="71.135771" style="stroke: #000000; stroke-width: 0.8"/>
      </g>
     </g>
     <g id="text_6">
      <text style="font-size: 6px; font-family: 'DejaVu Sans', 'Arial', 'Helvetica', 'Lucida Grande', 'Verdana', 'Geneva', 'Lucid', 'Avant Garde', sans-serif; text-anchor: end" x="24.52" y="73.415302" transform="rotate(-0 24.52 73.415302)">2.5</text>
     </g>
    </g>
    <g id="ytick_3">
     <g id="line2d_6">
      <g>
       <use xlink:href="#mc9c34a7344" x="31.52" y="57.511541" style="stroke: #000000; stroke-width: 0.8"/>
      </g>
     </g>
     <g id="text_7">
      <text style="font-size: 6px; font-family: 'DejaVu Sans', 'Arial', 'Helvetica', 'Lucida Grande', 'Verdana', 'Geneva', 'Lucid', 'Avant Garde', sans-serif; text-anchor: end" x="24.52" y="59.791072" transform="rotate(-0 24.52 59.791072)">5.0</text>
     </g>
    </g>
    <g id="ytick_4">
     <g id="line2d_7">
      <g>
       <use xlink:href="#mc9c34a7344" x="31.52" y="43.887312" style="stroke: #000000; stroke-width: 0.8"/>
      </g>
     </g>
     <g id="text_8">
      <text style="font-size: 6px; font-family: 'DejaVu Sans', 'Arial', 'Helvetica', 'Lucida Grande', 'Verdana', 'Geneva', 'Lucid', 'Avant Garde', sans-serif; text-anchor: end" x="24.52" y="46.166843" transform="rotate(-0 24.52 46.166843)">7.5</text>
     </g>
    </g>
    <g id="ytick_5">
     <g id="line2d_8">
      <g>
       <use xlink:href="#mc9c34a7344" x="31.52" y="30.263082" style="stroke: #000000; stroke-width: 0.8"/>
      </g>
     </g>
     <g id="text_9">
      <text style="font-size: 6px; font-family: 'DejaVu Sans', 'Arial', 'Helvetica', 'Lucida Grande', 'Verdana', 'Geneva', 'Lucid', 'Avant Garde', sans-serif; text-anchor: end" x="24.52" y="32.542614" transform="rotate(-0 24.52 32.542614)">10.0</text>
     </g>
    </g>
    <g id="text_10">
     <text style="font-size: 6px; font-family: 'DejaVu Sans', 'Arial', 'Helvetica', 'Lucida Grande', 'Verdana', 'Geneva', 'Lucid', 'Avant Garde', sans-serif; text-anchor: middle" x="5.912813" y="51.14" transform="rotate(-90 5.912813 51.14)">density</text>
    </g>
   </g>
   <g id="line2d_9">
    <path d="M 82.319577 84.76 
L 82.319577 17.52 
" clip-path="url(#p9df0f78c14)" style="fill: none; stroke-dasharray: 3.7,1.6; stroke-dashoffset: 0; stroke: #1f77b4"/>
   </g>
   <g id="patch_43">
    <path d="M 31.52 84.76 
L 31.52 17.52 
" style="fill: none; stroke: #000000; stroke-width: 0.5; stroke-linejoin: miter; stroke-linecap: square"/>
   </g>
   <g id="patch_44">
    <path d="M 31.52 84.76 
L 136.84481 84.76 
" style="fill: none; stroke: #000000; stroke-width: 0.5; stroke-linejoin: miter; stroke-linecap: square"/>
   </g>
   <g id="text_11">
    <text style="font-size: 6px; font-family: 'DejaVu Sans', 'Arial', 'Helvetica', 'Lucida Grande', 'Verdana', 'Geneva', 'Lucid', 'Avant Garde', sans-serif; text-anchor: middle" x="84.182405" y="11.52" transform="rotate(-0 84.182405 11.52)">kS_kT_ratio</text>
   </g>
  </g>
 </g>
 <defs>
  <clipPath id="p9df0f78c14">
   <rect x="31.52" y="17.52" width="105.32481" height="67.24"/>
  </clipPath>
 </defs>
</svg>
