<?xml version="1.0" encoding="utf-8" standalone="no"?>
<!DOCTYPE svg PUBLIC "-//W3C//DTD SVG 1.1//EN"
  "http://www.w3.org/Graphics/SVG/1.1/DTD/svg11.dtd">
<svg xmlns:xlink="http://www.w3.org/1999/xlink" width="144pt" height="115.2pt" viewBox="0 0 144 115.2" xmlns="http://www.w3.org/2000/svg" version="1.1">
 <metadata>
  <rdf:RDF xmlns:dc="http://purl.org/dc/elements/1.1/" xmlns:cc="http://creativecommons.org/ns#" xmlns:rdf="http://www.w3.org/1999/02/22-rdf-syntax-ns#">
   <cc:Work>
    <dc:type rdf:resource="http://purl.org/dc/dcmitype/StillImage"/>
    <dc:date>2026-02-16T13:07:35.634843</dc:date>
    <dc:format>image/svg+xml</dc:format>
    <dc:creator>
     <cc:Agent>
      <dc:title>Matplotlib v3.10.8, https://matplotlib.org/</dc:title>
     </cc:Agent>
    </dc:creator>
   </cc:Work>
  </rdf:RDF>
 </metadata>
 <defs>
  <style type="text/css">*{stroke-linejoin: round; stroke-linecap: butt}</style>
 </defs>
 <g id="figure_1">
  <g id="patch_1">
   <path d="M 0 115.2 
L 144 115.2 
L 144 0 
L 0 0 
L 0 115.2 
z
" style="fill: none"/>
  </g>
  <g id="axes_1">
   <g id="patch_2">
    <path d="M 35.3 84.76 
L 137.52 84.76 
L 137.52 17.52 
L 35.3 17.52 
L 35.3 84.76 
z
" style="fill: none"/>
   </g>
   <g id="patch_3">
    <path d="M 39.946364 84.76 
L 42.269545 84.76 
L 42.269545 84.591034 
L 39.946364 84.591034 
z
" clip-path="url(#pcbe07cd2a4)" style="fill: #1f77b4"/>
   </g>
   <g id="patch_4">
    <path d="M 42.269545 84.76 
L 44.592727 84.76 
L 44.592727 83.746204 
L 42.269545 83.746204 
z
" clip-path="url(#pcbe07cd2a4)" style="fill: #1f77b4"/>
   </g>
   <g id="patch_5">
    <path d="M 44.592727 84.76 
L 46.915909 84.76 
L 46.915909 83.239306 
L 44.592727 83.239306 
z
" clip-path="url(#pcbe07cd2a4)" style="fill: #1f77b4"/>
   </g>
   <g id="patch_6">
    <path d="M 46.915909 84.76 
L 49.239091 84.76 
L 49.239091 79.691021 
L 46.915909 79.691021 
z
" clip-path="url(#pcbe07cd2a4)" style="fill: #1f77b4"/>
   </g>
   <g id="patch_7">
    <path d="M 49.239091 84.76 
L 51.562273 84.76 
L 51.562273 76.311702 
L 49.239091 76.311702 
z
" clip-path="url(#pcbe07cd2a4)" style="fill: #1f77b4"/>
   </g>
   <g id="patch_8">
    <path d="M 51.562273 84.76 
L 53.885455 84.76 
L 53.885455 72.763418 
L 51.562273 72.763418 
z
" clip-path="url(#pcbe07cd2a4)" style="fill: #1f77b4"/>
   </g>
   <g id="patch_9">
    <path d="M 53.885455 84.76 
L 56.208636 84.76 
L 56.208636 63.639256 
L 53.885455 63.639256 
z
" clip-path="url(#pcbe07cd2a4)" style="fill: #1f77b4"/>
   </g>
   <g id="patch_10">
    <path d="M 56.208636 84.76 
L 58.531818 84.76 
L 58.531818 59.077176 
L 56.208636 59.077176 
z
" clip-path="url(#pcbe07cd2a4)" style="fill: #1f77b4"/>
   </g>
   <g id="patch_11">
    <path d="M 58.531818 84.76 
L 60.855 84.76 
L 60.855 47.925423 
L 58.531818 47.925423 
z
" clip-path="url(#pcbe07cd2a4)" style="fill: #1f77b4"/>
   </g>
   <g id="patch_12">
    <path d="M 60.855 84.76 
L 63.178182 84.76 
L 63.178182 39.477125 
L 60.855 39.477125 
z
" clip-path="url(#pcbe07cd2a4)" style="fill: #1f77b4"/>
   </g>
   <g id="patch_13">
    <path d="M 63.178182 84.76 
L 65.501364 84.76 
L 65.501364 27.480543 
L 63.178182 27.480543 
z
" clip-path="url(#pcbe07cd2a4)" style="fill: #1f77b4"/>
   </g>
   <g id="patch_14">
    <path d="M 65.501364 84.76 
L 67.824545 84.76 
L 67.824545 28.83227 
L 65.501364 28.83227 
z
" clip-path="url(#pcbe07cd2a4)" style="fill: #1f77b4"/>
   </g>
   <g id="patch_15">
    <path d="M 67.824545 84.76 
L 70.147727 84.76 
L 70.147727 23.42536 
L 67.824545 23.42536 
z
" clip-path="url(#pcbe07cd2a4)" style="fill: #1f77b4"/>
   </g>
   <g id="patch_16">
    <path d="M 70.147727 84.76 
L 72.470909 84.76 
L 72.470909 20.721905 
L 70.147727 20.721905 
z
" clip-path="url(#pcbe07cd2a4)" style="fill: #1f77b4"/>
   </g>
   <g id="patch_17">
    <path d="M 72.470909 84.76 
L 74.794091 84.76 
L 74.794091 24.439156 
L 72.470909 24.439156 
z
" clip-path="url(#pcbe07cd2a4)" style="fill: #1f77b4"/>
   </g>
   <g id="patch_18">
    <path d="M 74.794091 84.76 
L 77.117273 84.76 
L 77.117273 26.804679 
L 74.794091 26.804679 
z
" clip-path="url(#pcbe07cd2a4)" style="fill: #1f77b4"/>
   </g>
   <g id="patch_19">
    <path d="M 77.117273 84.76 
L 79.440455 84.76 
L 79.440455 29.508134 
L 77.117273 29.508134 
z
" clip-path="url(#pcbe07cd2a4)" style="fill: #1f77b4"/>
   </g>
   <g id="patch_20">
    <path d="M 79.440455 84.76 
L 81.763636 84.76 
L 81.763636 34.408147 
L 79.440455 34.408147 
z
" clip-path="url(#pcbe07cd2a4)" style="fill: #1f77b4"/>
   </g>
   <g id="patch_21">
    <path d="M 81.763636 84.76 
L 84.086818 84.76 
L 84.086818 43.701274 
L 81.763636 43.701274 
z
" clip-path="url(#pcbe07cd2a4)" style="fill: #1f77b4"/>
   </g>
   <g id="patch_22">
    <path d="M 84.086818 84.76 
L 86.41 84.76 
L 86.41 49.27715 
L 84.086818 49.27715 
z
" clip-path="url(#pcbe07cd2a4)" style="fill: #1f77b4"/>
   </g>
   <g id="patch_23">
    <path d="M 86.41 84.76 
L 88.733182 84.76 
L 88.733182 56.204754 
L 86.41 56.204754 
z
" clip-path="url(#pcbe07cd2a4)" style="fill: #1f77b4"/>
   </g>
   <g id="patch_24">
    <path d="M 88.733182 84.76 
L 91.056364 84.76 
L 91.056364 59.077176 
L 88.733182 59.077176 
z
" clip-path="url(#pcbe07cd2a4)" style="fill: #1f77b4"/>
   </g>
   <g id="patch_25">
    <path d="M 91.056364 84.76 
L 93.379545 84.76 
L 93.379545 63.132358 
L 91.056364 63.132358 
z
" clip-path="url(#pcbe07cd2a4)" style="fill: #1f77b4"/>
   </g>
   <g id="patch_26">
    <path d="M 93.379545 84.76 
L 95.702727 84.76 
L 95.702727 67.018575 
L 93.379545 67.018575 
z
" clip-path="url(#pcbe07cd2a4)" style="fill: #1f77b4"/>
   </g>
   <g id="patch_27">
    <path d="M 95.702727 84.76 
L 98.025909 84.76 
L 98.025909 71.073758 
L 95.702727 71.073758 
z
" clip-path="url(#pcbe07cd2a4)" style="fill: #1f77b4"/>
   </g>
   <g id="patch_28">
    <path d="M 98.025909 84.76 
L 100.349091 84.76 
L 100.349091 73.608247 
L 98.025909 73.608247 
z
" clip-path="url(#pcbe07cd2a4)" style="fill: #1f77b4"/>
   </g>
   <g id="patch_29">
    <path d="M 100.349091 84.76 
L 102.672273 84.76 
L 102.672273 76.480668 
L 100.349091 76.480668 
z
" clip-path="url(#pcbe07cd2a4)" style="fill: #1f77b4"/>
   </g>
   <g id="patch_30">
    <path d="M 102.672273 84.76 
L 104.995455 84.76 
L 104.995455 79.184124 
L 102.672273 79.184124 
z
" clip-path="url(#pcbe07cd2a4)" style="fill: #1f77b4"/>
   </g>
   <g id="patch_31">
    <path d="M 104.995455 84.76 
L 107.318636 84.76 
L 107.318636 80.704817 
L 104.995455 80.704817 
z
" clip-path="url(#pcbe07cd2a4)" style="fill: #1f77b4"/>
   </g>
   <g id="patch_32">
    <path d="M 107.318636 84.76 
L 109.641818 84.76 
L 109.641818 82.056545 
L 107.318636 82.056545 
z
" clip-path="url(#pcbe07cd2a4)" style="fill: #1f77b4"/>
   </g>
   <g id="patch_33">
    <path d="M 109.641818 84.76 
L 111.965 84.76 
L 111.965 82.732409 
L 109.641818 82.732409 
z
" clip-path="url(#pcbe07cd2a4)" style="fill: #1f77b4"/>
   </g>
   <g id="patch_34">
    <path d="M 111.965 84.76 
L 114.288182 84.76 
L 114.288182 82.901375 
L 111.965 82.901375 
z
" clip-path="url(#pcbe07cd2a4)" style="fill: #1f77b4"/>
   </g>
   <g id="patch_35">
    <path d="M 114.288182 84.76 
L 116.611364 84.76 
L 116.611364 82.563443 
L 114.288182 82.563443 
z
" clip-path="url(#pcbe07cd2a4)" style="fill: #1f77b4"/>
   </g>
   <g id="patch_36">
    <path d="M 116.611364 84.76 
L 118.934545 84.76 
L 118.934545 83.91517 
L 116.611364 83.91517 
z
" clip-path="url(#pcbe07cd2a4)" style="fill: #1f77b4"/>
   </g>
   <g id="patch_37">
    <path d="M 118.934545 84.76 
L 121.257727 84.76 
L 121.257727 83.91517 
L 118.934545 83.91517 
z
" clip-path="url(#pcbe07cd2a4)" style="fill: #1f77b4"/>
   </g>
   <g id="patch_38">
    <path d="M 121.257727 84.76 
L 123.580909 84.76 
L 123.580909 84.253102 
L 121.257727 84.253102 
z
" clip-path="url(#pcbe07cd2a4)" style="fill: #1f77b4"/>
   </g>
   <g id="patch_39">
    <path d="M 123.580909 84.76 
L 125.904091 84.76 
L 125.904091 84.084136 
L 123.580909 84.084136 
z
" clip-path="url(#pcbe07cd2a4)" style="fill: #1f77b4"/>
   </g>
   <g id="patch_40">
    <path d="M 125.904091 84.76 
L 128.227273 84.76 
L 128.227273 84.591034 
L 125.904091 84.591034 
z
" clip-path="url(#pcbe07cd2a4)" style="fill: #1f77b4"/>
   </g>
   <g id="patch_41">
    <path d="M 128.227273 84.76 
L 130.550455 84.76 
L 130.550455 84.76 
L 128.227273 84.76 
z
" clip-path="url(#pcbe07cd2a4)" style="fill: #1f77b4"/>
   </g>
   <g id="patch_42">
    <path d="M 130.550455 84.76 
L 132.873636 84.76 
L 132.873636 84.253102 
L 130.550455 84.253102 
z
" clip-path="url(#pcbe07cd2a4)" style="fill: #1f77b4"/>
   </g>
   <g id="matplotlib.axis_1">
    <g id="xtick_1">
     <g id="line2d_1">
      <defs>
       <path id="m3d7f22bec3" d="M 0 0 
L 0 3.5 
" style="stroke: #000000; stroke-width: 0.8"/>
      </defs>
      <g>
       <use xlink:href="#m3d7f22bec3" x="47.897343" y="84.76" style="stroke: #000000; stroke-width: 0.8"/>
      </g>
     </g>
     <g id="text_1">
      <text style="font-size: 6px; font-family: 'DejaVu Sans', 'Arial', 'Helvetica', 'Lucida Grande', 'Verdana', 'Geneva', 'Lucid', 'Avant Garde', sans-serif; text-anchor: middle" x="47.897343" y="96.319063" transform="rotate(-0 47.897343 96.319063)">0.002</text>
     </g>
    </g>
    <g id="xtick_2">
     <g id="line2d_2">
      <g>
       <use xlink:href="#m3d7f22bec3" x="85.411585" y="84.76" style="stroke: #000000; stroke-width: 0.8"/>
      </g>
     </g>
     <g id="text_2">
      <text style="font-size: 6px; font-family: 'DejaVu Sans', 'Arial', 'Helvetica', 'Lucida Grande', 'Verdana', 'Geneva', 'Lucid', 'Avant Garde', sans-serif; text-anchor: middle" x="85.411585" y="96.319063" transform="rotate(-0 85.411585 96.319063)">0.004</text>
     </g>
    </g>
    <g id="xtick_3">
     <g id="line2d_3">
      <g>
       <use xlink:href="#m3d7f22bec3" x="122.925827" y="84.76" style="stroke: #000000; stroke-width: 0.8"/>
      </g>
     </g>
     <g id="text_3">
      <text style="font-size: 6px; font-family: 'DejaVu Sans', 'Arial', 'Helvetica', 'Lucida Grande', 'Verdana', 'Geneva', 'Lucid', 'Avant Garde', sans-serif; text-anchor: middle" x="122.925827" y="96.319063" transform="rotate(-0 122.925827 96.319063)">0.006</text>
     </g>
    </g>
    <g id="text_4">
     <text style="font-size: 6px; font-family: 'DejaVu Sans', 'Arial', 'Helvetica', 'Lucida Grande', 'Verdana', 'Geneva', 'Lucid', 'Avant Garde', sans-serif; text-anchor: middle" x="86.41" y="106.125938" transform="rotate(-0 86.41 106.125938)">value</text>
    </g>
   </g>
   <g id="matplotlib.axis_2">
    <g id="ytick_1">
     <g id="line2d_4">
      <defs>
       <path id="m6a888a8274" d="M 0 0 
L -3.5 0 
" style="stroke: #000000; stroke-width: 0.8"/>
      </defs>
      <g>
       <use xlink:href="#m6a888a8274" x="35.3" y="84.76" style="stroke: #000000; stroke-width: 0.8"/>
      </g>
     </g>
     <g id="text_5">
      <text style="font-size: 6px; font-family: 'DejaVu Sans', 'Arial', 'Helvetica', 'Lucida Grande', 'Verdana', 'Geneva', 'Lucid', 'Avant Garde', sans-serif; text-anchor: end" x="28.3" y="87.039531" transform="rotate(-0 28.3 87.039531)">0</text>
     </g>
    </g>
    <g id="ytick_2">
     <g id="line2d_5">
      <g>
       <use xlink:href="#m6a888a8274" x="35.3" y="63.832555" style="stroke: #000000; stroke-width: 0.8"/>
      </g>
     </g>
     <g id="text_6">
      <text style="font-size: 6px; font-family: 'DejaVu Sans', 'Arial', 'Helvetica', 'Lucida Grande', 'Verdana', 'Geneva', 'Lucid', 'Avant Garde', sans-serif; text-anchor: end" x="28.3" y="66.112086" transform="rotate(-0 28.3 66.112086)">200</text>
     </g>
    </g>
    <g id="ytick_3">
     <g id="line2d_6">
      <g>
       <use xlink:href="#m6a888a8274" x="35.3" y="42.905109" style="stroke: #000000; stroke-width: 0.8"/>
      </g>
     </g>
     <g id="text_7">
      <text style="font-size: 6px; font-family: 'DejaVu Sans', 'Arial', 'Helvetica', 'Lucida Grande', 'Verdana', 'Geneva', 'Lucid', 'Avant Garde', sans-serif; text-anchor: end" x="28.3" y="45.18464" transform="rotate(-0 28.3 45.18464)">400</text>
     </g>
    </g>
    <g id="ytick_4">
     <g id="line2d_7">
      <g>
       <use xlink:href="#m6a888a8274" x="35.3" y="21.977664" style="stroke: #000000; stroke-width: 0.8"/>
      </g>
     </g>
     <g id="text_8">
      <text style="font-size: 6px; font-family: 'DejaVu Sans', 'Arial', 'Helvetica', 'Lucida Grande', 'Verdana', 'Geneva', 'Lucid', 'Avant Garde', sans-serif; text-anchor: end" x="28.3" y="24.257195" transform="rotate(-0 28.3 24.257195)">600</text>
     </g>
    </g>
    <g id="text_9">
     <text style="font-size: 6px; font-family: 'DejaVu Sans', 'Arial', 'Helvetica', 'Lucida Grande', 'Verdana', 'Geneva', 'Lucid', 'Avant Garde', sans-serif; text-anchor: middle" x="11.599688" y="51.14" transform="rotate(-90 11.599688 51.14)">density</text>
    </g>
   </g>
   <g id="line2d_8">
    <path d="M 73.355192 84.76 
L 73.355192 17.52 
" clip-path="url(#pcbe07cd2a4)" style="fill: none; stroke-dasharray: 3.7,1.6; stroke-dashoffset: 0; stroke: #1f77b4"/>
   </g>
   <g id="patch_43">
    <path d="M 35.3 84.76 
L 35.3 17.52 
" style="fill: none; stroke: #000000; stroke-width: 0.5; stroke-linejoin: miter; stroke-linecap: square"/>
   </g>
   <g id="patch_44">
    <path d="M 35.3 84.76 
L 137.52 84.76 
" style="fill: none; stroke: #000000; stroke-width: 0.5; stroke-linejoin: miter; stroke-linecap: square"/>
   </g>
   <g id="text_10">
    <text style="font-size: 6px; font-family: 'DejaVu Sans', 'Arial', 'Helvetica', 'Lucida Grande', 'Verdana', 'Geneva', 'Lucid', 'Avant Garde', sans-serif; text-anchor: middle" x="86.41" y="11.52" transform="rotate(-0 86.41 11.52)">kT</text>
   </g>
  </g>
 </g>
 <defs>
  <clipPath id="pcbe07cd2a4">
   <rect x="35.3" y="17.52" width="102.22" height="67.24"/>
  </clipPath>
 </defs>
</svg>
