<?xml version="1.0" encoding="utf-8" standalone="no"?>
<!DOCTYPE svg PUBLIC "-//W3C//DTD SVG 1.1//EN"
  "http://www.w3.org/Graphics/SVG/1.1/DTD/svg11.dtd">
<svg xmlns:xlink="http://www.w3.org/1999/xlink" width="144pt" height="115.2pt" viewBox="0 0 144 115.2" xmlns="http://www.w3.org/2000/svg" version="1.1">
 <metadata>
  <rdf:RDF xmlns:dc="http://purl.org/dc/elements/1.1/" xmlns:cc="http://creativecommons.org/ns#" xmlns:rdf="http://www.w3.org/1999/02/22-rdf-syntax-ns#">
   <cc:Work>
    <dc:type rdf:resource="http://purl.org/dc/dcmitype/StillImage"/>
    <dc:date>2026-02-16T19:51:53.609722</dc:date>
    <dc:format>image/svg+xml</dc:format>
    <dc:creator>
     <cc:Agent>
      <dc:title>Matplotlib v3.10.8, https://matplotlib.org/</dc:title>
     </cc:Agent>
    </dc:creator>
   </cc:Work>
  </rdf:RDF>
 </metadata>
 <defs>
  <style type="text/css">*{stroke-linejoin: round; stroke-linecap: butt}</style>
 </defs>
 <g id="figure_1">
  <g id="patch_1">
   <path d="M 0 115.2 
L 144 115.2 
L 144 0 
L 0 0 
L 0 115.2 
z
" style="fill: none"/>
  </g>
  <g id="axes_1">
   <g id="patch_2">
    <path d="M 31.52 84.76 
L 137.52 84.76 
L 137.52 17.52 
L 31.52 17.52 
L 31.52 84.76 
z
" style="fill: none"/>
   </g>
   <g id="patch_3">
    <path d="M 36.338182 84.76 
L 38.747273 84.76 
L 38.747273 84.631924 
L 36.338182 84.631924 
z
" clip-path="url(#p7ad35f9d41)" style="fill: #1f77b4"/>
   </g>
   <g id="patch_4">
    <path d="M 38.747273 84.76 
L 41.156364 84.76 
L 41.156364 82.966933 
L 38.747273 82.966933 
z
" clip-path="url(#p7ad35f9d41)" style="fill: #1f77b4"/>
   </g>
   <g id="patch_5">
    <path d="M 41.156364 84.76 
L 43.565455 84.76 
L 43.565455 78.484267 
L 41.156364 78.484267 
z
" clip-path="url(#p7ad35f9d41)" style="fill: #1f77b4"/>
   </g>
   <g id="patch_6">
    <path d="M 43.565455 84.76 
L 45.974545 84.76 
L 45.974545 71.183924 
L 43.565455 71.183924 
z
" clip-path="url(#p7ad35f9d41)" style="fill: #1f77b4"/>
   </g>
   <g id="patch_7">
    <path d="M 45.974545 84.76 
L 48.383636 84.76 
L 48.383636 54.14979 
L 45.974545 54.14979 
z
" clip-path="url(#p7ad35f9d41)" style="fill: #1f77b4"/>
   </g>
   <g id="patch_8">
    <path d="M 48.383636 84.76 
L 50.792727 84.76 
L 50.792727 48.386362 
L 48.383636 48.386362 
z
" clip-path="url(#p7ad35f9d41)" style="fill: #1f77b4"/>
   </g>
   <g id="patch_9">
    <path d="M 50.792727 84.76 
L 53.201818 84.76 
L 53.201818 35.962971 
L 50.792727 35.962971 
z
" clip-path="url(#p7ad35f9d41)" style="fill: #1f77b4"/>
   </g>
   <g id="patch_10">
    <path d="M 53.201818 84.76 
L 55.610909 84.76 
L 55.610909 25.076495 
L 53.201818 25.076495 
z
" clip-path="url(#p7ad35f9d41)" style="fill: #1f77b4"/>
   </g>
   <g id="patch_11">
    <path d="M 55.610909 84.76 
L 58.02 84.76 
L 58.02 20.721905 
L 55.610909 20.721905 
z
" clip-path="url(#p7ad35f9d41)" style="fill: #1f77b4"/>
   </g>
   <g id="patch_12">
    <path d="M 58.02 84.76 
L 60.429091 84.76 
L 60.429091 25.716876 
L 58.02 25.716876 
z
" clip-path="url(#p7ad35f9d41)" style="fill: #1f77b4"/>
   </g>
   <g id="patch_13">
    <path d="M 60.429091 84.76 
L 62.838182 84.76 
L 62.838182 30.583771 
L 60.429091 30.583771 
z
" clip-path="url(#p7ad35f9d41)" style="fill: #1f77b4"/>
   </g>
   <g id="patch_14">
    <path d="M 62.838182 84.76 
L 65.247273 84.76 
L 65.247273 38.268343 
L 62.838182 38.268343 
z
" clip-path="url(#p7ad35f9d41)" style="fill: #1f77b4"/>
   </g>
   <g id="patch_15">
    <path d="M 65.247273 84.76 
L 67.656364 84.76 
L 67.656364 42.110629 
L 65.247273 42.110629 
z
" clip-path="url(#p7ad35f9d41)" style="fill: #1f77b4"/>
   </g>
   <g id="patch_16">
    <path d="M 67.656364 84.76 
L 70.065455 84.76 
L 70.065455 47.489829 
L 67.656364 47.489829 
z
" clip-path="url(#p7ad35f9d41)" style="fill: #1f77b4"/>
   </g>
   <g id="patch_17">
    <path d="M 70.065455 84.76 
L 72.474545 84.76 
L 72.474545 51.204038 
L 70.065455 51.204038 
z
" clip-path="url(#p7ad35f9d41)" style="fill: #1f77b4"/>
   </g>
   <g id="patch_18">
    <path d="M 72.474545 84.76 
L 74.883636 84.76 
L 74.883636 65.548571 
L 72.474545 65.548571 
z
" clip-path="url(#p7ad35f9d41)" style="fill: #1f77b4"/>
   </g>
   <g id="patch_19">
    <path d="M 74.883636 84.76 
L 77.292727 84.76 
L 77.292727 63.883581 
L 74.883636 63.883581 
z
" clip-path="url(#p7ad35f9d41)" style="fill: #1f77b4"/>
   </g>
   <g id="patch_20">
    <path d="M 77.292727 84.76 
L 79.701818 84.76 
L 79.701818 69.262781 
L 77.292727 69.262781 
z
" clip-path="url(#p7ad35f9d41)" style="fill: #1f77b4"/>
   </g>
   <g id="patch_21">
    <path d="M 79.701818 84.76 
L 82.110909 84.76 
L 82.110909 73.873524 
L 79.701818 73.873524 
z
" clip-path="url(#p7ad35f9d41)" style="fill: #1f77b4"/>
   </g>
   <g id="patch_22">
    <path d="M 82.110909 84.76 
L 84.52 84.76 
L 84.52 74.0016 
L 82.110909 74.0016 
z
" clip-path="url(#p7ad35f9d41)" style="fill: #1f77b4"/>
   </g>
   <g id="patch_23">
    <path d="M 84.52 84.76 
L 86.929091 84.76 
L 86.929091 78.612343 
L 84.52 78.612343 
z
" clip-path="url(#p7ad35f9d41)" style="fill: #1f77b4"/>
   </g>
   <g id="patch_24">
    <path d="M 86.929091 84.76 
L 89.338182 84.76 
L 89.338182 78.484267 
L 86.929091 78.484267 
z
" clip-path="url(#p7ad35f9d41)" style="fill: #1f77b4"/>
   </g>
   <g id="patch_25">
    <path d="M 89.338182 84.76 
L 91.747273 84.76 
L 91.747273 81.686171 
L 89.338182 81.686171 
z
" clip-path="url(#p7ad35f9d41)" style="fill: #1f77b4"/>
   </g>
   <g id="patch_26">
    <path d="M 91.747273 84.76 
L 94.156364 84.76 
L 94.156364 82.326552 
L 91.747273 82.326552 
z
" clip-path="url(#p7ad35f9d41)" style="fill: #1f77b4"/>
   </g>
   <g id="patch_27">
    <path d="M 94.156364 84.76 
L 96.565455 84.76 
L 96.565455 82.198476 
L 94.156364 82.198476 
z
" clip-path="url(#p7ad35f9d41)" style="fill: #1f77b4"/>
   </g>
   <g id="patch_28">
    <path d="M 96.565455 84.76 
L 98.974545 84.76 
L 98.974545 83.09501 
L 96.565455 83.09501 
z
" clip-path="url(#p7ad35f9d41)" style="fill: #1f77b4"/>
   </g>
   <g id="patch_29">
    <path d="M 98.974545 84.76 
L 101.383636 84.76 
L 101.383636 83.607314 
L 98.974545 83.607314 
z
" clip-path="url(#p7ad35f9d41)" style="fill: #1f77b4"/>
   </g>
   <g id="patch_30">
    <path d="M 101.383636 84.76 
L 103.792727 84.76 
L 103.792727 83.607314 
L 101.383636 83.607314 
z
" clip-path="url(#p7ad35f9d41)" style="fill: #1f77b4"/>
   </g>
   <g id="patch_31">
    <path d="M 103.792727 84.76 
L 106.201818 84.76 
L 106.201818 83.479238 
L 103.792727 83.479238 
z
" clip-path="url(#p7ad35f9d41)" style="fill: #1f77b4"/>
   </g>
   <g id="patch_32">
    <path d="M 106.201818 84.76 
L 108.610909 84.76 
L 108.610909 84.119619 
L 106.201818 84.119619 
z
" clip-path="url(#p7ad35f9d41)" style="fill: #1f77b4"/>
   </g>
   <g id="patch_33">
    <path d="M 108.610909 84.76 
L 111.02 84.76 
L 111.02 84.503848 
L 108.610909 84.503848 
z
" clip-path="url(#p7ad35f9d41)" style="fill: #1f77b4"/>
   </g>
   <g id="patch_34">
    <path d="M 111.02 84.76 
L 113.429091 84.76 
L 113.429091 83.991543 
L 111.02 83.991543 
z
" clip-path="url(#p7ad35f9d41)" style="fill: #1f77b4"/>
   </g>
   <g id="patch_35">
    <path d="M 113.429091 84.76 
L 115.838182 84.76 
L 115.838182 84.375771 
L 113.429091 84.375771 
z
" clip-path="url(#p7ad35f9d41)" style="fill: #1f77b4"/>
   </g>
   <g id="patch_36">
    <path d="M 115.838182 84.76 
L 118.247273 84.76 
L 118.247273 84.76 
L 115.838182 84.76 
z
" clip-path="url(#p7ad35f9d41)" style="fill: #1f77b4"/>
   </g>
   <g id="patch_37">
    <path d="M 118.247273 84.76 
L 120.656364 84.76 
L 120.656364 84.503848 
L 118.247273 84.503848 
z
" clip-path="url(#p7ad35f9d41)" style="fill: #1f77b4"/>
   </g>
   <g id="patch_38">
    <path d="M 120.656364 84.76 
L 123.065455 84.76 
L 123.065455 84.503848 
L 120.656364 84.503848 
z
" clip-path="url(#p7ad35f9d41)" style="fill: #1f77b4"/>
   </g>
   <g id="patch_39">
    <path d="M 123.065455 84.76 
L 125.474545 84.76 
L 125.474545 84.76 
L 123.065455 84.76 
z
" clip-path="url(#p7ad35f9d41)" style="fill: #1f77b4"/>
   </g>
   <g id="patch_40">
    <path d="M 125.474545 84.76 
L 127.883636 84.76 
L 127.883636 84.631924 
L 125.474545 84.631924 
z
" clip-path="url(#p7ad35f9d41)" style="fill: #1f77b4"/>
   </g>
   <g id="patch_41">
    <path d="M 127.883636 84.76 
L 130.292727 84.76 
L 130.292727 84.631924 
L 127.883636 84.631924 
z
" clip-path="url(#p7ad35f9d41)" style="fill: #1f77b4"/>
   </g>
   <g id="patch_42">
    <path d="M 130.292727 84.76 
L 132.701818 84.76 
L 132.701818 84.631924 
L 130.292727 84.631924 
z
" clip-path="url(#p7ad35f9d41)" style="fill: #1f77b4"/>
   </g>
   <g id="matplotlib.axis_1">
    <g id="xtick_1">
     <g id="line2d_1">
      <defs>
       <path id="mad0cafd3b7" d="M 0 0 
L 0 3.5 
" style="stroke: #000000; stroke-width: 0.8"/>
      </defs>
      <g>
       <use xlink:href="#mad0cafd3b7" x="54.910398" y="84.76" style="stroke: #000000; stroke-width: 0.8"/>
      </g>
     </g>
     <g id="text_1">
      <text style="font-size: 6px; font-family: 'DejaVu Sans', 'Arial', 'Helvetica', 'Lucida Grande', 'Verdana', 'Geneva', 'Lucid', 'Avant Garde', sans-serif; text-anchor: middle" x="54.910398" y="96.319063" transform="rotate(-0 54.910398 96.319063)">0.1</text>
     </g>
    </g>
    <g id="xtick_2">
     <g id="line2d_2">
      <g>
       <use xlink:href="#mad0cafd3b7" x="83.252198" y="84.76" style="stroke: #000000; stroke-width: 0.8"/>
      </g>
     </g>
     <g id="text_2">
      <text style="font-size: 6px; font-family: 'DejaVu Sans', 'Arial', 'Helvetica', 'Lucida Grande', 'Verdana', 'Geneva', 'Lucid', 'Avant Garde', sans-serif; text-anchor: middle" x="83.252198" y="96.319063" transform="rotate(-0 83.252198 96.319063)">0.2</text>
     </g>
    </g>
    <g id="xtick_3">
     <g id="line2d_3">
      <g>
       <use xlink:href="#mad0cafd3b7" x="111.593999" y="84.76" style="stroke: #000000; stroke-width: 0.8"/>
      </g>
     </g>
     <g id="text_3">
      <text style="font-size: 6px; font-family: 'DejaVu Sans', 'Arial', 'Helvetica', 'Lucida Grande', 'Verdana', 'Geneva', 'Lucid', 'Avant Garde', sans-serif; text-anchor: middle" x="111.593999" y="96.319063" transform="rotate(-0 111.593999 96.319063)">0.3</text>
     </g>
    </g>
    <g id="text_4">
     <text style="font-size: 6px; font-family: 'DejaVu Sans', 'Arial', 'Helvetica', 'Lucida Grande', 'Verdana', 'Geneva', 'Lucid', 'Avant Garde', sans-serif; text-anchor: middle" x="84.52" y="106.125938" transform="rotate(-0 84.52 106.125938)">value</text>
    </g>
   </g>
   <g id="matplotlib.axis_2">
    <g id="ytick_1">
     <g id="line2d_4">
      <defs>
       <path id="medae6f3261" d="M 0 0 
L -3.5 0 
" style="stroke: #000000; stroke-width: 0.8"/>
      </defs>
      <g>
       <use xlink:href="#medae6f3261" x="31.52" y="84.76" style="stroke: #000000; stroke-width: 0.8"/>
      </g>
     </g>
     <g id="text_5">
      <text style="font-size: 6px; font-family: 'DejaVu Sans', 'Arial', 'Helvetica', 'Lucida Grande', 'Verdana', 'Geneva', 'Lucid', 'Avant Garde', sans-serif; text-anchor: end" x="24.52" y="87.039531" transform="rotate(-0 24.52 87.039531)">0.0</text>
     </g>
    </g>
    <g id="ytick_2">
     <g id="line2d_5">
      <g>
       <use xlink:href="#medae6f3261" x="31.52" y="71.151691" style="stroke: #000000; stroke-width: 0.8"/>
      </g>
     </g>
     <g id="text_6">
      <text style="font-size: 6px; font-family: 'DejaVu Sans', 'Arial', 'Helvetica', 'Lucida Grande', 'Verdana', 'Geneva', 'Lucid', 'Avant Garde', sans-serif; text-anchor: end" x="24.52" y="73.431222" transform="rotate(-0 24.52 73.431222)">2.5</text>
     </g>
    </g>
    <g id="ytick_3">
     <g id="line2d_6">
      <g>
       <use xlink:href="#medae6f3261" x="31.52" y="57.543382" style="stroke: #000000; stroke-width: 0.8"/>
      </g>
     </g>
     <g id="text_7">
      <text style="font-size: 6px; font-family: 'DejaVu Sans', 'Arial', 'Helvetica', 'Lucida Grande', 'Verdana', 'Geneva', 'Lucid', 'Avant Garde', sans-serif; text-anchor: end" x="24.52" y="59.822913" transform="rotate(-0 24.52 59.822913)">5.0</text>
     </g>
    </g>
    <g id="ytick_4">
     <g id="line2d_7">
      <g>
       <use xlink:href="#medae6f3261" x="31.52" y="43.935072" style="stroke: #000000; stroke-width: 0.8"/>
      </g>
     </g>
     <g id="text_8">
      <text style="font-size: 6px; font-family: 'DejaVu Sans', 'Arial', 'Helvetica', 'Lucida Grande', 'Verdana', 'Geneva', 'Lucid', 'Avant Garde', sans-serif; text-anchor: end" x="24.52" y="46.214604" transform="rotate(-0 24.52 46.214604)">7.5</text>
     </g>
    </g>
    <g id="ytick_5">
     <g id="line2d_8">
      <g>
       <use xlink:href="#medae6f3261" x="31.52" y="30.326763" style="stroke: #000000; stroke-width: 0.8"/>
      </g>
     </g>
     <g id="text_9">
      <text style="font-size: 6px; font-family: 'DejaVu Sans', 'Arial', 'Helvetica', 'Lucida Grande', 'Verdana', 'Geneva', 'Lucid', 'Avant Garde', sans-serif; text-anchor: end" x="24.52" y="32.606294" transform="rotate(-0 24.52 32.606294)">10.0</text>
     </g>
    </g>
    <g id="text_10">
     <text style="font-size: 6px; font-family: 'DejaVu Sans', 'Arial', 'Helvetica', 'Lucida Grande', 'Verdana', 'Geneva', 'Lucid', 'Avant Garde', sans-serif; text-anchor: middle" x="5.912813" y="51.14" transform="rotate(-90 5.912813 51.14)">density</text>
    </g>
   </g>
   <g id="line2d_9">
    <path d="M 60.459362 84.76 
L 60.459362 17.52 
" clip-path="url(#p7ad35f9d41)" style="fill: none; stroke-dasharray: 3.7,1.6; stroke-dashoffset: 0; stroke: #1f77b4"/>
   </g>
   <g id="patch_43">
    <path d="M 31.52 84.76 
L 31.52 17.52 
" style="fill: none; stroke: #000000; stroke-width: 0.5; stroke-linejoin: miter; stroke-linecap: square"/>
   </g>
   <g id="patch_44">
    <path d="M 31.52 84.76 
L 137.52 84.76 
" style="fill: none; stroke: #000000; stroke-width: 0.5; stroke-linejoin: miter; stroke-linecap: square"/>
   </g>
   <g id="text_11">
    <text style="font-size: 6px; font-family: 'DejaVu Sans', 'Arial', 'Helvetica', 'Lucida Grande', 'Verdana', 'Geneva', 'Lucid', 'Avant Garde', sans-serif; text-anchor: middle" x="84.52" y="11.52" transform="rotate(-0 84.52 11.52)">r0</text>
   </g>
  </g>
 </g>
 <defs>
  <clipPath id="p7ad35f9d41">
   <rect x="31.52" y="17.52" width="106" height="67.24"/>
  </clipPath>
 </defs>
</svg>
