<?xml version="1.0" encoding="utf-8" standalone="no"?>
<!DOCTYPE svg PUBLIC "-//W3C//DTD SVG 1.1//EN"
  "http://www.w3.org/Graphics/SVG/1.1/DTD/svg11.dtd">
<svg xmlns:xlink="http://www.w3.org/1999/xlink" width="144pt" height="115.2pt" viewBox="0 0 144 115.2" xmlns="http://www.w3.org/2000/svg" version="1.1">
 <metadata>
  <rdf:RDF xmlns:dc="http://purl.org/dc/elements/1.1/" xmlns:cc="http://creativecommons.org/ns#" xmlns:rdf="http://www.w3.org/1999/02/22-rdf-syntax-ns#">
   <cc:Work>
    <dc:type rdf:resource="http://purl.org/dc/dcmitype/StillImage"/>
    <dc:date>2026-02-16T18:34:55.008452</dc:date>
    <dc:format>image/svg+xml</dc:format>
    <dc:creator>
     <cc:Agent>
      <dc:title>Matplotlib v3.10.8, https://matplotlib.org/</dc:title>
     </cc:Agent>
    </dc:creator>
   </cc:Work>
  </rdf:RDF>
 </metadata>
 <defs>
  <style type="text/css">*{stroke-linejoin: round; stroke-linecap: butt}</style>
 </defs>
 <g id="figure_1">
  <g id="patch_1">
   <path d="M 0 115.2 
L 144 115.2 
L 144 0 
L 0 0 
L 0 115.2 
z
" style="fill: none"/>
  </g>
  <g id="axes_1">
   <g id="patch_2">
    <path d="M 39.08 84.76 
L 127.361316 84.76 
L 127.361316 17.52 
L 39.08 17.52 
L 39.08 84.76 
z
" style="fill: none"/>
   </g>
   <g id="patch_3">
    <path d="M 43.092787 84.76 
L 45.099181 84.76 
L 45.099181 84.135238 
L 43.092787 84.135238 
z
" clip-path="url(#p29f0b8ee83)" style="fill: #1f77b4"/>
   </g>
   <g id="patch_4">
    <path d="M 45.099181 84.76 
L 47.105574 84.76 
L 47.105574 84.291429 
L 45.099181 84.291429 
z
" clip-path="url(#p29f0b8ee83)" style="fill: #1f77b4"/>
   </g>
   <g id="patch_5">
    <path d="M 47.105574 84.76 
L 49.111968 84.76 
L 49.111968 82.417143 
L 47.105574 82.417143 
z
" clip-path="url(#p29f0b8ee83)" style="fill: #1f77b4"/>
   </g>
   <g id="patch_6">
    <path d="M 49.111968 84.76 
L 51.118361 84.76 
L 51.118361 81.32381 
L 49.111968 81.32381 
z
" clip-path="url(#p29f0b8ee83)" style="fill: #1f77b4"/>
   </g>
   <g id="patch_7">
    <path d="M 51.118361 84.76 
L 53.124755 84.76 
L 53.124755 80.074286 
L 51.118361 80.074286 
z
" clip-path="url(#p29f0b8ee83)" style="fill: #1f77b4"/>
   </g>
   <g id="patch_8">
    <path d="M 53.124755 84.76 
L 55.131148 84.76 
L 55.131148 78.512381 
L 53.124755 78.512381 
z
" clip-path="url(#p29f0b8ee83)" style="fill: #1f77b4"/>
   </g>
   <g id="patch_9">
    <path d="M 55.131148 84.76 
L 57.137542 84.76 
L 57.137542 74.607619 
L 55.131148 74.607619 
z
" clip-path="url(#p29f0b8ee83)" style="fill: #1f77b4"/>
   </g>
   <g id="patch_10">
    <path d="M 57.137542 84.76 
L 59.143935 84.76 
L 59.143935 69.609524 
L 57.137542 69.609524 
z
" clip-path="url(#p29f0b8ee83)" style="fill: #1f77b4"/>
   </g>
   <g id="patch_11">
    <path d="M 59.143935 84.76 
L 61.150329 84.76 
L 61.150329 65.392381 
L 59.143935 65.392381 
z
" clip-path="url(#p29f0b8ee83)" style="fill: #1f77b4"/>
   </g>
   <g id="patch_12">
    <path d="M 61.150329 84.76 
L 63.156722 84.76 
L 63.156722 60.550476 
L 61.150329 60.550476 
z
" clip-path="url(#p29f0b8ee83)" style="fill: #1f77b4"/>
   </g>
   <g id="patch_13">
    <path d="M 63.156722 84.76 
L 65.163116 84.76 
L 65.163116 53.209524 
L 63.156722 53.209524 
z
" clip-path="url(#p29f0b8ee83)" style="fill: #1f77b4"/>
   </g>
   <g id="patch_14">
    <path d="M 65.163116 84.76 
L 67.16951 84.76 
L 67.16951 47.118095 
L 65.163116 47.118095 
z
" clip-path="url(#p29f0b8ee83)" style="fill: #1f77b4"/>
   </g>
   <g id="patch_15">
    <path d="M 67.16951 84.76 
L 69.175903 84.76 
L 69.175903 45.712381 
L 67.16951 45.712381 
z
" clip-path="url(#p29f0b8ee83)" style="fill: #1f77b4"/>
   </g>
   <g id="patch_16">
    <path d="M 69.175903 84.76 
L 71.182297 84.76 
L 71.182297 29.468571 
L 69.175903 29.468571 
z
" clip-path="url(#p29f0b8ee83)" style="fill: #1f77b4"/>
   </g>
   <g id="patch_17">
    <path d="M 71.182297 84.76 
L 73.18869 84.76 
L 73.18869 34.935238 
L 71.182297 34.935238 
z
" clip-path="url(#p29f0b8ee83)" style="fill: #1f77b4"/>
   </g>
   <g id="patch_18">
    <path d="M 73.18869 84.76 
L 75.195084 84.76 
L 75.195084 20.721905 
L 73.18869 20.721905 
z
" clip-path="url(#p29f0b8ee83)" style="fill: #1f77b4"/>
   </g>
   <g id="patch_19">
    <path d="M 75.195084 84.76 
L 77.201477 84.76 
L 77.201477 29.468571 
L 75.195084 29.468571 
z
" clip-path="url(#p29f0b8ee83)" style="fill: #1f77b4"/>
   </g>
   <g id="patch_20">
    <path d="M 77.201477 84.76 
L 79.207871 84.76 
L 79.207871 27.594286 
L 77.201477 27.594286 
z
" clip-path="url(#p29f0b8ee83)" style="fill: #1f77b4"/>
   </g>
   <g id="patch_21">
    <path d="M 79.207871 84.76 
L 81.214264 84.76 
L 81.214264 28.375238 
L 79.207871 28.375238 
z
" clip-path="url(#p29f0b8ee83)" style="fill: #1f77b4"/>
   </g>
   <g id="patch_22">
    <path d="M 81.214264 84.76 
L 83.220658 84.76 
L 83.220658 35.247619 
L 81.214264 35.247619 
z
" clip-path="url(#p29f0b8ee83)" style="fill: #1f77b4"/>
   </g>
   <g id="patch_23">
    <path d="M 83.220658 84.76 
L 85.227051 84.76 
L 85.227051 41.96381 
L 83.220658 41.96381 
z
" clip-path="url(#p29f0b8ee83)" style="fill: #1f77b4"/>
   </g>
   <g id="patch_24">
    <path d="M 85.227051 84.76 
L 87.233445 84.76 
L 87.233445 47.430476 
L 85.227051 47.430476 
z
" clip-path="url(#p29f0b8ee83)" style="fill: #1f77b4"/>
   </g>
   <g id="patch_25">
    <path d="M 87.233445 84.76 
L 89.239839 84.76 
L 89.239839 55.708571 
L 87.233445 55.708571 
z
" clip-path="url(#p29f0b8ee83)" style="fill: #1f77b4"/>
   </g>
   <g id="patch_26">
    <path d="M 89.239839 84.76 
L 91.246232 84.76 
L 91.246232 61.019048 
L 89.239839 61.019048 
z
" clip-path="url(#p29f0b8ee83)" style="fill: #1f77b4"/>
   </g>
   <g id="patch_27">
    <path d="M 91.246232 84.76 
L 93.252626 84.76 
L 93.252626 64.299048 
L 91.246232 64.299048 
z
" clip-path="url(#p29f0b8ee83)" style="fill: #1f77b4"/>
   </g>
   <g id="patch_28">
    <path d="M 93.252626 84.76 
L 95.259019 84.76 
L 95.259019 70.390476 
L 93.252626 70.390476 
z
" clip-path="url(#p29f0b8ee83)" style="fill: #1f77b4"/>
   </g>
   <g id="patch_29">
    <path d="M 95.259019 84.76 
L 97.265413 84.76 
L 97.265413 73.670476 
L 95.259019 73.670476 
z
" clip-path="url(#p29f0b8ee83)" style="fill: #1f77b4"/>
   </g>
   <g id="patch_30">
    <path d="M 97.265413 84.76 
L 99.271806 84.76 
L 99.271806 78.512381 
L 97.265413 78.512381 
z
" clip-path="url(#p29f0b8ee83)" style="fill: #1f77b4"/>
   </g>
   <g id="patch_31">
    <path d="M 99.271806 84.76 
L 101.2782 84.76 
L 101.2782 80.074286 
L 99.271806 80.074286 
z
" clip-path="url(#p29f0b8ee83)" style="fill: #1f77b4"/>
   </g>
   <g id="patch_32">
    <path d="M 101.2782 84.76 
L 103.284593 84.76 
L 103.284593 80.542857 
L 101.2782 80.542857 
z
" clip-path="url(#p29f0b8ee83)" style="fill: #1f77b4"/>
   </g>
   <g id="patch_33">
    <path d="M 103.284593 84.76 
L 105.290987 84.76 
L 105.290987 82.417143 
L 103.284593 82.417143 
z
" clip-path="url(#p29f0b8ee83)" style="fill: #1f77b4"/>
   </g>
   <g id="patch_34">
    <path d="M 105.290987 84.76 
L 107.29738 84.76 
L 107.29738 83.979048 
L 105.290987 83.979048 
z
" clip-path="url(#p29f0b8ee83)" style="fill: #1f77b4"/>
   </g>
   <g id="patch_35">
    <path d="M 107.29738 84.76 
L 109.303774 84.76 
L 109.303774 84.447619 
L 107.29738 84.447619 
z
" clip-path="url(#p29f0b8ee83)" style="fill: #1f77b4"/>
   </g>
   <g id="patch_36">
    <path d="M 109.303774 84.76 
L 111.310167 84.76 
L 111.310167 84.135238 
L 109.303774 84.135238 
z
" clip-path="url(#p29f0b8ee83)" style="fill: #1f77b4"/>
   </g>
   <g id="patch_37">
    <path d="M 111.310167 84.76 
L 113.316561 84.76 
L 113.316561 84.76 
L 111.310167 84.76 
z
" clip-path="url(#p29f0b8ee83)" style="fill: #1f77b4"/>
   </g>
   <g id="patch_38">
    <path d="M 113.316561 84.76 
L 115.322955 84.76 
L 115.322955 84.60381 
L 113.316561 84.60381 
z
" clip-path="url(#p29f0b8ee83)" style="fill: #1f77b4"/>
   </g>
   <g id="patch_39">
    <path d="M 115.322955 84.76 
L 117.329348 84.76 
L 117.329348 84.76 
L 115.322955 84.76 
z
" clip-path="url(#p29f0b8ee83)" style="fill: #1f77b4"/>
   </g>
   <g id="patch_40">
    <path d="M 117.329348 84.76 
L 119.335742 84.76 
L 119.335742 84.60381 
L 117.329348 84.60381 
z
" clip-path="url(#p29f0b8ee83)" style="fill: #1f77b4"/>
   </g>
   <g id="patch_41">
    <path d="M 119.335742 84.76 
L 121.342135 84.76 
L 121.342135 84.76 
L 119.335742 84.76 
z
" clip-path="url(#p29f0b8ee83)" style="fill: #1f77b4"/>
   </g>
   <g id="patch_42">
    <path d="M 121.342135 84.76 
L 123.348529 84.76 
L 123.348529 84.60381 
L 121.342135 84.60381 
z
" clip-path="url(#p29f0b8ee83)" style="fill: #1f77b4"/>
   </g>
   <g id="matplotlib.axis_1">
    <g id="xtick_1">
     <g id="line2d_1">
      <defs>
       <path id="m1b34580892" d="M 0 0 
L 0 3.5 
" style="stroke: #000000; stroke-width: 0.8"/>
      </defs>
      <g>
       <use xlink:href="#m1b34580892" x="44.079359" y="84.76" style="stroke: #000000; stroke-width: 0.8"/>
      </g>
     </g>
     <g id="text_1">
      <text style="font-size: 6px; font-family: 'DejaVu Sans', 'Arial', 'Helvetica', 'Lucida Grande', 'Verdana', 'Geneva', 'Lucid', 'Avant Garde', sans-serif; text-anchor: middle" x="44.079359" y="96.319063" transform="rotate(-0 44.079359 96.319063)">0.8590</text>
     </g>
    </g>
    <g id="xtick_2">
     <g id="line2d_2">
      <g>
       <use xlink:href="#m1b34580892" x="76.719332" y="84.76" style="stroke: #000000; stroke-width: 0.8"/>
      </g>
     </g>
     <g id="text_2">
      <text style="font-size: 6px; font-family: 'DejaVu Sans', 'Arial', 'Helvetica', 'Lucida Grande', 'Verdana', 'Geneva', 'Lucid', 'Avant Garde', sans-serif; text-anchor: middle" x="76.719332" y="96.319063" transform="rotate(-0 76.719332 96.319063)">0.8595</text>
     </g>
    </g>
    <g id="xtick_3">
     <g id="line2d_3">
      <g>
       <use xlink:href="#m1b34580892" x="109.359305" y="84.76" style="stroke: #000000; stroke-width: 0.8"/>
      </g>
     </g>
     <g id="text_3">
      <text style="font-size: 6px; font-family: 'DejaVu Sans', 'Arial', 'Helvetica', 'Lucida Grande', 'Verdana', 'Geneva', 'Lucid', 'Avant Garde', sans-serif; text-anchor: middle" x="109.359305" y="96.319063" transform="rotate(-0 109.359305 96.319063)">0.8600</text>
     </g>
    </g>
    <g id="text_4">
     <text style="font-size: 6px; font-family: 'DejaVu Sans', 'Arial', 'Helvetica', 'Lucida Grande', 'Verdana', 'Geneva', 'Lucid', 'Avant Garde', sans-serif; text-anchor: middle" x="83.220658" y="106.125938" transform="rotate(-0 83.220658 106.125938)">value</text>
    </g>
   </g>
   <g id="matplotlib.axis_2">
    <g id="ytick_1">
     <g id="line2d_4">
      <defs>
       <path id="m69d645a035" d="M 0 0 
L -3.5 0 
" style="stroke: #000000; stroke-width: 0.8"/>
      </defs>
      <g>
       <use xlink:href="#m69d645a035" x="39.08" y="84.76" style="stroke: #000000; stroke-width: 0.8"/>
      </g>
     </g>
     <g id="text_5">
      <text style="font-size: 6px; font-family: 'DejaVu Sans', 'Arial', 'Helvetica', 'Lucida Grande', 'Verdana', 'Geneva', 'Lucid', 'Avant Garde', sans-serif; text-anchor: end" x="32.08" y="87.039531" transform="rotate(-0 32.08 87.039531)">0</text>
     </g>
    </g>
    <g id="ytick_2">
     <g id="line2d_5">
      <g>
       <use xlink:href="#m69d645a035" x="39.08" y="60.757256" style="stroke: #000000; stroke-width: 0.8"/>
      </g>
     </g>
     <g id="text_6">
      <text style="font-size: 6px; font-family: 'DejaVu Sans', 'Arial', 'Helvetica', 'Lucida Grande', 'Verdana', 'Geneva', 'Lucid', 'Avant Garde', sans-serif; text-anchor: end" x="32.08" y="63.036787" transform="rotate(-0 32.08 63.036787)">1000</text>
     </g>
    </g>
    <g id="ytick_3">
     <g id="line2d_6">
      <g>
       <use xlink:href="#m69d645a035" x="39.08" y="36.754512" style="stroke: #000000; stroke-width: 0.8"/>
      </g>
     </g>
     <g id="text_7">
      <text style="font-size: 6px; font-family: 'DejaVu Sans', 'Arial', 'Helvetica', 'Lucida Grande', 'Verdana', 'Geneva', 'Lucid', 'Avant Garde', sans-serif; text-anchor: end" x="32.08" y="39.034044" transform="rotate(-0 32.08 39.034044)">2000</text>
     </g>
    </g>
    <g id="text_8">
     <text style="font-size: 6px; font-family: 'DejaVu Sans', 'Arial', 'Helvetica', 'Lucida Grande', 'Verdana', 'Geneva', 'Lucid', 'Avant Garde', sans-serif; text-anchor: middle" x="11.562187" y="51.14" transform="rotate(-90 11.562187 51.14)">density</text>
    </g>
   </g>
   <g id="line2d_7">
    <path d="M 76.494331 84.76 
L 76.494331 17.52 
" clip-path="url(#p29f0b8ee83)" style="fill: none; stroke-dasharray: 3.7,1.6; stroke-dashoffset: 0; stroke: #1f77b4"/>
   </g>
   <g id="patch_43">
    <path d="M 39.08 84.76 
L 39.08 17.52 
" style="fill: none; stroke: #000000; stroke-width: 0.5; stroke-linejoin: miter; stroke-linecap: square"/>
   </g>
   <g id="patch_44">
    <path d="M 39.08 84.76 
L 127.361316 84.76 
" style="fill: none; stroke: #000000; stroke-width: 0.5; stroke-linejoin: miter; stroke-linecap: square"/>
   </g>
   <g id="text_9">
    <text style="font-size: 6px; font-family: 'DejaVu Sans', 'Arial', 'Helvetica', 'Lucida Grande', 'Verdana', 'Geneva', 'Lucid', 'Avant Garde', sans-serif; text-anchor: middle" x="83.220658" y="11.52" transform="rotate(-0 83.220658 11.52)">mu0</text>
   </g>
  </g>
 </g>
 <defs>
  <clipPath id="p29f0b8ee83">
   <rect x="39.08" y="17.52" width="88.281316" height="67.24"/>
  </clipPath>
 </defs>
</svg>
