<?xml version="1.0" encoding="utf-8" standalone="no"?>
<!DOCTYPE svg PUBLIC "-//W3C//DTD SVG 1.1//EN"
  "http://www.w3.org/Graphics/SVG/1.1/DTD/svg11.dtd">
<svg xmlns:xlink="http://www.w3.org/1999/xlink" width="144pt" height="115.2pt" viewBox="0 0 144 115.2" xmlns="http://www.w3.org/2000/svg" version="1.1">
 <metadata>
  <rdf:RDF xmlns:dc="http://purl.org/dc/elements/1.1/" xmlns:cc="http://creativecommons.org/ns#" xmlns:rdf="http://www.w3.org/1999/02/22-rdf-syntax-ns#">
   <cc:Work>
    <dc:type rdf:resource="http://purl.org/dc/dcmitype/StillImage"/>
    <dc:date>2026-02-16T19:08:02.721877</dc:date>
    <dc:format>image/svg+xml</dc:format>
    <dc:creator>
     <cc:Agent>
      <dc:title>Matplotlib v3.10.8, https://matplotlib.org/</dc:title>
     </cc:Agent>
    </dc:creator>
   </cc:Work>
  </rdf:RDF>
 </metadata>
 <defs>
  <style type="text/css">*{stroke-linejoin: round; stroke-linecap: butt}</style>
 </defs>
 <g id="figure_1">
  <g id="patch_1">
   <path d="M 0 115.2 
L 144 115.2 
L 144 0 
L 0 0 
L 0 115.2 
z
" style="fill: none"/>
  </g>
  <g id="axes_1">
   <g id="patch_2">
    <path d="M 33.41 84.76 
L 137.52 84.76 
L 137.52 17.52 
L 33.41 17.52 
L 33.41 84.76 
z
" style="fill: none"/>
   </g>
   <g id="patch_3">
    <path d="M 38.142273 84.76 
L 40.508409 84.76 
L 40.508409 84.420275 
L 38.142273 84.420275 
z
" clip-path="url(#p2e37109009)" style="fill: #1f77b4"/>
   </g>
   <g id="patch_4">
    <path d="M 40.508409 84.76 
L 42.874545 84.76 
L 42.874545 84.250413 
L 40.508409 84.250413 
z
" clip-path="url(#p2e37109009)" style="fill: #1f77b4"/>
   </g>
   <g id="patch_5">
    <path d="M 42.874545 84.76 
L 45.240682 84.76 
L 45.240682 83.740826 
L 42.874545 83.740826 
z
" clip-path="url(#p2e37109009)" style="fill: #1f77b4"/>
   </g>
   <g id="patch_6">
    <path d="M 45.240682 84.76 
L 47.606818 84.76 
L 47.606818 82.042203 
L 45.240682 82.042203 
z
" clip-path="url(#p2e37109009)" style="fill: #1f77b4"/>
   </g>
   <g id="patch_7">
    <path d="M 47.606818 84.76 
L 49.972955 84.76 
L 49.972955 81.192891 
L 47.606818 81.192891 
z
" clip-path="url(#p2e37109009)" style="fill: #1f77b4"/>
   </g>
   <g id="patch_8">
    <path d="M 49.972955 84.76 
L 52.339091 84.76 
L 52.339091 81.192891 
L 49.972955 81.192891 
z
" clip-path="url(#p2e37109009)" style="fill: #1f77b4"/>
   </g>
   <g id="patch_9">
    <path d="M 52.339091 84.76 
L 54.705227 84.76 
L 54.705227 77.795645 
L 52.339091 77.795645 
z
" clip-path="url(#p2e37109009)" style="fill: #1f77b4"/>
   </g>
   <g id="patch_10">
    <path d="M 54.705227 84.76 
L 57.071364 84.76 
L 57.071364 74.058674 
L 54.705227 74.058674 
z
" clip-path="url(#p2e37109009)" style="fill: #1f77b4"/>
   </g>
   <g id="patch_11">
    <path d="M 57.071364 84.76 
L 59.4375 84.76 
L 59.4375 69.812116 
L 57.071364 69.812116 
z
" clip-path="url(#p2e37109009)" style="fill: #1f77b4"/>
   </g>
   <g id="patch_12">
    <path d="M 59.4375 84.76 
L 61.803636 84.76 
L 61.803636 60.63955 
L 59.4375 60.63955 
z
" clip-path="url(#p2e37109009)" style="fill: #1f77b4"/>
   </g>
   <g id="patch_13">
    <path d="M 61.803636 84.76 
L 64.169773 84.76 
L 64.169773 58.43134 
L 61.803636 58.43134 
z
" clip-path="url(#p2e37109009)" style="fill: #1f77b4"/>
   </g>
   <g id="patch_14">
    <path d="M 64.169773 84.76 
L 66.535909 84.76 
L 66.535909 47.560152 
L 64.169773 47.560152 
z
" clip-path="url(#p2e37109009)" style="fill: #1f77b4"/>
   </g>
   <g id="patch_15">
    <path d="M 66.535909 84.76 
L 68.902045 84.76 
L 68.902045 45.521804 
L 66.535909 45.521804 
z
" clip-path="url(#p2e37109009)" style="fill: #1f77b4"/>
   </g>
   <g id="patch_16">
    <path d="M 68.902045 84.76 
L 71.268182 84.76 
L 71.268182 33.121854 
L 68.902045 33.121854 
z
" clip-path="url(#p2e37109009)" style="fill: #1f77b4"/>
   </g>
   <g id="patch_17">
    <path d="M 71.268182 84.76 
L 73.634318 84.76 
L 73.634318 33.291717 
L 71.268182 33.291717 
z
" clip-path="url(#p2e37109009)" style="fill: #1f77b4"/>
   </g>
   <g id="patch_18">
    <path d="M 73.634318 84.76 
L 76.000455 84.76 
L 76.000455 24.7986 
L 73.634318 24.7986 
z
" clip-path="url(#p2e37109009)" style="fill: #1f77b4"/>
   </g>
   <g id="patch_19">
    <path d="M 76.000455 84.76 
L 78.366591 84.76 
L 78.366591 24.968463 
L 76.000455 24.968463 
z
" clip-path="url(#p2e37109009)" style="fill: #1f77b4"/>
   </g>
   <g id="patch_20">
    <path d="M 78.366591 84.76 
L 80.732727 84.76 
L 80.732727 23.779427 
L 78.366591 23.779427 
z
" clip-path="url(#p2e37109009)" style="fill: #1f77b4"/>
   </g>
   <g id="patch_21">
    <path d="M 80.732727 84.76 
L 83.098864 84.76 
L 83.098864 20.721905 
L 80.732727 20.721905 
z
" clip-path="url(#p2e37109009)" style="fill: #1f77b4"/>
   </g>
   <g id="patch_22">
    <path d="M 83.098864 84.76 
L 85.465 84.76 
L 85.465 25.817774 
L 83.098864 25.817774 
z
" clip-path="url(#p2e37109009)" style="fill: #1f77b4"/>
   </g>
   <g id="patch_23">
    <path d="M 85.465 84.76 
L 87.831136 84.76 
L 87.831136 30.913644 
L 85.465 30.913644 
z
" clip-path="url(#p2e37109009)" style="fill: #1f77b4"/>
   </g>
   <g id="patch_24">
    <path d="M 87.831136 84.76 
L 90.197273 84.76 
L 90.197273 37.028688 
L 87.831136 37.028688 
z
" clip-path="url(#p2e37109009)" style="fill: #1f77b4"/>
   </g>
   <g id="patch_25">
    <path d="M 90.197273 84.76 
L 92.563409 84.76 
L 92.563409 46.031391 
L 90.197273 46.031391 
z
" clip-path="url(#p2e37109009)" style="fill: #1f77b4"/>
   </g>
   <g id="patch_26">
    <path d="M 92.563409 84.76 
L 94.929545 84.76 
L 94.929545 56.22313 
L 92.563409 56.22313 
z
" clip-path="url(#p2e37109009)" style="fill: #1f77b4"/>
   </g>
   <g id="patch_27">
    <path d="M 94.929545 84.76 
L 97.295682 84.76 
L 97.295682 57.242304 
L 94.929545 57.242304 
z
" clip-path="url(#p2e37109009)" style="fill: #1f77b4"/>
   </g>
   <g id="patch_28">
    <path d="M 97.295682 84.76 
L 99.661818 84.76 
L 99.661818 67.434043 
L 97.295682 67.434043 
z
" clip-path="url(#p2e37109009)" style="fill: #1f77b4"/>
   </g>
   <g id="patch_29">
    <path d="M 99.661818 84.76 
L 102.027955 84.76 
L 102.027955 67.773768 
L 99.661818 67.773768 
z
" clip-path="url(#p2e37109009)" style="fill: #1f77b4"/>
   </g>
   <g id="patch_30">
    <path d="M 102.027955 84.76 
L 104.394091 84.76 
L 104.394091 73.379224 
L 102.027955 73.379224 
z
" clip-path="url(#p2e37109009)" style="fill: #1f77b4"/>
   </g>
   <g id="patch_31">
    <path d="M 104.394091 84.76 
L 106.760227 84.76 
L 106.760227 76.266884 
L 104.394091 76.266884 
z
" clip-path="url(#p2e37109009)" style="fill: #1f77b4"/>
   </g>
   <g id="patch_32">
    <path d="M 106.760227 84.76 
L 109.126364 84.76 
L 109.126364 77.795645 
L 106.760227 77.795645 
z
" clip-path="url(#p2e37109009)" style="fill: #1f77b4"/>
   </g>
   <g id="patch_33">
    <path d="M 109.126364 84.76 
L 111.4925 84.76 
L 111.4925 80.34358 
L 109.126364 80.34358 
z
" clip-path="url(#p2e37109009)" style="fill: #1f77b4"/>
   </g>
   <g id="patch_34">
    <path d="M 111.4925 84.76 
L 113.858636 84.76 
L 113.858636 80.683304 
L 111.4925 80.683304 
z
" clip-path="url(#p2e37109009)" style="fill: #1f77b4"/>
   </g>
   <g id="patch_35">
    <path d="M 113.858636 84.76 
L 116.224773 84.76 
L 116.224773 82.721652 
L 113.858636 82.721652 
z
" clip-path="url(#p2e37109009)" style="fill: #1f77b4"/>
   </g>
   <g id="patch_36">
    <path d="M 116.224773 84.76 
L 118.590909 84.76 
L 118.590909 82.891514 
L 116.224773 82.891514 
z
" clip-path="url(#p2e37109009)" style="fill: #1f77b4"/>
   </g>
   <g id="patch_37">
    <path d="M 118.590909 84.76 
L 120.957045 84.76 
L 120.957045 84.590138 
L 118.590909 84.590138 
z
" clip-path="url(#p2e37109009)" style="fill: #1f77b4"/>
   </g>
   <g id="patch_38">
    <path d="M 120.957045 84.76 
L 123.323182 84.76 
L 123.323182 84.250413 
L 120.957045 84.250413 
z
" clip-path="url(#p2e37109009)" style="fill: #1f77b4"/>
   </g>
   <g id="patch_39">
    <path d="M 123.323182 84.76 
L 125.689318 84.76 
L 125.689318 84.590138 
L 123.323182 84.590138 
z
" clip-path="url(#p2e37109009)" style="fill: #1f77b4"/>
   </g>
   <g id="patch_40">
    <path d="M 125.689318 84.76 
L 128.055455 84.76 
L 128.055455 84.590138 
L 125.689318 84.590138 
z
" clip-path="url(#p2e37109009)" style="fill: #1f77b4"/>
   </g>
   <g id="patch_41">
    <path d="M 128.055455 84.76 
L 130.421591 84.76 
L 130.421591 84.76 
L 128.055455 84.76 
z
" clip-path="url(#p2e37109009)" style="fill: #1f77b4"/>
   </g>
   <g id="patch_42">
    <path d="M 130.421591 84.76 
L 132.787727 84.76 
L 132.787727 84.420275 
L 130.421591 84.420275 
z
" clip-path="url(#p2e37109009)" style="fill: #1f77b4"/>
   </g>
   <g id="matplotlib.axis_1">
    <g id="xtick_1">
     <g id="line2d_1">
      <defs>
       <path id="m8163cb109b" d="M 0 0 
L 0 3.5 
" style="stroke: #000000; stroke-width: 0.8"/>
      </defs>
      <g>
       <use xlink:href="#m8163cb109b" x="43.806807" y="84.76" style="stroke: #000000; stroke-width: 0.8"/>
      </g>
     </g>
     <g id="text_1">
      <text style="font-size: 6px; font-family: 'DejaVu Sans', 'Arial', 'Helvetica', 'Lucida Grande', 'Verdana', 'Geneva', 'Lucid', 'Avant Garde', sans-serif; text-anchor: middle" x="43.806807" y="96.319063" transform="rotate(-0 43.806807 96.319063)">12</text>
     </g>
    </g>
    <g id="xtick_2">
     <g id="line2d_2">
      <g>
       <use xlink:href="#m8163cb109b" x="76.081397" y="84.76" style="stroke: #000000; stroke-width: 0.8"/>
      </g>
     </g>
     <g id="text_2">
      <text style="font-size: 6px; font-family: 'DejaVu Sans', 'Arial', 'Helvetica', 'Lucida Grande', 'Verdana', 'Geneva', 'Lucid', 'Avant Garde', sans-serif; text-anchor: middle" x="76.081397" y="96.319063" transform="rotate(-0 76.081397 96.319063)">14</text>
     </g>
    </g>
    <g id="xtick_3">
     <g id="line2d_3">
      <g>
       <use xlink:href="#m8163cb109b" x="108.355986" y="84.76" style="stroke: #000000; stroke-width: 0.8"/>
      </g>
     </g>
     <g id="text_3">
      <text style="font-size: 6px; font-family: 'DejaVu Sans', 'Arial', 'Helvetica', 'Lucida Grande', 'Verdana', 'Geneva', 'Lucid', 'Avant Garde', sans-serif; text-anchor: middle" x="108.355986" y="96.319063" transform="rotate(-0 108.355986 96.319063)">16</text>
     </g>
    </g>
    <g id="text_4">
     <text style="font-size: 6px; font-family: 'DejaVu Sans', 'Arial', 'Helvetica', 'Lucida Grande', 'Verdana', 'Geneva', 'Lucid', 'Avant Garde', sans-serif; text-anchor: middle" x="85.465" y="106.125938" transform="rotate(-0 85.465 106.125938)">value</text>
    </g>
   </g>
   <g id="matplotlib.axis_2">
    <g id="ytick_1">
     <g id="line2d_4">
      <defs>
       <path id="mac773c5f51" d="M 0 0 
L -3.5 0 
" style="stroke: #000000; stroke-width: 0.8"/>
      </defs>
      <g>
       <use xlink:href="#mac773c5f51" x="33.41" y="84.76" style="stroke: #000000; stroke-width: 0.8"/>
      </g>
     </g>
     <g id="text_5">
      <text style="font-size: 6px; font-family: 'DejaVu Sans', 'Arial', 'Helvetica', 'Lucida Grande', 'Verdana', 'Geneva', 'Lucid', 'Avant Garde', sans-serif; text-anchor: end" x="26.41" y="87.039531" transform="rotate(-0 26.41 87.039531)">0.0</text>
     </g>
    </g>
    <g id="ytick_2">
     <g id="line2d_5">
      <g>
       <use xlink:href="#mac773c5f51" x="33.41" y="59.853879" style="stroke: #000000; stroke-width: 0.8"/>
      </g>
     </g>
     <g id="text_6">
      <text style="font-size: 6px; font-family: 'DejaVu Sans', 'Arial', 'Helvetica', 'Lucida Grande', 'Verdana', 'Geneva', 'Lucid', 'Avant Garde', sans-serif; text-anchor: end" x="26.41" y="62.13341" transform="rotate(-0 26.41 62.13341)">0.2</text>
     </g>
    </g>
    <g id="ytick_3">
     <g id="line2d_6">
      <g>
       <use xlink:href="#mac773c5f51" x="33.41" y="34.947758" style="stroke: #000000; stroke-width: 0.8"/>
      </g>
     </g>
     <g id="text_7">
      <text style="font-size: 6px; font-family: 'DejaVu Sans', 'Arial', 'Helvetica', 'Lucida Grande', 'Verdana', 'Geneva', 'Lucid', 'Avant Garde', sans-serif; text-anchor: end" x="26.41" y="37.227289" transform="rotate(-0 26.41 37.227289)">0.4</text>
     </g>
    </g>
    <g id="text_8">
     <text style="font-size: 6px; font-family: 'DejaVu Sans', 'Arial', 'Helvetica', 'Lucida Grande', 'Verdana', 'Geneva', 'Lucid', 'Avant Garde', sans-serif; text-anchor: middle" x="11.620313" y="51.14" transform="rotate(-90 11.620313 51.14)">density</text>
    </g>
   </g>
   <g id="line2d_7">
    <path d="M 79.480233 84.76 
L 79.480233 17.52 
" clip-path="url(#p2e37109009)" style="fill: none; stroke-dasharray: 3.7,1.6; stroke-dashoffset: 0; stroke: #1f77b4"/>
   </g>
   <g id="patch_43">
    <path d="M 33.41 84.76 
L 33.41 17.52 
" style="fill: none; stroke: #000000; stroke-width: 0.5; stroke-linejoin: miter; stroke-linecap: square"/>
   </g>
   <g id="patch_44">
    <path d="M 33.41 84.76 
L 137.52 84.76 
" style="fill: none; stroke: #000000; stroke-width: 0.5; stroke-linejoin: miter; stroke-linecap: square"/>
   </g>
   <g id="text_9">
    <text style="font-size: 6px; font-family: 'DejaVu Sans', 'Arial', 'Helvetica', 'Lucida Grande', 'Verdana', 'Geneva', 'Lucid', 'Avant Garde', sans-serif; text-anchor: middle" x="85.465" y="11.52" transform="rotate(-0 85.465 11.52)">K</text>
   </g>
  </g>
 </g>
 <defs>
  <clipPath id="p2e37109009">
   <rect x="33.41" y="17.52" width="104.11" height="67.24"/>
  </clipPath>
 </defs>
</svg>
