<?xml version="1.0" encoding="utf-8" standalone="no"?>
<!DOCTYPE svg PUBLIC "-//W3C//DTD SVG 1.1//EN"
  "http://www.w3.org/Graphics/SVG/1.1/DTD/svg11.dtd">
<svg xmlns:xlink="http://www.w3.org/1999/xlink" width="144pt" height="115.2pt" viewBox="0 0 144 115.2" xmlns="http://www.w3.org/2000/svg" version="1.1">
 <metadata>
  <rdf:RDF xmlns:dc="http://purl.org/dc/elements/1.1/" xmlns:cc="http://creativecommons.org/ns#" xmlns:rdf="http://www.w3.org/1999/02/22-rdf-syntax-ns#">
   <cc:Work>
    <dc:type rdf:resource="http://purl.org/dc/dcmitype/StillImage"/>
    <dc:date>2026-02-16T19:51:53.227677</dc:date>
    <dc:format>image/svg+xml</dc:format>
    <dc:creator>
     <cc:Agent>
      <dc:title>Matplotlib v3.10.8, https://matplotlib.org/</dc:title>
     </cc:Agent>
    </dc:creator>
   </cc:Work>
  </rdf:RDF>
 </metadata>
 <defs>
  <style type="text/css">*{stroke-linejoin: round; stroke-linecap: butt}</style>
 </defs>
 <g id="figure_1">
  <g id="patch_1">
   <path d="M 0 115.2 
L 144 115.2 
L 144 0 
L 0 0 
L 0 115.2 
z
" style="fill: none"/>
  </g>
  <g id="axes_1">
   <g id="patch_2">
    <path d="M 33.41 84.76 
L 137.52 84.76 
L 137.52 17.52 
L 33.41 17.52 
L 33.41 84.76 
z
" style="fill: none"/>
   </g>
   <g id="patch_3">
    <path d="M 38.142273 84.76 
L 40.508409 84.76 
L 40.508409 84.608251 
L 38.142273 84.608251 
z
" clip-path="url(#p30ffe10fd6)" style="fill: #1f77b4"/>
   </g>
   <g id="patch_4">
    <path d="M 40.508409 84.76 
L 42.874545 84.76 
L 42.874545 84.76 
L 40.508409 84.76 
z
" clip-path="url(#p30ffe10fd6)" style="fill: #1f77b4"/>
   </g>
   <g id="patch_5">
    <path d="M 42.874545 84.76 
L 45.240682 84.76 
L 45.240682 84.76 
L 42.874545 84.76 
z
" clip-path="url(#p30ffe10fd6)" style="fill: #1f77b4"/>
   </g>
   <g id="patch_6">
    <path d="M 45.240682 84.76 
L 47.606818 84.76 
L 47.606818 84.608251 
L 45.240682 84.608251 
z
" clip-path="url(#p30ffe10fd6)" style="fill: #1f77b4"/>
   </g>
   <g id="patch_7">
    <path d="M 47.606818 84.76 
L 49.972955 84.76 
L 49.972955 84.304753 
L 47.606818 84.304753 
z
" clip-path="url(#p30ffe10fd6)" style="fill: #1f77b4"/>
   </g>
   <g id="patch_8">
    <path d="M 49.972955 84.76 
L 52.339091 84.76 
L 52.339091 83.697757 
L 49.972955 83.697757 
z
" clip-path="url(#p30ffe10fd6)" style="fill: #1f77b4"/>
   </g>
   <g id="patch_9">
    <path d="M 52.339091 84.76 
L 54.705227 84.76 
L 54.705227 82.635513 
L 52.339091 82.635513 
z
" clip-path="url(#p30ffe10fd6)" style="fill: #1f77b4"/>
   </g>
   <g id="patch_10">
    <path d="M 54.705227 84.76 
L 57.071364 84.76 
L 57.071364 82.483764 
L 54.705227 82.483764 
z
" clip-path="url(#p30ffe10fd6)" style="fill: #1f77b4"/>
   </g>
   <g id="patch_11">
    <path d="M 57.071364 84.76 
L 59.4375 84.76 
L 59.4375 80.511027 
L 57.071364 80.511027 
z
" clip-path="url(#p30ffe10fd6)" style="fill: #1f77b4"/>
   </g>
   <g id="patch_12">
    <path d="M 59.4375 84.76 
L 61.803636 84.76 
L 61.803636 77.931293 
L 59.4375 77.931293 
z
" clip-path="url(#p30ffe10fd6)" style="fill: #1f77b4"/>
   </g>
   <g id="patch_13">
    <path d="M 61.803636 84.76 
L 64.169773 84.76 
L 64.169773 71.709582 
L 61.803636 71.709582 
z
" clip-path="url(#p30ffe10fd6)" style="fill: #1f77b4"/>
   </g>
   <g id="patch_14">
    <path d="M 64.169773 84.76 
L 66.535909 84.76 
L 66.535909 66.398366 
L 64.169773 66.398366 
z
" clip-path="url(#p30ffe10fd6)" style="fill: #1f77b4"/>
   </g>
   <g id="patch_15">
    <path d="M 66.535909 84.76 
L 68.902045 84.76 
L 68.902045 58.203918 
L 66.535909 58.203918 
z
" clip-path="url(#p30ffe10fd6)" style="fill: #1f77b4"/>
   </g>
   <g id="patch_16">
    <path d="M 68.902045 84.76 
L 71.268182 84.76 
L 71.268182 53.499698 
L 68.902045 53.499698 
z
" clip-path="url(#p30ffe10fd6)" style="fill: #1f77b4"/>
   </g>
   <g id="patch_17">
    <path d="M 71.268182 84.76 
L 73.634318 84.76 
L 73.634318 44.698253 
L 71.268182 44.698253 
z
" clip-path="url(#p30ffe10fd6)" style="fill: #1f77b4"/>
   </g>
   <g id="patch_18">
    <path d="M 73.634318 84.76 
L 76.000455 84.76 
L 76.000455 35.74506 
L 73.634318 35.74506 
z
" clip-path="url(#p30ffe10fd6)" style="fill: #1f77b4"/>
   </g>
   <g id="patch_19">
    <path d="M 76.000455 84.76 
L 78.366591 84.76 
L 78.366591 30.585592 
L 76.000455 30.585592 
z
" clip-path="url(#p30ffe10fd6)" style="fill: #1f77b4"/>
   </g>
   <g id="patch_20">
    <path d="M 78.366591 84.76 
L 80.732727 84.76 
L 80.732727 25.426125 
L 78.366591 25.426125 
z
" clip-path="url(#p30ffe10fd6)" style="fill: #1f77b4"/>
   </g>
   <g id="patch_21">
    <path d="M 80.732727 84.76 
L 83.098864 84.76 
L 83.098864 20.721905 
L 80.732727 20.721905 
z
" clip-path="url(#p30ffe10fd6)" style="fill: #1f77b4"/>
   </g>
   <g id="patch_22">
    <path d="M 83.098864 84.76 
L 85.465 84.76 
L 85.465 25.122627 
L 83.098864 25.122627 
z
" clip-path="url(#p30ffe10fd6)" style="fill: #1f77b4"/>
   </g>
   <g id="patch_23">
    <path d="M 85.465 84.76 
L 87.831136 84.76 
L 87.831136 29.068102 
L 85.465 29.068102 
z
" clip-path="url(#p30ffe10fd6)" style="fill: #1f77b4"/>
   </g>
   <g id="patch_24">
    <path d="M 87.831136 84.76 
L 90.197273 84.76 
L 90.197273 35.289813 
L 87.831136 35.289813 
z
" clip-path="url(#p30ffe10fd6)" style="fill: #1f77b4"/>
   </g>
   <g id="patch_25">
    <path d="M 90.197273 84.76 
L 92.563409 84.76 
L 92.563409 36.655554 
L 90.197273 36.655554 
z
" clip-path="url(#p30ffe10fd6)" style="fill: #1f77b4"/>
   </g>
   <g id="patch_26">
    <path d="M 92.563409 84.76 
L 94.929545 84.76 
L 94.929545 45.608747 
L 92.563409 45.608747 
z
" clip-path="url(#p30ffe10fd6)" style="fill: #1f77b4"/>
   </g>
   <g id="patch_27">
    <path d="M 94.929545 84.76 
L 97.295682 84.76 
L 97.295682 51.375211 
L 94.929545 51.375211 
z
" clip-path="url(#p30ffe10fd6)" style="fill: #1f77b4"/>
   </g>
   <g id="patch_28">
    <path d="M 97.295682 84.76 
L 99.661818 84.76 
L 99.661818 58.507416 
L 97.295682 58.507416 
z
" clip-path="url(#p30ffe10fd6)" style="fill: #1f77b4"/>
   </g>
   <g id="patch_29">
    <path d="M 99.661818 84.76 
L 102.027955 84.76 
L 102.027955 65.336123 
L 99.661818 65.336123 
z
" clip-path="url(#p30ffe10fd6)" style="fill: #1f77b4"/>
   </g>
   <g id="patch_30">
    <path d="M 102.027955 84.76 
L 104.394091 84.76 
L 104.394091 67.460609 
L 102.027955 67.460609 
z
" clip-path="url(#p30ffe10fd6)" style="fill: #1f77b4"/>
   </g>
   <g id="patch_31">
    <path d="M 104.394091 84.76 
L 106.760227 84.76 
L 106.760227 73.075324 
L 104.394091 73.075324 
z
" clip-path="url(#p30ffe10fd6)" style="fill: #1f77b4"/>
   </g>
   <g id="patch_32">
    <path d="M 106.760227 84.76 
L 109.126364 84.76 
L 109.126364 76.413803 
L 106.760227 76.413803 
z
" clip-path="url(#p30ffe10fd6)" style="fill: #1f77b4"/>
   </g>
   <g id="patch_33">
    <path d="M 109.126364 84.76 
L 111.4925 84.76 
L 111.4925 79.145285 
L 109.126364 79.145285 
z
" clip-path="url(#p30ffe10fd6)" style="fill: #1f77b4"/>
   </g>
   <g id="patch_34">
    <path d="M 111.4925 84.76 
L 113.858636 84.76 
L 113.858636 81.421521 
L 111.4925 81.421521 
z
" clip-path="url(#p30ffe10fd6)" style="fill: #1f77b4"/>
   </g>
   <g id="patch_35">
    <path d="M 113.858636 84.76 
L 116.224773 84.76 
L 116.224773 82.483764 
L 113.858636 82.483764 
z
" clip-path="url(#p30ffe10fd6)" style="fill: #1f77b4"/>
   </g>
   <g id="patch_36">
    <path d="M 116.224773 84.76 
L 118.590909 84.76 
L 118.590909 83.090761 
L 116.224773 83.090761 
z
" clip-path="url(#p30ffe10fd6)" style="fill: #1f77b4"/>
   </g>
   <g id="patch_37">
    <path d="M 118.590909 84.76 
L 120.957045 84.76 
L 120.957045 82.483764 
L 118.590909 82.483764 
z
" clip-path="url(#p30ffe10fd6)" style="fill: #1f77b4"/>
   </g>
   <g id="patch_38">
    <path d="M 120.957045 84.76 
L 123.323182 84.76 
L 123.323182 84.001255 
L 120.957045 84.001255 
z
" clip-path="url(#p30ffe10fd6)" style="fill: #1f77b4"/>
   </g>
   <g id="patch_39">
    <path d="M 123.323182 84.76 
L 125.689318 84.76 
L 125.689318 84.153004 
L 123.323182 84.153004 
z
" clip-path="url(#p30ffe10fd6)" style="fill: #1f77b4"/>
   </g>
   <g id="patch_40">
    <path d="M 125.689318 84.76 
L 128.055455 84.76 
L 128.055455 84.304753 
L 125.689318 84.304753 
z
" clip-path="url(#p30ffe10fd6)" style="fill: #1f77b4"/>
   </g>
   <g id="patch_41">
    <path d="M 128.055455 84.76 
L 130.421591 84.76 
L 130.421591 84.76 
L 128.055455 84.76 
z
" clip-path="url(#p30ffe10fd6)" style="fill: #1f77b4"/>
   </g>
   <g id="patch_42">
    <path d="M 130.421591 84.76 
L 132.787727 84.76 
L 132.787727 84.608251 
L 130.421591 84.608251 
z
" clip-path="url(#p30ffe10fd6)" style="fill: #1f77b4"/>
   </g>
   <g id="matplotlib.axis_1">
    <g id="xtick_1">
     <g id="line2d_1">
      <defs>
       <path id="m1199668d77" d="M 0 0 
L 0 3.5 
" style="stroke: #000000; stroke-width: 0.8"/>
      </defs>
      <g>
       <use xlink:href="#m1199668d77" x="65.175297" y="84.76" style="stroke: #000000; stroke-width: 0.8"/>
      </g>
     </g>
     <g id="text_1">
      <text style="font-size: 6px; font-family: 'DejaVu Sans', 'Arial', 'Helvetica', 'Lucida Grande', 'Verdana', 'Geneva', 'Lucid', 'Avant Garde', sans-serif; text-anchor: middle" x="65.175297" y="96.319063" transform="rotate(-0 65.175297 96.319063)">4</text>
     </g>
    </g>
    <g id="xtick_2">
     <g id="line2d_2">
      <g>
       <use xlink:href="#m1199668d77" x="98.878953" y="84.76" style="stroke: #000000; stroke-width: 0.8"/>
      </g>
     </g>
     <g id="text_2">
      <text style="font-size: 6px; font-family: 'DejaVu Sans', 'Arial', 'Helvetica', 'Lucida Grande', 'Verdana', 'Geneva', 'Lucid', 'Avant Garde', sans-serif; text-anchor: middle" x="98.878953" y="96.319063" transform="rotate(-0 98.878953 96.319063)">5</text>
     </g>
    </g>
    <g id="xtick_3">
     <g id="line2d_3">
      <g>
       <use xlink:href="#m1199668d77" x="132.58261" y="84.76" style="stroke: #000000; stroke-width: 0.8"/>
      </g>
     </g>
     <g id="text_3">
      <text style="font-size: 6px; font-family: 'DejaVu Sans', 'Arial', 'Helvetica', 'Lucida Grande', 'Verdana', 'Geneva', 'Lucid', 'Avant Garde', sans-serif; text-anchor: middle" x="132.58261" y="96.319063" transform="rotate(-0 132.58261 96.319063)">6</text>
     </g>
    </g>
    <g id="text_4">
     <text style="font-size: 6px; font-family: 'DejaVu Sans', 'Arial', 'Helvetica', 'Lucida Grande', 'Verdana', 'Geneva', 'Lucid', 'Avant Garde', sans-serif; text-anchor: middle" x="85.465" y="106.125938" transform="rotate(-0 85.465 106.125938)">value</text>
    </g>
   </g>
   <g id="matplotlib.axis_2">
    <g id="ytick_1">
     <g id="line2d_4">
      <defs>
       <path id="mb39fff3c3f" d="M 0 0 
L -3.5 0 
" style="stroke: #000000; stroke-width: 0.8"/>
      </defs>
      <g>
       <use xlink:href="#mb39fff3c3f" x="33.41" y="84.76" style="stroke: #000000; stroke-width: 0.8"/>
      </g>
     </g>
     <g id="text_5">
      <text style="font-size: 6px; font-family: 'DejaVu Sans', 'Arial', 'Helvetica', 'Lucida Grande', 'Verdana', 'Geneva', 'Lucid', 'Avant Garde', sans-serif; text-anchor: end" x="26.41" y="87.039531" transform="rotate(-0 26.41 87.039531)">0.0</text>
     </g>
    </g>
    <g id="ytick_2">
     <g id="line2d_5">
      <g>
       <use xlink:href="#mb39fff3c3f" x="33.41" y="58.126471" style="stroke: #000000; stroke-width: 0.8"/>
      </g>
     </g>
     <g id="text_6">
      <text style="font-size: 6px; font-family: 'DejaVu Sans', 'Arial', 'Helvetica', 'Lucida Grande', 'Verdana', 'Geneva', 'Lucid', 'Avant Garde', sans-serif; text-anchor: end" x="26.41" y="60.406002" transform="rotate(-0 26.41 60.406002)">0.5</text>
     </g>
    </g>
    <g id="ytick_3">
     <g id="line2d_6">
      <g>
       <use xlink:href="#mb39fff3c3f" x="33.41" y="31.492942" style="stroke: #000000; stroke-width: 0.8"/>
      </g>
     </g>
     <g id="text_7">
      <text style="font-size: 6px; font-family: 'DejaVu Sans', 'Arial', 'Helvetica', 'Lucida Grande', 'Verdana', 'Geneva', 'Lucid', 'Avant Garde', sans-serif; text-anchor: end" x="26.41" y="33.772473" transform="rotate(-0 26.41 33.772473)">1.0</text>
     </g>
    </g>
    <g id="text_8">
     <text style="font-size: 6px; font-family: 'DejaVu Sans', 'Arial', 'Helvetica', 'Lucida Grande', 'Verdana', 'Geneva', 'Lucid', 'Avant Garde', sans-serif; text-anchor: middle" x="11.620313" y="51.14" transform="rotate(-90 11.620313 51.14)">density</text>
    </g>
   </g>
   <g id="line2d_7">
    <path d="M 83.152976 84.76 
L 83.152976 17.52 
" clip-path="url(#p30ffe10fd6)" style="fill: none; stroke-dasharray: 3.7,1.6; stroke-dashoffset: 0; stroke: #1f77b4"/>
   </g>
   <g id="patch_43">
    <path d="M 33.41 84.76 
L 33.41 17.52 
" style="fill: none; stroke: #000000; stroke-width: 0.5; stroke-linejoin: miter; stroke-linecap: square"/>
   </g>
   <g id="patch_44">
    <path d="M 33.41 84.76 
L 137.52 84.76 
" style="fill: none; stroke: #000000; stroke-width: 0.5; stroke-linejoin: miter; stroke-linecap: square"/>
   </g>
   <g id="text_9">
    <text style="font-size: 6px; font-family: 'DejaVu Sans', 'Arial', 'Helvetica', 'Lucida Grande', 'Verdana', 'Geneva', 'Lucid', 'Avant Garde', sans-serif; text-anchor: middle" x="85.465" y="11.52" transform="rotate(-0 85.465 11.52)">kS_kT_ratio</text>
   </g>
  </g>
 </g>
 <defs>
  <clipPath id="p30ffe10fd6">
   <rect x="33.41" y="17.52" width="104.11" height="67.24"/>
  </clipPath>
 </defs>
</svg>
