<?xml version="1.0" encoding="utf-8" standalone="no"?>
<!DOCTYPE svg PUBLIC "-//W3C//DTD SVG 1.1//EN"
  "http://www.w3.org/Graphics/SVG/1.1/DTD/svg11.dtd">
<svg xmlns:xlink="http://www.w3.org/1999/xlink" width="144pt" height="115.2pt" viewBox="0 0 144 115.2" xmlns="http://www.w3.org/2000/svg" version="1.1">
 <metadata>
  <rdf:RDF xmlns:dc="http://purl.org/dc/elements/1.1/" xmlns:cc="http://creativecommons.org/ns#" xmlns:rdf="http://www.w3.org/1999/02/22-rdf-syntax-ns#">
   <cc:Work>
    <dc:type rdf:resource="http://purl.org/dc/dcmitype/StillImage"/>
    <dc:date>2026-02-16T13:07:35.882325</dc:date>
    <dc:format>image/svg+xml</dc:format>
    <dc:creator>
     <cc:Agent>
      <dc:title>Matplotlib v3.10.8, https://matplotlib.org/</dc:title>
     </cc:Agent>
    </dc:creator>
   </cc:Work>
  </rdf:RDF>
 </metadata>
 <defs>
  <style type="text/css">*{stroke-linejoin: round; stroke-linecap: butt}</style>
 </defs>
 <g id="figure_1">
  <g id="patch_1">
   <path d="M 0 115.2 
L 144 115.2 
L 144 0 
L 0 0 
L 0 115.2 
z
" style="fill: none"/>
  </g>
  <g id="axes_1">
   <g id="patch_2">
    <path d="M 37.19 84.76 
L 137.52 84.76 
L 137.52 17.52 
L 37.19 17.52 
L 37.19 84.76 
z
" style="fill: none"/>
   </g>
   <g id="patch_3">
    <path d="M 41.750455 84.76 
L 44.030682 84.76 
L 44.030682 81.170844 
L 41.750455 81.170844 
z
" clip-path="url(#pb85525fa0b)" style="fill: #1f77b4"/>
   </g>
   <g id="patch_4">
    <path d="M 44.030682 84.76 
L 46.310909 84.76 
L 46.310909 66.530867 
L 44.030682 66.530867 
z
" clip-path="url(#pb85525fa0b)" style="fill: #1f77b4"/>
   </g>
   <g id="patch_5">
    <path d="M 46.310909 84.76 
L 48.591136 84.76 
L 48.591136 42.067937 
L 46.310909 42.067937 
z
" clip-path="url(#pb85525fa0b)" style="fill: #1f77b4"/>
   </g>
   <g id="patch_6">
    <path d="M 48.591136 84.76 
L 50.871364 84.76 
L 50.871364 26.20009 
L 48.591136 26.20009 
z
" clip-path="url(#pb85525fa0b)" style="fill: #1f77b4"/>
   </g>
   <g id="patch_7">
    <path d="M 50.871364 84.76 
L 53.151591 84.76 
L 53.151591 20.721905 
L 50.871364 20.721905 
z
" clip-path="url(#pb85525fa0b)" style="fill: #1f77b4"/>
   </g>
   <g id="patch_8">
    <path d="M 53.151591 84.76 
L 55.431818 84.76 
L 55.431818 27.711313 
L 53.151591 27.711313 
z
" clip-path="url(#pb85525fa0b)" style="fill: #1f77b4"/>
   </g>
   <g id="patch_9">
    <path d="M 55.431818 84.76 
L 57.712045 84.76 
L 57.712045 38.951038 
L 55.431818 38.951038 
z
" clip-path="url(#pb85525fa0b)" style="fill: #1f77b4"/>
   </g>
   <g id="patch_10">
    <path d="M 57.712045 84.76 
L 59.992273 84.76 
L 59.992273 44.995932 
L 57.712045 44.995932 
z
" clip-path="url(#pb85525fa0b)" style="fill: #1f77b4"/>
   </g>
   <g id="patch_11">
    <path d="M 59.992273 84.76 
L 62.2725 84.76 
L 62.2725 51.890889 
L 59.992273 51.890889 
z
" clip-path="url(#pb85525fa0b)" style="fill: #1f77b4"/>
   </g>
   <g id="patch_12">
    <path d="M 62.2725 84.76 
L 64.552727 84.76 
L 64.552727 57.841332 
L 62.2725 57.841332 
z
" clip-path="url(#pb85525fa0b)" style="fill: #1f77b4"/>
   </g>
   <g id="patch_13">
    <path d="M 64.552727 84.76 
L 66.832955 84.76 
L 66.832955 66.908673 
L 64.552727 66.908673 
z
" clip-path="url(#pb85525fa0b)" style="fill: #1f77b4"/>
   </g>
   <g id="patch_14">
    <path d="M 66.832955 84.76 
L 69.113182 84.76 
L 69.113182 71.536794 
L 66.832955 71.536794 
z
" clip-path="url(#pb85525fa0b)" style="fill: #1f77b4"/>
   </g>
   <g id="patch_15">
    <path d="M 69.113182 84.76 
L 71.393409 84.76 
L 71.393409 72.386858 
L 69.113182 72.386858 
z
" clip-path="url(#pb85525fa0b)" style="fill: #1f77b4"/>
   </g>
   <g id="patch_16">
    <path d="M 71.393409 84.76 
L 73.673636 84.76 
L 73.673636 75.12595 
L 71.393409 75.12595 
z
" clip-path="url(#pb85525fa0b)" style="fill: #1f77b4"/>
   </g>
   <g id="patch_17">
    <path d="M 73.673636 84.76 
L 75.953864 84.76 
L 75.953864 77.67614 
L 73.673636 77.67614 
z
" clip-path="url(#pb85525fa0b)" style="fill: #1f77b4"/>
   </g>
   <g id="patch_18">
    <path d="M 75.953864 84.76 
L 78.234091 84.76 
L 78.234091 79.470718 
L 75.953864 79.470718 
z
" clip-path="url(#pb85525fa0b)" style="fill: #1f77b4"/>
   </g>
   <g id="patch_19">
    <path d="M 78.234091 84.76 
L 80.514318 84.76 
L 80.514318 80.22633 
L 78.234091 80.22633 
z
" clip-path="url(#pb85525fa0b)" style="fill: #1f77b4"/>
   </g>
   <g id="patch_20">
    <path d="M 80.514318 84.76 
L 82.794545 84.76 
L 82.794545 81.737553 
L 80.514318 81.737553 
z
" clip-path="url(#pb85525fa0b)" style="fill: #1f77b4"/>
   </g>
   <g id="patch_21">
    <path d="M 82.794545 84.76 
L 85.074773 84.76 
L 85.074773 82.115359 
L 82.794545 82.115359 
z
" clip-path="url(#pb85525fa0b)" style="fill: #1f77b4"/>
   </g>
   <g id="patch_22">
    <path d="M 85.074773 84.76 
L 87.355 84.76 
L 87.355 83.343228 
L 85.074773 83.343228 
z
" clip-path="url(#pb85525fa0b)" style="fill: #1f77b4"/>
   </g>
   <g id="patch_23">
    <path d="M 87.355 84.76 
L 89.635227 84.76 
L 89.635227 83.721034 
L 87.355 83.721034 
z
" clip-path="url(#pb85525fa0b)" style="fill: #1f77b4"/>
   </g>
   <g id="patch_24">
    <path d="M 89.635227 84.76 
L 91.915455 84.76 
L 91.915455 83.437679 
L 89.635227 83.437679 
z
" clip-path="url(#pb85525fa0b)" style="fill: #1f77b4"/>
   </g>
   <g id="patch_25">
    <path d="M 91.915455 84.76 
L 94.195682 84.76 
L 94.195682 84.09884 
L 91.915455 84.09884 
z
" clip-path="url(#pb85525fa0b)" style="fill: #1f77b4"/>
   </g>
   <g id="patch_26">
    <path d="M 94.195682 84.76 
L 96.475909 84.76 
L 96.475909 83.721034 
L 94.195682 83.721034 
z
" clip-path="url(#pb85525fa0b)" style="fill: #1f77b4"/>
   </g>
   <g id="patch_27">
    <path d="M 96.475909 84.76 
L 98.756136 84.76 
L 98.756136 84.571097 
L 96.475909 84.571097 
z
" clip-path="url(#pb85525fa0b)" style="fill: #1f77b4"/>
   </g>
   <g id="patch_28">
    <path d="M 98.756136 84.76 
L 101.036364 84.76 
L 101.036364 84.665549 
L 98.756136 84.665549 
z
" clip-path="url(#pb85525fa0b)" style="fill: #1f77b4"/>
   </g>
   <g id="patch_29">
    <path d="M 101.036364 84.76 
L 103.316591 84.76 
L 103.316591 84.476646 
L 101.036364 84.476646 
z
" clip-path="url(#pb85525fa0b)" style="fill: #1f77b4"/>
   </g>
   <g id="patch_30">
    <path d="M 103.316591 84.76 
L 105.596818 84.76 
L 105.596818 84.476646 
L 103.316591 84.476646 
z
" clip-path="url(#pb85525fa0b)" style="fill: #1f77b4"/>
   </g>
   <g id="patch_31">
    <path d="M 105.596818 84.76 
L 107.877045 84.76 
L 107.877045 84.76 
L 105.596818 84.76 
z
" clip-path="url(#pb85525fa0b)" style="fill: #1f77b4"/>
   </g>
   <g id="patch_32">
    <path d="M 107.877045 84.76 
L 110.157273 84.76 
L 110.157273 84.76 
L 107.877045 84.76 
z
" clip-path="url(#pb85525fa0b)" style="fill: #1f77b4"/>
   </g>
   <g id="patch_33">
    <path d="M 110.157273 84.76 
L 112.4375 84.76 
L 112.4375 84.76 
L 110.157273 84.76 
z
" clip-path="url(#pb85525fa0b)" style="fill: #1f77b4"/>
   </g>
   <g id="patch_34">
    <path d="M 112.4375 84.76 
L 114.717727 84.76 
L 114.717727 84.571097 
L 112.4375 84.571097 
z
" clip-path="url(#pb85525fa0b)" style="fill: #1f77b4"/>
   </g>
   <g id="patch_35">
    <path d="M 114.717727 84.76 
L 116.997955 84.76 
L 116.997955 84.76 
L 114.717727 84.76 
z
" clip-path="url(#pb85525fa0b)" style="fill: #1f77b4"/>
   </g>
   <g id="patch_36">
    <path d="M 116.997955 84.76 
L 119.278182 84.76 
L 119.278182 84.76 
L 116.997955 84.76 
z
" clip-path="url(#pb85525fa0b)" style="fill: #1f77b4"/>
   </g>
   <g id="patch_37">
    <path d="M 119.278182 84.76 
L 121.558409 84.76 
L 121.558409 84.76 
L 119.278182 84.76 
z
" clip-path="url(#pb85525fa0b)" style="fill: #1f77b4"/>
   </g>
   <g id="patch_38">
    <path d="M 121.558409 84.76 
L 123.838636 84.76 
L 123.838636 84.665549 
L 121.558409 84.665549 
z
" clip-path="url(#pb85525fa0b)" style="fill: #1f77b4"/>
   </g>
   <g id="patch_39">
    <path d="M 123.838636 84.76 
L 126.118864 84.76 
L 126.118864 84.665549 
L 123.838636 84.665549 
z
" clip-path="url(#pb85525fa0b)" style="fill: #1f77b4"/>
   </g>
   <g id="patch_40">
    <path d="M 126.118864 84.76 
L 128.399091 84.76 
L 128.399091 84.665549 
L 126.118864 84.665549 
z
" clip-path="url(#pb85525fa0b)" style="fill: #1f77b4"/>
   </g>
   <g id="patch_41">
    <path d="M 128.399091 84.76 
L 130.679318 84.76 
L 130.679318 84.665549 
L 128.399091 84.665549 
z
" clip-path="url(#pb85525fa0b)" style="fill: #1f77b4"/>
   </g>
   <g id="patch_42">
    <path d="M 130.679318 84.76 
L 132.959545 84.76 
L 132.959545 84.571097 
L 130.679318 84.571097 
z
" clip-path="url(#pb85525fa0b)" style="fill: #1f77b4"/>
   </g>
   <g id="matplotlib.axis_1">
    <g id="xtick_1">
     <g id="line2d_1">
      <defs>
       <path id="m0770154b38" d="M 0 0 
L 0 3.5 
" style="stroke: #000000; stroke-width: 0.8"/>
      </defs>
      <g>
       <use xlink:href="#m0770154b38" x="39.644188" y="84.76" style="stroke: #000000; stroke-width: 0.8"/>
      </g>
     </g>
     <g id="text_1">
      <text style="font-size: 6px; font-family: 'DejaVu Sans', 'Arial', 'Helvetica', 'Lucida Grande', 'Verdana', 'Geneva', 'Lucid', 'Avant Garde', sans-serif; text-anchor: middle" x="39.644188" y="96.319063" transform="rotate(-0 39.644188 96.319063)">0</text>
     </g>
    </g>
    <g id="xtick_2">
     <g id="line2d_2">
      <g>
       <use xlink:href="#m0770154b38" x="70.473233" y="84.76" style="stroke: #000000; stroke-width: 0.8"/>
      </g>
     </g>
     <g id="text_2">
      <text style="font-size: 6px; font-family: 'DejaVu Sans', 'Arial', 'Helvetica', 'Lucida Grande', 'Verdana', 'Geneva', 'Lucid', 'Avant Garde', sans-serif; text-anchor: middle" x="70.473233" y="96.319063" transform="rotate(-0 70.473233 96.319063)">20</text>
     </g>
    </g>
    <g id="xtick_3">
     <g id="line2d_3">
      <g>
       <use xlink:href="#m0770154b38" x="101.302278" y="84.76" style="stroke: #000000; stroke-width: 0.8"/>
      </g>
     </g>
     <g id="text_3">
      <text style="font-size: 6px; font-family: 'DejaVu Sans', 'Arial', 'Helvetica', 'Lucida Grande', 'Verdana', 'Geneva', 'Lucid', 'Avant Garde', sans-serif; text-anchor: middle" x="101.302278" y="96.319063" transform="rotate(-0 101.302278 96.319063)">40</text>
     </g>
    </g>
    <g id="xtick_4">
     <g id="line2d_4">
      <g>
       <use xlink:href="#m0770154b38" x="132.131323" y="84.76" style="stroke: #000000; stroke-width: 0.8"/>
      </g>
     </g>
     <g id="text_4">
      <text style="font-size: 6px; font-family: 'DejaVu Sans', 'Arial', 'Helvetica', 'Lucida Grande', 'Verdana', 'Geneva', 'Lucid', 'Avant Garde', sans-serif; text-anchor: middle" x="132.131323" y="96.319063" transform="rotate(-0 132.131323 96.319063)">60</text>
     </g>
    </g>
    <g id="text_5">
     <text style="font-size: 6px; font-family: 'DejaVu Sans', 'Arial', 'Helvetica', 'Lucida Grande', 'Verdana', 'Geneva', 'Lucid', 'Avant Garde', sans-serif; text-anchor: middle" x="87.355" y="106.125938" transform="rotate(-0 87.355 106.125938)">value</text>
    </g>
   </g>
   <g id="matplotlib.axis_2">
    <g id="ytick_1">
     <g id="line2d_5">
      <defs>
       <path id="mebe6f5deef" d="M 0 0 
L -3.5 0 
" style="stroke: #000000; stroke-width: 0.8"/>
      </defs>
      <g>
       <use xlink:href="#mebe6f5deef" x="37.19" y="84.76" style="stroke: #000000; stroke-width: 0.8"/>
      </g>
     </g>
     <g id="text_6">
      <text style="font-size: 6px; font-family: 'DejaVu Sans', 'Arial', 'Helvetica', 'Lucida Grande', 'Verdana', 'Geneva', 'Lucid', 'Avant Garde', sans-serif; text-anchor: end" x="30.19" y="87.039531" transform="rotate(-0 30.19 87.039531)">0.00</text>
     </g>
    </g>
    <g id="ytick_2">
     <g id="line2d_6">
      <g>
       <use xlink:href="#mebe6f5deef" x="37.19" y="70.788058" style="stroke: #000000; stroke-width: 0.8"/>
      </g>
     </g>
     <g id="text_7">
      <text style="font-size: 6px; font-family: 'DejaVu Sans', 'Arial', 'Helvetica', 'Lucida Grande', 'Verdana', 'Geneva', 'Lucid', 'Avant Garde', sans-serif; text-anchor: end" x="30.19" y="73.067589" transform="rotate(-0 30.19 73.067589)">0.02</text>
     </g>
    </g>
    <g id="ytick_3">
     <g id="line2d_7">
      <g>
       <use xlink:href="#mebe6f5deef" x="37.19" y="56.816116" style="stroke: #000000; stroke-width: 0.8"/>
      </g>
     </g>
     <g id="text_8">
      <text style="font-size: 6px; font-family: 'DejaVu Sans', 'Arial', 'Helvetica', 'Lucida Grande', 'Verdana', 'Geneva', 'Lucid', 'Avant Garde', sans-serif; text-anchor: end" x="30.19" y="59.095647" transform="rotate(-0 30.19 59.095647)">0.04</text>
     </g>
    </g>
    <g id="ytick_4">
     <g id="line2d_8">
      <g>
       <use xlink:href="#mebe6f5deef" x="37.19" y="42.844174" style="stroke: #000000; stroke-width: 0.8"/>
      </g>
     </g>
     <g id="text_9">
      <text style="font-size: 6px; font-family: 'DejaVu Sans', 'Arial', 'Helvetica', 'Lucida Grande', 'Verdana', 'Geneva', 'Lucid', 'Avant Garde', sans-serif; text-anchor: end" x="30.19" y="45.123706" transform="rotate(-0 30.19 45.123706)">0.06</text>
     </g>
    </g>
    <g id="ytick_5">
     <g id="line2d_9">
      <g>
       <use xlink:href="#mebe6f5deef" x="37.19" y="28.872232" style="stroke: #000000; stroke-width: 0.8"/>
      </g>
     </g>
     <g id="text_10">
      <text style="font-size: 6px; font-family: 'DejaVu Sans', 'Arial', 'Helvetica', 'Lucida Grande', 'Verdana', 'Geneva', 'Lucid', 'Avant Garde', sans-serif; text-anchor: end" x="30.19" y="31.151764" transform="rotate(-0 30.19 31.151764)">0.08</text>
     </g>
    </g>
    <g id="text_11">
     <text style="font-size: 6px; font-family: 'DejaVu Sans', 'Arial', 'Helvetica', 'Lucida Grande', 'Verdana', 'Geneva', 'Lucid', 'Avant Garde', sans-serif; text-anchor: middle" x="11.582813" y="51.14" transform="rotate(-90 11.582813 51.14)">density</text>
    </g>
   </g>
   <g id="line2d_10">
    <path d="M 55.195594 84.76 
L 55.195594 17.52 
" clip-path="url(#pb85525fa0b)" style="fill: none; stroke-dasharray: 3.7,1.6; stroke-dashoffset: 0; stroke: #1f77b4"/>
   </g>
   <g id="patch_43">
    <path d="M 37.19 84.76 
L 37.19 17.52 
" style="fill: none; stroke: #000000; stroke-width: 0.5; stroke-linejoin: miter; stroke-linecap: square"/>
   </g>
   <g id="patch_44">
    <path d="M 37.19 84.76 
L 137.52 84.76 
" style="fill: none; stroke: #000000; stroke-width: 0.5; stroke-linejoin: miter; stroke-linecap: square"/>
   </g>
   <g id="text_12">
    <text style="font-size: 6px; font-family: 'DejaVu Sans', 'Arial', 'Helvetica', 'Lucida Grande', 'Verdana', 'Geneva', 'Lucid', 'Avant Garde', sans-serif; text-anchor: middle" x="87.355" y="11.52" transform="rotate(-0 87.355 11.52)">a50</text>
   </g>
  </g>
 </g>
 <defs>
  <clipPath id="pb85525fa0b">
   <rect x="37.19" y="17.52" width="100.33" height="67.24"/>
  </clipPath>
 </defs>
</svg>
