<?xml version="1.0" encoding="utf-8" standalone="no"?>
<!DOCTYPE svg PUBLIC "-//W3C//DTD SVG 1.1//EN"
  "http://www.w3.org/Graphics/SVG/1.1/DTD/svg11.dtd">
<svg xmlns:xlink="http://www.w3.org/1999/xlink" width="144pt" height="115.2pt" viewBox="0 0 144 115.2" xmlns="http://www.w3.org/2000/svg" version="1.1">
 <metadata>
  <rdf:RDF xmlns:dc="http://purl.org/dc/elements/1.1/" xmlns:cc="http://creativecommons.org/ns#" xmlns:rdf="http://www.w3.org/1999/02/22-rdf-syntax-ns#">
   <cc:Work>
    <dc:type rdf:resource="http://purl.org/dc/dcmitype/StillImage"/>
    <dc:date>2026-02-16T18:34:55.336381</dc:date>
    <dc:format>image/svg+xml</dc:format>
    <dc:creator>
     <cc:Agent>
      <dc:title>Matplotlib v3.10.8, https://matplotlib.org/</dc:title>
     </cc:Agent>
    </dc:creator>
   </cc:Work>
  </rdf:RDF>
 </metadata>
 <defs>
  <style type="text/css">*{stroke-linejoin: round; stroke-linecap: butt}</style>
 </defs>
 <g id="figure_1">
  <g id="patch_1">
   <path d="M 0 115.2 
L 144 115.2 
L 144 0 
L 0 0 
L 0 115.2 
z
" style="fill: none"/>
  </g>
  <g id="axes_1">
   <g id="patch_2">
    <path d="M 40.97 84.76 
L 131.650486 84.76 
L 131.650486 17.52 
L 40.97 17.52 
L 40.97 84.76 
z
" style="fill: none"/>
   </g>
   <g id="patch_3">
    <path d="M 45.09184 84.76 
L 47.15276 84.76 
L 47.15276 20.721905 
L 45.09184 20.721905 
z
" clip-path="url(#p8980c89b04)" style="fill: #1f77b4"/>
   </g>
   <g id="patch_4">
    <path d="M 47.15276 84.76 
L 49.213681 84.76 
L 49.213681 78.29662 
L 47.15276 78.29662 
z
" clip-path="url(#p8980c89b04)" style="fill: #1f77b4"/>
   </g>
   <g id="patch_5">
    <path d="M 49.213681 84.76 
L 51.274601 84.76 
L 51.274601 82.91332 
L 49.213681 82.91332 
z
" clip-path="url(#p8980c89b04)" style="fill: #1f77b4"/>
   </g>
   <g id="patch_6">
    <path d="M 51.274601 84.76 
L 53.335521 84.76 
L 53.335521 83.881338 
L 51.274601 83.881338 
z
" clip-path="url(#p8980c89b04)" style="fill: #1f77b4"/>
   </g>
   <g id="patch_7">
    <path d="M 53.335521 84.76 
L 55.396441 84.76 
L 55.396441 84.313223 
L 53.335521 84.313223 
z
" clip-path="url(#p8980c89b04)" style="fill: #1f77b4"/>
   </g>
   <g id="patch_8">
    <path d="M 55.396441 84.76 
L 57.457361 84.76 
L 57.457361 84.521719 
L 55.396441 84.521719 
z
" clip-path="url(#p8980c89b04)" style="fill: #1f77b4"/>
   </g>
   <g id="patch_9">
    <path d="M 57.457361 84.76 
L 59.518281 84.76 
L 59.518281 84.685537 
L 57.457361 84.685537 
z
" clip-path="url(#p8980c89b04)" style="fill: #1f77b4"/>
   </g>
   <g id="patch_10">
    <path d="M 59.518281 84.76 
L 61.579201 84.76 
L 61.579201 84.640859 
L 59.518281 84.640859 
z
" clip-path="url(#p8980c89b04)" style="fill: #1f77b4"/>
   </g>
   <g id="patch_11">
    <path d="M 61.579201 84.76 
L 63.640121 84.76 
L 63.640121 84.685537 
L 61.579201 84.685537 
z
" clip-path="url(#p8980c89b04)" style="fill: #1f77b4"/>
   </g>
   <g id="patch_12">
    <path d="M 63.640121 84.76 
L 65.701042 84.76 
L 65.701042 84.715322 
L 63.640121 84.715322 
z
" clip-path="url(#p8980c89b04)" style="fill: #1f77b4"/>
   </g>
   <g id="patch_13">
    <path d="M 65.701042 84.76 
L 67.761962 84.76 
L 67.761962 84.685537 
L 65.701042 84.685537 
z
" clip-path="url(#p8980c89b04)" style="fill: #1f77b4"/>
   </g>
   <g id="patch_14">
    <path d="M 67.761962 84.76 
L 69.822882 84.76 
L 69.822882 84.730215 
L 67.761962 84.730215 
z
" clip-path="url(#p8980c89b04)" style="fill: #1f77b4"/>
   </g>
   <g id="patch_15">
    <path d="M 69.822882 84.76 
L 71.883802 84.76 
L 71.883802 84.730215 
L 69.822882 84.730215 
z
" clip-path="url(#p8980c89b04)" style="fill: #1f77b4"/>
   </g>
   <g id="patch_16">
    <path d="M 71.883802 84.76 
L 73.944722 84.76 
L 73.944722 84.745107 
L 71.883802 84.745107 
z
" clip-path="url(#p8980c89b04)" style="fill: #1f77b4"/>
   </g>
   <g id="patch_17">
    <path d="M 73.944722 84.76 
L 76.005642 84.76 
L 76.005642 84.76 
L 73.944722 84.76 
z
" clip-path="url(#p8980c89b04)" style="fill: #1f77b4"/>
   </g>
   <g id="patch_18">
    <path d="M 76.005642 84.76 
L 78.066562 84.76 
L 78.066562 84.76 
L 76.005642 84.76 
z
" clip-path="url(#p8980c89b04)" style="fill: #1f77b4"/>
   </g>
   <g id="patch_19">
    <path d="M 78.066562 84.76 
L 80.127483 84.76 
L 80.127483 84.76 
L 78.066562 84.76 
z
" clip-path="url(#p8980c89b04)" style="fill: #1f77b4"/>
   </g>
   <g id="patch_20">
    <path d="M 80.127483 84.76 
L 82.188403 84.76 
L 82.188403 84.76 
L 80.127483 84.76 
z
" clip-path="url(#p8980c89b04)" style="fill: #1f77b4"/>
   </g>
   <g id="patch_21">
    <path d="M 82.188403 84.76 
L 84.249323 84.76 
L 84.249323 84.76 
L 82.188403 84.76 
z
" clip-path="url(#p8980c89b04)" style="fill: #1f77b4"/>
   </g>
   <g id="patch_22">
    <path d="M 84.249323 84.76 
L 86.310243 84.76 
L 86.310243 84.76 
L 84.249323 84.76 
z
" clip-path="url(#p8980c89b04)" style="fill: #1f77b4"/>
   </g>
   <g id="patch_23">
    <path d="M 86.310243 84.76 
L 88.371163 84.76 
L 88.371163 84.730215 
L 86.310243 84.730215 
z
" clip-path="url(#p8980c89b04)" style="fill: #1f77b4"/>
   </g>
   <g id="patch_24">
    <path d="M 88.371163 84.76 
L 90.432083 84.76 
L 90.432083 84.745107 
L 88.371163 84.745107 
z
" clip-path="url(#p8980c89b04)" style="fill: #1f77b4"/>
   </g>
   <g id="patch_25">
    <path d="M 90.432083 84.76 
L 92.493003 84.76 
L 92.493003 84.76 
L 90.432083 84.76 
z
" clip-path="url(#p8980c89b04)" style="fill: #1f77b4"/>
   </g>
   <g id="patch_26">
    <path d="M 92.493003 84.76 
L 94.553923 84.76 
L 94.553923 84.76 
L 92.493003 84.76 
z
" clip-path="url(#p8980c89b04)" style="fill: #1f77b4"/>
   </g>
   <g id="patch_27">
    <path d="M 94.553923 84.76 
L 96.614844 84.76 
L 96.614844 84.745107 
L 94.553923 84.745107 
z
" clip-path="url(#p8980c89b04)" style="fill: #1f77b4"/>
   </g>
   <g id="patch_28">
    <path d="M 96.614844 84.76 
L 98.675764 84.76 
L 98.675764 84.76 
L 96.614844 84.76 
z
" clip-path="url(#p8980c89b04)" style="fill: #1f77b4"/>
   </g>
   <g id="patch_29">
    <path d="M 98.675764 84.76 
L 100.736684 84.76 
L 100.736684 84.76 
L 98.675764 84.76 
z
" clip-path="url(#p8980c89b04)" style="fill: #1f77b4"/>
   </g>
   <g id="patch_30">
    <path d="M 100.736684 84.76 
L 102.797604 84.76 
L 102.797604 84.76 
L 100.736684 84.76 
z
" clip-path="url(#p8980c89b04)" style="fill: #1f77b4"/>
   </g>
   <g id="patch_31">
    <path d="M 102.797604 84.76 
L 104.858524 84.76 
L 104.858524 84.76 
L 102.797604 84.76 
z
" clip-path="url(#p8980c89b04)" style="fill: #1f77b4"/>
   </g>
   <g id="patch_32">
    <path d="M 104.858524 84.76 
L 106.919444 84.76 
L 106.919444 84.745107 
L 104.858524 84.745107 
z
" clip-path="url(#p8980c89b04)" style="fill: #1f77b4"/>
   </g>
   <g id="patch_33">
    <path d="M 106.919444 84.76 
L 108.980364 84.76 
L 108.980364 84.76 
L 106.919444 84.76 
z
" clip-path="url(#p8980c89b04)" style="fill: #1f77b4"/>
   </g>
   <g id="patch_34">
    <path d="M 108.980364 84.76 
L 111.041284 84.76 
L 111.041284 84.76 
L 108.980364 84.76 
z
" clip-path="url(#p8980c89b04)" style="fill: #1f77b4"/>
   </g>
   <g id="patch_35">
    <path d="M 111.041284 84.76 
L 113.102205 84.76 
L 113.102205 84.76 
L 111.041284 84.76 
z
" clip-path="url(#p8980c89b04)" style="fill: #1f77b4"/>
   </g>
   <g id="patch_36">
    <path d="M 113.102205 84.76 
L 115.163125 84.76 
L 115.163125 84.76 
L 113.102205 84.76 
z
" clip-path="url(#p8980c89b04)" style="fill: #1f77b4"/>
   </g>
   <g id="patch_37">
    <path d="M 115.163125 84.76 
L 117.224045 84.76 
L 117.224045 84.76 
L 115.163125 84.76 
z
" clip-path="url(#p8980c89b04)" style="fill: #1f77b4"/>
   </g>
   <g id="patch_38">
    <path d="M 117.224045 84.76 
L 119.284965 84.76 
L 119.284965 84.76 
L 117.224045 84.76 
z
" clip-path="url(#p8980c89b04)" style="fill: #1f77b4"/>
   </g>
   <g id="patch_39">
    <path d="M 119.284965 84.76 
L 121.345885 84.76 
L 121.345885 84.76 
L 119.284965 84.76 
z
" clip-path="url(#p8980c89b04)" style="fill: #1f77b4"/>
   </g>
   <g id="patch_40">
    <path d="M 121.345885 84.76 
L 123.406805 84.76 
L 123.406805 84.76 
L 121.345885 84.76 
z
" clip-path="url(#p8980c89b04)" style="fill: #1f77b4"/>
   </g>
   <g id="patch_41">
    <path d="M 123.406805 84.76 
L 125.467725 84.76 
L 125.467725 84.76 
L 123.406805 84.76 
z
" clip-path="url(#p8980c89b04)" style="fill: #1f77b4"/>
   </g>
   <g id="patch_42">
    <path d="M 125.467725 84.76 
L 127.528646 84.76 
L 127.528646 84.745107 
L 125.467725 84.745107 
z
" clip-path="url(#p8980c89b04)" style="fill: #1f77b4"/>
   </g>
   <g id="matplotlib.axis_1">
    <g id="xtick_1">
     <g id="line2d_1">
      <defs>
       <path id="mcc629d9df6" d="M 0 0 
L 0 3.5 
" style="stroke: #000000; stroke-width: 0.8"/>
      </defs>
      <g>
       <use xlink:href="#mcc629d9df6" x="45.090587" y="84.76" style="stroke: #000000; stroke-width: 0.8"/>
      </g>
     </g>
     <g id="text_1">
      <text style="font-size: 6px; font-family: 'DejaVu Sans', 'Arial', 'Helvetica', 'Lucida Grande', 'Verdana', 'Geneva', 'Lucid', 'Avant Garde', sans-serif; text-anchor: middle" x="45.090587" y="96.319063" transform="rotate(-0 45.090587 96.319063)">0</text>
     </g>
    </g>
    <g id="xtick_2">
     <g id="line2d_2">
      <g>
       <use xlink:href="#mcc629d9df6" x="66.003232" y="84.76" style="stroke: #000000; stroke-width: 0.8"/>
      </g>
     </g>
     <g id="text_2">
      <text style="font-size: 6px; font-family: 'DejaVu Sans', 'Arial', 'Helvetica', 'Lucida Grande', 'Verdana', 'Geneva', 'Lucid', 'Avant Garde', sans-serif; text-anchor: middle" x="66.003232" y="96.319063" transform="rotate(-0 66.003232 96.319063)">2500</text>
     </g>
    </g>
    <g id="xtick_3">
     <g id="line2d_3">
      <g>
       <use xlink:href="#mcc629d9df6" x="86.915876" y="84.76" style="stroke: #000000; stroke-width: 0.8"/>
      </g>
     </g>
     <g id="text_3">
      <text style="font-size: 6px; font-family: 'DejaVu Sans', 'Arial', 'Helvetica', 'Lucida Grande', 'Verdana', 'Geneva', 'Lucid', 'Avant Garde', sans-serif; text-anchor: middle" x="86.915876" y="96.319063" transform="rotate(-0 86.915876 96.319063)">5000</text>
     </g>
    </g>
    <g id="xtick_4">
     <g id="line2d_4">
      <g>
       <use xlink:href="#mcc629d9df6" x="107.828521" y="84.76" style="stroke: #000000; stroke-width: 0.8"/>
      </g>
     </g>
     <g id="text_4">
      <text style="font-size: 6px; font-family: 'DejaVu Sans', 'Arial', 'Helvetica', 'Lucida Grande', 'Verdana', 'Geneva', 'Lucid', 'Avant Garde', sans-serif; text-anchor: middle" x="107.828521" y="96.319063" transform="rotate(-0 107.828521 96.319063)">7500</text>
     </g>
    </g>
    <g id="xtick_5">
     <g id="line2d_5">
      <g>
       <use xlink:href="#mcc629d9df6" x="128.741165" y="84.76" style="stroke: #000000; stroke-width: 0.8"/>
      </g>
     </g>
     <g id="text_5">
      <text style="font-size: 6px; font-family: 'DejaVu Sans', 'Arial', 'Helvetica', 'Lucida Grande', 'Verdana', 'Geneva', 'Lucid', 'Avant Garde', sans-serif; text-anchor: middle" x="128.741165" y="96.319063" transform="rotate(-0 128.741165 96.319063)">10000</text>
     </g>
    </g>
    <g id="text_6">
     <text style="font-size: 6px; font-family: 'DejaVu Sans', 'Arial', 'Helvetica', 'Lucida Grande', 'Verdana', 'Geneva', 'Lucid', 'Avant Garde', sans-serif; text-anchor: middle" x="86.310243" y="106.125938" transform="rotate(-0 86.310243 106.125938)">value</text>
    </g>
   </g>
   <g id="matplotlib.axis_2">
    <g id="ytick_1">
     <g id="line2d_6">
      <defs>
       <path id="mbeefc6ff5d" d="M 0 0 
L -3.5 0 
" style="stroke: #000000; stroke-width: 0.8"/>
      </defs>
      <g>
       <use xlink:href="#mbeefc6ff5d" x="40.97" y="84.76" style="stroke: #000000; stroke-width: 0.8"/>
      </g>
     </g>
     <g id="text_7">
      <text style="font-size: 6px; font-family: 'DejaVu Sans', 'Arial', 'Helvetica', 'Lucida Grande', 'Verdana', 'Geneva', 'Lucid', 'Avant Garde', sans-serif; text-anchor: end" x="33.97" y="87.039531" transform="rotate(-0 33.97 87.039531)">0.000</text>
     </g>
    </g>
    <g id="ytick_2">
     <g id="line2d_7">
      <g>
       <use xlink:href="#mbeefc6ff5d" x="40.97" y="66.414389" style="stroke: #000000; stroke-width: 0.8"/>
      </g>
     </g>
     <g id="text_8">
      <text style="font-size: 6px; font-family: 'DejaVu Sans', 'Arial', 'Helvetica', 'Lucida Grande', 'Verdana', 'Geneva', 'Lucid', 'Avant Garde', sans-serif; text-anchor: end" x="33.97" y="68.693921" transform="rotate(-0 33.97 68.693921)">0.001</text>
     </g>
    </g>
    <g id="ytick_3">
     <g id="line2d_8">
      <g>
       <use xlink:href="#mbeefc6ff5d" x="40.97" y="48.068779" style="stroke: #000000; stroke-width: 0.8"/>
      </g>
     </g>
     <g id="text_9">
      <text style="font-size: 6px; font-family: 'DejaVu Sans', 'Arial', 'Helvetica', 'Lucida Grande', 'Verdana', 'Geneva', 'Lucid', 'Avant Garde', sans-serif; text-anchor: end" x="33.97" y="50.34831" transform="rotate(-0 33.97 50.34831)">0.002</text>
     </g>
    </g>
    <g id="ytick_4">
     <g id="line2d_9">
      <g>
       <use xlink:href="#mbeefc6ff5d" x="40.97" y="29.723168" style="stroke: #000000; stroke-width: 0.8"/>
      </g>
     </g>
     <g id="text_10">
      <text style="font-size: 6px; font-family: 'DejaVu Sans', 'Arial', 'Helvetica', 'Lucida Grande', 'Verdana', 'Geneva', 'Lucid', 'Avant Garde', sans-serif; text-anchor: end" x="33.97" y="32.002699" transform="rotate(-0 33.97 32.002699)">0.003</text>
     </g>
    </g>
    <g id="text_11">
     <text style="font-size: 6px; font-family: 'DejaVu Sans', 'Arial', 'Helvetica', 'Lucida Grande', 'Verdana', 'Geneva', 'Lucid', 'Avant Garde', sans-serif; text-anchor: middle" x="11.545312" y="51.14" transform="rotate(-90 11.545312 51.14)">density</text>
    </g>
   </g>
   <g id="line2d_10">
    <path d="M 45.542203 84.76 
L 45.542203 17.52 
" clip-path="url(#p8980c89b04)" style="fill: none; stroke-dasharray: 3.7,1.6; stroke-dashoffset: 0; stroke: #1f77b4"/>
   </g>
   <g id="patch_43">
    <path d="M 40.97 84.76 
L 40.97 17.52 
" style="fill: none; stroke: #000000; stroke-width: 0.5; stroke-linejoin: miter; stroke-linecap: square"/>
   </g>
   <g id="patch_44">
    <path d="M 40.97 84.76 
L 131.650486 84.76 
" style="fill: none; stroke: #000000; stroke-width: 0.5; stroke-linejoin: miter; stroke-linecap: square"/>
   </g>
   <g id="text_12">
    <text style="font-size: 6px; font-family: 'DejaVu Sans', 'Arial', 'Helvetica', 'Lucida Grande', 'Verdana', 'Geneva', 'Lucid', 'Avant Garde', sans-serif; text-anchor: middle" x="86.310243" y="11.52" transform="rotate(-0 86.310243 11.52)">a50</text>
   </g>
  </g>
 </g>
 <defs>
  <clipPath id="p8980c89b04">
   <rect x="40.97" y="17.52" width="90.680486" height="67.24"/>
  </clipPath>
 </defs>
</svg>
