<?xml version="1.0" encoding="utf-8" standalone="no"?>
<!DOCTYPE svg PUBLIC "-//W3C//DTD SVG 1.1//EN"
  "http://www.w3.org/Graphics/SVG/1.1/DTD/svg11.dtd">
<svg xmlns:xlink="http://www.w3.org/1999/xlink" width="144pt" height="115.2pt" viewBox="0 0 144 115.2" xmlns="http://www.w3.org/2000/svg" version="1.1">
 <metadata>
  <rdf:RDF xmlns:dc="http://purl.org/dc/elements/1.1/" xmlns:cc="http://creativecommons.org/ns#" xmlns:rdf="http://www.w3.org/1999/02/22-rdf-syntax-ns#">
   <cc:Work>
    <dc:type rdf:resource="http://purl.org/dc/dcmitype/StillImage"/>
    <dc:date>2026-02-16T19:51:53.169920</dc:date>
    <dc:format>image/svg+xml</dc:format>
    <dc:creator>
     <cc:Agent>
      <dc:title>Matplotlib v3.10.8, https://matplotlib.org/</dc:title>
     </cc:Agent>
    </dc:creator>
   </cc:Work>
  </rdf:RDF>
 </metadata>
 <defs>
  <style type="text/css">*{stroke-linejoin: round; stroke-linecap: butt}</style>
 </defs>
 <g id="figure_1">
  <g id="patch_1">
   <path d="M 0 115.2 
L 144 115.2 
L 144 0 
L 0 0 
L 0 115.2 
z
" style="fill: none"/>
  </g>
  <g id="axes_1">
   <g id="patch_2">
    <path d="M 37.19 84.76 
L 136.545851 84.76 
L 136.545851 17.52 
L 37.19 17.52 
L 37.19 84.76 
z
" style="fill: none"/>
   </g>
   <g id="patch_3">
    <path d="M 41.706175 84.76 
L 43.964263 84.76 
L 43.964263 83.880356 
L 41.706175 83.880356 
z
" clip-path="url(#pc4722601ee)" style="fill: #1f77b4"/>
   </g>
   <g id="patch_4">
    <path d="M 43.964263 84.76 
L 46.22235 84.76 
L 46.22235 83.176641 
L 43.964263 83.176641 
z
" clip-path="url(#pc4722601ee)" style="fill: #1f77b4"/>
   </g>
   <g id="patch_5">
    <path d="M 46.22235 84.76 
L 48.480438 84.76 
L 48.480438 81.76921 
L 46.22235 81.76921 
z
" clip-path="url(#pc4722601ee)" style="fill: #1f77b4"/>
   </g>
   <g id="patch_6">
    <path d="M 48.480438 84.76 
L 50.738525 84.76 
L 50.738525 78.250633 
L 48.480438 78.250633 
z
" clip-path="url(#pc4722601ee)" style="fill: #1f77b4"/>
   </g>
   <g id="patch_7">
    <path d="M 50.738525 84.76 
L 52.996613 84.76 
L 52.996613 74.20427 
L 50.738525 74.20427 
z
" clip-path="url(#pc4722601ee)" style="fill: #1f77b4"/>
   </g>
   <g id="patch_8">
    <path d="M 52.996613 84.76 
L 55.2547 84.76 
L 55.2547 65.583757 
L 52.996613 65.583757 
z
" clip-path="url(#pc4722601ee)" style="fill: #1f77b4"/>
   </g>
   <g id="patch_9">
    <path d="M 55.2547 84.76 
L 57.512788 84.76 
L 57.512788 58.370675 
L 55.2547 58.370675 
z
" clip-path="url(#pc4722601ee)" style="fill: #1f77b4"/>
   </g>
   <g id="patch_10">
    <path d="M 57.512788 84.76 
L 59.770875 84.76 
L 59.770875 45.351941 
L 57.512788 45.351941 
z
" clip-path="url(#pc4722601ee)" style="fill: #1f77b4"/>
   </g>
   <g id="patch_11">
    <path d="M 59.770875 84.76 
L 62.028963 84.76 
L 62.028963 37.96293 
L 59.770875 37.96293 
z
" clip-path="url(#pc4722601ee)" style="fill: #1f77b4"/>
   </g>
   <g id="patch_12">
    <path d="M 62.028963 84.76 
L 64.28705 84.76 
L 64.28705 30.573919 
L 62.028963 30.573919 
z
" clip-path="url(#pc4722601ee)" style="fill: #1f77b4"/>
   </g>
   <g id="patch_13">
    <path d="M 64.28705 84.76 
L 66.545138 84.76 
L 66.545138 23.888624 
L 64.28705 23.888624 
z
" clip-path="url(#pc4722601ee)" style="fill: #1f77b4"/>
   </g>
   <g id="patch_14">
    <path d="M 66.545138 84.76 
L 68.803225 84.76 
L 68.803225 23.00898 
L 66.545138 23.00898 
z
" clip-path="url(#pc4722601ee)" style="fill: #1f77b4"/>
   </g>
   <g id="patch_15">
    <path d="M 68.803225 84.76 
L 71.061313 84.76 
L 71.061313 20.721905 
L 68.803225 20.721905 
z
" clip-path="url(#pc4722601ee)" style="fill: #1f77b4"/>
   </g>
   <g id="patch_16">
    <path d="M 71.061313 84.76 
L 73.3194 84.76 
L 73.3194 22.305264 
L 71.061313 22.305264 
z
" clip-path="url(#pc4722601ee)" style="fill: #1f77b4"/>
   </g>
   <g id="patch_17">
    <path d="M 73.3194 84.76 
L 75.577488 84.76 
L 75.577488 22.305264 
L 73.3194 22.305264 
z
" clip-path="url(#pc4722601ee)" style="fill: #1f77b4"/>
   </g>
   <g id="patch_18">
    <path d="M 75.577488 84.76 
L 77.835575 84.76 
L 77.835575 28.99056 
L 75.577488 28.99056 
z
" clip-path="url(#pc4722601ee)" style="fill: #1f77b4"/>
   </g>
   <g id="patch_19">
    <path d="M 77.835575 84.76 
L 80.093663 84.76 
L 80.093663 33.56471 
L 77.835575 33.56471 
z
" clip-path="url(#pc4722601ee)" style="fill: #1f77b4"/>
   </g>
   <g id="patch_20">
    <path d="M 80.093663 84.76 
L 82.35175 84.76 
L 82.35175 37.435144 
L 80.093663 37.435144 
z
" clip-path="url(#pc4722601ee)" style="fill: #1f77b4"/>
   </g>
   <g id="patch_21">
    <path d="M 82.35175 84.76 
L 84.609838 84.76 
L 84.609838 39.54629 
L 82.35175 39.54629 
z
" clip-path="url(#pc4722601ee)" style="fill: #1f77b4"/>
   </g>
   <g id="patch_22">
    <path d="M 84.609838 84.76 
L 86.867925 84.76 
L 86.867925 51.509451 
L 84.609838 51.509451 
z
" clip-path="url(#pc4722601ee)" style="fill: #1f77b4"/>
   </g>
   <g id="patch_23">
    <path d="M 86.867925 84.76 
L 89.126013 84.76 
L 89.126013 58.898462 
L 86.867925 58.898462 
z
" clip-path="url(#pc4722601ee)" style="fill: #1f77b4"/>
   </g>
   <g id="patch_24">
    <path d="M 89.126013 84.76 
L 91.3841 84.76 
L 91.3841 60.481821 
L 89.126013 60.481821 
z
" clip-path="url(#pc4722601ee)" style="fill: #1f77b4"/>
   </g>
   <g id="patch_25">
    <path d="M 91.3841 84.76 
L 93.642188 84.76 
L 93.642188 69.102334 
L 91.3841 69.102334 
z
" clip-path="url(#pc4722601ee)" style="fill: #1f77b4"/>
   </g>
   <g id="patch_26">
    <path d="M 93.642188 84.76 
L 95.900275 84.76 
L 95.900275 69.102334 
L 93.642188 69.102334 
z
" clip-path="url(#pc4722601ee)" style="fill: #1f77b4"/>
   </g>
   <g id="patch_27">
    <path d="M 95.900275 84.76 
L 98.158363 84.76 
L 98.158363 74.556128 
L 95.900275 74.556128 
z
" clip-path="url(#pc4722601ee)" style="fill: #1f77b4"/>
   </g>
   <g id="patch_28">
    <path d="M 98.158363 84.76 
L 100.416451 84.76 
L 100.416451 75.611701 
L 98.158363 75.611701 
z
" clip-path="url(#pc4722601ee)" style="fill: #1f77b4"/>
   </g>
   <g id="patch_29">
    <path d="M 100.416451 84.76 
L 102.674538 84.76 
L 102.674538 79.658064 
L 100.416451 79.658064 
z
" clip-path="url(#pc4722601ee)" style="fill: #1f77b4"/>
   </g>
   <g id="patch_30">
    <path d="M 102.674538 84.76 
L 104.932626 84.76 
L 104.932626 79.130277 
L 102.674538 79.130277 
z
" clip-path="url(#pc4722601ee)" style="fill: #1f77b4"/>
   </g>
   <g id="patch_31">
    <path d="M 104.932626 84.76 
L 107.190713 84.76 
L 107.190713 81.593281 
L 104.932626 81.593281 
z
" clip-path="url(#pc4722601ee)" style="fill: #1f77b4"/>
   </g>
   <g id="patch_32">
    <path d="M 107.190713 84.76 
L 109.448801 84.76 
L 109.448801 81.945139 
L 107.190713 81.945139 
z
" clip-path="url(#pc4722601ee)" style="fill: #1f77b4"/>
   </g>
   <g id="patch_33">
    <path d="M 109.448801 84.76 
L 111.706888 84.76 
L 111.706888 83.352569 
L 109.448801 83.352569 
z
" clip-path="url(#pc4722601ee)" style="fill: #1f77b4"/>
   </g>
   <g id="patch_34">
    <path d="M 111.706888 84.76 
L 113.964976 84.76 
L 113.964976 83.704427 
L 111.706888 83.704427 
z
" clip-path="url(#pc4722601ee)" style="fill: #1f77b4"/>
   </g>
   <g id="patch_35">
    <path d="M 113.964976 84.76 
L 116.223063 84.76 
L 116.223063 82.296996 
L 113.964976 82.296996 
z
" clip-path="url(#pc4722601ee)" style="fill: #1f77b4"/>
   </g>
   <g id="patch_36">
    <path d="M 116.223063 84.76 
L 118.481151 84.76 
L 118.481151 83.528498 
L 116.223063 83.528498 
z
" clip-path="url(#pc4722601ee)" style="fill: #1f77b4"/>
   </g>
   <g id="patch_37">
    <path d="M 118.481151 84.76 
L 120.739238 84.76 
L 120.739238 84.408142 
L 118.481151 84.408142 
z
" clip-path="url(#pc4722601ee)" style="fill: #1f77b4"/>
   </g>
   <g id="patch_38">
    <path d="M 120.739238 84.76 
L 122.997326 84.76 
L 122.997326 84.056285 
L 120.739238 84.056285 
z
" clip-path="url(#pc4722601ee)" style="fill: #1f77b4"/>
   </g>
   <g id="patch_39">
    <path d="M 122.997326 84.76 
L 125.255413 84.76 
L 125.255413 83.880356 
L 122.997326 83.880356 
z
" clip-path="url(#pc4722601ee)" style="fill: #1f77b4"/>
   </g>
   <g id="patch_40">
    <path d="M 125.255413 84.76 
L 127.513501 84.76 
L 127.513501 84.232214 
L 125.255413 84.232214 
z
" clip-path="url(#pc4722601ee)" style="fill: #1f77b4"/>
   </g>
   <g id="patch_41">
    <path d="M 127.513501 84.76 
L 129.771588 84.76 
L 129.771588 84.584071 
L 127.513501 84.584071 
z
" clip-path="url(#pc4722601ee)" style="fill: #1f77b4"/>
   </g>
   <g id="patch_42">
    <path d="M 129.771588 84.76 
L 132.029676 84.76 
L 132.029676 84.232214 
L 129.771588 84.232214 
z
" clip-path="url(#pc4722601ee)" style="fill: #1f77b4"/>
   </g>
   <g id="matplotlib.axis_1">
    <g id="xtick_1">
     <g id="line2d_1">
      <defs>
       <path id="m01f2139358" d="M 0 0 
L 0 3.5 
" style="stroke: #000000; stroke-width: 0.8"/>
      </defs>
      <g>
       <use xlink:href="#m01f2139358" x="59.767843" y="84.76" style="stroke: #000000; stroke-width: 0.8"/>
      </g>
     </g>
     <g id="text_1">
      <text style="font-size: 6px; font-family: 'DejaVu Sans', 'Arial', 'Helvetica', 'Lucida Grande', 'Verdana', 'Geneva', 'Lucid', 'Avant Garde', sans-serif; text-anchor: middle" x="59.767843" y="96.319063" transform="rotate(-0 59.767843 96.319063)">0.10</text>
     </g>
    </g>
    <g id="xtick_2">
     <g id="line2d_2">
      <g>
       <use xlink:href="#m01f2139358" x="83.686523" y="84.76" style="stroke: #000000; stroke-width: 0.8"/>
      </g>
     </g>
     <g id="text_2">
      <text style="font-size: 6px; font-family: 'DejaVu Sans', 'Arial', 'Helvetica', 'Lucida Grande', 'Verdana', 'Geneva', 'Lucid', 'Avant Garde', sans-serif; text-anchor: middle" x="83.686523" y="96.319063" transform="rotate(-0 83.686523 96.319063)">0.15</text>
     </g>
    </g>
    <g id="xtick_3">
     <g id="line2d_3">
      <g>
       <use xlink:href="#m01f2139358" x="107.605203" y="84.76" style="stroke: #000000; stroke-width: 0.8"/>
      </g>
     </g>
     <g id="text_3">
      <text style="font-size: 6px; font-family: 'DejaVu Sans', 'Arial', 'Helvetica', 'Lucida Grande', 'Verdana', 'Geneva', 'Lucid', 'Avant Garde', sans-serif; text-anchor: middle" x="107.605203" y="96.319063" transform="rotate(-0 107.605203 96.319063)">0.20</text>
     </g>
    </g>
    <g id="xtick_4">
     <g id="line2d_4">
      <g>
       <use xlink:href="#m01f2139358" x="131.523884" y="84.76" style="stroke: #000000; stroke-width: 0.8"/>
      </g>
     </g>
     <g id="text_4">
      <text style="font-size: 6px; font-family: 'DejaVu Sans', 'Arial', 'Helvetica', 'Lucida Grande', 'Verdana', 'Geneva', 'Lucid', 'Avant Garde', sans-serif; text-anchor: middle" x="131.523884" y="96.319063" transform="rotate(-0 131.523884 96.319063)">0.25</text>
     </g>
    </g>
    <g id="text_5">
     <text style="font-size: 6px; font-family: 'DejaVu Sans', 'Arial', 'Helvetica', 'Lucida Grande', 'Verdana', 'Geneva', 'Lucid', 'Avant Garde', sans-serif; text-anchor: middle" x="86.867925" y="106.125938" transform="rotate(-0 86.867925 106.125938)">value</text>
    </g>
   </g>
   <g id="matplotlib.axis_2">
    <g id="ytick_1">
     <g id="line2d_5">
      <defs>
       <path id="m25087efa76" d="M 0 0 
L -3.5 0 
" style="stroke: #000000; stroke-width: 0.8"/>
      </defs>
      <g>
       <use xlink:href="#m25087efa76" x="37.19" y="84.76" style="stroke: #000000; stroke-width: 0.8"/>
      </g>
     </g>
     <g id="text_6">
      <text style="font-size: 6px; font-family: 'DejaVu Sans', 'Arial', 'Helvetica', 'Lucida Grande', 'Verdana', 'Geneva', 'Lucid', 'Avant Garde', sans-serif; text-anchor: end" x="30.19" y="87.039531" transform="rotate(-0 30.19 87.039531)">0</text>
     </g>
    </g>
    <g id="ytick_2">
     <g id="line2d_6">
      <g>
       <use xlink:href="#m25087efa76" x="37.19" y="63.998889" style="stroke: #000000; stroke-width: 0.8"/>
      </g>
     </g>
     <g id="text_7">
      <text style="font-size: 6px; font-family: 'DejaVu Sans', 'Arial', 'Helvetica', 'Lucida Grande', 'Verdana', 'Geneva', 'Lucid', 'Avant Garde', sans-serif; text-anchor: end" x="30.19" y="66.27842" transform="rotate(-0 30.19 66.27842)">5</text>
     </g>
    </g>
    <g id="ytick_3">
     <g id="line2d_7">
      <g>
       <use xlink:href="#m25087efa76" x="37.19" y="43.237778" style="stroke: #000000; stroke-width: 0.8"/>
      </g>
     </g>
     <g id="text_8">
      <text style="font-size: 6px; font-family: 'DejaVu Sans', 'Arial', 'Helvetica', 'Lucida Grande', 'Verdana', 'Geneva', 'Lucid', 'Avant Garde', sans-serif; text-anchor: end" x="30.19" y="45.517309" transform="rotate(-0 30.19 45.517309)">10</text>
     </g>
    </g>
    <g id="ytick_4">
     <g id="line2d_8">
      <g>
       <use xlink:href="#m25087efa76" x="37.19" y="22.476667" style="stroke: #000000; stroke-width: 0.8"/>
      </g>
     </g>
     <g id="text_9">
      <text style="font-size: 6px; font-family: 'DejaVu Sans', 'Arial', 'Helvetica', 'Lucida Grande', 'Verdana', 'Geneva', 'Lucid', 'Avant Garde', sans-serif; text-anchor: end" x="30.19" y="24.756198" transform="rotate(-0 30.19 24.756198)">15</text>
     </g>
    </g>
    <g id="text_10">
     <text style="font-size: 6px; font-family: 'DejaVu Sans', 'Arial', 'Helvetica', 'Lucida Grande', 'Verdana', 'Geneva', 'Lucid', 'Avant Garde', sans-serif; text-anchor: middle" x="17.307188" y="51.14" transform="rotate(-90 17.307188 51.14)">density</text>
    </g>
   </g>
   <g id="line2d_9">
    <path d="M 72.701205 84.76 
L 72.701205 17.52 
" clip-path="url(#pc4722601ee)" style="fill: none; stroke-dasharray: 3.7,1.6; stroke-dashoffset: 0; stroke: #1f77b4"/>
   </g>
   <g id="patch_43">
    <path d="M 37.19 84.76 
L 37.19 17.52 
" style="fill: none; stroke: #000000; stroke-width: 0.5; stroke-linejoin: miter; stroke-linecap: square"/>
   </g>
   <g id="patch_44">
    <path d="M 37.19 84.76 
L 136.545851 84.76 
" style="fill: none; stroke: #000000; stroke-width: 0.5; stroke-linejoin: miter; stroke-linecap: square"/>
   </g>
   <g id="text_11">
    <text style="font-size: 6px; font-family: 'DejaVu Sans', 'Arial', 'Helvetica', 'Lucida Grande', 'Verdana', 'Geneva', 'Lucid', 'Avant Garde', sans-serif; text-anchor: middle" x="86.867925" y="11.52" transform="rotate(-0 86.867925 11.52)">mu24p</text>
   </g>
  </g>
 </g>
 <defs>
  <clipPath id="pc4722601ee">
   <rect x="37.19" y="17.52" width="99.355851" height="67.24"/>
  </clipPath>
 </defs>
</svg>
