<?xml version="1.0" encoding="utf-8" standalone="no"?>
<!DOCTYPE svg PUBLIC "-//W3C//DTD SVG 1.1//EN"
  "http://www.w3.org/Graphics/SVG/1.1/DTD/svg11.dtd">
<svg xmlns:xlink="http://www.w3.org/1999/xlink" width="144pt" height="115.2pt" viewBox="0 0 144 115.2" xmlns="http://www.w3.org/2000/svg" version="1.1">
 <metadata>
  <rdf:RDF xmlns:dc="http://purl.org/dc/elements/1.1/" xmlns:cc="http://creativecommons.org/ns#" xmlns:rdf="http://www.w3.org/1999/02/22-rdf-syntax-ns#">
   <cc:Work>
    <dc:type rdf:resource="http://purl.org/dc/dcmitype/StillImage"/>
    <dc:date>2026-02-16T18:34:55.072036</dc:date>
    <dc:format>image/svg+xml</dc:format>
    <dc:creator>
     <cc:Agent>
      <dc:title>Matplotlib v3.10.8, https://matplotlib.org/</dc:title>
     </cc:Agent>
    </dc:creator>
   </cc:Work>
  </rdf:RDF>
 </metadata>
 <defs>
  <style type="text/css">*{stroke-linejoin: round; stroke-linecap: butt}</style>
 </defs>
 <g id="figure_1">
  <g id="patch_1">
   <path d="M 0 115.2 
L 144 115.2 
L 144 0 
L 0 0 
L 0 115.2 
z
" style="fill: none"/>
  </g>
  <g id="axes_1">
   <g id="patch_2">
    <path d="M 42.86 84.76 
L 137.52 84.76 
L 137.52 17.52 
L 42.86 17.52 
L 42.86 84.76 
z
" style="fill: none"/>
   </g>
   <g id="patch_3">
    <path d="M 47.162727 84.76 
L 49.314091 84.76 
L 49.314091 84.432439 
L 47.162727 84.432439 
z
" clip-path="url(#pb506446d58)" style="fill: #1f77b4"/>
   </g>
   <g id="patch_4">
    <path d="M 49.314091 84.76 
L 51.465455 84.76 
L 51.465455 84.76 
L 49.314091 84.76 
z
" clip-path="url(#pb506446d58)" style="fill: #1f77b4"/>
   </g>
   <g id="patch_5">
    <path d="M 51.465455 84.76 
L 53.616818 84.76 
L 53.616818 84.59622 
L 51.465455 84.59622 
z
" clip-path="url(#pb506446d58)" style="fill: #1f77b4"/>
   </g>
   <g id="patch_6">
    <path d="M 53.616818 84.76 
L 55.768182 84.76 
L 55.768182 83.777318 
L 53.616818 83.777318 
z
" clip-path="url(#pb506446d58)" style="fill: #1f77b4"/>
   </g>
   <g id="patch_7">
    <path d="M 55.768182 84.76 
L 57.919545 84.76 
L 57.919545 83.941099 
L 55.768182 83.941099 
z
" clip-path="url(#pb506446d58)" style="fill: #1f77b4"/>
   </g>
   <g id="patch_8">
    <path d="M 57.919545 84.76 
L 60.070909 84.76 
L 60.070909 83.941099 
L 57.919545 83.941099 
z
" clip-path="url(#pb506446d58)" style="fill: #1f77b4"/>
   </g>
   <g id="patch_9">
    <path d="M 60.070909 84.76 
L 62.222273 84.76 
L 62.222273 81.975735 
L 60.070909 81.975735 
z
" clip-path="url(#pb506446d58)" style="fill: #1f77b4"/>
   </g>
   <g id="patch_10">
    <path d="M 62.222273 84.76 
L 64.373636 84.76 
L 64.373636 81.320614 
L 62.222273 81.320614 
z
" clip-path="url(#pb506446d58)" style="fill: #1f77b4"/>
   </g>
   <g id="patch_11">
    <path d="M 64.373636 84.76 
L 66.525 84.76 
L 66.525 78.372569 
L 64.373636 78.372569 
z
" clip-path="url(#pb506446d58)" style="fill: #1f77b4"/>
   </g>
   <g id="patch_12">
    <path d="M 66.525 84.76 
L 68.676364 84.76 
L 68.676364 77.226106 
L 66.525 77.226106 
z
" clip-path="url(#pb506446d58)" style="fill: #1f77b4"/>
   </g>
   <g id="patch_13">
    <path d="M 68.676364 84.76 
L 70.827727 84.76 
L 70.827727 74.933182 
L 68.676364 74.933182 
z
" clip-path="url(#pb506446d58)" style="fill: #1f77b4"/>
   </g>
   <g id="patch_14">
    <path d="M 70.827727 84.76 
L 72.979091 84.76 
L 72.979091 71.657576 
L 70.827727 71.657576 
z
" clip-path="url(#pb506446d58)" style="fill: #1f77b4"/>
   </g>
   <g id="patch_15">
    <path d="M 72.979091 84.76 
L 75.130455 84.76 
L 75.130455 70.019773 
L 72.979091 70.019773 
z
" clip-path="url(#pb506446d58)" style="fill: #1f77b4"/>
   </g>
   <g id="patch_16">
    <path d="M 75.130455 84.76 
L 77.281818 84.76 
L 77.281818 62.3221 
L 75.130455 62.3221 
z
" clip-path="url(#pb506446d58)" style="fill: #1f77b4"/>
   </g>
   <g id="patch_17">
    <path d="M 77.281818 84.76 
L 79.433182 84.76 
L 79.433182 55.443327 
L 77.281818 55.443327 
z
" clip-path="url(#pb506446d58)" style="fill: #1f77b4"/>
   </g>
   <g id="patch_18">
    <path d="M 79.433182 84.76 
L 81.584545 84.76 
L 81.584545 45.94407 
L 79.433182 45.94407 
z
" clip-path="url(#pb506446d58)" style="fill: #1f77b4"/>
   </g>
   <g id="patch_19">
    <path d="M 81.584545 84.76 
L 83.735909 84.76 
L 83.735909 39.556639 
L 81.584545 39.556639 
z
" clip-path="url(#pb506446d58)" style="fill: #1f77b4"/>
   </g>
   <g id="patch_20">
    <path d="M 83.735909 84.76 
L 85.887273 84.76 
L 85.887273 32.350306 
L 83.735909 32.350306 
z
" clip-path="url(#pb506446d58)" style="fill: #1f77b4"/>
   </g>
   <g id="patch_21">
    <path d="M 85.887273 84.76 
L 88.038636 84.76 
L 88.038636 25.307753 
L 85.887273 25.307753 
z
" clip-path="url(#pb506446d58)" style="fill: #1f77b4"/>
   </g>
   <g id="patch_22">
    <path d="M 88.038636 84.76 
L 90.19 84.76 
L 90.19 20.721905 
L 88.038636 20.721905 
z
" clip-path="url(#pb506446d58)" style="fill: #1f77b4"/>
   </g>
   <g id="patch_23">
    <path d="M 90.19 84.76 
L 92.341364 84.76 
L 92.341364 27.273117 
L 90.19 27.273117 
z
" clip-path="url(#pb506446d58)" style="fill: #1f77b4"/>
   </g>
   <g id="patch_24">
    <path d="M 92.341364 84.76 
L 94.492727 84.76 
L 94.492727 29.893601 
L 92.341364 29.893601 
z
" clip-path="url(#pb506446d58)" style="fill: #1f77b4"/>
   </g>
   <g id="patch_25">
    <path d="M 94.492727 84.76 
L 96.644091 84.76 
L 96.644091 28.583359 
L 94.492727 28.583359 
z
" clip-path="url(#pb506446d58)" style="fill: #1f77b4"/>
   </g>
   <g id="patch_26">
    <path d="M 96.644091 84.76 
L 98.795455 84.76 
L 98.795455 30.221162 
L 96.644091 30.221162 
z
" clip-path="url(#pb506446d58)" style="fill: #1f77b4"/>
   </g>
   <g id="patch_27">
    <path d="M 98.795455 84.76 
L 100.946818 84.76 
L 100.946818 38.082616 
L 98.795455 38.082616 
z
" clip-path="url(#pb506446d58)" style="fill: #1f77b4"/>
   </g>
   <g id="patch_28">
    <path d="M 100.946818 84.76 
L 103.098182 84.76 
L 103.098182 44.470047 
L 100.946818 44.470047 
z
" clip-path="url(#pb506446d58)" style="fill: #1f77b4"/>
   </g>
   <g id="patch_29">
    <path d="M 103.098182 84.76 
L 105.249545 84.76 
L 105.249545 48.564555 
L 103.098182 48.564555 
z
" clip-path="url(#pb506446d58)" style="fill: #1f77b4"/>
   </g>
   <g id="patch_30">
    <path d="M 105.249545 84.76 
L 107.400909 84.76 
L 107.400909 56.262229 
L 105.249545 56.262229 
z
" clip-path="url(#pb506446d58)" style="fill: #1f77b4"/>
   </g>
   <g id="patch_31">
    <path d="M 107.400909 84.76 
L 109.552273 84.76 
L 109.552273 65.106365 
L 107.400909 65.106365 
z
" clip-path="url(#pb506446d58)" style="fill: #1f77b4"/>
   </g>
   <g id="patch_32">
    <path d="M 109.552273 84.76 
L 111.703636 84.76 
L 111.703636 66.580387 
L 109.552273 66.580387 
z
" clip-path="url(#pb506446d58)" style="fill: #1f77b4"/>
   </g>
   <g id="patch_33">
    <path d="M 111.703636 84.76 
L 113.855 84.76 
L 113.855 74.933182 
L 111.703636 74.933182 
z
" clip-path="url(#pb506446d58)" style="fill: #1f77b4"/>
   </g>
   <g id="patch_34">
    <path d="M 113.855 84.76 
L 116.006364 84.76 
L 116.006364 75.752084 
L 113.855 75.752084 
z
" clip-path="url(#pb506446d58)" style="fill: #1f77b4"/>
   </g>
   <g id="patch_35">
    <path d="M 116.006364 84.76 
L 118.157727 84.76 
L 118.157727 79.519031 
L 116.006364 79.519031 
z
" clip-path="url(#pb506446d58)" style="fill: #1f77b4"/>
   </g>
   <g id="patch_36">
    <path d="M 118.157727 84.76 
L 120.309091 84.76 
L 120.309091 81.811955 
L 118.157727 81.811955 
z
" clip-path="url(#pb506446d58)" style="fill: #1f77b4"/>
   </g>
   <g id="patch_37">
    <path d="M 120.309091 84.76 
L 122.460455 84.76 
L 122.460455 82.630856 
L 120.309091 82.630856 
z
" clip-path="url(#pb506446d58)" style="fill: #1f77b4"/>
   </g>
   <g id="patch_38">
    <path d="M 122.460455 84.76 
L 124.611818 84.76 
L 124.611818 82.794636 
L 122.460455 82.794636 
z
" clip-path="url(#pb506446d58)" style="fill: #1f77b4"/>
   </g>
   <g id="patch_39">
    <path d="M 124.611818 84.76 
L 126.763182 84.76 
L 126.763182 83.941099 
L 124.611818 83.941099 
z
" clip-path="url(#pb506446d58)" style="fill: #1f77b4"/>
   </g>
   <g id="patch_40">
    <path d="M 126.763182 84.76 
L 128.914545 84.76 
L 128.914545 83.613538 
L 126.763182 83.613538 
z
" clip-path="url(#pb506446d58)" style="fill: #1f77b4"/>
   </g>
   <g id="patch_41">
    <path d="M 128.914545 84.76 
L 131.065909 84.76 
L 131.065909 84.59622 
L 128.914545 84.59622 
z
" clip-path="url(#pb506446d58)" style="fill: #1f77b4"/>
   </g>
   <g id="patch_42">
    <path d="M 131.065909 84.76 
L 133.217273 84.76 
L 133.217273 84.268659 
L 131.065909 84.268659 
z
" clip-path="url(#pb506446d58)" style="fill: #1f77b4"/>
   </g>
   <g id="matplotlib.axis_1">
    <g id="xtick_1">
     <g id="line2d_1">
      <defs>
       <path id="mc6b61332cc" d="M 0 0 
L 0 3.5 
" style="stroke: #000000; stroke-width: 0.8"/>
      </defs>
      <g>
       <use xlink:href="#mc6b61332cc" x="61.214687" y="84.76" style="stroke: #000000; stroke-width: 0.8"/>
      </g>
     </g>
     <g id="text_1">
      <text style="font-size: 6px; font-family: 'DejaVu Sans', 'Arial', 'Helvetica', 'Lucida Grande', 'Verdana', 'Geneva', 'Lucid', 'Avant Garde', sans-serif; text-anchor: middle" x="61.214687" y="96.319063" transform="rotate(-0 61.214687 96.319063)">0.1155</text>
     </g>
    </g>
    <g id="xtick_2">
     <g id="line2d_2">
      <g>
       <use xlink:href="#mc6b61332cc" x="87.987743" y="84.76" style="stroke: #000000; stroke-width: 0.8"/>
      </g>
     </g>
     <g id="text_2">
      <text style="font-size: 6px; font-family: 'DejaVu Sans', 'Arial', 'Helvetica', 'Lucida Grande', 'Verdana', 'Geneva', 'Lucid', 'Avant Garde', sans-serif; text-anchor: middle" x="87.987743" y="96.319063" transform="rotate(-0 87.987743 96.319063)">0.1156</text>
     </g>
    </g>
    <g id="xtick_3">
     <g id="line2d_3">
      <g>
       <use xlink:href="#mc6b61332cc" x="114.760798" y="84.76" style="stroke: #000000; stroke-width: 0.8"/>
      </g>
     </g>
     <g id="text_3">
      <text style="font-size: 6px; font-family: 'DejaVu Sans', 'Arial', 'Helvetica', 'Lucida Grande', 'Verdana', 'Geneva', 'Lucid', 'Avant Garde', sans-serif; text-anchor: middle" x="114.760798" y="96.319063" transform="rotate(-0 114.760798 96.319063)">0.1157</text>
     </g>
    </g>
    <g id="text_4">
     <text style="font-size: 6px; font-family: 'DejaVu Sans', 'Arial', 'Helvetica', 'Lucida Grande', 'Verdana', 'Geneva', 'Lucid', 'Avant Garde', sans-serif; text-anchor: middle" x="90.19" y="106.125938" transform="rotate(-0 90.19 106.125938)">value</text>
    </g>
   </g>
   <g id="matplotlib.axis_2">
    <g id="ytick_1">
     <g id="line2d_4">
      <defs>
       <path id="m4c0eb88136" d="M 0 0 
L -3.5 0 
" style="stroke: #000000; stroke-width: 0.8"/>
      </defs>
      <g>
       <use xlink:href="#m4c0eb88136" x="42.86" y="84.76" style="stroke: #000000; stroke-width: 0.8"/>
      </g>
     </g>
     <g id="text_5">
      <text style="font-size: 6px; font-family: 'DejaVu Sans', 'Arial', 'Helvetica', 'Lucida Grande', 'Verdana', 'Geneva', 'Lucid', 'Avant Garde', sans-serif; text-anchor: end" x="35.86" y="87.039531" transform="rotate(-0 35.86 87.039531)">0</text>
     </g>
    </g>
    <g id="ytick_2">
     <g id="line2d_5">
      <g>
       <use xlink:href="#m4c0eb88136" x="42.86" y="68.30918" style="stroke: #000000; stroke-width: 0.8"/>
      </g>
     </g>
     <g id="text_6">
      <text style="font-size: 6px; font-family: 'DejaVu Sans', 'Arial', 'Helvetica', 'Lucida Grande', 'Verdana', 'Geneva', 'Lucid', 'Avant Garde', sans-serif; text-anchor: end" x="35.86" y="70.588711" transform="rotate(-0 35.86 70.588711)">2500</text>
     </g>
    </g>
    <g id="ytick_3">
     <g id="line2d_6">
      <g>
       <use xlink:href="#m4c0eb88136" x="42.86" y="51.85836" style="stroke: #000000; stroke-width: 0.8"/>
      </g>
     </g>
     <g id="text_7">
      <text style="font-size: 6px; font-family: 'DejaVu Sans', 'Arial', 'Helvetica', 'Lucida Grande', 'Verdana', 'Geneva', 'Lucid', 'Avant Garde', sans-serif; text-anchor: end" x="35.86" y="54.137891" transform="rotate(-0 35.86 54.137891)">5000</text>
     </g>
    </g>
    <g id="ytick_4">
     <g id="line2d_7">
      <g>
       <use xlink:href="#m4c0eb88136" x="42.86" y="35.40754" style="stroke: #000000; stroke-width: 0.8"/>
      </g>
     </g>
     <g id="text_8">
      <text style="font-size: 6px; font-family: 'DejaVu Sans', 'Arial', 'Helvetica', 'Lucida Grande', 'Verdana', 'Geneva', 'Lucid', 'Avant Garde', sans-serif; text-anchor: end" x="35.86" y="37.687071" transform="rotate(-0 35.86 37.687071)">7500</text>
     </g>
    </g>
    <g id="ytick_5">
     <g id="line2d_8">
      <g>
       <use xlink:href="#m4c0eb88136" x="42.86" y="18.95672" style="stroke: #000000; stroke-width: 0.8"/>
      </g>
     </g>
     <g id="text_9">
      <text style="font-size: 6px; font-family: 'DejaVu Sans', 'Arial', 'Helvetica', 'Lucida Grande', 'Verdana', 'Geneva', 'Lucid', 'Avant Garde', sans-serif; text-anchor: end" x="35.86" y="21.236251" transform="rotate(-0 35.86 21.236251)">10000</text>
     </g>
    </g>
    <g id="text_10">
     <text style="font-size: 6px; font-family: 'DejaVu Sans', 'Arial', 'Helvetica', 'Lucida Grande', 'Verdana', 'Geneva', 'Lucid', 'Avant Garde', sans-serif; text-anchor: middle" x="11.524687" y="51.14" transform="rotate(-90 11.524687 51.14)">density</text>
    </g>
   </g>
   <g id="line2d_9">
    <path d="M 91.821985 84.76 
L 91.821985 17.52 
" clip-path="url(#pb506446d58)" style="fill: none; stroke-dasharray: 3.7,1.6; stroke-dashoffset: 0; stroke: #1f77b4"/>
   </g>
   <g id="patch_43">
    <path d="M 42.86 84.76 
L 42.86 17.52 
" style="fill: none; stroke: #000000; stroke-width: 0.5; stroke-linejoin: miter; stroke-linecap: square"/>
   </g>
   <g id="patch_44">
    <path d="M 42.86 84.76 
L 137.52 84.76 
" style="fill: none; stroke: #000000; stroke-width: 0.5; stroke-linejoin: miter; stroke-linecap: square"/>
   </g>
   <g id="text_11">
    <text style="font-size: 6px; font-family: 'DejaVu Sans', 'Arial', 'Helvetica', 'Lucida Grande', 'Verdana', 'Geneva', 'Lucid', 'Avant Garde', sans-serif; text-anchor: middle" x="90.19" y="11.52" transform="rotate(-0 90.19 11.52)">mu24p</text>
   </g>
  </g>
 </g>
 <defs>
  <clipPath id="pb506446d58">
   <rect x="42.86" y="17.52" width="94.66" height="67.24"/>
  </clipPath>
 </defs>
</svg>
