<?xml version="1.0" encoding="utf-8" standalone="no"?>
<!DOCTYPE svg PUBLIC "-//W3C//DTD SVG 1.1//EN"
  "http://www.w3.org/Graphics/SVG/1.1/DTD/svg11.dtd">
<svg xmlns:xlink="http://www.w3.org/1999/xlink" width="144pt" height="115.2pt" viewBox="0 0 144 115.2" xmlns="http://www.w3.org/2000/svg" version="1.1">
 <metadata>
  <rdf:RDF xmlns:dc="http://purl.org/dc/elements/1.1/" xmlns:cc="http://creativecommons.org/ns#" xmlns:rdf="http://www.w3.org/1999/02/22-rdf-syntax-ns#">
   <cc:Work>
    <dc:type rdf:resource="http://purl.org/dc/dcmitype/StillImage"/>
    <dc:date>2026-02-16T19:51:53.666933</dc:date>
    <dc:format>image/svg+xml</dc:format>
    <dc:creator>
     <cc:Agent>
      <dc:title>Matplotlib v3.10.8, https://matplotlib.org/</dc:title>
     </cc:Agent>
    </dc:creator>
   </cc:Work>
  </rdf:RDF>
 </metadata>
 <defs>
  <style type="text/css">*{stroke-linejoin: round; stroke-linecap: butt}</style>
 </defs>
 <g id="figure_1">
  <g id="patch_1">
   <path d="M 0 115.2 
L 144 115.2 
L 144 0 
L 0 0 
L 0 115.2 
z
" style="fill: none"/>
  </g>
  <g id="axes_1">
   <g id="patch_2">
    <path d="M 40.97 84.76 
L 137.52 84.76 
L 137.52 17.52 
L 40.97 17.52 
L 40.97 84.76 
z
" style="fill: none"/>
   </g>
   <g id="patch_3">
    <path d="M 45.358636 84.76 
L 47.552955 84.76 
L 47.552955 84.44298 
L 45.358636 84.44298 
z
" clip-path="url(#p076a18abb9)" style="fill: #1f77b4"/>
   </g>
   <g id="patch_4">
    <path d="M 47.552955 84.76 
L 49.747273 84.76 
L 49.747273 83.808939 
L 47.552955 83.808939 
z
" clip-path="url(#p076a18abb9)" style="fill: #1f77b4"/>
   </g>
   <g id="patch_5">
    <path d="M 49.747273 84.76 
L 51.941591 84.76 
L 51.941591 83.650429 
L 49.747273 83.650429 
z
" clip-path="url(#p076a18abb9)" style="fill: #1f77b4"/>
   </g>
   <g id="patch_6">
    <path d="M 51.941591 84.76 
L 54.135909 84.76 
L 54.135909 80.480226 
L 51.941591 80.480226 
z
" clip-path="url(#p076a18abb9)" style="fill: #1f77b4"/>
   </g>
   <g id="patch_7">
    <path d="M 54.135909 84.76 
L 56.330227 84.76 
L 56.330227 79.053635 
L 54.135909 79.053635 
z
" clip-path="url(#p076a18abb9)" style="fill: #1f77b4"/>
   </g>
   <g id="patch_8">
    <path d="M 56.330227 84.76 
L 58.524545 84.76 
L 58.524545 75.090882 
L 56.330227 75.090882 
z
" clip-path="url(#p076a18abb9)" style="fill: #1f77b4"/>
   </g>
   <g id="patch_9">
    <path d="M 58.524545 84.76 
L 60.718864 84.76 
L 60.718864 70.652598 
L 58.524545 70.652598 
z
" clip-path="url(#p076a18abb9)" style="fill: #1f77b4"/>
   </g>
   <g id="patch_10">
    <path d="M 60.718864 84.76 
L 62.913182 84.76 
L 62.913182 65.580273 
L 60.718864 65.580273 
z
" clip-path="url(#p076a18abb9)" style="fill: #1f77b4"/>
   </g>
   <g id="patch_11">
    <path d="M 62.913182 84.76 
L 65.1075 84.76 
L 65.1075 54.167544 
L 62.913182 54.167544 
z
" clip-path="url(#p076a18abb9)" style="fill: #1f77b4"/>
   </g>
   <g id="patch_12">
    <path d="M 65.1075 84.76 
L 67.301818 84.76 
L 67.301818 52.106912 
L 65.1075 52.106912 
z
" clip-path="url(#p076a18abb9)" style="fill: #1f77b4"/>
   </g>
   <g id="patch_13">
    <path d="M 67.301818 84.76 
L 69.496136 84.76 
L 69.496136 34.829307 
L 67.301818 34.829307 
z
" clip-path="url(#p076a18abb9)" style="fill: #1f77b4"/>
   </g>
   <g id="patch_14">
    <path d="M 69.496136 84.76 
L 71.690455 84.76 
L 71.690455 35.304837 
L 69.496136 35.304837 
z
" clip-path="url(#p076a18abb9)" style="fill: #1f77b4"/>
   </g>
   <g id="patch_15">
    <path d="M 71.690455 84.76 
L 73.884773 84.76 
L 73.884773 24.684658 
L 71.690455 24.684658 
z
" clip-path="url(#p076a18abb9)" style="fill: #1f77b4"/>
   </g>
   <g id="patch_16">
    <path d="M 73.884773 84.76 
L 76.079091 84.76 
L 76.079091 23.416577 
L 73.884773 23.416577 
z
" clip-path="url(#p076a18abb9)" style="fill: #1f77b4"/>
   </g>
   <g id="patch_17">
    <path d="M 76.079091 84.76 
L 78.273409 84.76 
L 78.273409 20.721905 
L 76.079091 20.721905 
z
" clip-path="url(#p076a18abb9)" style="fill: #1f77b4"/>
   </g>
   <g id="patch_18">
    <path d="M 78.273409 84.76 
L 80.467727 84.76 
L 80.467727 29.756983 
L 78.273409 29.756983 
z
" clip-path="url(#p076a18abb9)" style="fill: #1f77b4"/>
   </g>
   <g id="patch_19">
    <path d="M 80.467727 84.76 
L 82.662045 84.76 
L 82.662045 31.342084 
L 80.467727 31.342084 
z
" clip-path="url(#p076a18abb9)" style="fill: #1f77b4"/>
   </g>
   <g id="patch_20">
    <path d="M 82.662045 84.76 
L 84.856364 84.76 
L 84.856364 31.817614 
L 82.662045 31.817614 
z
" clip-path="url(#p076a18abb9)" style="fill: #1f77b4"/>
   </g>
   <g id="patch_21">
    <path d="M 84.856364 84.76 
L 87.050682 84.76 
L 87.050682 39.267591 
L 84.856364 39.267591 
z
" clip-path="url(#p076a18abb9)" style="fill: #1f77b4"/>
   </g>
   <g id="patch_22">
    <path d="M 87.050682 84.76 
L 89.245 84.76 
L 89.245 45.449486 
L 87.050682 45.449486 
z
" clip-path="url(#p076a18abb9)" style="fill: #1f77b4"/>
   </g>
   <g id="patch_23">
    <path d="M 89.245 84.76 
L 91.439318 84.76 
L 91.439318 53.533503 
L 89.245 53.533503 
z
" clip-path="url(#p076a18abb9)" style="fill: #1f77b4"/>
   </g>
   <g id="patch_24">
    <path d="M 91.439318 84.76 
L 93.633636 84.76 
L 93.633636 58.764338 
L 91.439318 58.764338 
z
" clip-path="url(#p076a18abb9)" style="fill: #1f77b4"/>
   </g>
   <g id="patch_25">
    <path d="M 93.633636 84.76 
L 95.827955 84.76 
L 95.827955 62.885601 
L 93.633636 62.885601 
z
" clip-path="url(#p076a18abb9)" style="fill: #1f77b4"/>
   </g>
   <g id="patch_26">
    <path d="M 95.827955 84.76 
L 98.022273 84.76 
L 98.022273 69.860047 
L 95.827955 69.860047 
z
" clip-path="url(#p076a18abb9)" style="fill: #1f77b4"/>
   </g>
   <g id="patch_27">
    <path d="M 98.022273 84.76 
L 100.216591 84.76 
L 100.216591 71.286638 
L 98.022273 71.286638 
z
" clip-path="url(#p076a18abb9)" style="fill: #1f77b4"/>
   </g>
   <g id="patch_28">
    <path d="M 100.216591 84.76 
L 102.410909 84.76 
L 102.410909 75.407902 
L 100.216591 75.407902 
z
" clip-path="url(#p076a18abb9)" style="fill: #1f77b4"/>
   </g>
   <g id="patch_29">
    <path d="M 102.410909 84.76 
L 104.605227 84.76 
L 104.605227 76.675983 
L 102.410909 76.675983 
z
" clip-path="url(#p076a18abb9)" style="fill: #1f77b4"/>
   </g>
   <g id="patch_30">
    <path d="M 104.605227 84.76 
L 106.799545 84.76 
L 106.799545 79.053635 
L 104.605227 79.053635 
z
" clip-path="url(#p076a18abb9)" style="fill: #1f77b4"/>
   </g>
   <g id="patch_31">
    <path d="M 106.799545 84.76 
L 108.993864 84.76 
L 108.993864 80.955757 
L 106.799545 80.955757 
z
" clip-path="url(#p076a18abb9)" style="fill: #1f77b4"/>
   </g>
   <g id="patch_32">
    <path d="M 108.993864 84.76 
L 111.188182 84.76 
L 111.188182 81.431287 
L 108.993864 81.431287 
z
" clip-path="url(#p076a18abb9)" style="fill: #1f77b4"/>
   </g>
   <g id="patch_33">
    <path d="M 111.188182 84.76 
L 113.3825 84.76 
L 113.3825 82.699368 
L 111.188182 82.699368 
z
" clip-path="url(#p076a18abb9)" style="fill: #1f77b4"/>
   </g>
   <g id="patch_34">
    <path d="M 113.3825 84.76 
L 115.576818 84.76 
L 115.576818 83.967449 
L 113.3825 83.967449 
z
" clip-path="url(#p076a18abb9)" style="fill: #1f77b4"/>
   </g>
   <g id="patch_35">
    <path d="M 115.576818 84.76 
L 117.771136 84.76 
L 117.771136 83.491919 
L 115.576818 83.491919 
z
" clip-path="url(#p076a18abb9)" style="fill: #1f77b4"/>
   </g>
   <g id="patch_36">
    <path d="M 117.771136 84.76 
L 119.965455 84.76 
L 119.965455 84.44298 
L 117.771136 84.44298 
z
" clip-path="url(#p076a18abb9)" style="fill: #1f77b4"/>
   </g>
   <g id="patch_37">
    <path d="M 119.965455 84.76 
L 122.159773 84.76 
L 122.159773 84.28447 
L 119.965455 84.28447 
z
" clip-path="url(#p076a18abb9)" style="fill: #1f77b4"/>
   </g>
   <g id="patch_38">
    <path d="M 122.159773 84.76 
L 124.354091 84.76 
L 124.354091 84.76 
L 122.159773 84.76 
z
" clip-path="url(#p076a18abb9)" style="fill: #1f77b4"/>
   </g>
   <g id="patch_39">
    <path d="M 124.354091 84.76 
L 126.548409 84.76 
L 126.548409 84.60149 
L 124.354091 84.60149 
z
" clip-path="url(#p076a18abb9)" style="fill: #1f77b4"/>
   </g>
   <g id="patch_40">
    <path d="M 126.548409 84.76 
L 128.742727 84.76 
L 128.742727 84.76 
L 126.548409 84.76 
z
" clip-path="url(#p076a18abb9)" style="fill: #1f77b4"/>
   </g>
   <g id="patch_41">
    <path d="M 128.742727 84.76 
L 130.937045 84.76 
L 130.937045 84.76 
L 128.742727 84.76 
z
" clip-path="url(#p076a18abb9)" style="fill: #1f77b4"/>
   </g>
   <g id="patch_42">
    <path d="M 130.937045 84.76 
L 133.131364 84.76 
L 133.131364 84.60149 
L 130.937045 84.60149 
z
" clip-path="url(#p076a18abb9)" style="fill: #1f77b4"/>
   </g>
   <g id="matplotlib.axis_1">
    <g id="xtick_1">
     <g id="line2d_1">
      <defs>
       <path id="macb5396a11" d="M 0 0 
L 0 3.5 
" style="stroke: #000000; stroke-width: 0.8"/>
      </defs>
      <g>
       <use xlink:href="#macb5396a11" x="62.752141" y="84.76" style="stroke: #000000; stroke-width: 0.8"/>
      </g>
     </g>
     <g id="text_1">
      <text style="font-size: 6px; font-family: 'DejaVu Sans', 'Arial', 'Helvetica', 'Lucida Grande', 'Verdana', 'Geneva', 'Lucid', 'Avant Garde', sans-serif; text-anchor: middle" x="62.752141" y="96.319063" transform="rotate(-0 62.752141 96.319063)">100</text>
     </g>
    </g>
    <g id="xtick_2">
     <g id="line2d_2">
      <g>
       <use xlink:href="#macb5396a11" x="100.189418" y="84.76" style="stroke: #000000; stroke-width: 0.8"/>
      </g>
     </g>
     <g id="text_2">
      <text style="font-size: 6px; font-family: 'DejaVu Sans', 'Arial', 'Helvetica', 'Lucida Grande', 'Verdana', 'Geneva', 'Lucid', 'Avant Garde', sans-serif; text-anchor: middle" x="100.189418" y="96.319063" transform="rotate(-0 100.189418 96.319063)">150</text>
     </g>
    </g>
    <g id="text_3">
     <text style="font-size: 6px; font-family: 'DejaVu Sans', 'Arial', 'Helvetica', 'Lucida Grande', 'Verdana', 'Geneva', 'Lucid', 'Avant Garde', sans-serif; text-anchor: middle" x="89.245" y="106.125938" transform="rotate(-0 89.245 106.125938)">value</text>
    </g>
   </g>
   <g id="matplotlib.axis_2">
    <g id="ytick_1">
     <g id="line2d_3">
      <defs>
       <path id="m030da97bb6" d="M 0 0 
L -3.5 0 
" style="stroke: #000000; stroke-width: 0.8"/>
      </defs>
      <g>
       <use xlink:href="#m030da97bb6" x="40.97" y="84.76" style="stroke: #000000; stroke-width: 0.8"/>
      </g>
     </g>
     <g id="text_4">
      <text style="font-size: 6px; font-family: 'DejaVu Sans', 'Arial', 'Helvetica', 'Lucida Grande', 'Verdana', 'Geneva', 'Lucid', 'Avant Garde', sans-serif; text-anchor: end" x="33.97" y="87.039531" transform="rotate(-0 33.97 87.039531)">0.00</text>
     </g>
    </g>
    <g id="ytick_2">
     <g id="line2d_4">
      <g>
       <use xlink:href="#m030da97bb6" x="40.97" y="61.533038" style="stroke: #000000; stroke-width: 0.8"/>
      </g>
     </g>
     <g id="text_5">
      <text style="font-size: 6px; font-family: 'DejaVu Sans', 'Arial', 'Helvetica', 'Lucida Grande', 'Verdana', 'Geneva', 'Lucid', 'Avant Garde', sans-serif; text-anchor: end" x="33.97" y="63.812569" transform="rotate(-0 33.97 63.812569)">0.01</text>
     </g>
    </g>
    <g id="ytick_3">
     <g id="line2d_5">
      <g>
       <use xlink:href="#m030da97bb6" x="40.97" y="38.306076" style="stroke: #000000; stroke-width: 0.8"/>
      </g>
     </g>
     <g id="text_6">
      <text style="font-size: 6px; font-family: 'DejaVu Sans', 'Arial', 'Helvetica', 'Lucida Grande', 'Verdana', 'Geneva', 'Lucid', 'Avant Garde', sans-serif; text-anchor: end" x="33.97" y="40.585608" transform="rotate(-0 33.97 40.585608)">0.02</text>
     </g>
    </g>
    <g id="text_7">
     <text style="font-size: 6px; font-family: 'DejaVu Sans', 'Arial', 'Helvetica', 'Lucida Grande', 'Verdana', 'Geneva', 'Lucid', 'Avant Garde', sans-serif; text-anchor: middle" x="15.362812" y="51.14" transform="rotate(-90 15.362812 51.14)">density</text>
    </g>
   </g>
   <g id="line2d_6">
    <path d="M 78.100026 84.76 
L 78.100026 17.52 
" clip-path="url(#p076a18abb9)" style="fill: none; stroke-dasharray: 3.7,1.6; stroke-dashoffset: 0; stroke: #1f77b4"/>
   </g>
   <g id="patch_43">
    <path d="M 40.97 84.76 
L 40.97 17.52 
" style="fill: none; stroke: #000000; stroke-width: 0.5; stroke-linejoin: miter; stroke-linecap: square"/>
   </g>
   <g id="patch_44">
    <path d="M 40.97 84.76 
L 137.52 84.76 
" style="fill: none; stroke: #000000; stroke-width: 0.5; stroke-linejoin: miter; stroke-linecap: square"/>
   </g>
   <g id="text_8">
    <text style="font-size: 6px; font-family: 'DejaVu Sans', 'Arial', 'Helvetica', 'Lucida Grande', 'Verdana', 'Geneva', 'Lucid', 'Avant Garde', sans-serif; text-anchor: middle" x="89.245" y="11.52" transform="rotate(-0 89.245 11.52)">K</text>
   </g>
  </g>
 </g>
 <defs>
  <clipPath id="p076a18abb9">
   <rect x="40.97" y="17.52" width="96.55" height="67.24"/>
  </clipPath>
 </defs>
</svg>
