<?xml version="1.0" encoding="utf-8" standalone="no"?>
<!DOCTYPE svg PUBLIC "-//W3C//DTD SVG 1.1//EN"
  "http://www.w3.org/Graphics/SVG/1.1/DTD/svg11.dtd">
<svg xmlns:xlink="http://www.w3.org/1999/xlink" width="144pt" height="115.2pt" viewBox="0 0 144 115.2" xmlns="http://www.w3.org/2000/svg" version="1.1">
 <metadata>
  <rdf:RDF xmlns:dc="http://purl.org/dc/elements/1.1/" xmlns:cc="http://creativecommons.org/ns#" xmlns:rdf="http://www.w3.org/1999/02/22-rdf-syntax-ns#">
   <cc:Work>
    <dc:type rdf:resource="http://purl.org/dc/dcmitype/StillImage"/>
    <dc:date>2026-02-16T19:51:53.552956</dc:date>
    <dc:format>image/svg+xml</dc:format>
    <dc:creator>
     <cc:Agent>
      <dc:title>Matplotlib v3.10.8, https://matplotlib.org/</dc:title>
     </cc:Agent>
    </dc:creator>
   </cc:Work>
  </rdf:RDF>
 </metadata>
 <defs>
  <style type="text/css">*{stroke-linejoin: round; stroke-linecap: butt}</style>
 </defs>
 <g id="figure_1">
  <g id="patch_1">
   <path d="M 0 115.2 
L 144 115.2 
L 144 0 
L 0 0 
L 0 115.2 
z
" style="fill: none"/>
  </g>
  <g id="axes_1">
   <g id="patch_2">
    <path d="M 37.19 84.76 
L 136.139971 84.76 
L 136.139971 17.52 
L 37.19 17.52 
L 37.19 84.76 
z
" style="fill: none"/>
   </g>
   <g id="patch_3">
    <path d="M 41.687726 84.76 
L 43.936589 84.76 
L 43.936589 53.709682 
L 41.687726 53.709682 
z
" clip-path="url(#p6b3e2715a5)" style="fill: #1f77b4"/>
   </g>
   <g id="patch_4">
    <path d="M 43.936589 84.76 
L 46.185452 84.76 
L 46.185452 20.721905 
L 43.936589 20.721905 
z
" clip-path="url(#p6b3e2715a5)" style="fill: #1f77b4"/>
   </g>
   <g id="patch_5">
    <path d="M 46.185452 84.76 
L 48.434315 84.76 
L 48.434315 33.366369 
L 46.185452 33.366369 
z
" clip-path="url(#p6b3e2715a5)" style="fill: #1f77b4"/>
   </g>
   <g id="patch_6">
    <path d="M 48.434315 84.76 
L 50.683178 84.76 
L 50.683178 51.364337 
L 48.434315 51.364337 
z
" clip-path="url(#p6b3e2715a5)" style="fill: #1f77b4"/>
   </g>
   <g id="patch_7">
    <path d="M 50.683178 84.76 
L 52.932041 84.76 
L 52.932041 60.541771 
L 50.683178 60.541771 
z
" clip-path="url(#p6b3e2715a5)" style="fill: #1f77b4"/>
   </g>
   <g id="patch_8">
    <path d="M 52.932041 84.76 
L 55.180904 84.76 
L 55.180904 69.872163 
L 52.932041 69.872163 
z
" clip-path="url(#p6b3e2715a5)" style="fill: #1f77b4"/>
   </g>
   <g id="patch_9">
    <path d="M 55.180904 84.76 
L 57.429767 84.76 
L 57.429767 75.633552 
L 55.180904 75.633552 
z
" clip-path="url(#p6b3e2715a5)" style="fill: #1f77b4"/>
   </g>
   <g id="patch_10">
    <path d="M 57.429767 84.76 
L 59.67863 84.76 
L 59.67863 77.418053 
L 57.429767 77.418053 
z
" clip-path="url(#p6b3e2715a5)" style="fill: #1f77b4"/>
   </g>
   <g id="patch_11">
    <path d="M 59.67863 84.76 
L 61.927493 84.76 
L 61.927493 79.61044 
L 59.67863 79.61044 
z
" clip-path="url(#p6b3e2715a5)" style="fill: #1f77b4"/>
   </g>
   <g id="patch_12">
    <path d="M 61.927493 84.76 
L 64.176356 84.76 
L 64.176356 81.241984 
L 61.927493 81.241984 
z
" clip-path="url(#p6b3e2715a5)" style="fill: #1f77b4"/>
   </g>
   <g id="patch_13">
    <path d="M 64.176356 84.76 
L 66.425219 84.76 
L 66.425219 82.108741 
L 64.176356 82.108741 
z
" clip-path="url(#p6b3e2715a5)" style="fill: #1f77b4"/>
   </g>
   <g id="patch_14">
    <path d="M 66.425219 84.76 
L 68.674082 84.76 
L 68.674082 82.873527 
L 66.425219 82.873527 
z
" clip-path="url(#p6b3e2715a5)" style="fill: #1f77b4"/>
   </g>
   <g id="patch_15">
    <path d="M 68.674082 84.76 
L 70.922945 84.76 
L 70.922945 83.536342 
L 68.674082 83.536342 
z
" clip-path="url(#p6b3e2715a5)" style="fill: #1f77b4"/>
   </g>
   <g id="patch_16">
    <path d="M 70.922945 84.76 
L 73.171808 84.76 
L 73.171808 83.944228 
L 70.922945 83.944228 
z
" clip-path="url(#p6b3e2715a5)" style="fill: #1f77b4"/>
   </g>
   <g id="patch_17">
    <path d="M 73.171808 84.76 
L 75.420671 84.76 
L 75.420671 83.995214 
L 73.171808 83.995214 
z
" clip-path="url(#p6b3e2715a5)" style="fill: #1f77b4"/>
   </g>
   <g id="patch_18">
    <path d="M 75.420671 84.76 
L 77.669534 84.76 
L 77.669534 84.148171 
L 75.420671 84.148171 
z
" clip-path="url(#p6b3e2715a5)" style="fill: #1f77b4"/>
   </g>
   <g id="patch_19">
    <path d="M 77.669534 84.76 
L 79.918397 84.76 
L 79.918397 84.301128 
L 77.669534 84.301128 
z
" clip-path="url(#p6b3e2715a5)" style="fill: #1f77b4"/>
   </g>
   <g id="patch_20">
    <path d="M 79.918397 84.76 
L 82.16726 84.76 
L 82.16726 84.4031 
L 79.918397 84.4031 
z
" clip-path="url(#p6b3e2715a5)" style="fill: #1f77b4"/>
   </g>
   <g id="patch_21">
    <path d="M 82.16726 84.76 
L 84.416123 84.76 
L 84.416123 84.658029 
L 82.16726 84.658029 
z
" clip-path="url(#p6b3e2715a5)" style="fill: #1f77b4"/>
   </g>
   <g id="patch_22">
    <path d="M 84.416123 84.76 
L 86.664986 84.76 
L 86.664986 84.352114 
L 84.416123 84.352114 
z
" clip-path="url(#p6b3e2715a5)" style="fill: #1f77b4"/>
   </g>
   <g id="patch_23">
    <path d="M 86.664986 84.76 
L 88.913849 84.76 
L 88.913849 84.505071 
L 86.664986 84.505071 
z
" clip-path="url(#p6b3e2715a5)" style="fill: #1f77b4"/>
   </g>
   <g id="patch_24">
    <path d="M 88.913849 84.76 
L 91.162712 84.76 
L 91.162712 84.4031 
L 88.913849 84.4031 
z
" clip-path="url(#p6b3e2715a5)" style="fill: #1f77b4"/>
   </g>
   <g id="patch_25">
    <path d="M 91.162712 84.76 
L 93.411575 84.76 
L 93.411575 84.709014 
L 91.162712 84.709014 
z
" clip-path="url(#p6b3e2715a5)" style="fill: #1f77b4"/>
   </g>
   <g id="patch_26">
    <path d="M 93.411575 84.76 
L 95.660438 84.76 
L 95.660438 84.607043 
L 93.411575 84.607043 
z
" clip-path="url(#p6b3e2715a5)" style="fill: #1f77b4"/>
   </g>
   <g id="patch_27">
    <path d="M 95.660438 84.76 
L 97.909301 84.76 
L 97.909301 84.658029 
L 95.660438 84.658029 
z
" clip-path="url(#p6b3e2715a5)" style="fill: #1f77b4"/>
   </g>
   <g id="patch_28">
    <path d="M 97.909301 84.76 
L 100.158164 84.76 
L 100.158164 84.709014 
L 97.909301 84.709014 
z
" clip-path="url(#p6b3e2715a5)" style="fill: #1f77b4"/>
   </g>
   <g id="patch_29">
    <path d="M 100.158164 84.76 
L 102.407027 84.76 
L 102.407027 84.709014 
L 100.158164 84.709014 
z
" clip-path="url(#p6b3e2715a5)" style="fill: #1f77b4"/>
   </g>
   <g id="patch_30">
    <path d="M 102.407027 84.76 
L 104.65589 84.76 
L 104.65589 84.709014 
L 102.407027 84.709014 
z
" clip-path="url(#p6b3e2715a5)" style="fill: #1f77b4"/>
   </g>
   <g id="patch_31">
    <path d="M 104.65589 84.76 
L 106.904753 84.76 
L 106.904753 84.658029 
L 104.65589 84.658029 
z
" clip-path="url(#p6b3e2715a5)" style="fill: #1f77b4"/>
   </g>
   <g id="patch_32">
    <path d="M 106.904753 84.76 
L 109.153616 84.76 
L 109.153616 84.709014 
L 106.904753 84.709014 
z
" clip-path="url(#p6b3e2715a5)" style="fill: #1f77b4"/>
   </g>
   <g id="patch_33">
    <path d="M 109.153616 84.76 
L 111.402479 84.76 
L 111.402479 84.76 
L 109.153616 84.76 
z
" clip-path="url(#p6b3e2715a5)" style="fill: #1f77b4"/>
   </g>
   <g id="patch_34">
    <path d="M 111.402479 84.76 
L 113.651342 84.76 
L 113.651342 84.709014 
L 111.402479 84.709014 
z
" clip-path="url(#p6b3e2715a5)" style="fill: #1f77b4"/>
   </g>
   <g id="patch_35">
    <path d="M 113.651342 84.76 
L 115.900204 84.76 
L 115.900204 84.709014 
L 113.651342 84.709014 
z
" clip-path="url(#p6b3e2715a5)" style="fill: #1f77b4"/>
   </g>
   <g id="patch_36">
    <path d="M 115.900204 84.76 
L 118.149067 84.76 
L 118.149067 84.709014 
L 115.900204 84.709014 
z
" clip-path="url(#p6b3e2715a5)" style="fill: #1f77b4"/>
   </g>
   <g id="patch_37">
    <path d="M 118.149067 84.76 
L 120.39793 84.76 
L 120.39793 84.76 
L 118.149067 84.76 
z
" clip-path="url(#p6b3e2715a5)" style="fill: #1f77b4"/>
   </g>
   <g id="patch_38">
    <path d="M 120.39793 84.76 
L 122.646793 84.76 
L 122.646793 84.76 
L 120.39793 84.76 
z
" clip-path="url(#p6b3e2715a5)" style="fill: #1f77b4"/>
   </g>
   <g id="patch_39">
    <path d="M 122.646793 84.76 
L 124.895656 84.76 
L 124.895656 84.709014 
L 122.646793 84.709014 
z
" clip-path="url(#p6b3e2715a5)" style="fill: #1f77b4"/>
   </g>
   <g id="patch_40">
    <path d="M 124.895656 84.76 
L 127.144519 84.76 
L 127.144519 84.76 
L 124.895656 84.76 
z
" clip-path="url(#p6b3e2715a5)" style="fill: #1f77b4"/>
   </g>
   <g id="patch_41">
    <path d="M 127.144519 84.76 
L 129.393382 84.76 
L 129.393382 84.76 
L 127.144519 84.76 
z
" clip-path="url(#p6b3e2715a5)" style="fill: #1f77b4"/>
   </g>
   <g id="patch_42">
    <path d="M 129.393382 84.76 
L 131.642245 84.76 
L 131.642245 84.658029 
L 129.393382 84.658029 
z
" clip-path="url(#p6b3e2715a5)" style="fill: #1f77b4"/>
   </g>
   <g id="matplotlib.axis_1">
    <g id="xtick_1">
     <g id="line2d_1">
      <defs>
       <path id="m0b53c65813" d="M 0 0 
L 0 3.5 
" style="stroke: #000000; stroke-width: 0.8"/>
      </defs>
      <g>
       <use xlink:href="#m0b53c65813" x="41.364952" y="84.76" style="stroke: #000000; stroke-width: 0.8"/>
      </g>
     </g>
     <g id="text_1">
      <text style="font-size: 6px; font-family: 'DejaVu Sans', 'Arial', 'Helvetica', 'Lucida Grande', 'Verdana', 'Geneva', 'Lucid', 'Avant Garde', sans-serif; text-anchor: middle" x="41.364952" y="96.319063" transform="rotate(-0 41.364952 96.319063)">0</text>
     </g>
    </g>
    <g id="xtick_2">
     <g id="line2d_2">
      <g>
       <use xlink:href="#m0b53c65813" x="77.753481" y="84.76" style="stroke: #000000; stroke-width: 0.8"/>
      </g>
     </g>
     <g id="text_2">
      <text style="font-size: 6px; font-family: 'DejaVu Sans', 'Arial', 'Helvetica', 'Lucida Grande', 'Verdana', 'Geneva', 'Lucid', 'Avant Garde', sans-serif; text-anchor: middle" x="77.753481" y="96.319063" transform="rotate(-0 77.753481 96.319063)">100</text>
     </g>
    </g>
    <g id="xtick_3">
     <g id="line2d_3">
      <g>
       <use xlink:href="#m0b53c65813" x="114.14201" y="84.76" style="stroke: #000000; stroke-width: 0.8"/>
      </g>
     </g>
     <g id="text_3">
      <text style="font-size: 6px; font-family: 'DejaVu Sans', 'Arial', 'Helvetica', 'Lucida Grande', 'Verdana', 'Geneva', 'Lucid', 'Avant Garde', sans-serif; text-anchor: middle" x="114.14201" y="96.319063" transform="rotate(-0 114.14201 96.319063)">200</text>
     </g>
    </g>
    <g id="text_4">
     <text style="font-size: 6px; font-family: 'DejaVu Sans', 'Arial', 'Helvetica', 'Lucida Grande', 'Verdana', 'Geneva', 'Lucid', 'Avant Garde', sans-serif; text-anchor: middle" x="86.664986" y="106.125938" transform="rotate(-0 86.664986 106.125938)">value</text>
    </g>
   </g>
   <g id="matplotlib.axis_2">
    <g id="ytick_1">
     <g id="line2d_4">
      <defs>
       <path id="m9daecff651" d="M 0 0 
L -3.5 0 
" style="stroke: #000000; stroke-width: 0.8"/>
      </defs>
      <g>
       <use xlink:href="#m9daecff651" x="37.19" y="84.76" style="stroke: #000000; stroke-width: 0.8"/>
      </g>
     </g>
     <g id="text_5">
      <text style="font-size: 6px; font-family: 'DejaVu Sans', 'Arial', 'Helvetica', 'Lucida Grande', 'Verdana', 'Geneva', 'Lucid', 'Avant Garde', sans-serif; text-anchor: end" x="30.19" y="87.039531" transform="rotate(-0 30.19 87.039531)">0.00</text>
     </g>
    </g>
    <g id="ytick_2">
     <g id="line2d_5">
      <g>
       <use xlink:href="#m9daecff651" x="37.19" y="69.005041" style="stroke: #000000; stroke-width: 0.8"/>
      </g>
     </g>
     <g id="text_6">
      <text style="font-size: 6px; font-family: 'DejaVu Sans', 'Arial', 'Helvetica', 'Lucida Grande', 'Verdana', 'Geneva', 'Lucid', 'Avant Garde', sans-serif; text-anchor: end" x="30.19" y="71.284573" transform="rotate(-0 30.19 71.284573)">0.01</text>
     </g>
    </g>
    <g id="ytick_3">
     <g id="line2d_6">
      <g>
       <use xlink:href="#m9daecff651" x="37.19" y="53.250083" style="stroke: #000000; stroke-width: 0.8"/>
      </g>
     </g>
     <g id="text_7">
      <text style="font-size: 6px; font-family: 'DejaVu Sans', 'Arial', 'Helvetica', 'Lucida Grande', 'Verdana', 'Geneva', 'Lucid', 'Avant Garde', sans-serif; text-anchor: end" x="30.19" y="55.529614" transform="rotate(-0 30.19 55.529614)">0.02</text>
     </g>
    </g>
    <g id="ytick_4">
     <g id="line2d_7">
      <g>
       <use xlink:href="#m9daecff651" x="37.19" y="37.495124" style="stroke: #000000; stroke-width: 0.8"/>
      </g>
     </g>
     <g id="text_8">
      <text style="font-size: 6px; font-family: 'DejaVu Sans', 'Arial', 'Helvetica', 'Lucida Grande', 'Verdana', 'Geneva', 'Lucid', 'Avant Garde', sans-serif; text-anchor: end" x="30.19" y="39.774656" transform="rotate(-0 30.19 39.774656)">0.03</text>
     </g>
    </g>
    <g id="ytick_5">
     <g id="line2d_8">
      <g>
       <use xlink:href="#m9daecff651" x="37.19" y="21.740166" style="stroke: #000000; stroke-width: 0.8"/>
      </g>
     </g>
     <g id="text_9">
      <text style="font-size: 6px; font-family: 'DejaVu Sans', 'Arial', 'Helvetica', 'Lucida Grande', 'Verdana', 'Geneva', 'Lucid', 'Avant Garde', sans-serif; text-anchor: end" x="30.19" y="24.019697" transform="rotate(-0 30.19 24.019697)">0.04</text>
     </g>
    </g>
    <g id="text_10">
     <text style="font-size: 6px; font-family: 'DejaVu Sans', 'Arial', 'Helvetica', 'Lucida Grande', 'Verdana', 'Geneva', 'Lucid', 'Avant Garde', sans-serif; text-anchor: middle" x="11.582813" y="51.14" transform="rotate(-90 11.582813 51.14)">density</text>
    </g>
   </g>
   <g id="line2d_9">
    <path d="M 47.529894 84.76 
L 47.529894 17.52 
" clip-path="url(#p6b3e2715a5)" style="fill: none; stroke-dasharray: 3.7,1.6; stroke-dashoffset: 0; stroke: #1f77b4"/>
   </g>
   <g id="patch_43">
    <path d="M 37.19 84.76 
L 37.19 17.52 
" style="fill: none; stroke: #000000; stroke-width: 0.5; stroke-linejoin: miter; stroke-linecap: square"/>
   </g>
   <g id="patch_44">
    <path d="M 37.19 84.76 
L 136.139971 84.76 
" style="fill: none; stroke: #000000; stroke-width: 0.5; stroke-linejoin: miter; stroke-linecap: square"/>
   </g>
   <g id="text_11">
    <text style="font-size: 6px; font-family: 'DejaVu Sans', 'Arial', 'Helvetica', 'Lucida Grande', 'Verdana', 'Geneva', 'Lucid', 'Avant Garde', sans-serif; text-anchor: middle" x="86.664986" y="11.52" transform="rotate(-0 86.664986 11.52)">a50</text>
   </g>
  </g>
 </g>
 <defs>
  <clipPath id="p6b3e2715a5">
   <rect x="37.19" y="17.52" width="98.949971" height="67.24"/>
  </clipPath>
 </defs>
</svg>
