<?xml version="1.0" encoding="utf-8" standalone="no"?>
<!DOCTYPE svg PUBLIC "-//W3C//DTD SVG 1.1//EN"
  "http://www.w3.org/Graphics/SVG/1.1/DTD/svg11.dtd">
<svg xmlns:xlink="http://www.w3.org/1999/xlink" width="144pt" height="115.2pt" viewBox="0 0 144 115.2" xmlns="http://www.w3.org/2000/svg" version="1.1">
 <metadata>
  <rdf:RDF xmlns:dc="http://purl.org/dc/elements/1.1/" xmlns:cc="http://creativecommons.org/ns#" xmlns:rdf="http://www.w3.org/1999/02/22-rdf-syntax-ns#">
   <cc:Work>
    <dc:type rdf:resource="http://purl.org/dc/dcmitype/StillImage"/>
    <dc:date>2026-02-16T19:51:53.110562</dc:date>
    <dc:format>image/svg+xml</dc:format>
    <dc:creator>
     <cc:Agent>
      <dc:title>Matplotlib v3.10.8, https://matplotlib.org/</dc:title>
     </cc:Agent>
    </dc:creator>
   </cc:Work>
  </rdf:RDF>
 </metadata>
 <defs>
  <style type="text/css">*{stroke-linejoin: round; stroke-linecap: butt}</style>
 </defs>
 <g id="figure_1">
  <g id="patch_1">
   <path d="M 0 115.2 
L 144 115.2 
L 144 0 
L 0 0 
L 0 115.2 
z
" style="fill: none"/>
  </g>
  <g id="axes_1">
   <g id="patch_2">
    <path d="M 37.19 84.76 
L 137.52 84.76 
L 137.52 17.52 
L 37.19 17.52 
L 37.19 84.76 
z
" style="fill: none"/>
   </g>
   <g id="patch_3">
    <path d="M 41.750455 84.76 
L 44.030682 84.76 
L 44.030682 84.111513 
L 41.750455 84.111513 
z
" clip-path="url(#p76dcae3457)" style="fill: #1f77b4"/>
   </g>
   <g id="patch_4">
    <path d="M 44.030682 84.76 
L 46.310909 84.76 
L 46.310909 83.787269 
L 44.030682 83.787269 
z
" clip-path="url(#p76dcae3457)" style="fill: #1f77b4"/>
   </g>
   <g id="patch_5">
    <path d="M 46.310909 84.76 
L 48.591136 84.76 
L 48.591136 83.625148 
L 46.310909 83.625148 
z
" clip-path="url(#p76dcae3457)" style="fill: #1f77b4"/>
   </g>
   <g id="patch_6">
    <path d="M 48.591136 84.76 
L 50.871364 84.76 
L 50.871364 82.652417 
L 48.591136 82.652417 
z
" clip-path="url(#p76dcae3457)" style="fill: #1f77b4"/>
   </g>
   <g id="patch_7">
    <path d="M 50.871364 84.76 
L 53.151591 84.76 
L 53.151591 79.896347 
L 50.871364 79.896347 
z
" clip-path="url(#p76dcae3457)" style="fill: #1f77b4"/>
   </g>
   <g id="patch_8">
    <path d="M 53.151591 84.76 
L 55.431818 84.76 
L 55.431818 79.572104 
L 53.151591 79.572104 
z
" clip-path="url(#p76dcae3457)" style="fill: #1f77b4"/>
   </g>
   <g id="patch_9">
    <path d="M 55.431818 84.76 
L 57.712045 84.76 
L 57.712045 76.978156 
L 55.431818 76.978156 
z
" clip-path="url(#p76dcae3457)" style="fill: #1f77b4"/>
   </g>
   <g id="patch_10">
    <path d="M 57.712045 84.76 
L 59.992273 84.76 
L 59.992273 70.331163 
L 57.712045 70.331163 
z
" clip-path="url(#p76dcae3457)" style="fill: #1f77b4"/>
   </g>
   <g id="patch_11">
    <path d="M 59.992273 84.76 
L 62.2725 84.76 
L 62.2725 64.819024 
L 59.992273 64.819024 
z
" clip-path="url(#p76dcae3457)" style="fill: #1f77b4"/>
   </g>
   <g id="patch_12">
    <path d="M 62.2725 84.76 
L 64.552727 84.76 
L 64.552727 60.928101 
L 62.2725 60.928101 
z
" clip-path="url(#p76dcae3457)" style="fill: #1f77b4"/>
   </g>
   <g id="patch_13">
    <path d="M 64.552727 84.76 
L 66.832955 84.76 
L 66.832955 51.687161 
L 64.552727 51.687161 
z
" clip-path="url(#p76dcae3457)" style="fill: #1f77b4"/>
   </g>
   <g id="patch_14">
    <path d="M 66.832955 84.76 
L 69.113182 84.76 
L 69.113182 47.95836 
L 66.832955 47.95836 
z
" clip-path="url(#p76dcae3457)" style="fill: #1f77b4"/>
   </g>
   <g id="patch_15">
    <path d="M 69.113182 84.76 
L 71.393409 84.76 
L 71.393409 38.231055 
L 69.113182 38.231055 
z
" clip-path="url(#p76dcae3457)" style="fill: #1f77b4"/>
   </g>
   <g id="patch_16">
    <path d="M 71.393409 84.76 
L 73.673636 84.76 
L 73.673636 32.394671 
L 71.393409 32.394671 
z
" clip-path="url(#p76dcae3457)" style="fill: #1f77b4"/>
   </g>
   <g id="patch_17">
    <path d="M 73.673636 84.76 
L 75.953864 84.76 
L 75.953864 33.853767 
L 73.673636 33.853767 
z
" clip-path="url(#p76dcae3457)" style="fill: #1f77b4"/>
   </g>
   <g id="patch_18">
    <path d="M 75.953864 84.76 
L 78.234091 84.76 
L 78.234091 27.206775 
L 75.953864 27.206775 
z
" clip-path="url(#p76dcae3457)" style="fill: #1f77b4"/>
   </g>
   <g id="patch_19">
    <path d="M 78.234091 84.76 
L 80.514318 84.76 
L 80.514318 20.721905 
L 78.234091 20.721905 
z
" clip-path="url(#p76dcae3457)" style="fill: #1f77b4"/>
   </g>
   <g id="patch_20">
    <path d="M 80.514318 84.76 
L 82.794545 84.76 
L 82.794545 20.884027 
L 80.514318 20.884027 
z
" clip-path="url(#p76dcae3457)" style="fill: #1f77b4"/>
   </g>
   <g id="patch_21">
    <path d="M 82.794545 84.76 
L 85.074773 84.76 
L 85.074773 29.47648 
L 82.794545 29.47648 
z
" clip-path="url(#p76dcae3457)" style="fill: #1f77b4"/>
   </g>
   <g id="patch_22">
    <path d="M 85.074773 84.76 
L 87.355 84.76 
L 87.355 34.826498 
L 85.074773 34.826498 
z
" clip-path="url(#p76dcae3457)" style="fill: #1f77b4"/>
   </g>
   <g id="patch_23">
    <path d="M 87.355 84.76 
L 89.635227 84.76 
L 89.635227 41.959855 
L 87.355 41.959855 
z
" clip-path="url(#p76dcae3457)" style="fill: #1f77b4"/>
   </g>
   <g id="patch_24">
    <path d="M 89.635227 84.76 
L 91.915455 84.76 
L 91.915455 43.743195 
L 89.635227 43.743195 
z
" clip-path="url(#p76dcae3457)" style="fill: #1f77b4"/>
   </g>
   <g id="patch_25">
    <path d="M 91.915455 84.76 
L 94.195682 84.76 
L 94.195682 49.093213 
L 91.915455 49.093213 
z
" clip-path="url(#p76dcae3457)" style="fill: #1f77b4"/>
   </g>
   <g id="patch_26">
    <path d="M 94.195682 84.76 
L 96.475909 84.76 
L 96.475909 60.117492 
L 94.195682 60.117492 
z
" clip-path="url(#p76dcae3457)" style="fill: #1f77b4"/>
   </g>
   <g id="patch_27">
    <path d="M 96.475909 84.76 
L 98.756136 84.76 
L 98.756136 63.197806 
L 96.475909 63.197806 
z
" clip-path="url(#p76dcae3457)" style="fill: #1f77b4"/>
   </g>
   <g id="patch_28">
    <path d="M 98.756136 84.76 
L 101.036364 84.76 
L 101.036364 69.520555 
L 98.756136 69.520555 
z
" clip-path="url(#p76dcae3457)" style="fill: #1f77b4"/>
   </g>
   <g id="patch_29">
    <path d="M 101.036364 84.76 
L 103.316591 84.76 
L 103.316591 71.628137 
L 101.036364 71.628137 
z
" clip-path="url(#p76dcae3457)" style="fill: #1f77b4"/>
   </g>
   <g id="patch_30">
    <path d="M 103.316591 84.76 
L 105.596818 84.76 
L 105.596818 76.653912 
L 103.316591 76.653912 
z
" clip-path="url(#p76dcae3457)" style="fill: #1f77b4"/>
   </g>
   <g id="patch_31">
    <path d="M 105.596818 84.76 
L 107.877045 84.76 
L 107.877045 78.27513 
L 105.596818 78.27513 
z
" clip-path="url(#p76dcae3457)" style="fill: #1f77b4"/>
   </g>
   <g id="patch_32">
    <path d="M 107.877045 84.76 
L 110.157273 84.76 
L 110.157273 80.869078 
L 107.877045 80.869078 
z
" clip-path="url(#p76dcae3457)" style="fill: #1f77b4"/>
   </g>
   <g id="patch_33">
    <path d="M 110.157273 84.76 
L 112.4375 84.76 
L 112.4375 82.814539 
L 110.157273 82.814539 
z
" clip-path="url(#p76dcae3457)" style="fill: #1f77b4"/>
   </g>
   <g id="patch_34">
    <path d="M 112.4375 84.76 
L 114.717727 84.76 
L 114.717727 82.328174 
L 112.4375 82.328174 
z
" clip-path="url(#p76dcae3457)" style="fill: #1f77b4"/>
   </g>
   <g id="patch_35">
    <path d="M 114.717727 84.76 
L 116.997955 84.76 
L 116.997955 83.949391 
L 114.717727 83.949391 
z
" clip-path="url(#p76dcae3457)" style="fill: #1f77b4"/>
   </g>
   <g id="patch_36">
    <path d="M 116.997955 84.76 
L 119.278182 84.76 
L 119.278182 84.435756 
L 116.997955 84.435756 
z
" clip-path="url(#p76dcae3457)" style="fill: #1f77b4"/>
   </g>
   <g id="patch_37">
    <path d="M 119.278182 84.76 
L 121.558409 84.76 
L 121.558409 84.435756 
L 119.278182 84.435756 
z
" clip-path="url(#p76dcae3457)" style="fill: #1f77b4"/>
   </g>
   <g id="patch_38">
    <path d="M 121.558409 84.76 
L 123.838636 84.76 
L 123.838636 84.597878 
L 121.558409 84.597878 
z
" clip-path="url(#p76dcae3457)" style="fill: #1f77b4"/>
   </g>
   <g id="patch_39">
    <path d="M 123.838636 84.76 
L 126.118864 84.76 
L 126.118864 84.76 
L 123.838636 84.76 
z
" clip-path="url(#p76dcae3457)" style="fill: #1f77b4"/>
   </g>
   <g id="patch_40">
    <path d="M 126.118864 84.76 
L 128.399091 84.76 
L 128.399091 84.435756 
L 126.118864 84.435756 
z
" clip-path="url(#p76dcae3457)" style="fill: #1f77b4"/>
   </g>
   <g id="patch_41">
    <path d="M 128.399091 84.76 
L 130.679318 84.76 
L 130.679318 84.435756 
L 128.399091 84.435756 
z
" clip-path="url(#p76dcae3457)" style="fill: #1f77b4"/>
   </g>
   <g id="patch_42">
    <path d="M 130.679318 84.76 
L 132.959545 84.76 
L 132.959545 84.597878 
L 130.679318 84.597878 
z
" clip-path="url(#p76dcae3457)" style="fill: #1f77b4"/>
   </g>
   <g id="matplotlib.axis_1">
    <g id="xtick_1">
     <g id="line2d_1">
      <defs>
       <path id="m248e4564d6" d="M 0 0 
L 0 3.5 
" style="stroke: #000000; stroke-width: 0.8"/>
      </defs>
      <g>
       <use xlink:href="#m248e4564d6" x="44.552096" y="84.76" style="stroke: #000000; stroke-width: 0.8"/>
      </g>
     </g>
     <g id="text_1">
      <text style="font-size: 6px; font-family: 'DejaVu Sans', 'Arial', 'Helvetica', 'Lucida Grande', 'Verdana', 'Geneva', 'Lucid', 'Avant Garde', sans-serif; text-anchor: middle" x="44.552096" y="96.319063" transform="rotate(-0 44.552096 96.319063)">0.85</text>
     </g>
    </g>
    <g id="xtick_2">
     <g id="line2d_2">
      <g>
       <use xlink:href="#m248e4564d6" x="65.28344" y="84.76" style="stroke: #000000; stroke-width: 0.8"/>
      </g>
     </g>
     <g id="text_2">
      <text style="font-size: 6px; font-family: 'DejaVu Sans', 'Arial', 'Helvetica', 'Lucida Grande', 'Verdana', 'Geneva', 'Lucid', 'Avant Garde', sans-serif; text-anchor: middle" x="65.28344" y="96.319063" transform="rotate(-0 65.28344 96.319063)">0.90</text>
     </g>
    </g>
    <g id="xtick_3">
     <g id="line2d_3">
      <g>
       <use xlink:href="#m248e4564d6" x="86.014785" y="84.76" style="stroke: #000000; stroke-width: 0.8"/>
      </g>
     </g>
     <g id="text_3">
      <text style="font-size: 6px; font-family: 'DejaVu Sans', 'Arial', 'Helvetica', 'Lucida Grande', 'Verdana', 'Geneva', 'Lucid', 'Avant Garde', sans-serif; text-anchor: middle" x="86.014785" y="96.319063" transform="rotate(-0 86.014785 96.319063)">0.95</text>
     </g>
    </g>
    <g id="xtick_4">
     <g id="line2d_4">
      <g>
       <use xlink:href="#m248e4564d6" x="106.746129" y="84.76" style="stroke: #000000; stroke-width: 0.8"/>
      </g>
     </g>
     <g id="text_4">
      <text style="font-size: 6px; font-family: 'DejaVu Sans', 'Arial', 'Helvetica', 'Lucida Grande', 'Verdana', 'Geneva', 'Lucid', 'Avant Garde', sans-serif; text-anchor: middle" x="106.746129" y="96.319063" transform="rotate(-0 106.746129 96.319063)">1.00</text>
     </g>
    </g>
    <g id="xtick_5">
     <g id="line2d_5">
      <g>
       <use xlink:href="#m248e4564d6" x="127.477474" y="84.76" style="stroke: #000000; stroke-width: 0.8"/>
      </g>
     </g>
     <g id="text_5">
      <text style="font-size: 6px; font-family: 'DejaVu Sans', 'Arial', 'Helvetica', 'Lucida Grande', 'Verdana', 'Geneva', 'Lucid', 'Avant Garde', sans-serif; text-anchor: middle" x="127.477474" y="96.319063" transform="rotate(-0 127.477474 96.319063)">1.05</text>
     </g>
    </g>
    <g id="text_6">
     <text style="font-size: 6px; font-family: 'DejaVu Sans', 'Arial', 'Helvetica', 'Lucida Grande', 'Verdana', 'Geneva', 'Lucid', 'Avant Garde', sans-serif; text-anchor: middle" x="87.355" y="106.125938" transform="rotate(-0 87.355 106.125938)">value</text>
    </g>
   </g>
   <g id="matplotlib.axis_2">
    <g id="ytick_1">
     <g id="line2d_6">
      <defs>
       <path id="m9cfad1bb10" d="M 0 0 
L -3.5 0 
" style="stroke: #000000; stroke-width: 0.8"/>
      </defs>
      <g>
       <use xlink:href="#m9cfad1bb10" x="37.19" y="84.76" style="stroke: #000000; stroke-width: 0.8"/>
      </g>
     </g>
     <g id="text_7">
      <text style="font-size: 6px; font-family: 'DejaVu Sans', 'Arial', 'Helvetica', 'Lucida Grande', 'Verdana', 'Geneva', 'Lucid', 'Avant Garde', sans-serif; text-anchor: end" x="30.19" y="87.039531" transform="rotate(-0 30.19 87.039531)">0</text>
     </g>
    </g>
    <g id="ytick_2">
     <g id="line2d_7">
      <g>
       <use xlink:href="#m9cfad1bb10" x="37.19" y="62.470415" style="stroke: #000000; stroke-width: 0.8"/>
      </g>
     </g>
     <g id="text_8">
      <text style="font-size: 6px; font-family: 'DejaVu Sans', 'Arial', 'Helvetica', 'Lucida Grande', 'Verdana', 'Geneva', 'Lucid', 'Avant Garde', sans-serif; text-anchor: end" x="30.19" y="64.749946" transform="rotate(-0 30.19 64.749946)">5</text>
     </g>
    </g>
    <g id="ytick_3">
     <g id="line2d_8">
      <g>
       <use xlink:href="#m9cfad1bb10" x="37.19" y="40.180829" style="stroke: #000000; stroke-width: 0.8"/>
      </g>
     </g>
     <g id="text_9">
      <text style="font-size: 6px; font-family: 'DejaVu Sans', 'Arial', 'Helvetica', 'Lucida Grande', 'Verdana', 'Geneva', 'Lucid', 'Avant Garde', sans-serif; text-anchor: end" x="30.19" y="42.46036" transform="rotate(-0 30.19 42.46036)">10</text>
     </g>
    </g>
    <g id="ytick_4">
     <g id="line2d_9">
      <g>
       <use xlink:href="#m9cfad1bb10" x="37.19" y="17.891244" style="stroke: #000000; stroke-width: 0.8"/>
      </g>
     </g>
     <g id="text_10">
      <text style="font-size: 6px; font-family: 'DejaVu Sans', 'Arial', 'Helvetica', 'Lucida Grande', 'Verdana', 'Geneva', 'Lucid', 'Avant Garde', sans-serif; text-anchor: end" x="30.19" y="20.170775" transform="rotate(-0 30.19 20.170775)">15</text>
     </g>
    </g>
    <g id="text_11">
     <text style="font-size: 6px; font-family: 'DejaVu Sans', 'Arial', 'Helvetica', 'Lucida Grande', 'Verdana', 'Geneva', 'Lucid', 'Avant Garde', sans-serif; text-anchor: middle" x="17.307188" y="51.14" transform="rotate(-90 17.307188 51.14)">density</text>
    </g>
   </g>
   <g id="line2d_10">
    <path d="M 79.656853 84.76 
L 79.656853 17.52 
" clip-path="url(#p76dcae3457)" style="fill: none; stroke-dasharray: 3.7,1.6; stroke-dashoffset: 0; stroke: #1f77b4"/>
   </g>
   <g id="patch_43">
    <path d="M 37.19 84.76 
L 37.19 17.52 
" style="fill: none; stroke: #000000; stroke-width: 0.5; stroke-linejoin: miter; stroke-linecap: square"/>
   </g>
   <g id="patch_44">
    <path d="M 37.19 84.76 
L 137.52 84.76 
" style="fill: none; stroke: #000000; stroke-width: 0.5; stroke-linejoin: miter; stroke-linecap: square"/>
   </g>
   <g id="text_12">
    <text style="font-size: 6px; font-family: 'DejaVu Sans', 'Arial', 'Helvetica', 'Lucida Grande', 'Verdana', 'Geneva', 'Lucid', 'Avant Garde', sans-serif; text-anchor: middle" x="87.355" y="11.52" transform="rotate(-0 87.355 11.52)">mu0</text>
   </g>
  </g>
 </g>
 <defs>
  <clipPath id="p76dcae3457">
   <rect x="37.19" y="17.52" width="100.33" height="67.24"/>
  </clipPath>
 </defs>
</svg>
