<?xml version="1.0" encoding="utf-8" standalone="no"?>
<!DOCTYPE svg PUBLIC "-//W3C//DTD SVG 1.1//EN"
  "http://www.w3.org/Graphics/SVG/1.1/DTD/svg11.dtd">
<svg xmlns:xlink="http://www.w3.org/1999/xlink" width="144pt" height="115.2pt" viewBox="0 0 144 115.2" xmlns="http://www.w3.org/2000/svg" version="1.1">
 <metadata>
  <rdf:RDF xmlns:dc="http://purl.org/dc/elements/1.1/" xmlns:cc="http://creativecommons.org/ns#" xmlns:rdf="http://www.w3.org/1999/02/22-rdf-syntax-ns#">
   <cc:Work>
    <dc:type rdf:resource="http://purl.org/dc/dcmitype/StillImage"/>
    <dc:date>2026-02-16T13:07:35.509618</dc:date>
    <dc:format>image/svg+xml</dc:format>
    <dc:creator>
     <cc:Agent>
      <dc:title>Matplotlib v3.10.8, https://matplotlib.org/</dc:title>
     </cc:Agent>
    </dc:creator>
   </cc:Work>
  </rdf:RDF>
 </metadata>
 <defs>
  <style type="text/css">*{stroke-linejoin: round; stroke-linecap: butt}</style>
 </defs>
 <g id="figure_1">
  <g id="patch_1">
   <path d="M 0 115.2 
L 144 115.2 
L 144 0 
L 0 0 
L 0 115.2 
z
" style="fill: none"/>
  </g>
  <g id="axes_1">
   <g id="patch_2">
    <path d="M 31.52 84.76 
L 133.069136 84.76 
L 133.069136 17.52 
L 31.52 17.52 
L 31.52 84.76 
z
" style="fill: none"/>
   </g>
   <g id="patch_3">
    <path d="M 36.13587 84.76 
L 38.443805 84.76 
L 38.443805 84.593234 
L 36.13587 84.593234 
z
" clip-path="url(#p2724dda76e)" style="fill: #1f77b4"/>
   </g>
   <g id="patch_4">
    <path d="M 38.443805 84.76 
L 40.75174 84.76 
L 40.75174 84.092937 
L 38.443805 84.092937 
z
" clip-path="url(#p2724dda76e)" style="fill: #1f77b4"/>
   </g>
   <g id="patch_5">
    <path d="M 40.75174 84.76 
L 43.059675 84.76 
L 43.059675 83.926171 
L 40.75174 83.926171 
z
" clip-path="url(#p2724dda76e)" style="fill: #1f77b4"/>
   </g>
   <g id="patch_6">
    <path d="M 43.059675 84.76 
L 45.367609 84.76 
L 45.367609 81.424683 
L 43.059675 81.424683 
z
" clip-path="url(#p2724dda76e)" style="fill: #1f77b4"/>
   </g>
   <g id="patch_7">
    <path d="M 45.367609 84.76 
L 47.675544 84.76 
L 47.675544 79.590258 
L 45.367609 79.590258 
z
" clip-path="url(#p2724dda76e)" style="fill: #1f77b4"/>
   </g>
   <g id="patch_8">
    <path d="M 47.675544 84.76 
L 49.983479 84.76 
L 49.983479 74.587282 
L 47.675544 74.587282 
z
" clip-path="url(#p2724dda76e)" style="fill: #1f77b4"/>
   </g>
   <g id="patch_9">
    <path d="M 49.983479 84.76 
L 52.291414 84.76 
L 52.291414 69.917837 
L 49.983479 69.917837 
z
" clip-path="url(#p2724dda76e)" style="fill: #1f77b4"/>
   </g>
   <g id="patch_10">
    <path d="M 52.291414 84.76 
L 54.599349 84.76 
L 54.599349 60.412183 
L 52.291414 60.412183 
z
" clip-path="url(#p2724dda76e)" style="fill: #1f77b4"/>
   </g>
   <g id="patch_11">
    <path d="M 54.599349 84.76 
L 56.907284 84.76 
L 56.907284 53.24125 
L 54.599349 53.24125 
z
" clip-path="url(#p2724dda76e)" style="fill: #1f77b4"/>
   </g>
   <g id="patch_12">
    <path d="M 56.907284 84.76 
L 59.215219 84.76 
L 59.215219 45.57002 
L 56.907284 45.57002 
z
" clip-path="url(#p2724dda76e)" style="fill: #1f77b4"/>
   </g>
   <g id="patch_13">
    <path d="M 59.215219 84.76 
L 61.523154 84.76 
L 61.523154 35.06377 
L 59.215219 35.06377 
z
" clip-path="url(#p2724dda76e)" style="fill: #1f77b4"/>
   </g>
   <g id="patch_14">
    <path d="M 61.523154 84.76 
L 63.831089 84.76 
L 63.831089 26.892242 
L 61.523154 26.892242 
z
" clip-path="url(#p2724dda76e)" style="fill: #1f77b4"/>
   </g>
   <g id="patch_15">
    <path d="M 63.831089 84.76 
L 66.139024 84.76 
L 66.139024 27.39254 
L 63.831089 27.39254 
z
" clip-path="url(#p2724dda76e)" style="fill: #1f77b4"/>
   </g>
   <g id="patch_16">
    <path d="M 66.139024 84.76 
L 68.446958 84.76 
L 68.446958 20.721905 
L 66.139024 20.721905 
z
" clip-path="url(#p2724dda76e)" style="fill: #1f77b4"/>
   </g>
   <g id="patch_17">
    <path d="M 68.446958 84.76 
L 70.754893 84.76 
L 70.754893 25.891647 
L 68.446958 25.891647 
z
" clip-path="url(#p2724dda76e)" style="fill: #1f77b4"/>
   </g>
   <g id="patch_18">
    <path d="M 70.754893 84.76 
L 73.062828 84.76 
L 73.062828 23.223393 
L 70.754893 23.223393 
z
" clip-path="url(#p2724dda76e)" style="fill: #1f77b4"/>
   </g>
   <g id="patch_19">
    <path d="M 73.062828 84.76 
L 75.370763 84.76 
L 75.370763 24.057222 
L 73.062828 24.057222 
z
" clip-path="url(#p2724dda76e)" style="fill: #1f77b4"/>
   </g>
   <g id="patch_20">
    <path d="M 75.370763 84.76 
L 77.678698 84.76 
L 77.678698 32.562282 
L 75.370763 32.562282 
z
" clip-path="url(#p2724dda76e)" style="fill: #1f77b4"/>
   </g>
   <g id="patch_21">
    <path d="M 77.678698 84.76 
L 79.986633 84.76 
L 79.986633 36.397897 
L 77.678698 36.397897 
z
" clip-path="url(#p2724dda76e)" style="fill: #1f77b4"/>
   </g>
   <g id="patch_22">
    <path d="M 79.986633 84.76 
L 82.294568 84.76 
L 82.294568 41.234107 
L 79.986633 41.234107 
z
" clip-path="url(#p2724dda76e)" style="fill: #1f77b4"/>
   </g>
   <g id="patch_23">
    <path d="M 82.294568 84.76 
L 84.602503 84.76 
L 84.602503 48.738571 
L 82.294568 48.738571 
z
" clip-path="url(#p2724dda76e)" style="fill: #1f77b4"/>
   </g>
   <g id="patch_24">
    <path d="M 84.602503 84.76 
L 86.910438 84.76 
L 86.910438 56.07627 
L 84.602503 56.07627 
z
" clip-path="url(#p2724dda76e)" style="fill: #1f77b4"/>
   </g>
   <g id="patch_25">
    <path d="M 86.910438 84.76 
L 89.218373 84.76 
L 89.218373 63.914266 
L 86.910438 63.914266 
z
" clip-path="url(#p2724dda76e)" style="fill: #1f77b4"/>
   </g>
   <g id="patch_26">
    <path d="M 89.218373 84.76 
L 91.526307 84.76 
L 91.526307 69.41754 
L 89.218373 69.41754 
z
" clip-path="url(#p2724dda76e)" style="fill: #1f77b4"/>
   </g>
   <g id="patch_27">
    <path d="M 91.526307 84.76 
L 93.834242 84.76 
L 93.834242 72.419325 
L 91.526307 72.419325 
z
" clip-path="url(#p2724dda76e)" style="fill: #1f77b4"/>
   </g>
   <g id="patch_28">
    <path d="M 93.834242 84.76 
L 96.142177 84.76 
L 96.142177 74.420516 
L 93.834242 74.420516 
z
" clip-path="url(#p2724dda76e)" style="fill: #1f77b4"/>
   </g>
   <g id="patch_29">
    <path d="M 96.142177 84.76 
L 98.450112 84.76 
L 98.450112 75.421111 
L 96.142177 75.421111 
z
" clip-path="url(#p2724dda76e)" style="fill: #1f77b4"/>
   </g>
   <g id="patch_30">
    <path d="M 98.450112 84.76 
L 100.758047 84.76 
L 100.758047 78.422897 
L 98.450112 78.422897 
z
" clip-path="url(#p2724dda76e)" style="fill: #1f77b4"/>
   </g>
   <g id="patch_31">
    <path d="M 100.758047 84.76 
L 103.065982 84.76 
L 103.065982 81.424683 
L 100.758047 81.424683 
z
" clip-path="url(#p2724dda76e)" style="fill: #1f77b4"/>
   </g>
   <g id="patch_32">
    <path d="M 103.065982 84.76 
L 105.373917 84.76 
L 105.373917 81.92498 
L 103.065982 81.92498 
z
" clip-path="url(#p2724dda76e)" style="fill: #1f77b4"/>
   </g>
   <g id="patch_33">
    <path d="M 105.373917 84.76 
L 107.681852 84.76 
L 107.681852 83.759405 
L 105.373917 83.759405 
z
" clip-path="url(#p2724dda76e)" style="fill: #1f77b4"/>
   </g>
   <g id="patch_34">
    <path d="M 107.681852 84.76 
L 109.989787 84.76 
L 109.989787 84.259702 
L 107.681852 84.259702 
z
" clip-path="url(#p2724dda76e)" style="fill: #1f77b4"/>
   </g>
   <g id="patch_35">
    <path d="M 109.989787 84.76 
L 112.297722 84.76 
L 112.297722 84.092937 
L 109.989787 84.092937 
z
" clip-path="url(#p2724dda76e)" style="fill: #1f77b4"/>
   </g>
   <g id="patch_36">
    <path d="M 112.297722 84.76 
L 114.605656 84.76 
L 114.605656 84.426468 
L 112.297722 84.426468 
z
" clip-path="url(#p2724dda76e)" style="fill: #1f77b4"/>
   </g>
   <g id="patch_37">
    <path d="M 114.605656 84.76 
L 116.913591 84.76 
L 116.913591 84.092937 
L 114.605656 84.092937 
z
" clip-path="url(#p2724dda76e)" style="fill: #1f77b4"/>
   </g>
   <g id="patch_38">
    <path d="M 116.913591 84.76 
L 119.221526 84.76 
L 119.221526 84.259702 
L 116.913591 84.259702 
z
" clip-path="url(#p2724dda76e)" style="fill: #1f77b4"/>
   </g>
   <g id="patch_39">
    <path d="M 119.221526 84.76 
L 121.529461 84.76 
L 121.529461 84.593234 
L 119.221526 84.593234 
z
" clip-path="url(#p2724dda76e)" style="fill: #1f77b4"/>
   </g>
   <g id="patch_40">
    <path d="M 121.529461 84.76 
L 123.837396 84.76 
L 123.837396 84.76 
L 121.529461 84.76 
z
" clip-path="url(#p2724dda76e)" style="fill: #1f77b4"/>
   </g>
   <g id="patch_41">
    <path d="M 123.837396 84.76 
L 126.145331 84.76 
L 126.145331 84.76 
L 123.837396 84.76 
z
" clip-path="url(#p2724dda76e)" style="fill: #1f77b4"/>
   </g>
   <g id="patch_42">
    <path d="M 126.145331 84.76 
L 128.453266 84.76 
L 128.453266 84.593234 
L 126.145331 84.593234 
z
" clip-path="url(#p2724dda76e)" style="fill: #1f77b4"/>
   </g>
   <g id="matplotlib.axis_1">
    <g id="xtick_1">
     <g id="line2d_1">
      <defs>
       <path id="m0bd83b053e" d="M 0 0 
L 0 3.5 
" style="stroke: #000000; stroke-width: 0.8"/>
      </defs>
      <g>
       <use xlink:href="#m0bd83b053e" x="54.294741" y="84.76" style="stroke: #000000; stroke-width: 0.8"/>
      </g>
     </g>
     <g id="text_1">
      <text style="font-size: 6px; font-family: 'DejaVu Sans', 'Arial', 'Helvetica', 'Lucida Grande', 'Verdana', 'Geneva', 'Lucid', 'Avant Garde', sans-serif; text-anchor: middle" x="54.294741" y="96.319063" transform="rotate(-0 54.294741 96.319063)">0.15</text>
     </g>
    </g>
    <g id="xtick_2">
     <g id="line2d_2">
      <g>
       <use xlink:href="#m0bd83b053e" x="79.896463" y="84.76" style="stroke: #000000; stroke-width: 0.8"/>
      </g>
     </g>
     <g id="text_2">
      <text style="font-size: 6px; font-family: 'DejaVu Sans', 'Arial', 'Helvetica', 'Lucida Grande', 'Verdana', 'Geneva', 'Lucid', 'Avant Garde', sans-serif; text-anchor: middle" x="79.896463" y="96.319063" transform="rotate(-0 79.896463 96.319063)">0.20</text>
     </g>
    </g>
    <g id="xtick_3">
     <g id="line2d_3">
      <g>
       <use xlink:href="#m0bd83b053e" x="105.498184" y="84.76" style="stroke: #000000; stroke-width: 0.8"/>
      </g>
     </g>
     <g id="text_3">
      <text style="font-size: 6px; font-family: 'DejaVu Sans', 'Arial', 'Helvetica', 'Lucida Grande', 'Verdana', 'Geneva', 'Lucid', 'Avant Garde', sans-serif; text-anchor: middle" x="105.498184" y="96.319063" transform="rotate(-0 105.498184 96.319063)">0.25</text>
     </g>
    </g>
    <g id="xtick_4">
     <g id="line2d_4">
      <g>
       <use xlink:href="#m0bd83b053e" x="131.099905" y="84.76" style="stroke: #000000; stroke-width: 0.8"/>
      </g>
     </g>
     <g id="text_4">
      <text style="font-size: 6px; font-family: 'DejaVu Sans', 'Arial', 'Helvetica', 'Lucida Grande', 'Verdana', 'Geneva', 'Lucid', 'Avant Garde', sans-serif; text-anchor: middle" x="131.099905" y="96.319063" transform="rotate(-0 131.099905 96.319063)">0.30</text>
     </g>
    </g>
    <g id="text_5">
     <text style="font-size: 6px; font-family: 'DejaVu Sans', 'Arial', 'Helvetica', 'Lucida Grande', 'Verdana', 'Geneva', 'Lucid', 'Avant Garde', sans-serif; text-anchor: middle" x="82.294568" y="106.125938" transform="rotate(-0 82.294568 106.125938)">value</text>
    </g>
   </g>
   <g id="matplotlib.axis_2">
    <g id="ytick_1">
     <g id="line2d_5">
      <defs>
       <path id="m83f9ddcdd4" d="M 0 0 
L -3.5 0 
" style="stroke: #000000; stroke-width: 0.8"/>
      </defs>
      <g>
       <use xlink:href="#m83f9ddcdd4" x="31.52" y="84.76" style="stroke: #000000; stroke-width: 0.8"/>
      </g>
     </g>
     <g id="text_6">
      <text style="font-size: 6px; font-family: 'DejaVu Sans', 'Arial', 'Helvetica', 'Lucida Grande', 'Verdana', 'Geneva', 'Lucid', 'Avant Garde', sans-serif; text-anchor: end" x="24.52" y="87.039531" transform="rotate(-0 24.52 87.039531)">0</text>
     </g>
    </g>
    <g id="ytick_2">
     <g id="line2d_6">
      <g>
       <use xlink:href="#m83f9ddcdd4" x="31.52" y="65.968062" style="stroke: #000000; stroke-width: 0.8"/>
      </g>
     </g>
     <g id="text_7">
      <text style="font-size: 6px; font-family: 'DejaVu Sans', 'Arial', 'Helvetica', 'Lucida Grande', 'Verdana', 'Geneva', 'Lucid', 'Avant Garde', sans-serif; text-anchor: end" x="24.52" y="68.247593" transform="rotate(-0 24.52 68.247593)">5</text>
     </g>
    </g>
    <g id="ytick_3">
     <g id="line2d_7">
      <g>
       <use xlink:href="#m83f9ddcdd4" x="31.52" y="47.176123" style="stroke: #000000; stroke-width: 0.8"/>
      </g>
     </g>
     <g id="text_8">
      <text style="font-size: 6px; font-family: 'DejaVu Sans', 'Arial', 'Helvetica', 'Lucida Grande', 'Verdana', 'Geneva', 'Lucid', 'Avant Garde', sans-serif; text-anchor: end" x="24.52" y="49.455654" transform="rotate(-0 24.52 49.455654)">10</text>
     </g>
    </g>
    <g id="ytick_4">
     <g id="line2d_8">
      <g>
       <use xlink:href="#m83f9ddcdd4" x="31.52" y="28.384185" style="stroke: #000000; stroke-width: 0.8"/>
      </g>
     </g>
     <g id="text_9">
      <text style="font-size: 6px; font-family: 'DejaVu Sans', 'Arial', 'Helvetica', 'Lucida Grande', 'Verdana', 'Geneva', 'Lucid', 'Avant Garde', sans-serif; text-anchor: end" x="24.52" y="30.663716" transform="rotate(-0 24.52 30.663716)">15</text>
     </g>
    </g>
    <g id="text_10">
     <text style="font-size: 6px; font-family: 'DejaVu Sans', 'Arial', 'Helvetica', 'Lucida Grande', 'Verdana', 'Geneva', 'Lucid', 'Avant Garde', sans-serif; text-anchor: middle" x="11.637188" y="51.14" transform="rotate(-90 11.637188 51.14)">density</text>
    </g>
   </g>
   <g id="line2d_9">
    <path d="M 70.69639 84.76 
L 70.69639 17.52 
" clip-path="url(#p2724dda76e)" style="fill: none; stroke-dasharray: 3.7,1.6; stroke-dashoffset: 0; stroke: #1f77b4"/>
   </g>
   <g id="patch_43">
    <path d="M 31.52 84.76 
L 31.52 17.52 
" style="fill: none; stroke: #000000; stroke-width: 0.5; stroke-linejoin: miter; stroke-linecap: square"/>
   </g>
   <g id="patch_44">
    <path d="M 31.52 84.76 
L 133.069136 84.76 
" style="fill: none; stroke: #000000; stroke-width: 0.5; stroke-linejoin: miter; stroke-linecap: square"/>
   </g>
   <g id="text_11">
    <text style="font-size: 6px; font-family: 'DejaVu Sans', 'Arial', 'Helvetica', 'Lucida Grande', 'Verdana', 'Geneva', 'Lucid', 'Avant Garde', sans-serif; text-anchor: middle" x="82.294568" y="11.52" transform="rotate(-0 82.294568 11.52)">mu24p</text>
   </g>
  </g>
 </g>
 <defs>
  <clipPath id="p2724dda76e">
   <rect x="31.52" y="17.52" width="101.549136" height="67.24"/>
  </clipPath>
 </defs>
</svg>
