<?xml version="1.0" encoding="utf-8" standalone="no"?>
<!DOCTYPE svg PUBLIC "-//W3C//DTD SVG 1.1//EN"
  "http://www.w3.org/Graphics/SVG/1.1/DTD/svg11.dtd">
<svg xmlns:xlink="http://www.w3.org/1999/xlink" width="216pt" height="144pt" viewBox="0 0 216 144" xmlns="http://www.w3.org/2000/svg" version="1.1">
 <metadata>
  <rdf:RDF xmlns:dc="http://purl.org/dc/elements/1.1/" xmlns:cc="http://creativecommons.org/ns#" xmlns:rdf="http://www.w3.org/1999/02/22-rdf-syntax-ns#">
   <cc:Work>
    <dc:type rdf:resource="http://purl.org/dc/dcmitype/StillImage"/>
    <dc:date>2026-02-16T19:47:10.222404</dc:date>
    <dc:format>image/svg+xml</dc:format>
    <dc:creator>
     <cc:Agent>
      <dc:title>Matplotlib v3.10.8, https://matplotlib.org/</dc:title>
     </cc:Agent>
    </dc:creator>
   </cc:Work>
  </rdf:RDF>
 </metadata>
 <defs>
  <style type="text/css">*{stroke-linejoin: round; stroke-linecap: butt}</style>
 </defs>
 <g id="figure_1">
  <g id="patch_1">
   <path d="M 0 144 
L 216 144 
L 216 0 
L 0 0 
L 0 144 
z
" style="fill: none"/>
  </g>
  <g id="axes_1">
   <g id="patch_2">
    <path d="M 40.34 111.112 
L 209.52 111.112 
L 209.52 17.52 
L 40.34 17.52 
L 40.34 111.112 
z
" style="fill: none"/>
   </g>
   <g id="matplotlib.axis_1">
    <g id="xtick_1">
     <g id="line2d_1">
      <defs>
       <path id="mf5820efe7d" d="M 0 0 
L 0 3.5 
" style="stroke: #000000; stroke-width: 0.8"/>
      </defs>
      <g>
       <use xlink:href="#mf5820efe7d" x="112.661825" y="111.112" style="stroke: #000000; stroke-width: 0.8"/>
      </g>
     </g>
     <g id="text_1">
      <!-- $\mathdefault{10^{-1}}$ -->
      <g transform="translate(105.611825 122.671063)">
       <text>
        <tspan x="0" y="-0.640625" style="font-size: 6px; font-family: 'DejaVu Sans'">1</tspan>
        <tspan x="3.817383" y="-0.640625" style="font-size: 6px; font-family: 'DejaVu Sans'">0</tspan>
        <tspan x="7.692188" y="-2.9375" style="font-size: 4.2px; font-family: 'DejaVu Sans'">−</tspan>
        <tspan x="11.211328" y="-2.9375" style="font-size: 4.2px; font-family: 'DejaVu Sans'">1</tspan>
       </text>
      </g>
     </g>
    </g>
    <g id="xtick_2"/>
    <g id="xtick_3"/>
    <g id="xtick_4"/>
    <g id="xtick_5"/>
    <g id="xtick_6"/>
    <g id="xtick_7"/>
    <g id="xtick_8"/>
    <g id="xtick_9"/>
    <g id="xtick_10"/>
    <g id="xtick_11"/>
    <g id="xtick_12"/>
    <g id="xtick_13"/>
    <g id="text_2">
     <text style="font-size: 6px; font-family: 'DejaVu Sans', 'Arial', 'Helvetica', 'Lucida Grande', 'Verdana', 'Geneva', 'Lucid', 'Avant Garde', sans-serif; text-anchor: middle" x="124.93" y="132.477937" transform="rotate(-0 124.93 132.477937)">mu24p</text>
    </g>
   </g>
   <g id="matplotlib.axis_2">
    <g id="ytick_1">
     <g id="line2d_2">
      <defs>
       <path id="m707b511c9f" d="M 0 0 
L -3.5 0 
" style="stroke: #000000; stroke-width: 0.8"/>
      </defs>
      <g>
       <use xlink:href="#m707b511c9f" x="40.34" y="100.533629" style="stroke: #000000; stroke-width: 0.8"/>
      </g>
     </g>
     <g id="text_3">
      <text style="font-size: 6px; font-family: 'DejaVu Sans', 'Arial', 'Helvetica', 'Lucida Grande', 'Verdana', 'Geneva', 'Lucid', 'Avant Garde', sans-serif; text-anchor: end" x="33.34" y="102.81316" transform="rotate(-0 33.34 102.81316)">−400</text>
     </g>
    </g>
    <g id="ytick_2">
     <g id="line2d_3">
      <g>
       <use xlink:href="#m707b511c9f" x="40.34" y="80.275155" style="stroke: #000000; stroke-width: 0.8"/>
      </g>
     </g>
     <g id="text_4">
      <text style="font-size: 6px; font-family: 'DejaVu Sans', 'Arial', 'Helvetica', 'Lucida Grande', 'Verdana', 'Geneva', 'Lucid', 'Avant Garde', sans-serif; text-anchor: end" x="33.34" y="82.554686" transform="rotate(-0 33.34 82.554686)">−200</text>
     </g>
    </g>
    <g id="ytick_3">
     <g id="line2d_4">
      <g>
       <use xlink:href="#m707b511c9f" x="40.34" y="60.01668" style="stroke: #000000; stroke-width: 0.8"/>
      </g>
     </g>
     <g id="text_5">
      <text style="font-size: 6px; font-family: 'DejaVu Sans', 'Arial', 'Helvetica', 'Lucida Grande', 'Verdana', 'Geneva', 'Lucid', 'Avant Garde', sans-serif; text-anchor: end" x="33.34" y="62.296212" transform="rotate(-0 33.34 62.296212)">0</text>
     </g>
    </g>
    <g id="ytick_4">
     <g id="line2d_5">
      <g>
       <use xlink:href="#m707b511c9f" x="40.34" y="39.758206" style="stroke: #000000; stroke-width: 0.8"/>
      </g>
     </g>
     <g id="text_6">
      <text style="font-size: 6px; font-family: 'DejaVu Sans', 'Arial', 'Helvetica', 'Lucida Grande', 'Verdana', 'Geneva', 'Lucid', 'Avant Garde', sans-serif; text-anchor: end" x="33.34" y="42.037737" transform="rotate(-0 33.34 42.037737)">200</text>
     </g>
    </g>
    <g id="ytick_5">
     <g id="line2d_6">
      <g>
       <use xlink:href="#m707b511c9f" x="40.34" y="19.499732" style="stroke: #000000; stroke-width: 0.8"/>
      </g>
     </g>
     <g id="text_7">
      <text style="font-size: 6px; font-family: 'DejaVu Sans', 'Arial', 'Helvetica', 'Lucida Grande', 'Verdana', 'Geneva', 'Lucid', 'Avant Garde', sans-serif; text-anchor: end" x="33.34" y="21.779263" transform="rotate(-0 33.34 21.779263)">400</text>
     </g>
    </g>
    <g id="text_8">
     <text style="font-size: 6px; font-family: 'DejaVu Sans', 'Arial', 'Helvetica', 'Lucida Grande', 'Verdana', 'Geneva', 'Lucid', 'Avant Garde', sans-serif; text-anchor: middle" x="11.611875" y="64.316" transform="rotate(-90 11.611875 64.316)">ΔNLL</text>
    </g>
   </g>
   <g id="line2d_7">
    <path d="M 48.03 102.295133 
L 51.97359 102.360979 
L 55.917179 102.483017 
L 59.860769 101.340892 
L 63.804359 102.858572 
L 67.747949 103.017552 
L 71.691538 102.555641 
L 75.635128 102.140145 
L 79.578718 103.569169 
L 83.522308 103.724288 
L 87.465897 103.981674 
L 91.409487 104.203178 
L 95.353077 104.428466 
L 99.296667 104.668774 
L 103.240256 104.914789 
L 107.183846 105.192498 
L 111.127436 105.582266 
L 115.071026 105.660125 
L 119.014615 105.883224 
L 122.958205 105.999522 
L 126.901795 106.358995 
L 130.845385 106.552597 
L 134.788974 106.71014 
L 138.732564 106.821785 
L 142.676154 106.857818 
L 146.619744 106.82988 
L 150.563333 106.687825 
L 154.506923 105.499717 
L 158.450513 105.952068 
L 162.394103 105.310078 
L 166.337692 104.315489 
L 170.281282 103.444632 
L 174.224872 101.897784 
L 178.168462 99.633873 
L 182.112051 96.798483 
L 186.055641 93.176405 
L 189.999231 86.699493 
L 193.942821 82.870021 
L 197.88641 21.774182 
L 201.83 66.860958 
" clip-path="url(#p9e6abf9b4f)" style="fill: none; stroke: #1f77b4; stroke-linecap: square"/>
   </g>
   <g id="line2d_8">
    <path d="M 40.34 59.822199 
L 209.52 59.822199 
" clip-path="url(#p9e6abf9b4f)" style="fill: none; stroke-dasharray: 3.7,1.6; stroke-dashoffset: 0; stroke: #b22222"/>
   </g>
   <g id="line2d_9">
    <path d="M 124.93 111.112 
L 124.93 17.52 
" clip-path="url(#p9e6abf9b4f)" style="fill: none; stroke-dasharray: 1,1.65; stroke-dashoffset: 0; stroke: #000000"/>
   </g>
   <g id="patch_3">
    <path d="M 40.34 111.112 
L 40.34 17.52 
" style="fill: none; stroke: #000000; stroke-width: 0.5; stroke-linejoin: miter; stroke-linecap: square"/>
   </g>
   <g id="patch_4">
    <path d="M 40.34 111.112 
L 209.52 111.112 
" style="fill: none; stroke: #000000; stroke-width: 0.5; stroke-linejoin: miter; stroke-linecap: square"/>
   </g>
   <g id="text_9">
    <text style="font-size: 6px; font-family: 'DejaVu Sans', 'Arial', 'Helvetica', 'Lucida Grande', 'Verdana', 'Geneva', 'Lucid', 'Avant Garde', sans-serif; text-anchor: middle" x="124.93" y="11.52" transform="rotate(-0 124.93 11.52)">Profile likelihood for mu24p</text>
   </g>
   <g id="legend_1">
    <g id="patch_5">
     <path d="M 44.54 39.93375 
L 115.102813 39.93375 
Q 116.302813 39.93375 116.302813 38.73375 
L 116.302813 21.72 
Q 116.302813 20.52 115.102813 20.52 
L 44.54 20.52 
Q 43.34 20.52 43.34 21.72 
L 43.34 38.73375 
Q 43.34 39.93375 44.54 39.93375 
z
" style="fill: #ffffff; opacity: 0.8; stroke: #cccccc; stroke-linejoin: miter"/>
    </g>
    <g id="line2d_10">
     <path d="M 45.74 25.379062 
L 51.74 25.379062 
L 57.74 25.379062 
" style="fill: none; stroke-dasharray: 3.7,1.6; stroke-dashoffset: 0; stroke: #b22222"/>
    </g>
    <g id="text_10">
     <text style="font-size: 6px; font-family: 'DejaVu Sans', 'Arial', 'Helvetica', 'Lucida Grande', 'Verdana', 'Geneva', 'Lucid', 'Avant Garde', sans-serif; text-anchor: start" x="62.54" y="27.479062" transform="rotate(-0 62.54 27.479062)">95% CI threshold</text>
    </g>
    <g id="line2d_11">
     <path d="M 45.74 34.185937 
L 51.74 34.185937 
L 57.74 34.185937 
" style="fill: none; stroke-dasharray: 1,1.65; stroke-dashoffset: 0; stroke: #000000"/>
    </g>
    <g id="text_11">
     <text style="font-size: 6px; font-family: 'DejaVu Sans', 'Arial', 'Helvetica', 'Lucida Grande', 'Verdana', 'Geneva', 'Lucid', 'Avant Garde', sans-serif; text-anchor: start" x="62.54" y="36.285937" transform="rotate(-0 62.54 36.285937)">optimum</text>
    </g>
   </g>
  </g>
 </g>
 <defs>
  <clipPath id="p9e6abf9b4f">
   <rect x="40.34" y="17.52" width="169.18" height="93.592"/>
  </clipPath>
 </defs>
</svg>
