<?xml version="1.0" encoding="utf-8" standalone="no"?>
<!DOCTYPE svg PUBLIC "-//W3C//DTD SVG 1.1//EN"
  "http://www.w3.org/Graphics/SVG/1.1/DTD/svg11.dtd">
<svg xmlns:xlink="http://www.w3.org/1999/xlink" width="216pt" height="144pt" viewBox="0 0 216 144" xmlns="http://www.w3.org/2000/svg" version="1.1">
 <metadata>
  <rdf:RDF xmlns:dc="http://purl.org/dc/elements/1.1/" xmlns:cc="http://creativecommons.org/ns#" xmlns:rdf="http://www.w3.org/1999/02/22-rdf-syntax-ns#">
   <cc:Work>
    <dc:type rdf:resource="http://purl.org/dc/dcmitype/StillImage"/>
    <dc:date>2026-02-16T18:23:11.659352</dc:date>
    <dc:format>image/svg+xml</dc:format>
    <dc:creator>
     <cc:Agent>
      <dc:title>Matplotlib v3.10.8, https://matplotlib.org/</dc:title>
     </cc:Agent>
    </dc:creator>
   </cc:Work>
  </rdf:RDF>
 </metadata>
 <defs>
  <style type="text/css">*{stroke-linejoin: round; stroke-linecap: butt}</style>
 </defs>
 <g id="figure_1">
  <g id="patch_1">
   <path d="M 0 144 
L 216 144 
L 216 0 
L 0 0 
L 0 144 
z
" style="fill: none"/>
  </g>
  <g id="axes_1">
   <g id="patch_2">
    <path d="M 42.86 111.112 
L 209.52 111.112 
L 209.52 17.52 
L 42.86 17.52 
L 42.86 111.112 
z
" style="fill: none"/>
   </g>
   <g id="matplotlib.axis_1">
    <g id="xtick_1">
     <g id="line2d_1">
      <defs>
       <path id="m825c522996" d="M 0 0 
L 0 3.5 
" style="stroke: #000000; stroke-width: 0.8"/>
      </defs>
      <g>
       <use xlink:href="#m825c522996" x="116.181987" y="111.112" style="stroke: #000000; stroke-width: 0.8"/>
      </g>
     </g>
     <g id="text_1">
      <!-- $\mathdefault{10^{0}}$ -->
      <g transform="translate(110.901987 122.671063)">
       <text>
        <tspan x="0" y="-0.585938" style="font-size: 6px; font-family: 'DejaVu Sans'">1</tspan>
        <tspan x="3.817383" y="-0.585938" style="font-size: 6px; font-family: 'DejaVu Sans'">0</tspan>
        <tspan x="7.692188" y="-2.882812" style="font-size: 4.2px; font-family: 'DejaVu Sans'">0</tspan>
       </text>
      </g>
     </g>
    </g>
    <g id="xtick_2"/>
    <g id="xtick_3"/>
    <g id="xtick_4"/>
    <g id="xtick_5"/>
    <g id="xtick_6"/>
    <g id="xtick_7"/>
    <g id="xtick_8"/>
    <g id="xtick_9"/>
    <g id="xtick_10"/>
    <g id="xtick_11"/>
    <g id="xtick_12"/>
    <g id="xtick_13"/>
    <g id="text_2">
     <text style="font-size: 6px; font-family: 'DejaVu Sans', 'Arial', 'Helvetica', 'Lucida Grande', 'Verdana', 'Geneva', 'Lucid', 'Avant Garde', sans-serif; text-anchor: middle" x="126.19" y="132.477937" transform="rotate(-0 126.19 132.477937)">n</text>
    </g>
   </g>
   <g id="matplotlib.axis_2">
    <g id="ytick_1">
     <g id="line2d_2">
      <defs>
       <path id="m556a38d772" d="M 0 0 
L -3.5 0 
" style="stroke: #000000; stroke-width: 0.8"/>
      </defs>
      <g>
       <use xlink:href="#m556a38d772" x="42.86" y="105.06453" style="stroke: #000000; stroke-width: 0.8"/>
      </g>
     </g>
     <g id="text_3">
      <text style="font-size: 6px; font-family: 'DejaVu Sans', 'Arial', 'Helvetica', 'Lucida Grande', 'Verdana', 'Geneva', 'Lucid', 'Avant Garde', sans-serif; text-anchor: end" x="35.86" y="107.344061" transform="rotate(-0 35.86 107.344061)">0</text>
     </g>
    </g>
    <g id="ytick_2">
     <g id="line2d_3">
      <g>
       <use xlink:href="#m556a38d772" x="42.86" y="86.393401" style="stroke: #000000; stroke-width: 0.8"/>
      </g>
     </g>
     <g id="text_4">
      <text style="font-size: 6px; font-family: 'DejaVu Sans', 'Arial', 'Helvetica', 'Lucida Grande', 'Verdana', 'Geneva', 'Lucid', 'Avant Garde', sans-serif; text-anchor: end" x="35.86" y="88.672932" transform="rotate(-0 35.86 88.672932)">5000</text>
     </g>
    </g>
    <g id="ytick_3">
     <g id="line2d_4">
      <g>
       <use xlink:href="#m556a38d772" x="42.86" y="67.722273" style="stroke: #000000; stroke-width: 0.8"/>
      </g>
     </g>
     <g id="text_5">
      <text style="font-size: 6px; font-family: 'DejaVu Sans', 'Arial', 'Helvetica', 'Lucida Grande', 'Verdana', 'Geneva', 'Lucid', 'Avant Garde', sans-serif; text-anchor: end" x="35.86" y="70.001804" transform="rotate(-0 35.86 70.001804)">10000</text>
     </g>
    </g>
    <g id="ytick_4">
     <g id="line2d_5">
      <g>
       <use xlink:href="#m556a38d772" x="42.86" y="49.051144" style="stroke: #000000; stroke-width: 0.8"/>
      </g>
     </g>
     <g id="text_6">
      <text style="font-size: 6px; font-family: 'DejaVu Sans', 'Arial', 'Helvetica', 'Lucida Grande', 'Verdana', 'Geneva', 'Lucid', 'Avant Garde', sans-serif; text-anchor: end" x="35.86" y="51.330676" transform="rotate(-0 35.86 51.330676)">15000</text>
     </g>
    </g>
    <g id="ytick_5">
     <g id="line2d_6">
      <g>
       <use xlink:href="#m556a38d772" x="42.86" y="30.380016" style="stroke: #000000; stroke-width: 0.8"/>
      </g>
     </g>
     <g id="text_7">
      <text style="font-size: 6px; font-family: 'DejaVu Sans', 'Arial', 'Helvetica', 'Lucida Grande', 'Verdana', 'Geneva', 'Lucid', 'Avant Garde', sans-serif; text-anchor: end" x="35.86" y="32.659547" transform="rotate(-0 35.86 32.659547)">20000</text>
     </g>
    </g>
    <g id="text_8">
     <text style="font-size: 6px; font-family: 'DejaVu Sans', 'Arial', 'Helvetica', 'Lucida Grande', 'Verdana', 'Geneva', 'Lucid', 'Avant Garde', sans-serif; text-anchor: middle" x="11.524687" y="64.316" transform="rotate(-90 11.524687 64.316)">ΔNLL</text>
    </g>
   </g>
   <g id="line2d_7">
    <path d="M 50.435455 91.778012 
L 54.320303 92.863687 
L 58.205152 93.964463 
L 62.09 95.076027 
L 65.974848 96.197751 
L 69.859697 97.314979 
L 73.744545 98.425619 
L 77.629394 99.513427 
L 81.514242 100.570267 
L 85.399091 101.31869 
L 89.283939 102.502333 
L 93.168788 103.401103 
L 97.053636 104.175807 
L 100.938485 104.834824 
L 104.823333 105.362125 
L 108.708182 105.736951 
L 112.59303 105.960027 
L 116.477879 106.208663 
L 120.362727 106.473998 
L 124.247576 106.684564 
L 128.132424 106.814664 
L 132.017273 106.857818 
L 135.902121 106.80774 
L 139.78697 106.657273 
L 143.671818 106.398427 
L 147.556667 105.983013 
L 151.441515 105.523323 
L 155.326364 104.893466 
L 159.211212 104.129826 
L 163.096061 102.813187 
L 166.980909 100.895379 
L 170.865758 94.586771 
L 174.750606 93.746778 
L 178.635455 89.329363 
L 182.520303 84.763148 
L 186.405152 79.477858 
L 190.29 72.75281 
L 194.174848 65.117802 
L 198.059697 21.774182 
L 201.944545 48.901361 
" clip-path="url(#p1a8da8fc20)" style="fill: none; stroke: #1f77b4; stroke-linecap: square"/>
   </g>
   <g id="line2d_8">
    <path d="M 42.86 105.05736 
L 209.52 105.05736 
" clip-path="url(#p1a8da8fc20)" style="fill: none; stroke-dasharray: 3.7,1.6; stroke-dashoffset: 0; stroke: #b22222"/>
   </g>
   <g id="line2d_9">
    <path d="M 126.19 111.112 
L 126.19 17.52 
" clip-path="url(#p1a8da8fc20)" style="fill: none; stroke-dasharray: 1,1.65; stroke-dashoffset: 0; stroke: #000000"/>
   </g>
   <g id="patch_3">
    <path d="M 42.86 111.112 
L 42.86 17.52 
" style="fill: none; stroke: #000000; stroke-width: 0.5; stroke-linejoin: miter; stroke-linecap: square"/>
   </g>
   <g id="patch_4">
    <path d="M 42.86 111.112 
L 209.52 111.112 
" style="fill: none; stroke: #000000; stroke-width: 0.5; stroke-linejoin: miter; stroke-linecap: square"/>
   </g>
   <g id="text_9">
    <text style="font-size: 6px; font-family: 'DejaVu Sans', 'Arial', 'Helvetica', 'Lucida Grande', 'Verdana', 'Geneva', 'Lucid', 'Avant Garde', sans-serif; text-anchor: middle" x="126.19" y="11.52" transform="rotate(-0 126.19 11.52)">Profile likelihood for n</text>
   </g>
   <g id="legend_1">
    <g id="patch_5">
     <path d="M 47.06 39.93375 
L 117.622812 39.93375 
Q 118.822812 39.93375 118.822812 38.73375 
L 118.822812 21.72 
Q 118.822812 20.52 117.622812 20.52 
L 47.06 20.52 
Q 45.86 20.52 45.86 21.72 
L 45.86 38.73375 
Q 45.86 39.93375 47.06 39.93375 
z
" style="fill: #ffffff; opacity: 0.8; stroke: #cccccc; stroke-linejoin: miter"/>
    </g>
    <g id="line2d_10">
     <path d="M 48.26 25.379062 
L 54.26 25.379062 
L 60.26 25.379062 
" style="fill: none; stroke-dasharray: 3.7,1.6; stroke-dashoffset: 0; stroke: #b22222"/>
    </g>
    <g id="text_10">
     <text style="font-size: 6px; font-family: 'DejaVu Sans', 'Arial', 'Helvetica', 'Lucida Grande', 'Verdana', 'Geneva', 'Lucid', 'Avant Garde', sans-serif; text-anchor: start" x="65.06" y="27.479062" transform="rotate(-0 65.06 27.479062)">95% CI threshold</text>
    </g>
    <g id="line2d_11">
     <path d="M 48.26 34.185937 
L 54.26 34.185937 
L 60.26 34.185937 
" style="fill: none; stroke-dasharray: 1,1.65; stroke-dashoffset: 0; stroke: #000000"/>
    </g>
    <g id="text_11">
     <text style="font-size: 6px; font-family: 'DejaVu Sans', 'Arial', 'Helvetica', 'Lucida Grande', 'Verdana', 'Geneva', 'Lucid', 'Avant Garde', sans-serif; text-anchor: start" x="65.06" y="36.285937" transform="rotate(-0 65.06 36.285937)">optimum</text>
    </g>
   </g>
  </g>
 </g>
 <defs>
  <clipPath id="p1a8da8fc20">
   <rect x="42.86" y="17.52" width="166.66" height="93.592"/>
  </clipPath>
 </defs>
</svg>
