<?xml version="1.0" encoding="utf-8" standalone="no"?>
<!DOCTYPE svg PUBLIC "-//W3C//DTD SVG 1.1//EN"
  "http://www.w3.org/Graphics/SVG/1.1/DTD/svg11.dtd">
<svg xmlns:xlink="http://www.w3.org/1999/xlink" width="216pt" height="144pt" viewBox="0 0 216 144" xmlns="http://www.w3.org/2000/svg" version="1.1">
 <metadata>
  <rdf:RDF xmlns:dc="http://purl.org/dc/elements/1.1/" xmlns:cc="http://creativecommons.org/ns#" xmlns:rdf="http://www.w3.org/1999/02/22-rdf-syntax-ns#">
   <cc:Work>
    <dc:type rdf:resource="http://purl.org/dc/dcmitype/StillImage"/>
    <dc:date>2026-02-16T19:46:21.183731</dc:date>
    <dc:format>image/svg+xml</dc:format>
    <dc:creator>
     <cc:Agent>
      <dc:title>Matplotlib v3.10.8, https://matplotlib.org/</dc:title>
     </cc:Agent>
    </dc:creator>
   </cc:Work>
  </rdf:RDF>
 </metadata>
 <defs>
  <style type="text/css">*{stroke-linejoin: round; stroke-linecap: butt}</style>
 </defs>
 <g id="figure_1">
  <g id="patch_1">
   <path d="M 0 144 
L 216 144 
L 216 0 
L 0 0 
L 0 144 
z
" style="fill: none"/>
  </g>
  <g id="axes_1">
   <g id="patch_2">
    <path d="M 39.08 111.112 
L 209.52 111.112 
L 209.52 17.52 
L 39.08 17.52 
L 39.08 111.112 
z
" style="fill: none"/>
   </g>
   <g id="matplotlib.axis_1">
    <g id="xtick_1">
     <g id="line2d_1">
      <defs>
       <path id="m1d06e3ac2b" d="M 0 0 
L 0 3.5 
" style="stroke: #000000; stroke-width: 0.8"/>
      </defs>
      <g>
       <use xlink:href="#m1d06e3ac2b" x="156.13625" y="111.112" style="stroke: #000000; stroke-width: 0.8"/>
      </g>
     </g>
     <g id="text_1">
      <!-- $\mathdefault{10^{2}}$ -->
      <g transform="translate(150.85625 122.671063)">
       <text>
        <tspan x="0" y="-0.585938" style="font-size: 6px; font-family: 'DejaVu Sans'">1</tspan>
        <tspan x="3.817383" y="-0.585938" style="font-size: 6px; font-family: 'DejaVu Sans'">0</tspan>
        <tspan x="7.692188" y="-2.882812" style="font-size: 4.2px; font-family: 'DejaVu Sans'">2</tspan>
       </text>
      </g>
     </g>
    </g>
    <g id="xtick_2"/>
    <g id="xtick_3"/>
    <g id="xtick_4"/>
    <g id="xtick_5"/>
    <g id="xtick_6"/>
    <g id="xtick_7"/>
    <g id="xtick_8"/>
    <g id="xtick_9"/>
    <g id="xtick_10"/>
    <g id="text_2">
     <text style="font-size: 6px; font-family: 'DejaVu Sans', 'Arial', 'Helvetica', 'Lucida Grande', 'Verdana', 'Geneva', 'Lucid', 'Avant Garde', sans-serif; text-anchor: middle" x="124.3" y="132.477937" transform="rotate(-0 124.3 132.477937)">a50</text>
    </g>
   </g>
   <g id="matplotlib.axis_2">
    <g id="ytick_1">
     <g id="line2d_2">
      <defs>
       <path id="me7776c813c" d="M 0 0 
L -3.5 0 
" style="stroke: #000000; stroke-width: 0.8"/>
      </defs>
      <g>
       <use xlink:href="#me7776c813c" x="39.08" y="107.291179" style="stroke: #000000; stroke-width: 0.8"/>
      </g>
     </g>
     <g id="text_3">
      <text style="font-size: 6px; font-family: 'DejaVu Sans', 'Arial', 'Helvetica', 'Lucida Grande', 'Verdana', 'Geneva', 'Lucid', 'Avant Garde', sans-serif; text-anchor: end" x="32.08" y="109.57071" transform="rotate(-0 32.08 109.57071)">0</text>
     </g>
    </g>
    <g id="ytick_2">
     <g id="line2d_3">
      <g>
       <use xlink:href="#me7776c813c" x="39.08" y="91.055625" style="stroke: #000000; stroke-width: 0.8"/>
      </g>
     </g>
     <g id="text_4">
      <text style="font-size: 6px; font-family: 'DejaVu Sans', 'Arial', 'Helvetica', 'Lucida Grande', 'Verdana', 'Geneva', 'Lucid', 'Avant Garde', sans-serif; text-anchor: end" x="32.08" y="93.335156" transform="rotate(-0 32.08 93.335156)">200</text>
     </g>
    </g>
    <g id="ytick_3">
     <g id="line2d_4">
      <g>
       <use xlink:href="#me7776c813c" x="39.08" y="74.82007" style="stroke: #000000; stroke-width: 0.8"/>
      </g>
     </g>
     <g id="text_5">
      <text style="font-size: 6px; font-family: 'DejaVu Sans', 'Arial', 'Helvetica', 'Lucida Grande', 'Verdana', 'Geneva', 'Lucid', 'Avant Garde', sans-serif; text-anchor: end" x="32.08" y="77.099602" transform="rotate(-0 32.08 77.099602)">400</text>
     </g>
    </g>
    <g id="ytick_4">
     <g id="line2d_5">
      <g>
       <use xlink:href="#me7776c813c" x="39.08" y="58.584516" style="stroke: #000000; stroke-width: 0.8"/>
      </g>
     </g>
     <g id="text_6">
      <text style="font-size: 6px; font-family: 'DejaVu Sans', 'Arial', 'Helvetica', 'Lucida Grande', 'Verdana', 'Geneva', 'Lucid', 'Avant Garde', sans-serif; text-anchor: end" x="32.08" y="60.864048" transform="rotate(-0 32.08 60.864048)">600</text>
     </g>
    </g>
    <g id="ytick_5">
     <g id="line2d_6">
      <g>
       <use xlink:href="#me7776c813c" x="39.08" y="42.348962" style="stroke: #000000; stroke-width: 0.8"/>
      </g>
     </g>
     <g id="text_7">
      <text style="font-size: 6px; font-family: 'DejaVu Sans', 'Arial', 'Helvetica', 'Lucida Grande', 'Verdana', 'Geneva', 'Lucid', 'Avant Garde', sans-serif; text-anchor: end" x="32.08" y="44.628493" transform="rotate(-0 32.08 44.628493)">800</text>
     </g>
    </g>
    <g id="ytick_6">
     <g id="line2d_7">
      <g>
       <use xlink:href="#me7776c813c" x="39.08" y="26.113408" style="stroke: #000000; stroke-width: 0.8"/>
      </g>
     </g>
     <g id="text_8">
      <text style="font-size: 6px; font-family: 'DejaVu Sans', 'Arial', 'Helvetica', 'Lucida Grande', 'Verdana', 'Geneva', 'Lucid', 'Avant Garde', sans-serif; text-anchor: end" x="32.08" y="28.392939" transform="rotate(-0 32.08 28.392939)">1000</text>
     </g>
    </g>
    <g id="text_9">
     <text style="font-size: 6px; font-family: 'DejaVu Sans', 'Arial', 'Helvetica', 'Lucida Grande', 'Verdana', 'Geneva', 'Lucid', 'Avant Garde', sans-serif; text-anchor: middle" x="11.562187" y="64.316" transform="rotate(-90 11.562187 64.316)">ΔNLL</text>
    </g>
   </g>
   <g id="line2d_8">
    <path d="M 46.827273 49.748634 
L 50.800233 53.947302 
L 54.773193 56.631961 
L 58.746154 62.369409 
L 62.719114 66.547782 
L 66.692075 69.114088 
L 70.665035 74.714872 
L 74.637995 77.262142 
L 78.610956 80.946829 
L 82.583916 86.082633 
L 86.556876 89.522252 
L 90.529837 91.230144 
L 94.502797 94.214342 
L 98.475758 96.85896 
L 102.448718 99.350098 
L 106.421678 101.64124 
L 110.394639 104.498628 
L 114.367599 104.326875 
L 118.340559 105.203846 
L 122.31352 105.793439 
L 126.28648 105.811917 
L 130.259441 106.857818 
L 134.232401 105.999733 
L 138.205361 103.254676 
L 142.178322 101.92905 
L 146.151282 100.612831 
L 150.124242 97.868389 
L 154.097203 94.649657 
L 158.070163 89.645512 
L 162.043124 86.804239 
L 166.016084 80.843693 
L 169.989044 76.013335 
L 173.962005 70.29943 
L 177.934965 65.683278 
L 181.907925 59.33029 
L 185.880886 51.133022 
L 189.853846 45.423918 
L 193.826807 36.500003 
L 197.799767 28.807511 
L 201.772727 21.774182 
" clip-path="url(#p235130ac88)" style="fill: none; stroke: #1f77b4; stroke-linecap: square"/>
   </g>
   <g id="line2d_9">
    <path d="M 39.08 107.135317 
L 209.52 107.135317 
" clip-path="url(#p235130ac88)" style="fill: none; stroke-dasharray: 3.7,1.6; stroke-dashoffset: 0; stroke: #b22222"/>
   </g>
   <g id="line2d_10">
    <path d="M 124.3 111.112 
L 124.3 17.52 
" clip-path="url(#p235130ac88)" style="fill: none; stroke-dasharray: 1,1.65; stroke-dashoffset: 0; stroke: #000000"/>
   </g>
   <g id="patch_3">
    <path d="M 39.08 111.112 
L 39.08 17.52 
" style="fill: none; stroke: #000000; stroke-width: 0.5; stroke-linejoin: miter; stroke-linecap: square"/>
   </g>
   <g id="patch_4">
    <path d="M 39.08 111.112 
L 209.52 111.112 
" style="fill: none; stroke: #000000; stroke-width: 0.5; stroke-linejoin: miter; stroke-linecap: square"/>
   </g>
   <g id="text_10">
    <text style="font-size: 6px; font-family: 'DejaVu Sans', 'Arial', 'Helvetica', 'Lucida Grande', 'Verdana', 'Geneva', 'Lucid', 'Avant Garde', sans-serif; text-anchor: middle" x="124.3" y="11.52" transform="rotate(-0 124.3 11.52)">Profile likelihood for a50</text>
   </g>
   <g id="legend_1">
    <g id="patch_5">
     <path d="M 43.28 39.93375 
L 113.842812 39.93375 
Q 115.042812 39.93375 115.042812 38.73375 
L 115.042812 21.72 
Q 115.042812 20.52 113.842812 20.52 
L 43.28 20.52 
Q 42.08 20.52 42.08 21.72 
L 42.08 38.73375 
Q 42.08 39.93375 43.28 39.93375 
z
" style="fill: #ffffff; opacity: 0.8; stroke: #cccccc; stroke-linejoin: miter"/>
    </g>
    <g id="line2d_11">
     <path d="M 44.48 25.379062 
L 50.48 25.379062 
L 56.48 25.379062 
" style="fill: none; stroke-dasharray: 3.7,1.6; stroke-dashoffset: 0; stroke: #b22222"/>
    </g>
    <g id="text_11">
     <text style="font-size: 6px; font-family: 'DejaVu Sans', 'Arial', 'Helvetica', 'Lucida Grande', 'Verdana', 'Geneva', 'Lucid', 'Avant Garde', sans-serif; text-anchor: start" x="61.28" y="27.479062" transform="rotate(-0 61.28 27.479062)">95% CI threshold</text>
    </g>
    <g id="line2d_12">
     <path d="M 44.48 34.185937 
L 50.48 34.185937 
L 56.48 34.185937 
" style="fill: none; stroke-dasharray: 1,1.65; stroke-dashoffset: 0; stroke: #000000"/>
    </g>
    <g id="text_12">
     <text style="font-size: 6px; font-family: 'DejaVu Sans', 'Arial', 'Helvetica', 'Lucida Grande', 'Verdana', 'Geneva', 'Lucid', 'Avant Garde', sans-serif; text-anchor: start" x="61.28" y="36.285937" transform="rotate(-0 61.28 36.285937)">optimum</text>
    </g>
   </g>
  </g>
 </g>
 <defs>
  <clipPath id="p235130ac88">
   <rect x="39.08" y="17.52" width="170.44" height="93.592"/>
  </clipPath>
 </defs>
</svg>
