<?xml version="1.0" encoding="utf-8" standalone="no"?>
<!DOCTYPE svg PUBLIC "-//W3C//DTD SVG 1.1//EN"
  "http://www.w3.org/Graphics/SVG/1.1/DTD/svg11.dtd">
<svg xmlns:xlink="http://www.w3.org/1999/xlink" width="216pt" height="144pt" viewBox="0 0 216 144" xmlns="http://www.w3.org/2000/svg" version="1.1">
 <metadata>
  <rdf:RDF xmlns:dc="http://purl.org/dc/elements/1.1/" xmlns:cc="http://creativecommons.org/ns#" xmlns:rdf="http://www.w3.org/1999/02/22-rdf-syntax-ns#">
   <cc:Work>
    <dc:type rdf:resource="http://purl.org/dc/dcmitype/StillImage"/>
    <dc:date>2026-02-16T18:34:41.444096</dc:date>
    <dc:format>image/svg+xml</dc:format>
    <dc:creator>
     <cc:Agent>
      <dc:title>Matplotlib v3.10.8, https://matplotlib.org/</dc:title>
     </cc:Agent>
    </dc:creator>
   </cc:Work>
  </rdf:RDF>
 </metadata>
 <defs>
  <style type="text/css">*{stroke-linejoin: round; stroke-linecap: butt}</style>
 </defs>
 <g id="figure_1">
  <g id="patch_1">
   <path d="M 0 144 
L 216 144 
L 216 0 
L 0 0 
L 0 144 
z
" style="fill: none"/>
  </g>
  <g id="axes_1">
   <g id="patch_2">
    <path d="M 40.34 111.112 
L 209.52 111.112 
L 209.52 17.52 
L 40.34 17.52 
L 40.34 111.112 
z
" style="fill: none"/>
   </g>
   <g id="matplotlib.axis_1">
    <g id="xtick_1">
     <g id="line2d_1">
      <defs>
       <path id="m17142dbc2c" d="M 0 0 
L 0 3.5 
" style="stroke: #000000; stroke-width: 0.8"/>
      </defs>
      <g>
       <use xlink:href="#m17142dbc2c" x="117.491737" y="111.112" style="stroke: #000000; stroke-width: 0.8"/>
      </g>
     </g>
     <g id="text_1">
      <!-- $\mathdefault{10^{-1}}$ -->
      <g transform="translate(110.441737 122.671063)">
       <text>
        <tspan x="0" y="-0.640625" style="font-size: 6px; font-family: 'DejaVu Sans'">1</tspan>
        <tspan x="3.817383" y="-0.640625" style="font-size: 6px; font-family: 'DejaVu Sans'">0</tspan>
        <tspan x="7.692188" y="-2.9375" style="font-size: 4.2px; font-family: 'DejaVu Sans'">−</tspan>
        <tspan x="11.211328" y="-2.9375" style="font-size: 4.2px; font-family: 'DejaVu Sans'">1</tspan>
       </text>
      </g>
     </g>
    </g>
    <g id="xtick_2"/>
    <g id="xtick_3"/>
    <g id="xtick_4"/>
    <g id="xtick_5"/>
    <g id="xtick_6"/>
    <g id="xtick_7"/>
    <g id="xtick_8"/>
    <g id="xtick_9"/>
    <g id="xtick_10"/>
    <g id="xtick_11"/>
    <g id="xtick_12"/>
    <g id="xtick_13"/>
    <g id="text_2">
     <text style="font-size: 6px; font-family: 'DejaVu Sans', 'Arial', 'Helvetica', 'Lucida Grande', 'Verdana', 'Geneva', 'Lucid', 'Avant Garde', sans-serif; text-anchor: middle" x="124.93" y="132.477937" transform="rotate(-0 124.93 132.477937)">mu24p</text>
    </g>
   </g>
   <g id="matplotlib.axis_2">
    <g id="ytick_1">
     <g id="line2d_2">
      <defs>
       <path id="mb25e468978" d="M 0 0 
L -3.5 0 
" style="stroke: #000000; stroke-width: 0.8"/>
      </defs>
      <g>
       <use xlink:href="#mb25e468978" x="40.34" y="105.833986" style="stroke: #000000; stroke-width: 0.8"/>
      </g>
     </g>
     <g id="text_3">
      <text style="font-size: 6px; font-family: 'DejaVu Sans', 'Arial', 'Helvetica', 'Lucida Grande', 'Verdana', 'Geneva', 'Lucid', 'Avant Garde', sans-serif; text-anchor: end" x="33.34" y="108.113517" transform="rotate(-0 33.34 108.113517)">−600</text>
     </g>
    </g>
    <g id="ytick_2">
     <g id="line2d_3">
      <g>
       <use xlink:href="#mb25e468978" x="40.34" y="87.219405" style="stroke: #000000; stroke-width: 0.8"/>
      </g>
     </g>
     <g id="text_4">
      <text style="font-size: 6px; font-family: 'DejaVu Sans', 'Arial', 'Helvetica', 'Lucida Grande', 'Verdana', 'Geneva', 'Lucid', 'Avant Garde', sans-serif; text-anchor: end" x="33.34" y="89.498936" transform="rotate(-0 33.34 89.498936)">−400</text>
     </g>
    </g>
    <g id="ytick_3">
     <g id="line2d_4">
      <g>
       <use xlink:href="#mb25e468978" x="40.34" y="68.604824" style="stroke: #000000; stroke-width: 0.8"/>
      </g>
     </g>
     <g id="text_5">
      <text style="font-size: 6px; font-family: 'DejaVu Sans', 'Arial', 'Helvetica', 'Lucida Grande', 'Verdana', 'Geneva', 'Lucid', 'Avant Garde', sans-serif; text-anchor: end" x="33.34" y="70.884355" transform="rotate(-0 33.34 70.884355)">−200</text>
     </g>
    </g>
    <g id="ytick_4">
     <g id="line2d_5">
      <g>
       <use xlink:href="#mb25e468978" x="40.34" y="49.990243" style="stroke: #000000; stroke-width: 0.8"/>
      </g>
     </g>
     <g id="text_6">
      <text style="font-size: 6px; font-family: 'DejaVu Sans', 'Arial', 'Helvetica', 'Lucida Grande', 'Verdana', 'Geneva', 'Lucid', 'Avant Garde', sans-serif; text-anchor: end" x="33.34" y="52.269774" transform="rotate(-0 33.34 52.269774)">0</text>
     </g>
    </g>
    <g id="ytick_5">
     <g id="line2d_6">
      <g>
       <use xlink:href="#mb25e468978" x="40.34" y="31.375662" style="stroke: #000000; stroke-width: 0.8"/>
      </g>
     </g>
     <g id="text_7">
      <text style="font-size: 6px; font-family: 'DejaVu Sans', 'Arial', 'Helvetica', 'Lucida Grande', 'Verdana', 'Geneva', 'Lucid', 'Avant Garde', sans-serif; text-anchor: end" x="33.34" y="33.655194" transform="rotate(-0 33.34 33.655194)">200</text>
     </g>
    </g>
    <g id="text_8">
     <text style="font-size: 6px; font-family: 'DejaVu Sans', 'Arial', 'Helvetica', 'Lucida Grande', 'Verdana', 'Geneva', 'Lucid', 'Avant Garde', sans-serif; text-anchor: middle" x="11.611875" y="64.316" transform="rotate(-90 11.611875 64.316)">ΔNLL</text>
    </g>
   </g>
   <g id="line2d_7">
    <path d="M 48.03 101.371245 
L 51.97359 101.495694 
L 55.917179 101.628656 
L 59.860769 101.770571 
L 63.804359 101.921869 
L 67.747949 102.082967 
L 71.691538 102.254256 
L 75.635128 102.436093 
L 79.578718 102.62878 
L 83.522308 102.824413 
L 87.465897 103.037663 
L 91.409487 103.273765 
L 95.353077 103.51108 
L 99.296667 103.759139 
L 103.240256 104.01734 
L 107.183846 104.284766 
L 111.127436 104.56009 
L 115.071026 104.841492 
L 119.014615 105.126533 
L 122.958205 105.412003 
L 126.901795 105.673615 
L 130.845385 105.735126 
L 134.788974 106.223303 
L 138.732564 106.303113 
L 142.676154 106.537541 
L 146.619744 106.720875 
L 150.563333 106.83497 
L 154.506923 106.857818 
L 158.450513 106.762188 
L 162.394103 106.514945 
L 166.337692 106.07536 
L 170.281282 105.394084 
L 174.224872 104.412084 
L 178.168462 103.056817 
L 182.112051 101.242516 
L 186.055641 95.061183 
L 189.999231 92.243123 
L 193.942821 88.720772 
L 197.88641 82.538334 
L 201.83 21.774182 
" clip-path="url(#pfea67636c8)" style="fill: none; stroke: #1f77b4; stroke-linecap: square"/>
   </g>
   <g id="line2d_8">
    <path d="M 40.34 49.811543 
L 209.52 49.811543 
" clip-path="url(#pfea67636c8)" style="fill: none; stroke-dasharray: 3.7,1.6; stroke-dashoffset: 0; stroke: #b22222"/>
   </g>
   <g id="line2d_9">
    <path d="M 124.93 111.112 
L 124.93 17.52 
" clip-path="url(#pfea67636c8)" style="fill: none; stroke-dasharray: 1,1.65; stroke-dashoffset: 0; stroke: #000000"/>
   </g>
   <g id="patch_3">
    <path d="M 40.34 111.112 
L 40.34 17.52 
" style="fill: none; stroke: #000000; stroke-width: 0.5; stroke-linejoin: miter; stroke-linecap: square"/>
   </g>
   <g id="patch_4">
    <path d="M 40.34 111.112 
L 209.52 111.112 
" style="fill: none; stroke: #000000; stroke-width: 0.5; stroke-linejoin: miter; stroke-linecap: square"/>
   </g>
   <g id="text_9">
    <text style="font-size: 6px; font-family: 'DejaVu Sans', 'Arial', 'Helvetica', 'Lucida Grande', 'Verdana', 'Geneva', 'Lucid', 'Avant Garde', sans-serif; text-anchor: middle" x="124.93" y="11.52" transform="rotate(-0 124.93 11.52)">Profile likelihood for mu24p</text>
   </g>
   <g id="legend_1">
    <g id="patch_5">
     <path d="M 44.54 39.93375 
L 115.102813 39.93375 
Q 116.302813 39.93375 116.302813 38.73375 
L 116.302813 21.72 
Q 116.302813 20.52 115.102813 20.52 
L 44.54 20.52 
Q 43.34 20.52 43.34 21.72 
L 43.34 38.73375 
Q 43.34 39.93375 44.54 39.93375 
z
" style="fill: #ffffff; opacity: 0.8; stroke: #cccccc; stroke-linejoin: miter"/>
    </g>
    <g id="line2d_10">
     <path d="M 45.74 25.379062 
L 51.74 25.379062 
L 57.74 25.379062 
" style="fill: none; stroke-dasharray: 3.7,1.6; stroke-dashoffset: 0; stroke: #b22222"/>
    </g>
    <g id="text_10">
     <text style="font-size: 6px; font-family: 'DejaVu Sans', 'Arial', 'Helvetica', 'Lucida Grande', 'Verdana', 'Geneva', 'Lucid', 'Avant Garde', sans-serif; text-anchor: start" x="62.54" y="27.479062" transform="rotate(-0 62.54 27.479062)">95% CI threshold</text>
    </g>
    <g id="line2d_11">
     <path d="M 45.74 34.185937 
L 51.74 34.185937 
L 57.74 34.185937 
" style="fill: none; stroke-dasharray: 1,1.65; stroke-dashoffset: 0; stroke: #000000"/>
    </g>
    <g id="text_11">
     <text style="font-size: 6px; font-family: 'DejaVu Sans', 'Arial', 'Helvetica', 'Lucida Grande', 'Verdana', 'Geneva', 'Lucid', 'Avant Garde', sans-serif; text-anchor: start" x="62.54" y="36.285937" transform="rotate(-0 62.54 36.285937)">optimum</text>
    </g>
   </g>
  </g>
 </g>
 <defs>
  <clipPath id="pfea67636c8">
   <rect x="40.34" y="17.52" width="169.18" height="93.592"/>
  </clipPath>
 </defs>
</svg>
