<?xml version="1.0" encoding="utf-8" standalone="no"?>
<!DOCTYPE svg PUBLIC "-//W3C//DTD SVG 1.1//EN"
  "http://www.w3.org/Graphics/SVG/1.1/DTD/svg11.dtd">
<svg xmlns:xlink="http://www.w3.org/1999/xlink" width="93.6pt" height="108pt" viewBox="0 0 93.6 108" xmlns="http://www.w3.org/2000/svg" version="1.1">
 <metadata>
  <rdf:RDF xmlns:dc="http://purl.org/dc/elements/1.1/" xmlns:cc="http://creativecommons.org/ns#" xmlns:rdf="http://www.w3.org/1999/02/22-rdf-syntax-ns#">
   <cc:Work>
    <dc:type rdf:resource="http://purl.org/dc/dcmitype/StillImage"/>
    <dc:date>2026-02-16T12:41:13.492929</dc:date>
    <dc:format>image/svg+xml</dc:format>
    <dc:creator>
     <cc:Agent>
      <dc:title>Matplotlib v3.10.8, https://matplotlib.org/</dc:title>
     </cc:Agent>
    </dc:creator>
   </cc:Work>
  </rdf:RDF>
 </metadata>
 <defs>
  <style type="text/css">*{stroke-linejoin: round; stroke-linecap: butt}</style>
 </defs>
 <g id="figure_1">
  <g id="patch_1">
   <path d="M 0 108 
L 93.6 108 
L 93.6 0 
L 0 0 
L 0 108 
z
" style="fill: none"/>
  </g>
  <g id="axes_1">
   <g id="patch_2">
    <path d="M 11.7 96.12 
L 84.24 96.12 
L 84.24 12.96 
L 11.7 12.96 
L 11.7 96.12 
z
" style="fill: none"/>
   </g>
   <g id="FillBetweenPolyCollection_1">
    <path d="M 11.7 71.172509 
L 11.7 16644.96 
L 12.60675 16644.96 
L 13.5135 16644.96 
L 14.42025 16644.96 
L 15.327 16644.96 
L 16.23375 16644.96 
L 17.1405 16644.96 
L 18.04725 16644.96 
L 18.954 16644.96 
L 19.86075 16644.96 
L 20.7675 16644.96 
L 21.67425 16644.96 
L 22.581 16644.96 
L 23.48775 16644.96 
L 24.3945 16644.96 
L 25.30125 16644.96 
L 26.208 16644.96 
L 27.11475 16644.96 
L 28.0215 16644.96 
L 28.92825 16644.96 
L 29.835 16644.96 
L 30.74175 16644.96 
L 31.6485 16644.96 
L 32.55525 16644.96 
L 33.462 16644.96 
L 34.36875 16644.96 
L 35.2755 16644.96 
L 36.18225 16644.96 
L 37.089 16644.96 
L 37.99575 16644.96 
L 38.9025 16644.96 
L 39.80925 16644.96 
L 40.716 16644.96 
L 41.62275 16644.96 
L 42.5295 16644.96 
L 43.43625 16644.96 
L 44.343 16644.96 
L 45.24975 16644.96 
L 46.1565 16644.96 
L 47.06325 16644.96 
L 47.97 16644.96 
L 48.87675 16644.96 
L 49.7835 16644.96 
L 50.69025 16644.96 
L 51.597 16644.96 
L 52.50375 16644.96 
L 53.4105 16644.96 
L 54.31725 16644.96 
L 55.224 16644.96 
L 56.13075 16644.96 
L 57.0375 16644.96 
L 57.94425 16644.96 
L 58.851 16644.96 
L 59.75775 16644.96 
L 60.6645 16644.96 
L 61.57125 16644.96 
L 62.478 16644.96 
L 63.38475 16644.96 
L 64.2915 16644.96 
L 65.19825 16644.96 
L 66.105 16644.96 
L 67.01175 16644.96 
L 67.9185 16644.96 
L 68.82525 16644.96 
L 69.732 16644.96 
L 70.63875 16644.96 
L 71.5455 16644.96 
L 72.45225 16644.96 
L 73.359 16644.96 
L 74.26575 16644.96 
L 75.1725 16644.96 
L 76.07925 16644.96 
L 76.986 16644.96 
L 77.89275 16644.96 
L 78.7995 16644.96 
L 79.70625 16644.96 
L 80.613 16644.96 
L 81.51975 16644.96 
L 82.4265 16644.96 
L 83.33325 16644.96 
L 84.24 16644.96 
L 84.24 80.018179 
L 84.24 80.018179 
L 83.33325 80.006717 
L 82.4265 79.994991 
L 81.51975 79.982992 
L 80.613 79.97071 
L 79.70625 79.958134 
L 78.7995 79.945255 
L 77.89275 79.932061 
L 76.986 79.91854 
L 76.07925 79.904681 
L 75.1725 79.890469 
L 74.26575 79.875893 
L 73.359 79.860936 
L 72.45225 79.845586 
L 71.5455 79.829825 
L 70.63875 79.813636 
L 69.732 79.797004 
L 68.82525 79.779908 
L 67.9185 79.762329 
L 67.01175 79.744247 
L 66.105 79.725639 
L 65.19825 79.706483 
L 64.2915 79.686754 
L 63.38475 79.666425 
L 62.478 79.645469 
L 61.57125 79.623857 
L 60.6645 79.601557 
L 59.75775 79.578535 
L 58.851 79.554758 
L 57.94425 79.530185 
L 57.0375 79.504778 
L 56.13075 79.478492 
L 55.224 79.451282 
L 54.31725 79.423098 
L 53.4105 79.393886 
L 52.50375 79.36359 
L 51.597 79.332148 
L 50.69025 79.299493 
L 49.7835 79.265555 
L 48.87675 79.230256 
L 47.97 79.193514 
L 47.06325 79.155236 
L 46.1565 79.115326 
L 45.24975 79.073677 
L 44.343 79.030173 
L 43.43625 78.984687 
L 42.5295 78.937081 
L 41.62275 78.887204 
L 40.716 78.834888 
L 39.80925 78.779952 
L 38.9025 78.722193 
L 37.99575 78.661389 
L 37.089 78.597293 
L 36.18225 78.529631 
L 35.2755 78.458097 
L 34.36875 78.38235 
L 33.462 78.302008 
L 32.55525 78.216641 
L 31.6485 78.125764 
L 30.74175 78.028827 
L 29.835 77.925205 
L 28.92825 77.814186 
L 28.0215 77.694952 
L 27.11475 77.566561 
L 26.208 77.427921 
L 25.30125 77.277763 
L 24.3945 77.114598 
L 23.48775 76.936674 
L 22.581 76.741911 
L 21.67425 76.527822 
L 20.7675 76.291413 
L 19.86075 76.029047 
L 18.954 75.736261 
L 18.04725 75.40753 
L 17.1405 75.035927 
L 16.23375 74.612672 
L 15.327 74.126475 
L 14.42025 73.562612 
L 13.5135 72.901558 
L 12.60675 72.116954 
L 11.7 71.172509 
z
" clip-path="url(#p03d75f123c)" style="fill: #ff8ef4; fill-opacity: 0.85"/>
   </g>
   <g id="FillBetweenPolyCollection_2">
    <path d="M 11.7 71.172509 
L 11.7 71.172509 
L 12.60675 72.116954 
L 13.5135 72.901558 
L 14.42025 73.562612 
L 15.327 74.126475 
L 16.23375 74.612672 
L 17.1405 75.035927 
L 18.04725 75.40753 
L 18.954 75.736261 
L 19.86075 76.029047 
L 20.7675 76.291413 
L 21.67425 76.527822 
L 22.581 76.741911 
L 23.48775 76.936674 
L 24.3945 77.114598 
L 25.30125 77.277763 
L 26.208 77.427921 
L 27.11475 77.566561 
L 28.0215 77.694952 
L 28.92825 77.814186 
L 29.835 77.925205 
L 30.74175 78.028827 
L 31.6485 78.125764 
L 32.55525 78.216641 
L 33.462 78.302008 
L 34.36875 78.38235 
L 35.2755 78.458097 
L 36.18225 78.529631 
L 37.089 78.597293 
L 37.99575 78.661389 
L 38.9025 78.722193 
L 39.80925 78.779952 
L 40.716 78.834888 
L 41.62275 78.887204 
L 42.5295 78.937081 
L 43.43625 78.984687 
L 44.343 79.030173 
L 45.24975 79.073677 
L 46.1565 79.115326 
L 47.06325 79.155236 
L 47.97 79.193514 
L 48.87675 79.230256 
L 49.7835 79.265555 
L 50.69025 79.299493 
L 51.597 79.332148 
L 52.50375 79.36359 
L 53.4105 79.393886 
L 54.31725 79.423098 
L 55.224 79.451282 
L 56.13075 79.478492 
L 57.0375 79.504778 
L 57.94425 79.530185 
L 58.851 79.554758 
L 59.75775 79.578535 
L 60.6645 79.601557 
L 61.57125 79.623857 
L 62.478 79.645469 
L 63.38475 79.666425 
L 64.2915 79.686754 
L 65.19825 79.706483 
L 66.105 79.725639 
L 67.01175 79.744247 
L 67.9185 79.762329 
L 68.82525 79.779908 
L 69.732 79.797004 
L 70.63875 79.813636 
L 71.5455 79.829825 
L 72.45225 79.845586 
L 73.359 79.860936 
L 74.26575 79.875893 
L 75.1725 79.890469 
L 76.07925 79.904681 
L 76.986 79.91854 
L 77.89275 79.932061 
L 78.7995 79.945255 
L 79.70625 79.958134 
L 80.613 79.97071 
L 81.51975 79.982992 
L 82.4265 79.994991 
L 83.33325 80.006717 
L 84.24 80.018179 
L 84.24 45.113179 
L 84.24 45.113179 
L 83.33325 45.121606 
L 82.4265 45.130238 
L 81.51975 45.139084 
L 80.613 45.14815 
L 79.70625 45.157446 
L 78.7995 45.16698 
L 77.89275 45.176761 
L 76.986 45.1868 
L 76.07925 45.197106 
L 75.1725 45.20769 
L 74.26575 45.218565 
L 73.359 45.229741 
L 72.45225 45.241232 
L 71.5455 45.253051 
L 70.63875 45.265213 
L 69.732 45.277732 
L 68.82525 45.290625 
L 67.9185 45.303908 
L 67.01175 45.317601 
L 66.105 45.331721 
L 65.19825 45.346289 
L 64.2915 45.361327 
L 63.38475 45.376858 
L 62.478 45.392907 
L 61.57125 45.4095 
L 60.6645 45.426666 
L 59.75775 45.444434 
L 58.851 45.462837 
L 57.94425 45.48191 
L 57.0375 45.501689 
L 56.13075 45.522216 
L 55.224 45.543533 
L 54.31725 45.565686 
L 53.4105 45.588727 
L 52.50375 45.61271 
L 51.597 45.637694 
L 50.69025 45.663742 
L 49.7835 45.690926 
L 48.87675 45.71932 
L 47.97 45.749008 
L 47.06325 45.780081 
L 46.1565 45.812637 
L 45.24975 45.846786 
L 44.343 45.882649 
L 43.43625 45.920359 
L 42.5295 45.960061 
L 41.62275 46.001919 
L 40.716 46.046115 
L 39.80925 46.09285 
L 38.9025 46.142351 
L 37.99575 46.194872 
L 37.089 46.2507 
L 36.18225 46.310159 
L 35.2755 46.373617 
L 34.36875 46.441494 
L 33.462 46.514272 
L 32.55525 46.592506 
L 31.6485 46.676838 
L 30.74175 46.768016 
L 29.835 46.866916 
L 28.92825 46.974574 
L 28.0215 47.09222 
L 27.11475 47.221329 
L 26.208 47.363685 
L 25.30125 47.52147 
L 24.3945 47.697377 
L 23.48775 47.894781 
L 22.581 48.117964 
L 21.67425 48.372459 
L 20.7675 48.665542 
L 19.86075 49.007011 
L 18.954 49.410413 
L 18.04725 49.895104 
L 17.1405 50.489899 
L 16.23375 51.240015 
L 15.327 52.221627 
L 14.42025 53.576749 
L 13.5135 55.615682 
L 12.60675 59.248342 
L 11.7 71.172509 
z
" clip-path="url(#p03d75f123c)" style="fill: #ffff7c; fill-opacity: 0.85"/>
   </g>
   <g id="FillBetweenPolyCollection_3">
    <path d="M 11.7 70.487119 
L 11.7 71.172509 
L 12.60675 59.248342 
L 13.5135 55.615682 
L 14.42025 53.576749 
L 15.327 52.221627 
L 16.23375 51.240015 
L 17.1405 50.489899 
L 18.04725 49.895104 
L 18.954 49.410413 
L 19.86075 49.007011 
L 20.7675 48.665542 
L 21.67425 48.372459 
L 22.581 48.117964 
L 23.48775 47.894781 
L 24.3945 47.697377 
L 25.30125 47.52147 
L 26.208 47.363685 
L 27.11475 47.221329 
L 28.0215 47.09222 
L 28.92825 46.974574 
L 29.835 46.866916 
L 30.74175 46.768016 
L 31.6485 46.676838 
L 32.55525 46.592506 
L 33.462 46.514272 
L 34.36875 46.441494 
L 35.2755 46.373617 
L 36.18225 46.310159 
L 37.089 46.2507 
L 37.99575 46.194872 
L 38.9025 46.142351 
L 39.80925 46.09285 
L 40.716 46.046115 
L 41.62275 46.001919 
L 42.5295 45.960061 
L 43.43625 45.920359 
L 44.343 45.882649 
L 45.24975 45.846786 
L 46.1565 45.812637 
L 47.06325 45.780081 
L 47.97 45.749008 
L 48.87675 45.71932 
L 49.7835 45.690926 
L 50.69025 45.663742 
L 51.597 45.637694 
L 52.50375 45.61271 
L 53.4105 45.588727 
L 54.31725 45.565686 
L 55.224 45.543533 
L 56.13075 45.522216 
L 57.0375 45.501689 
L 57.94425 45.48191 
L 58.851 45.462837 
L 59.75775 45.444434 
L 60.6645 45.426666 
L 61.57125 45.4095 
L 62.478 45.392907 
L 63.38475 45.376858 
L 64.2915 45.361327 
L 65.19825 45.346289 
L 66.105 45.331721 
L 67.01175 45.317601 
L 67.9185 45.303908 
L 68.82525 45.290625 
L 69.732 45.277732 
L 70.63875 45.265213 
L 71.5455 45.253051 
L 72.45225 45.241232 
L 73.359 45.229741 
L 74.26575 45.218565 
L 75.1725 45.20769 
L 76.07925 45.197106 
L 76.986 45.1868 
L 77.89275 45.176761 
L 78.7995 45.16698 
L 79.70625 45.157446 
L 80.613 45.14815 
L 81.51975 45.139084 
L 82.4265 45.130238 
L 83.33325 45.121606 
L 84.24 45.113179 
L 84.24 45.093709 
L 84.24 45.093709 
L 83.33325 45.102113 
L 82.4265 45.110722 
L 81.51975 45.119544 
L 80.613 45.128586 
L 79.70625 45.137857 
L 78.7995 45.147365 
L 77.89275 45.15712 
L 76.986 45.167131 
L 76.07925 45.177409 
L 75.1725 45.187965 
L 74.26575 45.19881 
L 73.359 45.209955 
L 72.45225 45.221415 
L 71.5455 45.233202 
L 70.63875 45.24533 
L 69.732 45.257815 
L 68.82525 45.270672 
L 67.9185 45.283919 
L 67.01175 45.297573 
L 66.105 45.311654 
L 65.19825 45.326182 
L 64.2915 45.341178 
L 63.38475 45.356666 
L 62.478 45.37267 
L 61.57125 45.389217 
L 60.6645 45.406334 
L 59.75775 45.424053 
L 58.851 45.442404 
L 57.94425 45.461423 
L 57.0375 45.481146 
L 56.13075 45.501614 
L 55.224 45.52287 
L 54.31725 45.544961 
L 53.4105 45.567936 
L 52.50375 45.59185 
L 51.597 45.616761 
L 50.69025 45.642734 
L 49.7835 45.669839 
L 48.87675 45.69815 
L 47.97 45.727751 
L 47.06325 45.758732 
L 46.1565 45.791192 
L 45.24975 45.82524 
L 44.343 45.860996 
L 43.43625 45.898592 
L 42.5295 45.938175 
L 41.62275 45.979906 
L 40.716 46.023967 
L 39.80925 46.070558 
L 38.9025 46.119906 
L 37.99575 46.172264 
L 37.089 46.227917 
L 36.18225 46.287187 
L 35.2755 46.350443 
L 34.36875 46.418102 
L 33.462 46.490644 
L 32.55525 46.568621 
L 31.6485 46.652673 
L 30.74175 46.743544 
L 29.835 46.842108 
L 28.92825 46.949394 
L 28.0215 47.066627 
L 27.11475 47.195275 
L 26.208 47.337114 
L 25.30125 47.494313 
L 24.3945 47.669552 
L 23.48775 47.866186 
L 22.581 48.088475 
L 21.67425 48.341914 
L 20.7675 48.633735 
L 19.86075 48.973668 
L 18.954 49.375159 
L 18.04725 49.85741 
L 17.1405 50.448979 
L 16.23375 51.194631 
L 15.327 52.169661 
L 14.42025 53.514106 
L 13.5135 55.532725 
L 12.60675 59.111679 
L 11.7 70.487119 
z
" clip-path="url(#p03d75f123c)" style="fill: #7cffff; fill-opacity: 0.85"/>
   </g>
   <g id="FillBetweenPolyCollection_4">
    <path d="M 11.7 12.96 
L 11.7 70.487119 
L 12.60675 59.111679 
L 13.5135 55.532725 
L 14.42025 53.514106 
L 15.327 52.169661 
L 16.23375 51.194631 
L 17.1405 50.448979 
L 18.04725 49.85741 
L 18.954 49.375159 
L 19.86075 48.973668 
L 20.7675 48.633735 
L 21.67425 48.341914 
L 22.581 48.088475 
L 23.48775 47.866186 
L 24.3945 47.669552 
L 25.30125 47.494313 
L 26.208 47.337114 
L 27.11475 47.195275 
L 28.0215 47.066627 
L 28.92825 46.949394 
L 29.835 46.842108 
L 30.74175 46.743544 
L 31.6485 46.652673 
L 32.55525 46.568621 
L 33.462 46.490644 
L 34.36875 46.418102 
L 35.2755 46.350443 
L 36.18225 46.287187 
L 37.089 46.227917 
L 37.99575 46.172264 
L 38.9025 46.119906 
L 39.80925 46.070558 
L 40.716 46.023967 
L 41.62275 45.979906 
L 42.5295 45.938175 
L 43.43625 45.898592 
L 44.343 45.860996 
L 45.24975 45.82524 
L 46.1565 45.791192 
L 47.06325 45.758732 
L 47.97 45.727751 
L 48.87675 45.69815 
L 49.7835 45.669839 
L 50.69025 45.642734 
L 51.597 45.616761 
L 52.50375 45.59185 
L 53.4105 45.567936 
L 54.31725 45.544961 
L 55.224 45.52287 
L 56.13075 45.501614 
L 57.0375 45.481146 
L 57.94425 45.461423 
L 58.851 45.442404 
L 59.75775 45.424053 
L 60.6645 45.406334 
L 61.57125 45.389217 
L 62.478 45.37267 
L 63.38475 45.356666 
L 64.2915 45.341178 
L 65.19825 45.326182 
L 66.105 45.311654 
L 67.01175 45.297573 
L 67.9185 45.283919 
L 68.82525 45.270672 
L 69.732 45.257815 
L 70.63875 45.24533 
L 71.5455 45.233202 
L 72.45225 45.221415 
L 73.359 45.209955 
L 74.26575 45.19881 
L 75.1725 45.187965 
L 76.07925 45.177409 
L 76.986 45.167131 
L 77.89275 45.15712 
L 78.7995 45.147365 
L 79.70625 45.137857 
L 80.613 45.128586 
L 81.51975 45.119544 
L 82.4265 45.110722 
L 83.33325 45.102113 
L 84.24 45.093709 
L 84.24 12.96 
L 84.24 12.96 
L 83.33325 12.96 
L 82.4265 12.96 
L 81.51975 12.96 
L 80.613 12.96 
L 79.70625 12.96 
L 78.7995 12.96 
L 77.89275 12.96 
L 76.986 12.96 
L 76.07925 12.96 
L 75.1725 12.96 
L 74.26575 12.96 
L 73.359 12.96 
L 72.45225 12.96 
L 71.5455 12.96 
L 70.63875 12.96 
L 69.732 12.96 
L 68.82525 12.96 
L 67.9185 12.96 
L 67.01175 12.96 
L 66.105 12.96 
L 65.19825 12.96 
L 64.2915 12.96 
L 63.38475 12.96 
L 62.478 12.96 
L 61.57125 12.96 
L 60.6645 12.96 
L 59.75775 12.96 
L 58.851 12.96 
L 57.94425 12.96 
L 57.0375 12.96 
L 56.13075 12.96 
L 55.224 12.96 
L 54.31725 12.96 
L 53.4105 12.96 
L 52.50375 12.96 
L 51.597 12.96 
L 50.69025 12.96 
L 49.7835 12.96 
L 48.87675 12.96 
L 47.97 12.96 
L 47.06325 12.96 
L 46.1565 12.96 
L 45.24975 12.96 
L 44.343 12.96 
L 43.43625 12.96 
L 42.5295 12.96 
L 41.62275 12.96 
L 40.716 12.96 
L 39.80925 12.96 
L 38.9025 12.96 
L 37.99575 12.96 
L 37.089 12.96 
L 36.18225 12.96 
L 35.2755 12.96 
L 34.36875 12.96 
L 33.462 12.96 
L 32.55525 12.96 
L 31.6485 12.96 
L 30.74175 12.96 
L 29.835 12.96 
L 28.92825 12.96 
L 28.0215 12.96 
L 27.11475 12.96 
L 26.208 12.96 
L 25.30125 12.96 
L 24.3945 12.96 
L 23.48775 12.96 
L 22.581 12.96 
L 21.67425 12.96 
L 20.7675 12.96 
L 19.86075 12.96 
L 18.954 12.96 
L 18.04725 12.96 
L 17.1405 12.96 
L 16.23375 12.96 
L 15.327 12.96 
L 14.42025 12.96 
L 13.5135 12.96 
L 12.60675 12.96 
L 11.7 12.96 
z
" clip-path="url(#p03d75f123c)" style="fill: #ffa09f; fill-opacity: 0.85"/>
   </g>
   <g id="matplotlib.axis_1">
    <g id="xtick_1">
     <g id="line2d_1">
      <defs>
       <path id="mda27dddd4e" d="M 0 0 
L 0 3.5 
" style="stroke: #000000; stroke-width: 0.8"/>
      </defs>
      <g>
       <use xlink:href="#mda27dddd4e" x="11.7" y="96.12" style="stroke: #000000; stroke-width: 0.8"/>
      </g>
     </g>
     <g id="text_1">
      <text style="font-size: 6px; font-family: 'DejaVu Sans', 'Arial', 'Helvetica', 'Lucida Grande', 'Verdana', 'Geneva', 'Lucid', 'Avant Garde', sans-serif; text-anchor: middle" x="11.7" y="107.679063" transform="rotate(-0 11.7 107.679063)">0</text>
     </g>
    </g>
    <g id="xtick_2">
     <g id="line2d_2">
      <g>
       <use xlink:href="#mda27dddd4e" x="30.590625" y="96.12" style="stroke: #000000; stroke-width: 0.8"/>
      </g>
     </g>
     <g id="text_2">
      <text style="font-size: 6px; font-family: 'DejaVu Sans', 'Arial', 'Helvetica', 'Lucida Grande', 'Verdana', 'Geneva', 'Lucid', 'Avant Garde', sans-serif; text-anchor: middle" x="30.590625" y="107.679063" transform="rotate(-0 30.590625 107.679063)">25</text>
     </g>
    </g>
    <g id="xtick_3">
     <g id="line2d_3">
      <g>
       <use xlink:href="#mda27dddd4e" x="49.48125" y="96.12" style="stroke: #000000; stroke-width: 0.8"/>
      </g>
     </g>
     <g id="text_3">
      <text style="font-size: 6px; font-family: 'DejaVu Sans', 'Arial', 'Helvetica', 'Lucida Grande', 'Verdana', 'Geneva', 'Lucid', 'Avant Garde', sans-serif; text-anchor: middle" x="49.48125" y="107.679063" transform="rotate(-0 49.48125 107.679063)">50</text>
     </g>
    </g>
    <g id="xtick_4">
     <g id="line2d_4">
      <g>
       <use xlink:href="#mda27dddd4e" x="68.371875" y="96.12" style="stroke: #000000; stroke-width: 0.8"/>
      </g>
     </g>
     <g id="text_4">
      <text style="font-size: 6px; font-family: 'DejaVu Sans', 'Arial', 'Helvetica', 'Lucida Grande', 'Verdana', 'Geneva', 'Lucid', 'Avant Garde', sans-serif; text-anchor: middle" x="68.371875" y="107.679063" transform="rotate(-0 68.371875 107.679063)">75</text>
     </g>
    </g>
    <g id="text_5">
     <text style="font-size: 6px; font-family: 'DejaVu Sans', 'Arial', 'Helvetica', 'Lucida Grande', 'Verdana', 'Geneva', 'Lucid', 'Avant Garde', sans-serif; text-anchor: middle" x="47.97" y="117.485938" transform="rotate(-0 47.97 117.485938)">Dormancy depth a (h)</text>
    </g>
   </g>
   <g id="matplotlib.axis_2">
    <g id="ytick_1">
     <g id="line2d_5">
      <defs>
       <path id="m868d211596" d="M 0 0 
L -3.5 0 
" style="stroke: #000000; stroke-width: 0.8"/>
      </defs>
      <g>
       <use xlink:href="#m868d211596" x="11.7" y="96.12" style="stroke: #000000; stroke-width: 0.8"/>
      </g>
     </g>
     <g id="text_6">
      <!-- $\mathdefault{10^{-5}}$ -->
      <g transform="translate(-9.4 98.399531)">
       <text>
        <tspan x="0" y="-0.640625" style="font-size: 6px; font-family: 'DejaVu Sans'">1</tspan>
        <tspan x="3.817383" y="-0.640625" style="font-size: 6px; font-family: 'DejaVu Sans'">0</tspan>
        <tspan x="7.692188" y="-2.9375" style="font-size: 4.2px; font-family: 'DejaVu Sans'">−</tspan>
        <tspan x="11.211328" y="-2.9375" style="font-size: 4.2px; font-family: 'DejaVu Sans'">5</tspan>
       </text>
      </g>
     </g>
    </g>
    <g id="ytick_2">
     <g id="line2d_6">
      <g>
       <use xlink:href="#m868d211596" x="11.7" y="79.488" style="stroke: #000000; stroke-width: 0.8"/>
      </g>
     </g>
     <g id="text_7">
      <!-- $\mathdefault{10^{-4}}$ -->
      <g transform="translate(-9.4 81.767531)">
       <text>
        <tspan x="0" y="-0.640625" style="font-size: 6px; font-family: 'DejaVu Sans'">1</tspan>
        <tspan x="3.817383" y="-0.640625" style="font-size: 6px; font-family: 'DejaVu Sans'">0</tspan>
        <tspan x="7.692188" y="-2.9375" style="font-size: 4.2px; font-family: 'DejaVu Sans'">−</tspan>
        <tspan x="11.211328" y="-2.9375" style="font-size: 4.2px; font-family: 'DejaVu Sans'">4</tspan>
       </text>
      </g>
     </g>
    </g>
    <g id="ytick_3">
     <g id="line2d_7">
      <g>
       <use xlink:href="#m868d211596" x="11.7" y="62.856" style="stroke: #000000; stroke-width: 0.8"/>
      </g>
     </g>
     <g id="text_8">
      <!-- $\mathdefault{10^{-3}}$ -->
      <g transform="translate(-9.4 65.135531)">
       <text>
        <tspan x="0" y="-0.585938" style="font-size: 6px; font-family: 'DejaVu Sans'">1</tspan>
        <tspan x="3.817383" y="-0.585938" style="font-size: 6px; font-family: 'DejaVu Sans'">0</tspan>
        <tspan x="7.692188" y="-2.882812" style="font-size: 4.2px; font-family: 'DejaVu Sans'">−</tspan>
        <tspan x="11.211328" y="-2.882812" style="font-size: 4.2px; font-family: 'DejaVu Sans'">3</tspan>
       </text>
      </g>
     </g>
    </g>
    <g id="ytick_4">
     <g id="line2d_8">
      <g>
       <use xlink:href="#m868d211596" x="11.7" y="46.224" style="stroke: #000000; stroke-width: 0.8"/>
      </g>
     </g>
     <g id="text_9">
      <!-- $\mathdefault{10^{-2}}$ -->
      <g transform="translate(-9.4 48.503531)">
       <text>
        <tspan x="0" y="-0.585938" style="font-size: 6px; font-family: 'DejaVu Sans'">1</tspan>
        <tspan x="3.817383" y="-0.585938" style="font-size: 6px; font-family: 'DejaVu Sans'">0</tspan>
        <tspan x="7.692188" y="-2.882812" style="font-size: 4.2px; font-family: 'DejaVu Sans'">−</tspan>
        <tspan x="11.211328" y="-2.882812" style="font-size: 4.2px; font-family: 'DejaVu Sans'">2</tspan>
       </text>
      </g>
     </g>
    </g>
    <g id="ytick_5">
     <g id="line2d_9">
      <g>
       <use xlink:href="#m868d211596" x="11.7" y="29.592" style="stroke: #000000; stroke-width: 0.8"/>
      </g>
     </g>
     <g id="text_10">
      <!-- $\mathdefault{10^{-1}}$ -->
      <g transform="translate(-9.4 31.871531)">
       <text>
        <tspan x="0" y="-0.640625" style="font-size: 6px; font-family: 'DejaVu Sans'">1</tspan>
        <tspan x="3.817383" y="-0.640625" style="font-size: 6px; font-family: 'DejaVu Sans'">0</tspan>
        <tspan x="7.692188" y="-2.9375" style="font-size: 4.2px; font-family: 'DejaVu Sans'">−</tspan>
        <tspan x="11.211328" y="-2.9375" style="font-size: 4.2px; font-family: 'DejaVu Sans'">1</tspan>
       </text>
      </g>
     </g>
    </g>
    <g id="ytick_6">
     <g id="line2d_10">
      <g>
       <use xlink:href="#m868d211596" x="11.7" y="12.96" style="stroke: #000000; stroke-width: 0.8"/>
      </g>
     </g>
     <g id="text_11">
      <!-- $\mathdefault{10^{0}}$ -->
      <g transform="translate(-5.86 15.239531)">
       <text>
        <tspan x="0" y="-0.585938" style="font-size: 6px; font-family: 'DejaVu Sans'">1</tspan>
        <tspan x="3.817383" y="-0.585938" style="font-size: 6px; font-family: 'DejaVu Sans'">0</tspan>
        <tspan x="7.692188" y="-2.882812" style="font-size: 4.2px; font-family: 'DejaVu Sans'">0</tspan>
       </text>
      </g>
     </g>
    </g>
    <g id="ytick_7"/>
    <g id="ytick_8"/>
    <g id="ytick_9"/>
    <g id="ytick_10"/>
    <g id="ytick_11"/>
    <g id="ytick_12"/>
    <g id="ytick_13"/>
    <g id="ytick_14"/>
    <g id="ytick_15"/>
    <g id="ytick_16"/>
    <g id="ytick_17"/>
    <g id="ytick_18"/>
    <g id="ytick_19"/>
    <g id="ytick_20"/>
    <g id="ytick_21"/>
    <g id="ytick_22"/>
    <g id="ytick_23"/>
    <g id="ytick_24"/>
    <g id="ytick_25"/>
    <g id="ytick_26"/>
    <g id="ytick_27"/>
    <g id="ytick_28"/>
    <g id="ytick_29"/>
    <g id="ytick_30"/>
    <g id="ytick_31"/>
    <g id="ytick_32"/>
    <g id="ytick_33"/>
    <g id="ytick_34"/>
    <g id="ytick_35"/>
    <g id="ytick_36"/>
    <g id="ytick_37"/>
    <g id="ytick_38"/>
    <g id="ytick_39"/>
    <g id="ytick_40"/>
    <g id="ytick_41"/>
    <g id="ytick_42"/>
    <g id="ytick_43"/>
    <g id="ytick_44"/>
    <g id="ytick_45"/>
    <g id="ytick_46"/>
    <g id="text_12">
     <text style="font-size: 6px; font-family: 'DejaVu Sans', 'Arial', 'Helvetica', 'Lucida Grande', 'Verdana', 'Geneva', 'Lucid', 'Avant Garde', sans-serif; text-anchor: middle" x="-14.647812" y="54.54" transform="rotate(-90 -14.647812 54.54)">Frac of population at Ab removal</text>
    </g>
   </g>
   <g id="patch_3">
    <path d="M 11.7 96.12 
L 11.7 12.96 
" style="fill: none; stroke: #000000; stroke-width: 0.5; stroke-linejoin: miter; stroke-linecap: square"/>
   </g>
   <g id="patch_4">
    <path d="M 11.7 96.12 
L 84.24 96.12 
" style="fill: none; stroke: #000000; stroke-width: 0.5; stroke-linejoin: miter; stroke-linecap: square"/>
   </g>
  </g>
 </g>
 <defs>
  <clipPath id="p03d75f123c">
   <rect x="11.7" y="12.96" width="72.54" height="83.16"/>
  </clipPath>
 </defs>
</svg>
