<?xml version="1.0" encoding="utf-8" standalone="no"?>
<!DOCTYPE svg PUBLIC "-//W3C//DTD SVG 1.1//EN"
  "http://www.w3.org/Graphics/SVG/1.1/DTD/svg11.dtd">
<svg xmlns:xlink="http://www.w3.org/1999/xlink" width="93.6pt" height="108pt" viewBox="0 0 93.6 108" xmlns="http://www.w3.org/2000/svg" version="1.1">
 <metadata>
  <rdf:RDF xmlns:dc="http://purl.org/dc/elements/1.1/" xmlns:cc="http://creativecommons.org/ns#" xmlns:rdf="http://www.w3.org/1999/02/22-rdf-syntax-ns#">
   <cc:Work>
    <dc:type rdf:resource="http://purl.org/dc/dcmitype/StillImage"/>
    <dc:date>2026-02-16T12:41:13.409369</dc:date>
    <dc:format>image/svg+xml</dc:format>
    <dc:creator>
     <cc:Agent>
      <dc:title>Matplotlib v3.10.8, https://matplotlib.org/</dc:title>
     </cc:Agent>
    </dc:creator>
   </cc:Work>
  </rdf:RDF>
 </metadata>
 <defs>
  <style type="text/css">*{stroke-linejoin: round; stroke-linecap: butt}</style>
 </defs>
 <g id="figure_1">
  <g id="patch_1">
   <path d="M 0 108 
L 93.6 108 
L 93.6 0 
L 0 0 
L 0 108 
z
" style="fill: none"/>
  </g>
  <g id="axes_1">
   <g id="patch_2">
    <path d="M 11.7 96.12 
L 84.24 96.12 
L 84.24 12.96 
L 11.7 12.96 
L 11.7 96.12 
z
" style="fill: none"/>
   </g>
   <g id="FillBetweenPolyCollection_1">
    <path d="M 11.7 14.12117 
L 11.7 16644.96 
L 12.60675 16644.96 
L 13.5135 16644.96 
L 14.42025 16644.96 
L 15.327 16644.96 
L 16.23375 16644.96 
L 17.1405 16644.96 
L 18.04725 16644.96 
L 18.954 16644.96 
L 19.86075 16644.96 
L 20.7675 16644.96 
L 21.67425 16644.96 
L 22.581 16644.96 
L 23.48775 16644.96 
L 24.3945 16644.96 
L 25.30125 16644.96 
L 26.208 16644.96 
L 27.11475 16644.96 
L 28.0215 16644.96 
L 28.92825 16644.96 
L 29.835 16644.96 
L 30.74175 16644.96 
L 31.6485 16644.96 
L 32.55525 16644.96 
L 33.462 16644.96 
L 34.36875 16644.96 
L 35.2755 16644.96 
L 36.18225 16644.96 
L 37.089 16644.96 
L 37.99575 16644.96 
L 38.9025 16644.96 
L 39.80925 16644.96 
L 40.716 16644.96 
L 41.62275 16644.96 
L 42.5295 16644.96 
L 43.43625 16644.96 
L 44.343 16644.96 
L 45.24975 16644.96 
L 46.1565 16644.96 
L 47.06325 16644.96 
L 47.97 16644.96 
L 48.87675 16644.96 
L 49.7835 16644.96 
L 50.69025 16644.96 
L 51.597 16644.96 
L 52.50375 16644.96 
L 53.4105 16644.96 
L 54.31725 16644.96 
L 55.224 16644.96 
L 56.13075 16644.96 
L 57.0375 16644.96 
L 57.94425 16644.96 
L 58.851 16644.96 
L 59.75775 16644.96 
L 60.6645 16644.96 
L 61.57125 16644.96 
L 62.478 16644.96 
L 63.38475 16644.96 
L 64.2915 16644.96 
L 65.19825 16644.96 
L 66.105 16644.96 
L 67.01175 16644.96 
L 67.9185 16644.96 
L 68.82525 16644.96 
L 69.732 16644.96 
L 70.63875 16644.96 
L 71.5455 16644.96 
L 72.45225 16644.96 
L 73.359 16644.96 
L 74.26575 16644.96 
L 75.1725 16644.96 
L 76.07925 16644.96 
L 76.986 16644.96 
L 77.89275 16644.96 
L 78.7995 16644.96 
L 79.70625 16644.96 
L 80.613 16644.96 
L 81.51975 16644.96 
L 82.4265 16644.96 
L 83.33325 16644.96 
L 84.24 16644.96 
L 84.24 85.748947 
L 84.24 85.748947 
L 83.33325 84.987174 
L 82.4265 84.152387 
L 81.51975 83.232397 
L 80.613 82.212767 
L 79.70625 81.076733 
L 78.7995 79.805502 
L 77.89275 78.379147 
L 76.986 76.778339 
L 76.07925 74.986979 
L 75.1725 72.995407 
L 74.26575 70.803427 
L 73.359 68.422103 
L 72.45225 65.873556 
L 71.5455 63.188732 
L 70.63875 60.403897 
L 69.732 57.55695 
L 68.82525 54.68445 
L 67.9185 51.819725 
L 67.01175 48.99202 
L 66.105 46.226359 
L 65.19825 43.543824 
L 64.2915 40.961961 
L 63.38475 38.495182 
L 62.478 36.15507 
L 61.57125 33.950578 
L 60.6645 31.88816 
L 59.75775 29.971844 
L 58.851 28.203317 
L 57.94425 26.582032 
L 57.0375 25.105369 
L 56.13075 23.768859 
L 55.224 22.566457 
L 54.31725 21.490849 
L 53.4105 20.533788 
L 52.50375 19.686418 
L 51.597 18.939575 
L 50.69025 18.284061 
L 49.7835 17.710863 
L 48.87675 17.211328 
L 47.97 16.777297 
L 47.06325 16.401181 
L 46.1565 16.076017 
L 45.24975 15.795481 
L 44.343 15.553882 
L 43.43625 15.346142 
L 42.5295 15.167757 
L 41.62275 15.014761 
L 40.716 14.883672 
L 39.80925 14.771451 
L 38.9025 14.675455 
L 37.99575 14.593391 
L 37.089 14.523275 
L 36.18225 14.463396 
L 35.2755 14.41228 
L 34.36875 14.36866 
L 33.462 14.331446 
L 32.55525 14.299706 
L 31.6485 14.27264 
L 30.74175 14.249565 
L 29.835 14.229894 
L 28.92825 14.213128 
L 28.0215 14.198839 
L 27.11475 14.186662 
L 26.208 14.176285 
L 25.30125 14.167444 
L 24.3945 14.159911 
L 23.48775 14.153494 
L 22.581 14.148026 
L 21.67425 14.143368 
L 20.7675 14.139399 
L 19.86075 14.136019 
L 18.954 14.133139 
L 18.04725 14.130686 
L 17.1405 14.128596 
L 16.23375 14.126815 
L 15.327 14.125299 
L 14.42025 14.124007 
L 13.5135 14.122907 
L 12.60675 14.121969 
L 11.7 14.12117 
z
" clip-path="url(#pd7d6e25c07)" style="fill: #ff8ef4; fill-opacity: 0.85"/>
   </g>
   <g id="FillBetweenPolyCollection_2">
    <path d="M 11.7 12.964479 
L 11.7 14.12117 
L 12.60675 14.121969 
L 13.5135 14.122907 
L 14.42025 14.124007 
L 15.327 14.125299 
L 16.23375 14.126815 
L 17.1405 14.128596 
L 18.04725 14.130686 
L 18.954 14.133139 
L 19.86075 14.136019 
L 20.7675 14.139399 
L 21.67425 14.143368 
L 22.581 14.148026 
L 23.48775 14.153494 
L 24.3945 14.159911 
L 25.30125 14.167444 
L 26.208 14.176285 
L 27.11475 14.186662 
L 28.0215 14.198839 
L 28.92825 14.213128 
L 29.835 14.229894 
L 30.74175 14.249565 
L 31.6485 14.27264 
L 32.55525 14.299706 
L 33.462 14.331446 
L 34.36875 14.36866 
L 35.2755 14.41228 
L 36.18225 14.463396 
L 37.089 14.523275 
L 37.99575 14.593391 
L 38.9025 14.675455 
L 39.80925 14.771451 
L 40.716 14.883672 
L 41.62275 15.014761 
L 42.5295 15.167757 
L 43.43625 15.346142 
L 44.343 15.553882 
L 45.24975 15.795481 
L 46.1565 16.076017 
L 47.06325 16.401181 
L 47.97 16.777297 
L 48.87675 17.211328 
L 49.7835 17.710863 
L 50.69025 18.284061 
L 51.597 18.939575 
L 52.50375 19.686418 
L 53.4105 20.533788 
L 54.31725 21.490849 
L 55.224 22.566457 
L 56.13075 23.768859 
L 57.0375 25.105369 
L 57.94425 26.582032 
L 58.851 28.203317 
L 59.75775 29.971844 
L 60.6645 31.88816 
L 61.57125 33.950578 
L 62.478 36.15507 
L 63.38475 38.495182 
L 64.2915 40.961961 
L 65.19825 43.543824 
L 66.105 46.226359 
L 67.01175 48.99202 
L 67.9185 51.819725 
L 68.82525 54.68445 
L 69.732 57.55695 
L 70.63875 60.403897 
L 71.5455 63.188732 
L 72.45225 65.873556 
L 73.359 68.422103 
L 74.26575 70.803427 
L 75.1725 72.995407 
L 76.07925 74.986979 
L 76.986 76.778339 
L 77.89275 78.379147 
L 78.7995 79.805502 
L 79.70625 81.076733 
L 80.613 82.212767 
L 81.51975 83.232397 
L 82.4265 84.152387 
L 83.33325 84.987174 
L 84.24 85.748947 
L 84.24 61.899622 
L 84.24 61.899622 
L 83.33325 59.770034 
L 82.4265 57.626653 
L 81.51975 55.490439 
L 80.613 53.381973 
L 79.70625 51.320999 
L 78.7995 49.325998 
L 77.89275 47.413773 
L 76.986 45.599018 
L 76.07925 43.893883 
L 75.1725 42.30753 
L 74.26575 40.845713 
L 73.359 39.510398 
L 72.45225 38.299439 
L 71.5455 37.206336 
L 70.63875 36.220091 
L 69.732 35.325176 
L 68.82525 34.501712 
L 67.9185 33.725961 
L 67.01175 32.971341 
L 66.105 32.210183 
L 65.19825 31.416338 
L 64.2915 30.568421 
L 63.38475 29.65305 
L 62.478 28.667091 
L 61.57125 27.618049 
L 60.6645 26.522351 
L 59.75775 25.402115 
L 58.851 24.281454 
L 57.94425 23.183278 
L 57.0375 22.127139 
L 56.13075 21.128161 
L 55.224 20.196846 
L 54.31725 19.339435 
L 53.4105 18.558557 
L 52.50375 17.85398 
L 51.597 17.223334 
L 50.69025 16.662756 
L 49.7835 16.167426 
L 48.87675 15.731997 
L 47.97 15.350918 
L 47.06325 15.018678 
L 46.1565 14.729969 
L 45.24975 14.479796 
L 44.343 14.263543 
L 43.43625 14.077001 
L 42.5295 13.916376 
L 41.62275 13.778279 
L 40.716 13.659706 
L 39.80925 13.558012 
L 38.9025 13.470878 
L 37.99575 13.396281 
L 37.089 13.332461 
L 36.18225 13.277895 
L 35.2755 13.231264 
L 34.36875 13.191432 
L 33.462 13.15742 
L 32.55525 13.128388 
L 31.6485 13.103611 
L 30.74175 13.082473 
L 29.835 13.064441 
L 28.92825 13.049063 
L 28.0215 13.035949 
L 27.11475 13.024767 
L 26.208 13.015234 
L 25.30125 13.007107 
L 24.3945 13.000179 
L 23.48775 12.994274 
L 22.581 12.989241 
L 21.67425 12.984952 
L 20.7675 12.981296 
L 19.86075 12.978181 
L 18.954 12.975526 
L 18.04725 12.973264 
L 17.1405 12.971336 
L 16.23375 12.969693 
L 15.327 12.968293 
L 14.42025 12.9671 
L 13.5135 12.966083 
L 12.60675 12.965217 
L 11.7 12.964479 
z
" clip-path="url(#pd7d6e25c07)" style="fill: #ffff7c; fill-opacity: 0.85"/>
   </g>
   <g id="FillBetweenPolyCollection_3">
    <path d="M 11.7 12.964251 
L 11.7 12.964479 
L 12.60675 12.965217 
L 13.5135 12.966083 
L 14.42025 12.9671 
L 15.327 12.968293 
L 16.23375 12.969693 
L 17.1405 12.971336 
L 18.04725 12.973264 
L 18.954 12.975526 
L 19.86075 12.978181 
L 20.7675 12.981296 
L 21.67425 12.984952 
L 22.581 12.989241 
L 23.48775 12.994274 
L 24.3945 13.000179 
L 25.30125 13.007107 
L 26.208 13.015234 
L 27.11475 13.024767 
L 28.0215 13.035949 
L 28.92825 13.049063 
L 29.835 13.064441 
L 30.74175 13.082473 
L 31.6485 13.103611 
L 32.55525 13.128388 
L 33.462 13.15742 
L 34.36875 13.191432 
L 35.2755 13.231264 
L 36.18225 13.277895 
L 37.089 13.332461 
L 37.99575 13.396281 
L 38.9025 13.470878 
L 39.80925 13.558012 
L 40.716 13.659706 
L 41.62275 13.778279 
L 42.5295 13.916376 
L 43.43625 14.077001 
L 44.343 14.263543 
L 45.24975 14.479796 
L 46.1565 14.729969 
L 47.06325 15.018678 
L 47.97 15.350918 
L 48.87675 15.731997 
L 49.7835 16.167426 
L 50.69025 16.662756 
L 51.597 17.223334 
L 52.50375 17.85398 
L 53.4105 18.558557 
L 54.31725 19.339435 
L 55.224 20.196846 
L 56.13075 21.128161 
L 57.0375 22.127139 
L 57.94425 23.183278 
L 58.851 24.281454 
L 59.75775 25.402115 
L 60.6645 26.522351 
L 61.57125 27.618049 
L 62.478 28.667091 
L 63.38475 29.65305 
L 64.2915 30.568421 
L 65.19825 31.416338 
L 66.105 32.210183 
L 67.01175 32.971341 
L 67.9185 33.725961 
L 68.82525 34.501712 
L 69.732 35.325176 
L 70.63875 36.220091 
L 71.5455 37.206336 
L 72.45225 38.299439 
L 73.359 39.510398 
L 74.26575 40.845713 
L 75.1725 42.30753 
L 76.07925 43.893883 
L 76.986 45.599018 
L 77.89275 47.413773 
L 78.7995 49.325998 
L 79.70625 51.320999 
L 80.613 53.381973 
L 81.51975 55.490439 
L 82.4265 57.626653 
L 83.33325 59.770034 
L 84.24 61.899622 
L 84.24 61.703165 
L 84.24 61.703165 
L 83.33325 59.623234 
L 82.4265 57.517262 
L 81.51975 55.408897 
L 80.613 53.320987 
L 79.70625 51.275104 
L 78.7995 49.291153 
L 77.89275 47.387017 
L 76.986 45.578198 
L 76.07925 43.877436 
L 75.1725 42.294322 
L 74.26575 40.834924 
L 73.359 39.501428 
L 72.45225 38.291853 
L 71.5455 37.199815 
L 70.63875 36.214402 
L 69.732 35.32015 
L 68.82525 34.497227 
L 67.9185 33.721933 
L 67.01175 32.967712 
L 66.105 32.206917 
L 65.19825 31.413412 
L 64.2915 30.565819 
L 63.38475 29.650757 
L 62.478 28.665091 
L 61.57125 27.616319 
L 60.6645 26.520865 
L 59.75775 25.400842 
L 58.851 24.280364 
L 57.94425 23.182342 
L 57.0375 22.12633 
L 56.13075 21.127457 
L 55.224 20.196227 
L 54.31725 19.338885 
L 53.4105 18.558063 
L 52.50375 17.853532 
L 51.597 17.222924 
L 50.69025 16.662377 
L 49.7835 16.167072 
L 48.87675 15.731663 
L 47.97 15.350601 
L 47.06325 15.018375 
L 46.1565 14.729678 
L 45.24975 14.479516 
L 44.343 14.263271 
L 43.43625 14.076736 
L 42.5295 13.916116 
L 41.62275 13.778024 
L 40.716 13.659456 
L 39.80925 13.557765 
L 38.9025 13.470634 
L 37.99575 13.39604 
L 37.089 13.332222 
L 36.18225 13.277658 
L 35.2755 13.231028 
L 34.36875 13.191197 
L 33.462 13.157187 
L 32.55525 13.128155 
L 31.6485 13.10338 
L 30.74175 13.082242 
L 29.835 13.064211 
L 28.92825 13.048833 
L 28.0215 13.035719 
L 27.11475 13.024537 
L 26.208 13.015004 
L 25.30125 13.006878 
L 24.3945 12.99995 
L 23.48775 12.994046 
L 22.581 12.989013 
L 21.67425 12.984724 
L 20.7675 12.981068 
L 19.86075 12.977953 
L 18.954 12.975298 
L 18.04725 12.973036 
L 17.1405 12.971108 
L 16.23375 12.969465 
L 15.327 12.968065 
L 14.42025 12.966872 
L 13.5135 12.965856 
L 12.60675 12.964989 
L 11.7 12.964251 
z
" clip-path="url(#pd7d6e25c07)" style="fill: #7cffff; fill-opacity: 0.85"/>
   </g>
   <g id="FillBetweenPolyCollection_4">
    <path d="M 11.7 12.96 
L 11.7 12.964251 
L 12.60675 12.964989 
L 13.5135 12.965856 
L 14.42025 12.966872 
L 15.327 12.968065 
L 16.23375 12.969465 
L 17.1405 12.971108 
L 18.04725 12.973036 
L 18.954 12.975298 
L 19.86075 12.977953 
L 20.7675 12.981068 
L 21.67425 12.984724 
L 22.581 12.989013 
L 23.48775 12.994046 
L 24.3945 12.99995 
L 25.30125 13.006878 
L 26.208 13.015004 
L 27.11475 13.024537 
L 28.0215 13.035719 
L 28.92825 13.048833 
L 29.835 13.064211 
L 30.74175 13.082242 
L 31.6485 13.10338 
L 32.55525 13.128155 
L 33.462 13.157187 
L 34.36875 13.191197 
L 35.2755 13.231028 
L 36.18225 13.277658 
L 37.089 13.332222 
L 37.99575 13.39604 
L 38.9025 13.470634 
L 39.80925 13.557765 
L 40.716 13.659456 
L 41.62275 13.778024 
L 42.5295 13.916116 
L 43.43625 14.076736 
L 44.343 14.263271 
L 45.24975 14.479516 
L 46.1565 14.729678 
L 47.06325 15.018375 
L 47.97 15.350601 
L 48.87675 15.731663 
L 49.7835 16.167072 
L 50.69025 16.662377 
L 51.597 17.222924 
L 52.50375 17.853532 
L 53.4105 18.558063 
L 54.31725 19.338885 
L 55.224 20.196227 
L 56.13075 21.127457 
L 57.0375 22.12633 
L 57.94425 23.182342 
L 58.851 24.280364 
L 59.75775 25.400842 
L 60.6645 26.520865 
L 61.57125 27.616319 
L 62.478 28.665091 
L 63.38475 29.650757 
L 64.2915 30.565819 
L 65.19825 31.413412 
L 66.105 32.206917 
L 67.01175 32.967712 
L 67.9185 33.721933 
L 68.82525 34.497227 
L 69.732 35.32015 
L 70.63875 36.214402 
L 71.5455 37.199815 
L 72.45225 38.291853 
L 73.359 39.501428 
L 74.26575 40.834924 
L 75.1725 42.294322 
L 76.07925 43.877436 
L 76.986 45.578198 
L 77.89275 47.387017 
L 78.7995 49.291153 
L 79.70625 51.275104 
L 80.613 53.320987 
L 81.51975 55.408897 
L 82.4265 57.517262 
L 83.33325 59.623234 
L 84.24 61.703165 
L 84.24 12.96 
L 84.24 12.96 
L 83.33325 12.96 
L 82.4265 12.96 
L 81.51975 12.96 
L 80.613 12.96 
L 79.70625 12.96 
L 78.7995 12.96 
L 77.89275 12.96 
L 76.986 12.96 
L 76.07925 12.96 
L 75.1725 12.96 
L 74.26575 12.96 
L 73.359 12.96 
L 72.45225 12.96 
L 71.5455 12.96 
L 70.63875 12.96 
L 69.732 12.96 
L 68.82525 12.96 
L 67.9185 12.96 
L 67.01175 12.96 
L 66.105 12.96 
L 65.19825 12.96 
L 64.2915 12.96 
L 63.38475 12.96 
L 62.478 12.96 
L 61.57125 12.96 
L 60.6645 12.96 
L 59.75775 12.96 
L 58.851 12.96 
L 57.94425 12.96 
L 57.0375 12.96 
L 56.13075 12.96 
L 55.224 12.96 
L 54.31725 12.96 
L 53.4105 12.96 
L 52.50375 12.96 
L 51.597 12.96 
L 50.69025 12.96 
L 49.7835 12.96 
L 48.87675 12.96 
L 47.97 12.96 
L 47.06325 12.96 
L 46.1565 12.96 
L 45.24975 12.96 
L 44.343 12.96 
L 43.43625 12.96 
L 42.5295 12.96 
L 41.62275 12.96 
L 40.716 12.96 
L 39.80925 12.96 
L 38.9025 12.96 
L 37.99575 12.96 
L 37.089 12.96 
L 36.18225 12.96 
L 35.2755 12.96 
L 34.36875 12.96 
L 33.462 12.96 
L 32.55525 12.96 
L 31.6485 12.96 
L 30.74175 12.96 
L 29.835 12.96 
L 28.92825 12.96 
L 28.0215 12.96 
L 27.11475 12.96 
L 26.208 12.96 
L 25.30125 12.96 
L 24.3945 12.96 
L 23.48775 12.96 
L 22.581 12.96 
L 21.67425 12.96 
L 20.7675 12.96 
L 19.86075 12.96 
L 18.954 12.96 
L 18.04725 12.96 
L 17.1405 12.96 
L 16.23375 12.96 
L 15.327 12.96 
L 14.42025 12.96 
L 13.5135 12.96 
L 12.60675 12.96 
L 11.7 12.96 
z
" clip-path="url(#pd7d6e25c07)" style="fill: #ffa09f; fill-opacity: 0.85"/>
   </g>
   <g id="matplotlib.axis_1">
    <g id="xtick_1">
     <g id="line2d_1">
      <defs>
       <path id="m848e423092" d="M 0 0 
L 0 3.5 
" style="stroke: #000000; stroke-width: 0.8"/>
      </defs>
      <g>
       <use xlink:href="#m848e423092" x="18.315122" y="96.12" style="stroke: #000000; stroke-width: 0.8"/>
      </g>
     </g>
     <g id="text_1">
      <!-- $\mathdefault{10^{-1}}$ -->
      <g transform="translate(11.265122 107.679063)">
       <text>
        <tspan x="0" y="-0.640625" style="font-size: 6px; font-family: 'DejaVu Sans'">1</tspan>
        <tspan x="3.817383" y="-0.640625" style="font-size: 6px; font-family: 'DejaVu Sans'">0</tspan>
        <tspan x="7.692188" y="-2.9375" style="font-size: 4.2px; font-family: 'DejaVu Sans'">−</tspan>
        <tspan x="11.211328" y="-2.9375" style="font-size: 4.2px; font-family: 'DejaVu Sans'">1</tspan>
       </text>
      </g>
     </g>
    </g>
    <g id="xtick_2">
     <g id="line2d_2">
      <g>
       <use xlink:href="#m848e423092" x="40.290081" y="96.12" style="stroke: #000000; stroke-width: 0.8"/>
      </g>
     </g>
     <g id="text_2">
      <!-- $\mathdefault{10^{0}}$ -->
      <g transform="translate(35.010081 107.679063)">
       <text>
        <tspan x="0" y="-0.585938" style="font-size: 6px; font-family: 'DejaVu Sans'">1</tspan>
        <tspan x="3.817383" y="-0.585938" style="font-size: 6px; font-family: 'DejaVu Sans'">0</tspan>
        <tspan x="7.692188" y="-2.882812" style="font-size: 4.2px; font-family: 'DejaVu Sans'">0</tspan>
       </text>
      </g>
     </g>
    </g>
    <g id="xtick_3">
     <g id="line2d_3">
      <g>
       <use xlink:href="#m848e423092" x="62.265041" y="96.12" style="stroke: #000000; stroke-width: 0.8"/>
      </g>
     </g>
     <g id="text_3">
      <!-- $\mathdefault{10^{1}}$ -->
      <g transform="translate(56.985041 107.679063)">
       <text>
        <tspan x="0" y="-0.640625" style="font-size: 6px; font-family: 'DejaVu Sans'">1</tspan>
        <tspan x="3.817383" y="-0.640625" style="font-size: 6px; font-family: 'DejaVu Sans'">0</tspan>
        <tspan x="7.692188" y="-2.9375" style="font-size: 4.2px; font-family: 'DejaVu Sans'">1</tspan>
       </text>
      </g>
     </g>
    </g>
    <g id="xtick_4">
     <g id="line2d_4">
      <g>
       <use xlink:href="#m848e423092" x="84.24" y="96.12" style="stroke: #000000; stroke-width: 0.8"/>
      </g>
     </g>
     <g id="text_4">
      <!-- $\mathdefault{10^{2}}$ -->
      <g transform="translate(78.96 107.679063)">
       <text>
        <tspan x="0" y="-0.585938" style="font-size: 6px; font-family: 'DejaVu Sans'">1</tspan>
        <tspan x="3.817383" y="-0.585938" style="font-size: 6px; font-family: 'DejaVu Sans'">0</tspan>
        <tspan x="7.692188" y="-2.882812" style="font-size: 4.2px; font-family: 'DejaVu Sans'">2</tspan>
       </text>
      </g>
     </g>
    </g>
    <g id="xtick_5"/>
    <g id="xtick_6"/>
    <g id="xtick_7"/>
    <g id="xtick_8"/>
    <g id="xtick_9"/>
    <g id="xtick_10"/>
    <g id="xtick_11"/>
    <g id="xtick_12"/>
    <g id="xtick_13"/>
    <g id="xtick_14"/>
    <g id="xtick_15"/>
    <g id="xtick_16"/>
    <g id="xtick_17"/>
    <g id="xtick_18"/>
    <g id="xtick_19"/>
    <g id="xtick_20"/>
    <g id="xtick_21"/>
    <g id="xtick_22"/>
    <g id="xtick_23"/>
    <g id="xtick_24"/>
    <g id="xtick_25"/>
    <g id="xtick_26"/>
    <g id="xtick_27"/>
    <g id="xtick_28"/>
    <g id="xtick_29"/>
    <g id="xtick_30"/>
    <g id="xtick_31"/>
    <g id="xtick_32"/>
    <g id="xtick_33"/>
    <g id="text_5">
     <text style="font-size: 6px; font-family: 'DejaVu Sans', 'Arial', 'Helvetica', 'Lucida Grande', 'Verdana', 'Geneva', 'Lucid', 'Avant Garde', sans-serif; text-anchor: middle" x="47.97" y="117.485938" transform="rotate(-0 47.97 117.485938)">Antibiotic concentration C (μg/mL)</text>
    </g>
   </g>
   <g id="matplotlib.axis_2">
    <g id="ytick_1">
     <g id="line2d_5">
      <defs>
       <path id="m3e532beea4" d="M 0 0 
L -3.5 0 
" style="stroke: #000000; stroke-width: 0.8"/>
      </defs>
      <g>
       <use xlink:href="#m3e532beea4" x="11.7" y="96.12" style="stroke: #000000; stroke-width: 0.8"/>
      </g>
     </g>
     <g id="text_6">
      <!-- $\mathdefault{10^{-5}}$ -->
      <g transform="translate(-9.4 98.399531)">
       <text>
        <tspan x="0" y="-0.640625" style="font-size: 6px; font-family: 'DejaVu Sans'">1</tspan>
        <tspan x="3.817383" y="-0.640625" style="font-size: 6px; font-family: 'DejaVu Sans'">0</tspan>
        <tspan x="7.692188" y="-2.9375" style="font-size: 4.2px; font-family: 'DejaVu Sans'">−</tspan>
        <tspan x="11.211328" y="-2.9375" style="font-size: 4.2px; font-family: 'DejaVu Sans'">5</tspan>
       </text>
      </g>
     </g>
    </g>
    <g id="ytick_2">
     <g id="line2d_6">
      <g>
       <use xlink:href="#m3e532beea4" x="11.7" y="79.488" style="stroke: #000000; stroke-width: 0.8"/>
      </g>
     </g>
     <g id="text_7">
      <!-- $\mathdefault{10^{-4}}$ -->
      <g transform="translate(-9.4 81.767531)">
       <text>
        <tspan x="0" y="-0.640625" style="font-size: 6px; font-family: 'DejaVu Sans'">1</tspan>
        <tspan x="3.817383" y="-0.640625" style="font-size: 6px; font-family: 'DejaVu Sans'">0</tspan>
        <tspan x="7.692188" y="-2.9375" style="font-size: 4.2px; font-family: 'DejaVu Sans'">−</tspan>
        <tspan x="11.211328" y="-2.9375" style="font-size: 4.2px; font-family: 'DejaVu Sans'">4</tspan>
       </text>
      </g>
     </g>
    </g>
    <g id="ytick_3">
     <g id="line2d_7">
      <g>
       <use xlink:href="#m3e532beea4" x="11.7" y="62.856" style="stroke: #000000; stroke-width: 0.8"/>
      </g>
     </g>
     <g id="text_8">
      <!-- $\mathdefault{10^{-3}}$ -->
      <g transform="translate(-9.4 65.135531)">
       <text>
        <tspan x="0" y="-0.585938" style="font-size: 6px; font-family: 'DejaVu Sans'">1</tspan>
        <tspan x="3.817383" y="-0.585938" style="font-size: 6px; font-family: 'DejaVu Sans'">0</tspan>
        <tspan x="7.692188" y="-2.882812" style="font-size: 4.2px; font-family: 'DejaVu Sans'">−</tspan>
        <tspan x="11.211328" y="-2.882812" style="font-size: 4.2px; font-family: 'DejaVu Sans'">3</tspan>
       </text>
      </g>
     </g>
    </g>
    <g id="ytick_4">
     <g id="line2d_8">
      <g>
       <use xlink:href="#m3e532beea4" x="11.7" y="46.224" style="stroke: #000000; stroke-width: 0.8"/>
      </g>
     </g>
     <g id="text_9">
      <!-- $\mathdefault{10^{-2}}$ -->
      <g transform="translate(-9.4 48.503531)">
       <text>
        <tspan x="0" y="-0.585938" style="font-size: 6px; font-family: 'DejaVu Sans'">1</tspan>
        <tspan x="3.817383" y="-0.585938" style="font-size: 6px; font-family: 'DejaVu Sans'">0</tspan>
        <tspan x="7.692188" y="-2.882812" style="font-size: 4.2px; font-family: 'DejaVu Sans'">−</tspan>
        <tspan x="11.211328" y="-2.882812" style="font-size: 4.2px; font-family: 'DejaVu Sans'">2</tspan>
       </text>
      </g>
     </g>
    </g>
    <g id="ytick_5">
     <g id="line2d_9">
      <g>
       <use xlink:href="#m3e532beea4" x="11.7" y="29.592" style="stroke: #000000; stroke-width: 0.8"/>
      </g>
     </g>
     <g id="text_10">
      <!-- $\mathdefault{10^{-1}}$ -->
      <g transform="translate(-9.4 31.871531)">
       <text>
        <tspan x="0" y="-0.640625" style="font-size: 6px; font-family: 'DejaVu Sans'">1</tspan>
        <tspan x="3.817383" y="-0.640625" style="font-size: 6px; font-family: 'DejaVu Sans'">0</tspan>
        <tspan x="7.692188" y="-2.9375" style="font-size: 4.2px; font-family: 'DejaVu Sans'">−</tspan>
        <tspan x="11.211328" y="-2.9375" style="font-size: 4.2px; font-family: 'DejaVu Sans'">1</tspan>
       </text>
      </g>
     </g>
    </g>
    <g id="ytick_6">
     <g id="line2d_10">
      <g>
       <use xlink:href="#m3e532beea4" x="11.7" y="12.96" style="stroke: #000000; stroke-width: 0.8"/>
      </g>
     </g>
     <g id="text_11">
      <!-- $\mathdefault{10^{0}}$ -->
      <g transform="translate(-5.86 15.239531)">
       <text>
        <tspan x="0" y="-0.585938" style="font-size: 6px; font-family: 'DejaVu Sans'">1</tspan>
        <tspan x="3.817383" y="-0.585938" style="font-size: 6px; font-family: 'DejaVu Sans'">0</tspan>
        <tspan x="7.692188" y="-2.882812" style="font-size: 4.2px; font-family: 'DejaVu Sans'">0</tspan>
       </text>
      </g>
     </g>
    </g>
    <g id="ytick_7"/>
    <g id="ytick_8"/>
    <g id="ytick_9"/>
    <g id="ytick_10"/>
    <g id="ytick_11"/>
    <g id="ytick_12"/>
    <g id="ytick_13"/>
    <g id="ytick_14"/>
    <g id="ytick_15"/>
    <g id="ytick_16"/>
    <g id="ytick_17"/>
    <g id="ytick_18"/>
    <g id="ytick_19"/>
    <g id="ytick_20"/>
    <g id="ytick_21"/>
    <g id="ytick_22"/>
    <g id="ytick_23"/>
    <g id="ytick_24"/>
    <g id="ytick_25"/>
    <g id="ytick_26"/>
    <g id="ytick_27"/>
    <g id="ytick_28"/>
    <g id="ytick_29"/>
    <g id="ytick_30"/>
    <g id="ytick_31"/>
    <g id="ytick_32"/>
    <g id="ytick_33"/>
    <g id="ytick_34"/>
    <g id="ytick_35"/>
    <g id="ytick_36"/>
    <g id="ytick_37"/>
    <g id="ytick_38"/>
    <g id="ytick_39"/>
    <g id="ytick_40"/>
    <g id="ytick_41"/>
    <g id="ytick_42"/>
    <g id="ytick_43"/>
    <g id="ytick_44"/>
    <g id="ytick_45"/>
    <g id="ytick_46"/>
    <g id="text_12">
     <text style="font-size: 6px; font-family: 'DejaVu Sans', 'Arial', 'Helvetica', 'Lucida Grande', 'Verdana', 'Geneva', 'Lucid', 'Avant Garde', sans-serif; text-anchor: middle" x="-14.647812" y="54.54" transform="rotate(-90 -14.647812 54.54)">Frac of population at Ab removal</text>
    </g>
   </g>
   <g id="patch_3">
    <path d="M 11.7 96.12 
L 11.7 12.96 
" style="fill: none; stroke: #000000; stroke-width: 0.5; stroke-linejoin: miter; stroke-linecap: square"/>
   </g>
   <g id="patch_4">
    <path d="M 11.7 96.12 
L 84.24 96.12 
" style="fill: none; stroke: #000000; stroke-width: 0.5; stroke-linejoin: miter; stroke-linecap: square"/>
   </g>
  </g>
 </g>
 <defs>
  <clipPath id="pd7d6e25c07">
   <rect x="11.7" y="12.96" width="72.54" height="83.16"/>
  </clipPath>
 </defs>
</svg>
