<?xml version="1.0" encoding="utf-8" standalone="no"?>
<!DOCTYPE svg PUBLIC "-//W3C//DTD SVG 1.1//EN"
  "http://www.w3.org/Graphics/SVG/1.1/DTD/svg11.dtd">
<svg xmlns:xlink="http://www.w3.org/1999/xlink" width="61.2pt" height="28.8pt" viewBox="0 0 61.2 28.8" xmlns="http://www.w3.org/2000/svg" version="1.1">
 <metadata>
  <rdf:RDF xmlns:dc="http://purl.org/dc/elements/1.1/" xmlns:cc="http://creativecommons.org/ns#" xmlns:rdf="http://www.w3.org/1999/02/22-rdf-syntax-ns#">
   <cc:Work>
    <dc:type rdf:resource="http://purl.org/dc/dcmitype/StillImage"/>
    <dc:date>2026-02-16T12:41:14.077584</dc:date>
    <dc:format>image/svg+xml</dc:format>
    <dc:creator>
     <cc:Agent>
      <dc:title>Matplotlib v3.10.8, https://matplotlib.org/</dc:title>
     </cc:Agent>
    </dc:creator>
   </cc:Work>
  </rdf:RDF>
 </metadata>
 <defs>
  <style type="text/css">*{stroke-linejoin: round; stroke-linecap: butt}</style>
 </defs>
 <g id="figure_1">
  <g id="patch_1">
   <path d="M 0 28.8 
L 61.2 28.8 
L 61.2 0 
L 0 0 
L 0 28.8 
z
" style="fill: none"/>
  </g>
  <g id="axes_1">
   <g id="patch_2">
    <path d="M 7.65 25.632 
L 55.08 25.632 
L 55.08 3.456 
L 7.65 3.456 
L 7.65 25.632 
z
" style="fill: none"/>
   </g>
   <g id="matplotlib.axis_1">
    <g id="xtick_1">
     <g id="line2d_1">
      <defs>
       <path id="m86dcfb4e18" d="M 0 0 
L 0 3.5 
" style="stroke: #000000; stroke-width: 0.8"/>
      </defs>
      <g>
       <use xlink:href="#m86dcfb4e18" x="9.805909" y="25.632" style="stroke: #000000; stroke-width: 0.8"/>
      </g>
     </g>
     <g id="text_1">
      <text style="font-size: 6px; font-family: 'DejaVu Sans', 'Arial', 'Helvetica', 'Lucida Grande', 'Verdana', 'Geneva', 'Lucid', 'Avant Garde', sans-serif; text-anchor: middle" x="9.805909" y="37.191063" transform="rotate(-0 9.805909 37.191063)">0</text>
     </g>
    </g>
    <g id="xtick_2">
     <g id="line2d_2">
      <g>
       <use xlink:href="#m86dcfb4e18" x="52.924091" y="25.632" style="stroke: #000000; stroke-width: 0.8"/>
      </g>
     </g>
     <g id="text_2">
      <text style="font-size: 6px; font-family: 'DejaVu Sans', 'Arial', 'Helvetica', 'Lucida Grande', 'Verdana', 'Geneva', 'Lucid', 'Avant Garde', sans-serif; text-anchor: middle" x="52.924091" y="37.191063" transform="rotate(-0 52.924091 37.191063)">10</text>
     </g>
    </g>
   </g>
   <g id="matplotlib.axis_2">
    <g id="ytick_1">
     <g id="line2d_3">
      <defs>
       <path id="me034215a98" d="M 0 0 
L -3.5 0 
" style="stroke: #000000; stroke-width: 0.8"/>
      </defs>
      <g>
       <use xlink:href="#me034215a98" x="7.65" y="24.624" style="stroke: #000000; stroke-width: 0.8"/>
      </g>
     </g>
     <g id="text_3">
      <text style="font-size: 6px; font-family: 'DejaVu Sans', 'Arial', 'Helvetica', 'Lucida Grande', 'Verdana', 'Geneva', 'Lucid', 'Avant Garde', sans-serif; text-anchor: end" x="0.65" y="26.903531" transform="rotate(-0 0.65 26.903531)">0</text>
     </g>
    </g>
    <g id="ytick_2">
     <g id="line2d_4">
      <g>
       <use xlink:href="#me034215a98" x="7.65" y="4.464" style="stroke: #000000; stroke-width: 0.8"/>
      </g>
     </g>
     <g id="text_4">
      <text style="font-size: 6px; font-family: 'DejaVu Sans', 'Arial', 'Helvetica', 'Lucida Grande', 'Verdana', 'Geneva', 'Lucid', 'Avant Garde', sans-serif; text-anchor: end" x="0.65" y="6.743531" transform="rotate(-0 0.65 6.743531)">1</text>
     </g>
    </g>
   </g>
   <g id="line2d_5">
    <path d="M 9.805909 24.624 
L 12.075287 20.219893 
L 14.344665 16.106882 
L 16.614043 15.998277 
L 18.883421 18.423755 
L 21.152799 21.276505 
L 23.422177 23.17088 
L 25.691555 24.075909 
L 27.960933 24.434124 
L 30.230311 24.561664 
L 32.499689 24.604278 
L 34.769067 24.617929 
L 37.038445 24.62217 
L 39.307823 24.623458 
L 41.577201 24.623841 
L 43.846579 24.623954 
L 46.115957 24.623987 
L 48.385335 24.623996 
L 50.654713 24.623999 
L 52.924091 24.624 
" clip-path="url(#p1a94a857f9)" style="fill: none; stroke: #1f77b4; stroke-linecap: square"/>
   </g>
   <g id="line2d_6">
    <path d="M 9.805909 24.624 
L 12.075287 24.15863 
L 14.344665 21.918947 
L 16.614043 17.868126 
L 18.883421 12.858193 
L 21.152799 8.641602 
L 23.422177 6.183491 
L 25.691555 5.088913 
L 27.960933 4.674692 
L 30.230311 4.531767 
L 32.499689 4.485103 
L 34.769067 4.470416 
L 37.038445 4.465914 
L 39.307823 4.464563 
L 41.577201 4.464163 
L 43.846579 4.464047 
L 46.115957 4.464013 
L 48.385335 4.464004 
L 50.654713 4.464001 
L 52.924091 4.464 
" clip-path="url(#p1a94a857f9)" style="fill: none; stroke: #ff7f0e; stroke-linecap: square"/>
   </g>
   <g id="line2d_7">
    <path d="M 9.805909 4.464 
L 12.075287 9.333477 
L 14.344665 15.686171 
L 16.614043 19.845597 
L 18.883421 22.430052 
L 21.152799 23.793893 
L 23.422177 24.357629 
L 25.691555 24.547178 
L 27.960933 24.603183 
L 30.230311 24.618569 
L 32.499689 24.622619 
L 34.769067 24.623656 
L 37.038445 24.623915 
L 39.307823 24.62398 
L 41.577201 24.623995 
L 43.846579 24.623999 
L 46.115957 24.624 
L 48.385335 24.624 
L 50.654713 24.624 
L 52.924091 24.624 
" clip-path="url(#p1a94a857f9)" style="fill: none; stroke: #2ca02c; stroke-linecap: square"/>
   </g>
   <g id="patch_3">
    <path d="M 7.65 25.632 
L 7.65 3.456 
" style="fill: none; stroke: #000000; stroke-width: 0.5; stroke-linejoin: miter; stroke-linecap: square"/>
   </g>
   <g id="patch_4">
    <path d="M 7.65 25.632 
L 55.08 25.632 
" style="fill: none; stroke: #000000; stroke-width: 0.5; stroke-linejoin: miter; stroke-linecap: square"/>
   </g>
  </g>
 </g>
 <defs>
  <clipPath id="p1a94a857f9">
   <rect x="7.65" y="3.456" width="47.43" height="22.176"/>
  </clipPath>
 </defs>
</svg>
