<?xml version="1.0" encoding="utf-8" standalone="no"?>
<!DOCTYPE svg PUBLIC "-//W3C//DTD SVG 1.1//EN"
  "http://www.w3.org/Graphics/SVG/1.1/DTD/svg11.dtd">
<svg xmlns:xlink="http://www.w3.org/1999/xlink" width="108pt" height="108pt" viewBox="0 0 108 108" xmlns="http://www.w3.org/2000/svg" version="1.1">
 <metadata>
  <rdf:RDF xmlns:dc="http://purl.org/dc/elements/1.1/" xmlns:cc="http://creativecommons.org/ns#" xmlns:rdf="http://www.w3.org/1999/02/22-rdf-syntax-ns#">
   <cc:Work>
    <dc:type rdf:resource="http://purl.org/dc/dcmitype/StillImage"/>
    <dc:date>2026-02-16T12:41:14.182858</dc:date>
    <dc:format>image/svg+xml</dc:format>
    <dc:creator>
     <cc:Agent>
      <dc:title>Matplotlib v3.10.8, https://matplotlib.org/</dc:title>
     </cc:Agent>
    </dc:creator>
   </cc:Work>
  </rdf:RDF>
 </metadata>
 <defs>
  <style type="text/css">*{stroke-linejoin: round; stroke-linecap: butt}</style>
 </defs>
 <g id="figure_1">
  <g id="patch_1">
   <path d="M 0 108 
L 108 108 
L 108 0 
L 0 0 
L 0 108 
z
" style="fill: none"/>
  </g>
  <g id="axes_1">
   <g id="patch_2">
    <path d="M 13.5 96.12 
L 97.2 96.12 
L 97.2 12.96 
L 13.5 12.96 
L 13.5 96.12 
z
" style="fill: none"/>
   </g>
   <g id="QuadContourSet_1">
    <path d="M 19.7775 93.987692 
L 23.9625 93.987692 
L 28.1475 93.987692 
L 32.3325 93.987692 
L 36.5175 93.987692 
L 40.7025 93.987692 
L 44.8875 93.987692 
L 49.0725 93.987692 
L 53.2575 93.987692 
L 57.4425 93.987692 
L 61.6275 93.987692 
L 65.8125 93.987692 
L 69.9975 93.987692 
L 74.1825 93.987692 
L 78.3675 93.987692 
L 82.5525 93.987692 
L 86.7375 93.987692 
L 90.9225 93.987692 
L 95.1075 93.987692 
L 95.1075 93.327281 
L 90.9225 93.333422 
L 86.7375 93.333799 
L 82.5525 93.326087 
L 78.3675 93.306506 
L 74.1825 93.268623 
L 69.9975 93.200948 
L 65.8125 93.082155 
L 61.6275 92.871904 
L 57.4425 92.495715 
L 53.2575 91.829551 
L 49.0725 90.713953 
L 46.177205 89.723077 
L 44.8875 89.583516 
L 40.7025 89.149742 
L 36.5175 88.712216 
L 32.3325 88.363001 
L 28.1475 88.133643 
L 23.9625 88.001717 
L 19.7775 87.931576 
L 15.5925 87.895848 
L 15.5925 89.723077 
L 15.5925 93.987692 
z
" clip-path="url(#p729bb14fb3)" style="fill: #465ecf"/>
    <path d="M 49.0725 90.713953 
L 53.2575 91.829551 
L 57.4425 92.495715 
L 61.6275 92.871904 
L 65.8125 93.082155 
L 69.9975 93.200948 
L 74.1825 93.268623 
L 78.3675 93.306506 
L 82.5525 93.326087 
L 86.7375 93.333799 
L 90.9225 93.333422 
L 95.1075 93.327281 
L 95.1075 89.723077 
L 95.1075 88.167715 
L 90.9225 88.338582 
L 86.7375 88.46962 
L 82.5525 88.557378 
L 78.3675 88.596356 
L 74.1825 88.576843 
L 69.9975 88.480664 
L 65.8125 88.27258 
L 61.6275 87.882886 
L 57.4425 87.175008 
L 53.2575 85.901142 
L 52.136847 85.458462 
L 49.0725 84.559601 
L 44.8875 82.757082 
L 41.992541 81.193846 
L 40.7025 80.459264 
L 36.5175 78.09551 
L 34.226068 76.929231 
L 32.3325 75.781654 
L 28.1475 73.870994 
L 24.450521 72.664615 
L 23.9625 72.484975 
L 19.7775 71.609555 
L 15.5925 71.089405 
L 15.5925 72.664615 
L 15.5925 76.929231 
L 15.5925 81.193846 
L 15.5925 85.458462 
L 15.5925 87.895848 
L 19.7775 87.931576 
L 23.9625 88.001717 
L 28.1475 88.133643 
L 32.3325 88.363001 
L 36.5175 88.712216 
L 40.7025 89.149742 
L 44.8875 89.583516 
L 46.177205 89.723077 
z
M 82.5525 13.007889 
L 86.7375 14.157232 
L 90.9225 15.41869 
L 95.1075 16.731297 
L 95.1075 12.96 
L 90.9225 12.96 
L 86.7375 12.96 
L 82.5525 12.96 
L 82.50961 12.96 
z
" clip-path="url(#p729bb14fb3)" style="fill: #7295f4"/>
    <path d="M 53.2575 85.901142 
L 57.4425 87.175008 
L 61.6275 87.882886 
L 65.8125 88.27258 
L 69.9975 88.480664 
L 74.1825 88.576843 
L 78.3675 88.596356 
L 82.5525 88.557378 
L 86.7375 88.46962 
L 90.9225 88.338582 
L 95.1075 88.167715 
L 95.1075 85.458462 
L 95.1075 81.193846 
L 95.1075 76.929231 
L 95.1075 72.664615 
L 95.1075 68.4 
L 95.1075 64.135385 
L 95.1075 59.870769 
L 95.1075 55.606154 
L 95.1075 51.341538 
L 95.1075 47.076923 
L 95.1075 42.812308 
L 95.1075 38.547692 
L 95.1075 34.283077 
L 95.1075 30.018462 
L 95.1075 25.753846 
L 95.1075 21.489231 
L 95.1075 17.224615 
L 95.1075 16.731297 
L 90.9225 15.41869 
L 86.7375 14.157232 
L 82.5525 13.007889 
L 82.50961 12.96 
L 79.50993 12.96 
L 82.5525 16.357212 
L 83.800704 17.224615 
L 86.7375 20.633772 
L 89.10639 21.489231 
L 89.00883 25.753846 
L 88.824541 30.018462 
L 88.593942 34.283077 
L 88.315411 38.547692 
L 87.973082 42.812308 
L 87.54323 47.076923 
L 86.98958 51.341538 
L 86.7375 52.859198 
L 86.396891 55.606154 
L 85.658867 59.870769 
L 84.54538 64.135385 
L 82.744796 68.4 
L 82.5525 68.710455 
L 80.089405 72.664615 
L 78.3675 74.264141 
L 74.658372 76.929231 
L 74.1825 77.147047 
L 69.9975 78.592142 
L 65.8125 79.272479 
L 61.6275 79.277558 
L 57.4425 78.598252 
L 53.2575 77.058125 
L 53.035441 76.929231 
L 49.0725 74.387804 
L 47.132378 72.664615 
L 44.8875 70.11662 
L 43.498704 68.4 
L 40.991121 64.135385 
L 40.7025 63.546045 
L 38.710738 59.870769 
L 37.031951 55.606154 
L 36.5175 54.081535 
L 35.290687 51.341538 
L 33.800134 47.076923 
L 32.605568 42.812308 
L 32.3325 41.72183 
L 31.141052 38.547692 
L 29.831723 34.283077 
L 28.747911 30.018462 
L 28.1475 27.327062 
L 27.565875 25.753846 
L 26.186639 21.489231 
L 25.018987 17.224615 
L 24.008754 12.96 
L 23.9625 12.96 
L 19.7775 12.96 
L 15.5925 12.96 
L 15.5925 17.224615 
L 15.5925 21.489231 
L 15.5925 25.753846 
L 15.5925 30.018462 
L 15.5925 34.283077 
L 15.5925 38.547692 
L 15.5925 42.812308 
L 15.5925 47.076923 
L 15.5925 51.341538 
L 15.5925 55.606154 
L 15.5925 59.870769 
L 15.5925 64.135385 
L 15.5925 68.4 
L 15.5925 71.089405 
L 19.7775 71.609555 
L 23.9625 72.484975 
L 24.450521 72.664615 
L 28.1475 73.870994 
L 32.3325 75.781654 
L 34.226068 76.929231 
L 36.5175 78.09551 
L 40.7025 80.459264 
L 41.992541 81.193846 
L 44.8875 82.757082 
L 49.0725 84.559601 
L 52.136847 85.458462 
z
" clip-path="url(#p729bb14fb3)" style="fill: #d9dce1"/>
    <path d="M 53.2575 77.058125 
L 57.4425 78.598252 
L 61.6275 79.277558 
L 65.8125 79.272479 
L 69.9975 78.592142 
L 74.1825 77.147047 
L 74.658372 76.929231 
L 78.3675 74.264141 
L 80.089405 72.664615 
L 82.5525 68.710455 
L 82.744796 68.4 
L 84.54538 64.135385 
L 85.658867 59.870769 
L 86.396891 55.606154 
L 86.7375 52.859198 
L 86.98958 51.341538 
L 87.54323 47.076923 
L 87.973082 42.812308 
L 88.315411 38.547692 
L 88.593942 34.283077 
L 88.824541 30.018462 
L 89.00883 25.753846 
L 89.10639 21.489231 
L 86.7375 20.633772 
L 83.800704 17.224615 
L 82.5525 16.357212 
L 79.50993 12.96 
L 78.3675 12.96 
L 75.377378 12.96 
L 78.3675 16.549974 
L 78.93544 17.224615 
L 79.010399 21.489231 
L 78.774304 25.753846 
L 78.482573 30.018462 
L 78.3675 31.427422 
L 77.894093 34.283077 
L 77.203035 38.547692 
L 76.521639 42.812308 
L 75.805658 47.076923 
L 74.99459 51.341538 
L 74.1825 54.793865 
L 73.831057 55.606154 
L 71.829099 59.870769 
L 69.9975 63.386262 
L 69.365223 64.135385 
L 65.8125 67.366695 
L 63.869403 68.4 
L 61.6275 69.072402 
L 57.4425 69.007303 
L 55.741355 68.4 
L 53.2575 66.986384 
L 50.362372 64.135385 
L 49.0725 62.659284 
L 47.65669 59.870769 
L 45.306272 55.606154 
L 44.8875 54.847036 
L 43.895638 51.341538 
L 42.656772 47.076923 
L 41.116069 42.812308 
L 40.7025 41.720164 
L 40.106763 38.547692 
L 39.350961 34.283077 
L 38.543856 30.018462 
L 37.618969 25.753846 
L 36.5175 21.52341 
L 36.512404 21.489231 
L 35.9622 17.224615 
L 35.430551 12.96 
L 32.3325 12.96 
L 28.1475 12.96 
L 24.008754 12.96 
L 25.018987 17.224615 
L 26.186639 21.489231 
L 27.565875 25.753846 
L 28.1475 27.327062 
L 28.747911 30.018462 
L 29.831723 34.283077 
L 31.141052 38.547692 
L 32.3325 41.72183 
L 32.605568 42.812308 
L 33.800134 47.076923 
L 35.290687 51.341538 
L 36.5175 54.081535 
L 37.031951 55.606154 
L 38.710738 59.870769 
L 40.7025 63.546045 
L 40.991121 64.135385 
L 43.498704 68.4 
L 44.8875 70.11662 
L 47.132378 72.664615 
L 49.0725 74.387804 
L 53.035441 76.929231 
z
" clip-path="url(#p729bb14fb3)" style="fill: #ec8165"/>
    <path d="M 57.4425 69.007303 
L 61.6275 69.072402 
L 63.869403 68.4 
L 65.8125 67.366695 
L 69.365223 64.135385 
L 69.9975 63.386262 
L 71.829099 59.870769 
L 73.831057 55.606154 
L 74.1825 54.793865 
L 74.99459 51.341538 
L 75.805658 47.076923 
L 76.521639 42.812308 
L 77.203035 38.547692 
L 77.894093 34.283077 
L 78.3675 31.427422 
L 78.482573 30.018462 
L 78.774304 25.753846 
L 79.010399 21.489231 
L 78.93544 17.224615 
L 78.3675 16.549974 
L 75.377378 12.96 
L 74.290763 12.96 
L 74.787439 17.224615 
L 74.535777 21.489231 
L 74.358352 25.753846 
L 74.1825 29.451863 
L 73.979969 30.018462 
L 72.510725 34.283077 
L 71.480485 38.547692 
L 70.702437 42.812308 
L 70.041094 47.076923 
L 69.9975 47.290776 
L 67.538098 51.341538 
L 65.8125 55.437516 
L 65.650392 55.606154 
L 61.6275 58.868289 
L 57.4425 59.700757 
L 53.2575 56.665385 
L 52.62345 55.606154 
L 50.007742 51.341538 
L 49.0725 49.969451 
L 48.437434 47.076923 
L 47.25453 42.812308 
L 45.330588 38.547692 
L 44.8875 37.632636 
L 44.522713 34.283077 
L 43.982658 30.018462 
L 43.25541 25.753846 
L 42.227496 21.489231 
L 40.733792 17.224615 
L 40.7025 17.135043 
L 40.442747 12.96 
L 36.5175 12.96 
L 35.430551 12.96 
L 35.9622 17.224615 
L 36.512404 21.489231 
L 36.5175 21.52341 
L 37.618969 25.753846 
L 38.543856 30.018462 
L 39.350961 34.283077 
L 40.106763 38.547692 
L 40.7025 41.720164 
L 41.116069 42.812308 
L 42.656772 47.076923 
L 43.895638 51.341538 
L 44.8875 54.847036 
L 45.306272 55.606154 
L 47.65669 59.870769 
L 49.0725 62.659284 
L 50.362372 64.135385 
L 53.2575 66.986384 
L 55.741355 68.4 
z
" clip-path="url(#p729bb14fb3)" style="fill: #c0282f"/>
    <path d="M 53.2575 56.665385 
L 57.4425 59.700757 
L 61.6275 58.868289 
L 65.650392 55.606154 
L 65.8125 55.437516 
L 67.538098 51.341538 
L 69.9975 47.290776 
L 70.041094 47.076923 
L 70.702437 42.812308 
L 71.480485 38.547692 
L 72.510725 34.283077 
L 73.979969 30.018462 
L 74.1825 29.451863 
L 74.358352 25.753846 
L 74.535777 21.489231 
L 74.787439 17.224615 
L 74.290763 12.96 
L 74.1825 12.96 
L 69.9975 12.96 
L 65.8125 12.96 
L 61.6275 12.96 
L 57.4425 12.96 
L 53.2575 12.96 
L 49.0725 12.96 
L 44.8875 12.96 
L 40.7025 12.96 
L 40.442747 12.96 
L 40.7025 17.135043 
L 40.733792 17.224615 
L 42.227496 21.489231 
L 43.25541 25.753846 
L 43.982658 30.018462 
L 44.522713 34.283077 
L 44.8875 37.632636 
L 45.330588 38.547692 
L 47.25453 42.812308 
L 48.437434 47.076923 
L 49.0725 49.969451 
L 50.007742 51.341538 
L 52.62345 55.606154 
z
" clip-path="url(#p729bb14fb3)" style="fill: #b40426"/>
   </g>
   <g id="matplotlib.axis_1">
    <g id="xtick_1">
     <g id="line2d_1">
      <defs>
       <path id="mb128b900e2" d="M 0 0 
L 0 3.5 
" style="stroke: #000000; stroke-width: 0.8"/>
      </defs>
      <g>
       <use xlink:href="#mb128b900e2" x="13.5" y="96.12" style="stroke: #000000; stroke-width: 0.8"/>
      </g>
     </g>
     <g id="text_1">
      <text style="font-size: 6px; font-family: 'DejaVu Sans', 'Arial', 'Helvetica', 'Lucida Grande', 'Verdana', 'Geneva', 'Lucid', 'Avant Garde', sans-serif; text-anchor: middle" x="13.5" y="107.679063" transform="rotate(-0 13.5 107.679063)">1</text>
     </g>
    </g>
    <g id="xtick_2">
     <g id="line2d_2">
      <g>
       <use xlink:href="#mb128b900e2" x="41.4" y="96.12" style="stroke: #000000; stroke-width: 0.8"/>
      </g>
     </g>
     <g id="text_2">
      <text style="font-size: 6px; font-family: 'DejaVu Sans', 'Arial', 'Helvetica', 'Lucida Grande', 'Verdana', 'Geneva', 'Lucid', 'Avant Garde', sans-serif; text-anchor: middle" x="41.4" y="107.679063" transform="rotate(-0 41.4 107.679063)">10</text>
     </g>
    </g>
    <g id="xtick_3">
     <g id="line2d_3">
      <g>
       <use xlink:href="#mb128b900e2" x="69.3" y="96.12" style="stroke: #000000; stroke-width: 0.8"/>
      </g>
     </g>
     <g id="text_3">
      <text style="font-size: 6px; font-family: 'DejaVu Sans', 'Arial', 'Helvetica', 'Lucida Grande', 'Verdana', 'Geneva', 'Lucid', 'Avant Garde', sans-serif; text-anchor: middle" x="69.3" y="107.679063" transform="rotate(-0 69.3 107.679063)">100</text>
     </g>
    </g>
    <g id="xtick_4">
     <g id="line2d_4">
      <g>
       <use xlink:href="#mb128b900e2" x="97.2" y="96.12" style="stroke: #000000; stroke-width: 0.8"/>
      </g>
     </g>
     <g id="text_4">
      <text style="font-size: 6px; font-family: 'DejaVu Sans', 'Arial', 'Helvetica', 'Lucida Grande', 'Verdana', 'Geneva', 'Lucid', 'Avant Garde', sans-serif; text-anchor: middle" x="97.2" y="107.679063" transform="rotate(-0 97.2 107.679063)">1000</text>
     </g>
    </g>
    <g id="text_5">
     <text style="font-size: 6px; font-family: 'DejaVu Sans', 'Arial', 'Helvetica', 'Lucida Grande', 'Verdana', 'Geneva', 'Lucid', 'Avant Garde', sans-serif; text-anchor: middle" x="55.35" y="117.485938" transform="rotate(-0 55.35 117.485938)">C (µg/mL)</text>
    </g>
   </g>
   <g id="matplotlib.axis_2">
    <g id="ytick_1">
     <g id="line2d_5">
      <defs>
       <path id="m8a59b07618" d="M 0 0 
L -3.5 0 
" style="stroke: #000000; stroke-width: 0.8"/>
      </defs>
      <g>
       <use xlink:href="#m8a59b07618" x="13.5" y="96.12" style="stroke: #000000; stroke-width: 0.8"/>
      </g>
     </g>
     <g id="text_6">
      <text style="font-size: 6px; font-family: 'DejaVu Sans', 'Arial', 'Helvetica', 'Lucida Grande', 'Verdana', 'Geneva', 'Lucid', 'Avant Garde', sans-serif; text-anchor: end" x="6.5" y="98.399531" transform="rotate(-0 6.5 98.399531)">0</text>
     </g>
    </g>
    <g id="ytick_2">
     <g id="line2d_6">
      <g>
       <use xlink:href="#m8a59b07618" x="13.5" y="79.061538" style="stroke: #000000; stroke-width: 0.8"/>
      </g>
     </g>
     <g id="text_7">
      <text style="font-size: 6px; font-family: 'DejaVu Sans', 'Arial', 'Helvetica', 'Lucida Grande', 'Verdana', 'Geneva', 'Lucid', 'Avant Garde', sans-serif; text-anchor: end" x="6.5" y="81.34107" transform="rotate(-0 6.5 81.34107)">2</text>
     </g>
    </g>
    <g id="ytick_3">
     <g id="line2d_7">
      <g>
       <use xlink:href="#m8a59b07618" x="13.5" y="62.003077" style="stroke: #000000; stroke-width: 0.8"/>
      </g>
     </g>
     <g id="text_8">
      <text style="font-size: 6px; font-family: 'DejaVu Sans', 'Arial', 'Helvetica', 'Lucida Grande', 'Verdana', 'Geneva', 'Lucid', 'Avant Garde', sans-serif; text-anchor: end" x="6.5" y="64.282608" transform="rotate(-0 6.5 64.282608)">4</text>
     </g>
    </g>
    <g id="ytick_4">
     <g id="line2d_8">
      <g>
       <use xlink:href="#m8a59b07618" x="13.5" y="44.944615" style="stroke: #000000; stroke-width: 0.8"/>
      </g>
     </g>
     <g id="text_9">
      <text style="font-size: 6px; font-family: 'DejaVu Sans', 'Arial', 'Helvetica', 'Lucida Grande', 'Verdana', 'Geneva', 'Lucid', 'Avant Garde', sans-serif; text-anchor: end" x="6.5" y="47.224147" transform="rotate(-0 6.5 47.224147)">6</text>
     </g>
    </g>
    <g id="ytick_5">
     <g id="line2d_9">
      <g>
       <use xlink:href="#m8a59b07618" x="13.5" y="27.886154" style="stroke: #000000; stroke-width: 0.8"/>
      </g>
     </g>
     <g id="text_10">
      <text style="font-size: 6px; font-family: 'DejaVu Sans', 'Arial', 'Helvetica', 'Lucida Grande', 'Verdana', 'Geneva', 'Lucid', 'Avant Garde', sans-serif; text-anchor: end" x="6.5" y="30.165685" transform="rotate(-0 6.5 30.165685)">8</text>
     </g>
    </g>
    <g id="text_11">
     <text style="font-size: 6px; font-family: 'DejaVu Sans', 'Arial', 'Helvetica', 'Lucida Grande', 'Verdana', 'Geneva', 'Lucid', 'Avant Garde', sans-serif; text-anchor: middle" x="-2.565312" y="54.54" transform="rotate(-90 -2.565312 54.54)">τ (h)</text>
    </g>
   </g>
   <g id="QuadContourSet_2">
    <path d="M 15.5925 93.987692 
L 19.7775 93.987692 
L 23.9625 93.987692 
L 28.1475 93.987692 
L 32.3325 93.987692 
L 36.5175 93.987692 
L 40.7025 93.987692 
L 43.55325 93.987692 
M 62.96175 93.987692 
L 65.8125 93.987692 
L 69.9975 93.987692 
L 74.1825 93.987692 
L 78.3675 93.987692 
L 82.5525 93.987692 
L 86.7375 93.987692 
L 90.9225 93.987692 
L 95.1075 93.987692 
" clip-path="url(#p729bb14fb3)" style="fill: none; stroke: #000000"/>
    <path d="M 15.5925 87.895848 
L 19.7775 87.931576 
L 23.9625 88.001717 
L 28.1475 88.133643 
L 32.3325 88.363001 
L 36.5175 88.712216 
L 39.559579 89.030254 
M 58.583234 92.598256 
L 61.6275 92.871904 
L 65.8125 93.082155 
L 69.9975 93.200948 
L 74.1825 93.268623 
L 78.3675 93.306506 
L 82.5525 93.326087 
L 86.7375 93.333799 
L 90.9225 93.333422 
L 95.1075 93.327281 
" clip-path="url(#p729bb14fb3)" style="fill: none; stroke: #000000"/>
    <path d="M 33.403308 76.430606 
L 34.226068 76.929231 
L 36.5175 78.09551 
L 40.7025 80.459264 
L 41.992541 81.193846 
L 44.8875 82.757082 
L 49.0725 84.559601 
L 52.136847 85.458462 
L 53.2575 85.901142 
L 57.4425 87.175008 
L 61.6275 87.882886 
L 65.8125 88.27258 
L 69.9975 88.480664 
L 74.1825 88.576843 
L 78.3675 88.596356 
L 82.5525 88.557378 
L 86.7375 88.46962 
L 90.9225 88.338582 
L 95.1075 88.167715 
M 95.1075 16.731297 
L 90.9225 15.41869 
L 86.7375 14.157232 
L 82.5525 13.007889 
L 82.50961 12.96 
" clip-path="url(#p729bb14fb3)" style="fill: none; stroke: #000000"/>
    <path d="M 24.008754 12.96 
L 25.018987 17.224615 
L 26.186639 21.489231 
L 27.565875 25.753846 
L 28.1475 27.327062 
L 28.747911 30.018462 
L 29.596887 33.359038 
M 35.691719 52.237214 
L 36.5175 54.081535 
L 37.031951 55.606154 
L 38.710738 59.870769 
L 40.7025 63.546045 
L 40.991121 64.135385 
L 43.498704 68.4 
L 44.8875 70.11662 
L 47.132378 72.664615 
L 49.0725 74.387804 
L 53.035441 76.929231 
L 53.2575 77.058125 
L 57.4425 78.598252 
L 61.6275 79.277558 
L 65.8125 79.272479 
L 69.9975 78.592142 
L 74.1825 77.147047 
L 74.658372 76.929231 
L 78.3675 74.264141 
L 80.089405 72.664615 
L 82.5525 68.710455 
L 82.744796 68.4 
L 84.54538 64.135385 
L 85.658867 59.870769 
L 86.396891 55.606154 
L 86.7375 52.859198 
L 86.98958 51.341538 
L 87.54323 47.076923 
L 87.973082 42.812308 
L 88.315411 38.547692 
L 88.593942 34.283077 
L 88.824541 30.018462 
L 89.00883 25.753846 
L 89.10639 21.489231 
L 86.7375 20.633772 
L 83.800704 17.224615 
L 82.5525 16.357212 
L 79.50993 12.96 
" clip-path="url(#p729bb14fb3)" style="fill: none; stroke: #000000"/>
    <path d="M 35.430551 12.96 
L 35.9622 17.224615 
L 36.512404 21.489231 
L 36.5175 21.52341 
L 37.618969 25.753846 
L 38.543856 30.018462 
L 39.350961 34.283077 
L 40.106763 38.547692 
L 40.7025 41.720164 
L 41.116069 42.812308 
L 42.656772 47.076923 
L 43.895638 51.341538 
L 44.8875 54.847036 
L 45.306272 55.606154 
L 47.65669 59.870769 
L 49.0725 62.659284 
L 50.362372 64.135385 
L 53.2575 66.986384 
L 55.741355 68.4 
L 57.4425 69.007303 
L 61.6275 69.072402 
L 63.869403 68.4 
L 65.8125 67.366695 
L 69.365223 64.135385 
L 69.777157 63.647325 
M 76.145948 45.050047 
L 76.521639 42.812308 
L 77.203035 38.547692 
L 77.894093 34.283077 
L 78.3675 31.427422 
L 78.482573 30.018462 
L 78.774304 25.753846 
L 79.010399 21.489231 
L 78.93544 17.224615 
L 78.3675 16.549974 
L 75.377378 12.96 
" clip-path="url(#p729bb14fb3)" style="fill: none; stroke: #000000"/>
    <path d="M 40.442747 12.96 
L 40.7025 17.135043 
L 40.733792 17.224615 
L 42.227496 21.489231 
L 43.25541 25.753846 
L 43.982658 30.018462 
L 44.522713 34.283077 
L 44.8875 37.632636 
L 45.330588 38.547692 
L 47.25453 42.812308 
L 48.437434 47.076923 
L 49.0725 49.969451 
L 50.007742 51.341538 
L 52.62345 55.606154 
L 53.2575 56.665385 
L 57.4425 59.700757 
L 61.6275 58.868289 
L 65.650392 55.606154 
L 65.8125 55.437516 
L 67.538098 51.341538 
L 69.9975 47.290776 
L 70.041094 47.076923 
L 70.702437 42.812308 
L 71.480485 38.547692 
L 72.247122 35.374246 
M 74.624133 15.822422 
L 74.290763 12.96 
" clip-path="url(#p729bb14fb3)" style="fill: none; stroke: #000000"/>
    <path clip-path="url(#p729bb14fb3)" style="fill: none; stroke: #000000"/>
   </g>
   <g id="patch_3">
    <path d="M 13.5 96.12 
L 13.5 12.96 
" style="fill: none; stroke: #000000; stroke-width: 0.5; stroke-linejoin: miter; stroke-linecap: square"/>
   </g>
   <g id="patch_4">
    <path d="M 13.5 96.12 
L 97.2 96.12 
" style="fill: none; stroke: #000000; stroke-width: 0.5; stroke-linejoin: miter; stroke-linecap: square"/>
   </g>
   <g id="text_12">
    <g clip-path="url(#p729bb14fb3)">
     <text style="font-size: 6px; font-family: 'DejaVu Sans', 'Arial', 'Helvetica', 'Lucida Grande', 'Verdana', 'Geneva', 'Lucid', 'Avant Garde', sans-serif; text-anchor: middle" x="53.2575" y="95.643317" transform="rotate(-0 53.2575 95.643317)">0.00</text>
    </g>
   </g>
   <g id="text_13">
    <g clip-path="url(#p729bb14fb3)">
     <text style="font-size: 6px; font-family: 'DejaVu Sans', 'Arial', 'Helvetica', 'Lucida Grande', 'Verdana', 'Geneva', 'Lucid', 'Avant Garde', sans-serif" transform="translate(42.193176 90.898941) rotate(-347.619569)">0.01</text>
    </g>
   </g>
   <g id="text_14">
    <g clip-path="url(#p729bb14fb3)">
     <text style="font-size: 6px; font-family: 'DejaVu Sans', 'Arial', 'Helvetica', 'Lucida Grande', 'Verdana', 'Geneva', 'Lucid', 'Avant Garde', sans-serif" transform="translate(17.571635 72.464001) rotate(-344.408749)">0.10</text>
    </g>
   </g>
   <g id="text_15">
    <g clip-path="url(#p729bb14fb3)">
     <text style="font-size: 6px; font-family: 'DejaVu Sans', 'Arial', 'Helvetica', 'Lucida Grande', 'Verdana', 'Geneva', 'Lucid', 'Avant Garde', sans-serif" transform="translate(28.966387 36.971445) rotate(-288.004425)">0.50</text>
    </g>
   </g>
   <g id="text_16">
    <g clip-path="url(#p729bb14fb3)">
     <text style="font-size: 6px; font-family: 'DejaVu Sans', 'Arial', 'Helvetica', 'Lucida Grande', 'Verdana', 'Geneva', 'Lucid', 'Avant Garde', sans-serif" transform="translate(73.561153 61.647568) rotate(-70.899038)">0.90</text>
    </g>
   </g>
   <g id="text_17">
    <g clip-path="url(#p729bb14fb3)">
     <text style="font-size: 6px; font-family: 'DejaVu Sans', 'Arial', 'Helvetica', 'Lucida Grande', 'Verdana', 'Geneva', 'Lucid', 'Avant Garde', sans-serif" transform="translate(75.265612 32.575591) rotate(-83.65485)">0.99</text>
    </g>
   </g>
  </g>
 </g>
 <defs>
  <clipPath id="p729bb14fb3">
   <rect x="13.5" y="12.96" width="83.7" height="83.16"/>
  </clipPath>
 </defs>
</svg>
