<?xml version="1.0" encoding="utf-8" standalone="no"?>
<!DOCTYPE svg PUBLIC "-//W3C//DTD SVG 1.1//EN"
  "http://www.w3.org/Graphics/SVG/1.1/DTD/svg11.dtd">
<svg xmlns:xlink="http://www.w3.org/1999/xlink" width="108pt" height="108pt" viewBox="0 0 108 108" xmlns="http://www.w3.org/2000/svg" version="1.1">
 <metadata>
  <rdf:RDF xmlns:dc="http://purl.org/dc/elements/1.1/" xmlns:cc="http://creativecommons.org/ns#" xmlns:rdf="http://www.w3.org/1999/02/22-rdf-syntax-ns#">
   <cc:Work>
    <dc:type rdf:resource="http://purl.org/dc/dcmitype/StillImage"/>
    <dc:date>2026-02-16T12:41:14.050893</dc:date>
    <dc:format>image/svg+xml</dc:format>
    <dc:creator>
     <cc:Agent>
      <dc:title>Matplotlib v3.10.8, https://matplotlib.org/</dc:title>
     </cc:Agent>
    </dc:creator>
   </cc:Work>
  </rdf:RDF>
 </metadata>
 <defs>
  <style type="text/css">*{stroke-linejoin: round; stroke-linecap: butt}</style>
 </defs>
 <g id="figure_1">
  <g id="patch_1">
   <path d="M 0 108 
L 108 108 
L 108 0 
L 0 0 
L 0 108 
z
" style="fill: none"/>
  </g>
  <g id="axes_1">
   <g id="patch_2">
    <path d="M 13.5 96.12 
L 97.2 96.12 
L 97.2 12.96 
L 13.5 12.96 
L 13.5 96.12 
z
" style="fill: none"/>
   </g>
   <g id="QuadContourSet_1">
    <path d="M 95.1075 68.450191 
L 95.1075 68.4 
L 95.1075 64.135385 
L 95.1075 59.870769 
L 95.1075 55.606154 
L 95.1075 51.341538 
L 95.1075 47.076923 
L 95.1075 42.812308 
L 95.1075 38.547692 
L 95.1075 34.283077 
L 95.1075 30.018462 
L 95.1075 25.753846 
L 95.1075 21.489231 
L 95.1075 17.224615 
L 95.1075 12.96 
L 90.9225 12.96 
L 86.7375 12.96 
L 82.5525 12.96 
L 78.3675 12.96 
L 74.1825 12.96 
L 69.9975 12.96 
L 65.8125 12.96 
L 61.6275 12.96 
L 57.4425 12.96 
L 54.616354 12.96 
L 55.436169 17.224615 
L 56.093912 21.489231 
L 56.636577 25.753846 
L 57.102192 30.018462 
L 57.4425 33.292898 
L 57.827706 34.283077 
L 59.404881 38.547692 
L 60.525146 42.812308 
L 61.378425 47.076923 
L 61.6275 48.202203 
L 63.423558 51.341538 
L 65.24957 55.606154 
L 65.8125 56.860585 
L 68.305247 59.870769 
L 69.9975 61.679722 
L 73.026557 64.135385 
L 74.1825 64.60824 
L 78.3675 65.730121 
L 82.5525 66.701599 
L 86.7375 67.49836 
L 90.9225 68.138191 
L 93.14632 68.4 
z
" clip-path="url(#p081ec5ccb6)" style="fill: #81a4fb"/>
    <path d="M 78.3675 72.867752 
L 82.5525 73.20565 
L 86.7375 73.470307 
L 90.9225 73.682023 
L 95.1075 73.854623 
L 95.1075 72.664615 
L 95.1075 68.450191 
L 93.14632 68.4 
L 90.9225 68.138191 
L 86.7375 67.49836 
L 82.5525 66.701599 
L 78.3675 65.730121 
L 74.1825 64.60824 
L 73.026557 64.135385 
L 69.9975 61.679722 
L 68.305247 59.870769 
L 65.8125 56.860585 
L 65.24957 55.606154 
L 63.423558 51.341538 
L 61.6275 48.202203 
L 61.378425 47.076923 
L 60.525146 42.812308 
L 59.404881 38.547692 
L 57.827706 34.283077 
L 57.4425 33.292898 
L 57.102192 30.018462 
L 56.636577 25.753846 
L 56.093912 21.489231 
L 55.436169 17.224615 
L 54.616354 12.96 
L 53.2575 12.96 
L 49.0725 12.96 
L 48.367655 12.96 
L 48.784243 17.224615 
L 49.0725 19.98836 
L 49.37199 21.489231 
L 50.217282 25.753846 
L 51.001433 30.018462 
L 51.750785 34.283077 
L 52.494078 38.547692 
L 53.2575 42.764835 
L 53.272835 42.812308 
L 54.736166 47.076923 
L 56.051417 51.341538 
L 57.340582 55.606154 
L 57.4425 55.869694 
L 59.669917 59.870769 
L 61.6275 63.524937 
L 62.10324 64.135385 
L 65.8125 67.979722 
L 66.314443 68.4 
L 69.9975 70.04503 
L 74.1825 71.802729 
L 76.607647 72.664615 
z
" clip-path="url(#p081ec5ccb6)" style="fill: #b1cbfc"/>
    <path d="M 95.1075 81.242102 
L 95.1075 81.193846 
L 95.1075 76.929231 
L 95.1075 73.854623 
L 90.9225 73.682023 
L 86.7375 73.470307 
L 82.5525 73.20565 
L 78.3675 72.867752 
L 76.607647 72.664615 
L 74.1825 71.802729 
L 69.9975 70.04503 
L 66.314443 68.4 
L 65.8125 67.979722 
L 62.10324 64.135385 
L 61.6275 63.524937 
L 59.669917 59.870769 
L 57.4425 55.869694 
L 57.340582 55.606154 
L 56.051417 51.341538 
L 54.736166 47.076923 
L 53.272835 42.812308 
L 53.2575 42.764835 
L 52.494078 38.547692 
L 51.750785 34.283077 
L 51.001433 30.018462 
L 50.217282 25.753846 
L 49.37199 21.489231 
L 49.0725 19.98836 
L 48.784243 17.224615 
L 48.367655 12.96 
L 44.8875 12.96 
L 40.7025 12.96 
L 36.5175 12.96 
L 35.741344 12.96 
L 35.987679 17.224615 
L 36.242293 21.489231 
L 36.507091 25.753846 
L 36.5175 25.903314 
L 37.0836 30.018462 
L 37.703811 34.283077 
L 38.348389 38.547692 
L 39.009275 42.812308 
L 39.681971 47.076923 
L 40.370524 51.341538 
L 40.7025 53.151647 
L 41.542612 55.606154 
L 43.116074 59.870769 
L 44.672066 64.135385 
L 44.8875 64.594007 
L 47.654117 68.4 
L 49.0725 69.955126 
L 52.174819 72.664615 
L 53.2575 73.232814 
L 57.4425 75.200317 
L 60.958256 76.929231 
L 61.6275 77.081426 
L 65.8125 77.92547 
L 69.9975 78.66693 
L 74.1825 79.303636 
L 78.3675 79.848511 
L 82.5525 80.314752 
L 86.7375 80.713621 
L 90.9225 81.055098 
L 92.952014 81.193846 
z
" clip-path="url(#p081ec5ccb6)" style="fill: #ebd3c6"/>
    <path d="M 61.6275 85.514775 
L 65.8125 85.855393 
L 69.9975 86.129441 
L 74.1825 86.352394 
L 78.3675 86.534082 
L 82.5525 86.682772 
L 86.7375 86.805481 
L 90.9225 86.907872 
L 95.1075 86.994335 
L 95.1075 85.458462 
L 95.1075 81.242102 
L 92.952014 81.193846 
L 90.9225 81.055098 
L 86.7375 80.713621 
L 82.5525 80.314752 
L 78.3675 79.848511 
L 74.1825 79.303636 
L 69.9975 78.66693 
L 65.8125 77.92547 
L 61.6275 77.081426 
L 60.958256 76.929231 
L 57.4425 75.200317 
L 53.2575 73.232814 
L 52.174819 72.664615 
L 49.0725 69.955126 
L 47.654117 68.4 
L 44.8875 64.594007 
L 44.672066 64.135385 
L 43.116074 59.870769 
L 41.542612 55.606154 
L 40.7025 53.151647 
L 40.370524 51.341538 
L 39.681971 47.076923 
L 39.009275 42.812308 
L 38.348389 38.547692 
L 37.703811 34.283077 
L 37.0836 30.018462 
L 36.5175 25.903314 
L 36.507091 25.753846 
L 36.242293 21.489231 
L 35.987679 17.224615 
L 35.741344 12.96 
L 32.3325 12.96 
L 28.1475 12.96 
L 23.9625 12.96 
L 23.81492 12.96 
L 23.9625 14.7454 
L 24.15352 17.224615 
L 24.50419 21.489231 
L 24.880608 25.753846 
L 25.288782 30.018462 
L 25.736765 34.283077 
L 26.235539 38.547692 
L 26.800406 42.812308 
L 27.45327 47.076923 
L 28.1475 50.919376 
L 28.221055 51.341538 
L 29.056651 55.606154 
L 30.028231 59.870769 
L 31.222243 64.135385 
L 32.3325 67.193758 
L 32.778814 68.4 
L 34.782389 72.664615 
L 36.5175 75.235873 
L 37.805403 76.929231 
L 40.7025 79.478632 
L 43.197675 81.193846 
L 44.8875 81.966004 
L 49.0725 83.312756 
L 53.2575 84.246869 
L 57.4425 84.955608 
L 61.06674 85.458462 
z
" clip-path="url(#p081ec5ccb6)" style="fill: #f08a6c"/>
    <path d="M 57.4425 90.122815 
L 61.6275 90.58076 
L 65.8125 90.910776 
L 69.9975 91.161066 
L 74.1825 91.357594 
L 78.3675 91.515439 
L 82.5525 91.644279 
L 86.7375 91.750828 
L 90.9225 91.83996 
L 95.1075 91.915298 
L 95.1075 89.723077 
L 95.1075 86.994335 
L 90.9225 86.907872 
L 86.7375 86.805481 
L 82.5525 86.682772 
L 78.3675 86.534082 
L 74.1825 86.352394 
L 69.9975 86.129441 
L 65.8125 85.855393 
L 61.6275 85.514775 
L 61.06674 85.458462 
L 57.4425 84.955608 
L 53.2575 84.246869 
L 49.0725 83.312756 
L 44.8875 81.966004 
L 43.197675 81.193846 
L 40.7025 79.478632 
L 37.805403 76.929231 
L 36.5175 75.235873 
L 34.782389 72.664615 
L 32.778814 68.4 
L 32.3325 67.193758 
L 31.222243 64.135385 
L 30.028231 59.870769 
L 29.056651 55.606154 
L 28.221055 51.341538 
L 28.1475 50.919376 
L 27.45327 47.076923 
L 26.800406 42.812308 
L 26.235539 38.547692 
L 25.736765 34.283077 
L 25.288782 30.018462 
L 24.880608 25.753846 
L 24.50419 21.489231 
L 24.15352 17.224615 
L 23.9625 14.7454 
L 23.81492 12.96 
L 19.7775 12.96 
L 15.5925 12.96 
L 15.5925 17.224615 
L 15.5925 21.489231 
L 15.5925 25.753846 
L 15.5925 30.018462 
L 15.5925 34.283077 
L 15.5925 38.547692 
L 15.5925 42.812308 
L 15.5925 47.076923 
L 15.5925 51.341538 
L 15.5925 55.606154 
L 15.5925 56.680938 
L 16.146999 59.870769 
L 17.109132 64.135385 
L 18.472417 68.4 
L 19.7775 71.254673 
L 20.258863 72.664615 
L 22.44612 76.929231 
L 23.9625 78.740681 
L 25.917098 81.193846 
L 28.1475 82.931951 
L 32.3325 85.371433 
L 32.503383 85.458462 
L 36.5175 87.253245 
L 40.7025 88.332237 
L 44.8875 88.968385 
L 49.0725 89.369548 
L 53.2575 89.643838 
L 54.808449 89.723077 
z
" clip-path="url(#p081ec5ccb6)" style="fill: #cc403a"/>
    <path d="M 19.7775 93.987692 
L 23.9625 93.987692 
L 28.1475 93.987692 
L 32.3325 93.987692 
L 36.5175 93.987692 
L 40.7025 93.987692 
L 44.8875 93.987692 
L 49.0725 93.987692 
L 53.2575 93.987692 
L 57.4425 93.987692 
L 61.6275 93.987692 
L 65.8125 93.987692 
L 69.9975 93.987692 
L 74.1825 93.987692 
L 78.3675 93.987692 
L 82.5525 93.987692 
L 86.7375 93.987692 
L 90.9225 93.987692 
L 95.1075 93.987692 
L 95.1075 91.915298 
L 90.9225 91.83996 
L 86.7375 91.750828 
L 82.5525 91.644279 
L 78.3675 91.515439 
L 74.1825 91.357594 
L 69.9975 91.161066 
L 65.8125 90.910776 
L 61.6275 90.58076 
L 57.4425 90.122815 
L 54.808449 89.723077 
L 53.2575 89.643838 
L 49.0725 89.369548 
L 44.8875 88.968385 
L 40.7025 88.332237 
L 36.5175 87.253245 
L 32.503383 85.458462 
L 32.3325 85.371433 
L 28.1475 82.931951 
L 25.917098 81.193846 
L 23.9625 78.740681 
L 22.44612 76.929231 
L 20.258863 72.664615 
L 19.7775 71.254673 
L 18.472417 68.4 
L 17.109132 64.135385 
L 16.146999 59.870769 
L 15.5925 56.680938 
L 15.5925 59.870769 
L 15.5925 64.135385 
L 15.5925 68.4 
L 15.5925 72.664615 
L 15.5925 76.929231 
L 15.5925 81.193846 
L 15.5925 85.458462 
L 15.5925 89.723077 
L 15.5925 93.987692 
z
" clip-path="url(#p081ec5ccb6)" style="fill: #b70d28"/>
   </g>
   <g id="matplotlib.axis_1">
    <g id="xtick_1">
     <g id="line2d_1">
      <defs>
       <path id="mf010d88c1f" d="M 0 0 
L 0 3.5 
" style="stroke: #000000; stroke-width: 0.8"/>
      </defs>
      <g>
       <use xlink:href="#mf010d88c1f" x="13.5" y="96.12" style="stroke: #000000; stroke-width: 0.8"/>
      </g>
     </g>
     <g id="text_1">
      <text style="font-size: 6px; font-family: 'DejaVu Sans', 'Arial', 'Helvetica', 'Lucida Grande', 'Verdana', 'Geneva', 'Lucid', 'Avant Garde', sans-serif; text-anchor: middle" x="13.5" y="107.679063" transform="rotate(-0 13.5 107.679063)">1</text>
     </g>
    </g>
    <g id="xtick_2">
     <g id="line2d_2">
      <g>
       <use xlink:href="#mf010d88c1f" x="41.4" y="96.12" style="stroke: #000000; stroke-width: 0.8"/>
      </g>
     </g>
     <g id="text_2">
      <text style="font-size: 6px; font-family: 'DejaVu Sans', 'Arial', 'Helvetica', 'Lucida Grande', 'Verdana', 'Geneva', 'Lucid', 'Avant Garde', sans-serif; text-anchor: middle" x="41.4" y="107.679063" transform="rotate(-0 41.4 107.679063)">10</text>
     </g>
    </g>
    <g id="xtick_3">
     <g id="line2d_3">
      <g>
       <use xlink:href="#mf010d88c1f" x="69.3" y="96.12" style="stroke: #000000; stroke-width: 0.8"/>
      </g>
     </g>
     <g id="text_3">
      <text style="font-size: 6px; font-family: 'DejaVu Sans', 'Arial', 'Helvetica', 'Lucida Grande', 'Verdana', 'Geneva', 'Lucid', 'Avant Garde', sans-serif; text-anchor: middle" x="69.3" y="107.679063" transform="rotate(-0 69.3 107.679063)">100</text>
     </g>
    </g>
    <g id="xtick_4">
     <g id="line2d_4">
      <g>
       <use xlink:href="#mf010d88c1f" x="97.2" y="96.12" style="stroke: #000000; stroke-width: 0.8"/>
      </g>
     </g>
     <g id="text_4">
      <text style="font-size: 6px; font-family: 'DejaVu Sans', 'Arial', 'Helvetica', 'Lucida Grande', 'Verdana', 'Geneva', 'Lucid', 'Avant Garde', sans-serif; text-anchor: middle" x="97.2" y="107.679063" transform="rotate(-0 97.2 107.679063)">1000</text>
     </g>
    </g>
    <g id="text_5">
     <text style="font-size: 6px; font-family: 'DejaVu Sans', 'Arial', 'Helvetica', 'Lucida Grande', 'Verdana', 'Geneva', 'Lucid', 'Avant Garde', sans-serif; text-anchor: middle" x="55.35" y="117.485938" transform="rotate(-0 55.35 117.485938)">C (µg/mL)</text>
    </g>
   </g>
   <g id="matplotlib.axis_2">
    <g id="ytick_1">
     <g id="line2d_5">
      <defs>
       <path id="m1afe8dfe0a" d="M 0 0 
L -3.5 0 
" style="stroke: #000000; stroke-width: 0.8"/>
      </defs>
      <g>
       <use xlink:href="#m1afe8dfe0a" x="13.5" y="96.12" style="stroke: #000000; stroke-width: 0.8"/>
      </g>
     </g>
     <g id="text_6">
      <text style="font-size: 6px; font-family: 'DejaVu Sans', 'Arial', 'Helvetica', 'Lucida Grande', 'Verdana', 'Geneva', 'Lucid', 'Avant Garde', sans-serif; text-anchor: end" x="6.5" y="98.399531" transform="rotate(-0 6.5 98.399531)">0</text>
     </g>
    </g>
    <g id="ytick_2">
     <g id="line2d_6">
      <g>
       <use xlink:href="#m1afe8dfe0a" x="13.5" y="79.061538" style="stroke: #000000; stroke-width: 0.8"/>
      </g>
     </g>
     <g id="text_7">
      <text style="font-size: 6px; font-family: 'DejaVu Sans', 'Arial', 'Helvetica', 'Lucida Grande', 'Verdana', 'Geneva', 'Lucid', 'Avant Garde', sans-serif; text-anchor: end" x="6.5" y="81.34107" transform="rotate(-0 6.5 81.34107)">2</text>
     </g>
    </g>
    <g id="ytick_3">
     <g id="line2d_7">
      <g>
       <use xlink:href="#m1afe8dfe0a" x="13.5" y="62.003077" style="stroke: #000000; stroke-width: 0.8"/>
      </g>
     </g>
     <g id="text_8">
      <text style="font-size: 6px; font-family: 'DejaVu Sans', 'Arial', 'Helvetica', 'Lucida Grande', 'Verdana', 'Geneva', 'Lucid', 'Avant Garde', sans-serif; text-anchor: end" x="6.5" y="64.282608" transform="rotate(-0 6.5 64.282608)">4</text>
     </g>
    </g>
    <g id="ytick_4">
     <g id="line2d_8">
      <g>
       <use xlink:href="#m1afe8dfe0a" x="13.5" y="44.944615" style="stroke: #000000; stroke-width: 0.8"/>
      </g>
     </g>
     <g id="text_9">
      <text style="font-size: 6px; font-family: 'DejaVu Sans', 'Arial', 'Helvetica', 'Lucida Grande', 'Verdana', 'Geneva', 'Lucid', 'Avant Garde', sans-serif; text-anchor: end" x="6.5" y="47.224147" transform="rotate(-0 6.5 47.224147)">6</text>
     </g>
    </g>
    <g id="ytick_5">
     <g id="line2d_9">
      <g>
       <use xlink:href="#m1afe8dfe0a" x="13.5" y="27.886154" style="stroke: #000000; stroke-width: 0.8"/>
      </g>
     </g>
     <g id="text_10">
      <text style="font-size: 6px; font-family: 'DejaVu Sans', 'Arial', 'Helvetica', 'Lucida Grande', 'Verdana', 'Geneva', 'Lucid', 'Avant Garde', sans-serif; text-anchor: end" x="6.5" y="30.165685" transform="rotate(-0 6.5 30.165685)">8</text>
     </g>
    </g>
    <g id="text_11">
     <text style="font-size: 6px; font-family: 'DejaVu Sans', 'Arial', 'Helvetica', 'Lucida Grande', 'Verdana', 'Geneva', 'Lucid', 'Avant Garde', sans-serif; text-anchor: middle" x="-2.565312" y="54.54" transform="rotate(-90 -2.565312 54.54)">τ (h)</text>
    </g>
   </g>
   <g id="QuadContourSet_2">
    <path clip-path="url(#p081ec5ccb6)" style="fill: none; stroke: #000000"/>
    <path d="M 95.1075 68.450191 
L 93.14632 68.4 
L 90.9225 68.138191 
L 86.7375 67.49836 
L 82.5525 66.701599 
L 78.3675 65.730121 
L 74.278549 64.633988 
M 61.189843 46.134405 
L 60.525146 42.812308 
L 59.404881 38.547692 
L 57.827706 34.283077 
L 57.4425 33.292898 
L 57.102192 30.018462 
L 56.636577 25.753846 
L 56.093912 21.489231 
L 55.436169 17.224615 
L 54.616354 12.96 
" clip-path="url(#p081ec5ccb6)" style="fill: none; stroke: #000000"/>
    <path d="M 95.1075 73.854623 
L 90.9225 73.682023 
L 86.7375 73.470307 
L 82.5525 73.20565 
L 80.999232 73.080239 
M 61.242562 62.806384 
L 59.669917 59.870769 
L 57.4425 55.869694 
L 57.340582 55.606154 
L 56.051417 51.341538 
L 54.736166 47.076923 
L 53.272835 42.812308 
L 53.2575 42.764835 
L 52.494078 38.547692 
L 51.750785 34.283077 
L 51.001433 30.018462 
L 50.217282 25.753846 
L 49.37199 21.489231 
L 49.0725 19.98836 
L 48.784243 17.224615 
L 48.367655 12.96 
" clip-path="url(#p081ec5ccb6)" style="fill: none; stroke: #000000"/>
    <path d="M 79.472122 79.971574 
L 78.3675 79.848511 
L 74.1825 79.303636 
L 69.9975 78.66693 
L 65.8125 77.92547 
L 61.6275 77.081426 
L 60.958256 76.929231 
L 57.4425 75.200317 
L 53.2575 73.232814 
L 52.174819 72.664615 
L 49.0725 69.955126 
L 47.654117 68.4 
L 44.8875 64.594007 
L 44.672066 64.135385 
L 43.116074 59.870769 
L 41.542612 55.606154 
L 40.7025 53.151647 
L 40.370524 51.341538 
L 39.681971 47.076923 
L 39.009275 42.812308 
L 38.348389 38.547692 
L 37.703811 34.283077 
L 37.0836 30.018462 
L 36.5175 25.903314 
L 36.507091 25.753846 
L 36.242293 21.489231 
L 35.987679 17.224615 
L 35.741344 12.96 
" clip-path="url(#p081ec5ccb6)" style="fill: none; stroke: #000000"/>
    <path d="M 95.1075 86.994335 
L 90.9225 86.907872 
L 86.7375 86.805481 
L 82.5525 86.682772 
L 78.3675 86.534082 
L 74.1825 86.352394 
L 69.9975 86.129441 
L 65.8125 85.855393 
L 64.655371 85.761214 
M 42.383035 80.633852 
L 40.7025 79.478632 
L 37.805403 76.929231 
L 36.5175 75.235873 
L 34.782389 72.664615 
L 32.778814 68.4 
L 32.3325 67.193758 
L 31.222243 64.135385 
L 30.028231 59.870769 
L 29.056651 55.606154 
L 28.221055 51.341538 
L 28.1475 50.919376 
L 27.45327 47.076923 
L 26.800406 42.812308 
L 26.235539 38.547692 
L 25.736765 34.283077 
L 25.288782 30.018462 
L 24.880608 25.753846 
L 24.50419 21.489231 
L 24.15352 17.224615 
L 23.9625 14.7454 
L 23.81492 12.96 
" clip-path="url(#p081ec5ccb6)" style="fill: none; stroke: #000000"/>
    <path d="M 95.1075 91.915298 
L 90.9225 91.83996 
L 86.7375 91.750828 
L 82.5525 91.644279 
L 78.3675 91.515439 
L 74.1825 91.357594 
L 69.9975 91.161066 
L 65.8125 90.910776 
L 64.693848 90.822563 
M 41.818052 88.501808 
L 40.7025 88.332237 
L 36.5175 87.253245 
L 32.503383 85.458462 
L 32.3325 85.371433 
L 28.1475 82.931951 
L 25.917098 81.193846 
L 23.9625 78.740681 
L 22.44612 76.929231 
L 20.258863 72.664615 
L 19.7775 71.254673 
L 18.472417 68.4 
L 17.109132 64.135385 
L 16.146999 59.870769 
L 15.5925 56.680938 
" clip-path="url(#p081ec5ccb6)" style="fill: none; stroke: #000000"/>
    <path clip-path="url(#p081ec5ccb6)" style="fill: none; stroke: #000000"/>
   </g>
   <g id="patch_3">
    <path d="M 13.5 96.12 
L 13.5 12.96 
" style="fill: none; stroke: #000000; stroke-width: 0.5; stroke-linejoin: miter; stroke-linecap: square"/>
   </g>
   <g id="patch_4">
    <path d="M 13.5 96.12 
L 97.2 96.12 
" style="fill: none; stroke: #000000; stroke-width: 0.5; stroke-linejoin: miter; stroke-linecap: square"/>
   </g>
   <g id="text_12">
    <g clip-path="url(#p081ec5ccb6)">
     <text style="font-size: 6px; font-family: 'DejaVu Sans', 'Arial', 'Helvetica', 'Lucida Grande', 'Verdana', 'Geneva', 'Lucid', 'Avant Garde', sans-serif" transform="translate(59.553115 50.751374) rotate(-304.78435)">0.001</text>
    </g>
   </g>
   <g id="text_13">
    <g clip-path="url(#p081ec5ccb6)">
     <text style="font-size: 6px; font-family: 'DejaVu Sans', 'Arial', 'Helvetica', 'Lucida Grande', 'Verdana', 'Geneva', 'Lucid', 'Avant Garde', sans-serif" transform="translate(61.577331 67.677941) rotate(-333.38692)">0.010</text>
    </g>
   </g>
   <g id="text_14">
    <g clip-path="url(#p081ec5ccb6)">
     <text style="font-size: 6px; font-family: 'DejaVu Sans', 'Arial', 'Helvetica', 'Lucida Grande', 'Verdana', 'Geneva', 'Lucid', 'Avant Garde', sans-serif" transform="translate(82.237888 82.094263) rotate(-355.912058)">0.100</text>
    </g>
   </g>
   <g id="text_15">
    <g clip-path="url(#p081ec5ccb6)">
     <text style="font-size: 6px; font-family: 'DejaVu Sans', 'Arial', 'Helvetica', 'Lucida Grande', 'Verdana', 'Geneva', 'Lucid', 'Avant Garde', sans-serif" transform="translate(44.511593 84.13977) rotate(-348.387135)">0.500</text>
    </g>
   </g>
   <g id="text_16">
    <g clip-path="url(#p081ec5ccb6)">
     <text style="font-size: 6px; font-family: 'DejaVu Sans', 'Arial', 'Helvetica', 'Lucida Grande', 'Verdana', 'Geneva', 'Lucid', 'Avant Garde', sans-serif" transform="translate(44.552107 90.491471) rotate(-354.65001)">0.900</text>
    </g>
   </g>
  </g>
 </g>
 <defs>
  <clipPath id="p081ec5ccb6">
   <rect x="13.5" y="12.96" width="83.7" height="83.16"/>
  </clipPath>
 </defs>
</svg>
