<?xml version="1.0" encoding="utf-8" standalone="no"?>
<!DOCTYPE svg PUBLIC "-//W3C//DTD SVG 1.1//EN"
  "http://www.w3.org/Graphics/SVG/1.1/DTD/svg11.dtd">
<svg xmlns:xlink="http://www.w3.org/1999/xlink" width="237.6pt" height="180pt" viewBox="0 0 237.6 180" xmlns="http://www.w3.org/2000/svg" version="1.1">
 <metadata>
  <rdf:RDF xmlns:dc="http://purl.org/dc/elements/1.1/" xmlns:cc="http://creativecommons.org/ns#" xmlns:rdf="http://www.w3.org/1999/02/22-rdf-syntax-ns#">
   <cc:Work>
    <dc:type rdf:resource="http://purl.org/dc/dcmitype/StillImage"/>
    <dc:date>2026-02-16T12:41:15.968481</dc:date>
    <dc:format>image/svg+xml</dc:format>
    <dc:creator>
     <cc:Agent>
      <dc:title>Matplotlib v3.10.8, https://matplotlib.org/</dc:title>
     </cc:Agent>
    </dc:creator>
   </cc:Work>
  </rdf:RDF>
 </metadata>
 <defs>
  <style type="text/css">*{stroke-linejoin: round; stroke-linecap: butt}</style>
 </defs>
 <g id="figure_1">
  <g id="patch_1">
   <path d="M 0 180 
L 237.6 180 
L 237.6 0 
L 0 0 
L 0 180 
z
" style="fill: none"/>
  </g>
  <g id="axes_1">
   <g id="patch_2">
    <path d="M 29.7 160.2 
L 213.84 160.2 
L 213.84 21.6 
L 29.7 21.6 
L 29.7 160.2 
z
" style="fill: none"/>
   </g>
   <g id="patch_3">
    <path d="M 38.07 160.2 
L 46.44 160.2 
L 46.44 77.7 
L 38.07 77.7 
z
" clip-path="url(#paf4ba77f3b)" style="fill: #1f77b4"/>
   </g>
   <g id="patch_4">
    <path d="M 46.44 160.2 
L 54.81 160.2 
L 54.81 61.2 
L 46.44 61.2 
z
" clip-path="url(#paf4ba77f3b)" style="fill: #1f77b4"/>
   </g>
   <g id="patch_5">
    <path d="M 54.81 160.2 
L 63.18 160.2 
L 63.18 77.7 
L 54.81 77.7 
z
" clip-path="url(#paf4ba77f3b)" style="fill: #1f77b4"/>
   </g>
   <g id="patch_6">
    <path d="M 63.18 160.2 
L 71.55 160.2 
L 71.55 44.7 
L 63.18 44.7 
z
" clip-path="url(#paf4ba77f3b)" style="fill: #1f77b4"/>
   </g>
   <g id="patch_7">
    <path d="M 71.55 160.2 
L 79.92 160.2 
L 79.92 28.2 
L 71.55 28.2 
z
" clip-path="url(#paf4ba77f3b)" style="fill: #1f77b4"/>
   </g>
   <g id="patch_8">
    <path d="M 79.92 160.2 
L 88.29 160.2 
L 88.29 61.2 
L 79.92 61.2 
z
" clip-path="url(#paf4ba77f3b)" style="fill: #1f77b4"/>
   </g>
   <g id="patch_9">
    <path d="M 88.29 160.2 
L 96.66 160.2 
L 96.66 143.7 
L 88.29 143.7 
z
" clip-path="url(#paf4ba77f3b)" style="fill: #1f77b4"/>
   </g>
   <g id="patch_10">
    <path d="M 96.66 160.2 
L 105.03 160.2 
L 105.03 143.7 
L 96.66 143.7 
z
" clip-path="url(#paf4ba77f3b)" style="fill: #1f77b4"/>
   </g>
   <g id="patch_11">
    <path d="M 105.03 160.2 
L 113.4 160.2 
L 113.4 143.7 
L 105.03 143.7 
z
" clip-path="url(#paf4ba77f3b)" style="fill: #1f77b4"/>
   </g>
   <g id="patch_12">
    <path d="M 113.4 160.2 
L 121.77 160.2 
L 121.77 94.2 
L 113.4 94.2 
z
" clip-path="url(#paf4ba77f3b)" style="fill: #1f77b4"/>
   </g>
   <g id="patch_13">
    <path d="M 121.77 160.2 
L 130.14 160.2 
L 130.14 127.2 
L 121.77 127.2 
z
" clip-path="url(#paf4ba77f3b)" style="fill: #1f77b4"/>
   </g>
   <g id="patch_14">
    <path d="M 130.14 160.2 
L 138.51 160.2 
L 138.51 143.7 
L 130.14 143.7 
z
" clip-path="url(#paf4ba77f3b)" style="fill: #1f77b4"/>
   </g>
   <g id="patch_15">
    <path d="M 138.51 160.2 
L 146.88 160.2 
L 146.88 143.7 
L 138.51 143.7 
z
" clip-path="url(#paf4ba77f3b)" style="fill: #1f77b4"/>
   </g>
   <g id="patch_16">
    <path d="M 146.88 160.2 
L 155.25 160.2 
L 155.25 143.7 
L 146.88 143.7 
z
" clip-path="url(#paf4ba77f3b)" style="fill: #1f77b4"/>
   </g>
   <g id="patch_17">
    <path d="M 155.25 160.2 
L 163.62 160.2 
L 163.62 160.2 
L 155.25 160.2 
z
" clip-path="url(#paf4ba77f3b)" style="fill: #1f77b4"/>
   </g>
   <g id="patch_18">
    <path d="M 163.62 160.2 
L 171.99 160.2 
L 171.99 160.2 
L 163.62 160.2 
z
" clip-path="url(#paf4ba77f3b)" style="fill: #1f77b4"/>
   </g>
   <g id="patch_19">
    <path d="M 171.99 160.2 
L 180.36 160.2 
L 180.36 160.2 
L 171.99 160.2 
z
" clip-path="url(#paf4ba77f3b)" style="fill: #1f77b4"/>
   </g>
   <g id="patch_20">
    <path d="M 180.36 160.2 
L 188.73 160.2 
L 188.73 160.2 
L 180.36 160.2 
z
" clip-path="url(#paf4ba77f3b)" style="fill: #1f77b4"/>
   </g>
   <g id="patch_21">
    <path d="M 188.73 160.2 
L 197.1 160.2 
L 197.1 160.2 
L 188.73 160.2 
z
" clip-path="url(#paf4ba77f3b)" style="fill: #1f77b4"/>
   </g>
   <g id="patch_22">
    <path d="M 197.1 160.2 
L 205.47 160.2 
L 205.47 143.7 
L 197.1 143.7 
z
" clip-path="url(#paf4ba77f3b)" style="fill: #1f77b4"/>
   </g>
   <g id="matplotlib.axis_1">
    <g id="xtick_1">
     <g id="line2d_1">
      <defs>
       <path id="mfadc0036aa" d="M 0 0 
L 0 3.5 
" style="stroke: #000000; stroke-width: 0.8"/>
      </defs>
      <g>
       <use xlink:href="#mfadc0036aa" x="47.687338" y="160.2" style="stroke: #000000; stroke-width: 0.8"/>
      </g>
     </g>
     <g id="text_1">
      <text style="font-size: 6px; font-family: 'DejaVu Sans', 'Arial', 'Helvetica', 'Lucida Grande', 'Verdana', 'Geneva', 'Lucid', 'Avant Garde', sans-serif; text-anchor: middle" x="47.687338" y="171.759062" transform="rotate(-0 47.687338 171.759062)">10</text>
     </g>
    </g>
    <g id="xtick_2">
     <g id="line2d_2">
      <g>
       <use xlink:href="#mfadc0036aa" x="87.263214" y="160.2" style="stroke: #000000; stroke-width: 0.8"/>
      </g>
     </g>
     <g id="text_2">
      <text style="font-size: 6px; font-family: 'DejaVu Sans', 'Arial', 'Helvetica', 'Lucida Grande', 'Verdana', 'Geneva', 'Lucid', 'Avant Garde', sans-serif; text-anchor: middle" x="87.263214" y="171.759062" transform="rotate(-0 87.263214 171.759062)">20</text>
     </g>
    </g>
    <g id="xtick_3">
     <g id="line2d_3">
      <g>
       <use xlink:href="#mfadc0036aa" x="126.83909" y="160.2" style="stroke: #000000; stroke-width: 0.8"/>
      </g>
     </g>
     <g id="text_3">
      <text style="font-size: 6px; font-family: 'DejaVu Sans', 'Arial', 'Helvetica', 'Lucida Grande', 'Verdana', 'Geneva', 'Lucid', 'Avant Garde', sans-serif; text-anchor: middle" x="126.83909" y="171.759062" transform="rotate(-0 126.83909 171.759062)">30</text>
     </g>
    </g>
    <g id="xtick_4">
     <g id="line2d_4">
      <g>
       <use xlink:href="#mfadc0036aa" x="166.414967" y="160.2" style="stroke: #000000; stroke-width: 0.8"/>
      </g>
     </g>
     <g id="text_4">
      <text style="font-size: 6px; font-family: 'DejaVu Sans', 'Arial', 'Helvetica', 'Lucida Grande', 'Verdana', 'Geneva', 'Lucid', 'Avant Garde', sans-serif; text-anchor: middle" x="166.414967" y="171.759062" transform="rotate(-0 166.414967 171.759062)">40</text>
     </g>
    </g>
    <g id="xtick_5">
     <g id="line2d_5">
      <g>
       <use xlink:href="#mfadc0036aa" x="205.990843" y="160.2" style="stroke: #000000; stroke-width: 0.8"/>
      </g>
     </g>
     <g id="text_5">
      <text style="font-size: 6px; font-family: 'DejaVu Sans', 'Arial', 'Helvetica', 'Lucida Grande', 'Verdana', 'Geneva', 'Lucid', 'Avant Garde', sans-serif; text-anchor: middle" x="205.990843" y="171.759062" transform="rotate(-0 205.990843 171.759062)">50</text>
     </g>
    </g>
   </g>
   <g id="matplotlib.axis_2">
    <g id="ytick_1">
     <g id="line2d_6">
      <defs>
       <path id="m93fd907a44" d="M 0 0 
L -3.5 0 
" style="stroke: #000000; stroke-width: 0.8"/>
      </defs>
      <g>
       <use xlink:href="#m93fd907a44" x="29.7" y="160.2" style="stroke: #000000; stroke-width: 0.8"/>
      </g>
     </g>
     <g id="text_6">
      <text style="font-size: 6px; font-family: 'DejaVu Sans', 'Arial', 'Helvetica', 'Lucida Grande', 'Verdana', 'Geneva', 'Lucid', 'Avant Garde', sans-serif; text-anchor: end" x="22.7" y="162.479531" transform="rotate(-0 22.7 162.479531)">0</text>
     </g>
    </g>
    <g id="ytick_2">
     <g id="line2d_7">
      <g>
       <use xlink:href="#m93fd907a44" x="29.7" y="143.7" style="stroke: #000000; stroke-width: 0.8"/>
      </g>
     </g>
     <g id="text_7">
      <text style="font-size: 6px; font-family: 'DejaVu Sans', 'Arial', 'Helvetica', 'Lucida Grande', 'Verdana', 'Geneva', 'Lucid', 'Avant Garde', sans-serif; text-anchor: end" x="22.7" y="145.979531" transform="rotate(-0 22.7 145.979531)">1</text>
     </g>
    </g>
    <g id="ytick_3">
     <g id="line2d_8">
      <g>
       <use xlink:href="#m93fd907a44" x="29.7" y="127.2" style="stroke: #000000; stroke-width: 0.8"/>
      </g>
     </g>
     <g id="text_8">
      <text style="font-size: 6px; font-family: 'DejaVu Sans', 'Arial', 'Helvetica', 'Lucida Grande', 'Verdana', 'Geneva', 'Lucid', 'Avant Garde', sans-serif; text-anchor: end" x="22.7" y="129.479531" transform="rotate(-0 22.7 129.479531)">2</text>
     </g>
    </g>
    <g id="ytick_4">
     <g id="line2d_9">
      <g>
       <use xlink:href="#m93fd907a44" x="29.7" y="110.7" style="stroke: #000000; stroke-width: 0.8"/>
      </g>
     </g>
     <g id="text_9">
      <text style="font-size: 6px; font-family: 'DejaVu Sans', 'Arial', 'Helvetica', 'Lucida Grande', 'Verdana', 'Geneva', 'Lucid', 'Avant Garde', sans-serif; text-anchor: end" x="22.7" y="112.979531" transform="rotate(-0 22.7 112.979531)">3</text>
     </g>
    </g>
    <g id="ytick_5">
     <g id="line2d_10">
      <g>
       <use xlink:href="#m93fd907a44" x="29.7" y="94.2" style="stroke: #000000; stroke-width: 0.8"/>
      </g>
     </g>
     <g id="text_10">
      <text style="font-size: 6px; font-family: 'DejaVu Sans', 'Arial', 'Helvetica', 'Lucida Grande', 'Verdana', 'Geneva', 'Lucid', 'Avant Garde', sans-serif; text-anchor: end" x="22.7" y="96.479531" transform="rotate(-0 22.7 96.479531)">4</text>
     </g>
    </g>
    <g id="ytick_6">
     <g id="line2d_11">
      <g>
       <use xlink:href="#m93fd907a44" x="29.7" y="77.7" style="stroke: #000000; stroke-width: 0.8"/>
      </g>
     </g>
     <g id="text_11">
      <text style="font-size: 6px; font-family: 'DejaVu Sans', 'Arial', 'Helvetica', 'Lucida Grande', 'Verdana', 'Geneva', 'Lucid', 'Avant Garde', sans-serif; text-anchor: end" x="22.7" y="79.979531" transform="rotate(-0 22.7 79.979531)">5</text>
     </g>
    </g>
    <g id="ytick_7">
     <g id="line2d_12">
      <g>
       <use xlink:href="#m93fd907a44" x="29.7" y="61.2" style="stroke: #000000; stroke-width: 0.8"/>
      </g>
     </g>
     <g id="text_12">
      <text style="font-size: 6px; font-family: 'DejaVu Sans', 'Arial', 'Helvetica', 'Lucida Grande', 'Verdana', 'Geneva', 'Lucid', 'Avant Garde', sans-serif; text-anchor: end" x="22.7" y="63.479531" transform="rotate(-0 22.7 63.479531)">6</text>
     </g>
    </g>
    <g id="ytick_8">
     <g id="line2d_13">
      <g>
       <use xlink:href="#m93fd907a44" x="29.7" y="44.7" style="stroke: #000000; stroke-width: 0.8"/>
      </g>
     </g>
     <g id="text_13">
      <text style="font-size: 6px; font-family: 'DejaVu Sans', 'Arial', 'Helvetica', 'Lucida Grande', 'Verdana', 'Geneva', 'Lucid', 'Avant Garde', sans-serif; text-anchor: end" x="22.7" y="46.979531" transform="rotate(-0 22.7 46.979531)">7</text>
     </g>
    </g>
    <g id="ytick_9">
     <g id="line2d_14">
      <g>
       <use xlink:href="#m93fd907a44" x="29.7" y="28.2" style="stroke: #000000; stroke-width: 0.8"/>
      </g>
     </g>
     <g id="text_14">
      <text style="font-size: 6px; font-family: 'DejaVu Sans', 'Arial', 'Helvetica', 'Lucida Grande', 'Verdana', 'Geneva', 'Lucid', 'Avant Garde', sans-serif; text-anchor: end" x="22.7" y="30.479531" transform="rotate(-0 22.7 30.479531)">8</text>
     </g>
    </g>
   </g>
   <g id="line2d_15">
    <path d="M 72.962515 160.2 
L 72.962515 21.6 
" clip-path="url(#paf4ba77f3b)" style="fill: none; stroke-dasharray: 3.7,1.6; stroke-dashoffset: 0; stroke: #1f77b4"/>
   </g>
   <g id="patch_23">
    <path d="M 29.7 160.2 
L 29.7 21.6 
" style="fill: none; stroke: #000000; stroke-width: 0.5; stroke-linejoin: miter; stroke-linecap: square"/>
   </g>
   <g id="patch_24">
    <path d="M 29.7 160.2 
L 213.84 160.2 
" style="fill: none; stroke: #000000; stroke-width: 0.5; stroke-linejoin: miter; stroke-linecap: square"/>
   </g>
  </g>
 </g>
 <defs>
  <clipPath id="paf4ba77f3b">
   <rect x="29.7" y="21.6" width="184.14" height="138.6"/>
  </clipPath>
 </defs>
</svg>
